<svg width="40" height="40" viewBox="0 0 40 40" fill="none" xmlns="http://www.w3.org/2000/svg">
<g id="Group 162562">
<g id="Help">
<path id="Rectangle 8" opacity="0.2" d="M40 20C40 8.9543 31.0457 0 20 0C8.9543 0 0 8.9543 0 20C0 31.0457 8.9543 40 20 40C31.0457 40 40 31.0457 40 20Z" fill="#94D073"/>
</g>
<g id="Group 162561">
<path id="Vector" d="M11 25V19C11 16.6131 11.9482 14.3239 13.636 12.636C15.3239 10.9482 17.6131 10 20 10C22.3869 10 24.6761 10.9482 26.364 12.636C28.0518 14.3239 29 16.6131 29 19V25" stroke="#94D073" stroke-width="1.5" stroke-linecap="round" stroke-linejoin="round"/>
<path id="Vector_2" d="M29 26C29 26.5304 28.7893 27.0391 28.4142 27.4142C28.0391 27.7893 27.5304 28 27 28H26C25.4696 28 24.9609 27.7893 24.5858 27.4142C24.2107 27.0391 24 26.5304 24 26V23C24 22.4696 24.2107 21.9609 24.5858 21.5858C24.9609 21.2107 25.4696 21 26 21H29V26ZM11 26C11 26.5304 11.2107 27.0391 11.5858 27.4142C11.9609 27.7893 12.4696 28 13 28H14C14.5304 28 15.0391 27.7893 15.4142 27.4142C15.7893 27.0391 16 26.5304 16 26V23C16 22.4696 15.7893 21.9609 15.4142 21.5858C15.0391 21.2107 14.5304 21 14 21H11V26Z" stroke="#94D073" stroke-width="1.5" stroke-linecap="round" stroke-linejoin="round"/>
</g>
</g>
</svg>
