    <svg width="56" height="56" viewBox="0 0 56 56" fill="none" xmlns="http://www.w3.org/2000/svg">
<g clip-path="url(#clip0_558_807)">
<rect width="56" height="56" rx="28" fill="#CEE4D4"/>
<path d="M32.096 37.4648C30.9009 37.4286 27.3551 36.297 26.6502 35.7749Z" fill="#FFE7D0"/>
<path d="M32.5878 43.0417C34.7926 46.13 41.9217 47.0467 43.1381 47.4881C45.1331 48.2441 45.4725 50.2881 45.502 51.4015C45.5872 54.5737 45.9593 60.0156 44.8462 62.8914" fill="#FFE7D0"/>
<path d="M32.5878 43.0417C31.2501 40.6304 32.096 37.4648 32.096 37.4648C32.096 37.4648 34.6877 37.5883 35.727 37.0563C37.7253 36.1949 40.099 33.0441 40.0744 28.5328C40.0178 24.4702 39.1638 20.4587 37.5614 16.7283C36.1155 12.9714 27.1437 9.45986 20.3849 16.0217C20.3849 16.0217 16.7407 19.3686 18.857 24.9307" fill="#FFE7D0"/>
<path d="M8.35557 62.8914C7.3933 59.7933 7.77198 51.6469 7.91132 50.4973C8.05066 49.3476 8.58835 47.0154 11.4358 46.3055C12.6948 45.9876 20.5783 44.7069 22.1782 42.485" fill="#FFE7D0"/>
<path d="M22.5651 34.085C22.5651 34.085 19.9177 32.5747 18.8619 29.4255C17.8062 26.2763 18.857 24.9307 18.857 24.9307C19.7046 23.6608 23.0766 23.3495 23.0766 27.1806" fill="#FFE7D0"/>
<path d="M22.5651 34.085C22.7668 38.0874 22.8176 39.9239 22.1782 42.485Z" fill="#FFE7D0"/>
<path d="M32.5878 43.0417C34.7926 46.13 41.9217 47.0467 43.1381 47.4881C45.1331 48.2441 45.4725 50.2881 45.502 51.4015C45.5872 54.5737 45.9593 60.0156 44.8462 62.8914H8.35557C7.3933 59.7933 7.77198 51.6469 7.91132 50.4973C8.05066 49.3476 8.58835 47.0154 11.4358 46.3055C12.6948 45.9876 20.5783 44.7069 22.1782 42.485C22.8176 39.9239 22.7668 38.0874 22.5651 34.085C22.5651 34.085 19.9177 32.5747 18.8619 29.4255C17.8062 26.2763 18.857 24.9307 18.857 24.9307C16.7407 19.3686 20.3849 16.0217 20.3849 16.0217C27.1437 9.45986 36.1155 12.9714 37.5614 16.7283C39.1638 20.4587 40.0178 24.4702 40.0744 28.5328C40.099 33.0441 37.7253 36.1949 35.727 37.0563C34.6877 37.5883 32.096 37.4648 32.096 37.4648C32.096 37.4648 31.2501 40.6304 32.5878 43.0417Z" fill="#FFE7D0"/>
<path d="M32.096 37.4648C30.9009 37.4286 27.3551 36.297 26.6502 35.7749M32.096 37.4648C32.096 37.4648 31.2501 40.6304 32.5878 43.0417C34.7926 46.13 41.9217 47.0467 43.1381 47.4881C45.1331 48.2441 45.4725 50.2881 45.502 51.4015C45.5872 54.5737 45.9593 60.0156 44.8462 62.8914H8.35557C7.3933 59.7933 7.77198 51.6469 7.91132 50.4973C8.05066 49.3476 8.58835 47.0154 11.4358 46.3055C12.6948 45.9876 20.5783 44.7069 22.1782 42.485C22.8176 39.9239 22.7668 38.0874 22.5651 34.085C22.5651 34.085 19.9177 32.5747 18.8619 29.4255C17.8062 26.2763 18.857 24.9307 18.857 24.9307M32.096 37.4648C32.096 37.4648 34.6877 37.5883 35.727 37.0563C37.7253 36.1949 40.099 33.0441 40.0744 28.5328C40.0178 24.4702 39.1638 20.4587 37.5614 16.7283C36.1155 12.9714 27.1437 9.45986 20.3849 16.0217C20.3849 16.0217 16.7407 19.3686 18.857 24.9307M18.857 24.9307C19.7046 23.6608 23.0766 23.3495 23.0766 27.1806" stroke="#373743" stroke-width="0.5" stroke-linecap="round" stroke-linejoin="round"/>
<path opacity="0.4" d="M32.0583 37.3378C31.8996 38.4587 31.6537 40.1058 32.0583 41.4234C30.5583 41.066 26.324 38.1251 26.324 35.7368C28.1767 36.4638 30.0979 37.0002 32.0583 37.3378Z" fill="#373743"/>
<path d="M20.7892 25.8589C20.1499 26.0335 19.7138 27.0036 20.222 28.0495" stroke="#373743" stroke-width="0.5" stroke-linecap="round"/>
<path d="M7.76873 49.015C7.62873 50.1646 7.24826 58.311 8.21509 61.4091H44.8786C45.9969 58.5333 45.623 53.0915 45.5374 49.9192C45.5077 48.8058 45.1668 46.7618 43.1623 46.0058C42.0433 45.6016 36.3177 44.8825 33.3529 42.4943L27.5059 45.2943L21.3294 41.8354C18.6652 43.4913 12.4005 44.5492 11.3099 44.8232C8.44897 45.5331 7.90873 47.8653 7.76873 49.015Z" fill="#E76158" stroke="#373743" stroke-width="0.5" stroke-linecap="round" stroke-linejoin="round"/>
<path d="M25.0599 45.1031C22.2599 44.3339 21.3984 43.0673 20.7297 42.0923C20.9587 41.0777 21.0823 39.6941 22.3176 39.1177C20.1764 40.2706 22.3159 41.0596 26.221 41.8683L25.0599 45.1031Z" fill="white"/>
<path d="M30.3749 44.6946C33.1749 43.9254 33.025 43.4758 33.4104 42.9685C33.4104 41.7579 33.3215 40.1422 32.1027 39.6629C33.9029 40.5918 32.8653 41.4087 29.0408 41.8683L30.3749 44.6946Z" fill="white"/>
<path d="M25.0599 45.1031C22.2599 44.3339 21.3984 43.0673 20.7297 42.0923C20.9587 41.0777 21.0823 39.6941 22.3176 39.1177C20.1764 40.2706 22.3159 41.0596 26.221 41.8683L25.0599 45.1031Z" stroke="#373743" stroke-width="0.5" stroke-linecap="round" stroke-linejoin="round"/>
<path d="M30.3749 44.6946C33.1749 43.9254 33.025 43.4758 33.4104 42.9685C33.4104 41.7579 33.3215 40.1422 32.1027 39.6629C33.9029 40.5918 32.8653 41.4087 29.0408 41.8683L30.3749 44.6946Z" stroke="#373743" stroke-width="0.5" stroke-linecap="round" stroke-linejoin="round"/>
<path d="M22.8117 40.7651L22.5647 39.0356C22.1501 39.067 21.4117 39.5721 21.4117 40.0239C21.4117 40.4756 22.4248 40.7337 22.8117 40.7651Z" fill="#373743"/>
<path d="M31.5412 41.2592L31.8706 39.6945C32.2852 39.7258 32.9412 39.9839 32.9412 40.4356C32.9412 40.8874 31.9281 41.2278 31.5412 41.2592Z" fill="#373743"/>
<g opacity="0.2">
<path d="M28.7411 41.8355L30.1411 44.1282L28.8465 44.6799L28.0691 44.9945L28.7411 41.8355Z" fill="#373743"/>
<path d="M26.5176 41.8354L27.1764 44.9649L25.9049 44.3719L25.3037 44.0425L26.5176 41.8354Z" fill="#373743"/>
</g>
<path d="M38.2559 19.0055C36.6193 19.9425 30.3483 20.5752 28.4551 20.3594C27.569 20.258 25.8559 20.0922 24.82 19.9763C24.7882 19.9776 24.7575 19.9885 24.7319 20.0076C24.7062 20.0267 24.6869 20.0531 24.6762 20.0834C24.6656 20.1137 24.6642 20.1465 24.6722 20.1777C24.6802 20.2088 24.6973 20.2368 24.7212 20.258C29.1467 23.209 23.4558 30.0269 23.1594 26.2452C22.5825 23.1349 19.8909 24.2618 19.5722 24.4566C19.1882 24.6992 18.8665 25.0302 18.6335 25.4226C18.3451 25.8878 18.1937 28.3751 19.6726 30.922C19.6897 30.9543 19.6953 30.9915 19.6887 31.0275C19.682 31.0635 19.6634 31.0961 19.6359 31.12L19.1036 31.5418C19.0866 31.5542 19.0673 31.5631 19.0468 31.568C19.0264 31.5729 19.0052 31.5736 18.9844 31.5702C18.9637 31.5667 18.9439 31.5592 18.926 31.548C18.9082 31.5367 18.8927 31.522 18.8805 31.5048C11.7522 20.5172 16.8694 18.2827 17.6343 18.0219C17.6611 18.0113 17.6846 17.9936 17.7023 17.9707C17.72 17.9477 17.7312 17.9203 17.7347 17.8915C18.0359 14.815 19.9435 11.2683 24.2399 10.5906C26.5475 10.2026 28.871 10.6179 30.2559 11.1701H30.267C31.9547 11.7207 33.2392 10.75 34.7467 9.28656C34.7675 9.26651 34.792 9.25095 34.8189 9.24085C34.8458 9.23075 34.8745 9.22632 34.9032 9.22783C34.9318 9.22933 34.9599 9.23675 34.9856 9.24962C35.0113 9.26249 35.0342 9.28054 35.0527 9.30266C35.7045 10.0867 35.671 10.6437 35.4432 11.1251C35.4334 11.1525 35.4311 11.182 35.4367 11.2106C35.4422 11.2392 35.4554 11.2657 35.4747 11.2874C35.494 11.309 35.5187 11.325 35.5463 11.3335C35.5739 11.3421 35.6032 11.3429 35.6312 11.336C37.0001 10.8305 39.9993 11.4309 41.1436 10.6179C41.1654 10.6045 41.1901 10.5966 41.2155 10.5948C41.241 10.593 41.2665 10.5974 41.29 10.6077C41.3134 10.6179 41.334 10.6337 41.3502 10.6537C41.3663 10.6737 41.3774 10.6973 41.3826 10.7226C41.8623 14.472 40.5141 17.7498 38.2559 19.0055Z" fill="#373743"/>
<path d="M32.8949 25.5508C32.8949 25.6889 33.0068 25.8008 33.1449 25.8008C33.283 25.8008 33.3949 25.6889 33.3949 25.5508H32.8949ZM35.4309 25.279C35.4309 25.4171 35.5428 25.529 35.6809 25.529C35.819 25.529 35.9309 25.4171 35.9309 25.279H35.4309ZM28.0879 25.6558C28.2196 25.6974 28.36 25.6243 28.4015 25.4926C28.4431 25.3609 28.37 25.2205 28.2383 25.179L28.0879 25.6558ZM19.3371 24.1277L19.4446 24.3537L19.4525 24.3495L19.3371 24.1277ZM17.7799 26.7544C17.8051 26.8901 17.9356 26.9797 18.0714 26.9545C18.2071 26.9292 18.2967 26.7987 18.2715 26.663L17.7799 26.7544ZM32.8949 25.4174C32.8949 26.9057 31.859 28.0481 30.6548 28.0481V28.5481C32.2011 28.5481 33.3949 27.111 33.3949 25.4174H32.8949ZM30.6548 28.0481C29.4506 28.0481 28.4147 26.9057 28.4147 25.4174H27.9147C27.9147 27.111 29.1086 28.5481 30.6548 28.5481V28.0481ZM28.4147 25.4174C28.4147 23.9291 29.4506 22.7867 30.6548 22.7867V22.2867C29.1086 22.2867 27.9147 23.7238 27.9147 25.4174H28.4147ZM30.6548 22.7867C31.859 22.7867 32.8949 23.9291 32.8949 25.4174H33.3949C33.3949 23.7238 32.2011 22.2867 30.6548 22.2867V22.7867ZM40.3881 24.8607C40.3881 26.349 39.3523 27.4914 38.148 27.4914V27.9914C39.6943 27.9914 40.8881 26.5543 40.8881 24.8607H40.3881ZM38.148 27.4914C36.9438 27.4914 35.908 26.349 35.908 24.8607H35.408C35.408 26.5543 36.6018 27.9914 38.148 27.9914V27.4914ZM35.908 24.8607C35.908 23.3724 36.9438 22.23 38.148 22.23V21.73C36.6018 21.73 35.408 23.1671 35.408 24.8607H35.908ZM38.148 22.23C39.3523 22.23 40.3881 23.3724 40.3881 24.8607H40.8881C40.8881 23.1671 39.6943 21.73 38.148 21.73V22.23ZM33.3949 25.5508C33.3949 25.3704 33.4886 25.2226 33.6753 25.1039C33.8675 24.9817 34.14 24.9056 34.4281 24.8881C34.7163 24.8706 34.9904 24.9136 35.1816 25.0001C35.3746 25.0875 35.4309 25.189 35.4309 25.279H35.9309C35.9309 24.9104 35.6702 24.6724 35.3877 24.5446C35.1034 24.4159 34.7435 24.368 34.3978 24.389C34.0518 24.41 33.6903 24.5018 33.407 24.682C33.1182 24.8657 32.8949 25.1548 32.8949 25.5508H33.3949ZM28.1631 25.4174C28.2383 25.179 28.2383 25.179 28.2382 25.1789C28.2381 25.1789 28.238 25.1789 28.2379 25.1788C28.2377 25.1788 28.2373 25.1787 28.2368 25.1785C28.2359 25.1782 28.2346 25.1778 28.2328 25.1773C28.2293 25.1762 28.2241 25.1745 28.2173 25.1724C28.2037 25.1682 28.1836 25.1619 28.1573 25.1538C28.1048 25.1376 28.0277 25.114 27.9292 25.0844C27.732 25.0251 27.4487 24.9416 27.1033 24.8444C26.4127 24.65 25.4723 24.4002 24.4748 24.1795C23.4786 23.9591 22.419 23.7662 21.4918 23.6876C21.0283 23.6482 20.5921 23.637 20.2104 23.6667C19.8324 23.6962 19.4884 23.7672 19.2217 23.906L19.4525 24.3495C19.633 24.2556 19.9001 24.1924 20.2493 24.1652C20.5948 24.1383 21.0019 24.1478 21.4496 24.1858C22.3449 24.2617 23.38 24.4494 24.3668 24.6677C25.3522 24.8857 26.283 25.1329 26.9678 25.3257C27.3101 25.422 27.5905 25.5047 27.7852 25.5632C27.8826 25.5925 27.9585 25.6157 28.0099 25.6316C28.0357 25.6395 28.0553 25.6456 28.0684 25.6497C28.0749 25.6517 28.0799 25.6533 28.0831 25.6543C28.0848 25.6548 28.086 25.6552 28.0868 25.6555C28.0872 25.6556 28.0875 25.6557 28.0876 25.6557C28.0877 25.6558 28.0878 25.6558 28.0878 25.6558C28.0879 25.6558 28.0879 25.6558 28.1631 25.4174ZM19.2298 23.902C18.7081 24.1501 18.2832 24.5645 18.021 25.0805L18.4667 25.307C18.679 24.8892 19.0229 24.554 19.4445 24.3535L19.2298 23.902ZM18.021 25.0805C17.7588 25.5965 17.6741 26.185 17.7799 26.7544L18.2715 26.663C18.1857 26.2017 18.2544 25.7249 18.4667 25.307L18.021 25.0805Z" fill="#373743"/>
<path d="M34.7132 26.2626C34.6578 26.1361 34.5104 26.0785 34.3839 26.1339C34.2574 26.1893 34.1998 26.3368 34.2552 26.4632L34.7132 26.2626ZM34.7822 30.5109C34.6561 30.5673 34.5996 30.7151 34.656 30.8412C34.7123 30.9672 34.8602 31.0237 34.9863 30.9674L34.7822 30.5109ZM27.0523 22.6359C26.9634 22.7415 26.9769 22.8993 27.0825 22.9882C27.1881 23.0772 27.3458 23.0637 27.4347 22.9581L27.0523 22.6359ZM30.832 21.2488L30.8741 21.0024L30.8724 21.0021L30.832 21.2488ZM31.2842 21.6281C31.4137 21.6761 31.5576 21.6102 31.6056 21.4808C31.6537 21.3513 31.5877 21.2074 31.4583 21.1594L31.2842 21.6281ZM35.0466 21.5832C34.9448 21.6764 34.9378 21.8346 35.031 21.9364C35.1243 22.0383 35.2824 22.0452 35.3842 21.952L35.0466 21.5832ZM38.5334 20.9885L38.6385 20.7617L38.6382 20.7616L38.5334 20.9885ZM38.8139 21.4467C38.9242 21.5299 39.0809 21.5079 39.1641 21.3977C39.2472 21.2875 39.2253 21.1307 39.1151 21.0475L38.8139 21.4467ZM34.4842 26.3629C34.2552 26.4632 34.2552 26.4632 34.2553 26.4632C34.2553 26.4633 34.2553 26.4633 34.2553 26.4633C34.2553 26.4634 34.2554 26.4636 34.2555 26.4638C34.2556 26.4641 34.2559 26.4647 34.2562 26.4655C34.2569 26.467 34.2579 26.4692 34.2592 26.4722C34.2618 26.4782 34.2657 26.4872 34.2708 26.4988C34.281 26.5222 34.296 26.5565 34.315 26.6004C34.3531 26.6882 34.4076 26.814 34.473 26.9661C34.6039 27.2705 34.7782 27.68 34.9524 28.1007C35.1268 28.5218 35.3003 28.9522 35.4299 29.2992C35.4947 29.473 35.5476 29.6231 35.5838 29.7393C35.602 29.7976 35.6151 29.8446 35.6235 29.8802C35.6329 29.9206 35.6325 29.9312 35.6325 29.9238H36.1325C36.1325 29.8704 36.1212 29.8128 36.1102 29.7659C36.0981 29.7143 36.0812 29.6548 36.0611 29.5905C36.0209 29.4615 35.9645 29.3017 35.8983 29.1244C35.7656 28.7691 35.5895 28.3323 35.4144 27.9094C35.239 27.4859 35.0638 27.0743 34.9324 26.7687C34.8667 26.6159 34.812 26.4894 34.7736 26.4012C34.7544 26.357 34.7394 26.3224 34.7291 26.2989C34.7239 26.2871 34.72 26.278 34.7173 26.2719C34.716 26.2689 34.715 26.2665 34.7143 26.265C34.7139 26.2642 34.7137 26.2636 34.7135 26.2632C34.7134 26.263 34.7133 26.2629 34.7133 26.2628C34.7133 26.2627 34.7133 26.2627 34.7132 26.2626C34.7132 26.2626 34.7132 26.2626 34.4842 26.3629ZM35.6325 29.9238C35.6325 29.9106 35.6344 29.9454 35.5497 30.0302C35.475 30.105 35.3679 30.1839 35.2498 30.2585C35.1337 30.3319 35.0162 30.3954 34.9269 30.4408C34.8825 30.4634 34.8456 30.4812 34.8201 30.4933C34.8074 30.4993 34.7976 30.5039 34.7911 30.5069C34.7878 30.5084 34.7854 30.5095 34.7839 30.5101C34.7832 30.5105 34.7826 30.5107 34.7823 30.5108C34.7822 30.5109 34.7821 30.5109 34.7821 30.511C34.7821 30.511 34.7821 30.511 34.7821 30.511C34.7821 30.511 34.7821 30.5109 34.7821 30.5109C34.7821 30.5109 34.7822 30.5109 34.8842 30.7391C34.9863 30.9674 34.9863 30.9674 34.9863 30.9673C34.9864 30.9673 34.9864 30.9673 34.9864 30.9673C34.9865 30.9673 34.9866 30.9672 34.9867 30.9672C34.9869 30.9671 34.9872 30.9669 34.9875 30.9668C34.9882 30.9665 34.9891 30.9661 34.9903 30.9656C34.9925 30.9645 34.9957 30.9631 34.9998 30.9612C35.0079 30.9575 35.0195 30.9521 35.0341 30.9452C35.0632 30.9314 35.1044 30.9115 35.1536 30.8865C35.2514 30.8367 35.3835 30.7655 35.5169 30.6812C35.6485 30.5981 35.7909 30.4962 35.9035 30.3835C36.0059 30.2809 36.1325 30.1215 36.1325 29.9238H35.6325ZM27.4347 22.9581C28.3334 21.8913 29.6235 21.3042 30.7915 21.4955L30.8724 21.0021C29.4864 20.775 28.0323 21.4726 27.0523 22.6359L27.4347 22.9581ZM30.7898 21.4952C30.9583 21.524 31.1239 21.5685 31.2842 21.6281L31.4583 21.1594C31.2688 21.089 31.0733 21.0364 30.8741 21.0024L30.7898 21.4952ZM35.3842 21.952C36.3338 21.0827 37.5051 20.7887 38.4285 21.2155L38.6382 20.7616C37.4732 20.2232 36.0904 20.6276 35.0466 21.5832L35.3842 21.952ZM38.4282 21.2154C38.5645 21.2786 38.6938 21.3561 38.8139 21.4467L39.1151 21.0475C38.9667 20.9357 38.807 20.8398 38.6385 20.7617L38.4282 21.2154Z" fill="#373743"/>
<path d="M31.6696 32.6304C32.1584 33.7735 33.8497 34.0482 34.6203 33.9185" stroke="#373743" stroke-width="0.5" stroke-miterlimit="10" stroke-linecap="round"/>
<path d="M30.7645 27.0516C31.2752 27.0516 31.6891 26.4838 31.6891 25.7834C31.6891 25.0829 31.2752 24.5151 30.7645 24.5151C30.2539 24.5151 29.84 25.0829 29.84 25.7834C29.84 26.4838 30.2539 27.0516 30.7645 27.0516Z" fill="#373743"/>
<path d="M31.3727 25.3253C31.1252 24.3832 29.8875 24.2366 28.9925 25.0206" stroke="#373743" stroke-width="0.5" stroke-linecap="round"/>
<path d="M37.9972 26.5936C38.5078 26.5936 38.9218 26.0258 38.9218 25.3254C38.9218 24.6249 38.5078 24.0571 37.9972 24.0571C37.4866 24.0571 37.0726 24.6249 37.0726 25.3254C37.0726 26.0258 37.4866 26.5936 37.9972 26.5936Z" fill="#373743"/>
<path d="M38.6054 24.8673C38.3578 23.9252 37.1202 23.7786 36.2251 24.5626" stroke="#373743" stroke-width="0.5" stroke-linecap="round"/>
</g>
<defs>
<clipPath id="clip0_558_807">
<rect width="56" height="56" rx="28" fill="white"/>
</clipPath>
</defs>
</svg>
