<svg width="43" height="40" viewBox="0 0 43 40" fill="none" xmlns="http://www.w3.org/2000/svg">
<path opacity="0.2" d="M7.62939e-06 20C7.62939e-06 31.0457 9.60661 40 21.457 40C33.3073 40 42.9139 31.0457 42.9139 20C42.9139 8.9543 33.3073 0 21.457 0C9.60661 0 7.62939e-06 8.9543 7.62939e-06 20Z" fill="#94D073"/>
<path d="M22.841 19.999L16.9811 25.946C16.741 26.1723 16.6064 26.4777 16.6064 26.796C16.6064 27.1143 16.741 27.4197 16.9811 27.646C17.0992 27.7577 17.2399 27.8463 17.395 27.9068C17.5502 27.9674 17.7167 27.9985 17.885 27.9985C18.0532 27.9985 18.2197 27.9674 18.3749 27.9068C18.53 27.8463 18.6707 27.7577 18.7888 27.646L25.934 20.846C26.1733 20.6193 26.3074 20.314 26.3074 19.996C26.3074 19.678 26.1733 19.3727 25.934 19.146L18.7888 12.346C18.6707 12.2343 18.53 12.1457 18.3749 12.0852C18.2197 12.0246 18.0532 11.9935 17.885 11.9935C17.7167 11.9935 17.5502 12.0246 17.395 12.0852C17.2399 12.1457 17.0992 12.2343 16.9811 12.346C16.741 12.5723 16.6064 12.8778 16.6064 13.196C16.6064 13.5143 16.741 13.8197 16.9811 14.046L22.841 19.999Z" fill="#94D073"/>
</svg>
