<svg width="30" height="30" viewBox="0 0 30 30" fill="none" xmlns="http://www.w3.org/2000/svg">
<g id="Back">
<path id="Rectangle 15" opacity="0.2" d="M30 15C30 6.71573 23.2843 0 15 0C6.71573 0 0 6.71573 0 15C0 23.2843 6.71573 30 15 30C23.2843 30 30 23.2843 30 15Z" fill="#94D073"/>
<path id="icon_back" d="M16.4233 14.9996L20.5198 10.5394C20.6876 10.3697 20.7817 10.1406 20.7817 9.9019C20.7817 9.6632 20.6876 9.43414 20.5198 9.2644C20.4372 9.18065 20.3389 9.11415 20.2304 9.06876C20.1219 9.02337 20.0055 9 19.8879 9C19.7703 9 19.6539 9.02337 19.5454 9.06876C19.4369 9.11415 19.3386 9.18065 19.256 9.2644L14.261 14.3644C14.0937 14.5344 14 14.7634 14 15.0019C14 15.2404 14.0937 15.4694 14.261 15.6394L19.256 20.7394C19.3386 20.8231 19.4369 20.8896 19.5454 20.935C19.6539 20.9804 19.7703 21.0038 19.8879 21.0038C20.0055 21.0038 20.1219 20.9804 20.2304 20.935C20.3389 20.8896 20.4372 20.8231 20.5198 20.7394C20.6876 20.5697 20.7817 20.3406 20.7817 20.1019C20.7817 19.8632 20.6876 19.6341 20.5198 19.4644L16.4233 14.9996Z" fill="#94D073"/>
<path id="icon_back_2" d="M13.3585 15.0043L9.26197 19.4645C9.09415 19.6343 9.00003 19.8633 9.00003 20.102C9.00003 20.3407 9.09415 20.5698 9.26197 20.7395C9.34451 20.8233 9.44288 20.8898 9.55136 20.9351C9.65984 20.9805 9.77625 21.0039 9.89384 21.0039C10.0114 21.0039 10.1278 20.9805 10.2363 20.9351C10.3448 20.8898 10.4432 20.8233 10.5257 20.7395L15.5207 15.6395C15.688 15.4695 15.7817 15.2405 15.7817 15.002C15.7817 14.7635 15.688 14.5345 15.5207 14.3645L10.5257 9.26451C10.4432 9.18077 10.3448 9.11427 10.2363 9.06888C10.1278 9.02349 10.0114 9.00011 9.89384 9.00011C9.77625 9.00011 9.65983 9.02349 9.55136 9.06888C9.44288 9.11427 9.34451 9.18077 9.26197 9.26451C9.09415 9.43425 9.00003 9.66332 9.00003 9.90201C9.00003 10.1407 9.09415 10.3698 9.26197 10.5395L13.3585 15.0043Z" fill="#94D073"/>
</g>
</svg>
