<svg width="43" height="40" viewBox="0 0 43 40" fill="none" xmlns="http://www.w3.org/2000/svg">
<path opacity="0.2" d="M42.9139 20C42.9139 8.9543 33.3073 0 21.457 0C9.6066 0 0 8.9543 0 20C0 31.0457 9.6066 40 21.457 40C33.3073 40 42.9139 31.0457 42.9139 20Z" fill="#94D073"/>
<path d="M20.073 20.001L25.9328 14.054C26.1729 13.8277 26.3075 13.5223 26.3075 13.204C26.3075 12.8857 26.1729 12.5803 25.9328 12.354C25.8148 12.2423 25.6741 12.1537 25.5189 12.0932C25.3637 12.0326 25.1972 12.0015 25.029 12.0015C24.8608 12.0015 24.6942 12.0326 24.5391 12.0932C24.3839 12.1537 24.2432 12.2423 24.1251 12.354L16.9799 19.154C16.7407 19.3807 16.6066 19.686 16.6066 20.004C16.6066 20.322 16.7407 20.6273 16.9799 20.854L24.1251 27.654C24.2432 27.7657 24.3839 27.8543 24.5391 27.9148C24.6942 27.9754 24.8608 28.0065 25.029 28.0065C25.1972 28.0065 25.3637 27.9754 25.5189 27.9148C25.6741 27.8543 25.8148 27.7657 25.9328 27.654C26.1729 27.4277 26.3075 27.1222 26.3075 26.804C26.3075 26.4857 26.1729 26.1803 25.9328 25.954L20.073 20.001Z" fill="#94D073"/>
</svg>
