<svg width="30" height="30" viewBox="0 0 30 30" fill="none" xmlns="http://www.w3.org/2000/svg">
<path d="M14.6288 7.02C14.6663 5.88875 14.9763 4.22375 16.06 3.13C17.0663 2.11375 18.2913 1.61875 19.0538 1.3925C19.1209 1.37147 19.1922 1.3671 19.2614 1.37976C19.3306 1.39241 19.3957 1.42172 19.4511 1.46515C19.5064 1.50859 19.5504 1.56484 19.5792 1.62905C19.608 1.69327 19.6207 1.76352 19.6163 1.83375C19.5663 2.91625 19.2813 4.53125 18.5463 5.39625C17.8538 6.21125 16.7413 7.29125 15.11 7.47375C15.0475 7.48051 14.9843 7.47364 14.9247 7.45362C14.8651 7.4336 14.8106 7.4009 14.7648 7.35777C14.7191 7.31465 14.6832 7.26212 14.6597 7.20381C14.6363 7.1455 14.6257 7.08279 14.6288 7.02Z" fill="black"/>
<path d="M17.4213 27.7125C18.205 28.0125 18.9963 28.315 19.7125 28.315C21.2463 28.315 25.71 24.7775 25.87 21.105C25.8714 21.0124 25.847 20.9213 25.7995 20.8419C25.752 20.7624 25.6834 20.6977 25.6012 20.655C24.4662 20.02 22.6112 18.4375 22.5475 16.1363C22.4725 13.4538 23.8188 11.3238 24.8375 10.4425C25.0675 10.2438 25.1462 9.89375 24.9412 9.67125C24.0137 8.65875 22.1488 7.265 20.4463 7.29875C19.2088 7.32375 18.0925 7.78625 17.1337 8.18125C16.4 8.485 15.7587 8.75 15.2262 8.75C14.7225 8.75 14.1175 8.4875 13.4225 8.18375C12.4875 7.77625 11.39 7.29875 10.16 7.29875C7.88 7.3 3.375 9.19 3.375 16.4875C3.375 20.3575 7.36875 28.4175 10.74 28.315C11.4675 28.315 12.245 28.015 13.0175 27.715C13.7775 27.42 14.5312 27.1275 15.2262 27.1275C15.8975 27.1275 16.655 27.4188 17.4213 27.7125Z" fill="black"/>
</svg>
