<svg width="80" height="80" viewBox="0 0 80 80" fill="none" xmlns="http://www.w3.org/2000/svg">
<g clip-path="url(#clip0_3272_3517)">
<path d="M40 80C62.0914 80 80 62.0914 80 40C80 17.9086 62.0914 0 40 0C17.9086 0 0 17.9086 0 40C0 62.0914 17.9086 80 40 80Z" fill="#F2F9EF"/>
<path fill-rule="evenodd" clip-rule="evenodd" d="M44.8071 40.3356C44.4623 39.3605 43.8236 38.5164 42.9792 37.9193C42.1347 37.3222 41.1259 37.0016 40.0917 37.0016V35.7515H37.5915V37.0016C36.2653 37.0016 34.9934 37.5284 34.0557 38.4662C33.1179 39.4039 32.5911 40.6758 32.5911 42.002C32.5911 43.3282 33.1179 44.6001 34.0557 45.5378C34.9934 46.4756 36.2653 47.0024 37.5915 47.0024V52.0028C36.5039 52.0028 35.5776 51.309 35.2325 50.3364C35.1813 50.1773 35.0988 50.0301 34.9897 49.9034C34.8806 49.7768 34.7472 49.6733 34.5974 49.5991C34.4477 49.5249 34.2845 49.4815 34.1177 49.4714C33.9508 49.4614 33.7836 49.4849 33.626 49.5406C33.4684 49.5963 33.3236 49.683 33.2001 49.7956C33.0766 49.9083 32.9769 50.0445 32.907 50.1963C32.8371 50.3482 32.7983 50.5125 32.793 50.6795C32.7877 50.8466 32.816 51.013 32.8761 51.169C33.2209 52.144 33.8595 52.9882 34.704 53.5853C35.5485 54.1824 36.5573 54.503 37.5915 54.503V55.7531H40.0917V54.503C41.4179 54.503 42.6898 53.9762 43.6275 53.0384C44.5653 52.1007 45.0921 50.8288 45.0921 49.5026C45.0921 48.1764 44.5653 46.9045 43.6275 45.9668C42.6898 45.029 41.4179 44.5022 40.0917 44.5022V39.5018C40.6088 39.5016 41.1131 39.6618 41.5354 39.9603C41.9576 40.2587 42.2769 40.6807 42.4494 41.1682C42.5598 41.4808 42.7899 41.7368 43.089 41.8798C43.2371 41.9506 43.3978 41.9916 43.5617 42.0003C43.7257 42.009 43.8897 41.9854 44.0445 41.9307C44.1993 41.8761 44.3419 41.7914 44.464 41.6817C44.5861 41.5719 44.6854 41.4392 44.7562 41.2911C44.827 41.143 44.8679 40.9824 44.8767 40.8184C44.8854 40.6545 44.8617 40.4904 44.8071 40.3356ZM37.5915 39.5018C36.9284 39.5018 36.2924 39.7652 35.8236 40.2341C35.3547 40.703 35.0913 41.3389 35.0913 42.002C35.0913 42.6651 35.3547 43.301 35.8236 43.7699C36.2924 44.2388 36.9284 44.5022 37.5915 44.5022V39.5018ZM40.0917 52.0028C40.7548 52.0028 41.3907 51.7394 41.8596 51.2705C42.3285 50.8016 42.5919 50.1657 42.5919 49.5026C42.5919 48.8395 42.3285 48.2036 41.8596 47.7347C41.3907 47.2658 40.7548 47.0024 40.0917 47.0024V52.0028Z" fill="#94D073"/>
<path fill-rule="evenodd" clip-rule="evenodd" d="M25.2817 20.2765C28.3494 18.7751 33.3823 17 38.8903 17C44.2833 17 49.1837 18.7014 52.2352 20.1828L52.4077 20.2665C53.3278 20.7216 54.0703 21.1516 54.5929 21.5004L49.975 28.2509C60.6209 39.1343 68.8441 62 38.8903 62C8.93655 62 16.9385 39.5494 27.6769 28.2509L23.089 21.5004C23.4428 21.2691 23.8916 21.0003 24.4266 20.7153C24.6916 20.5728 24.9766 20.4253 25.2817 20.2765ZM47.0072 28.1609L50.7038 22.7567C47.266 23.0042 43.1757 23.8118 39.2378 24.9519C36.4251 25.7645 33.2998 25.6407 30.4059 25.1069C29.6766 24.9717 28.9523 24.8108 28.2344 24.6244L30.6346 28.1584C35.7788 29.9898 41.8618 29.9898 47.0072 28.1609ZM29.1908 30.2886C35.21 32.6138 42.4444 32.6138 48.4636 30.2861C50.9762 32.9347 53.078 35.9446 54.6991 39.2156C56.3893 42.6634 57.3093 46.1099 57.1593 49.0802C57.0143 51.9467 55.8867 54.3956 53.3115 56.2158C50.6275 58.1122 46.1134 59.4998 38.8891 59.4998C31.6572 59.4998 27.1218 58.1359 24.4129 56.2608C21.8189 54.4631 20.68 52.0479 20.5188 49.2202C20.35 46.2824 21.2501 42.8534 22.934 39.3819C24.5404 36.0716 26.7818 32.8851 29.1908 30.2886ZM27.7531 21.8954C28.7532 22.1929 29.7983 22.4517 30.8584 22.648C33.5461 23.143 36.2413 23.2155 38.5415 22.5492C41.222 21.7683 43.9483 21.1542 46.7047 20.7103C44.4045 20.0178 41.7143 19.5002 38.8891 19.5002C34.5825 19.5002 30.5659 20.7016 27.7531 21.8954Z" fill="#94D073"/>
</g>
<defs>
<clipPath id="clip0_3272_3517">
<rect width="80" height="80" fill="white"/>
</clipPath>
</defs>
</svg>
