<svg width="22" height="19" viewBox="0 0 22 19" fill="none" xmlns="http://www.w3.org/2000/svg">
<path id="Vector" d="M17 6C16.802 5.99971 16.6085 5.94084 16.444 5.8308C16.2794 5.72076 16.151 5.56447 16.0751 5.38162C15.9992 5.19877 15.9791 4.99754 16.0173 4.80328C16.0556 4.60903 16.1504 4.43043 16.29 4.29C16.69 3.89 18.75 3.25 18.75 3.25C18.75 3.25 18.11 5.31 17.71 5.71C17.53 5.89 17.28 6 17 6ZM18 11V16C18 17.65 16.65 19 15 19C13.35 19 12 17.65 12 16V14C12 13.45 11.55 13 11 13C10.45 13 10 13.45 10 14V17C10 18.1 9.1 19 8 19H2C0.9 19 0 18.1 0 17V3C0 1.9 0.9 1 2 1H8C9.1 1 10 1.9 10 3V11.17C10.4526 11.0121 10.9364 10.9647 11.4111 11.0316C11.8858 11.0985 12.3376 11.2779 12.7289 11.5547C13.1202 11.8316 13.4398 12.198 13.6609 12.6233C13.882 13.0486 13.9982 13.5206 14 14V16C14 16.55 14.45 17 15 17C15.55 17 16 16.55 16 16V11H15V9.58C13.23 8.81 12 7.05 12 5C12 2.24 14.24 0 17 0C19.76 0 22 2.24 22 5C22 7.05 20.77 8.81 19 9.58V11H18ZM20 5C20 3.34 18.66 2 17 2C15.34 2 14 3.34 14 5C14 6.66 15.34 8 17 8C18.66 8 20 6.66 20 5ZM8 5L6 7V4.17L7.17 3H2.83L4 4.17V7L2 5V7.17L4 9.17V12L2 10V12.17L4 14.17V17L2 15V17H8V15L6 17V14.17L8 12.17V10L6 12V9.17L8 7.17V5Z" fill="#5A6981"/>
</svg>
