<svg width="24" height="20" viewBox="0 0 24 20" fill="none" xmlns="http://www.w3.org/2000/svg">
<path fill-rule="evenodd" clip-rule="evenodd" d="M20.0068 7.1927C20.0068 6.26113 20.762 5.50594 21.6936 5.50594C22.2962 5.50594 22.8531 5.82743 23.1544 6.34932C23.4557 6.8712 23.4557 7.51419 23.1544 8.03608C22.8531 8.55796 22.2962 8.87946 21.6936 8.87946C21.6028 8.87723 21.5124 8.86783 21.4231 8.85134L18.8823 15.6265H5.38824L2.84748 8.85134C2.7582 8.86783 2.66775 8.87723 2.57698 8.87946C1.82905 8.88035 1.16984 8.38861 0.957564 7.67144C0.745283 6.95427 1.03063 6.18295 1.65854 5.7766C2.28645 5.37025 3.10698 5.42592 3.67425 5.91336C4.24153 6.4008 4.42007 7.20359 4.11286 7.88552L6.65362 9.41047C6.91273 9.56548 7.22328 9.60978 7.51539 9.5334C7.8075 9.45703 8.05662 9.26639 8.20669 9.0044L11.0707 3.99504C10.5171 3.54451 10.307 2.79431 10.5461 2.12178C10.7852 1.44925 11.4217 1 12.1354 1C12.8492 1 13.4857 1.44925 13.7248 2.12178C13.9638 2.79431 13.7537 3.54451 13.2001 3.99504L16.0642 9.00596C16.214 9.26822 16.463 9.45919 16.7551 9.53586C17.0473 9.61254 17.358 9.56847 17.6172 9.4136L20.163 7.88833C20.0609 7.67058 20.0076 7.43318 20.0068 7.1927ZM4.8259 16.7509H19.4445C19.7547 16.7518 20.0059 17.003 20.0067 17.3132V18.4377C20.0059 18.7479 19.7547 18.9991 19.4445 19H4.8259C4.51574 18.9991 4.26451 18.7479 4.26365 18.4377V17.3132C4.26451 17.003 4.51574 16.7518 4.8259 16.7509Z" fill="#EAECF0"/>
<path d="M20.0068 7.1927H19.5068L19.5068 7.1944L20.0068 7.1927ZM23.1544 6.34932L22.7213 6.59932L22.7213 6.59932L23.1544 6.34932ZM23.1544 8.03608L22.7213 7.78608L22.7213 7.78608L23.1544 8.03608ZM21.6936 8.87946L21.6813 9.37946H21.6936V8.87946ZM21.4231 8.85134L21.5139 8.35966L21.102 8.2836L20.9549 8.67578L21.4231 8.85134ZM18.8823 15.6265V16.1265H19.2288L19.3505 15.8021L18.8823 15.6265ZM5.38824 15.6265L4.92008 15.8021L5.04175 16.1265H5.38824V15.6265ZM2.84748 8.85134L3.31565 8.67578L3.16858 8.2836L2.7567 8.35966L2.84748 8.85134ZM2.57698 8.87946L2.57758 9.37959L2.58923 9.37931L2.57698 8.87946ZM0.957564 7.67144L1.437 7.52953L0.957564 7.67144ZM1.65854 5.7766L1.38689 5.35683L1.38689 5.35683L1.65854 5.7766ZM3.67425 5.91336L3.34839 6.29259L3.34839 6.29259L3.67425 5.91336ZM4.11286 7.88552L3.65699 7.68015L3.4744 8.08546L3.85555 8.31423L4.11286 7.88552ZM6.65362 9.41047L6.39631 9.83918L6.39693 9.83955L6.65362 9.41047ZM7.51539 9.5334L7.38891 9.04967H7.38891L7.51539 9.5334ZM8.20669 9.0044L8.64055 9.25293L8.64076 9.25257L8.20669 9.0044ZM11.0707 3.99504L11.5048 4.24321L11.7153 3.87497L11.3863 3.60723L11.0707 3.99504ZM10.5461 2.12178L10.075 1.9543V1.9543L10.5461 2.12178ZM13.7248 2.12178L14.1959 1.9543V1.9543L13.7248 2.12178ZM13.2001 3.99504L12.8845 3.60723L12.5556 3.87494L12.766 4.24315L13.2001 3.99504ZM16.0642 9.00596L16.4983 8.75796L16.4983 8.75785L16.0642 9.00596ZM16.7551 9.53586L16.8821 9.05224L16.8821 9.05224L16.7551 9.53586ZM17.6172 9.4136L17.8736 9.84285L17.8742 9.84251L17.6172 9.4136ZM20.163 7.88833L20.42 8.31724L20.8074 8.0851L20.6157 7.67613L20.163 7.88833ZM19.4445 16.7509L19.4459 16.2509H19.4445V16.7509ZM4.8259 16.7509V16.2509L4.82452 16.2509L4.8259 16.7509ZM20.0067 17.3132H20.5067L20.5067 17.3118L20.0067 17.3132ZM20.0067 18.4377L20.5067 18.4391V18.4377H20.0067ZM19.4445 19V19.5L19.4459 19.5L19.4445 19ZM4.8259 19L4.82452 19.5H4.8259V19ZM4.26365 18.4377H3.76365L3.76365 18.4391L4.26365 18.4377ZM4.26365 17.3132L3.76365 17.3118V17.3132H4.26365ZM21.6936 5.00594C20.4859 5.00594 19.5068 5.98498 19.5068 7.1927H20.5068C20.5068 6.53727 21.0382 6.00594 21.6936 6.00594V5.00594ZM23.5874 6.09932C23.1967 5.42273 22.4748 5.00594 21.6936 5.00594V6.00594C22.1176 6.00594 22.5094 6.23213 22.7213 6.59932L23.5874 6.09932ZM23.5874 8.28608C23.978 7.60949 23.978 6.7759 23.5874 6.09932L22.7213 6.59932C22.9333 6.9665 22.9333 7.41889 22.7213 7.78608L23.5874 8.28608ZM21.6936 9.37946C22.4748 9.37946 23.1967 8.96266 23.5874 8.28608L22.7213 7.78608C22.5094 8.15326 22.1176 8.37946 21.6936 8.37946V9.37946ZM21.3323 9.34303C21.4475 9.3643 21.5642 9.37643 21.6813 9.37931L21.7058 8.37961C21.6414 8.37803 21.5772 8.37136 21.5139 8.35966L21.3323 9.34303ZM19.3505 15.8021L21.8912 9.02691L20.9549 8.67578L18.4142 15.4509L19.3505 15.8021ZM5.38824 16.1265H18.8823V15.1265H5.38824V16.1265ZM2.37932 9.02691L4.92008 15.8021L5.8564 15.4509L3.31565 8.67578L2.37932 9.02691ZM2.58923 9.37931C2.70635 9.37643 2.82306 9.3643 2.93827 9.34303L2.7567 8.35966C2.69333 8.37136 2.62914 8.37803 2.56472 8.37961L2.58923 9.37931ZM0.478126 7.81335C0.753332 8.74311 1.60794 9.38062 2.57758 9.37946L2.57638 8.37946C2.05016 8.38009 1.58636 8.03411 1.437 7.52953L0.478126 7.81335ZM1.38689 5.35683C0.572844 5.88363 0.20292 6.88359 0.478126 7.81335L1.437 7.52953C1.28765 7.02495 1.48841 6.48227 1.93019 6.19637L1.38689 5.35683ZM4.00011 5.53413C3.26468 4.9022 2.20093 4.83003 1.38689 5.35683L1.93019 6.19637C2.37197 5.91047 2.94927 5.94964 3.34839 6.29259L4.00011 5.53413ZM4.56874 8.09089C4.96701 7.20682 4.73554 6.16606 4.00011 5.53413L3.34839 6.29259C3.74751 6.63554 3.87313 7.20036 3.65699 7.68015L4.56874 8.09089ZM6.91093 8.98176L4.37017 7.45681L3.85555 8.31423L6.39631 9.83918L6.91093 8.98176ZM7.38891 9.04967C7.22668 9.09208 7.05421 9.06748 6.91032 8.9814L6.39693 9.83955C6.77124 10.0635 7.21988 10.1275 7.64187 10.0171L7.38891 9.04967ZM7.77283 8.75588C7.68949 8.90138 7.55113 9.00725 7.38891 9.04967L7.64187 10.0171C8.06386 9.90681 8.42375 9.63141 8.64055 9.25293L7.77283 8.75588ZM10.6367 3.74687L7.77263 8.75623L8.64076 9.25257L11.5048 4.24321L10.6367 3.74687ZM10.075 1.9543C9.76505 2.82619 10.0374 3.79877 10.7551 4.38285L11.3863 3.60723C10.9968 3.29025 10.849 2.76243 11.0172 2.28925L10.075 1.9543ZM12.1354 0.5C11.2101 0.5 10.3849 1.08242 10.075 1.9543L11.0172 2.28925C11.1854 1.81608 11.6333 1.5 12.1354 1.5V0.5ZM14.1959 1.9543C13.8859 1.08242 13.0608 0.5 12.1354 0.5V1.5C12.6376 1.5 13.0854 1.81608 13.2536 2.28925L14.1959 1.9543ZM13.5157 4.38285C14.2334 3.79877 14.5058 2.82619 14.1959 1.9543L13.2536 2.28925C13.4218 2.76243 13.274 3.29025 12.8845 3.60723L13.5157 4.38285ZM16.4983 8.75785L13.6342 3.74693L12.766 4.24315L15.6301 9.25408L16.4983 8.75785ZM16.8821 9.05224C16.7198 9.00966 16.5815 8.9036 16.4983 8.75796L15.63 9.25397C15.8464 9.63283 16.2062 9.90871 16.6282 10.0195L16.8821 9.05224ZM17.3608 8.98434C17.2168 9.07035 17.0443 9.09482 16.8821 9.05224L16.6282 10.0195C17.0502 10.1302 17.4991 10.0666 17.8736 9.84285L17.3608 8.98434ZM19.906 7.45942L17.3603 8.98469L17.8742 9.84251L20.42 8.31724L19.906 7.45942ZM19.5068 7.1944C19.5079 7.50765 19.5773 7.81689 19.7103 8.10053L20.6157 7.67613C20.5446 7.52427 20.5074 7.3587 20.5068 7.19099L19.5068 7.1944ZM19.4445 16.2509H4.8259V17.2509H19.4445V16.2509ZM20.5067 17.3118C20.5051 16.7266 20.0311 16.2526 19.4459 16.2509L19.4431 17.2509C19.4782 17.251 19.5066 17.2795 19.5067 17.3146L20.5067 17.3118ZM20.5067 18.4377V17.3132H19.5067V18.4377H20.5067ZM19.4459 19.5C20.0311 19.4983 20.5051 19.0243 20.5067 18.4391L19.5067 18.4363C19.5066 18.4714 19.4782 18.4999 19.4431 18.5L19.4459 19.5ZM4.8259 19.5H19.4445V18.5H4.8259V19.5ZM3.76365 18.4391C3.76527 19.0243 4.23929 19.4983 4.82452 19.5L4.82729 18.5C4.79218 18.4999 4.76375 18.4714 4.76365 18.4363L3.76365 18.4391ZM3.76365 17.3132V18.4377H4.76365V17.3132H3.76365ZM4.82452 16.2509C4.23929 16.2526 3.76527 16.7266 3.76365 17.3118L4.76365 17.3146C4.76375 17.2795 4.79218 17.251 4.82729 17.2509L4.82452 16.2509Z" fill="#94D073"/>
</svg>
