<svg width="18" height="14" viewBox="0 0 18 14" fill="none" xmlns="http://www.w3.org/2000/svg">
<path id="Icon_awesome-crown" fill-rule="evenodd" clip-rule="evenodd" d="M14.87 4.8165C14.87 4.09195 15.4574 3.50459 16.1819 3.50459C16.6506 3.50459 17.0837 3.75464 17.3181 4.16054C17.5524 4.56645 17.5524 5.06655 17.3181 5.47246C17.0837 5.87837 16.6506 6.12841 16.1819 6.12841C16.1113 6.12668 16.041 6.11937 15.9715 6.10655L13.9954 11.3761H3.50011L1.52398 6.10655C1.45454 6.11937 1.38419 6.12668 1.31359 6.12841C0.731872 6.12911 0.219163 5.74665 0.0540571 5.18886C-0.111049 4.63106 0.110882 4.03115 0.599256 3.7151C1.08763 3.39905 1.72581 3.44235 2.16702 3.82147C2.60823 4.20058 2.74709 4.82498 2.50816 5.35536L4.48429 6.54142C4.68581 6.66198 4.92735 6.69644 5.15454 6.63704C5.38174 6.57763 5.5755 6.42936 5.69222 6.22559L7.9198 2.32945C7.48922 1.97905 7.32581 1.39556 7.51175 0.872488C7.6977 0.349414 8.19274 0 8.74788 0C9.30302 0 9.79807 0.349414 9.98401 0.872488C10.17 1.39556 10.0065 1.97905 9.57597 2.32945L11.8035 6.22681C11.9201 6.43078 12.1137 6.57931 12.3409 6.63895C12.5682 6.69858 12.8098 6.66431 13.0115 6.54385L14.9915 5.35754C14.9121 5.18818 14.8707 5.00354 14.87 4.8165ZM3.06282 12.2508H14.4327C14.674 12.2514 14.8694 12.4468 14.87 12.6881V13.5627C14.8694 13.8039 14.674 13.9993 14.4327 14H3.06282C2.82158 13.9993 2.62618 13.8039 2.62551 13.5627V12.6881C2.62618 12.4468 2.82158 12.2514 3.06282 12.2508Z" fill="#94D073"/>
</svg>
