<svg width="40" height="40" viewBox="0 0 40 40" fill="none" xmlns="http://www.w3.org/2000/svg">
<g clip-path="url(#clip0_2325_1854)">
<path opacity="0.2" d="M0 20C9.6565e-07 31.0457 8.9543 40 20 40C31.0457 40 40 31.0457 40 20C40 8.9543 31.0457 -9.6565e-07 20 0C8.9543 9.6564e-07 -9.6564e-07 8.95431 0 20Z" fill="#F1F3D8"/>
<path d="M26.3429 21.661L16.0035 27.8135C15.1261 28.3351 14 27.7035 14 26.652V14.3471C14 13.2972 15.1244 12.664 16.0035 13.1872L26.3429 19.3397C26.5425 19.4565 26.7084 19.6255 26.8238 19.8293C26.9392 20.0331 27 20.2647 27 20.5004C27 20.7361 26.9392 20.9676 26.8238 21.1714C26.7084 21.3753 26.5425 21.5442 26.3429 21.661Z" fill="#94D073"/>
</g>
<defs>
<clipPath id="clip0_2325_1854">
<rect width="40" height="40" fill="white"/>
</clipPath>
</defs>
</svg>
