<svg width="38" height="38" viewBox="0 0 38 38" fill="none" xmlns="http://www.w3.org/2000/svg">
<g clip-path="url(#clip0_2340_1869)">
<path d="M38 19C38 8.50659 29.4934 0 19 0C8.50659 0 0 8.50659 0 19C0 29.4934 8.50659 38 19 38C29.4934 38 38 29.4934 38 19Z" fill="#94D073"/>
<path d="M14.2 11L11.8 14.2V25.4C11.8 25.8243 11.9686 26.2313 12.2687 26.5314C12.5687 26.8314 12.9757 27 13.4 27H24.6C25.0244 27 25.4314 26.8314 25.7314 26.5314C26.0315 26.2313 26.2 25.8243 26.2 25.4V14.2L23.8 11H14.2Z" stroke="white" stroke-linecap="round" stroke-linejoin="round"/>
<path d="M11.8 14.2002H26.2" stroke="white" stroke-linecap="round" stroke-linejoin="round"/>
<path d="M22.2 17.3999C22.2 18.2486 21.8629 19.0625 21.2628 19.6626C20.6627 20.2628 19.8487 20.5999 19 20.5999C18.1514 20.5999 17.3374 20.2628 16.7373 19.6626C16.1372 19.0625 15.8 18.2486 15.8 17.3999" stroke="white" stroke-linecap="round" stroke-linejoin="round"/>
</g>
<defs>
<clipPath id="clip0_2340_1869">
<rect width="38" height="38" fill="white"/>
</clipPath>
</defs>
</svg>
