<svg width="90" height="90" viewBox="0 0 90 90" fill="none" xmlns="http://www.w3.org/2000/svg">
<g clip-path="url(#clip0_2341_1879)">
<path d="M45 90C69.8528 90 90 69.8528 90 45C90 20.1472 69.8528 0 45 0C20.1472 0 0 20.1472 0 45C0 69.8528 20.1472 90 45 90Z" fill="#94D073"/>
<path d="M58.52 40.714C58.52 40.9919 58.4104 41.2583 58.2154 41.4548C58.0204 41.6512 57.7558 41.7616 57.48 41.7616H32.52C32.2442 41.7616 31.9796 41.6512 31.7846 41.4548C31.5896 41.2583 31.48 40.9919 31.48 40.714C31.48 40.4362 31.5896 40.1697 31.7846 39.9733C31.9796 39.7768 32.2442 39.6664 32.52 39.6664H57.48C57.7558 39.6664 58.0204 39.7768 58.2154 39.9733C58.4104 40.1697 58.52 40.4362 58.52 40.714ZM57.48 48.0472H32.52C32.2442 48.0472 31.9796 48.1576 31.7846 48.3541C31.5896 48.5505 31.48 48.817 31.48 49.0948C31.48 49.3727 31.5896 49.6391 31.7846 49.8356C31.9796 50.0321 32.2442 50.1424 32.52 50.1424H57.48C57.7558 50.1424 58.0204 50.0321 58.2154 49.8356C58.4104 49.6391 58.52 49.3727 58.52 49.0948C58.52 48.817 58.4104 48.5505 58.2154 48.3541C58.0204 48.1576 57.7558 48.0472 57.48 48.0472ZM71 28.1428V67.9516C71 68.2295 70.8904 68.4959 70.6954 68.6924C70.5004 68.8889 70.2358 68.9992 69.96 68.9992C69.7985 68.999 69.6393 68.9614 69.4946 68.8892L61.64 64.9319L53.7854 68.8892C53.6409 68.9621 53.4816 69 53.32 69C53.1584 69 52.9991 68.9621 52.8546 68.8892L45 64.9319L37.1454 68.8892C37.0009 68.9621 36.8416 69 36.68 69C36.5184 69 36.3591 68.9621 36.2146 68.8892L28.36 64.9319L20.5054 68.8892C20.3468 68.9692 20.1705 69.007 19.9933 68.9989C19.8161 68.9909 19.6439 68.9374 19.4931 68.8434C19.3422 68.7495 19.2177 68.6182 19.1314 68.4621C19.0451 68.306 18.9999 68.1303 19 67.9516V28.1428C19 27.3093 19.3287 26.5099 19.9138 25.9205C20.4989 25.3311 21.2925 25 22.12 25H67.88C68.7075 25 69.5011 25.3311 70.0862 25.9205C70.6713 26.5099 71 27.3093 71 28.1428ZM68.92 28.1428C68.92 27.865 68.8104 27.5985 68.6154 27.402C68.4204 27.2056 68.1558 27.0952 67.88 27.0952H22.12C21.8442 27.0952 21.5796 27.2056 21.3846 27.402C21.1896 27.5985 21.08 27.865 21.08 28.1428V66.2571L27.8946 62.8236C28.0391 62.7508 28.1984 62.7129 28.36 62.7129C28.5216 62.7129 28.6809 62.7508 28.8254 62.8236L36.68 66.781L44.5346 62.8236C44.6791 62.7508 44.8384 62.7129 45 62.7129C45.1616 62.7129 45.3209 62.7508 45.4654 62.8236L53.32 66.781L61.1746 62.8236C61.3191 62.7508 61.4784 62.7129 61.64 62.7129C61.8016 62.7129 61.9609 62.7508 62.1054 62.8236L68.92 66.2571V28.1428Z" fill="white"/>
</g>
<defs>
<clipPath id="clip0_2341_1879">
<rect width="90" height="90" fill="white"/>
</clipPath>
</defs>
</svg>
