<svg width="46" height="46" viewBox="0 0 46 46" fill="none" xmlns="http://www.w3.org/2000/svg">
<rect x="0.79541" width="44.9091" height="46" rx="22.4545" fill="#F2F9EF"/>
<path d="M23.2498 13V33" stroke="#94D073" stroke-linecap="round" stroke-linejoin="round"/>
<path d="M27.7954 16.6362H20.9772C20.1334 16.6362 19.324 16.9715 18.7273 17.5682C18.1306 18.1649 17.7954 18.9742 17.7954 19.818C17.7954 20.6619 18.1306 21.4712 18.7273 22.0679C19.324 22.6646 20.1334 22.9999 20.9772 22.9999H25.5227C26.3666 22.9999 27.1759 23.3351 27.7726 23.9318C28.3693 24.5285 28.7045 25.3378 28.7045 26.1817C28.7045 27.0256 28.3693 27.8349 27.7726 28.4316C27.1759 29.0283 26.3666 29.3635 25.5227 29.3635H17.7954" stroke="#94D073" stroke-linecap="round" stroke-linejoin="round"/>
</svg>
