<svg width="25" height="17" viewBox="0 0 25 17" fill="none" xmlns="http://www.w3.org/2000/svg">
<path d="M14.6819 17H20.8637C21.6275 17 22.2766 16.8277 22.8156 16.5275L14.6819 11.6755V17ZM24.596 13.9902C24.684 13.5973 24.7289 13.1812 24.7289 12.7496V10.8178H19.2773L24.5944 13.9902M0.135273 2.9978C0.0437064 3.40886 -0.00165069 3.82887 4.5884e-05 4.25V6.18182H5.4725L0.135273 2.9978ZM10.0455 0H3.86368C3.10525 0 2.46041 0.17 1.92375 0.465955L10.0455 5.31095V0ZM1.94848 16.5464C2.48011 16.8339 3.11646 17 3.86368 17H10.0455V11.7161L1.94848 16.5464ZM4.5884e-05 10.8182V12.75C4.5884e-05 13.1947 0.0471823 13.6232 0.140296 14.0262L5.51809 10.8182H4.5884e-05ZM22.8399 0.484886C22.2967 0.176568 21.6387 0 20.8637 0H14.6819V5.35152L22.8399 0.484886ZM24.7273 6.18182V4.25C24.7273 3.82732 24.6837 3.4197 24.599 3.03411L19.3229 6.18182H24.7273Z" fill="#2E3192"/>
<path d="M19.3229 6.18182L24.5991 3.03411C24.3573 1.92757 23.7684 1.0115 22.84 0.484886L14.6819 5.35152V0H13.9092V6.95455H24.7274V6.18182H19.3229ZM0.00012207 10.0455V10.8182H5.51817L0.140372 14.0262C0.395758 15.1292 1.00235 16.0349 1.94855 16.5464L10.0456 11.7161V17H10.8183V10.0455H0.00012207ZM24.7274 10.0455H13.9092V17H14.6819V11.6755L22.8157 16.5279C23.7511 16.007 24.3472 15.096 24.5945 13.991L19.2773 10.8182H24.7274V10.0455ZM10.0456 0V5.31095L1.92383 0.465955C0.984963 0.983682 0.38494 1.89318 0.134963 2.9978L5.47258 6.18182H0.00012207V6.95455H10.8183V0H10.0456Z" fill="#E6E7E8"/>
<path d="M13.9092 6.95455V0H10.8183V6.95455H0.00012207V10.0455H10.8183V17H13.9092V10.0455H24.7274V6.95455H13.9092Z" fill="#BE1E2D"/>
<path d="M8.47608 6.18182L0.729491 1.55743C0.562968 1.80471 0.429287 2.07671 0.318787 2.36648L6.71195 6.18182H8.47492M24.3757 14.7166L17.8798 10.8182H16.0809L23.9291 15.5392C24.1111 15.2848 24.2611 15.0091 24.3757 14.7181M23.4597 0.923798L14.6699 6.18182L16.4545 6.18298L24.0392 1.64205C23.87 1.33412 23.6915 1.13552 23.4597 0.923798ZM0.700514 15.4063C0.874312 15.6709 1.08347 15.9106 1.32217 16.1187L10.0698 10.8182H8.30685L0.700514 15.4063Z" fill="#BE1E2D"/>
</svg>
