<svg width="24" height="18" viewBox="0 0 24 18" fill="none" xmlns="http://www.w3.org/2000/svg">
<path d="M10.3333 17.3333H21.3333C22.806 17.3333 24 16.1393 24 14.3333V10.3333H10.3333V17.3333ZM21.3333 0H10.3333V7H24V2.66667C24 1.95942 23.719 1.28115 23.219 0.781048C22.7189 0.280951 22.0406 0 21.3333 0ZM7 0H2.66667C1.95977 -1.98815e-07 1.28179 0.280677 0.781755 0.780342C0.281716 1.28001 0.000530173 1.95777 0 2.66467L0 7H7V0ZM0 10.3333V14.336C0.00133333 16.1407 1.19467 17.3333 2.66667 17.3333H7V10.3333H0Z" fill="#006AA7"/>
<path d="M10.3333 0H7V7H0V10.3333H7V17.3333H10.3333V10.3333H24V7H10.3333V0Z" fill="#FECC00"/>
</svg>
