<svg width="30" height="30" viewBox="0 0 30 30" fill="none" xmlns="http://www.w3.org/2000/svg">
<rect width="30" height="30" rx="15" fill="#F3F6FB"/>
<path d="M14.0384 20H20.3846C21.2342 20 21.9231 19.3112 21.9231 18.2692V15.9615H14.0384V20ZM20.3846 10H14.0384V14.0385H21.9231V11.5385C21.9231 11.1304 21.761 10.7391 21.4725 10.4506C21.1839 10.1621 20.7926 10 20.3846 10ZM12.1154 10H9.61537C9.20754 10 8.8164 10.1619 8.52792 10.4502C8.23943 10.7385 8.07721 11.1295 8.0769 11.5373V14.0385H12.1154V10ZM8.0769 15.9615V18.2708C8.07767 19.3119 8.76614 20 9.61537 20H12.1154V15.9615H8.0769Z" fill="#006AA7"/>
<path d="M14.0384 10H12.1154V14.0385H8.0769V15.9615H12.1154V20H14.0384V15.9615H21.9231V14.0385H14.0384V10Z" fill="#FECC00"/>
</svg>
