<svg width="30" height="30" viewBox="0 0 30 30" fill="none" xmlns="http://www.w3.org/2000/svg">
<rect width="30" height="30" rx="15" fill="#F3F6FB"/>
<path d="M16.3632 20H19.9996C20.4489 20 20.8307 19.8986 21.1477 19.722L16.3632 16.868V20ZM22.195 18.2295C22.2468 17.9984 22.2732 17.7536 22.2732 17.4998V16.3634H19.0664L22.1941 18.2295M7.80638 11.7634C7.75252 12.0052 7.72584 12.2523 7.72683 12.5V13.6364H10.9459L7.80638 11.7634ZM13.6359 10H9.99956C9.55342 10 9.17411 10.1 8.85842 10.2741L13.6359 13.1241V10ZM8.87297 19.7332C9.1857 19.9023 9.56002 20 9.99956 20H13.6359V16.8918L8.87297 19.7332ZM7.72683 16.3636V17.5C7.72683 17.7616 7.75456 18.0136 7.80933 18.2507L10.9727 16.3636H7.72683ZM21.1621 10.2852C20.8425 10.1039 20.4555 10 19.9996 10H16.3632V13.148L21.1621 10.2852ZM22.2723 13.6364V12.5C22.2723 12.2514 22.2466 12.0116 22.1968 11.7848L19.0932 13.6364H22.2723Z" fill="#2E3192"/>
<path d="M19.0934 13.6364L22.1971 11.7848C22.0548 11.1339 21.7084 10.595 21.1623 10.2852L16.3634 13.148V10H15.9089V14.0909H22.2725V13.6364H19.0934ZM7.72705 15.9091V16.3636H10.973L7.80955 18.2507C7.95978 18.8995 8.3166 19.4323 8.87319 19.7332L13.6361 16.8918V20H14.0907V15.9091H7.72705ZM22.2725 15.9091H15.9089V20H16.3634V16.868L21.148 19.7223C21.6982 19.4159 22.0489 18.88 22.1943 18.23L19.0666 16.3636H22.2725V15.9091ZM13.6361 10V13.1241L8.85864 10.2741C8.30637 10.5786 7.95341 11.1136 7.80637 11.7634L10.9461 13.6364H7.72705V14.0909H14.0907V10H13.6361Z" fill="#E6E7E8"/>
<path d="M15.9089 14.0909V10H14.0907V14.0909H7.72705V15.9091H14.0907V20H15.9089V15.9091H22.2725V14.0909H15.9089Z" fill="#BE1E2D"/>
<path d="M12.7127 13.6359L8.1559 10.9157C8.05794 11.0612 7.97931 11.2212 7.91431 11.3916L11.675 13.6359H12.712M22.0654 18.6564L18.2443 16.3632H17.1861L21.8027 19.1402C21.9098 18.9906 21.998 18.8284 22.0654 18.6573M21.5266 10.543L16.3561 13.6359L17.4059 13.6366L21.8675 10.9655C21.7679 10.7843 21.6629 10.6675 21.5266 10.543ZM8.13885 19.0621C8.24109 19.2178 8.36412 19.3588 8.50453 19.4812L13.6502 16.3632H12.6132L8.13885 19.0621Z" fill="#BE1E2D"/>
</svg>
