<svg width="24" height="24" viewBox="0 0 24 24" fill="none" xmlns="http://www.w3.org/2000/svg">
<g id="forward_10">
<path id="Vector" d="M4 13C4 17.4 7.6 21 12 21C16.4 21 20 17.4 20 13H18C18 16.3 15.3 19 12 19C8.7 19 6 16.3 6 13C6 9.7 8.7 7 12 7V11L17 6L12 1V5C7.6 5 4 8.6 4 13ZM10.8 16H10V12.7L9 13V12.3L10.8 11.7H10.9V16H10.8ZM15.1 14.2C15.1 14.5 15.1 14.8 15 15L14.7 15.6C14.7 15.6 14.4 15.9 14.2 15.9C14 15.9 13.8 16 13.6 16C13.4 16 13.2 16 13 15.9C12.8 15.8 12.7 15.7 12.5 15.6C12.3 15.5 12.3 15.3 12.2 15C12.1 14.7 12.1 14.5 12.1 14.2V13.5C12.1 13.2 12.1 12.9 12.2 12.7L12.5 12.1C12.5 12.1 12.8 11.8 13 11.8C13.2 11.8 13.4 11.7 13.6 11.7C13.8 11.7 14 11.7 14.2 11.8C14.4 11.9 14.5 12 14.7 12.1C14.9 12.2 14.9 12.4 15 12.7C15.1 13 15.1 13.2 15.1 13.5V14.2ZM14.3 13.4V12.9C14.3 12.9 14.2 12.7 14.2 12.6C14.2 12.5 14.1 12.5 14 12.4C13.9 12.3 13.8 12.3 13.7 12.3C13.6 12.3 13.5 12.3 13.4 12.4L13.2 12.6C13.2 12.6 13.1 12.8 13.1 12.9V14.9C13.1 14.9 13.2 15.1 13.2 15.2C13.2 15.3 13.3 15.3 13.4 15.4C13.5 15.5 13.6 15.5 13.7 15.5C13.8 15.5 13.9 15.5 14 15.4L14.2 15.2C14.2 15.2 14.3 15 14.3 14.9V13.4Z" fill="#94D073"/>
</g>
</svg>
