<svg width="88" height="93" viewBox="0 0 88 93" fill="none" xmlns="http://www.w3.org/2000/svg">
<path d="M44.5 93C51.4036 93 57 87.4036 57 80.5C57 73.5964 51.4036 68 44.5 68C37.5964 68 32 73.5964 32 80.5C32 87.4036 37.5964 93 44.5 93Z" fill="#94D073"/>
<path d="M50.0786 81.1816L50.9868 79.439C51.0322 79.3536 51.0603 79.2601 51.0694 79.1638C51.0785 79.0675 51.0685 78.9704 51.0398 78.8781C51.0112 78.7857 50.9646 78.6999 50.9026 78.6257C50.8407 78.5514 50.7646 78.4902 50.6789 78.4455C50.5931 78.4008 50.4994 78.3735 50.403 78.3652C50.3067 78.3569 50.2097 78.3678 50.1175 78.3972C50.0254 78.4266 49.94 78.4739 49.8663 78.5365C49.7926 78.5991 49.732 78.6756 49.688 78.7617L48.7998 80.4653C47.6739 79.9619 46.4664 79.6658 45.2354 79.5913V72.2397C45.2354 72.0455 45.1582 71.8592 45.0208 71.7218C44.8835 71.5845 44.6972 71.5073 44.5029 71.5073C44.3087 71.5073 44.1224 71.5845 43.985 71.7218C43.8477 71.8592 43.7705 72.0455 43.7705 72.2397V79.5913C42.5075 79.6681 41.2697 79.9789 40.1201 80.5078C39.7236 79.4053 38.9639 78.0205 37.5117 76.9644C37.4339 76.9078 37.3458 76.8671 37.2523 76.8445C37.1587 76.822 37.0617 76.8181 36.9667 76.8331C36.8717 76.8481 36.7806 76.8817 36.6985 76.9319C36.6165 76.9821 36.5451 77.048 36.4885 77.1257C36.4319 77.2035 36.3912 77.2917 36.3687 77.3852C36.3462 77.4787 36.3423 77.5757 36.3573 77.6708C36.3876 77.8626 36.4928 78.0346 36.6499 78.1489C37.916 79.0698 38.5293 80.3354 38.8228 81.2563C37.2114 82.3921 36.2036 84.0059 36.2036 85.7974C36.2036 89.2363 39.9189 92.0239 44.5044 92.0239C49.0898 92.0239 52.8052 89.2363 52.8052 85.7974C52.8008 83.9648 51.751 82.3208 50.0786 81.1816Z" fill="#DB1B1B"/>
<path d="M50.4229 80.5283L50.0811 81.1812C49.6761 80.9065 49.2484 80.6669 48.8027 80.4648L49.1768 79.7476C49.6146 79.9702 50.0316 80.2315 50.4229 80.5283Z" fill="#C11E1E"/>
<path d="M40.124 80.5044C39.6703 80.7153 39.2361 80.9659 38.8267 81.2534C38.79 81.1392 38.7485 81.019 38.7017 80.895C38.6592 80.7832 38.6123 80.6685 38.5601 80.5532C38.9527 80.251 39.3719 79.985 39.8125 79.7583C39.9365 80.0161 40.0386 80.2671 40.124 80.5044Z" fill="#C11E1E"/>
<path d="M45.2388 78.6919V79.5903C44.9976 79.5747 44.7534 79.5667 44.5063 79.5664C44.2622 79.5664 44.0151 79.5747 43.7739 79.5903V78.6919C44.0151 78.6763 44.2622 78.668 44.5063 78.668C44.7505 78.668 44.9976 78.6763 45.2388 78.6919Z" fill="#C11E1E"/>
<path d="M54.04 77.0844C54.04 77.8225 53.7468 78.5304 53.2249 79.0524C52.7029 79.5743 51.995 79.8676 51.2568 79.8676C50.5187 79.8676 49.8108 79.5743 49.2888 79.0524C48.7669 78.5304 48.4736 77.8225 48.4736 77.0844C48.4736 76.9901 48.4785 76.8973 48.4873 76.8055C48.558 76.0945 48.8995 75.4379 49.4411 74.9717C49.9826 74.5055 50.6827 74.2655 51.3964 74.3014C52.1101 74.3372 52.7826 74.6461 53.2747 75.1642C53.7669 75.6823 54.0409 76.3698 54.04 77.0844Z" fill="#C11E1E"/>
<path d="M51.2573 79.1504C52.4164 79.1504 53.356 78.2108 53.356 77.0518C53.356 75.8927 52.4164 74.9531 51.2573 74.9531C50.0983 74.9531 49.1587 75.8927 49.1587 77.0518C49.1587 78.2108 50.0983 79.1504 51.2573 79.1504Z" fill="white"/>
<path d="M51.2573 78.4067C51.9415 78.4067 52.4961 77.8521 52.4961 77.168C52.4961 76.4838 51.9415 75.9292 51.2573 75.9292C50.5732 75.9292 50.0186 76.4838 50.0186 77.168C50.0186 77.8521 50.5732 78.4067 51.2573 78.4067Z" fill="#3586CB"/>
<path d="M51.2461 78.0957C51.7585 78.0957 52.1738 77.6803 52.1738 77.168C52.1738 76.6556 51.7585 76.2402 51.2461 76.2402C50.7337 76.2402 50.3184 76.6556 50.3184 77.168C50.3184 77.6803 50.7337 78.0957 51.2461 78.0957Z" fill="#27273D"/>
<path d="M51.7983 76.8188C51.9583 76.8188 52.0879 76.6892 52.0879 76.5293C52.0879 76.3694 51.9583 76.2397 51.7983 76.2397C51.6384 76.2397 51.5088 76.3694 51.5088 76.5293C51.5088 76.6892 51.6384 76.8188 51.7983 76.8188Z" fill="white"/>
<path d="M51.2461 77.5171C51.4389 77.5171 51.5952 77.3608 51.5952 77.168C51.5952 76.9752 51.4389 76.8188 51.2461 76.8188C51.0533 76.8188 50.897 76.9752 50.897 77.168C50.897 77.3608 51.0533 77.5171 51.2461 77.5171Z" fill="white"/>
<path d="M47.2856 72.0365C47.2856 72.7747 46.9924 73.4826 46.4705 74.0045C45.9485 74.5265 45.2406 74.8197 44.5024 74.8197C43.7643 74.8197 43.0564 74.5265 42.5344 74.0045C42.0125 73.4826 41.7192 72.7747 41.7192 72.0365C41.7192 71.9423 41.7241 71.8495 41.7329 71.7577C41.8036 71.0466 42.1452 70.39 42.6867 69.9239C43.2283 69.4577 43.9284 69.2177 44.642 69.2535C45.3557 69.2893 46.0282 69.5983 46.5203 70.1164C47.0125 70.6344 47.2865 71.3219 47.2856 72.0365Z" fill="#C11E1E"/>
<path d="M44.5029 74.1025C45.662 74.1025 46.6016 73.1629 46.6016 72.0039C46.6016 70.8449 45.662 69.9053 44.5029 69.9053C43.3439 69.9053 42.4043 70.8449 42.4043 72.0039C42.4043 73.1629 43.3439 74.1025 44.5029 74.1025Z" fill="white"/>
<path d="M44.5029 73.3589C45.1871 73.3589 45.7417 72.8043 45.7417 72.1201C45.7417 71.436 45.1871 70.8813 44.5029 70.8813C43.8188 70.8813 43.2642 71.436 43.2642 72.1201C43.2642 72.8043 43.8188 73.3589 44.5029 73.3589Z" fill="#3586CB"/>
<path d="M44.4917 73.0479C45.0041 73.0479 45.4194 72.6325 45.4194 72.1201C45.4194 71.6077 45.0041 71.1924 44.4917 71.1924C43.9793 71.1924 43.564 71.6077 43.564 72.1201C43.564 72.6325 43.9793 73.0479 44.4917 73.0479Z" fill="#27273D"/>
<path d="M45.0439 71.771C45.2039 71.771 45.3335 71.6414 45.3335 71.4814C45.3335 71.3215 45.2039 71.1919 45.0439 71.1919C44.884 71.1919 44.7544 71.3215 44.7544 71.4814C44.7544 71.6414 44.884 71.771 45.0439 71.771Z" fill="white"/>
<path d="M44.4917 72.4692C44.6845 72.4692 44.8408 72.3129 44.8408 72.1201C44.8408 71.9273 44.6845 71.771 44.4917 71.771C44.2989 71.771 44.1426 71.9273 44.1426 72.1201C44.1426 72.3129 44.2989 72.4692 44.4917 72.4692Z" fill="white"/>
<path d="M53.418 78.8379C53.0556 79.2844 52.5639 79.6077 52.0103 79.7634C51.4567 79.9191 50.8686 79.8995 50.3266 79.7073C49.7846 79.5151 49.3155 79.1597 48.9837 78.6901C48.6519 78.2204 48.4737 77.6595 48.4736 77.0845C48.4736 76.9902 48.4785 76.8975 48.4873 76.8057L53.418 78.8379Z" fill="#E53030"/>
<path d="M34.0454 76.0726C34.0454 76.4381 34.1174 76.8001 34.2573 77.1377C34.3971 77.4754 34.6021 77.7822 34.8606 78.0407C35.119 78.2991 35.4259 78.5041 35.7635 78.644C36.1012 78.7839 36.4631 78.8558 36.8286 78.8558C37.1941 78.8558 37.556 78.7839 37.8937 78.644C38.2314 78.5041 38.5382 78.2991 38.7966 78.0407C39.0551 77.7822 39.2601 77.4754 39.4 77.1377C39.5398 76.8001 39.6118 76.4381 39.6118 76.0726C39.6118 75.9784 39.6069 75.8856 39.5981 75.7938C39.5274 75.0828 39.1859 74.4262 38.6444 73.96C38.1028 73.4938 37.4027 73.2538 36.689 73.2896C35.9754 73.3255 35.3028 73.6344 34.8107 74.1525C34.3186 74.6706 34.0446 75.3581 34.0454 76.0726Z" fill="#C11E1E"/>
<path d="M36.8286 78.1392C37.9877 78.1392 38.9272 77.1996 38.9272 76.0405C38.9272 74.8815 37.9877 73.9419 36.8286 73.9419C35.6696 73.9419 34.73 74.8815 34.73 76.0405C34.73 77.1996 35.6696 78.1392 36.8286 78.1392Z" fill="white"/>
<path d="M36.8286 77.395C37.5128 77.395 38.0674 76.8404 38.0674 76.1563C38.0674 75.4721 37.5128 74.9175 36.8286 74.9175C36.1445 74.9175 35.5898 75.4721 35.5898 76.1563C35.5898 76.8404 36.1445 77.395 36.8286 77.395Z" fill="#3586CB"/>
<path d="M36.8398 77.084C37.3522 77.084 37.7676 76.6686 37.7676 76.1562C37.7676 75.6439 37.3522 75.2285 36.8398 75.2285C36.3275 75.2285 35.9121 75.6439 35.9121 76.1562C35.9121 76.6686 36.3275 77.084 36.8398 77.084Z" fill="#27273D"/>
<path d="M36.2876 75.8076C36.4475 75.8076 36.5771 75.678 36.5771 75.5181C36.5771 75.3582 36.4475 75.2285 36.2876 75.2285C36.1277 75.2285 35.998 75.3582 35.998 75.5181C35.998 75.678 36.1277 75.8076 36.2876 75.8076Z" fill="white"/>
<path d="M36.8398 76.5054C37.0327 76.5054 37.189 76.3491 37.189 76.1563C37.189 75.9634 37.0327 75.8071 36.8398 75.8071C36.647 75.8071 36.4907 75.9634 36.4907 76.1563C36.4907 76.3491 36.647 76.5054 36.8398 76.5054Z" fill="white"/>
<path d="M34.6675 77.8262C35.0298 78.2727 35.5216 78.596 36.0751 78.7517C36.6287 78.9073 37.2169 78.8877 37.7589 78.6955C38.3008 78.5033 38.77 78.148 39.1018 77.6783C39.4336 77.2087 39.6117 76.6478 39.6118 76.0728C39.6118 75.9785 39.6069 75.8857 39.5981 75.7939L34.6675 77.8262Z" fill="#E53030"/>
<path d="M51.5083 83.9843V84.0136C51.5085 85.8496 50.7875 87.6121 49.5006 88.9216C48.2138 90.2311 46.4641 90.9827 44.6284 91.0146C40.771 91.0805 37.5278 87.9126 37.5044 84.0566V83.9873C37.5044 83.4682 38.1929 83.2846 38.4546 83.7329C38.5597 83.9132 38.6727 84.0882 38.7935 84.2578C39.1825 84.8064 39.6483 85.2963 40.1768 85.7124C40.2393 85.7612 40.3027 85.81 40.3672 85.8589C40.8335 86.2014 41.3404 86.4848 41.8765 86.7026L41.9253 86.7226C43.5822 87.3763 45.4256 87.3763 47.0825 86.7226L47.1338 86.7026C47.6696 86.4849 48.1764 86.2016 48.6426 85.8593C48.707 85.8105 48.771 85.7617 48.8335 85.7129C49.3619 85.297 49.8278 84.8072 50.2168 84.2588C50.3376 84.0888 50.4507 83.9135 50.5562 83.7329C50.8193 83.2856 51.5063 83.4668 51.5083 83.9843Z" fill="#27273D"/>
<path d="M40.1768 85.7124L39.6353 86.4907C39.6106 86.5262 39.5762 86.5537 39.5361 86.5698C39.496 86.5858 39.4521 86.5898 39.4098 86.5812C39.3675 86.5725 39.3287 86.5517 39.2981 86.5212C39.2675 86.4907 39.2465 86.4519 39.2378 86.4097L38.7935 84.2578C39.1825 84.8065 39.6483 85.2963 40.1768 85.7124Z" fill="white"/>
<path d="M40.3672 85.8569C40.8335 86.1995 41.3404 86.4829 41.8765 86.7007L41.144 87.4775C41.1171 87.5062 41.0829 87.5271 41.0451 87.5381C41.0074 87.5491 40.9673 87.5499 40.9292 87.5402C40.891 87.5305 40.8561 87.5109 40.8282 87.4832C40.8002 87.4555 40.7801 87.4209 40.77 87.3828L40.3672 85.8569Z" fill="white"/>
<path d="M44.5063 87.2109C45.389 87.2126 46.264 87.0469 47.085 86.7227L46.7031 88.4971C46.6946 88.5374 46.675 88.5745 46.6464 88.6043C46.6179 88.634 46.5816 88.6552 46.5416 88.6653C46.5017 88.6755 46.4597 88.6743 46.4204 88.6618C46.3811 88.6493 46.3461 88.6261 46.3193 88.5947L45.2388 87.3306L44.7144 88.8052C44.6991 88.8482 44.6709 88.8854 44.6337 88.9117C44.5964 88.938 44.552 88.9521 44.5063 88.9521C44.4607 88.9521 44.4163 88.938 44.379 88.9117C44.3418 88.8854 44.3136 88.8482 44.2983 88.8052L43.7739 87.3306L42.6934 88.5918C42.6666 88.6231 42.6316 88.6464 42.5923 88.6589C42.553 88.6713 42.511 88.6726 42.4711 88.6624C42.4311 88.6522 42.3948 88.6311 42.3663 88.6013C42.3377 88.5716 42.3181 88.5345 42.3096 88.4941L41.9272 86.7197C42.7482 87.0451 43.6233 87.2118 44.5063 87.2109Z" fill="white"/>
<path d="M47.1367 86.7007C47.6725 86.4829 48.1793 86.1997 48.6455 85.8574L48.2422 87.3828C48.2322 87.421 48.2121 87.4557 48.1841 87.4835C48.156 87.5112 48.1211 87.531 48.0829 87.5406C48.0446 87.5503 48.0045 87.5495 47.9667 87.5384C47.9288 87.5274 47.8946 87.5063 47.8677 87.4775L47.1367 86.7007Z" fill="white"/>
<path d="M50.2192 84.2583L49.7734 86.4097C49.7647 86.4519 49.7437 86.4907 49.7131 86.5212C49.6826 86.5517 49.6437 86.5725 49.6014 86.5812C49.5591 86.5898 49.5152 86.5858 49.4751 86.5698C49.4351 86.5537 49.4006 86.5262 49.376 86.4907L48.8359 85.7124C49.3643 85.2965 49.8302 84.8068 50.2192 84.2583Z" fill="white"/>
<path d="M49.3057 83.8218C49.7447 83.8218 50.1006 83.4659 50.1006 83.0269C50.1006 82.5878 49.7447 82.2319 49.3057 82.2319C48.8666 82.2319 48.5107 82.5878 48.5107 83.0269C48.5107 83.4659 48.8666 83.8218 49.3057 83.8218Z" fill="#E53030"/>
<path d="M48.1348 82.4189C48.4457 82.4189 48.6978 82.1669 48.6978 81.856C48.6978 81.545 48.4457 81.293 48.1348 81.293C47.8238 81.293 47.5718 81.545 47.5718 81.856C47.5718 82.1669 47.8238 82.4189 48.1348 82.4189Z" fill="#E53030"/>
<path d="M41.7192 83.4917C42.185 83.4917 42.5625 83.2097 42.5625 82.8618C42.5625 82.5139 42.185 82.2319 41.7192 82.2319C41.2535 82.2319 40.876 82.5139 40.876 82.8618C40.876 83.2097 41.2535 83.4917 41.7192 83.4917Z" fill="#C11E1E"/>
<path d="M44.8979 86.2559C45.3637 86.2559 45.7412 85.9739 45.7412 85.626C45.7412 85.2781 45.3637 84.9961 44.8979 84.9961C44.4322 84.9961 44.0547 85.2781 44.0547 85.626C44.0547 85.9739 44.4322 86.2559 44.8979 86.2559Z" fill="#C11E1E"/>
<path d="M44.6172 83.8608C45.0829 83.8608 45.4604 83.5788 45.4604 83.231C45.4604 82.8831 45.0829 82.6011 44.6172 82.6011C44.1515 82.6011 43.7739 82.8831 43.7739 83.231C43.7739 83.5788 44.1515 83.8608 44.6172 83.8608Z" fill="#C11E1E"/>
<path d="M46.6016 82.9702C46.8745 82.9702 47.0957 82.8049 47.0957 82.6011C47.0957 82.3972 46.8745 82.2319 46.6016 82.2319C46.3287 82.2319 46.1074 82.3972 46.1074 82.6011C46.1074 82.8049 46.3287 82.9702 46.6016 82.9702Z" fill="#C11E1E"/>
<path d="M43.0571 84.7754C43.33 84.7754 43.5513 84.6101 43.5513 84.4062C43.5513 84.2024 43.33 84.0371 43.0571 84.0371C42.7842 84.0371 42.563 84.2024 42.563 84.4062C42.563 84.6101 42.7842 84.7754 43.0571 84.7754Z" fill="#C11E1E"/>
<path d="M46.7915 84.7754C47.0644 84.7754 47.2856 84.6101 47.2856 84.4062C47.2856 84.2024 47.0644 84.0371 46.7915 84.0371C46.5186 84.0371 46.2974 84.2024 46.2974 84.4062C46.2974 84.6101 46.5186 84.7754 46.7915 84.7754Z" fill="#C11E1E"/>
<path d="M41.3701 85.5132C41.643 85.5132 41.8643 85.3479 41.8643 85.144C41.8643 84.9402 41.643 84.7749 41.3701 84.7749C41.0972 84.7749 40.876 84.9402 40.876 85.144C40.876 85.3479 41.0972 85.5132 41.3701 85.5132Z" fill="#C11E1E"/>
<path d="M12.5 74C19.4036 74 25 68.4036 25 61.5C25 54.5964 19.4036 49 12.5 49C5.59644 49 0 54.5964 0 61.5C0 68.4036 5.59644 74 12.5 74Z" fill="#94D073"/>
<path d="M19.3644 61.1411C19.3243 59.2856 17.6446 59.353 17.6446 59.353L18.3351 58.626C17.567 58.3989 17.0885 58.7724 16.8165 59.1416C16.6207 58.7767 16.3796 58.4381 16.0987 58.1338C16.7982 57.3771 17.2395 56.418 17.359 55.3945C17.8961 55.7202 18.0201 56.4638 18.027 57.0425C18.0279 57.085 18.0437 57.1258 18.0715 57.158C18.0993 57.1902 18.1375 57.2116 18.1794 57.2187C18.2214 57.2258 18.2644 57.2181 18.3013 57.1969C18.3382 57.1757 18.3665 57.1423 18.3814 57.1025C18.9244 55.6797 17.9713 54.3462 17.9713 54.3462C18.4293 54.1509 18.8072 54.3984 19.0484 54.6489C19.0738 54.6757 19.1067 54.6942 19.1428 54.7019C19.1789 54.7097 19.2165 54.7063 19.2507 54.6923C19.2848 54.6783 19.314 54.6544 19.3343 54.6235C19.3545 54.5927 19.365 54.5564 19.3644 54.5195C19.3243 52.664 17.6446 52.7309 17.6446 52.7309L18.3351 52.0054C17.567 51.7783 17.0885 52.1518 16.8165 52.521C16.3972 51.7363 15.7716 51.081 15.0072 50.6258C14.2428 50.1705 13.3687 49.9326 12.479 49.9376C11.5894 49.9426 10.7179 50.1904 9.95876 50.6543C9.19958 51.1181 8.58144 51.7805 8.171 52.5698C7.90635 52.186 7.42197 51.7661 6.6168 52.0054L7.30723 52.7319C7.30723 52.7319 5.62754 52.6636 5.58701 54.5205C5.58633 54.5574 5.59682 54.5936 5.61711 54.6245C5.63739 54.6553 5.66653 54.6793 5.70069 54.6933C5.73485 54.7073 5.77244 54.7106 5.80853 54.7029C5.84462 54.6951 5.87753 54.6767 5.90293 54.6499C6.14707 54.3994 6.52256 54.1528 6.98008 54.3471C6.98008 54.3471 6.02695 55.6806 6.57041 57.1035C6.58542 57.1434 6.61392 57.1769 6.65098 57.1981C6.68804 57.2192 6.73133 57.2268 6.77337 57.2195C6.81541 57.2121 6.85356 57.1903 6.88123 57.1578C6.9089 57.1253 6.92434 57.0842 6.9249 57.0415C6.93223 56.4429 7.06455 55.6679 7.65147 55.3628C7.76498 56.3982 8.20794 57.3699 8.91514 58.1347C8.62144 58.453 8.37121 58.8088 8.171 59.1929C7.90635 58.8076 7.41953 58.3896 6.6168 58.6269L7.30723 59.354C7.30723 59.354 5.33164 59.2729 5.61436 61.6553C5.61436 61.6553 6.17344 60.626 6.98154 60.9687C6.98154 60.9687 6.02842 62.3022 6.57188 63.7251C6.58689 63.765 6.61539 63.7985 6.65244 63.8197C6.6895 63.8408 6.73279 63.8484 6.77483 63.841C6.81687 63.8337 6.85502 63.8119 6.88269 63.7794C6.91036 63.7469 6.92581 63.7057 6.92637 63.6631C6.93369 63.0644 7.06602 62.2895 7.65293 61.9844C7.76655 63.0199 8.20949 63.9917 8.9166 64.7568C8.6228 65.0748 8.37256 65.4305 8.17246 65.8144C7.90781 65.4292 7.421 65.0112 6.61826 65.2485L7.30723 65.9751C7.30723 65.9751 5.62754 65.9062 5.58701 67.7632C5.58633 67.8001 5.59682 67.8363 5.61711 67.8672C5.63739 67.898 5.66653 67.922 5.70069 67.936C5.73485 67.95 5.77244 67.9533 5.80853 67.9456C5.84462 67.9378 5.87753 67.9193 5.90293 67.8926C6.14707 67.6426 6.52256 67.3955 6.98008 67.5898C6.98008 67.5898 6.02695 68.9233 6.57041 70.3462C6.58542 70.3861 6.61392 70.4196 6.65098 70.4407C6.68804 70.4619 6.73133 70.4695 6.77337 70.4621C6.81541 70.4548 6.85356 70.433 6.88123 70.4005C6.9089 70.368 6.92434 70.3268 6.9249 70.2842C6.93223 69.6855 7.06455 68.9106 7.65147 68.6054C7.78334 69.798 8.34945 70.9003 9.24188 71.7022C10.1343 72.5041 11.2906 72.9496 12.4904 72.9537C13.6902 72.9578 14.8495 72.5203 15.7474 71.7244C16.6453 70.9286 17.219 69.8302 17.359 68.6387C17.8961 68.9638 18.0201 69.708 18.027 70.2861C18.0279 70.3286 18.0437 70.3695 18.0715 70.4016C18.0993 70.4338 18.1375 70.4553 18.1794 70.4624C18.2214 70.4695 18.2644 70.4618 18.3013 70.4406C18.3382 70.4194 18.3665 70.386 18.3814 70.3462C18.9244 68.9233 17.9713 67.5898 17.9713 67.5898C18.4293 67.3945 18.8072 67.6426 19.0484 67.8926C19.0738 67.9193 19.1067 67.9378 19.1428 67.9456C19.1789 67.9533 19.2165 67.95 19.2507 67.936C19.2848 67.922 19.314 67.898 19.3343 67.8672C19.3545 67.8363 19.365 67.8001 19.3644 67.7632C19.3243 65.9077 17.6446 65.9751 17.6446 65.9751L18.3351 65.248C17.567 65.0215 17.0885 65.3945 16.8165 65.7637C16.6208 65.3983 16.3797 65.0591 16.0987 64.7544C16.7973 63.999 17.2385 63.0417 17.359 62.02C17.8961 62.3452 18.0201 63.0893 18.027 63.6675C18.0279 63.71 18.0437 63.7508 18.0715 63.783C18.0993 63.8152 18.1375 63.8366 18.1794 63.8437C18.2214 63.8508 18.2644 63.8431 18.3013 63.8219C18.3382 63.8007 18.3665 63.7673 18.3814 63.7275C18.9244 62.3047 17.9713 60.9712 17.9713 60.9712C18.4293 60.7759 18.8072 61.0239 19.0484 61.2739C19.074 61.3009 19.1073 61.3195 19.1437 61.3272C19.1801 61.3348 19.218 61.3312 19.2523 61.3168C19.2867 61.3024 19.3158 61.2778 19.3358 61.2464C19.3558 61.215 19.3658 61.1783 19.3644 61.1411Z" fill="#E88032"/>
<path d="M8.93565 61.6909C8.93565 66.3984 10.3438 70.5425 12.4781 72.9522C11.2807 72.9456 10.1274 72.4994 9.23752 71.6981C8.34762 70.8969 7.78317 69.7966 7.65147 68.6064C7.06553 68.9116 6.93272 69.6865 6.9249 70.2852C6.92434 70.3278 6.9089 70.369 6.88123 70.4015C6.85356 70.434 6.81541 70.4558 6.77337 70.4631C6.73133 70.4705 6.68804 70.4629 6.65098 70.4417C6.61392 70.4206 6.58542 70.3871 6.57041 70.3472C6.02744 68.9243 6.98057 67.5908 6.98057 67.5908C6.52256 67.3955 6.14463 67.6436 5.90342 67.8936C5.87801 67.9203 5.84511 67.9388 5.80902 67.9466C5.77293 67.9543 5.73533 67.951 5.70117 67.937C5.66701 67.923 5.63788 67.899 5.6176 67.8682C5.59731 67.8373 5.58682 67.8011 5.5875 67.7642C5.62754 65.9087 7.30723 65.9761 7.30723 65.9761L6.6168 65.249C7.41953 65.0117 7.90635 65.4297 8.17149 65.8149C8.37139 65.431 8.62147 65.0753 8.91514 64.7573C8.20802 63.9922 7.76509 63.0205 7.65147 61.9849C7.06553 62.29 6.93272 63.0649 6.9249 63.6636C6.92434 63.7063 6.9089 63.7474 6.88123 63.7799C6.85356 63.8124 6.81541 63.8342 6.77337 63.8415C6.73133 63.8489 6.68804 63.8413 6.65098 63.8202C6.61392 63.799 6.58542 63.7655 6.57041 63.7256C6.02744 62.3027 6.98057 60.9692 6.98057 60.9692C6.17344 60.6274 5.61338 61.6558 5.61338 61.6558C5.33067 59.2734 7.30625 59.3545 7.30625 59.3545L6.61582 58.6274C7.41856 58.3901 7.90537 58.8081 8.17051 59.1934C8.37055 58.8093 8.62061 58.4535 8.91416 58.1353C8.20697 57.3704 7.76401 56.3988 7.65049 55.3633C7.06455 55.6685 6.93174 56.4434 6.92393 57.042C6.92337 57.0847 6.90792 57.1258 6.88025 57.1583C6.85258 57.1908 6.81443 57.2126 6.77239 57.22C6.73035 57.2273 6.68706 57.2198 6.65 57.1986C6.61295 57.1774 6.58445 57.144 6.56943 57.104C6.02647 55.6812 6.97959 54.3477 6.97959 54.3477C6.52158 54.1523 6.14365 54.3999 5.90244 54.6504C5.87704 54.6772 5.84413 54.6957 5.80804 54.7034C5.77195 54.7111 5.73436 54.7078 5.7002 54.6938C5.66604 54.6798 5.6369 54.6558 5.61662 54.625C5.59633 54.5942 5.58584 54.5579 5.58652 54.521C5.62656 52.6655 7.30625 52.7324 7.30625 52.7324L6.6168 52.0054C7.42197 51.7661 7.90635 52.186 8.17149 52.5713C8.58366 51.7774 9.20598 51.1121 9.97052 50.6478C10.7351 50.1835 11.6125 49.9381 12.5069 49.9385C12.6492 49.9385 12.7898 49.9445 12.9288 49.9565C10.547 52.271 8.93565 56.6587 8.93565 61.6909Z" fill="#CE6B29"/>
<path d="M12.4756 57.2295C13.9674 57.2295 15.1768 56.0201 15.1768 54.5283C15.1768 53.0365 13.9674 51.8271 12.4756 51.8271C10.9838 51.8271 9.77441 53.0365 9.77441 54.5283C9.77441 56.0201 10.9838 57.2295 12.4756 57.2295Z" fill="white"/>
<path d="M12.4756 56.272C13.3561 56.272 14.0698 55.5582 14.0698 54.6777C14.0698 53.7973 13.3561 53.0835 12.4756 53.0835C11.5951 53.0835 10.8813 53.7973 10.8813 54.6777C10.8813 55.5582 11.5951 56.272 12.4756 56.272Z" fill="#00B564"/>
<path d="M12.4609 55.8721C13.1206 55.8721 13.6553 55.3373 13.6553 54.6777C13.6553 54.0181 13.1206 53.4834 12.4609 53.4834C11.8013 53.4834 11.2666 54.0181 11.2666 54.6777C11.2666 55.3373 11.8013 55.8721 12.4609 55.8721Z" fill="#27273D"/>
<path d="M13.1719 54.2285C13.3776 54.2285 13.5444 54.0617 13.5444 53.856C13.5444 53.6502 13.3776 53.4834 13.1719 53.4834C12.9661 53.4834 12.7993 53.6502 12.7993 53.856C12.7993 54.0617 12.9661 54.2285 13.1719 54.2285Z" fill="white"/>
<path d="M12.4609 55.127C12.709 55.127 12.9102 54.9258 12.9102 54.6777C12.9102 54.4296 12.709 54.2285 12.4609 54.2285C12.2128 54.2285 12.0117 54.4296 12.0117 54.6777C12.0117 54.9258 12.2128 55.127 12.4609 55.127Z" fill="white"/>
<path d="M12.4756 64.147C13.9674 64.147 15.1768 62.9376 15.1768 61.4458C15.1768 59.954 13.9674 58.7446 12.4756 58.7446C10.9838 58.7446 9.77441 59.954 9.77441 61.4458C9.77441 62.9376 10.9838 64.147 12.4756 64.147Z" fill="white"/>
<path d="M12.4756 63.1895C13.3561 63.1895 14.0698 62.4757 14.0698 61.5952C14.0698 60.7147 13.3561 60.001 12.4756 60.001C11.5951 60.001 10.8813 60.7147 10.8813 61.5952C10.8813 62.4757 11.5951 63.1895 12.4756 63.1895Z" fill="#00B564"/>
<path d="M12.4609 62.7896C13.1206 62.7896 13.6553 62.2548 13.6553 61.5952C13.6553 60.9356 13.1206 60.4009 12.4609 60.4009C11.8013 60.4009 11.2666 60.9356 11.2666 61.5952C11.2666 62.2548 11.8013 62.7896 12.4609 62.7896Z" fill="#27273D"/>
<path d="M13.1719 61.146C13.3776 61.146 13.5444 60.9792 13.5444 60.7734C13.5444 60.5677 13.3776 60.4009 13.1719 60.4009C12.9661 60.4009 12.7993 60.5677 12.7993 60.7734C12.7993 60.9792 12.9661 61.146 13.1719 61.146Z" fill="white"/>
<path d="M12.4609 62.0444C12.709 62.0444 12.9102 61.8433 12.9102 61.5952C12.9102 61.3471 12.709 61.146 12.4609 61.146C12.2128 61.146 12.0117 61.3471 12.0117 61.5952C12.0117 61.8433 12.2128 62.0444 12.4609 62.0444Z" fill="white"/>
<path d="M12.4756 71.5361C13.9674 71.5361 15.1768 70.3268 15.1768 68.835C15.1768 67.3431 13.9674 66.1338 12.4756 66.1338C10.9838 66.1338 9.77441 67.3431 9.77441 68.835C9.77441 70.3268 10.9838 71.5361 12.4756 71.5361Z" fill="white"/>
<path d="M12.4756 70.5786C13.3561 70.5786 14.0698 69.8648 14.0698 68.9844C14.0698 68.1039 13.3561 67.3901 12.4756 67.3901C11.5951 67.3901 10.8813 68.1039 10.8813 68.9844C10.8813 69.8648 11.5951 70.5786 12.4756 70.5786Z" fill="#00B564"/>
<path d="M12.4609 70.1787C13.1206 70.1787 13.6553 69.644 13.6553 68.9844C13.6553 68.3248 13.1206 67.79 12.4609 67.79C11.8013 67.79 11.2666 68.3248 11.2666 68.9844C11.2666 69.644 11.8013 70.1787 12.4609 70.1787Z" fill="#27273D"/>
<path d="M13.1719 68.5352C13.3776 68.5352 13.5444 68.3684 13.5444 68.1626C13.5444 67.9568 13.3776 67.79 13.1719 67.79C12.9661 67.79 12.7993 67.9568 12.7993 68.1626C12.7993 68.3684 12.9661 68.5352 13.1719 68.5352Z" fill="white"/>
<path d="M12.4609 69.4336C12.709 69.4336 12.9102 69.2325 12.9102 68.9844C12.9102 68.7363 12.709 68.5352 12.4609 68.5352C12.2128 68.5352 12.0117 68.7363 12.0117 68.9844C12.0117 69.2325 12.2128 69.4336 12.4609 69.4336Z" fill="white"/>
<path d="M16.2539 55.7344C16.629 55.7344 16.9331 55.4303 16.9331 55.0552C16.9331 54.6801 16.629 54.376 16.2539 54.376C15.8788 54.376 15.5747 54.6801 15.5747 55.0552C15.5747 55.4303 15.8788 55.7344 16.2539 55.7344Z" fill="#EF8C48"/>
<path d="M16.2539 54.1216C16.5195 54.1216 16.7349 53.9063 16.7349 53.6406C16.7349 53.375 16.5195 53.1597 16.2539 53.1597C15.9883 53.1597 15.7729 53.375 15.7729 53.6406C15.7729 53.9063 15.9883 54.1216 16.2539 54.1216Z" fill="#EF8C48"/>
<path d="M16.2539 62.4331C16.629 62.4331 16.9331 62.129 16.9331 61.7539C16.9331 61.3788 16.629 61.0747 16.2539 61.0747C15.8788 61.0747 15.5747 61.3788 15.5747 61.7539C15.5747 62.129 15.8788 62.4331 16.2539 62.4331Z" fill="#EF8C48"/>
<path d="M16.2539 60.8203C16.5195 60.8203 16.7349 60.605 16.7349 60.3394C16.7349 60.0737 16.5195 59.8584 16.2539 59.8584C15.9883 59.8584 15.7729 60.0737 15.7729 60.3394C15.7729 60.605 15.9883 60.8203 16.2539 60.8203Z" fill="#EF8C48"/>
<path d="M16.2539 69.1318C16.629 69.1318 16.9331 68.8277 16.9331 68.4526C16.9331 68.0775 16.629 67.7734 16.2539 67.7734C15.8788 67.7734 15.5747 68.0775 15.5747 68.4526C15.5747 68.8277 15.8788 69.1318 16.2539 69.1318Z" fill="#EF8C48"/>
<path d="M16.2539 67.519C16.5195 67.519 16.7349 67.3037 16.7349 67.0381C16.7349 66.7725 16.5195 66.5571 16.2539 66.5571C15.9883 66.5571 15.7729 66.7725 15.7729 67.0381C15.7729 67.3037 15.9883 67.519 16.2539 67.519Z" fill="#EF8C48"/>
<path d="M13.8101 65.1973C13.8101 65.3154 13.7344 65.4263 13.6035 65.5186C13.3672 65.6875 12.9502 65.7993 12.4756 65.7993C12.001 65.7993 11.584 65.6875 11.3477 65.5186C11.2168 65.4263 11.1411 65.3154 11.1411 65.1973C11.1411 64.8647 11.7383 64.5952 12.4756 64.5952C13.2129 64.5952 13.8101 64.8647 13.8101 65.1973Z" fill="#27273D"/>
<path d="M12.4756 65.7993C13.0985 65.7993 13.6035 65.6736 13.6035 65.5186C13.6035 65.3635 13.0985 65.2378 12.4756 65.2378C11.8526 65.2378 11.3477 65.3635 11.3477 65.5186C11.3477 65.6736 11.8526 65.7993 12.4756 65.7993Z" fill="#DB1B1B"/>
<path d="M75.5 75C82.4036 75 88 69.4036 88 62.5C88 55.5964 82.4036 50 75.5 50C68.5964 50 63 55.5964 63 62.5C63 69.4036 68.5964 75 75.5 75Z" fill="#94D073"/>
<path d="M81.1152 72.0635C81.1142 72.4379 81.0309 72.8074 80.8711 73.146C79.1927 73.9428 77.358 74.3562 75.5 74.3562C73.642 74.3562 71.8073 73.9428 70.1289 73.146C69.9691 72.8074 69.8858 72.4379 69.8848 72.0635C69.8899 71.5345 70.0529 71.0191 70.353 70.5835C70.6168 70.1956 70.9475 69.8576 71.3296 69.5854C72.3032 68.875 73.6895 68.4136 75.2388 68.3687C75.3247 68.3662 75.4111 68.3647 75.498 68.3647C75.585 68.3647 75.6733 68.3647 75.7603 68.3691C77.9497 68.4351 79.813 69.3271 80.6431 70.5835C80.9445 71.0187 81.109 71.5341 81.1152 72.0635Z" fill="#27273D"/>
<path d="M86.2822 61.0988C86.2094 59.6178 85.1186 58.42 84.4853 57.8458C84.4537 57.8169 84.4316 57.7792 84.4219 57.7375C84.4121 57.6959 84.4152 57.6522 84.4306 57.6123C84.4461 57.5724 84.4732 57.5381 84.5085 57.5139C84.5438 57.4897 84.5856 57.4767 84.6284 57.4767H85.0249C85.0609 57.4768 85.0964 57.4678 85.128 57.4504C85.1595 57.433 85.1861 57.4078 85.2052 57.3772C85.2243 57.3466 85.2352 57.3117 85.237 57.2757C85.2387 57.2397 85.2313 57.2038 85.2153 57.1715C84.6225 56.0123 83.0346 55.6945 82.1523 55.609C82.1066 55.6047 82.0635 55.5857 82.0296 55.5548C81.9956 55.5239 81.9726 55.4828 81.964 55.4377C81.9554 55.3926 81.9617 55.3459 81.9819 55.3047C82.0021 55.2634 82.0352 55.2299 82.0761 55.2091C82.4284 55.0385 82.7927 54.8937 83.166 54.776C83.1999 54.7648 83.2305 54.7452 83.2548 54.719C83.2792 54.6929 83.2966 54.661 83.3054 54.6264C83.3142 54.5917 83.3141 54.5554 83.3052 54.5208C83.2963 54.4862 83.2788 54.4544 83.2544 54.4283C82.0273 53.1012 80.165 53.0275 79.2817 53.0782C79.2406 53.0808 79.1996 53.0714 79.1638 53.0511C79.128 53.0307 79.0988 53.0004 79.08 52.9638C79.0611 52.9271 79.0533 52.8858 79.0576 52.8448C79.0619 52.8038 79.078 52.765 79.104 52.733L79.4697 52.2809C79.4916 52.2535 79.5063 52.2211 79.5126 52.1866C79.5188 52.1521 79.5165 52.1166 79.5057 52.0832C79.4949 52.0498 79.476 52.0197 79.4508 51.9954C79.4255 51.9711 79.3946 51.9534 79.3608 51.944C77.6831 51.462 76.9106 51.7159 76.6059 51.9005C76.5818 51.9151 76.5549 51.9247 76.527 51.9287C76.499 51.9327 76.4706 51.9311 76.4433 51.924C76.416 51.9168 76.3904 51.9043 76.368 51.8871C76.3456 51.8699 76.3269 51.8484 76.313 51.8239L75.6836 50.7306C75.6649 50.6985 75.6381 50.6718 75.6059 50.6533C75.5737 50.6348 75.5371 50.625 75.5 50.625C75.4628 50.625 75.4263 50.6348 75.3941 50.6533C75.3619 50.6718 75.3351 50.6985 75.3164 50.7306L74.6855 51.8224C74.6716 51.8469 74.6529 51.8684 74.6305 51.8856C74.6081 51.9028 74.5825 51.9154 74.5552 51.9225C74.5279 51.9297 74.4994 51.9313 74.4715 51.9272C74.4436 51.9232 74.4167 51.9136 74.3926 51.8991C74.0879 51.7145 73.3154 51.4596 71.6377 51.9425C71.6039 51.9522 71.5731 51.9701 71.548 51.9946C71.5229 52.019 71.5042 52.0494 71.4937 52.0829C71.4831 52.1163 71.481 52.1519 71.4876 52.1864C71.4941 52.2208 71.5091 52.2531 71.5312 52.2804L71.8969 52.7325C71.9229 52.7645 71.9391 52.8034 71.9433 52.8443C71.9476 52.8853 71.9398 52.9266 71.921 52.9633C71.9021 52.9999 71.873 53.0302 71.8371 53.0506C71.8013 53.0709 71.7603 53.0804 71.7192 53.0778C70.8359 53.0289 68.9736 53.1007 67.7466 54.4279C67.722 54.454 67.7045 54.486 67.6956 54.5207C67.6868 54.5555 67.6868 54.5919 67.6958 54.6266C67.7047 54.6614 67.7223 54.6933 67.7469 54.7194C67.7715 54.7455 67.8023 54.765 67.8364 54.776C68.2089 54.8937 68.5723 55.0383 68.9238 55.2086C68.9647 55.2294 68.9978 55.263 69.018 55.3042C69.0383 55.3454 69.0446 55.3921 69.036 55.4372C69.0274 55.4823 69.0044 55.5234 68.9704 55.5543C68.9364 55.5852 68.8933 55.6042 68.8476 55.6085C67.9653 55.6949 66.3774 56.0128 65.7846 57.171C65.7687 57.2033 65.7612 57.2392 65.763 57.2752C65.7648 57.3112 65.7757 57.3461 65.7948 57.3767C65.8139 57.4073 65.8404 57.4325 65.872 57.4499C65.9035 57.4673 65.939 57.4764 65.9751 57.4762H66.3716C66.4145 57.4759 66.4566 57.4887 66.4921 57.5129C66.5277 57.5371 66.5551 57.5714 66.5707 57.6115C66.5863 57.6515 66.5894 57.6954 66.5796 57.7372C66.5697 57.7791 66.5474 57.8169 66.5156 57.8458C65.8808 58.42 64.7915 59.6178 64.7187 61.0988C64.717 61.1361 64.7252 61.1732 64.7424 61.2064C64.7596 61.2395 64.7852 61.2676 64.8166 61.2877C64.8481 61.3079 64.8843 61.3194 64.9217 61.3211C64.959 61.3228 64.9961 61.3147 65.0293 61.2975C65.3735 61.1193 65.9477 60.8629 66.4453 60.839C66.4859 60.8367 66.5264 60.8461 66.5618 60.8662C66.5973 60.8862 66.6262 60.916 66.6452 60.952C66.6642 60.988 66.6724 61.0287 66.6689 61.0693C66.6654 61.1099 66.6503 61.1486 66.6255 61.1808C66.1206 61.8463 64.9819 63.5577 65.1045 65.257C65.1072 65.2903 65.1178 65.3225 65.1353 65.351C65.1529 65.3794 65.177 65.4033 65.2055 65.4207C65.2341 65.4381 65.2664 65.4485 65.2998 65.451C65.3331 65.4535 65.3666 65.4481 65.3974 65.4352L65.8203 65.254C65.8543 65.2397 65.8916 65.2345 65.9282 65.2389C65.9649 65.2434 65.9998 65.2574 66.0294 65.2795C66.0591 65.3016 66.0824 65.3311 66.0971 65.365C66.1118 65.3989 66.1174 65.436 66.1133 65.4728C66.0644 65.8761 66.1435 66.5866 66.8496 67.5875C66.879 67.6288 66.9221 67.6582 66.9713 67.6704C67.0205 67.6826 67.0724 67.6767 67.1177 67.6539L67.4009 67.5123C67.4282 67.4986 67.4582 67.491 67.4888 67.49C67.5194 67.4889 67.5499 67.4946 67.5781 67.5065C67.6063 67.5183 67.6316 67.5362 67.6523 67.5588C67.6729 67.5814 67.6884 67.6082 67.6977 67.6373C67.893 68.2457 68.6084 69.8644 70.9272 70.86C70.9567 70.8726 70.9888 70.8784 71.0208 70.8769C71.0529 70.8754 71.0842 70.8666 71.1124 70.8512C71.1406 70.8358 71.165 70.8143 71.1836 70.7881C71.2023 70.762 71.2148 70.732 71.2202 70.7003C71.2271 70.6575 71.247 70.6178 71.2772 70.5866C71.3074 70.5555 71.3465 70.5343 71.3891 70.5261C71.4317 70.5178 71.4758 70.5229 71.5154 70.5405C71.5551 70.5581 71.5884 70.5875 71.6108 70.6246C72.061 71.3492 73.1445 72.5006 75.5 72.5006C77.8554 72.5006 78.9389 71.3507 79.3877 70.6276C79.4101 70.5904 79.4434 70.561 79.483 70.5434C79.5227 70.5258 79.5668 70.5208 79.6094 70.529C79.652 70.5373 79.6911 70.5584 79.7213 70.5896C79.7515 70.6207 79.7714 70.6604 79.7783 70.7032C79.7837 70.7349 79.7962 70.7649 79.8148 70.7911C79.8335 70.8172 79.8578 70.8388 79.886 70.8541C79.9142 70.8695 79.9456 70.8783 79.9776 70.8798C80.0097 70.8813 80.0417 70.8756 80.0713 70.8629C82.3901 69.8658 83.1069 68.2472 83.3008 67.6403C83.3101 67.6111 83.3256 67.5843 83.3462 67.5617C83.3669 67.5391 83.3922 67.5213 83.4204 67.5094C83.4486 67.4975 83.4791 67.4919 83.5097 67.4929C83.5403 67.4939 83.5703 67.5015 83.5976 67.5153L83.8808 67.6569C83.9261 67.6797 83.978 67.6855 84.0272 67.6733C84.0763 67.6611 84.1195 67.6317 84.1489 67.5905C84.855 66.5895 84.9331 65.879 84.8852 65.4757C84.8811 65.439 84.8867 65.4018 84.9014 65.3679C84.9161 65.334 84.9394 65.3045 84.9691 65.2824C84.9987 65.2603 85.0335 65.2463 85.0702 65.2419C85.1069 65.2374 85.1441 65.2426 85.1782 65.257L85.601 65.4381C85.6319 65.451 85.6654 65.4564 85.6987 65.4539C85.7321 65.4514 85.7644 65.441 85.7929 65.4237C85.8215 65.4063 85.8456 65.3824 85.8631 65.3539C85.8807 65.3254 85.8913 65.2932 85.894 65.2599C86.0166 63.5607 84.8779 61.8492 84.3745 61.1818C84.3496 61.1495 84.3345 61.1108 84.331 61.0703C84.3276 61.0297 84.3358 60.989 84.3548 60.953C84.3738 60.917 84.4027 60.8872 84.4381 60.8671C84.4736 60.8471 84.514 60.8377 84.5547 60.84C85.0517 60.8639 85.626 61.1202 85.9707 61.2985C86.004 61.3159 86.0413 61.3243 86.0788 61.3226C86.1164 61.321 86.1529 61.3095 86.1845 61.2892C86.2161 61.2689 86.2419 61.2406 86.259 61.2071C86.2762 61.1737 86.2842 61.1363 86.2822 61.0988Z" fill="#32314B"/>
<path d="M76.6836 72.3904C76.2935 72.4654 75.8971 72.5023 75.5 72.5007C73.1445 72.5007 72.061 71.3508 71.6123 70.6277C71.59 70.5903 71.5568 70.5607 71.5171 70.5429C71.4773 70.5251 71.4331 70.5199 71.3904 70.5282C71.3476 70.5365 71.3085 70.5578 71.2783 70.5891C71.2481 70.6205 71.2283 70.6604 71.2217 70.7034C71.2163 70.735 71.2038 70.7651 71.1851 70.7912C71.1665 70.8173 71.1421 70.8389 71.1139 70.8543C71.0857 70.8696 71.0544 70.8784 71.0223 70.8799C70.9902 70.8814 70.9582 70.8757 70.9287 70.863C68.6098 69.866 67.893 68.2473 67.6992 67.6404C67.6899 67.6112 67.6744 67.5844 67.6537 67.5618C67.6331 67.5392 67.6078 67.5214 67.5795 67.5095C67.5513 67.4976 67.5209 67.492 67.4903 67.493C67.4597 67.494 67.4297 67.5017 67.4023 67.5154L67.1191 67.657C67.0738 67.6797 67.0219 67.6855 66.9727 67.6732C66.9235 67.661 66.8803 67.6315 66.8511 67.5901C66.145 66.5896 66.0669 65.8811 66.1147 65.4758C66.1188 65.4391 66.1132 65.4019 66.0985 65.368C66.0838 65.3341 66.0605 65.3046 66.0309 65.2825C66.0013 65.2604 65.9664 65.2464 65.9297 65.242C65.893 65.2375 65.8558 65.2427 65.8218 65.2571L65.3989 65.4382C65.368 65.4511 65.3346 65.4566 65.3012 65.454C65.2679 65.4515 65.2356 65.4412 65.207 65.4238C65.1784 65.4064 65.1544 65.3825 65.1368 65.354C65.1192 65.3256 65.1087 65.2933 65.1059 65.26C64.9834 63.5608 66.122 61.8489 66.6255 61.1819C66.6503 61.1496 66.6654 61.1109 66.6689 61.0704C66.6724 61.0298 66.6642 60.9891 66.6452 60.9531C66.6262 60.9171 66.5973 60.8873 66.5618 60.8673C66.5264 60.8472 66.4859 60.8378 66.4453 60.8401C65.9482 60.8635 65.374 61.1204 65.0293 61.2986C64.9961 61.3158 64.959 61.3239 64.9217 61.3222C64.8843 61.3205 64.8481 61.309 64.8166 61.2888C64.7852 61.2687 64.7596 61.2406 64.7424 61.2075C64.7252 61.1743 64.717 61.1372 64.7187 61.0999C64.7905 59.6179 65.8808 58.4202 66.5156 57.8459C66.5472 57.8171 66.5693 57.7793 66.5791 57.7377C66.5888 57.696 66.5858 57.6524 66.5703 57.6125C66.5548 57.5725 66.5277 57.5383 66.4924 57.514C66.4571 57.4898 66.4153 57.4769 66.3725 57.4768H65.9751C65.939 57.477 65.9035 57.4679 65.872 57.4505C65.8404 57.4331 65.8139 57.4079 65.7948 57.3773C65.7757 57.3467 65.7648 57.3118 65.763 57.2758C65.7612 57.2398 65.7687 57.2039 65.7846 57.1716C66.3774 56.0124 67.9653 55.6946 68.8476 55.6091C68.8933 55.6048 68.9364 55.5858 68.9704 55.5549C69.0044 55.524 69.0274 55.4829 69.036 55.4378C69.0446 55.3927 69.0383 55.346 69.018 55.3048C68.9978 55.2636 68.9647 55.23 68.9238 55.2092C68.5723 55.0387 68.2089 54.894 67.8364 54.7761C67.8025 54.7649 67.7719 54.7453 67.7476 54.7191C67.7232 54.693 67.7058 54.6611 67.697 54.6265C67.6882 54.5919 67.6883 54.5556 67.6972 54.521C67.7061 54.4863 67.7236 54.4545 67.748 54.4285C68.9751 53.1013 70.8374 53.0271 71.7207 53.0784C71.7618 53.081 71.8028 53.0715 71.8386 53.0512C71.8744 53.0308 71.9036 53.0005 71.9224 52.9639C71.9413 52.9272 71.9491 52.8859 71.9448 52.8449C71.9405 52.804 71.9244 52.7651 71.8984 52.7332L71.5327 52.281C71.5108 52.2537 71.496 52.2215 71.4896 52.1872C71.4831 52.1528 71.4853 52.1174 71.4958 52.0841C71.5063 52.0508 71.5249 52.0205 71.5499 51.9961C71.5749 51.9717 71.6056 51.9538 71.6391 51.9441C73.1963 51.4968 73.9736 51.6833 74.3208 51.8596C74.2197 51.885 74.1147 51.9128 74.0063 51.9441C73.9726 51.9538 73.9418 51.9717 73.9167 51.9961C73.8915 52.0206 73.8729 52.051 73.8623 52.0844C73.8518 52.1179 73.8497 52.1535 73.8562 52.1879C73.8628 52.2224 73.8778 52.2547 73.8999 52.282L74.2661 52.7341C74.2919 52.7662 74.3078 52.805 74.312 52.846C74.3161 52.8869 74.3083 52.9282 74.2894 52.9648C74.2705 53.0013 74.2414 53.0316 74.2056 53.052C74.1699 53.0723 74.1289 53.0818 74.0879 53.0793C73.2046 53.0305 71.3423 53.1023 70.1152 54.4294C70.0908 54.4555 70.0733 54.4873 70.0644 54.5219C70.0555 54.5565 70.0554 54.5928 70.0642 54.6275C70.073 54.6621 70.0904 54.694 70.1148 54.7201C70.1391 54.7463 70.1697 54.7659 70.2036 54.7771C70.5761 54.8948 70.9395 55.0394 71.291 55.2097C71.3319 55.2305 71.365 55.2641 71.3852 55.3053C71.4055 55.3465 71.4117 55.3932 71.4032 55.4383C71.3946 55.4834 71.3716 55.5245 71.3376 55.5554C71.3036 55.5863 71.2605 55.6053 71.2148 55.6096C70.3325 55.696 68.7446 56.0139 68.1518 57.1721C68.1358 57.2044 68.1284 57.2403 68.1302 57.2763C68.1319 57.3123 68.1429 57.3472 68.162 57.3778C68.181 57.4084 68.2076 57.4336 68.2392 57.451C68.2707 57.4684 68.3062 57.4775 68.3423 57.4773H68.7387C68.7815 57.4773 68.8233 57.4903 68.8586 57.5145C68.8939 57.5387 68.9211 57.573 68.9365 57.6129C68.952 57.6528 68.955 57.6965 68.9453 57.7381C68.9355 57.7798 68.9134 57.8176 68.8818 57.8464C68.247 58.4207 67.1577 59.6184 67.0849 61.0994C67.0834 61.1365 67.0917 61.1734 67.1088 61.2064C67.126 61.2394 67.1515 61.2673 67.1828 61.2873C67.2142 61.3074 67.2502 61.3189 67.2873 61.3207C67.3244 61.3225 67.3614 61.3145 67.3945 61.2976C67.7363 61.1194 68.313 60.8625 68.8105 60.8391C68.8512 60.8368 68.8916 60.8462 68.9271 60.8663C68.9625 60.8863 68.9914 60.9161 69.0104 60.9521C69.0294 60.9881 69.0376 61.0288 69.0341 61.0694C69.0306 61.11 69.0156 61.1487 68.9907 61.1809C68.4873 61.8479 67.3486 63.5598 67.4712 65.259C67.4739 65.2924 67.4845 65.3246 67.502 65.353C67.5196 65.3815 67.5437 65.4054 67.5722 65.4228C67.6008 65.4402 67.6331 65.4505 67.6665 65.4531C67.6998 65.4556 67.7333 65.4502 67.7641 65.4373L68.187 65.2561C68.221 65.2417 68.2583 65.2365 68.2949 65.241C68.3316 65.2455 68.3665 65.2594 68.3961 65.2816C68.4257 65.3037 68.4491 65.3331 68.4638 65.367C68.4785 65.401 68.4841 65.4381 68.48 65.4749C68.4311 65.8782 68.5102 66.5886 69.2163 67.5891C69.2456 67.6305 69.2887 67.66 69.3379 67.6722C69.3871 67.6845 69.4391 67.6788 69.4844 67.656L69.7676 67.5144C69.7949 67.5007 69.8249 67.493 69.8555 67.492C69.8861 67.491 69.9166 67.4966 69.9448 67.5085C69.973 67.5204 69.9983 67.5383 70.019 67.5608C70.0396 67.5834 70.0551 67.6102 70.0644 67.6394C70.2597 68.2478 70.9751 69.8665 73.2939 70.8621C73.3234 70.8747 73.3555 70.8805 73.3875 70.879C73.4196 70.8774 73.4509 70.8687 73.4791 70.8533C73.5073 70.8379 73.5317 70.8164 73.5503 70.7902C73.569 70.7641 73.5815 70.7341 73.5869 70.7024C73.5936 70.6594 73.6133 70.6195 73.6435 70.5881C73.6737 70.5568 73.7129 70.5355 73.7556 70.5272C73.7983 70.519 73.8426 70.5241 73.8823 70.5419C73.922 70.5597 73.9553 70.5893 73.9775 70.6267C74.3452 71.2151 75.1313 72.0872 76.6836 72.3904Z" fill="#27273D"/>
<path d="M72.5864 64.5811C73.6832 64.5811 74.5723 63.692 74.5723 62.5952C74.5723 61.4985 73.6832 60.6094 72.5864 60.6094C71.4897 60.6094 70.6006 61.4985 70.6006 62.5952C70.6006 63.692 71.4897 64.5811 72.5864 64.5811Z" fill="white"/>
<path d="M72.5864 63.707C73.2005 63.707 73.6982 63.2093 73.6982 62.5952C73.6982 61.9812 73.2005 61.4834 72.5864 61.4834C71.9724 61.4834 71.4746 61.9812 71.4746 62.5952C71.4746 63.2093 71.9724 63.707 72.5864 63.707Z" fill="#27273D"/>
<path d="M75.5 66.7778L71.8589 65.5532L72.1709 66.8315C72.1771 66.8554 72.1893 66.8773 72.2062 66.8952C72.2231 66.9131 72.2443 66.9265 72.2678 66.934C72.2913 66.9416 72.3163 66.9431 72.3405 66.9384C72.3647 66.9337 72.3873 66.923 72.4063 66.9072L72.585 66.7534L72.9419 67.5566C72.9524 67.5793 72.9685 67.5989 72.9887 67.6136C73.0089 67.6283 73.0326 67.6376 73.0574 67.6406C73.0822 67.6436 73.1073 67.6402 73.1305 67.6307C73.1536 67.6212 73.1739 67.606 73.1895 67.5864L73.4004 67.3149L73.8511 67.9106C73.8744 67.9407 73.9084 67.9605 73.9461 67.9658C73.9837 67.9712 74.022 67.9618 74.0527 67.9395L74.3677 67.7065C74.429 67.6617 74.5053 67.6425 74.5806 67.6529C74.6558 67.6633 74.7241 67.7025 74.771 67.7622L75.3867 68.5601C75.4004 68.5773 75.4179 68.5913 75.4377 68.6009C75.4576 68.6105 75.4794 68.6155 75.5015 68.6155C75.5235 68.6155 75.5453 68.6105 75.5652 68.6009C75.5851 68.5913 75.6025 68.5773 75.6162 68.5601L76.2324 67.7603C76.2793 67.7005 76.3476 67.6613 76.4228 67.6509C76.4981 67.6405 76.5744 67.6598 76.6357 67.7046L76.9507 67.9375C76.9815 67.9598 77.0197 67.9693 77.0573 67.9639C77.095 67.9585 77.129 67.9387 77.1523 67.9087L77.603 67.3149L77.8125 67.5864C77.8281 67.6059 77.8484 67.621 77.8714 67.6304C77.8945 67.6398 77.9196 67.6432 77.9443 67.6402C77.9691 67.6372 77.9926 67.628 78.0128 67.6134C78.0329 67.5988 78.0491 67.5792 78.0596 67.5566L78.4165 66.7534L78.5952 66.9072C78.6142 66.9231 78.6368 66.9339 78.6611 66.9387C78.6854 66.9434 78.7104 66.9419 78.734 66.9344C78.7575 66.9268 78.7788 66.9134 78.7958 66.8954C78.8127 66.8775 78.8249 66.8555 78.8311 66.8315L79.1426 65.5532L75.5 66.7778Z" fill="white"/>
<path d="M75.5 67.0616C74.8235 67.0635 74.1533 66.9311 73.5283 66.6722C72.9033 66.4133 72.3359 66.033 71.8589 65.5533C71.8239 65.5195 71.796 65.4791 71.7769 65.4344C71.7577 65.3897 71.7476 65.3417 71.7472 65.293C71.7468 65.2444 71.7561 65.1962 71.7745 65.1512C71.793 65.1062 71.8202 65.0653 71.8546 65.031C71.889 64.9966 71.9299 64.9694 71.9749 64.951C72.0199 64.9326 72.0681 64.9234 72.1168 64.9238C72.1654 64.9243 72.2134 64.9344 72.2581 64.9536C72.3028 64.9728 72.3432 65.0008 72.3769 65.0357C73.2053 65.864 74.3286 66.3292 75.5 66.3292C76.6713 66.3292 77.7947 65.864 78.623 65.0357C78.6924 64.9711 78.7843 64.9358 78.8791 64.9375C78.974 64.9392 79.0645 64.9776 79.1316 65.0447C79.1987 65.1118 79.2372 65.2023 79.2388 65.2972C79.2405 65.3921 79.2053 65.4839 79.1406 65.5533C78.6637 66.033 78.0964 66.4134 77.4714 66.6723C76.8465 66.9312 76.1764 67.0635 75.5 67.0616Z" fill="#3E436D"/>
<path d="M80.3457 55.9277C80.7127 55.9277 81.0103 55.6302 81.0103 55.2632C81.0103 54.8962 80.7127 54.5986 80.3457 54.5986C79.9787 54.5986 79.6812 54.8962 79.6812 55.2632C79.6812 55.6302 79.9787 55.9277 80.3457 55.9277Z" fill="#3E436D"/>
<path d="M79.3667 54.7549C79.6267 54.7549 79.8374 54.5441 79.8374 54.2842C79.8374 54.0242 79.6267 53.8135 79.3667 53.8135C79.1067 53.8135 78.896 54.0242 78.896 54.2842C78.896 54.5441 79.1067 54.7549 79.3667 54.7549Z" fill="#3E436D"/>
<path d="M72.5864 62.9858C72.8022 62.9858 72.9771 62.811 72.9771 62.5952C72.9771 62.3795 72.8022 62.2046 72.5864 62.2046C72.3707 62.2046 72.1958 62.3795 72.1958 62.5952C72.1958 62.811 72.3707 62.9858 72.5864 62.9858Z" fill="white"/>
<path d="M78.1177 64.5811C79.2144 64.5811 80.1035 63.692 80.1035 62.5952C80.1035 61.4985 79.2144 60.6094 78.1177 60.6094C77.0209 60.6094 76.1318 61.4985 76.1318 62.5952C76.1318 63.692 77.0209 64.5811 78.1177 64.5811Z" fill="white"/>
<path d="M78.1177 63.707C78.7317 63.707 79.2295 63.2093 79.2295 62.5952C79.2295 61.9812 78.7317 61.4834 78.1177 61.4834C77.5036 61.4834 77.0059 61.9812 77.0059 62.5952C77.0059 63.2093 77.5036 63.707 78.1177 63.707Z" fill="#27273D"/>
<path d="M78.1177 62.9858C78.3334 62.9858 78.5083 62.811 78.5083 62.5952C78.5083 62.3795 78.3334 62.2046 78.1177 62.2046C77.9019 62.2046 77.7271 62.3795 77.7271 62.5952C77.7271 62.811 77.9019 62.9858 78.1177 62.9858Z" fill="white"/>
<path d="M71.551 57.4877C71.8861 56.9774 71.9607 56.4343 71.7177 56.2748C71.4747 56.1152 71.0061 56.3996 70.671 56.9099C70.3359 57.4203 70.2612 57.9633 70.5042 58.1229C70.7472 58.2825 71.2159 57.9981 71.551 57.4877Z" fill="#27273D"/>
<path d="M80.4444 58.1256C80.6874 57.9661 80.6128 57.423 80.2776 56.9126C79.9425 56.4023 79.4739 56.1179 79.2309 56.2775C78.9879 56.4371 79.0626 56.9801 79.3977 57.4905C79.7328 58.0008 80.2014 58.2852 80.4444 58.1256Z" fill="#27273D"/>
<path d="M71.062 57.5352C70.5593 57.7136 70.1016 57.9994 69.7206 58.3726C69.3403 58.7501 69.061 59.217 68.9081 59.7305C68.8247 60.0045 68.6772 60.3692 68.4291 60.6734C67.3349 62.0167 65.3066 60.3912 66.3437 59.005C66.5517 58.7271 66.853 58.4303 67.2807 58.1217C67.2807 58.1217 69.4584 56.4351 71.0561 56.9625C71.116 56.9823 71.1682 57.0204 71.2054 57.0714C71.2426 57.1223 71.263 57.1837 71.2636 57.2468C71.2643 57.3099 71.2452 57.3716 71.209 57.4233C71.1729 57.475 71.1214 57.5142 71.062 57.5352Z" fill="#E88032"/>
<path d="M71.0625 57.5348C70.5597 57.7134 70.1019 57.9993 69.7207 58.3726C69.3404 58.7501 69.061 59.217 68.9082 59.7306C68.8247 60.0045 68.6772 60.3692 68.4297 60.6734C68.0669 61.1192 67.5996 61.2379 67.1782 61.1476C67.4375 61.0899 67.6914 60.94 67.9106 60.6734C68.1582 60.3692 68.3057 60.0045 68.3896 59.7306C68.542 59.217 68.8211 58.7501 69.2012 58.3726C69.5822 57.9993 70.0399 57.7134 70.5425 57.5348C70.6018 57.5136 70.653 57.4744 70.6891 57.4228C70.7251 57.3711 70.7441 57.3095 70.7434 57.2465C70.7428 57.1836 70.7225 57.1224 70.6855 57.0714C70.6484 57.0205 70.5964 56.9824 70.5366 56.9625C70.4001 56.918 70.2591 56.8882 70.1162 56.8736C70.4325 56.8376 70.7527 56.8678 71.0566 56.9625C71.1164 56.9824 71.1684 57.0205 71.2055 57.0714C71.2425 57.1224 71.2628 57.1836 71.2635 57.2465C71.2641 57.3095 71.2451 57.3711 71.2091 57.4228C71.1731 57.4744 71.1218 57.5136 71.0625 57.5348Z" fill="#D16D2A"/>
<path d="M79.9775 57.5352C80.4804 57.7135 80.9383 57.9992 81.3193 58.3726C81.6996 58.7501 81.979 59.217 82.1318 59.7305C82.2153 60.0045 82.3628 60.3692 82.6104 60.6734C83.7046 62.0167 85.7354 60.3927 84.6958 59.005C84.4883 58.7271 84.187 58.4303 83.7593 58.1217C83.7593 58.1217 81.5815 56.4351 79.9839 56.9625C79.9242 56.9825 79.8722 57.0206 79.8352 57.0715C79.7981 57.1224 79.7778 57.1836 79.7771 57.2466C79.7764 57.3096 79.7953 57.3712 79.8313 57.4229C79.8672 57.4746 79.9183 57.5139 79.9775 57.5352Z" fill="#E88032"/>
<path d="M83.8624 61.1476C83.4395 61.238 82.9737 61.1193 82.6109 60.6735C82.3628 60.3693 82.2154 60.0046 82.1319 59.7306C81.9791 59.2171 81.6997 58.7502 81.3194 58.3727C80.9383 57.9995 80.4806 57.7136 79.9781 57.5348C79.9188 57.5137 79.8675 57.4745 79.8315 57.4229C79.7955 57.3712 79.7765 57.3096 79.7771 57.2466C79.7778 57.1836 79.798 57.1224 79.8351 57.0715C79.8722 57.0206 79.9242 56.9825 79.9839 56.9626C80.2881 56.8685 80.6086 56.8389 80.9249 56.8757C80.7821 56.8903 80.6413 56.92 80.5049 56.9645C80.4452 56.9844 80.3931 57.0225 80.356 57.0733C80.3189 57.1242 80.2986 57.1854 80.2979 57.2484C80.2972 57.3114 80.3161 57.373 80.3521 57.4247C80.3881 57.4764 80.4393 57.5156 80.4986 57.5368C81.0013 57.7154 81.4592 58.0013 81.8404 58.3747C82.2207 58.7521 82.5001 59.219 82.6529 59.7326C82.7364 60.0065 82.8838 60.3713 83.1314 60.6755C83.3487 60.9401 83.6026 61.09 83.8624 61.1476Z" fill="#D16D2A"/>
<path d="M12.5 42C19.4036 42 25 36.4035 25 29.5C25 22.5964 19.4036 17 12.5 17C5.59644 17 0 22.5964 0 29.5C0 36.4035 5.59644 42 12.5 42Z" fill="#94D073"/>
<path d="M22.6074 31.2866C22.6074 35.0083 21.04 38.3179 18.6123 40.4057C16.129 41.7938 13.2475 42.2964 10.4409 41.831C9.08079 41.6058 7.76771 41.1555 6.55566 40.4985C6.51611 40.477 6.47656 40.4555 6.4375 40.4336C3.99121 38.3452 2.40967 35.0254 2.40967 31.2866C2.40967 29.0737 2.96387 27.0078 3.92334 25.2568C4.03206 25.0583 4.146 24.8639 4.26514 24.6738C4.79813 23.8176 5.44592 23.0383 6.19043 22.3579C6.81356 21.7889 7.50624 21.3012 8.25195 20.9062C8.39062 20.833 8.53092 20.7633 8.67285 20.6973C9.15201 20.4735 9.64964 20.2917 10.1602 20.1538C10.311 20.1133 10.4629 20.0762 10.6162 20.0435C11.1623 19.9268 11.7181 19.8614 12.2764 19.8481C12.354 19.8481 12.4321 19.8447 12.5103 19.8447H12.6406C12.6753 19.8447 12.71 19.8447 12.7441 19.8447C12.9805 19.8506 13.2147 19.8657 13.4468 19.8901C13.7362 19.9198 14.0218 19.9635 14.3037 20.0215C14.4574 20.0524 14.6097 20.0874 14.7607 20.1265C15.2748 20.2593 15.7763 20.4364 16.2598 20.6558C16.4023 20.7209 16.5431 20.7889 16.6821 20.8599C17.4573 21.261 18.1764 21.762 18.8213 22.3501C18.986 22.4995 19.1462 22.6545 19.3018 22.8149C20.0035 23.5421 20.6046 24.3601 21.0889 25.2471C22.0518 27 22.6074 29.0698 22.6074 31.2866Z" fill="#00B564"/>
<path d="M12.7441 19.9902C12.5869 20.019 12.4312 20.0522 12.2764 20.0879C11.7408 20.2167 11.2178 20.3933 10.7139 20.6157C10.5661 20.6808 10.4196 20.75 10.2744 20.8232C9.83988 21.0429 9.42238 21.2948 9.02539 21.5767C8.89355 21.6698 8.76335 21.7664 8.63477 21.8667C7.9828 22.3788 7.39286 22.9653 6.87695 23.6143C6.40034 24.2148 5.98502 24.8616 5.63721 25.5449C4.73476 27.3238 4.26832 29.2919 4.27637 31.2866C4.27637 36.0259 6.81836 40.0928 10.4409 41.8335C9.08079 41.6083 7.76771 41.1579 6.55566 40.501C4.06592 38.414 2.45117 35.0664 2.45117 31.2866C2.45117 29.083 3.00049 27.0249 3.95264 25.2808C4.05973 25.0835 4.1722 24.8905 4.29004 24.7017C4.82151 23.8426 5.46814 23.0605 6.21191 22.377C6.83076 21.8088 7.51861 21.3208 8.25928 20.9243C8.39795 20.8504 8.53809 20.7803 8.67969 20.7139C9.15713 20.4886 9.65311 20.305 10.1621 20.165C10.3125 20.1234 10.4644 20.0858 10.6177 20.0522C11.1624 19.9328 11.717 19.8643 12.2744 19.8477C12.3659 19.8447 12.4577 19.8433 12.5498 19.8433H12.6387H12.7422C12.9863 19.8481 13.2251 19.8628 13.4624 19.8877H13.4448C13.2082 19.9134 12.9746 19.9476 12.7441 19.9902Z" fill="#04A055"/>
<path d="M3.21138 19.1378C3.46675 19.7965 4.20601 21.2769 5.91792 22.1807C6.32713 22.3987 6.63871 22.7634 6.79006 23.2016C6.94141 23.6398 6.92133 24.119 6.73384 24.543C6.61855 24.8043 6.44407 25.0352 6.22419 25.2175C6.0043 25.3998 5.74505 25.5284 5.4669 25.5933C5.18875 25.6581 4.89934 25.6574 4.62153 25.5911C4.34371 25.5248 4.08512 25.3949 3.86617 25.2115C2.36763 23.9639 0.89351 21.8541 2.87789 19.0948C2.89806 19.0669 2.92539 19.045 2.95698 19.0313C2.98857 19.0177 3.02327 19.0128 3.0574 19.0172C3.09154 19.0216 3.12386 19.0351 3.15096 19.0563C3.17805 19.0776 3.19893 19.1057 3.21138 19.1378Z" fill="#E88032"/>
<path d="M5.54003 25.5743C5.25252 25.654 4.94994 25.6627 4.65836 25.5995C4.36677 25.5363 4.09492 25.4031 3.8662 25.2116C2.36767 23.964 0.893548 21.8541 2.88085 19.0949C2.90106 19.0671 2.92836 19.0453 2.9599 19.0317C2.99143 19.0181 3.02604 19.0133 3.06009 19.0177C3.09414 19.0221 3.12638 19.0356 3.15343 19.0567C3.18049 19.0778 3.20136 19.1059 3.21386 19.1378C3.28975 19.3318 3.37631 19.5213 3.47314 19.7057C2.0996 22.1661 3.46288 24.0577 4.84863 25.2116C5.05044 25.3806 5.28623 25.5043 5.54003 25.5743Z" fill="#D1702F"/>
<path d="M21.7886 19.1378C21.5332 19.7965 20.794 21.2769 19.0821 22.1807C18.6729 22.3987 18.3613 22.7634 18.2099 23.2016C18.0586 23.6398 18.0787 24.119 18.2662 24.543C18.3815 24.8043 18.5559 25.0352 18.7758 25.2175C18.9957 25.3998 19.255 25.5284 19.5331 25.5933C19.8112 25.6581 20.1007 25.6574 20.3785 25.5911C20.6563 25.5248 20.9149 25.3949 21.1338 25.2115C22.6324 23.9639 24.1065 21.8541 22.1221 19.0948C22.1019 19.0669 22.0746 19.045 22.043 19.0313C22.0114 19.0177 21.9767 19.0128 21.9426 19.0172C21.9085 19.0216 21.8761 19.0351 21.849 19.0563C21.8219 19.0776 21.8011 19.1057 21.7886 19.1378Z" fill="#E88032"/>
<path d="M19.171 24.5435C19.2827 24.8002 19.452 25.0276 19.6658 25.2082C19.8797 25.3888 20.1322 25.5178 20.4039 25.585C19.982 25.6916 19.5359 25.6456 19.1447 25.455C18.7535 25.2643 18.4423 24.9415 18.2662 24.5435C18.0787 24.1195 18.0586 23.6401 18.2099 23.2018C18.3613 22.7635 18.6729 22.3988 19.0821 22.1807C20.7945 21.2769 21.5333 19.7965 21.7887 19.1378C21.8011 19.1057 21.822 19.0776 21.8491 19.0563C21.8762 19.0351 21.9085 19.0216 21.9426 19.0172C21.9768 19.0128 22.0115 19.0177 22.0431 19.0313C22.0746 19.045 22.102 19.0669 22.1221 19.0948C22.2476 19.2678 22.3641 19.4471 22.4713 19.6319C21.9267 20.7177 21.0585 21.6077 19.9864 22.1788C19.5768 22.3969 19.2649 22.7621 19.1137 23.2008C18.9624 23.6395 18.9829 24.1193 19.171 24.5435Z" fill="#D1702F"/>
<path d="M18.6792 36.9956C18.68 37.4128 18.5982 37.8261 18.4386 38.2116C18.2789 38.5971 18.0446 38.9472 17.749 39.2417C17.4539 39.5363 17.1037 39.7699 16.7183 39.929C16.3329 40.0882 15.9199 40.1699 15.5029 40.1694H9.63965C8.7979 40.1694 7.99062 39.835 7.39541 39.2398C6.8002 38.6446 6.46582 37.8374 6.46582 36.9956C6.46582 36.1539 6.8002 35.3466 7.39541 34.7514C7.99062 34.1562 8.7979 33.8218 9.63965 33.8218H15.5049C16.3466 33.8218 17.1539 34.1562 17.7491 34.7514C18.3443 35.3466 18.6787 36.1539 18.6787 36.9956H18.6792Z" fill="#27273D"/>
<path d="M17.9946 35.0269L16.0645 36.6328C16.0124 36.6759 15.9513 36.7067 15.8856 36.7228C15.82 36.7389 15.7516 36.74 15.6855 36.7259C15.6194 36.7118 15.5573 36.6829 15.504 36.6414C15.4506 36.5999 15.4074 36.5469 15.3774 36.4863L14.9243 35.5693C14.8933 35.5068 14.8481 35.4523 14.7922 35.4104C14.7363 35.3685 14.6714 35.3402 14.6027 35.3279C14.5339 35.3156 14.4632 35.3196 14.3963 35.3396C14.3294 35.3596 14.2681 35.3949 14.2173 35.4429L12.8765 36.7051C12.7938 36.7834 12.6842 36.827 12.5703 36.827C12.4564 36.827 12.3469 36.7834 12.2642 36.7051L10.9233 35.4429C10.8726 35.3949 10.8112 35.3596 10.7443 35.3396C10.6774 35.3196 10.6067 35.3156 10.538 35.3279C10.4692 35.3402 10.4043 35.3685 10.3484 35.4104C10.2926 35.4523 10.2473 35.5068 10.2163 35.5693L9.76563 36.4878C9.73581 36.5484 9.69263 36.6015 9.63933 36.6431C9.58603 36.6846 9.524 36.7135 9.45791 36.7276C9.39182 36.7417 9.32339 36.7407 9.25778 36.7245C9.19216 36.7083 9.13107 36.6775 9.0791 36.6343L7.15088 35.0283C7.22677 34.9317 7.30829 34.8395 7.39502 34.7525C7.68972 34.4573 8.0399 34.2234 8.42539 34.0642C8.81087 33.905 9.22404 33.8236 9.64111 33.8247H15.5049C15.9838 33.8239 16.4566 33.9316 16.8878 34.1398C17.3191 34.348 17.6975 34.6513 17.9946 35.0269Z" fill="white"/>
<path d="M17.1875 39.687C16.6836 40.0034 16.1004 40.1706 15.5054 40.1694H9.63965C9.04516 40.1702 8.46254 40.003 7.95898 39.687C9.07861 39.1133 10.7314 38.751 12.5742 38.751C14.417 38.751 16.0674 39.1133 17.1875 39.687Z" fill="#DB1B1B"/>
<path d="M6.18262 30.8657C6.53589 30.8657 6.82227 30.5793 6.82227 30.2261C6.82227 29.8728 6.53589 29.5864 6.18262 29.5864C5.82935 29.5864 5.54297 29.8728 5.54297 30.2261C5.54297 30.5793 5.82935 30.8657 6.18262 30.8657Z" fill="#4ACC97"/>
<path d="M6.18262 32.9873C6.53589 32.9873 6.82227 32.7009 6.82227 32.3477C6.82227 31.9944 6.53589 31.708 6.18262 31.708C5.82935 31.708 5.54297 31.9944 5.54297 32.3477C5.54297 32.7009 5.82935 32.9873 6.18262 32.9873Z" fill="#4ACC97"/>
<path d="M7.42383 31.8198C7.71831 31.8198 7.95703 31.5811 7.95703 31.2866C7.95703 30.9921 7.71831 30.7534 7.42383 30.7534C7.12935 30.7534 6.89062 30.9921 6.89062 31.2866C6.89062 31.5811 7.12935 31.8198 7.42383 31.8198Z" fill="#4ACC97"/>
<path d="M4.95898 31.8198C5.25346 31.8198 5.49219 31.5811 5.49219 31.2866C5.49219 30.9921 5.25346 30.7534 4.95898 30.7534C4.6645 30.7534 4.42578 30.9921 4.42578 31.2866C4.42578 31.5811 4.6645 31.8198 4.95898 31.8198Z" fill="#4ACC97"/>
<path d="M18.6704 30.8657C19.0237 30.8657 19.3101 30.5793 19.3101 30.2261C19.3101 29.8728 19.0237 29.5864 18.6704 29.5864C18.3171 29.5864 18.0308 29.8728 18.0308 30.2261C18.0308 30.5793 18.3171 30.8657 18.6704 30.8657Z" fill="#4ACC97"/>
<path d="M18.6704 32.9873C19.0237 32.9873 19.3101 32.7009 19.3101 32.3477C19.3101 31.9944 19.0237 31.708 18.6704 31.708C18.3171 31.708 18.0308 31.9944 18.0308 32.3477C18.0308 32.7009 18.3171 32.9873 18.6704 32.9873Z" fill="#4ACC97"/>
<path d="M19.9116 31.8198C20.2061 31.8198 20.4448 31.5811 20.4448 31.2866C20.4448 30.9921 20.2061 30.7534 19.9116 30.7534C19.6171 30.7534 19.3784 30.9921 19.3784 31.2866C19.3784 31.5811 19.6171 31.8198 19.9116 31.8198Z" fill="#4ACC97"/>
<path d="M17.4468 31.8198C17.7413 31.8198 17.98 31.5811 17.98 31.2866C17.98 30.9921 17.7413 30.7534 17.4468 30.7534C17.1523 30.7534 16.9136 30.9921 16.9136 31.2866C16.9136 31.5811 17.1523 31.8198 17.4468 31.8198Z" fill="#4ACC97"/>
<path d="M12.5088 22.7773C12.4468 22.7773 12.3873 22.7527 12.3434 22.7088C12.2995 22.665 12.2749 22.6055 12.2749 22.5435V18.519C12.2749 18.457 12.2995 18.3975 12.3434 18.3537C12.3873 18.3098 12.4468 18.2852 12.5088 18.2852C12.5708 18.2852 12.6303 18.3098 12.6742 18.3537C12.718 18.3975 12.7427 18.457 12.7427 18.519V22.5435C12.7427 22.5742 12.7367 22.6046 12.725 22.633C12.7133 22.6614 12.696 22.6872 12.6743 22.709C12.6526 22.7307 12.6268 22.7479 12.5984 22.7597C12.57 22.7714 12.5395 22.7774 12.5088 22.7773Z" fill="#27273D"/>
<path d="M10.8369 22.991C10.7816 22.991 10.728 22.9714 10.6858 22.9356C10.6436 22.8999 10.6155 22.8503 10.6065 22.7957L9.93752 18.8269C9.93245 18.7965 9.93342 18.7654 9.94037 18.7354C9.94733 18.7054 9.96012 18.677 9.97803 18.652C9.99594 18.6269 10.0186 18.6056 10.0448 18.5893C10.0709 18.573 10.1 18.562 10.1304 18.5569C10.1608 18.5518 10.1919 18.5528 10.2219 18.5598C10.2519 18.5667 10.2803 18.5795 10.3053 18.5974C10.3304 18.6153 10.3517 18.638 10.368 18.6641C10.3843 18.6903 10.3953 18.7194 10.4004 18.7498L11.0694 22.718C11.0797 22.7793 11.0653 22.8421 11.0293 22.8928C10.9933 22.9434 10.9387 22.9777 10.8775 22.9881C10.864 22.9901 10.8505 22.991 10.8369 22.991Z" fill="#27273D"/>
<path d="M9.60639 23.9064C9.55967 23.9066 9.51399 23.8927 9.47525 23.8666C9.43651 23.8404 9.4065 23.8033 9.3891 23.7599L7.90033 20.0197C7.8804 19.9627 7.88326 19.9001 7.90832 19.8452C7.93338 19.7902 7.9787 19.747 8.03483 19.7247C8.09096 19.7023 8.15356 19.7025 8.20956 19.7251C8.26556 19.7478 8.31064 19.7913 8.33539 19.8464L9.82367 23.5856C9.83788 23.6211 9.84317 23.6596 9.83908 23.6976C9.83498 23.7356 9.82163 23.772 9.80018 23.8037C9.77874 23.8354 9.74986 23.8613 9.71607 23.8792C9.68229 23.8971 9.64463 23.9065 9.60639 23.9064Z" fill="#27273D"/>
<path d="M14.0786 22.991C14.0655 22.991 14.0524 22.99 14.0395 22.9881C13.9783 22.9777 13.9237 22.9434 13.8877 22.8928C13.8517 22.8422 13.8373 22.7793 13.8476 22.7181L14.5166 18.7498C14.5269 18.6886 14.561 18.634 14.6116 18.5981C14.6621 18.5621 14.7249 18.5476 14.7861 18.5579C14.8473 18.5682 14.9019 18.6024 14.9379 18.653C14.9739 18.7035 14.9883 18.7663 14.978 18.8275L14.309 22.7962C14.2998 22.8507 14.2716 22.9001 14.2294 22.9358C14.1873 22.9714 14.1338 22.991 14.0786 22.991Z" fill="#27273D"/>
<path d="M15.3091 23.906C15.2709 23.9061 15.2332 23.8967 15.1994 23.8788C15.1656 23.8609 15.1368 23.835 15.1153 23.8033C15.0939 23.7717 15.0805 23.7352 15.0764 23.6972C15.0723 23.6592 15.0776 23.6207 15.0918 23.5852L16.5801 19.846C16.5915 19.8175 16.6084 19.7914 16.6298 19.7694C16.6512 19.7474 16.6768 19.7299 16.705 19.7177C16.7333 19.7056 16.7636 19.6992 16.7943 19.6988C16.825 19.6983 16.8555 19.704 16.8841 19.7154C16.9126 19.7268 16.9386 19.7437 16.9606 19.7651C16.9826 19.7865 17.0002 19.8121 17.0123 19.8403C17.0244 19.8685 17.0309 19.8989 17.0313 19.9296C17.0317 19.9603 17.0261 19.9908 17.0147 20.0193L15.5274 23.7586C15.5101 23.8023 15.48 23.8397 15.441 23.866C15.4021 23.8924 15.3561 23.9063 15.3091 23.906Z" fill="#27273D"/>
<path d="M12.5088 32.7886C15.3972 32.7886 17.7388 30.447 17.7388 27.5586C17.7388 24.6702 15.3972 22.3286 12.5088 22.3286C9.62035 22.3286 7.27881 24.6702 7.27881 27.5586C7.27881 30.447 9.62035 32.7886 12.5088 32.7886Z" fill="white"/>
<path d="M12.5088 30.9351C14.2136 30.9351 15.5957 29.553 15.5957 27.8481C15.5957 26.1433 14.2136 24.7612 12.5088 24.7612C10.8039 24.7612 9.42188 26.1433 9.42188 27.8481C9.42188 29.553 10.8039 30.9351 12.5088 30.9351Z" fill="#3586CB"/>
<path d="M12.481 30.1606C13.7581 30.1606 14.7935 29.1253 14.7935 27.8481C14.7935 26.571 13.7581 25.5356 12.481 25.5356C11.2038 25.5356 10.1685 26.571 10.1685 27.8481C10.1685 29.1253 11.2038 30.1606 12.481 30.1606Z" fill="#27273D"/>
<path d="M13.8574 26.978C14.2557 26.978 14.5786 26.6551 14.5786 26.2568C14.5786 25.8585 14.2557 25.5356 13.8574 25.5356C13.4591 25.5356 13.1362 25.8585 13.1362 26.2568C13.1362 26.6551 13.4591 26.978 13.8574 26.978Z" fill="white"/>
<path d="M12.481 28.7183C12.9615 28.7183 13.3511 28.3287 13.3511 27.8481C13.3511 27.3676 12.9615 26.978 12.481 26.978C12.0004 26.978 11.6108 27.3676 11.6108 27.8481C11.6108 28.3287 12.0004 28.7183 12.481 28.7183Z" fill="white"/>
<g clip-path="url(#clip0_2273_2385)">
<path d="M44.5 59C51.4036 59 57 53.4036 57 46.5C57 39.5964 51.4036 34 44.5 34C37.5964 34 32 39.5964 32 46.5C32 53.4036 37.5964 59 44.5 59Z" fill="#94D073"/>
<path d="M52.8594 55.7935C52.124 56.4559 51.3125 57.0286 50.4419 57.4995C50.1815 57.6401 49.9167 57.7716 49.6475 57.894C48.5314 58.3992 47.3467 58.7364 46.1318 58.8945C45.6828 58.953 45.231 58.9872 44.7783 58.9971C44.686 58.9971 44.5937 59 44.501 59C43.1315 59.0016 41.7712 58.7776 40.4746 58.3369C40.1865 58.2393 39.9032 58.1312 39.6245 58.0127C39.083 57.7836 38.5584 57.5163 38.0547 57.2129C37.3507 56.7886 36.6901 56.2962 36.0825 55.7427L36.0771 55.7373C36.7881 53.9614 37.0928 52.1294 37.2139 50.6592C37.3232 49.3515 37.195 48.0349 36.8354 46.7729C36.4503 45.4227 36.4299 43.9945 36.7764 42.6338C37.0356 41.6225 37.4935 40.6729 38.1235 39.8403C38.3211 39.5782 38.5353 39.329 38.7646 39.0942C40.133 37.6797 41.983 36.8309 43.9478 36.7163C44.0229 36.7119 44.0981 36.7085 44.1738 36.7061C44.2598 36.7031 44.3462 36.7017 44.4326 36.7017H44.5503H44.6084L44.7061 36.7046L44.8335 36.71H44.8555L44.9834 36.7178C45.1094 36.7266 45.2349 36.7383 45.3589 36.7534C46.251 36.8587 47.1185 37.1166 47.9233 37.5156C48.7424 37.9205 49.4849 38.4645 50.1177 39.1235C51.0662 40.1081 51.7414 41.3231 52.0767 42.6484C52.4088 43.9664 52.3979 45.3476 52.0449 46.6602C51.7031 47.9204 51.5566 49.2256 51.6567 50.5269C51.7754 52.0332 52.0894 53.9458 52.8594 55.7935Z" fill="#3E436D"/>
<path d="M45.3608 36.7559H45.3579C44.5207 36.8531 43.7048 37.0854 42.9419 37.4438C42.7417 37.5376 42.5464 37.6395 42.356 37.7495C42.0529 37.9238 41.7619 38.1183 41.4849 38.3315C40.8824 38.7947 40.3498 39.3421 39.9033 39.957C39.7109 40.221 39.5353 40.4967 39.3774 40.7827C39.2821 40.9539 39.1935 41.1289 39.1118 41.3076C38.9152 41.7352 38.7577 42.1798 38.6411 42.6357C38.2947 43.9964 38.3151 45.4246 38.7002 46.7749C39.0599 48.036 39.1886 49.3518 39.0801 50.6587C38.98 51.8794 38.7529 53.3467 38.2729 54.8252C38.0218 55.5946 37.9472 56.4107 38.0547 57.2129C37.3507 56.7886 36.6901 56.2962 36.0825 55.7427C36.7954 53.9648 37.1006 52.1294 37.2217 50.6587C37.331 49.3511 37.2028 48.0344 36.8433 46.7725C36.4591 45.4235 36.4391 43.9969 36.7852 42.6377C36.7849 42.6362 36.7849 42.6348 36.7852 42.6333C36.9013 42.1786 37.0583 41.7354 37.2544 41.3091V41.3052C37.4919 40.7882 37.7846 40.2983 38.1274 39.8442C38.325 39.5821 38.539 39.3327 38.7681 39.0977C39.4317 38.4126 40.214 37.8536 41.0771 37.4478L41.0845 37.4443C41.5133 37.2431 41.9594 37.0812 42.4175 36.9604H42.4253C42.9962 36.8112 43.5821 36.7266 44.1719 36.708C44.2578 36.7051 44.3442 36.7036 44.4307 36.7036H44.5483H44.6064L44.7041 36.7065L44.8315 36.7119H44.8535L44.9814 36.7197C45.1094 36.729 45.2354 36.7412 45.3608 36.7559Z" fill="#32314B"/>
<path d="M49.2182 40.8847C49.1075 40.8853 48.9998 40.8482 48.9129 40.7795C48.8261 40.7108 48.7651 40.6147 48.7401 40.5068C48.715 40.3989 48.7274 40.2858 48.7752 40.1858C48.8229 40.0859 48.9032 40.0052 49.0029 39.957C49.0317 39.9423 51.1132 38.8827 51.8222 36.2328C51.8573 36.1097 51.9394 36.0052 52.0508 35.942C52.1622 35.8788 52.294 35.8619 52.4178 35.895C52.5415 35.928 52.6473 36.0084 52.7124 36.1187C52.7774 36.229 52.7965 36.3605 52.7656 36.4848C51.936 39.5873 49.5331 40.787 49.4316 40.8359C49.3651 40.8683 49.2921 40.885 49.2182 40.8847Z" fill="#F6D372"/>
<path d="M52.3423 38.1172C53.3128 38.1172 54.0996 37.3304 54.0996 36.3599C54.0996 35.3893 53.3128 34.6025 52.3423 34.6025C51.3717 34.6025 50.585 35.3893 50.585 36.3599C50.585 37.3304 51.3717 38.1172 52.3423 38.1172Z" fill="#E88032"/>
<path d="M52.7651 38.0659C52.5061 38.1302 52.2358 38.1347 51.9748 38.079C51.7138 38.0233 51.4689 37.9089 51.2587 37.7445C51.0485 37.58 50.8785 37.3699 50.7616 37.13C50.6446 36.8901 50.5839 36.6267 50.5839 36.3599C50.5839 36.093 50.6446 35.8296 50.7616 35.5897C50.8785 35.3498 51.0485 35.1397 51.2587 34.9753C51.4689 34.8109 51.7138 34.6965 51.9748 34.6408C52.2358 34.5851 52.5061 34.5895 52.7651 34.6538C52.3841 34.7484 52.0458 34.9677 51.8039 35.2769C51.5621 35.5861 51.4307 35.9673 51.4307 36.3599C51.4307 36.7524 51.5621 37.1336 51.8039 37.4428C52.0458 37.752 52.3841 37.9714 52.7651 38.0659Z" fill="#CE6D2C"/>
<path d="M39.6957 40.8847C39.8064 40.8852 39.914 40.848 40.0008 40.7793C40.0876 40.7106 40.1485 40.6144 40.1735 40.5066C40.1984 40.3987 40.186 40.2856 40.1383 40.1858C40.0905 40.0859 40.0102 40.0052 39.9106 39.957C39.8823 39.9423 37.8002 38.8827 37.0917 36.2328C37.0523 36.1149 36.9693 36.0164 36.8597 35.9575C36.7501 35.8987 36.6221 35.8839 36.502 35.9161C36.3818 35.9484 36.2785 36.0253 36.2132 36.1312C36.1478 36.2371 36.1253 36.3639 36.1503 36.4858C36.9804 39.5873 39.3828 40.7861 39.4848 40.8354C39.5505 40.8676 39.6226 40.8845 39.6957 40.8847Z" fill="#F6D372"/>
<path d="M36.6196 38.1172C37.5902 38.1172 38.377 37.3304 38.377 36.3599C38.377 35.3893 37.5902 34.6025 36.6196 34.6025C35.6491 34.6025 34.8623 35.3893 34.8623 36.3599C34.8623 37.3304 35.6491 38.1172 36.6196 38.1172Z" fill="#E88032"/>
<path d="M37.0424 38.0659C36.7834 38.1302 36.5132 38.1347 36.2522 38.079C35.9912 38.0233 35.7463 37.9089 35.5361 37.7445C35.3258 37.58 35.1558 37.3699 35.0389 37.13C34.922 36.8901 34.8612 36.6267 34.8612 36.3599C34.8612 36.093 34.922 35.8296 35.0389 35.5897C35.1558 35.3498 35.3258 35.1397 35.5361 34.9753C35.7463 34.8109 35.9912 34.6965 36.2522 34.6408C36.5132 34.5851 36.7834 34.5895 37.0424 34.6538C36.6615 34.7484 36.3231 34.9677 36.0813 35.2769C35.8394 35.5861 35.708 35.9673 35.708 36.3599C35.708 36.7524 35.8394 37.1336 36.0813 37.4428C36.3231 37.752 36.6615 37.9714 37.0424 38.0659Z" fill="#CE6D2C"/>
<path d="M42.4307 37.1821C42.4307 37.8696 42.1245 38.4272 41.7471 38.4272C41.4189 38.4272 41.145 38.0059 41.0786 37.4443C41.5098 37.2411 41.9586 37.0777 42.4194 36.9561C42.427 37.0312 42.4308 37.1066 42.4307 37.1821Z" fill="#DBB963"/>
<path d="M44.5586 40.0952C44.9361 40.0952 45.2422 39.5378 45.2422 38.8501C45.2422 38.1624 44.9361 37.605 44.5586 37.605C44.1811 37.605 43.875 38.1624 43.875 38.8501C43.875 39.5378 44.1811 40.0952 44.5586 40.0952Z" fill="#F6D372"/>
<path d="M47.9233 37.5156C47.8433 38.0415 47.5786 38.4277 47.2646 38.4277C46.8872 38.4277 46.5811 37.8701 46.5811 37.1826C46.5811 37.1211 46.5835 37.0605 46.5884 37.0015C47.0481 37.1317 47.495 37.3038 47.9233 37.5156Z" fill="#F6D372"/>
<path d="M52.0766 42.6479C51.5698 42.9595 51.0385 43.0024 50.8359 42.7295C50.6108 42.4263 50.8759 41.8481 51.4282 41.4385C51.4865 41.3949 51.547 41.3544 51.6093 41.3169C51.8051 41.7455 51.9615 42.191 52.0766 42.6479Z" fill="#F6D372"/>
<path d="M38.042 42.7295C37.8359 43.0068 37.2915 42.958 36.7778 42.6318C36.8944 42.1758 37.0519 41.7313 37.2485 41.3037C37.3182 41.3444 37.3855 41.3889 37.4502 41.437C38.002 41.8481 38.2671 42.4263 38.042 42.7295Z" fill="#DBB963"/>
<path d="M48.3223 54.6543C48.6998 54.6543 49.0059 54.0968 49.0059 53.4092C49.0059 52.7215 48.6998 52.1641 48.3223 52.1641C47.9447 52.1641 47.6387 52.7215 47.6387 53.4092C47.6387 54.0968 47.9447 54.6543 48.3223 54.6543Z" fill="#F6D372"/>
<path d="M40.1846 54.6543C40.5621 54.6543 40.8682 54.0968 40.8682 53.4092C40.8682 52.7215 40.5621 52.1641 40.1846 52.1641C39.807 52.1641 39.501 52.7215 39.501 53.4092C39.501 54.0968 39.807 54.6543 40.1846 54.6543Z" fill="#F6D372"/>
<path d="M44.7744 56.7383C45.152 56.7383 45.458 56.1808 45.458 55.4932C45.458 54.8055 45.152 54.248 44.7744 54.248C44.3969 54.248 44.0908 54.8055 44.0908 55.4932C44.0908 56.1808 44.3969 56.7383 44.7744 56.7383Z" fill="#F6D372"/>
<path d="M50.3408 50.0234C50.7184 50.0234 51.0244 49.466 51.0244 48.7783C51.0244 48.0907 50.7184 47.5332 50.3408 47.5332C49.9633 47.5332 49.6572 48.0907 49.6572 48.7783C49.6572 49.466 49.9633 50.0234 50.3408 50.0234Z" fill="#F6D372"/>
<path d="M50.585 56.7383C50.5882 56.999 50.5396 57.2578 50.4419 57.4995C50.1815 57.6401 49.9167 57.7716 49.6475 57.894C49.3955 57.7104 49.2178 57.2627 49.2178 56.7383C49.2178 56.0508 49.5239 55.4932 49.9014 55.4932C50.2788 55.4932 50.585 56.0508 50.585 56.7383Z" fill="#F6D372"/>
<path d="M46.1309 58.8945C45.6819 58.953 45.23 58.9872 44.7773 58.9971C44.8101 58.3652 45.1025 57.8706 45.458 57.8706C45.7939 57.8706 46.0732 58.3125 46.1309 58.8945Z" fill="#F6D372"/>
<path d="M40.4736 58.3369C40.1855 58.2393 39.9022 58.1312 39.6235 58.0127C39.7065 57.9257 39.8203 57.8746 39.9404 57.8706C40.1543 57.8706 40.3496 58.0527 40.4736 58.3369Z" fill="#F6D372"/>
<path d="M38.377 50.0664C38.7545 50.0664 39.0605 49.5089 39.0605 48.8213C39.0605 48.1336 38.7545 47.5762 38.377 47.5762C37.9994 47.5762 37.6934 48.1336 37.6934 48.8213C37.6934 49.5089 37.9994 50.0664 38.377 50.0664Z" fill="#DBB963"/>
<path d="M44.4814 48.188C46.6027 48.188 48.3223 46.4684 48.3223 44.3472C48.3223 42.2259 46.6027 40.5063 44.4814 40.5063C42.3602 40.5063 40.6406 42.2259 40.6406 44.3472C40.6406 46.4684 42.3602 48.188 44.4814 48.188Z" fill="white"/>
<path d="M44.4814 46.8267C45.7333 46.8267 46.748 45.8119 46.748 44.5601C46.748 43.3082 45.7333 42.2935 44.4814 42.2935C43.2296 42.2935 42.2148 43.3082 42.2148 44.5601C42.2148 45.8119 43.2296 46.8267 44.4814 46.8267Z" fill="#3586CB"/>
<path d="M44.4609 46.2583C45.3989 46.2583 46.1592 45.498 46.1592 44.5601C46.1592 43.6221 45.3989 42.8618 44.4609 42.8618C43.523 42.8618 42.7627 43.6221 42.7627 44.5601C42.7627 45.498 43.523 46.2583 44.4609 46.2583Z" fill="#27273D"/>
<path d="M45.4717 43.9214C45.7643 43.9214 46.0015 43.6842 46.0015 43.3916C46.0015 43.099 45.7643 42.8618 45.4717 42.8618C45.1791 42.8618 44.9419 43.099 44.9419 43.3916C44.9419 43.6842 45.1791 43.9214 45.4717 43.9214Z" fill="white"/>
<path d="M44.4609 45.1992C44.8139 45.1992 45.1001 44.9131 45.1001 44.5601C45.1001 44.2071 44.8139 43.9209 44.4609 43.9209C44.1079 43.9209 43.8218 44.2071 43.8218 44.5601C43.8218 44.9131 44.1079 45.1992 44.4609 45.1992Z" fill="white"/>
<path d="M46.6074 50.6299V51.4849C46.6078 51.8669 46.4949 52.2405 46.2829 52.5583C46.0709 52.8761 45.7694 53.1239 45.4165 53.2702C45.0636 53.4166 44.6753 53.455 44.3006 53.3806C43.9259 53.3061 43.5817 53.1222 43.3115 52.8521C43.2499 52.7908 43.1923 52.7255 43.1392 52.6567C42.8845 52.3206 42.7473 51.91 42.7485 51.4883V50.6299C42.7485 50.1178 42.952 49.6268 43.314 49.2647C43.6761 48.9026 44.1672 48.6992 44.6792 48.6992C45.1913 48.6992 45.6823 48.9026 46.0444 49.2647C46.4065 49.6268 46.6099 50.1178 46.6099 50.6299H46.6074Z" fill="#27273D"/>
<path d="M46.2144 52.6522C46.0474 52.8714 45.8354 53.0524 45.5928 53.183C45.3501 53.3135 45.0823 53.3906 44.8073 53.4091C44.5323 53.4276 44.2566 53.3871 43.9986 53.2902C43.7406 53.1934 43.5064 53.0424 43.3115 52.8475C43.2499 52.7862 43.1923 52.721 43.1392 52.6522C43.306 52.4328 43.5179 52.2516 43.7606 52.1209C44.0033 51.9902 44.2711 51.913 44.5462 51.8945C44.8212 51.876 45.097 51.9166 45.355 52.0136C45.613 52.1106 45.8473 52.2618 46.042 52.4569C46.1037 52.5181 46.1613 52.5833 46.2144 52.6522Z" fill="#DB1B1B"/>
<path d="M45.5151 48.8926V49.4297C45.5151 49.6521 45.4268 49.8653 45.2696 50.0225C45.1124 50.1798 44.8991 50.2681 44.6768 50.2681C44.4544 50.2681 44.2412 50.1798 44.0839 50.0225C43.9267 49.8653 43.8384 49.6521 43.8384 49.4297V48.8926C44.1 48.7669 44.3865 48.7017 44.6768 48.7017C44.967 48.7017 45.2535 48.7669 45.5151 48.8926Z" fill="white"/>
<path d="M45.2407 53.2168V53.332C44.873 53.4437 44.4805 53.4437 44.1128 53.332V53.2173C44.1128 53.0677 44.1722 52.9243 44.278 52.8185C44.3837 52.7127 44.5272 52.6533 44.6768 52.6533C44.8263 52.6533 44.9698 52.7127 45.0755 52.8185C45.1813 52.9243 45.2407 53.0677 45.2407 53.2173V53.2168Z" fill="white"/>
</g>
<g clip-path="url(#clip1_2273_2385)">
<path d="M44.5 25C51.4036 25 57 19.4036 57 12.5C57 5.59644 51.4036 0 44.5 0C37.5964 0 32 5.59644 32 12.5C32 19.4036 37.5964 25 44.5 25Z" fill="#94D073"/>
<path d="M50.2475 21.8662L49.9546 23.7491C49.4976 23.9716 49.0273 24.1657 48.5464 24.3301C46.9811 24.8635 45.3258 25.0819 43.6758 24.973C42.0258 24.8641 40.4136 24.4298 38.9321 23.6953L38.6489 21.8667C36.7749 21.2534 35.5156 20.4165 34.688 19.4825L34.601 19.3819C33.4731 18.045 33.2094 16.5186 33.3012 15.1641C33.3374 14.627 33.9965 14.4551 34.3169 14.8321C34.3447 14.8651 34.3691 14.901 34.3896 14.939C34.4879 15.1203 34.6067 15.2897 34.7436 15.4439C34.7602 15.4629 34.7768 15.481 34.7924 15.4991C34.8585 15.5699 34.9281 15.6373 35.0009 15.7012C35.0366 15.7325 35.0732 15.7627 35.1103 15.7925C35.1474 15.8223 35.184 15.8501 35.2212 15.8775L35.2778 15.9175C35.3344 15.9571 35.3916 15.9942 35.4492 16.0293L35.5063 16.0635C35.583 16.1084 35.6601 16.1499 35.7368 16.1875C35.7749 16.2064 35.813 16.2245 35.851 16.2417C35.8891 16.2593 35.9267 16.2754 35.9638 16.2906C36.039 16.3231 36.1124 16.3514 36.184 16.3755L36.2373 16.3941C36.3383 16.4287 36.4326 16.4575 36.5249 16.4815C36.6269 16.5088 36.7202 16.5303 36.8017 16.5459L36.8603 16.5576C37.0381 16.5908 37.1469 16.5992 37.1469 16.5992V8.33987C37.1457 7.33397 37.353 6.33874 37.7558 5.41702C37.7798 5.36233 37.8047 5.30862 37.8291 5.25491C37.8535 5.2012 37.8779 5.14847 37.9057 5.09573C37.9336 5.043 37.959 4.99026 37.9863 4.93802C38.0136 4.88577 38.0434 4.83401 38.0722 4.78518C38.101 4.73636 38.1303 4.68313 38.1601 4.63235C38.1899 4.58157 38.2207 4.53177 38.2514 4.48196C38.3139 4.38431 38.3784 4.28665 38.4467 4.18899C38.4804 4.14017 38.5141 4.09134 38.5488 4.04593C38.5835 4.00052 38.6181 3.95218 38.6538 3.9053C38.6894 3.85843 38.7256 3.81302 38.7622 3.76761C38.7988 3.7222 38.8359 3.67679 38.8735 3.63235C38.9111 3.58792 38.9497 3.54349 38.9882 3.50003C39.0175 3.46683 39.0473 3.43411 39.0776 3.40237C39.0957 3.38186 39.1152 3.36087 39.1347 3.34036C39.1655 3.30813 39.1963 3.27591 39.227 3.2427L39.2885 3.1802C39.309 3.15921 39.33 3.1387 39.351 3.11868C39.372 3.09866 39.3925 3.07815 39.414 3.05765C39.456 3.01712 39.499 2.97757 39.542 2.9385L39.6074 2.87991C39.6508 2.84134 39.6953 2.80276 39.7397 2.76517L39.8071 2.70901C39.8354 2.68558 39.8637 2.66018 39.8925 2.63968C39.9311 2.60843 39.9702 2.57767 40.0097 2.54788C40.0615 2.50784 40.1142 2.46829 40.167 2.4302C40.1992 2.40677 40.2319 2.38138 40.2646 2.36087C40.3274 2.3166 40.3912 2.2733 40.456 2.23099L40.5083 2.19681L40.5927 2.14358C40.6253 2.1221 40.6595 2.1011 40.6953 2.08059C40.7607 2.04153 40.8266 2.00296 40.8935 1.96585C40.916 1.95315 40.9384 1.94046 40.9614 1.92825C41.0171 1.89798 41.0732 1.86819 41.1298 1.83938L41.206 1.80081L41.2905 1.75931L41.3882 1.71341C41.414 1.7012 41.4399 1.68948 41.4663 1.67825C41.4926 1.66702 41.5068 1.6597 41.5268 1.65091C41.6396 1.60208 41.7534 1.55325 41.8686 1.51126C41.9091 1.49612 41.9497 1.48099 41.9902 1.46683C42.0576 1.44241 42.125 1.418 42.1933 1.39749L42.247 1.3804C42.2861 1.3677 42.3252 1.35599 42.3647 1.34427C42.4043 1.33255 42.4487 1.31985 42.4912 1.30813C42.5337 1.29642 42.5761 1.2847 42.6186 1.27395L42.7129 1.25003L42.7578 1.23929L42.8764 1.21243C43.9431 0.97752 45.0488 0.984831 46.1122 1.23382C47.1756 1.48282 48.1697 1.96715 49.0211 2.65117C49.8726 3.33519 50.5598 4.20147 51.0321 5.18623C51.5045 6.17099 51.7499 7.24915 51.7505 8.34134V16.5982C51.7505 16.5982 53.6894 16.4483 54.5088 14.938C54.7861 14.4273 55.5586 14.583 55.5976 15.1631C55.7553 17.5059 54.8486 20.3614 50.2475 21.8662Z" fill="#A65C3B"/>
<path d="M48.5473 24.3301C46.9821 24.8634 45.3268 25.0819 43.6768 24.973C42.0268 24.864 40.4146 24.4298 38.9331 23.6953L38.6494 21.8667C36.7749 21.2534 35.5156 20.4165 34.688 19.4824L34.601 19.3818C33.4731 18.0449 33.2094 16.5186 33.3012 15.1641C33.3374 14.627 33.9965 14.4551 34.3169 14.832C34.3449 14.8651 34.3694 14.9009 34.3901 14.939C34.4885 15.1201 34.6071 15.2895 34.7436 15.4438C34.7602 15.4629 34.7768 15.481 34.7924 15.499C34.8598 15.5708 34.9297 15.6377 35.0009 15.7012C35.0366 15.7324 35.0732 15.7627 35.1103 15.7925C35.1474 15.8223 35.184 15.8496 35.2212 15.8774L35.2778 15.9175C35.3344 15.957 35.3916 15.9941 35.4492 16.0293L35.5063 16.0635C35.5835 16.1084 35.6601 16.1494 35.7368 16.1875L35.851 16.2417C35.8891 16.2588 35.9267 16.2754 35.9638 16.2905C36.039 16.3231 36.1124 16.3514 36.184 16.3755L36.2373 16.394C36.3383 16.4282 36.4326 16.457 36.5249 16.4814C36.6269 16.5088 36.7202 16.5303 36.8017 16.5459L36.8603 16.5576C37.0381 16.5908 37.1469 16.5991 37.1469 16.5991V8.33984C37.1456 7.33388 37.3531 6.33859 37.7563 5.41699C37.7802 5.3623 37.8051 5.30859 37.8296 5.25488C37.854 5.20117 37.8784 5.14844 37.9062 5.0957C37.934 5.04297 37.959 4.99023 37.9868 4.93799C38.0146 4.88574 38.0434 4.83398 38.0722 4.78516C38.101 4.73633 38.1303 4.68311 38.1601 4.63232C38.1899 4.58154 38.2207 4.53174 38.2514 4.48193C38.313 4.38232 38.3781 4.28467 38.4467 4.18896C38.4804 4.14014 38.5141 4.09131 38.5488 4.0459C38.5835 4.00049 38.6181 3.95215 38.6538 3.90527C38.6894 3.8584 38.7246 3.81299 38.7622 3.76758C38.7998 3.72217 38.8359 3.67676 38.8735 3.63232C38.9111 3.58789 38.9497 3.54346 38.9882 3.5C39.0175 3.4668 39.0473 3.43408 39.0776 3.40234C39.0957 3.38184 39.1152 3.36084 39.1347 3.34033C39.1655 3.30811 39.1963 3.27588 39.227 3.24268C39.2465 3.22168 39.2675 3.20068 39.2881 3.18018C39.3086 3.15918 39.3296 3.13867 39.3506 3.11865C39.3715 3.09863 39.3921 3.07812 39.4135 3.05762C39.4555 3.01709 39.4985 2.97754 39.5415 2.93848L39.6069 2.87988C39.6504 2.84131 39.6948 2.80273 39.7392 2.76514L39.8066 2.70898C39.8349 2.68555 39.8632 2.66016 39.8921 2.63965C39.9306 2.6084 39.9697 2.57764 40.0092 2.54785C40.061 2.50781 40.1137 2.46826 40.1665 2.43018C40.1987 2.40674 40.2314 2.38135 40.2641 2.36084C40.327 2.31657 40.3908 2.27327 40.4555 2.23096L40.5078 2.19678L40.5923 2.14355C40.6248 2.12207 40.659 2.10107 40.6948 2.08057C40.7602 2.0415 40.8261 2.00293 40.893 1.96582C40.9155 1.95312 40.938 1.94043 40.9609 1.92822C41.0166 1.89795 41.0727 1.86816 41.1294 1.83936L41.2055 1.80078L41.29 1.75928L41.3877 1.71338C41.4135 1.70117 41.4394 1.68945 41.4658 1.67822C41.4922 1.66699 41.5063 1.65967 41.5263 1.65088C41.6391 1.60205 41.7529 1.55322 41.8681 1.51123C41.9087 1.49609 41.9492 1.48096 41.9897 1.4668C42.0571 1.44238 42.1245 1.41797 42.1928 1.39746L42.2465 1.38037C42.2856 1.36768 42.3247 1.35596 42.3642 1.34424C42.4038 1.33252 42.4482 1.31982 42.4907 1.30811C42.5332 1.29639 42.5757 1.28467 42.6181 1.27393L42.7124 1.25L42.7573 1.23926L42.8759 1.2124C42.0207 2.65271 41.3879 4.21394 40.999 5.84326C40.8688 6.38428 40.7625 6.93766 40.6801 7.50342C40.5978 8.06917 40.5428 8.64372 40.5151 9.22705C40.5005 9.52685 40.4931 9.8291 40.4931 10.1338C40.4931 10.387 40.4983 10.6388 40.5088 10.8892C40.5293 11.408 40.5711 11.9196 40.6342 12.4238C40.6619 12.6491 40.6945 12.8724 40.7319 13.0937C41.1782 15.8379 42.2329 18.3184 43.7182 20.3135C45.0302 22.0776 46.6821 23.4673 48.5473 24.3301Z" fill="#9E4830"/>
<path d="M40.8633 10.9414C41.8023 10.9414 42.5635 9.79785 42.5635 8.38721C42.5635 6.97656 41.8023 5.83301 40.8633 5.83301C39.9243 5.83301 39.1631 6.97656 39.1631 8.38721C39.1631 9.79785 39.9243 10.9414 40.8633 10.9414Z" fill="white"/>
<path d="M40.8633 9.29346C41.3638 9.29346 41.7695 8.88771 41.7695 8.38721C41.7695 7.8867 41.3638 7.48096 40.8633 7.48096C40.3628 7.48096 39.957 7.8867 39.957 8.38721C39.957 8.88771 40.3628 9.29346 40.8633 9.29346Z" fill="#27273D"/>
<path d="M44.4487 10.9414C45.3877 10.9414 46.1489 9.79785 46.1489 8.38721C46.1489 6.97656 45.3877 5.83301 44.4487 5.83301C43.5097 5.83301 42.7485 6.97656 42.7485 8.38721C42.7485 9.79785 43.5097 10.9414 44.4487 10.9414Z" fill="white"/>
<path d="M44.4487 9.29346C44.9492 9.29346 45.355 8.88771 45.355 8.38721C45.355 7.8867 44.9492 7.48096 44.4487 7.48096C43.9482 7.48096 43.5425 7.8867 43.5425 8.38721C43.5425 8.88771 43.9482 9.29346 44.4487 9.29346Z" fill="#27273D"/>
<path d="M48.0342 10.9414C48.9732 10.9414 49.7344 9.79785 49.7344 8.38721C49.7344 6.97656 48.9732 5.83301 48.0342 5.83301C47.0952 5.83301 46.334 6.97656 46.334 8.38721C46.334 9.79785 47.0952 10.9414 48.0342 10.9414Z" fill="white"/>
<path d="M48.0342 9.29346C48.5347 9.29346 48.9404 8.88771 48.9404 8.38721C48.9404 7.8867 48.5347 7.48096 48.0342 7.48096C47.5337 7.48096 47.1279 7.8867 47.1279 8.38721C47.1279 8.88771 47.5337 9.29346 48.0342 9.29346Z" fill="#27273D"/>
<path d="M50.1641 15.833C50.1641 17.3872 49.562 18.6978 48.7378 19.1118C48.6353 19.1895 48.5264 19.2642 48.4121 19.335C47.8813 19.6582 47.3053 19.9006 46.7031 20.0542C45.968 20.2463 45.211 20.342 44.4512 20.3389C43.8161 20.3412 43.1827 20.2758 42.5615 20.1436C41.9221 20.0114 41.3052 19.7874 40.73 19.4785C40.5326 19.3706 40.3431 19.2487 40.1631 19.1138C39.3389 18.6997 38.7368 17.3892 38.7368 15.835C38.7368 14.9605 38.9272 14.1626 39.2407 13.5581C39.604 12.8594 40.1309 12.4194 40.7183 12.4194C40.798 12.4192 40.8775 12.4274 40.9556 12.4439C41.5957 12.5757 42.1416 13.2344 42.4448 14.1597C42.4561 14.1938 42.4794 14.2225 42.5105 14.2405C42.5415 14.2585 42.5781 14.2645 42.6133 14.2573C42.6386 14.2522 42.6621 14.2404 42.6813 14.2233C42.7006 14.2061 42.7151 14.1842 42.7231 14.1597C42.877 13.6909 43.0928 13.2905 43.3525 12.9927C43.6665 12.6318 44.0435 12.4214 44.4492 12.4214C44.6765 12.4232 44.899 12.487 45.0928 12.606C45.5542 12.8789 45.939 13.436 46.1753 14.1597C46.1834 14.1842 46.1978 14.2061 46.2171 14.2233C46.2364 14.2404 46.2599 14.2522 46.2852 14.2573C46.3203 14.2645 46.3569 14.2585 46.388 14.2405C46.419 14.2225 46.4424 14.1938 46.4536 14.1597C46.7568 13.2344 47.3027 12.5757 47.9424 12.4439C48.0206 12.4274 48.1003 12.4192 48.1802 12.4194C48.7661 12.4194 49.2944 12.8589 49.6572 13.5581C49.9727 14.1602 50.1641 14.9585 50.1641 15.833Z" fill="#27273D"/>
<path d="M42.5591 20.1416C41.9197 20.0095 41.3028 19.7855 40.7275 19.4766L41.769 17.8447L42.5591 20.1416Z" fill="white"/>
<path d="M48.4111 19.3359C47.8803 19.6592 47.3043 19.9016 46.7021 20.0552L47.4619 17.8457L48.4111 19.3359Z" fill="white"/>
<path d="M49.6587 13.5562L48.793 14.9111L47.9438 12.4419C48.022 12.4254 48.1017 12.4173 48.1816 12.4175C48.769 12.4175 49.2959 12.8574 49.6587 13.5562Z" fill="white"/>
<path d="M45.0923 12.6021L44.7754 14.5552L43.3521 12.9927C43.666 12.6318 44.043 12.4214 44.4487 12.4214C44.6757 12.422 44.8982 12.4845 45.0923 12.6021Z" fill="white"/>
<path d="M40.9531 12.4419L40.1055 14.9111L39.2397 13.5562C39.603 12.8574 40.1299 12.4175 40.7173 12.4175C40.7965 12.4174 40.8756 12.4255 40.9531 12.4419Z" fill="white"/>
<path d="M44.7529 18.561C45.9646 18.561 46.9468 17.8656 46.9468 17.0078C46.9468 16.15 45.9646 15.4546 44.7529 15.4546C43.5413 15.4546 42.5591 16.15 42.5591 17.0078C42.5591 17.8656 43.5413 18.561 44.7529 18.561Z" fill="#DB1B1B"/>
<path d="M48.1382 4.20801C48.6036 4.20801 48.981 3.83069 48.981 3.36523C48.981 2.89978 48.6036 2.52246 48.1382 2.52246C47.6727 2.52246 47.2954 2.89978 47.2954 3.36523C47.2954 3.83069 47.6727 4.20801 48.1382 4.20801Z" fill="#BC6F50"/>
<path d="M46.6997 2.95508C47.0295 2.95508 47.2969 2.68772 47.2969 2.35791C47.2969 2.0281 47.0295 1.76074 46.6997 1.76074C46.3699 1.76074 46.1025 2.0281 46.1025 2.35791C46.1025 2.68772 46.3699 2.95508 46.6997 2.95508Z" fill="#BC6F50"/>
</g>
<g clip-path="url(#clip2_2273_2385)">
<path d="M75.5 42C82.4036 42 88 36.4036 88 29.5C88 22.5964 82.4036 17 75.5 17C68.5964 17 63 22.5964 63 29.5C63 36.4036 68.5964 42 75.5 42Z" fill="#94D073"/>
<path d="M84.5518 24.686C84.5513 25.3557 84.3235 26.0053 83.9057 26.5287C83.4879 27.052 82.9049 27.4181 82.252 27.5669V40.0181C80.062 41.4258 77.4869 42.1138 74.8866 41.9859C72.2864 41.858 69.7912 40.9206 67.75 39.3047V27.4233C67.7494 26.6594 67.8697 25.9002 68.1065 25.1738C68.0387 25.1266 67.9723 25.0778 67.9072 25.0273C67.8262 24.9622 67.7476 24.8952 67.6714 24.8262C67.626 24.7847 67.5811 24.7417 67.5376 24.6978C67.5083 24.6685 67.4795 24.6387 67.4512 24.6089C67.4229 24.5791 67.3843 24.5366 67.3535 24.4995C67.3311 24.4746 67.3096 24.4507 67.2881 24.4233C67.2666 24.396 67.2354 24.3599 67.21 24.3257C67.1846 24.2915 67.1611 24.2603 67.1348 24.228C67.0807 24.1551 67.029 24.0804 66.9795 24.0039C66.9614 23.9761 66.9434 23.9478 66.9263 23.9189C66.9092 23.8901 66.8897 23.8589 66.8726 23.8286C66.8651 23.8169 66.8582 23.8047 66.8521 23.792C66.8345 23.7627 66.8184 23.7324 66.8032 23.7026C66.4796 23.0955 66.3109 22.4179 66.312 21.73C66.312 21.6968 66.312 21.6636 66.312 21.6323C66.312 21.624 66.312 21.6152 66.312 21.6064C66.312 21.5977 66.312 21.5933 66.312 21.5864C66.312 21.5586 66.312 21.5312 66.3154 21.5034C66.3208 21.4009 66.3301 21.2988 66.3428 21.1982C66.3535 21.1162 66.3662 21.0347 66.3814 20.9541C66.5394 20.1193 66.9467 19.3519 67.5495 18.7531C68.1523 18.1543 68.9224 17.7521 69.7583 17.5996L69.856 17.583L69.9536 17.5688H69.9585L70.0386 17.5591L70.064 17.5562L70.1172 17.5508L70.1792 17.5454L70.2656 17.54C70.2891 17.54 70.3145 17.5371 70.3359 17.5366C70.3574 17.5361 70.3794 17.5366 70.4014 17.5342H70.5083C70.5361 17.5342 70.564 17.5342 70.5923 17.5342C70.6206 17.5342 70.6475 17.5342 70.6753 17.5366H70.7305C70.771 17.5366 70.811 17.541 70.8511 17.5444L70.9106 17.5498H70.9307C70.9526 17.5498 70.9746 17.5542 70.9961 17.5571C70.9993 17.5567 71.0026 17.5567 71.0059 17.5571C71.0317 17.5601 71.0571 17.563 71.0825 17.5669C71.1079 17.5708 71.1362 17.5742 71.1626 17.5786C71.2664 17.5946 71.369 17.6144 71.4702 17.6382L71.5132 17.6489C71.5273 17.6519 71.541 17.6553 71.5552 17.6592L71.6318 17.6797C71.6829 17.694 71.7337 17.7091 71.7842 17.7251L71.8511 17.7466L71.8638 17.751C71.9126 17.7676 71.9614 17.7852 72.0073 17.8032L72.082 17.8301C72.1309 17.8496 72.1797 17.8701 72.2285 17.8916C72.252 17.9019 72.2773 17.9131 72.2993 17.9243C72.4428 17.9922 72.5822 18.0683 72.7168 18.1523C72.7354 18.1636 72.7534 18.1753 72.7715 18.187C72.8232 18.2197 72.8735 18.2534 72.9233 18.2886L72.9683 18.3208C73.0098 18.3506 73.0503 18.3809 73.0903 18.4121C73.6866 18.876 74.147 19.4917 74.4233 20.1948C74.6138 20.1808 74.8063 20.1738 75.001 20.1738C76.8702 20.1708 78.668 20.8922 80.0166 22.1865C80.4637 21.9038 80.9786 21.7462 81.5073 21.7303C82.0361 21.7144 82.5595 21.8408 83.0228 22.0961C83.4861 22.3515 83.8724 22.7265 84.1413 23.1821C84.4103 23.6376 84.552 24.157 84.5518 24.686Z" fill="#F7BB38"/>
<path d="M69.001 22.3916C68.9971 22.4648 68.9951 22.5381 68.9951 22.6123C68.9949 23.6282 69.3631 24.6098 70.0313 25.375C70.2392 25.6167 70.3913 25.9012 70.4768 26.2083C70.5622 26.5154 70.579 26.8375 70.5259 27.1519C70.4648 27.5334 70.4341 27.9192 70.4341 28.3057V40.9312C69.4742 40.5052 68.5719 39.9599 67.7485 39.3081V27.4233C67.7479 26.6594 67.8682 25.9002 68.105 25.1738C68.0371 25.125 67.9707 25.0762 67.9058 25.0273C67.8247 24.9634 67.7461 24.896 67.6699 24.8262C67.6245 24.7847 67.5796 24.7417 67.5361 24.6978C67.5068 24.6685 67.478 24.6387 67.4497 24.6089C67.4214 24.5791 67.3828 24.5366 67.3521 24.4995C67.3296 24.4746 67.3081 24.4507 67.2866 24.4233C67.2651 24.396 67.2339 24.3599 67.2085 24.3257C67.1831 24.2915 67.1597 24.2603 67.1333 24.228C67.0793 24.1551 67.0275 24.0804 66.978 24.0039C66.96 23.9761 66.9419 23.9478 66.9248 23.9189C66.9077 23.8901 66.8882 23.8589 66.8711 23.8286C66.8636 23.8169 66.8568 23.8047 66.8506 23.792C66.833 23.7627 66.8169 23.7324 66.8018 23.7026C66.4782 23.0955 66.3094 22.4179 66.3106 21.73C66.3106 21.6968 66.3106 21.6636 66.3106 21.6323C66.3106 21.624 66.3106 21.6152 66.3106 21.6064C66.3106 21.5977 66.3106 21.5933 66.3106 21.5864C66.3106 21.5586 66.3106 21.5313 66.314 21.5034C66.3192 21.4009 66.3283 21.2992 66.3413 21.1982C66.3525 21.1157 66.3652 21.0342 66.3809 20.9541C66.5416 20.1207 66.9497 19.355 67.5519 18.7569C68.154 18.1587 68.9224 17.7558 69.7568 17.6006L69.8545 17.584L69.9522 17.5698H69.957L70.0371 17.5601L70.0625 17.5571L70.1157 17.5518L70.1777 17.5464L70.2642 17.541C70.2876 17.541 70.313 17.5381 70.3345 17.5376C70.3442 17.5376 70.3545 17.5376 70.3643 17.5376H70.3999H70.5068C70.5347 17.5376 70.5625 17.5376 70.5908 17.5376C70.6191 17.5376 70.646 17.5376 70.6738 17.54H70.729C70.7695 17.54 70.8096 17.5444 70.8496 17.5479L70.9092 17.5532H70.9292C70.9512 17.5532 70.9731 17.5576 70.9946 17.5605C70.9979 17.5601 71.0012 17.5601 71.0044 17.5605C71.0303 17.5635 71.0557 17.5664 71.0811 17.5703C71.1065 17.5742 71.1348 17.5776 71.1611 17.582C71.265 17.5977 71.3675 17.6175 71.4688 17.6416L71.5117 17.6523C71.5259 17.6553 71.5396 17.6587 71.5537 17.6626L71.6304 17.6831C71.6815 17.6974 71.7323 17.7126 71.7827 17.7285L71.8496 17.75L71.8623 17.7544C71.9111 17.771 71.96 17.7886 72.0059 17.8066L72.082 17.8301C72.1309 17.8496 72.1797 17.8701 72.2285 17.8916C72.252 17.9019 72.2773 17.9131 72.2993 17.9243C72.4428 17.9922 72.5822 18.0683 72.7168 18.1523C72.7354 18.1636 72.7534 18.1753 72.7715 18.187C72.8232 18.2197 72.8735 18.2534 72.9233 18.2886L72.9683 18.3208C73.0098 18.3506 73.0503 18.3809 73.0903 18.4121C72.0329 18.4386 71.0245 18.8631 70.2665 19.6009C69.5086 20.3387 69.057 21.3353 69.002 22.3916H69.001Z" fill="#DDA12A"/>
<path d="M81.5479 26.877C82.7069 26.877 83.6465 25.9374 83.6465 24.7783C83.6465 23.6193 82.7069 22.6797 81.5479 22.6797C80.3888 22.6797 79.4492 23.6193 79.4492 24.7783C79.4492 25.9374 80.3888 26.877 81.5479 26.877Z" fill="white"/>
<path d="M81.5479 26.1328C82.232 26.1328 82.7866 25.5782 82.7866 24.894C82.7866 24.2099 82.232 23.6553 81.5479 23.6553C80.8637 23.6553 80.3091 24.2099 80.3091 24.894C80.3091 25.5782 80.8637 26.1328 81.5479 26.1328Z" fill="#DB1B1B"/>
<path d="M81.5366 25.8218C82.049 25.8218 82.4644 25.4064 82.4644 24.894C82.4644 24.3817 82.049 23.9663 81.5366 23.9663C81.0242 23.9663 80.6089 24.3817 80.6089 24.894C80.6089 25.4064 81.0242 25.8218 81.5366 25.8218Z" fill="#27273D"/>
<path d="M82.0894 24.5454C82.2493 24.5454 82.3789 24.4158 82.3789 24.2559C82.3789 24.0959 82.2493 23.9663 82.0894 23.9663C81.9294 23.9663 81.7998 24.0959 81.7998 24.2559C81.7998 24.4158 81.9294 24.5454 82.0894 24.5454Z" fill="white"/>
<path d="M81.5366 25.2432C81.7294 25.2432 81.8857 25.0869 81.8857 24.894C81.8857 24.7012 81.7294 24.5449 81.5366 24.5449C81.3438 24.5449 81.1875 24.7012 81.1875 24.894C81.1875 25.0869 81.3438 25.2432 81.5366 25.2432Z" fill="white"/>
<path d="M70.3579 24.9277C72.1922 24.9277 73.6792 23.4407 73.6792 21.6064C73.6792 19.7721 72.1922 18.2852 70.3579 18.2852C68.5236 18.2852 67.0366 19.7721 67.0366 21.6064C67.0366 23.4407 68.5236 24.9277 70.3579 24.9277Z" fill="white"/>
<path d="M70.3579 23.75C71.4404 23.75 72.3179 22.8725 72.3179 21.79C72.3179 20.7076 71.4404 19.8301 70.3579 19.8301C69.2755 19.8301 68.3979 20.7076 68.3979 21.79C68.3979 22.8725 69.2755 23.75 70.3579 23.75Z" fill="#DB1B1B"/>
<path d="M70.3398 23.2588C71.151 23.2588 71.8086 22.6012 71.8086 21.79C71.8086 20.9789 71.151 20.3213 70.3398 20.3213C69.5287 20.3213 68.8711 20.9789 68.8711 21.79C68.8711 22.6012 69.5287 23.2588 70.3398 23.2588Z" fill="#27273D"/>
<path d="M71.2144 21.2373C71.4673 21.2373 71.6724 21.0322 71.6724 20.7793C71.6724 20.5263 71.4673 20.3213 71.2144 20.3213C70.9614 20.3213 70.7563 20.5263 70.7563 20.7793C70.7563 21.0322 70.9614 21.2373 71.2144 21.2373Z" fill="white"/>
<path d="M70.3398 22.3428C70.6451 22.3428 70.8926 22.0953 70.8926 21.79C70.8926 21.4848 70.6451 21.2373 70.3398 21.2373C70.0346 21.2373 69.7871 21.4848 69.7871 21.79C69.7871 22.0953 70.0346 22.3428 70.3398 22.3428Z" fill="white"/>
<path d="M69.7764 31.2969L69.1396 28.2285L71.6807 31.0117L69.7764 31.2969Z" fill="white"/>
<path d="M72.5107 31.2969L73.1211 29.1235L74.2441 31.2969H72.5107Z" fill="white"/>
<path d="M74.8301 31.2969L75.6846 27.1216L76.5879 31.2969H74.8301Z" fill="white"/>
<path d="M78.0527 31.2969L79.4492 27.9517L80.1748 31.0117L78.0527 31.2969Z" fill="white"/>
<path d="M80.1753 31.0117H69.8271C69.4475 31.0117 69.1396 31.3195 69.1396 31.6992V31.6997C69.1396 32.0794 69.4475 32.3872 69.8271 32.3872H80.1753C80.555 32.3872 80.8628 32.0794 80.8628 31.6997V31.6992C80.8628 31.3195 80.555 31.0117 80.1753 31.0117Z" fill="#E88032"/>
<path d="M75.6035 23.1157C76.0304 23.1157 76.3765 22.7697 76.3765 22.3428C76.3765 21.9159 76.0304 21.5698 75.6035 21.5698C75.1766 21.5698 74.8306 21.9159 74.8306 22.3428C74.8306 22.7697 75.1766 23.1157 75.6035 23.1157Z" fill="#E88032"/>
<path d="M77.0728 24.4502C77.34 24.4502 77.5566 24.2336 77.5566 23.9663C77.5566 23.6991 77.34 23.4824 77.0728 23.4824C76.8055 23.4824 76.5889 23.6991 76.5889 23.9663C76.5889 24.2336 76.8055 24.4502 77.0728 24.4502Z" fill="#E88032"/>
<path d="M74.8301 25.311C75.2532 25.311 75.5962 24.968 75.5962 24.5449C75.5962 24.1218 75.2532 23.7788 74.8301 23.7788C74.407 23.7788 74.064 24.1218 74.064 24.5449C74.064 24.968 74.407 25.311 74.8301 25.311Z" fill="#E88032"/>
<path d="M78.5088 23.4453C78.9319 23.4453 79.2749 23.1023 79.2749 22.6792C79.2749 22.2561 78.9319 21.9131 78.5088 21.9131C78.0857 21.9131 77.7427 22.2561 77.7427 22.6792C77.7427 23.1023 78.0857 23.4453 78.5088 23.4453Z" fill="#E88032"/>
<path d="M77.0728 26.5664C77.3122 26.5664 77.5063 26.3723 77.5063 26.1328C77.5063 25.8933 77.3122 25.6992 77.0728 25.6992C76.8333 25.6992 76.6392 25.8933 76.6392 26.1328C76.6392 26.3723 76.8333 26.5664 77.0728 26.5664Z" fill="#E88032"/>
<path d="M75.2637 27C75.5031 27 75.6973 26.8059 75.6973 26.5664C75.6973 26.3269 75.5031 26.1328 75.2637 26.1328C75.0242 26.1328 74.8301 26.3269 74.8301 26.5664C74.8301 26.8059 75.0242 27 75.2637 27Z" fill="#E88032"/>
<path d="M80.8628 36.0278C81.3018 36.0278 81.6577 35.6719 81.6577 35.2329C81.6577 34.7939 81.3018 34.438 80.8628 34.438C80.4238 34.438 80.0679 34.7939 80.0679 35.2329C80.0679 35.6719 80.4238 36.0278 80.8628 36.0278Z" fill="#F6D372"/>
<path d="M80.8628 34.1396C81.1737 34.1396 81.4258 33.8876 81.4258 33.5767C81.4258 33.2657 81.1737 33.0137 80.8628 33.0137C80.5519 33.0137 80.2998 33.2657 80.2998 33.5767C80.2998 33.8876 80.5519 34.1396 80.8628 34.1396Z" fill="#F6D372"/>
</g>
<defs>
<clipPath id="clip0_2273_2385">
<rect width="25" height="25" fill="white" transform="translate(32 34)"/>
</clipPath>
<clipPath id="clip1_2273_2385">
<rect width="25" height="25" fill="white" transform="translate(32)"/>
</clipPath>
<clipPath id="clip2_2273_2385">
<rect width="25" height="25" fill="white" transform="translate(63 17)"/>
</clipPath>
</defs>
</svg>
