<svg width="40" height="40" viewBox="0 0 40 40" fill="none" xmlns="http://www.w3.org/2000/svg">
<g id="Help">
<path id="Rectangle 8" opacity="0.2" d="M40 20C40 8.9543 31.0457 0 20 0C8.9543 0 0 8.9543 0 20C0 31.0457 8.9543 40 20 40C31.0457 40 40 31.0457 40 20Z" fill="#94D073"/>
<g id="icon_help">
<g id="menu-arrow-circle">
<path id="Path 29" d="M19.999 11.8081C18.379 11.8081 16.7953 12.2885 15.4483 13.1885C14.1013 14.0886 13.0515 15.3678 12.4315 16.8645C11.8115 18.3613 11.6493 20.0082 11.9654 21.5971C12.2814 23.186 13.0616 24.6455 14.2071 25.791C15.3526 26.9365 16.8121 27.7167 18.401 28.0327C19.9899 28.3488 21.6368 28.1866 23.1336 27.5666C24.6303 26.9466 25.9095 25.8968 26.8096 24.5498C27.7096 23.2028 28.19 21.6191 28.19 19.9991C28.19 17.8267 27.327 15.7433 25.7909 14.2072C24.2548 12.6711 22.1714 11.8081 19.999 11.8081ZM19.999 26.5521C18.7029 26.5521 17.436 26.1678 16.3583 25.4477C15.2807 24.7277 14.4408 23.7042 13.9448 22.5068C13.4488 21.3094 13.3191 19.9918 13.5719 18.7207C13.8248 17.4495 14.4489 16.2819 15.3653 15.3654C16.2818 14.449 17.4494 13.8249 18.7206 13.572C19.9917 13.3192 21.3093 13.4489 22.5067 13.9449C23.7041 14.4409 24.7276 15.2808 25.4476 16.3585C26.1677 17.4361 26.552 18.703 26.552 19.9991C26.552 21.7371 25.8616 23.4039 24.6327 24.6328C23.4037 25.8617 21.737 26.5521 19.999 26.5521Z" fill="#94D073"/>
<path id="Path 30" d="M19.999 15.085C19.2386 15.085 18.5094 15.387 17.9717 15.9247C17.4341 16.4624 17.132 17.1916 17.132 17.952C17.132 18.1692 17.2183 18.3775 17.3719 18.5311C17.5255 18.6847 17.7338 18.771 17.951 18.771C18.1682 18.771 18.3765 18.6847 18.5301 18.5311C18.6837 18.3775 18.77 18.1692 18.77 17.952C18.7708 17.7091 18.8435 17.4718 18.9791 17.2703C19.1146 17.0687 19.3068 16.9118 19.5314 16.8194C19.7561 16.727 20.0031 16.7032 20.2412 16.7511C20.4793 16.7989 20.698 16.9163 20.8694 17.0883C21.0409 17.2604 21.1576 17.4794 21.2047 17.7177C21.2518 17.956 21.2272 18.2029 21.1341 18.4272C21.0409 18.6515 20.8834 18.8432 20.6814 18.9781C20.4794 19.113 20.2419 19.185 19.999 19.185C19.7818 19.185 19.5735 19.2713 19.4199 19.4248C19.2663 19.5784 19.18 19.7868 19.18 20.004V21.642C19.18 21.8592 19.2663 22.0675 19.4199 22.2211C19.5735 22.3747 19.7818 22.461 19.999 22.461C20.2162 22.461 20.4245 22.3747 20.5781 22.2211C20.7317 22.0675 20.818 21.8592 20.818 21.642V20.685C21.4772 20.4895 22.0439 20.0629 22.4142 19.4835C22.7845 18.9041 22.9335 18.2106 22.834 17.5302C22.7345 16.8498 22.3931 16.2281 21.8724 15.779C21.3517 15.3299 20.6866 15.0835 19.999 15.085Z" fill="#94D073"/>
<path id="Ellipse 3" d="M19.999 24.999C20.5513 24.999 20.999 24.5513 20.999 23.999C20.999 23.4467 20.5513 22.999 19.999 22.999C19.4467 22.999 18.999 23.4467 18.999 23.999C18.999 24.5513 19.4467 24.999 19.999 24.999Z" fill="#94D073"/>
</g>
</g>
</g>
</svg>
