<svg width="16" height="15" viewBox="0 0 16 15" fill="none" xmlns="http://www.w3.org/2000/svg">
<path d="M8.16669 0C6.68333 0 5.23328 0.439867 3.99991 1.26398C2.76654 2.08809 1.80525 3.25943 1.23759 4.62987C0.669937 6.00032 0.521412 7.50832 0.810801 8.96318C1.10019 10.418 1.8145 11.7544 2.86339 12.8033C3.91228 13.8522 5.24865 14.5665 6.70351 14.8559C8.15837 15.1453 9.66637 14.9967 11.0368 14.4291C12.4073 13.8614 13.5786 12.9001 14.4027 11.6668C15.2268 10.4334 15.6667 8.98336 15.6667 7.5C15.6646 5.51152 14.8737 3.60509 13.4677 2.19902C12.0616 0.79295 10.1552 0.00209987 8.16669 0ZM8.16669 13.8462C6.91154 13.8462 5.68457 13.474 4.64096 12.7766C3.59734 12.0793 2.78393 11.0882 2.30361 9.92857C1.82328 8.76896 1.69761 7.49296 1.94248 6.26193C2.18734 5.03089 2.79176 3.90012 3.67928 3.01259C4.56681 2.12507 5.69758 1.52065 6.92862 1.27579C8.15965 1.03092 9.43565 1.15659 10.5953 1.63692C11.7549 2.11724 12.746 2.93065 13.4433 3.97426C14.1406 5.01788 14.5128 6.24485 14.5128 7.5C14.5109 9.18252 13.8417 10.7956 12.652 11.9853C11.4623 13.175 9.84921 13.8442 8.16669 13.8462ZM9.32053 10.9615C9.32053 11.1145 9.25975 11.2613 9.15156 11.3695C9.04336 11.4777 8.89662 11.5385 8.74361 11.5385C8.43759 11.5385 8.14411 11.4169 7.92772 11.2005C7.71133 10.9841 7.58977 10.6906 7.58977 10.3846V7.5C7.43676 7.5 7.29001 7.43922 7.18182 7.33102C7.07363 7.22283 7.01284 7.07609 7.01284 6.92308C7.01284 6.77007 7.07363 6.62332 7.18182 6.51513C7.29001 6.40694 7.43676 6.34615 7.58977 6.34615C7.89578 6.34615 8.18927 6.46772 8.40566 6.68411C8.62205 6.90049 8.74361 7.19398 8.74361 7.5V10.3846C8.89662 10.3846 9.04336 10.4454 9.15156 10.5536C9.25975 10.6618 9.32053 10.8085 9.32053 10.9615ZM7.01284 4.32692C7.01284 4.15577 7.0636 3.98845 7.15869 3.84614C7.25378 3.70383 7.38893 3.59291 7.54706 3.52741C7.70519 3.46191 7.87919 3.44477 8.04706 3.47817C8.21492 3.51156 8.36912 3.59398 8.49015 3.715C8.61117 3.83603 8.69359 3.99023 8.72698 4.15809C8.76038 4.32596 8.74324 4.49996 8.67774 4.65809C8.61224 4.81622 8.50132 4.95137 8.35901 5.04646C8.2167 5.14155 8.04938 5.19231 7.87823 5.19231C7.64871 5.19231 7.4286 5.10113 7.26631 4.93884C7.10402 4.77655 7.01284 4.55644 7.01284 4.32692Z" fill="#777777"/>
</svg>
