<svg width="80" height="80" viewBox="0 0 80 80" fill="none" xmlns="http://www.w3.org/2000/svg">
<circle cx="40" cy="40" r="40" fill="#EAF0CF"/>
<path d="M65 41C65 42.4845 64.1309 43.8233 62.8926 45.044C62.1516 45.7724 61.2876 46.4707 60.5265 47.179C59.9186 47.7442 59.371 48.2993 59.1148 48.9172C58.8461 49.5628 58.8285 50.364 58.8511 51.2105C58.8787 52.2554 58.9918 53.3581 58.9993 54.3879C59.0144 56.1236 58.6904 57.6633 57.6781 58.6781C56.6633 59.6904 55.1236 60.0144 53.3879 59.9993C52.3581 59.9893 51.2554 59.8787 50.213 59.8511C49.3665 59.8285 48.5628 59.8461 47.9172 60.1148C47.2993 60.371 46.7442 60.9186 46.179 61.5265C45.4707 62.2876 44.7724 63.1516 44.044 63.8901C42.8233 65.1309 41.4845 66 40 66C38.5155 66 37.1767 65.1309 35.956 63.8901C35.2276 63.1516 34.5293 62.2876 33.821 61.5265C33.2558 60.9186 32.6982 60.371 32.0828 60.1148C31.4373 59.8461 30.6335 59.8285 29.7895 59.8511C28.7446 59.8787 27.6419 59.9893 26.6121 59.9993C24.8764 60.0144 23.3342 59.6904 22.3219 58.6781C21.3071 57.6633 20.9856 56.1236 21.0007 54.3879C21.0082 53.3581 21.1213 52.2554 21.1489 51.2105C21.1715 50.364 21.1539 49.5627 20.8852 48.9147C20.629 48.2993 20.0814 47.7442 19.4735 47.179C18.715 46.4707 17.8509 45.7724 17.1099 45.044C15.8716 43.8233 15 42.4845 15 41C15 39.5155 15.8716 38.1767 17.1099 36.956C17.8509 36.2276 18.715 35.5293 19.4735 34.821C20.0814 34.2558 20.629 33.7007 20.8852 33.0853C21.1539 32.4373 21.1715 31.636 21.1489 30.7895C21.1213 29.7446 21.0082 28.6419 21.0007 27.6121C20.9856 25.8764 21.3071 24.3367 22.3219 23.3219C23.3342 22.3097 24.8764 21.9856 26.6121 22.0007C27.6419 22.0108 28.7446 22.1213 29.7895 22.1489C30.6335 22.1715 31.4373 22.1539 32.0828 21.8852C32.6982 21.629 33.2558 21.0814 33.821 20.4735C34.5293 19.7124 35.2276 18.8484 35.956 18.1099C37.1767 16.8691 38.5155 16 40 16C41.4845 16 42.8233 16.8691 44.044 18.1099C44.7724 18.8484 45.4707 19.7124 46.179 20.4735C46.7442 21.0814 47.2993 21.629 47.9172 21.8852C48.5628 22.1539 49.3665 22.1715 50.213 22.1489C51.2554 22.1213 52.3581 22.0108 53.3879 22.0007C55.1236 21.9856 56.6633 22.3097 57.6781 23.3219C58.6904 24.3367 59.0144 25.8764 58.9993 27.6121C58.9918 28.6419 58.8787 29.7446 58.8511 30.7895C58.8285 31.636 58.8461 32.4373 59.1148 33.0828C59.371 33.7007 59.9186 34.2558 60.5265 34.821C61.2876 35.5293 62.1516 36.2276 62.8926 36.956C64.1309 38.1767 65 39.5155 65 41ZM62.4882 41C62.4882 40.5278 62.2672 40.1083 61.9708 39.6989C61.5588 39.1312 60.9962 38.6012 60.4084 38.0763C58.944 36.7676 57.3817 35.464 56.7939 34.0473C56.1861 32.5779 56.3493 30.5333 56.4523 28.5766C56.495 27.7854 56.5201 27.0143 56.4146 26.3285C56.3418 25.8488 56.2137 25.4117 55.9022 25.1003C55.5883 24.7863 55.1512 24.6582 54.6715 24.5854C53.9857 24.4799 53.2146 24.505 52.4234 24.5477C50.4667 24.6507 48.4221 24.8139 46.9552 24.2061C45.536 23.6183 44.2324 22.0585 42.9237 20.5916C42.3988 20.0038 41.8688 19.4412 41.3011 19.0292C40.8917 18.7328 40.4722 18.5118 40 18.5118C39.5303 18.5118 39.1083 18.7328 38.6989 19.0292C38.1312 19.4412 37.6012 20.0038 37.0763 20.5916C35.7676 22.0585 34.464 23.6183 33.0448 24.2061C31.5779 24.8139 29.5333 24.6507 27.5766 24.5477C26.7854 24.505 26.0143 24.4799 25.3285 24.5854C24.8463 24.6582 24.4117 24.7863 24.0978 25.1003C23.7838 25.4117 23.6582 25.8488 23.5854 26.3285C23.4799 27.0143 23.505 27.7854 23.5452 28.5766C23.6507 30.5333 23.8139 32.5779 23.2061 34.0448C22.6183 35.464 21.0585 36.7676 19.5916 38.0763C19.0038 38.6012 18.4412 39.1312 18.0292 39.6989C17.7328 40.1083 17.5118 40.5278 17.5118 41C17.5118 41.4722 17.7328 41.8917 18.0292 42.3011C18.4412 42.8688 19.0038 43.3988 19.5916 43.9237C21.0585 45.2324 22.6183 46.536 23.2061 47.9552C23.8139 49.4221 23.6507 51.4667 23.5452 53.4234C23.505 54.2146 23.4799 54.9857 23.5854 55.6715C23.6582 56.1512 23.7838 56.5883 24.0978 56.8997C24.4117 57.2137 24.8463 57.3418 25.3285 57.4146C26.0143 57.5201 26.7854 57.495 27.5766 57.4523C29.5333 57.3493 31.5779 57.1861 33.0448 57.7939C34.464 58.3817 35.7676 59.9415 37.0763 61.4084C37.6012 61.9962 38.1312 62.5588 38.6989 62.9708C39.1083 63.2672 39.5303 63.4882 40 63.4882C40.4722 63.4882 40.8917 63.2672 41.3011 62.9708C41.8688 62.5588 42.3988 61.9962 42.9237 61.4084C44.2324 59.9415 45.536 58.3817 46.9552 57.7939C48.4221 57.1861 50.4667 57.3493 52.4234 57.4523C53.2146 57.495 53.9857 57.5201 54.6715 57.4146C55.1512 57.3418 55.5883 57.2137 55.9022 56.8997C56.2137 56.5883 56.3418 56.1512 56.4146 55.6715C56.5201 54.9857 56.495 54.2146 56.4523 53.4234C56.3493 51.4667 56.1861 49.4221 56.7939 47.9527C57.3817 46.536 58.944 45.2324 60.4084 43.9237C60.9962 43.3988 61.5588 42.8688 61.9708 42.3011C62.2672 41.8917 62.4882 41.4722 62.4882 41ZM36.0364 36.5742C35.7995 36.8109 35.5184 36.9986 35.209 37.1266C34.8996 37.2546 34.5681 37.3205 34.2333 37.3203C33.8984 37.3202 33.5669 37.2542 33.2576 37.1259C32.9483 36.9977 32.6673 36.8098 32.4307 36.5729C32.194 36.3361 32.0063 36.055 31.8783 35.7456C31.7503 35.4362 31.6844 35.1047 31.6845 34.7698C31.6847 34.435 31.7507 34.1035 31.879 33.7942C32.0072 33.4849 32.1951 33.2039 32.4319 32.9672C32.9102 32.4893 33.5588 32.2209 34.235 32.2211C34.9112 32.2213 35.5597 32.4902 36.0376 32.9685C36.5156 33.4468 36.784 34.0954 36.7838 34.7716C36.7835 35.4478 36.5147 36.0962 36.0364 36.5742ZM47.2667 31.9575C47.5035 31.7287 47.8208 31.6021 48.1501 31.605C48.4794 31.6079 48.7943 31.7399 49.0272 31.9728C49.2601 32.2057 49.3921 32.5207 49.395 32.8499C49.3979 33.1792 49.2713 33.4965 49.0425 33.7334L32.7334 50.0425C32.4965 50.2713 32.1792 50.3979 31.8499 50.395C31.5207 50.3921 31.2057 50.2601 30.9728 50.0272C30.7399 49.7943 30.6079 49.4794 30.605 49.1501C30.6021 48.8208 30.7287 48.5035 30.9575 48.2667L47.2667 31.9575ZM43.9636 45.4283C44.2005 45.1916 44.4816 45.0039 44.791 44.8759C45.1004 44.7479 45.4319 44.6821 45.7667 44.6822C46.1016 44.6823 46.4331 44.7484 46.7424 44.8766C47.0517 45.0048 47.3327 45.1927 47.5693 45.4296C47.806 45.6664 47.9937 45.9475 48.1217 46.2569C48.2498 46.5663 48.3156 46.8979 48.3155 47.2327C48.3153 47.5675 48.2493 47.899 48.121 48.2083C47.9928 48.5176 47.8049 48.7986 47.5681 49.0353C47.0898 49.5132 46.4412 49.7816 45.765 49.7814C45.0888 49.7812 44.4404 49.5123 43.9624 49.034C43.4844 48.5557 43.216 47.9071 43.2162 47.2309C43.2165 46.5547 43.4853 45.9063 43.9636 45.4283Z" fill="#00B564"/>
</svg>
