<svg width="11" height="14" viewBox="0 0 11 14" fill="none" xmlns="http://www.w3.org/2000/svg">
<g id="Group">
<path id="Vector" d="M9.50883 0.333496H8.36094V4.21841C8.36094 4.49135 8.08497 4.62631 7.87116 4.28361L7.11298 3.07052L6.3548 4.28361C6.13948 4.62479 5.86502 4.49135 5.86502 4.21841V0.333496H2.0165C1.08618 0.335998 0.333344 1.09088 0.333344 2.0212V11.9837C0.335845 12.9122 1.08796 13.6643 2.0165 13.6668H9.51034C9.71528 13.6665 9.91168 13.5847 10.0562 13.4394C10.2015 13.2948 10.2833 13.0984 10.2837 12.8935V1.10835C10.2829 0.680742 9.93644 0.33433 9.50883 0.333496ZM9.65288 11.6652L2.341 11.6743C2.18163 11.6853 2.05483 11.8122 2.04383 11.9715C2.03166 12.1478 2.16472 12.3006 2.341 12.3127H9.65288L9.65136 12.9011C9.65144 12.9361 9.63783 12.9699 9.61345 12.9951C9.58824 13.0195 9.55451 13.0331 9.51944 13.033H2.0165C1.44074 13.033 0.974005 12.5663 0.974005 11.9905C0.974005 11.4147 1.44074 10.948 2.0165 10.948H9.51944C9.59279 10.9488 9.65204 11.0081 9.65288 11.0814V11.6652Z" fill="#838383"/>
</g>
</svg>
