<svg width="22" height="20" viewBox="0 0 22 20" fill="none" xmlns="http://www.w3.org/2000/svg">
<g clip-path="url(#clip0_1228_1412)">
<path d="M19.5 10C19.5 5.36678 15.3545 2 10.75 2C6.14547 2 2 5.36678 2 10C2 14.6332 6.14547 18 10.75 18C15.3545 18 19.5 14.6332 19.5 10Z" fill="#EAF0CF" stroke="#EAF0CF" stroke-width="4"/>
<path d="M5.14286 12.2857C6.32633 12.2857 7.28572 11.3263 7.28572 10.1429C7.28572 8.95939 6.32633 8 5.14286 8C3.95939 8 3 8.95939 3 10.1429C3 11.3263 3.95939 12.2857 5.14286 12.2857Z" fill="#94D073"/>
<path d="M10.5 11.7857C11.4073 11.7857 12.1429 11.0502 12.1429 10.1429C12.1429 9.23553 11.4073 8.5 10.5 8.5C9.59268 8.5 8.85715 9.23553 8.85715 10.1429C8.85715 11.0502 9.59268 11.7857 10.5 11.7857Z" stroke="#94D073"/>
<path d="M15.8572 11.7857C16.7645 11.7857 17.5001 11.0502 17.5001 10.1429C17.5001 9.23553 16.7645 8.5 15.8572 8.5C14.9499 8.5 14.2143 9.23553 14.2143 10.1429C14.2143 11.0502 14.9499 11.7857 15.8572 11.7857Z" stroke="#94D073"/>
</g>
<defs>
<clipPath id="clip0_1228_1412">
<rect width="22" height="20" fill="white"/>
</clipPath>
</defs>
</svg>
