<svg width="215" height="107" viewBox="0 0 215 107" fill="none" xmlns="http://www.w3.org/2000/svg">
<g clip-path="url(#clip0_3079_2481)">
<path d="M70.3477 58.8486C70.3377 58.8686 70.3278 58.886 70.3203 58.901C70.2955 58.8835 70.2706 58.8661 70.2482 58.8511C70.2656 58.8362 70.283 58.8063 70.2979 58.8063C70.3153 58.8063 70.3327 58.8337 70.3477 58.8486Z" fill="#95CC73"/>
<path d="M136.425 32.8567C136.42 31.1399 136.418 29.423 136.415 27.7062C136.415 27.5392 136.502 27.4072 136.641 27.3025C136.728 27.2377 136.743 27.1904 136.649 27.1106C136.323 26.8341 136.313 26.3706 136.659 26.1114C136.845 25.9719 136.882 25.8274 136.882 25.6305C136.877 24.0881 136.887 22.5457 136.87 21.0033C136.867 20.7541 136.964 20.6644 137.213 20.6071C137.633 20.5074 137.628 20.4974 137.628 20.8737C137.628 22.4909 137.628 24.108 137.626 25.7252C137.626 25.8648 137.655 25.9719 137.777 26.0741C138.135 26.3756 138.162 26.707 137.877 27.0783C137.807 27.168 137.732 27.2153 137.887 27.3349C138.135 27.5268 138.083 27.8407 138.085 28.0974C138.105 29.6224 138.093 31.1498 138.098 32.6748C138.098 32.8418 138.051 32.914 137.844 32.9066C137.384 32.8916 136.925 32.8966 136.467 32.8941C136.452 32.8791 136.437 32.8667 136.423 32.8517L136.425 32.8567Z" fill="#95CC73"/>
<path d="M140.867 20.0415V20.3156C140.663 20.3156 140.526 20.3829 140.32 20.4875C138.819 21.1727 137.25 21.8904 135.679 22.608C133.36 23.6346 131.006 24.6613 128.653 25.7203C127.596 26.1987 127.596 26.2336 127.596 25.035C127.596 24.6239 127.663 24.2825 127.154 24.0782C125.004 22.9494 122.821 21.9577 120.535 21.1703C118.248 20.3829 115.996 19.6652 113.642 19.1519C111.629 18.7084 109.615 18.2623 107.57 18.1253C106.886 18.0904 106.205 18.058 105.556 18.0904C104.908 18.0555 104.226 18.0904 103.543 18.1253C101.495 18.2623 99.4839 18.7059 97.4706 19.1519C95.1167 19.6652 92.8648 20.3829 90.578 21.1703C88.2912 21.9577 86.1089 22.9494 83.9588 24.0782C83.4468 24.2825 83.5164 24.6264 83.5164 25.035C83.5164 26.2311 83.5164 26.1987 82.46 25.7203C80.1061 24.6613 77.7523 23.6346 75.4332 22.608C73.8648 21.8904 72.2939 21.1703 70.7926 20.4875C70.5887 20.3853 70.452 20.3156 70.2457 20.3156V20.0415C73.6237 18.1602 76.932 16.244 80.2752 14.3303C82.9024 12.8252 85.562 11.2853 88.1893 9.78277C91.09 8.1058 93.9211 6.4662 96.8218 4.82411C99.5162 3.28418 102.28 1.74675 104.975 0.171934C105.178 0.0348851 105.385 0 105.554 0C105.723 0 105.929 0.0348851 106.133 0.171934C108.827 1.74425 111.591 3.28418 114.286 4.82411C117.186 6.4662 120.018 8.10829 122.918 9.78277C125.546 11.2878 128.205 12.8277 130.832 14.3303C134.176 16.2465 137.484 18.1602 140.862 20.0415H140.867Z" fill="#95CC73"/>
<path d="M135.538 38.386C135.055 38.3985 134.576 38.3985 134.094 38.3985C132.697 38.4109 131.302 38.386 129.905 38.386C129.741 38.386 129.436 38.528 129.436 38.1518C129.401 38.082 129.366 38.0471 129.331 38.0097C128.546 36.1284 127.76 34.282 126.773 32.5054C126.291 31.6457 125.742 30.8832 125.118 30.2229C124.683 29.7519 124.216 29.3408 123.699 28.977C122.608 28.3665 121.457 27.8009 120.274 27.3075C118.561 26.6497 116.824 26.1089 115.064 25.6131C114.477 25.4486 113.891 25.2966 113.291 25.1546C113.244 25.1421 113.209 25.1322 113.175 25.1322C110.724 24.6388 108.176 24.3796 105.549 24.3796C101.629 24.3796 97.8758 24.9552 94.3909 26.0143C94.2865 26.0491 94.1672 26.084 94.0628 26.1189C93.0413 26.4727 92.0222 26.849 91.013 27.2352C89.7578 27.7535 88.5498 28.3416 87.3989 28.977C86.8819 29.3408 86.4022 29.7644 85.9672 30.2353C85.3458 30.8932 84.8064 31.6457 84.3242 32.5054C83.3399 34.282 82.552 36.1284 81.7665 38.0097C81.7317 38.0446 81.6969 38.0795 81.6721 38.1518C81.6721 38.528 81.3564 38.386 81.1899 38.386C79.793 38.386 78.3985 38.4084 77.0016 38.3985C76.5194 38.3985 76.0397 38.3985 75.5575 38.386C74.5359 38.3511 73.7505 39.2457 73.8573 40.1278C73.9866 41.1868 74.1854 42.2557 74.4315 43.3148C74.5483 43.8555 74.69 44.4087 74.8416 44.9494C75.0753 45.809 75.5227 46.0782 76.415 46.0782H77.5758C77.7399 46.0782 77.9163 46.0084 77.9735 46.1828C78.0779 46.3597 77.8791 46.417 77.8095 46.5242C75.734 49.2652 75.1822 52.3699 75.7563 55.6516C76.072 57.498 76.8823 59.2149 78.2196 60.5804C78.8286 61.2033 79.1343 61.8861 79.0771 62.8031C78.9727 64.485 79.0771 66.1545 79.0423 67.8365V67.8714C79.0547 68.5068 79.3232 69.0126 79.793 69.4013C79.8278 69.4362 79.8526 69.4711 79.9222 69.506C80.2752 69.8349 80.6853 69.9994 81.1302 70.0342C81.1998 70.0567 81.2818 70.0567 81.3539 70.0567C83.3374 70.0567 85.3185 70.0567 87.2896 70.0218C88.3211 70.0218 89.1314 69.339 89.4471 68.3747C89.7528 67.5275 89.5763 66.6329 89.6111 65.7409C89.6111 65.2699 89.6807 65.1304 90.1977 65.1304H120.902C121.407 65.1304 121.477 65.2724 121.477 65.7409C121.511 66.6354 121.335 67.5275 121.653 68.3747C121.959 69.339 122.779 70.0218 123.801 70.0218C125.772 70.0567 127.755 70.0567 129.736 70.0567C129.818 70.0567 129.888 70.0567 129.97 70.0342C130.708 69.3515 131.414 68.6239 132.058 67.8689V67.834C132.023 66.152 132.117 64.4825 132.023 62.8006C131.953 61.8836 132.257 61.2008 132.868 60.5779C134.205 59.2124 135.016 57.4955 135.331 55.6491C135.906 52.3674 135.366 49.2627 133.278 46.5217C133.209 46.417 133.007 46.3572 133.114 46.1803C133.174 46.0034 133.348 46.0757 133.524 46.0757H134.675C135.567 46.0757 136.012 45.8041 136.249 44.9469C136.4 44.3937 136.542 43.8405 136.671 43.2874C136.917 42.2408 137.106 41.1818 137.235 40.1228C137.34 39.2407 136.554 38.3461 135.535 38.381L135.538 38.386ZM78.1202 46.1828C78.1202 46.1479 78.0854 46.1479 78.0854 46.1479C78.0854 46.113 78.1202 46.113 78.1202 46.113C78.1202 46.113 78.155 46.113 78.155 46.1479L78.1202 46.1828ZM86.1337 40.2673C86.6856 38.7623 87.3293 37.327 87.9756 35.8917C88.8679 33.9755 90.2275 32.61 92.2807 31.9173C94.1573 31.3068 96.0712 30.8583 98.005 30.5518C99.9885 30.2453 101.97 30.2104 103.941 30.0335C104.492 30.0111 105.032 29.9737 105.549 29.9737C106.066 29.9737 106.605 30.0086 107.157 30.0335C109.128 30.2104 111.112 30.2453 113.093 30.5518C115.029 30.8583 116.94 31.3043 118.817 31.9173C120.87 32.61 122.232 33.9755 123.122 35.8917C123.768 37.327 124.412 38.7623 124.964 40.2673C125.198 40.9501 125.235 40.9501 124.482 40.9501H86.6085C85.8578 40.9501 85.8926 40.9501 86.1263 40.2673H86.1337ZM87.9532 58.6268C84.6101 58.8735 82.7906 56.1325 82.7906 53.9099C82.7682 51.453 84.8785 48.9587 87.5431 49.1929C90.2648 49.0509 92.1763 51.3807 92.3179 53.4987C92.5168 56.5811 90.066 58.4972 87.9532 58.6268ZM123.162 58.6268C121.039 58.4972 118.586 56.5811 118.785 53.4987C118.926 51.3807 120.838 49.0534 123.56 49.1929C126.222 48.9587 128.347 51.4505 128.312 53.9099C128.312 56.1325 126.505 58.8735 123.162 58.6268ZM132.982 46.1828L132.948 46.1479C132.948 46.113 132.982 46.113 132.982 46.113C132.982 46.113 133.017 46.113 133.017 46.1479C133.017 46.1479 132.982 46.1479 132.982 46.1828Z" fill="#95CC73"/>
<path d="M129.977 70.0368C130.422 70.0019 130.822 69.825 131.173 69.5085C131.243 69.4736 131.277 69.4387 131.315 69.4039C131.772 69.0151 132.053 68.5093 132.065 67.8739C131.419 68.6264 130.716 69.3565 129.977 70.0393V70.0368Z" fill="#95CC73"/>
<path d="M125.12 25.4836C125.108 26.1539 125.108 26.8242 125.108 27.4945V27.5169C125.096 27.8109 124.874 28.0352 124.581 28.0352C124.512 28.0352 124.439 28.0227 124.37 27.9878C124.323 27.9654 124.275 27.9405 124.241 27.9181C121.917 26.7419 119.488 25.825 117.025 24.9653C114.925 24.2352 112.802 23.8016 110.667 23.4005C109.623 23.2111 107.333 23.1288 105.551 23.1189C103.769 23.1313 101.48 23.2136 100.436 23.4005C98.3008 23.7991 96.1781 24.2352 94.0777 24.9653C91.6145 25.825 89.1861 26.7419 86.862 27.9181C86.8272 27.9405 86.78 27.9654 86.7328 27.9878C86.6632 28.0227 86.5911 28.0352 86.5215 28.0352C86.2282 28.0352 86.0045 27.8109 85.9945 27.5169V27.4945C85.9945 26.8242 85.9945 26.1539 85.9821 25.4836C85.9821 25.3316 86.0169 25.2244 86.0766 25.1422L86.089 25.1298C86.3699 24.9404 86.6632 24.766 86.9565 24.6015C91.2044 22.1321 96.1905 20.4975 101.574 19.9568C101.82 19.9219 102.079 19.897 102.337 19.8746C102.842 19.8397 103.347 19.8048 103.864 19.7799C104.239 19.7674 104.627 19.7575 105.014 19.7575C105.191 19.745 105.377 19.745 105.554 19.745C105.73 19.745 105.917 19.745 106.093 19.7575C106.481 19.7575 106.856 19.7699 107.244 19.7799C107.761 19.8023 108.266 19.8397 108.77 19.8746C109.029 19.897 109.275 19.9219 109.533 19.9568C114.954 20.4975 119.95 22.157 124.223 24.6488C124.494 24.7909 124.75 24.9429 125.009 25.1198C125.078 25.202 125.125 25.3191 125.125 25.4836H125.12Z" fill="#95CC73"/>
<path d="M78.1549 46.1505L78.1201 46.1854C78.1201 46.1505 78.0853 46.1505 78.0853 46.1505C78.0853 46.1156 78.1201 46.1156 78.1201 46.1156C78.1201 46.1156 78.1549 46.1156 78.1549 46.1505Z" fill="#95CC73"/>
<path d="M133.017 46.1505C133.017 46.1505 132.982 46.1505 132.982 46.1854L132.948 46.1505C132.948 46.1156 132.982 46.1156 132.982 46.1156C132.982 46.1156 133.017 46.1156 133.017 46.1505Z" fill="#95CC73"/>
<path d="M11.1007 102.834C10.9043 103.601 10.5961 104.067 10.1711 104.232C10.0393 104.281 9.86536 104.289 9.64662 104.256C9.42789 104.224 9.26881 104.232 9.16939 104.281L5.55034 105.801C5.43601 105.851 5.31918 105.988 5.1949 106.218C5.07311 106.447 4.9538 106.576 4.83946 106.609C4.48153 106.738 3.72342 106.616 2.56513 106.24C1.40684 105.864 0.705895 105.512 0.462306 105.186C0.283342 104.924 0.226173 104.516 0.290799 103.96C0.323112 103.698 0.340511 103.494 0.340511 103.347V86.8763C0.308198 86.7143 0.243573 86.5748 0.144148 86.4601C0.0472097 86.3455 -0.00250244 86.2483 -0.00250244 86.1661C0.0298104 85.8546 0.315655 85.6279 0.852546 85.4809C1.19556 85.3986 1.93627 85.5207 3.07716 85.8496C4.36471 86.2259 5.01594 86.6669 5.03334 87.1728C5.03334 87.3048 4.94385 87.4992 4.76489 87.7608C4.58593 88.0225 4.49645 88.2193 4.49645 88.3489V101.902L7.03922 100.798C7.18587 100.668 7.46177 100.521 7.8719 100.357C8.10058 100.324 8.71203 100.671 9.70628 101.398C10.7005 102.126 11.1653 102.604 11.1007 102.831V102.834Z" fill="#231F20"/>
<path d="M24.3018 104.573C24.3018 104.932 24.2297 105.39 24.083 105.946C24.001 105.978 23.8792 105.996 23.7152 105.996C23.2901 105.996 22.7607 105.899 22.1269 105.702C21.4433 105.472 20.9785 105.221 20.7324 104.942C20.6181 104.827 20.5137 104.436 20.4143 103.766C20.2676 102.883 20.1036 102.156 19.9246 101.585C19.4349 101.65 18.7141 101.829 17.7596 102.123C16.8052 102.418 16.1838 102.662 15.8905 102.859C15.6941 103.414 15.4331 104.109 15.1075 104.942C15.0578 105.121 15.013 105.293 14.9733 105.458C14.9335 105.622 14.8217 105.752 14.6427 105.849C14.593 105.864 14.5358 105.874 14.4712 105.874C14.1456 105.874 13.6186 105.714 12.8953 105.395C12.1695 105.076 11.7917 104.869 11.7594 104.77C11.7097 104.573 11.834 104.117 12.1273 103.397C12.5349 102.35 12.771 101.715 12.8357 101.486C12.525 101.142 12.3957 100.8 12.4454 100.456C12.4951 100.295 12.8928 100.008 13.6435 99.5993L16.1614 90.9478V89.8689C16.1614 89.51 16.3652 89.3306 16.7729 89.3306C17.3769 89.3306 18.2468 89.4901 19.3877 89.8091C20.5286 90.128 21.2121 90.4096 21.4408 90.6538C21.5228 92.109 21.8162 94.2818 22.3207 97.1723C22.957 100.751 23.6157 103.217 24.3018 104.575V104.573ZM17.6751 85.9941C17.7074 86.1262 17.6254 86.3704 17.4315 86.7292C17.2352 87.1379 17.1382 87.4568 17.1382 87.6861C17.1532 87.7832 17.1532 87.9402 17.1382 88.152C17.0736 88.5283 16.9667 88.75 16.8201 88.8148C16.6237 88.8971 16.1912 88.7775 15.5251 88.4585C14.8565 88.1396 14.4811 87.8904 14.4016 87.711C14.337 87.5963 14.4264 87.2301 14.67 86.6071C14.8813 86.0838 15.0702 85.6926 15.2318 85.431C15.3138 85.3014 15.4505 85.2341 15.6469 85.2341C15.5325 85.2341 15.9228 85.3164 16.8201 85.4783C17.3421 85.5755 17.6279 85.7474 17.6751 85.9941ZM19.1913 98.6175C18.995 97.5884 18.8906 97.0477 18.8732 97.0004C18.7415 96.1183 18.6545 95.2113 18.6047 94.2793C18.3612 94.8998 18.0505 95.7943 17.6751 96.963C17.2998 98.1316 17.096 98.8717 17.0637 99.1807C17.26 99.0985 17.9684 98.9116 19.1913 98.6175ZM21.7838 85.9941C21.8161 86.1262 21.7341 86.3704 21.5402 86.7292C21.3439 87.1379 21.2469 87.4568 21.2469 87.6861C21.2619 87.7832 21.2619 87.9402 21.2469 88.152C21.1823 88.5283 21.0754 88.75 20.9288 88.8148C20.7324 88.8971 20.2999 88.7775 19.6338 88.4585C18.9652 88.1396 18.5898 87.8904 18.5078 87.711C18.4432 87.5963 18.5327 87.2301 18.7763 86.6071C18.9875 86.0838 19.1764 85.6926 19.338 85.431C19.42 85.3014 19.5567 85.2341 19.7531 85.2341C19.6388 85.2341 20.029 85.3164 20.9263 85.4783C21.4483 85.5755 21.7341 85.7474 21.7814 85.9941H21.7838Z" fill="#231F20"/>
<path d="M37.6519 89.7444C37.5202 89.7444 37.3412 89.692 37.115 89.5849C36.8864 89.4777 36.6999 89.4429 36.5533 89.4753L34.0354 90.1605V103.053C34.0354 103.526 34.1497 104.042 34.3784 104.598C34.443 104.762 34.4281 105.071 34.3287 105.53C34.2317 106.036 34.0751 106.355 33.8639 106.487C33.8316 106.502 33.7495 106.512 33.6203 106.512C33.0834 106.512 32.3327 106.404 31.3708 106.193C30.2945 105.948 29.6607 105.712 29.4643 105.483C29.2357 105.188 29.2431 104.797 29.4892 104.306C29.7005 103.883 29.8074 103.571 29.8074 103.374V91.2419L28.0724 91.683C27.9904 91.7004 27.8562 91.7677 27.6697 91.8923C27.4808 92.0144 27.3242 92.0592 27.1925 92.0268C26.8172 91.9297 26.3051 91.4438 25.6514 90.5691C25.0002 89.6945 24.7143 89.104 24.7964 88.7925C24.9256 88.4162 25.3109 88.1297 25.9447 87.9353C26.1088 87.8855 26.3201 87.878 26.581 87.9104C26.842 87.9428 27.0458 87.9428 27.1925 87.9104L35.7007 85.7301C35.7828 85.7151 36.0189 85.6155 36.4091 85.4361C36.6701 85.3214 36.9062 85.2816 37.1175 85.314C37.5724 85.3788 37.8831 85.5582 38.0471 85.8522C38.1615 86.049 38.2833 86.4153 38.4125 86.9561C38.5766 87.594 38.6561 88.1496 38.6561 88.6231C38.6561 88.9819 38.6114 89.256 38.5219 89.4429C38.4324 89.6322 38.1441 89.7319 37.6544 89.7493L37.6519 89.7444Z" fill="#231F20"/>
<path d="M52.3444 89.7444C52.2126 89.7444 52.0337 89.692 51.8075 89.5849C51.5788 89.4777 51.3924 89.4429 51.2457 89.4753L48.7278 90.1605V103.053C48.7278 103.526 48.8422 104.042 49.0708 104.598C49.1355 104.762 49.1205 105.071 49.0211 105.53C48.9242 106.036 48.7676 106.355 48.5563 106.487C48.524 106.502 48.442 106.512 48.3127 106.512C47.7758 106.512 47.0252 106.404 46.0633 106.193C44.987 105.948 44.3531 105.712 44.1568 105.483C43.9281 105.188 43.9356 104.797 44.1816 104.306C44.3929 103.883 44.4998 103.571 44.4998 103.374V91.2419L42.7648 91.683C42.6828 91.7004 42.5486 91.7677 42.3622 91.8923C42.1733 92.0144 42.0167 92.0592 41.8849 92.0268C41.5096 91.9297 40.9976 91.4438 40.3439 90.5691C39.6926 89.6945 39.4068 89.104 39.4888 88.7925C39.6181 88.4162 40.0033 88.1297 40.6372 87.9353C40.8012 87.8855 41.0125 87.878 41.2735 87.9104C41.5345 87.9428 41.7383 87.9428 41.8849 87.9104L50.3932 85.7301C50.4752 85.7151 50.7113 85.6155 51.1016 85.4361C51.3626 85.3214 51.5987 85.2816 51.81 85.314C52.2648 85.3788 52.5755 85.5582 52.7396 85.8522C52.8539 86.049 52.9757 86.4153 53.105 86.9561C53.269 87.594 53.3486 88.1496 53.3486 88.6231C53.3486 88.9819 53.3038 89.256 53.2143 89.4429C53.1249 89.6322 52.8365 89.7319 52.3469 89.7493L52.3444 89.7444Z" fill="#231F20"/>
<path d="M81.9753 105.408C81.861 106.11 81.6646 106.494 81.3887 106.559C80.9985 106.656 80.2478 106.552 79.1392 106.24C77.966 105.914 77.2974 105.587 77.1333 105.261C77.0836 105.146 77.0613 105.024 77.0613 104.894C77.0613 104.797 77.0811 104.638 77.1209 104.416C77.1607 104.197 77.1831 104.012 77.1831 103.865V92.737C76.4175 94.2396 75.4133 97.6234 74.1755 102.884C74.1581 102.948 74.1506 103.023 74.1506 103.103C74.1506 103.267 74.178 103.529 74.2351 103.888C74.2923 104.247 74.3196 104.476 74.3196 104.573C74.3022 105.079 74.2799 105.405 74.2451 105.552C74.163 105.879 73.9915 106.076 73.7306 106.14C73.5665 106.19 73.2831 106.213 72.8755 106.213C70.7578 106.213 69.2987 105.846 68.4983 105.109C68.3666 104.994 68.3194 104.79 68.3517 104.496C68.384 104.137 68.384 103.9 68.3517 103.786C67.7477 101.922 67.2108 100.29 66.7385 98.8843C65.5976 95.4855 64.8569 93.4846 64.5139 92.8791V102.634C64.5139 102.846 64.5785 103.14 64.7103 103.517C64.8718 103.975 64.9638 104.259 64.9787 104.374C65.0434 104.7 65.0608 105.094 65.0284 105.55C64.9961 106.105 64.8818 106.449 64.6854 106.579C64.5885 106.644 64.3996 106.676 64.1237 106.676C63.5197 106.676 62.8038 106.569 61.9711 106.357C61.0738 106.145 60.5444 105.924 60.3828 105.694C60.3008 105.58 60.261 105.44 60.261 105.278C60.261 105.181 60.2884 105.017 60.3456 104.787C60.4027 104.558 60.4301 104.379 60.4301 104.249V86.8714C60.4301 86.6745 60.5121 86.4502 60.6737 86.1986C60.8377 85.9444 61.0241 85.7775 61.2354 85.6952C61.5113 85.5806 62.5801 85.7775 64.4394 86.2833C66.3781 86.7891 67.4047 87.2302 67.519 87.6064C67.5687 87.7534 67.5762 87.9503 67.5439 88.1945C67.4942 88.5384 67.4693 88.7427 67.4693 88.8075C67.4693 88.9545 67.4942 89.0866 67.5439 89.1987L70.8448 98.0969C71.2996 96.6417 72.1323 93.6939 73.3378 89.2485C73.9418 86.9785 74.429 85.7924 74.8043 85.6952C74.9187 85.6628 75.0479 85.6454 75.1946 85.6454C75.4705 85.6454 75.9353 85.7201 76.589 85.8672C77.3073 86.0466 77.802 86.1462 78.0804 86.1612C79.3679 86.2758 80.1086 86.3481 80.305 86.3805C81.0705 86.5275 81.503 86.7966 81.6 87.1903C81.6323 87.3049 81.6497 87.427 81.6497 87.5591C81.6497 87.7235 81.6099 87.9553 81.5279 88.2568C81.4459 88.5583 81.4061 88.7826 81.4061 88.9321V103.933C81.4061 104.097 81.508 104.341 81.7118 104.668C81.9156 104.994 82.0002 105.241 81.9678 105.403L81.9753 105.408Z" fill="#231F20"/>
<path d="M95.0073 102.981C94.9576 103.26 94.8159 103.556 94.5798 103.875C94.3437 104.194 94.1349 104.386 93.9559 104.451C93.9062 104.468 93.8167 104.438 93.6875 104.366C93.5582 104.294 93.4514 104.257 93.3693 104.257C93.337 104.257 93.3047 104.264 93.2724 104.281C92.7678 104.428 92.2607 104.625 91.7562 104.869C90.5506 105.425 89.4421 106.135 88.4304 107.002C86.7999 106.332 85.9125 105.963 85.7658 105.899C84.7542 105.458 84.2496 105.131 84.2496 104.919V86.4875C84.2496 86.3729 84.441 86.211 84.8238 85.9967C85.2066 85.7849 85.4875 85.6877 85.6664 85.7026C85.8628 85.7201 86.253 85.8471 86.8396 86.0814C87.4262 86.3181 87.906 86.4377 88.2813 86.4377C88.771 86.4377 89.4048 86.2184 90.1877 85.7749C90.9036 85.3513 91.3535 85.1694 91.5325 85.2367C91.9227 85.3687 92.5068 85.7973 93.2798 86.5224C94.0529 87.25 94.4729 87.7683 94.54 88.0798C94.5724 88.2268 94.4207 88.481 94.0877 88.8398C93.7546 89.1986 93.4812 89.378 93.2699 89.378C93.0909 89.378 92.9592 89.3531 92.8797 89.3058C92.7976 89.2559 92.7405 89.241 92.7082 89.2559C92.1216 89.3855 91.5747 89.5425 91.0701 89.7219C89.8646 90.1305 88.9748 90.604 88.4056 91.1447V95.139C88.9748 94.845 89.718 94.5435 90.6302 94.232C90.8912 94.1996 91.4405 94.5634 92.2806 95.3234C93.1208 96.0834 93.5408 96.6092 93.5408 96.9032C93.5408 97.0826 93.4265 97.2944 93.1978 97.5411C92.9691 97.7853 92.7504 97.9423 92.5366 98.0071C92.3726 98.0071 92.0892 98.0245 91.6816 98.0569C91.0627 98.1715 89.9715 98.6948 88.4056 99.6268V102.201C88.8952 101.907 89.5589 101.56 90.399 101.159C91.2392 100.758 91.7562 100.559 91.9525 100.559C92.1812 100.559 92.7554 100.915 93.6775 101.625C94.5972 102.335 95.0421 102.789 95.0098 102.986L95.0073 102.981Z" fill="#231F20"/>
<path d="M108.477 93.7885C108.477 95.5701 107.997 97.5062 107.035 99.5969C106.27 101.281 105.308 102.866 104.149 104.351C103.123 105.624 102.365 106.37 101.875 106.581C101.631 106.679 101.353 106.728 101.045 106.728C100.327 106.728 99.5112 106.499 98.599 106.043C97.7837 105.667 97.1723 105.258 96.7646 104.817V87.1703C96.8144 86.7467 97.058 86.4925 97.4979 86.4103C97.5476 86.3953 97.9528 86.4502 98.7208 86.5822C98.8675 86.5997 99.3522 86.4277 100.175 86.0664C100.998 85.7076 101.704 85.5282 102.29 85.5282C103.008 85.5282 103.692 85.7151 104.343 86.0913C104.719 86.3206 105.28 86.7616 106.031 87.4145C107.122 88.3614 107.833 89.3581 108.159 90.4046C108.37 91.1073 108.477 92.2336 108.477 93.786V93.7885ZM104.418 89.0591C104.336 89.0092 104.207 88.9868 104.028 88.9868C103.163 88.9868 102.129 89.3631 100.923 90.1131V101.142C102.032 100.504 102.976 98.944 103.759 96.4597C104.428 94.3192 104.761 92.3756 104.761 90.6264C104.761 89.7119 104.647 89.1886 104.418 89.0566V89.0591Z" fill="#231F20"/>
<path d="M128.747 102.318C128.797 102.727 128.518 103.494 127.917 104.623C127.28 105.799 126.758 106.362 126.351 106.315C125.861 106.25 124.827 105.278 123.246 103.399C121.487 101.291 120.403 100.098 119.995 99.8211V104.331C119.995 104.428 120.045 104.6 120.142 104.847C120.239 105.091 120.296 105.273 120.313 105.385C120.395 106.038 120.256 106.464 119.898 106.659C119.734 106.756 119.466 106.806 119.09 106.806C118.372 106.806 117.671 106.666 116.988 106.389C116.222 106.078 115.839 105.719 115.839 105.311V87.3697C115.839 87.0582 115.946 86.7118 116.157 86.3281C116.369 85.9444 116.605 85.7026 116.866 85.6055C116.916 85.5905 116.988 85.5806 117.085 85.5806C117.557 85.5806 118.23 85.76 119.103 86.1188C119.975 86.4776 120.45 86.7816 120.532 87.0258C120.564 87.1404 120.482 87.7359 120.288 88.8149C120.077 90.0409 119.97 90.9728 119.97 91.6082C119.97 91.82 119.978 92.0094 119.995 92.1713L124.201 85.7002C124.444 85.3239 124.755 85.1445 125.13 85.1619C125.538 85.1794 126.142 85.441 126.94 85.9468C127.837 86.5349 128.292 87.0906 128.31 87.6138C128.31 87.7609 127.658 88.6754 126.353 90.3598C124.708 92.4504 123.42 94.2968 122.491 95.8991L127.43 101.585C127.544 101.717 127.805 101.822 128.213 101.904C128.556 101.986 128.735 102.126 128.749 102.32L128.747 102.318Z" fill="#231F20"/>
<path d="M136.497 106.337C136.219 106.37 135.915 106.332 135.58 106.228C135.247 106.12 134.916 106.018 134.591 105.921C134.2 105.824 133.579 105.635 132.731 105.358C131.687 104.902 130.897 104.002 130.36 102.662C129.888 101.468 129.652 100.031 129.652 98.3485C129.652 96.4373 129.94 94.6358 130.519 92.9439C131.098 91.2519 131.787 90.2428 132.585 89.9163C132.731 89.8515 132.903 89.8416 133.099 89.8914C133.263 89.9238 133.432 89.9637 133.614 90.0135C134.558 89.7369 135.17 89.5974 135.448 89.5974C135.577 89.5974 135.717 89.6049 135.863 89.6223C137.429 89.8191 138.66 90.7984 139.554 92.5626C140.37 94.1648 140.777 96.0686 140.777 98.2738C140.777 100.367 140.419 102.163 139.701 103.666C138.903 105.301 137.834 106.19 136.497 106.337ZM135.08 86.4353C135.113 86.5674 135.031 86.8115 134.837 87.1704C134.64 87.579 134.543 87.898 134.543 88.1272C134.558 88.2244 134.558 88.3814 134.543 88.5932C134.479 88.9694 134.372 89.1887 134.225 89.256C134.029 89.3382 133.596 89.2186 132.93 88.8997C132.262 88.5807 131.886 88.3315 131.807 88.1521C131.742 88.0375 131.832 87.6712 132.075 87.0483C132.286 86.525 132.475 86.1338 132.637 85.8721C132.719 85.7426 132.856 85.6753 133.052 85.6753C132.938 85.6753 133.328 85.7575 134.225 85.9195C134.747 86.0167 135.033 86.1886 135.08 86.4353ZM136.157 91.9745C135.863 91.8923 135.575 92.2761 135.289 93.1258C135.003 93.9755 134.722 94.3991 134.446 94.3991C134.382 94.3991 134.287 94.3617 134.166 94.2894C134.044 94.2172 133.942 94.1798 133.86 94.1798C133.42 95.1591 133.199 96.5569 133.199 98.371C133.199 99.7913 133.353 101.01 133.664 102.024C133.989 103.168 134.454 103.798 135.058 103.91C135.759 104.042 136.321 103.322 136.746 101.752C137.136 100.364 137.332 98.7123 137.332 96.8011C137.332 93.796 136.942 92.1863 136.159 91.9721L136.157 91.9745ZM139.189 86.4353C139.221 86.5674 139.139 86.8115 138.945 87.1704C138.749 87.579 138.652 87.898 138.652 88.1272C138.667 88.2244 138.667 88.3814 138.652 88.5932C138.587 88.9694 138.481 89.1887 138.334 89.256C138.138 89.3382 137.705 89.2186 137.039 88.8997C136.37 88.5807 135.995 88.3315 135.913 88.1521C135.848 88.0375 135.938 87.6712 136.181 87.0483C136.393 86.525 136.582 86.1338 136.743 85.8721C136.825 85.7426 136.962 85.6753 137.158 85.6753C137.044 85.6753 137.434 85.7575 138.331 85.9195C138.853 86.0167 139.139 86.1886 139.187 86.4353H139.189Z" fill="#231F20"/>
<path d="M155.982 102.784C156.128 103.063 155.838 103.743 155.114 104.83C154.388 105.916 153.782 106.452 153.292 106.434C152.77 106.417 152.355 106.14 152.045 105.6C151.995 105.438 151.873 105.198 151.677 104.889L146.519 100.06V104.595C146.519 104.775 146.589 105.004 146.728 105.281C146.867 105.56 146.937 105.762 146.937 105.894C146.937 106.384 146.618 106.654 145.982 106.703C145.492 106.753 144.767 106.664 143.807 106.434C142.763 106.205 142.241 105.961 142.241 105.699C142.241 105.617 142.261 105.507 142.303 105.368C142.343 105.228 142.363 105.054 142.363 104.842V87.7334C142.363 87.6188 142.338 87.5166 142.291 87.4269C142.241 87.3372 142.216 87.2674 142.216 87.2176C142.231 86.7766 142.559 86.5149 143.193 86.4327C143.39 86.4003 143.832 86.4775 144.526 86.6644C145.219 86.8538 145.711 86.9385 146.005 86.9211C146.28 86.9061 146.847 86.6794 147.705 86.2458C148.56 85.8122 149.305 85.5955 149.942 85.5955C150.185 85.5955 150.439 85.6204 150.7 85.6677C151.155 85.7649 151.572 85.9792 151.948 86.3056C152.323 86.632 152.681 86.9585 153.024 87.2849C153.921 88.1346 154.386 88.5831 154.418 88.633C154.841 89.1238 155.07 89.6695 155.102 90.275C155.199 92.1713 153.586 94.6058 150.26 97.5785C150.943 98.1989 152.452 99.7114 154.784 102.114C154.93 102.163 155.142 102.261 155.42 102.408C155.582 102.49 155.77 102.612 155.982 102.776V102.784ZM150.578 89.0815C149.812 89.0815 148.46 89.8813 146.519 91.4836V95.2337C147.22 94.9571 148.14 94.1149 149.281 92.7095C150.421 91.3041 150.991 90.2576 150.991 89.5724C150.991 89.2459 150.851 89.0815 150.576 89.0815H150.578Z" fill="#231F20"/>
<path d="M170.846 102.318C170.895 102.727 170.617 103.494 170.015 104.623C169.379 105.799 168.857 106.362 168.45 106.315C167.96 106.25 166.926 105.278 165.345 103.399C163.585 101.291 162.502 100.098 162.094 99.8211V104.331C162.094 104.428 162.144 104.6 162.241 104.847C162.337 105.091 162.395 105.273 162.412 105.385C162.494 106.038 162.355 106.464 161.997 106.659C161.833 106.756 161.564 106.806 161.189 106.806C160.471 106.806 159.77 106.666 159.086 106.389C158.321 106.078 157.938 105.719 157.938 105.311V87.3697C157.938 87.0582 158.045 86.7118 158.256 86.3281C158.467 85.9444 158.703 85.7026 158.964 85.6055C159.014 85.5905 159.086 85.5806 159.183 85.5806C159.655 85.5806 160.329 85.76 161.202 86.1188C162.074 86.4776 162.549 86.7816 162.631 87.0258C162.663 87.1404 162.581 87.7359 162.387 88.8149C162.176 90.0409 162.069 90.9728 162.069 91.6082C162.069 91.82 162.076 92.0094 162.094 92.1713L166.3 85.7002C166.543 85.3239 166.854 85.1445 167.229 85.1619C167.637 85.1794 168.241 85.441 169.039 85.9468C169.936 86.5349 170.391 87.0906 170.408 87.6138C170.408 87.7609 169.757 88.6754 168.452 90.3598C166.807 92.4504 165.519 94.2968 164.589 95.8991L169.528 101.585C169.643 101.717 169.904 101.822 170.311 101.904C170.654 101.986 170.833 102.126 170.848 102.32L170.846 102.318Z" fill="#231F20"/>
<path d="M180.209 106.437C179.866 106.469 179.483 106.424 179.061 106.302C178.636 106.18 178.22 106.053 177.813 105.923C177.323 105.794 176.558 105.555 175.514 105.213C174.209 104.643 173.224 103.514 172.556 101.832C171.969 100.344 171.676 98.5478 171.676 96.4397C171.676 94.7254 171.969 92.722 172.556 90.4345C173.354 87.3621 174.39 85.8272 175.66 85.8272C175.775 85.8272 175.934 85.8571 176.138 85.9119C176.341 85.9692 176.5 86.0066 176.615 86.0215C177.82 85.6777 178.596 85.5057 178.936 85.5057C179.1 85.5057 179.262 85.5132 179.426 85.5307C181.382 85.7749 182.923 87.0008 184.047 89.206C185.056 91.1995 185.563 93.5766 185.563 96.3376C185.563 98.9514 185.106 101.199 184.193 103.078C183.217 105.121 181.887 106.24 180.209 106.437ZM179.769 88.471C179.411 88.3738 179.056 88.8547 178.705 89.9162C178.355 90.9777 177.999 91.5085 177.641 91.5085C177.559 91.5085 177.442 91.4636 177.286 91.3739C177.132 91.2842 177.005 91.2319 176.908 91.2144C176.354 92.4404 176.078 94.1896 176.078 96.4596C176.078 98.2413 176.264 99.7688 176.64 101.042C177.062 102.465 177.649 103.247 178.399 103.394C179.279 103.559 179.988 102.652 180.527 100.673C180.999 98.9415 181.235 96.8833 181.235 94.4961C181.235 92.879 181.114 91.5234 180.868 90.427C180.607 89.2509 180.239 88.5981 179.766 88.466L179.769 88.471Z" fill="#231F20"/>
<path d="M200.894 102.784C201.041 103.063 200.75 103.743 200.027 104.83C199.301 105.916 198.694 106.452 198.205 106.434C197.683 106.417 197.268 106.14 196.957 105.6C196.907 105.438 196.785 105.198 196.589 104.889L191.431 100.06V104.595C191.431 104.775 191.501 105.004 191.64 105.281C191.779 105.56 191.849 105.762 191.849 105.894C191.849 106.384 191.531 106.654 190.895 106.703C190.405 106.753 189.679 106.664 188.72 106.434C187.676 106.205 187.154 105.961 187.154 105.699C187.154 105.617 187.174 105.507 187.216 105.368C187.256 105.228 187.276 105.054 187.276 104.842V87.7334C187.276 87.6188 187.251 87.5166 187.203 87.4269C187.154 87.3372 187.129 87.2674 187.129 87.2176C187.144 86.7766 187.472 86.5149 188.106 86.4327C188.302 86.4003 188.745 86.4775 189.438 86.6644C190.132 86.8538 190.624 86.9385 190.917 86.9211C191.193 86.9061 191.76 86.6794 192.617 86.2458C193.472 85.8122 194.218 85.5955 194.854 85.5955C195.098 85.5955 195.351 85.6204 195.612 85.6677C196.067 85.7649 196.485 85.9792 196.86 86.3056C197.235 86.632 197.593 86.9585 197.936 87.2849C198.834 88.1346 199.298 88.5831 199.331 88.633C199.753 89.1238 199.982 89.6695 200.014 90.275C200.111 92.1713 198.498 94.6058 195.172 97.5785C195.856 98.1989 197.365 99.7114 199.696 102.114C199.843 102.163 200.054 102.261 200.332 102.408C200.494 102.49 200.683 102.612 200.894 102.776V102.784ZM195.49 89.0815C194.725 89.0815 193.373 89.8813 191.431 91.4836V95.2337C192.132 94.9571 193.052 94.1149 194.193 92.7095C195.334 91.3041 195.903 90.2576 195.903 89.5724C195.903 89.2459 195.764 89.0815 195.488 89.0815H195.49Z" fill="#231F20"/>
<path d="M213.998 89.7444C213.867 89.7444 213.688 89.692 213.461 89.5849C213.233 89.4777 213.046 89.4429 212.9 89.4753L210.382 90.1605V103.053C210.382 103.526 210.496 104.042 210.725 104.598C210.789 104.762 210.774 105.071 210.675 105.53C210.578 106.036 210.422 106.355 210.21 106.487C210.178 106.502 210.096 106.512 209.967 106.512C209.43 106.512 208.679 106.404 207.717 106.193C206.641 105.948 206.007 105.712 205.811 105.483C205.582 105.188 205.589 104.797 205.836 104.306C206.047 103.883 206.154 103.571 206.154 103.374V91.2419L204.419 91.683C204.337 91.7004 204.203 91.7677 204.016 91.8923C203.827 92.0144 203.671 92.0592 203.539 92.0268C203.164 91.9297 202.652 91.4438 201.998 90.5691C201.347 89.6945 201.061 89.104 201.143 88.7925C201.272 88.4162 201.657 88.1297 202.291 87.9353C202.455 87.8855 202.666 87.878 202.927 87.9104C203.188 87.9428 203.392 87.9428 203.539 87.9104L212.047 85.7301C212.129 85.7151 212.365 85.6155 212.756 85.4361C213.016 85.3214 213.253 85.2816 213.464 85.314C213.919 85.3788 214.229 85.5582 214.394 85.8522C214.508 86.049 214.63 86.4153 214.759 86.9561C214.923 87.594 215.002 88.1496 215.002 88.6231C215.002 88.9819 214.958 89.256 214.868 89.4429C214.779 89.6322 214.49 89.7319 214.001 89.7493L213.998 89.7444Z" fill="#231F20"/>
</g>
<defs>
<clipPath id="clip0_3079_2481">
<rect width="215" height="107" fill="white"/>
</clipPath>
</defs>
</svg>
