<svg width="55" height="55" viewBox="0 0 55 55" fill="none" xmlns="http://www.w3.org/2000/svg">
<g id="Group 162376">
<rect id="Rectangle 670" width="55" height="55" rx="5" fill="#94D073"/>
<path id="Vector" d="M12.5782 39.0539C16.5096 39.0539 19.644 37.5855 21.9815 34.6487C21.9815 34.4426 21.8487 34.2623 21.5831 34.1077L20.069 31.171C19.3784 32.5621 18.3557 33.6827 17.001 34.5328C15.6463 35.3829 14.172 35.808 12.5782 35.808H8.67347C8.24846 35.808 7.8633 35.9754 7.51798 36.3103C7.17266 36.6452 7 37.0187 7 37.4309C7 37.8431 7.17266 38.2166 7.51798 38.5515C7.8633 38.8864 8.24846 39.0539 8.67347 39.0539H12.5782ZM42.2225 11.541C41.3725 10.8197 40.5756 10.8197 39.8319 11.541C39.035 12.3138 39.035 13.0867 39.8319 13.8595L41.9835 16.0234H35.3693C31.4911 16.0234 28.3832 17.4918 26.0457 20.4286C26.0457 20.5831 26.1519 20.7635 26.3644 20.9696L27.8785 23.9063C28.5692 22.5152 29.5918 21.3946 30.9466 20.5445C32.3013 19.6944 33.7755 19.2693 35.3693 19.2693H41.9835L39.8319 21.4333C39.035 22.2061 39.035 22.9789 39.8319 23.7518C40.1506 24.0609 40.5491 24.2155 41.0272 24.2155C41.3991 24.2155 41.7975 24.0609 42.2225 23.7518L47.3226 18.8056C48.0133 18.0328 48.0133 17.26 47.3226 16.4871L42.2225 11.541ZM42.2225 31.3255C41.3725 30.6042 40.5756 30.6042 39.8319 31.3255C39.035 32.0984 39.035 32.8712 39.8319 33.644L41.9835 35.808H35.3693C33.7755 35.808 32.288 35.3829 30.9067 34.5328C29.5254 33.6827 28.4629 32.5621 27.7191 31.171L25.8863 27.5386L23.9738 23.9063L23.1769 22.4379C22.2206 20.4801 20.7862 18.9215 18.8737 17.7623C16.9611 16.603 14.8627 16.0234 12.5782 16.0234H8.67347C8.24846 16.0234 7.8633 16.1909 7.51798 16.5258C7.17266 16.8607 7 17.2342 7 17.6464C7 18.0585 7.17266 18.4321 7.51798 18.767C7.8633 19.1019 8.24846 19.2693 8.67347 19.2693H12.5782C15.9783 19.2693 18.5283 20.815 20.2284 23.9063L22.1409 27.5386L23.9738 31.171L24.8503 32.6393C25.9129 34.5972 27.3871 36.1557 29.2731 37.315C31.1591 38.4742 33.2443 39.0539 35.5287 39.0539H42.2225L39.9913 41.2178C39.1944 41.9906 39.1944 42.7635 39.9913 43.5363C40.31 43.8454 40.7085 44 41.1866 44C41.6116 44 42.01 43.8454 42.3819 43.5363L47.482 38.5902C48.1727 37.8173 48.1727 37.0445 47.482 36.2717L42.2225 31.3255Z" fill="white"/>
</g>
</svg>
