<svg width="88" height="88" viewBox="0 0 88 88" fill="none" xmlns="http://www.w3.org/2000/svg">
<ellipse cx="15.2096" cy="83.2899" rx="1.01613" ry="0.677419" transform="rotate(180 15.2096 83.2899)" fill="#C1CBD4"/>
<path d="M7.03031 76.8634L6.38959 77.5041L5.92636 77.0409L6.56708 76.4001L5.84294 75.676L6.33102 75.1879L7.05516 75.9121L7.69766 75.2696L8.16089 75.7328L7.5184 76.3753L8.21236 77.0693L7.72428 77.5573L7.03031 76.8634Z" fill="#85C0F9"/>
<circle cx="1.01613" cy="1.01613" r="1.01613" transform="matrix(1 0 0 -1 16.9032 6.06445)" fill="#C1CBD4"/>
<path d="M7.02657 16.8136L7.66729 17.4543L8.13053 16.9911L7.48981 16.3503L8.21395 15.6262L7.72586 15.1381L7.00172 15.8622L6.35923 15.2198L5.89599 15.683L6.53849 16.3255L5.84452 17.0194L6.33261 17.5075L7.02657 16.8136Z" fill="#85C0F9"/>
<circle cx="44" cy="44" r="42" stroke="#94D073" stroke-width="3"/>
<path d="M85.502 71.1776C84.4642 71.1658 82.3129 70.4756 82.0106 67.8091C81.7312 65.3439 84.935 65.4334 84.187 67.4118C83.5545 69.0847 78.7692 70.8261 76.9873 64.4659" stroke="#F39958" stroke-width="4" stroke-linecap="round"/>
<path d="M8.09677 56.8738C7.69985 56.8418 6.81074 57.0849 6.42969 58.3133C5.95338 59.8488 5.95338 62.9199 2 62.9679" stroke="#FE5284" stroke-width="4" stroke-linecap="round"/>
<path d="M60.8376 6.83447C62.1599 5.81908 65.2517 4.03596 68.8176 5.9212" stroke="#85C0F9" stroke-width="4" stroke-linecap="round"/>
<ellipse cx="76.8548" cy="16.226" rx="5.08065" ry="5.41935" fill="#6FCD38"/>
<g clip-path="url(#clip0_2273_2057)">
<path d="M75.4717 16.7617L76.262 17.552L78.2378 15.5762" stroke="white" stroke-width="2" stroke-linecap="round" stroke-linejoin="round"/>
</g>
<path d="M44 80C63.8823 80 80 63.8823 80 44C80 24.1177 63.8823 8 44 8C24.1177 8 8 24.1177 8 44C8 63.8823 24.1177 80 44 80Z" fill="#94D073"/>
<path d="M65.6508 65.4945C65.6554 68.1007 65.4636 70.7035 65.0771 73.2809C58.8883 77.7176 51.4506 80.0746 43.836 80.0122C36.2215 79.9497 28.8234 77.4711 22.7082 72.9335L22.5802 72.8393C22.2349 70.4063 22.0625 67.9519 22.0641 65.4945C22.0641 56.5662 24.2944 48.4465 27.938 42.4024L27.5302 30.4563L27.5133 29.9248L27.4739 28.7548L27.4022 26.6356H30.496L31.1091 27.8238L31.8825 29.3229L34.3547 34.1112L34.7063 34.7918C37.4878 32.7921 40.5872 31.6742 43.8553 31.6742C47.2768 31.6742 50.5139 32.899 53.3968 35.0801L56.3682 29.3229L57.1416 27.8253L57.2822 27.544L57.7533 26.6313H60.8471L60.7753 28.7506L60.7388 29.8404L60.7191 30.4521L60.2874 43.2743C63.6272 49.2213 65.6508 56.9909 65.6508 65.4945Z" fill="#366FCA"/>
<path d="M29.5707 58.999C29.5388 59.9703 29.5229 60.9499 29.5229 61.9381C29.51 67.1555 29.9727 72.3633 30.9052 77.4968C27.9811 76.3416 25.2214 74.8074 22.6969 72.9335C22.3419 70.4698 22.1647 67.9837 22.1668 65.4945C22.1668 56.5662 24.3971 48.4465 28.0407 42.4024L27.6385 30.4493L27.623 29.9599L27.5822 28.7492L27.5105 26.6313H30.6043L31.1921 27.7704L31.9655 29.2695L34.3983 33.9818C34.3815 34.024 34.3646 34.0648 34.3491 34.107C32.8571 37.8884 31.6632 42.1521 30.8335 46.7632C30.6966 47.5226 30.5705 48.2913 30.4552 49.0695C30.3146 49.9568 30.2021 50.8582 30.098 51.7681C29.9349 53.1621 29.806 54.5787 29.7113 56.0178C29.685 56.4199 29.6611 56.824 29.6396 57.2299C29.6124 57.8168 29.5894 58.4065 29.5707 58.999Z" fill="#356CBC"/>
<path d="M33.7556 58.7443C37.2591 58.7443 40.0992 55.9042 40.0992 52.4007C40.0992 48.8973 37.2591 46.0571 33.7556 46.0571C30.2521 46.0571 27.412 48.8973 27.412 52.4007C27.412 55.9042 30.2521 58.7443 33.7556 58.7443Z" fill="#3469B7"/>
<path d="M54.682 58.7443C58.1854 58.7443 61.0256 55.9042 61.0256 52.4007C61.0256 48.8973 58.1854 46.0571 54.682 46.0571C51.1785 46.0571 48.3384 48.8973 48.3384 52.4007C48.3384 55.9042 51.1785 58.7443 54.682 58.7443Z" fill="#3469B7"/>
<path d="M54.682 48.6899C56.4683 48.6899 57.9164 47.2419 57.9164 45.4556C57.9164 43.6693 56.4683 42.2212 54.682 42.2212C52.8957 42.2212 51.4476 43.6693 51.4476 45.4556C51.4476 47.2419 52.8957 48.6899 54.682 48.6899Z" fill="#3586CB"/>
<path d="M36.8002 56.7295C38.5865 56.7295 40.0345 55.2814 40.0345 53.4951C40.0345 51.7088 38.5865 50.2607 36.8002 50.2607C35.0139 50.2607 33.5658 51.7088 33.5658 53.4951C33.5658 55.2814 35.0139 56.7295 36.8002 56.7295Z" fill="#3586CB"/>
<path d="M36.1195 46.0249C37.9058 46.0249 39.3539 44.5768 39.3539 42.7905C39.3539 41.0042 37.9058 39.5562 36.1195 39.5562C34.3332 39.5562 32.8851 41.0042 32.8851 42.7905C32.8851 44.5768 34.3332 46.0249 36.1195 46.0249Z" fill="#3586CB"/>
<path d="M45.4711 51.9243C46.3642 51.9243 47.0883 51.2003 47.0883 50.3071C47.0883 49.414 46.3642 48.6899 45.4711 48.6899C44.5779 48.6899 43.8539 49.414 43.8539 50.3071C43.8539 51.2003 44.5779 51.9243 45.4711 51.9243Z" fill="#3586CB"/>
<path d="M51.4476 56.5186C52.3408 56.5186 53.0648 55.7945 53.0648 54.9014C53.0648 54.0082 52.3408 53.2842 51.4476 53.2842C50.5545 53.2842 49.8304 54.0082 49.8304 54.9014C49.8304 55.7945 50.5545 56.5186 51.4476 56.5186Z" fill="#3586CB"/>
<path d="M48.3384 41.1733C49.2315 41.1733 49.9556 40.4493 49.9556 39.5562C49.9556 38.663 49.2315 37.939 48.3384 37.939C47.4452 37.939 46.7212 38.663 46.7212 39.5562C46.7212 40.4493 47.4452 41.1733 48.3384 41.1733Z" fill="#3586CB"/>
<path d="M29.0179 59.0962C29.9111 59.0962 30.6351 58.3722 30.6351 57.479C30.6351 56.5859 29.9111 55.8618 29.0179 55.8618C28.1248 55.8618 27.4008 56.5859 27.4008 57.479C27.4008 58.3722 28.1248 59.0962 29.0179 59.0962Z" fill="#3586CB"/>
<path d="M29.4174 51.9243C30.3105 51.9243 31.0345 51.2003 31.0345 50.3071C31.0345 49.414 30.3105 48.6899 29.4174 48.6899C28.5242 48.6899 27.8002 49.414 27.8002 50.3071C27.8002 51.2003 28.5242 51.9243 29.4174 51.9243Z" fill="#3586CB"/>
<path d="M59.2764 58.2285C60.5578 58.2285 61.5967 57.1897 61.5967 55.9082C61.5967 54.6267 60.5578 53.5879 59.2764 53.5879C57.9949 53.5879 56.9561 54.6267 56.9561 55.9082C56.9561 57.1897 57.9949 58.2285 59.2764 58.2285Z" fill="#3586CB"/>
<path d="M47.264 57.8306H40.5844C38.5651 57.8306 36.9281 59.4675 36.9281 61.4868C36.9281 63.5061 38.5651 65.1431 40.5844 65.1431H47.264C49.2833 65.1431 50.9203 63.5061 50.9203 61.4868C50.9203 59.4675 49.2833 57.8306 47.264 57.8306Z" fill="#27273D"/>
<path d="M27.4008 30.4578C32.5927 30.4578 36.8016 26.2489 36.8016 21.057C36.8016 15.8651 32.5927 11.6562 27.4008 11.6562C22.2089 11.6562 18 15.8651 18 21.057C18 26.2489 22.2089 30.4578 27.4008 30.4578Z" fill="#3469B7"/>
<path d="M24.5446 28.2191C25.8209 29.3067 27.3657 30.0318 29.0179 30.3186C27.6672 30.5537 26.2815 30.4905 24.9578 30.1334C23.6341 29.7764 22.4046 29.1342 21.3553 28.2517C20.3061 27.3693 19.4625 26.2681 18.8838 25.0252C18.3051 23.7824 18.0052 22.428 18.0052 21.057C18.0052 19.6861 18.3051 18.3317 18.8838 17.0888C19.4625 15.846 20.3061 14.7447 21.3553 13.8623C22.4046 12.9799 23.6341 12.3377 24.9578 11.9806C26.2815 11.6236 27.6672 11.5604 29.0179 11.7955C27.259 12.1029 25.6239 12.9048 24.304 14.1074C22.9841 15.31 22.034 16.8636 21.5647 18.5864C21.0955 20.3093 21.1265 22.1301 21.6542 23.836C22.182 25.5418 23.1845 27.0621 24.5446 28.2191Z" fill="#2F64A3"/>
<path d="M27.4008 28.7567C31.7221 28.7567 35.2252 25.2536 35.2252 20.9323C35.2252 16.611 31.7221 13.1079 27.4008 13.1079C23.0795 13.1079 19.5764 16.611 19.5764 20.9323C19.5764 25.2536 23.0795 28.7567 27.4008 28.7567Z" fill="white"/>
<path d="M24.5447 28.2192C23.0342 27.6254 21.7456 26.5766 20.8574 25.2182C19.9692 23.8597 19.5253 22.2587 19.5871 20.6369C19.6489 19.015 20.2133 17.4524 21.2023 16.1655C22.1913 14.8785 23.5559 13.9308 25.1072 13.4536C23.9566 14.2903 23.0109 15.3772 22.3413 16.6323C21.6717 17.8875 21.2957 19.2783 21.2415 20.6999C21.1874 22.1215 21.4565 23.5368 22.0287 24.8393C22.6008 26.1418 23.4611 27.2974 24.5447 28.2192Z" fill="#E8E8E8"/>
<path d="M27.4009 25.982C29.9506 25.982 32.0176 23.915 32.0176 21.3653C32.0176 18.8155 29.9506 16.7485 27.4009 16.7485C24.8512 16.7485 22.7842 18.8155 22.7842 21.3653C22.7842 23.915 24.8512 25.982 27.4009 25.982Z" fill="#A65C3B"/>
<path d="M27.3585 24.8245C29.2691 24.8245 30.8179 23.2757 30.8179 21.3651C30.8179 19.4546 29.2691 17.9058 27.3585 17.9058C25.448 17.9058 23.8992 19.4546 23.8992 21.3651C23.8992 23.2757 25.448 24.8245 27.3585 24.8245Z" fill="#27273D"/>
<path d="M29.4175 20.0644C30.0132 20.0644 30.4961 19.5815 30.4961 18.9858C30.4961 18.3901 30.0132 17.9072 29.4175 17.9072C28.8218 17.9072 28.3389 18.3901 28.3389 18.9858C28.3389 19.5815 28.8218 20.0644 29.4175 20.0644Z" fill="white"/>
<path d="M27.3586 22.6674C28.0778 22.6674 28.6608 22.0844 28.6608 21.3652C28.6608 20.646 28.0778 20.063 27.3586 20.063C26.6394 20.063 26.0564 20.646 26.0564 21.3652C26.0564 22.0844 26.6394 22.6674 27.3586 22.6674Z" fill="white"/>
<path d="M60.8471 30.4578C66.039 30.4578 70.2478 26.2489 70.2478 21.057C70.2478 15.8651 66.039 11.6562 60.8471 11.6562C55.6552 11.6562 51.4463 15.8651 51.4463 21.057C51.4463 26.2489 55.6552 30.4578 60.8471 30.4578Z" fill="#3469B7"/>
<path d="M57.9923 28.2191C59.2685 29.3067 60.8134 30.0318 62.4655 30.3186C61.1149 30.5537 59.7291 30.4905 58.4054 30.1334C57.0818 29.7764 55.8522 29.1342 54.803 28.2517C53.7537 27.3693 52.9102 26.2681 52.3315 25.0252C51.7527 23.7824 51.4529 22.428 51.4529 21.057C51.4529 19.6861 51.7527 18.3317 52.3315 17.0888C52.9102 15.846 53.7537 14.7447 54.803 13.8623C55.8522 12.9799 57.0818 12.3377 58.4054 11.9806C59.7291 11.6236 61.1149 11.5604 62.4655 11.7955C60.7066 12.1029 59.0715 12.9048 57.7516 14.1074C56.4318 15.31 55.4816 16.8636 55.0124 18.5864C54.5431 20.3093 54.5742 22.1301 55.1019 23.836C55.6296 25.5418 56.6321 27.0621 57.9923 28.2191Z" fill="#2F64A3"/>
<path d="M60.8471 28.7567C65.1684 28.7567 68.6715 25.2536 68.6715 20.9323C68.6715 16.611 65.1684 13.1079 60.8471 13.1079C56.5258 13.1079 53.0227 16.611 53.0227 20.9323C53.0227 25.2536 56.5258 28.7567 60.8471 28.7567Z" fill="white"/>
<path d="M57.9923 28.2192C56.4818 27.6254 55.1933 26.5766 54.3051 25.2182C53.4169 23.8597 52.9729 22.2587 53.0347 20.6369C53.0965 19.015 53.661 17.4524 54.6499 16.1655C55.6389 14.8785 57.0035 13.9308 58.5548 13.4536C57.4043 14.2903 56.4586 15.3772 55.789 16.6323C55.1194 17.8875 54.7433 19.2783 54.6891 20.6999C54.635 22.1215 54.9041 23.5368 55.4763 24.8393C56.0485 26.1418 56.9087 27.2974 57.9923 28.2192Z" fill="#E8E8E8"/>
<path d="M60.8471 25.982C63.3968 25.982 65.4638 23.915 65.4638 21.3653C65.4638 18.8155 63.3968 16.7485 60.8471 16.7485C58.2973 16.7485 56.2303 18.8155 56.2303 21.3653C56.2303 23.915 58.2973 25.982 60.8471 25.982Z" fill="#A65C3B"/>
<path d="M60.8048 24.8245C62.7154 24.8245 64.2642 23.2757 64.2642 21.3651C64.2642 19.4546 62.7154 17.9058 60.8048 17.9058C58.8943 17.9058 57.3455 19.4546 57.3455 21.3651C57.3455 23.2757 58.8943 24.8245 60.8048 24.8245Z" fill="#27273D"/>
<path d="M62.8651 20.0644C63.4608 20.0644 63.9437 19.5815 63.9437 18.9858C63.9437 18.3901 63.4608 17.9072 62.8651 17.9072C62.2694 17.9072 61.7865 18.3901 61.7865 18.9858C61.7865 19.5815 62.2694 20.0644 62.8651 20.0644Z" fill="white"/>
<path d="M60.8049 22.6674C61.5241 22.6674 62.1071 22.0844 62.1071 21.3652C62.1071 20.646 61.5241 20.063 60.8049 20.063C60.0857 20.063 59.5027 20.646 59.5027 21.3652C59.5027 22.0844 60.0857 22.6674 60.8049 22.6674Z" fill="white"/>
<path d="M41.4197 45.987C42.4829 45.987 43.3448 45.1251 43.3448 44.0619C43.3448 42.9986 42.4829 42.1367 41.4197 42.1367C40.3564 42.1367 39.4945 42.9986 39.4945 44.0619C39.4945 45.1251 40.3564 45.987 41.4197 45.987Z" fill="#27273D"/>
<path d="M46.4822 45.987C47.5454 45.987 48.4073 45.1251 48.4073 44.0619C48.4073 42.9986 47.5454 42.1367 46.4822 42.1367C45.4189 42.1367 44.557 42.9986 44.557 44.0619C44.557 45.1251 45.4189 45.987 46.4822 45.987Z" fill="#27273D"/>
<path d="M40.5844 57.8306H43.0102V59.7121C43.0102 60.034 42.8823 60.3427 42.6547 60.5703C42.4271 60.7979 42.1185 60.9257 41.7966 60.9257C41.4747 60.9257 41.1661 60.7979 40.9385 60.5703C40.7109 60.3427 40.583 60.034 40.583 59.7121V57.8306H40.5844Z" fill="#F6D372"/>
<path d="M47.8954 65.1431H45.4697V63.2615C45.4697 63.1021 45.5011 62.9443 45.562 62.7971C45.623 62.6498 45.7124 62.5161 45.8251 62.4034C45.9378 62.2907 46.0716 62.2013 46.2188 62.1403C46.3661 62.0793 46.5239 62.0479 46.6833 62.0479C47.0051 62.0479 47.3138 62.1758 47.5414 62.4034C47.769 62.631 47.8969 62.9396 47.8969 63.2615V65.1431H47.8954Z" fill="#F6D372"/>
<defs>
<clipPath id="clip0_2273_2057">
<rect width="4.74194" height="4.74194" fill="white" transform="translate(74.4838 14.1929)"/>
</clipPath>
</defs>
</svg>
