<svg width="28" height="28" viewBox="0 0 28 28" fill="none" xmlns="http://www.w3.org/2000/svg">
<path d="M12.1108 5.06364L2.75308 20.6856C2.56014 21.0197 2.45806 21.3985 2.45698 21.7843C2.4559 22.1702 2.55586 22.5495 2.74692 22.8847C2.93798 23.2199 3.21348 23.4992 3.54601 23.6949C3.87853 23.8906 4.2565 23.9958 4.6423 24H23.3577C23.7435 23.9958 24.1215 23.8906 24.454 23.6949C24.7865 23.4992 25.062 23.2199 25.2531 22.8847C25.4441 22.5495 25.5441 22.1702 25.543 21.7843C25.5419 21.3985 25.4398 21.0197 25.2469 20.6856L15.8892 5.06364C15.6923 4.73895 15.4149 4.4705 15.084 4.28419C14.7531 4.09788 14.3798 4 14 4C13.6202 4 13.2469 4.09788 12.916 4.28419C12.585 4.4705 12.3077 4.73895 12.1108 5.06364Z" stroke="#D6D9DF" stroke-width="2" stroke-linecap="round" stroke-linejoin="round"/>
</svg>
