<svg width="42" height="42" viewBox="0 0 42 42" fill="none" xmlns="http://www.w3.org/2000/svg">
<path fill-rule="evenodd" clip-rule="evenodd" d="M23.9142 21.3714C23.761 20.938 23.4772 20.5628 23.1018 20.2975C22.7265 20.0321 22.2782 19.8896 21.8185 19.8896V19.334H20.7073V19.8896C20.1179 19.8896 19.5526 20.1237 19.1358 20.5405C18.719 20.9573 18.4849 21.5226 18.4849 22.112C18.4849 22.7014 18.719 23.2667 19.1358 23.6835C19.5526 24.1003 20.1179 24.3344 20.7073 24.3344V26.5568C20.2239 26.5568 19.8122 26.2484 19.6589 25.8162C19.6361 25.7455 19.5994 25.68 19.5509 25.6237C19.5025 25.5675 19.4432 25.5215 19.3766 25.4885C19.31 25.4555 19.2375 25.4362 19.1634 25.4317C19.0892 25.4273 19.0149 25.4377 18.9449 25.4625C18.8748 25.4872 18.8105 25.5258 18.7556 25.5758C18.7007 25.6259 18.6564 25.6865 18.6253 25.7539C18.5942 25.8214 18.577 25.8944 18.5747 25.9687C18.5723 26.0429 18.5848 26.1169 18.6116 26.1862C18.7648 26.6196 19.0487 26.9948 19.424 27.2601C19.7993 27.5255 20.2476 27.668 20.7073 27.668V28.2236H21.8185V27.668C22.4079 27.668 22.9732 27.4339 23.39 27.0171C23.8068 26.6003 24.0409 26.035 24.0409 25.4456C24.0409 24.8562 23.8068 24.2909 23.39 23.8741C22.9732 23.4573 22.4079 23.2232 21.8185 23.2232V21.0008C22.0483 21.0007 22.2725 21.0719 22.4601 21.2046C22.6478 21.3372 22.7897 21.5248 22.8664 21.7414C22.9154 21.8804 23.0177 21.9941 23.1507 22.0577C23.2165 22.0892 23.2879 22.1074 23.3607 22.1112C23.4336 22.1151 23.5065 22.1046 23.5753 22.0803C23.6441 22.056 23.7075 22.0184 23.7617 21.9696C23.816 21.9209 23.8601 21.8619 23.8916 21.796C23.9231 21.7302 23.9413 21.6588 23.9452 21.586C23.949 21.5131 23.9385 21.4402 23.9142 21.3714ZM20.7073 21.0008C20.4126 21.0008 20.13 21.1179 19.9216 21.3263C19.7132 21.5346 19.5961 21.8173 19.5961 22.112C19.5961 22.4067 19.7132 22.6893 19.9216 22.8977C20.13 23.1061 20.4126 23.2232 20.7073 23.2232V21.0008ZM21.8185 26.5568C22.1132 26.5568 22.3959 26.4397 22.6042 26.2313C22.8126 26.023 22.9297 25.7403 22.9297 25.4456C22.9297 25.1509 22.8126 24.8683 22.6042 24.6599C22.3959 24.4515 22.1132 24.3344 21.8185 24.3344V26.5568Z" fill="#94D073"/>
<path fill-rule="evenodd" clip-rule="evenodd" d="M15.2363 12.4562C16.5997 11.789 18.8366 11 21.2846 11C23.6814 11 25.8594 11.7562 27.2156 12.4146L27.2923 12.4518C27.7012 12.654 28.0313 12.8452 28.2635 13.0002L26.2111 16.0004C30.9426 20.8375 34.5974 31 21.2846 31C7.97181 31 11.5282 21.0219 16.3008 16.0004L14.2618 13.0002C14.419 12.8974 14.6185 12.7779 14.8563 12.6512C14.9741 12.5879 15.1007 12.5223 15.2363 12.4562ZM24.8921 15.9604L26.535 13.5585C25.0071 13.6686 23.1892 14.0275 21.439 14.5342C20.1889 14.8953 18.7999 14.8403 17.5137 14.6031C17.1896 14.543 16.8677 14.4715 16.5486 14.3886L17.6154 15.9593C19.9017 16.7733 22.6052 16.7733 24.8921 15.9604ZM16.9737 16.906C19.6489 17.9395 22.8642 17.9395 25.5394 16.9049C26.6561 18.0821 27.5902 19.4198 28.3107 20.8736C29.0619 22.4059 29.4708 23.9377 29.4041 25.2579C29.3397 26.5318 28.8385 27.6203 27.694 28.4292C26.5011 29.2721 24.4948 29.8888 21.284 29.8888C18.0699 29.8888 16.0541 29.2826 14.8502 28.4492C13.6973 27.6503 13.1911 26.5769 13.1195 25.3201C13.0445 24.0144 13.4445 22.4904 14.1929 20.9475C14.9068 19.4763 15.903 18.06 16.9737 16.906ZM16.3347 13.1757C16.7792 13.308 17.2437 13.423 17.7148 13.5102C18.9094 13.7302 20.1073 13.7625 21.1296 13.4663C22.3209 13.1193 23.5326 12.8463 24.7576 12.649C23.7353 12.3412 22.5397 12.1112 21.284 12.1112C19.37 12.1112 17.5848 12.6451 16.3347 13.1757Z" fill="#94D073"/>
<path d="M21 41C18.3736 41 15.7728 40.4827 13.3463 39.4776C10.9198 38.4725 8.71503 36.9993 6.85786 35.1421C5.00069 33.285 3.5275 31.0802 2.52241 28.6537C1.51731 26.2272 1 23.6264 1 21C1 18.3736 1.51732 15.7728 2.52241 13.3463C3.5275 10.9198 5.00069 8.71503 6.85787 6.85786C8.71504 5.00069 10.9198 3.5275 13.3463 2.52241C15.7728 1.51731 18.3736 0.999999 21 1C23.6264 1 26.2272 1.51732 28.6537 2.52241C31.0802 3.52751 33.285 5.0007 35.1421 6.85787C36.9993 8.71504 38.4725 10.9198 39.4776 13.3463C40.4827 15.7728 41 18.3736 41 21C41 23.6264 40.4827 26.2272 39.4776 28.6537C38.4725 31.0802 36.9993 33.285 35.1421 35.1421C33.285 36.9993 31.0802 38.4725 28.6537 39.4776C26.2272 40.4827 23.6264 41 21 41L21 41Z" stroke="#CECECE" stroke-width="1.5"/>
<path d="M21 41C16.7976 41 12.702 39.6763 9.29457 37.2168C5.88713 34.7572 3.34099 31.2869 2.0176 27.2983C0.694211 23.3097 0.660812 19.0057 1.92215 14.997C3.18348 10.9884 5.67545 7.47897 9.04432 4.96686C12.4132 2.45475 16.4877 1.06763 20.6896 1.00241C24.8915 0.937192 29.0071 2.19719 32.4523 4.60355C35.8976 7.0099 38.4972 10.4403 39.8824 14.4079C41.2675 18.3754 41.3677 22.6785 40.1687 26.7062" stroke="#94D073" stroke-width="1.5" stroke-linecap="round"/>
</svg>
