<svg width="43" height="42" viewBox="0 0 43 42" fill="none" xmlns="http://www.w3.org/2000/svg">
<path d="M21.5 41C18.8736 41 16.2728 40.4827 13.8463 39.4776C11.4198 38.4725 9.21503 36.9993 7.35786 35.1421C5.50069 33.285 4.0275 31.0802 3.02241 28.6537C2.01731 26.2272 1.5 23.6264 1.5 21C1.5 18.3736 2.01732 15.7728 3.02241 13.3463C4.0275 10.9198 5.50069 8.71503 7.35787 6.85786C9.21504 5.00069 11.4198 3.5275 13.8463 2.52241C16.2728 1.51731 18.8736 0.999999 21.5 1C24.1264 1 26.7272 1.51732 29.1537 2.52241C31.5802 3.52751 33.785 5.0007 35.6421 6.85787C37.4993 8.71504 38.9725 10.9198 39.9776 13.3463C40.9827 15.7728 41.5 18.3736 41.5 21C41.5 23.6264 40.9827 26.2272 39.9776 28.6537C38.9725 31.0802 37.4993 33.285 35.6421 35.1421C33.785 36.9993 31.5802 38.4725 29.1537 39.4776C26.7272 40.4827 24.1264 41 21.5 41L21.5 41Z" stroke="#CECECE" stroke-width="1.5"/>
<path fill-rule="evenodd" clip-rule="evenodd" d="M24.1757 21.3714C24.0225 20.938 23.7386 20.5628 23.3633 20.2975C22.988 20.0321 22.5397 19.8896 22.08 19.8896V19.334H20.9688V19.8896C20.3794 19.8896 19.8141 20.1237 19.3973 20.5405C18.9805 20.9573 18.7464 21.5226 18.7464 22.112C18.7464 22.7014 18.9805 23.2667 19.3973 23.6835C19.8141 24.1003 20.3794 24.3344 20.9688 24.3344V26.5568C20.4854 26.5568 20.0737 26.2484 19.9204 25.8162C19.8976 25.7455 19.8609 25.68 19.8124 25.6237C19.764 25.5675 19.7047 25.5215 19.6381 25.4885C19.5715 25.4555 19.499 25.4362 19.4249 25.4317C19.3507 25.4273 19.2764 25.4377 19.2064 25.4625C19.1363 25.4872 19.072 25.5258 19.0171 25.5758C18.9622 25.6259 18.9179 25.6865 18.8868 25.7539C18.8557 25.8214 18.8385 25.8944 18.8361 25.9687C18.8338 26.0429 18.8463 26.1169 18.8731 26.1862C19.0263 26.6196 19.3101 26.9948 19.6855 27.2601C20.0608 27.5255 20.5091 27.668 20.9688 27.668V28.2236H22.08V27.668C22.6694 27.668 23.2347 27.4339 23.6515 27.0171C24.0683 26.6003 24.3024 26.035 24.3024 25.4456C24.3024 24.8562 24.0683 24.2909 23.6515 23.8741C23.2347 23.4573 22.6694 23.2232 22.08 23.2232V21.0008C22.3098 21.0007 22.534 21.0719 22.7216 21.2046C22.9093 21.3372 23.0512 21.5248 23.1279 21.7414C23.1769 21.8804 23.2792 21.9941 23.4121 22.0577C23.478 22.0892 23.5494 22.1074 23.6222 22.1112C23.6951 22.1151 23.768 22.1046 23.8368 22.0803C23.9056 22.056 23.969 22.0184 24.0232 21.9696C24.0775 21.9209 24.1216 21.8619 24.1531 21.796C24.1846 21.7302 24.2028 21.6588 24.2066 21.586C24.2105 21.5131 24.2 21.4402 24.1757 21.3714ZM20.9688 21.0008C20.6741 21.0008 20.3914 21.1179 20.1831 21.3263C19.9747 21.5346 19.8576 21.8173 19.8576 22.112C19.8576 22.4067 19.9747 22.6893 20.1831 22.8977C20.3914 23.1061 20.6741 23.2232 20.9688 23.2232V21.0008ZM22.08 26.5568C22.3747 26.5568 22.6573 26.4397 22.8657 26.2313C23.0741 26.023 23.1912 25.7403 23.1912 25.4456C23.1912 25.1509 23.0741 24.8683 22.8657 24.6599C22.6573 24.4515 22.3747 24.3344 22.08 24.3344V26.5568Z" fill="#CECECE"/>
<path fill-rule="evenodd" clip-rule="evenodd" d="M15.4978 12.4562C16.8612 11.789 19.0981 11 21.5461 11C23.9429 11 26.1209 11.7562 27.4771 12.4146L27.5538 12.4518C27.9627 12.654 28.2927 12.8452 28.525 13.0002L26.4726 16.0004C31.2041 20.8375 34.8588 31 21.5461 31C8.23328 31 11.7897 21.0219 16.5623 16.0004L14.5232 13.0002C14.6805 12.8974 14.8799 12.7779 15.1177 12.6512C15.2355 12.5879 15.3622 12.5223 15.4978 12.4562ZM25.1536 15.9604L26.7965 13.5585C25.2686 13.6686 23.4507 14.0275 21.7005 14.5342C20.4504 14.8953 19.0614 14.8403 17.7752 14.6031C17.4511 14.543 17.1292 14.4715 16.8101 14.3886L17.8769 15.9593C20.1632 16.7733 22.8667 16.7733 25.1536 15.9604ZM17.2351 16.906C19.9104 17.9395 23.1256 17.9395 25.8009 16.9049C26.9175 18.0821 27.8517 19.4198 28.5722 20.8736C29.3234 22.4059 29.7323 23.9377 29.6656 25.2579C29.6012 26.5318 29.1 27.6203 27.9555 28.4292C26.7626 29.2721 24.7563 29.8888 21.5455 29.8888C18.3313 29.8888 16.3156 29.2826 15.1116 28.4492C13.9588 27.6503 13.4526 26.5769 13.3809 25.3201C13.3059 24.0144 13.706 22.4904 14.4544 20.9475C15.1683 19.4763 16.1645 18.06 17.2351 16.906ZM16.5962 13.1757C17.0407 13.308 17.5052 13.423 17.9763 13.5102C19.1709 13.7302 20.3687 13.7625 21.391 13.4663C22.5824 13.1193 23.7941 12.8463 25.0191 12.649C23.9968 12.3412 22.8012 12.1112 21.5455 12.1112C19.6315 12.1112 17.8463 12.6451 16.5962 13.1757Z" fill="#CECECE"/>
</svg>
