<svg width="42" height="42" viewBox="0 0 42 42" fill="none" xmlns="http://www.w3.org/2000/svg">
<path d="M21 41C18.3736 41 15.7728 40.4827 13.3463 39.4776C10.9198 38.4725 8.71503 36.9993 6.85786 35.1421C5.00069 33.285 3.5275 31.0802 2.52241 28.6537C1.51731 26.2272 1 23.6264 1 21C1 18.3736 1.51732 15.7728 2.52241 13.3463C3.5275 10.9198 5.00069 8.71503 6.85787 6.85786C8.71504 5.00069 10.9198 3.5275 13.3463 2.52241C15.7728 1.51731 18.3736 0.999999 21 1C23.6264 1 26.2272 1.51732 28.6537 2.52241C31.0802 3.52751 33.285 5.0007 35.1421 6.85787C36.9993 8.71504 38.4725 10.9198 39.4776 13.3463C40.4827 15.7728 41 18.3736 41 21C41 23.6264 40.4827 26.2272 39.4776 28.6537C38.4725 31.0802 36.9993 33.285 35.1421 35.1421C33.285 36.9993 31.0802 38.4725 28.6537 39.4776C26.2272 40.4827 23.6264 41 21 41L21 41Z" stroke="#CECECE" stroke-width="1.5"/>
<path d="M21 41C16.7976 41 12.702 39.6763 9.29457 37.2168C5.88713 34.7572 3.34099 31.2869 2.0176 27.2983C0.694211 23.3097 0.660812 19.0057 1.92215 14.997C3.18348 10.9884 5.67545 7.47897 9.04432 4.96686C12.4132 2.45475 16.4877 1.06763 20.6896 1.00241C24.8915 0.937192 29.0071 2.19719 32.4523 4.60355C35.8976 7.0099 38.4972 10.4403 39.8824 14.4079C41.2675 18.3754 41.3677 22.6785 40.1687 26.7062" stroke="#94D073" stroke-width="1.5" stroke-linecap="round"/>
<path d="M30.8675 14.9771C30.8144 14.9133 30.7479 14.862 30.6728 14.8268C30.5976 14.7916 30.5157 14.7733 30.4327 14.7733H15.0563L14.5686 12.0848C14.5134 11.7804 14.353 11.505 14.1154 11.3067C13.8778 11.1084 13.5782 10.9999 13.2687 11H11.566C11.4159 11 11.2719 11.0596 11.1658 11.1658C11.0596 11.2719 11 11.4159 11 11.566C11 11.7161 11.0596 11.8601 11.1658 11.9662C11.2719 12.0724 11.4159 12.132 11.566 12.132H13.264C13.3087 12.1313 13.3522 12.1464 13.3867 12.1748C13.4213 12.2031 13.4446 12.2428 13.4527 12.2867L15.8591 25.5217C15.9354 25.9439 16.1412 26.3319 16.4477 26.632C16.0775 26.9281 15.801 27.3252 15.6518 27.7752C15.5025 28.2251 15.4869 28.7087 15.6068 29.1674C15.7266 29.6261 15.9768 30.0402 16.3272 30.3597C16.6775 30.6791 17.1129 30.8902 17.5806 30.9673C18.0484 31.0445 18.5285 30.9844 18.9628 30.7943C19.3972 30.6043 19.7671 30.2925 20.0279 29.8966C20.2887 29.5007 20.4292 29.0376 20.4323 28.5636C20.4355 28.0895 20.3012 27.6247 20.0456 27.2253H24.9717C24.6784 27.6843 24.5462 28.2279 24.5961 28.7704C24.6459 29.3128 24.8749 29.8232 25.2469 30.2211C25.6189 30.619 26.1128 30.8817 26.6507 30.9678C27.1886 31.0539 27.7398 30.9585 28.2175 30.6967C28.6951 30.4348 29.072 30.0214 29.2887 29.5217C29.5054 29.0219 29.5495 28.4642 29.4142 27.9366C29.2789 27.409 28.9717 26.9414 28.5412 26.6076C28.1107 26.2739 27.5814 26.0929 27.0367 26.0933H17.9024C17.6814 26.0934 17.4675 26.0159 17.2979 25.8743C17.1283 25.7328 17.0137 25.5362 16.9741 25.3189L16.6345 23.452H27.8008C28.2868 23.4521 28.7575 23.2817 29.1307 22.9703C29.5039 22.659 29.756 22.2265 29.8431 21.7483L30.9892 15.4403C31.004 15.3589 31.0008 15.2752 30.9798 15.1952C30.9588 15.1152 30.9204 15.0407 30.8675 14.9771ZM19.3013 28.546C19.3013 28.8072 19.2239 29.0625 19.0788 29.2797C18.9336 29.4969 18.7274 29.6662 18.4861 29.7661C18.2447 29.8661 17.9792 29.8922 17.723 29.8413C17.4668 29.7903 17.2315 29.6645 17.0468 29.4798C16.8621 29.2952 16.7363 29.0598 16.6854 28.8036C16.6344 28.5475 16.6606 28.2819 16.7605 28.0406C16.8605 27.7993 17.0298 27.593 17.2469 27.4479C17.4641 27.3028 17.7195 27.2253 17.9807 27.2253C18.3309 27.2253 18.6668 27.3645 18.9145 27.6121C19.1622 27.8598 19.3013 28.1957 19.3013 28.546ZM28.3573 28.546C28.3573 28.8072 28.2799 29.0625 28.1348 29.2797C27.9896 29.4969 27.7834 29.6662 27.5421 29.7661C27.3007 29.8661 27.0352 29.8922 26.779 29.8413C26.5228 29.7903 26.2875 29.6645 26.1028 29.4798C25.9181 29.2952 25.7923 29.0598 25.7414 28.8036C25.6904 28.5475 25.7166 28.2819 25.8165 28.0406C25.9165 27.7993 26.0858 27.593 26.3029 27.4479C26.5201 27.3028 26.7755 27.2253 27.0367 27.2253C27.3869 27.2253 27.7228 27.3645 27.9705 27.6121C28.2182 27.8598 28.3573 28.1957 28.3573 28.546ZM28.729 21.5455C28.6895 21.7629 28.5749 21.9595 28.4052 22.101C28.2356 22.2425 28.0217 22.32 27.8008 22.32H16.4289L15.2629 15.9053H29.7544L28.729 21.5455Z" fill="#94D073"/>
</svg>
