<svg width="22" height="20" viewBox="0 0 22 20" fill="none" xmlns="http://www.w3.org/2000/svg">
<g clip-path="url(#clip0_1227_1395)">
<path d="M19.5 10C19.5 5.36678 15.3545 2 10.75 2C6.14547 2 2 5.36678 2 10C2 14.6332 6.14547 18 10.75 18C15.3545 18 19.5 14.6332 19.5 10Z" fill="#E6E3D8" stroke="#E6E3D8" stroke-width="4"/>
<path d="M15.5949 11.1966L9.23283 14.8881C8.6929 15.2011 8 14.8221 8 14.1912V6.80823C8 6.17832 8.6919 5.79838 9.23283 6.11233L15.5949 9.80381C15.7178 9.87393 15.8198 9.97528 15.8909 10.0976C15.9619 10.2199 15.9993 10.3588 15.9993 10.5002C15.9993 10.6416 15.9619 10.7805 15.8909 10.9029C15.8198 11.0252 15.7178 11.1265 15.5949 11.1966Z" fill="#838FA0"/>
</g>
<defs>
<clipPath id="clip0_1227_1395">
<rect width="22" height="20" fill="white"/>
</clipPath>
</defs>
</svg>
