<svg width="20" height="20" viewBox="0 0 20 20" fill="none" xmlns="http://www.w3.org/2000/svg">
<g clip-path="url(#clip0_1228_1408)">
<path d="M18 10C18 5.58172 14.4183 2 10 2C5.58172 2 2 5.58172 2 10C2 14.4183 5.58172 18 10 18C14.4183 18 18 14.4183 18 10Z" fill="#94D073" stroke="#94D073" stroke-width="4"/>
<path d="M18 10C18 5.58172 14.4183 2 10 2C5.58172 2 2 5.58172 2 10C2 14.4183 5.58172 18 10 18C14.4183 18 18 14.4183 18 10Z" fill="#94D073" stroke="#94D073" stroke-width="4"/>
<path d="M14.0949 11.1966L7.73283 14.8881C7.1929 15.2011 6.5 14.8221 6.5 14.1912V6.80823C6.5 6.17832 7.1919 5.79838 7.73283 6.11233L14.0949 9.80381C14.2178 9.87393 14.3198 9.97528 14.3909 10.0976C14.4619 10.2199 14.4993 10.3588 14.4993 10.5002C14.4993 10.6416 14.4619 10.7805 14.3909 10.9029C14.3198 11.0252 14.2178 11.1265 14.0949 11.1966Z" fill="white"/>
</g>
<defs>
<clipPath id="clip0_1228_1408">
<rect width="20" height="20" fill="white"/>
</clipPath>
</defs>
</svg>
