<svg width="16" height="18" viewBox="0 0 16 18" fill="none" xmlns="http://www.w3.org/2000/svg">
<path d="M14.73 8.99879L14.73 9.00121C14.7304 9.14998 14.6923 9.29631 14.6193 9.42596C14.5464 9.55562 14.4411 9.6642 14.3138 9.74113L14.3138 9.74112L14.3115 9.74256L1.84359 17.3697L1.84341 17.3698C1.70911 17.452 1.5553 17.4969 1.39786 17.4998C1.24041 17.5028 1.08505 17.4636 0.9478 17.3864L0.946668 17.3858C0.811407 17.3101 0.698731 17.1998 0.620228 17.0662C0.541779 16.9327 0.500284 16.7807 0.5 16.6259V1.37413C0.500284 1.21928 0.541779 1.06729 0.620228 0.933772C0.698732 0.800161 0.811408 0.689871 0.946668 0.614244L0.946669 0.614245L0.947801 0.613609C1.08505 0.536403 1.24041 0.497236 1.39786 0.500152C1.5553 0.503067 1.70911 0.54796 1.84341 0.630194L1.84359 0.630309L14.3115 8.25745L14.3138 8.25887C14.4411 8.3358 14.5464 8.44438 14.6193 8.57404C14.6923 8.70369 14.7304 8.85002 14.73 8.99879Z" fill="#9ED480" stroke="white"/>
</svg>
