<svg width="22" height="20" viewBox="0 0 22 20" fill="none" xmlns="http://www.w3.org/2000/svg">
<g clip-path="url(#clip0_2212_1890)">
<path d="M19.5 10C19.5 5.36678 15.3545 2 10.75 2C6.14547 2 2 5.36678 2 10C2 14.6332 6.14547 18 10.75 18C15.3545 18 19.5 14.6332 19.5 10Z" fill="#EAF0CF" stroke="#EAF0CF" stroke-width="4"/>
<path d="M14.5949 11.1966L8.23283 14.8881C7.6929 15.2011 7 14.8221 7 14.1912V6.80823C7 6.17832 7.6919 5.79838 8.23283 6.11233L14.5949 9.80381C14.7178 9.87393 14.8198 9.97528 14.8909 10.0976C14.9619 10.2199 14.9993 10.3588 14.9993 10.5002C14.9993 10.6416 14.9619 10.7806 14.8909 10.9029C14.8198 11.0252 14.7178 11.1265 14.5949 11.1966Z" fill="#94D073"/>
</g>
<defs>
<clipPath id="clip0_2212_1890">
<rect width="22" height="20" fill="white"/>
</clipPath>
</defs>
</svg>
