<svg width="48" height="48" viewBox="0 0 48 48" fill="none" xmlns="http://www.w3.org/2000/svg">
<path d="M47.2816 29.8062C44.0758 42.6634 31.0521 50.4882 18.192 47.2819C5.33717 44.0764 -2.48842 31.0534 0.718921 18.1969C3.92326 5.33819 16.9469 -2.4873 29.8033 0.718197C42.6626 3.9237 50.4875 16.9482 47.2816 29.8062Z" fill="#F2F9EF"/>
<g clip-path="url(#clip0_3286_4231)">
<path d="M20.4286 15H15.2857C14.5756 15 14 15.5756 14 16.2857V21.4286C14 22.1387 14.5756 22.7143 15.2857 22.7143H20.4286C21.1387 22.7143 21.7143 22.1387 21.7143 21.4286V16.2857C21.7143 15.5756 21.1387 15 20.4286 15Z" stroke="#94D073" stroke-width="1.3" stroke-linecap="round" stroke-linejoin="round"/>
<path d="M14 30.4285L16.5714 32.9999L21.7143 27.8571M26.8571 16.2856H37.1429M26.8571 23.9999H37.1429M26.8571 31.7142H37.1429" stroke="#94D073" stroke-width="1.3" stroke-linecap="round" stroke-linejoin="round"/>
</g>
<defs>
<clipPath id="clip0_3286_4231">
<rect width="26" height="26" fill="white" transform="translate(11 11)"/>
</clipPath>
</defs>
</svg>
