<svg width="48" height="48" viewBox="0 0 48 48" fill="none" xmlns="http://www.w3.org/2000/svg">
<path d="M47.2816 29.8062C44.0758 42.6634 31.0521 50.4882 18.192 47.2819C5.33717 44.0764 -2.48842 31.0534 0.718921 18.1969C3.92326 5.33819 16.9469 -2.4873 29.8033 0.718197C42.6626 3.9237 50.4875 16.9482 47.2816 29.8062Z" fill="#F2F9EF"/>
<path d="M33.1365 23H30.1365C29.7387 23 29.3571 23.158 29.0758 23.4393C28.7945 23.7207 28.6365 24.1022 28.6365 24.5V28.25C28.6365 28.6478 28.7945 29.0294 29.0758 29.3107C29.3571 29.592 29.7387 29.75 30.1365 29.75H31.6365C32.0343 29.75 32.4158 29.592 32.6971 29.3107C32.9784 29.0294 33.1365 28.6478 33.1365 28.25V23ZM33.1365 23C33.1365 21.8124 32.9014 20.6365 32.4449 19.5401C31.9883 18.4437 31.3192 17.4486 30.4763 16.612C29.6333 15.7754 28.6331 15.1139 27.5333 14.6656C26.4335 14.2174 25.2558 13.9913 24.0682 14.0003C22.8806 13.9913 21.703 14.2174 20.6032 14.6656C19.5034 15.1139 18.5032 15.7754 17.6602 16.612C16.8172 17.4486 16.1482 18.4437 15.6916 19.5401C15.2351 20.6365 15 21.8124 15 23V28.25C15 28.6478 15.158 29.0294 15.4393 29.3107C15.7206 29.592 16.1022 29.75 16.5 29.75H18C18.3978 29.75 18.7794 29.592 19.0607 29.3107C19.342 29.0294 19.5 28.6478 19.5 28.25V24.5C19.5 24.1022 19.342 23.7207 19.0607 23.4393C18.7794 23.158 18.3978 23 18 23H15" stroke="#94D073" stroke-width="1.5" stroke-linecap="round" stroke-linejoin="round"/>
<path d="M33.1365 28.25V30.5C33.1365 31.2956 32.8204 32.0587 32.2578 32.6213C31.6952 33.1839 30.9321 33.5 30.1365 33.5H24.75" stroke="#94D073" stroke-width="1.5" stroke-linecap="round" stroke-linejoin="round"/>
</svg>
