<svg width="48" height="48" viewBox="0 0 48 48" fill="none" xmlns="http://www.w3.org/2000/svg">
<path d="M47.2816 29.8062C44.0758 42.6634 31.0521 50.4882 18.192 47.2819C5.33717 44.0764 -2.48842 31.0534 0.718921 18.1969C3.92326 5.33819 16.9469 -2.4873 29.8033 0.718197C42.6626 3.9237 50.4875 16.9482 47.2816 29.8062Z" fill="#F2F9EF"/>
<path d="M17 15L14 19V33C14 33.5304 14.2107 34.0391 14.5858 34.4142C14.9609 34.7893 15.4696 35 16 35H30C30.5304 35 31.0391 34.7893 31.4142 34.4142C31.7893 34.0391 32 33.5304 32 33V19L29 15H17Z" stroke="#94D073" stroke-linecap="round" stroke-linejoin="round"/>
<path d="M14 19H32" stroke="#94D073" stroke-linecap="round" stroke-linejoin="round"/>
<path d="M27 23C27 24.0609 26.5786 25.0783 25.8284 25.8284C25.0783 26.5786 24.0609 27 23 27C21.9391 27 20.9217 26.5786 20.1716 25.8284C19.4214 25.0783 19 24.0609 19 23" stroke="#94D073" stroke-linecap="round" stroke-linejoin="round"/>
</svg>
