<svg width="48" height="48" viewBox="0 0 48 48" fill="none" xmlns="http://www.w3.org/2000/svg">
<path d="M47.2816 29.8062C44.0758 42.6634 31.0521 50.4882 18.192 47.2819C5.33717 44.0764 -2.48842 31.0534 0.718921 18.1969C3.92326 5.33819 16.9469 -2.4873 29.8033 0.718197C42.6626 3.9237 50.4875 16.9482 47.2816 29.8062Z" fill="#F2F9EF"/>
<path d="M22.2049 15.2683C22.3024 14.6812 22.8116 14.25 23.4074 14.25H24.5915C25.1873 14.25 25.6965 14.6812 25.794 15.2683L25.9554 16.2368C26.0312 16.6962 26.3714 17.0645 26.8004 17.2443C27.2316 17.422 27.7267 17.3982 28.1058 17.1273L28.9042 16.5564C29.1391 16.3886 29.4258 16.3095 29.7135 16.3333C30.0012 16.3571 30.271 16.4822 30.4751 16.6864L31.3125 17.5249C31.735 17.9463 31.7892 18.6104 31.4425 19.0958L30.8716 19.8942C30.6007 20.2733 30.5769 20.7673 30.7557 21.1985C30.9344 21.6286 31.3027 21.9677 31.7632 22.0435L32.7306 22.206C33.3188 22.3035 33.7489 22.8127 33.7489 23.4074V24.5926C33.7489 25.1884 33.3188 25.6976 32.7306 25.7951L31.7632 25.9565C31.3027 26.0323 30.9344 26.3714 30.7557 26.8015C30.5769 27.2327 30.6007 27.7267 30.8716 28.1058L31.4425 28.9053C31.7892 29.3896 31.7339 30.0537 31.3125 30.4762L30.474 31.3136C30.27 31.5175 30.0004 31.6424 29.7129 31.6662C29.4255 31.69 29.139 31.6112 28.9042 31.4436L28.1047 30.8727C27.7256 30.6018 27.2316 30.578 26.8015 30.7568C26.3714 30.9355 26.0323 31.3038 25.9554 31.7632L25.794 32.7317C25.6965 33.3188 25.1873 33.75 24.5915 33.75H23.4063C22.8105 33.75 22.3024 33.3188 22.2038 32.7317L22.0435 31.7632C21.9666 31.3038 21.6275 30.9355 21.1974 30.7557C20.7662 30.578 20.2722 30.6018 19.8931 30.8727L19.0936 31.4436C18.6093 31.7903 17.9452 31.735 17.5227 31.3136L16.6853 30.4751C16.4811 30.2711 16.356 30.0012 16.3322 29.7135C16.3084 29.4258 16.3875 29.1391 16.5553 28.9043L17.1262 28.1058C17.3971 27.7267 17.422 27.2327 17.2432 26.8015C17.0645 26.3714 16.6962 26.0323 16.2357 25.9565L15.2672 25.794C14.6801 25.6965 14.2489 25.1873 14.2489 24.5926V23.4074C14.2489 22.8116 14.6801 22.3024 15.2672 22.2049L16.2357 22.0435C16.6951 21.9677 17.0645 21.6286 17.2432 21.1985C17.422 20.7673 17.3982 20.2733 17.1273 19.8942L16.5564 19.0947C16.3885 18.8598 16.3095 18.5731 16.3333 18.2854C16.3571 17.9977 16.4822 17.7279 16.6864 17.5238L17.5238 16.6864C17.7278 16.4822 17.9977 16.3571 18.2854 16.3333C18.5731 16.3095 18.8598 16.3886 19.0947 16.5564L19.8931 17.1273C20.2722 17.3982 20.7673 17.422 21.1974 17.2433C21.6275 17.0645 21.9666 16.6962 22.0424 16.2368L22.2049 15.2683Z" stroke="#94D073" stroke-width="2" stroke-linecap="round" stroke-linejoin="round"/>
<path d="M27.25 24C27.25 24.862 26.9076 25.6886 26.2981 26.2981C25.6886 26.9076 24.862 27.25 24 27.25C23.138 27.25 22.3114 26.9076 21.7019 26.2981C21.0924 25.6886 20.75 24.862 20.75 24C20.75 23.138 21.0924 22.3114 21.7019 21.7019C22.3114 21.0924 23.138 20.75 24 20.75" stroke="#94D073" stroke-width="2" stroke-linecap="round" stroke-linejoin="round"/>
</svg>
