<svg width="48" height="48" viewBox="0 0 48 48" fill="none" xmlns="http://www.w3.org/2000/svg">
<path d="M47.2816 29.8062C44.0758 42.6634 31.0521 50.4882 18.192 47.2819C5.33717 44.0764 -2.48842 31.0534 0.718921 18.1969C3.92326 5.33819 16.9469 -2.4873 29.8033 0.718197C42.6626 3.9237 50.4875 16.9482 47.2816 29.8062Z" fill="#FAEEEE"/>
<path d="M27.25 29.4167L27.25 30.75C27.25 32.4069 25.9069 33.75 24.25 33.75L17.25 33.75C15.5931 33.75 14.25 32.4069 14.25 30.75L14.25 17.25C14.25 15.5931 15.5931 14.25 17.25 14.25L24.25 14.25C25.9069 14.25 27.25 15.5931 27.25 17.25L27.25 18.5833" stroke="#DD5050" stroke-width="2" stroke-linecap="round" stroke-linejoin="round"/>
<path d="M31.2222 27.25L33.75 24M33.75 24L31.2222 20.75M33.75 24L20.75 24" stroke="#DD5050" stroke-width="2" stroke-linecap="round" stroke-linejoin="round"/>
</svg>
