<svg width="48" height="48" viewBox="0 0 48 48" fill="none" xmlns="http://www.w3.org/2000/svg">
<path d="M47.2816 29.8062C44.0758 42.6634 31.0521 50.4882 18.192 47.2819C5.33717 44.0764 -2.48842 31.0534 0.718921 18.1969C3.92326 5.33819 16.9469 -2.4873 29.8033 0.718197C42.6626 3.9237 50.4875 16.9482 47.2816 29.8062Z" fill="#F2F9EF"/>
<path d="M18.0556 17.25H16.4005C16.3667 17.25 16.3343 17.2632 16.3104 17.2866C16.2866 17.3101 16.2731 17.3418 16.2731 17.375V20.5625C16.2732 21.0674 16.4511 21.5567 16.7766 21.9475C17.1021 22.3383 17.5552 22.6067 18.0591 22.707C18.0567 22.638 18.0555 22.569 18.0556 22.5V17.25ZM18.2455 23.991C17.3636 23.9275 16.5388 23.5387 15.9367 22.9027C15.3347 22.2668 15.0001 21.4307 15 20.5625V17.375C15 17.0103 15.1475 16.6606 15.4102 16.4027C15.6728 16.1449 16.029 16 16.4005 16H18.0591C18.1253 14.885 19.0675 14 20.2199 14H28.1134C28.6654 14 29.1966 14.207 29.5983 14.5788C29.9999 14.9506 30.2417 15.459 30.2742 16H31.9329C32.3043 16 32.6605 16.1449 32.9231 16.4027C33.1858 16.6606 33.3333 17.0103 33.3333 17.375V20.5625C33.3333 22.3765 31.9023 23.8625 30.0878 23.991C29.4635 26.388 27.3689 28.207 24.8032 28.468V30.25H27.7315C28.4068 30.25 29.0545 30.5134 29.532 30.9822C30.0095 31.4511 30.2778 32.087 30.2778 32.75V33C30.2778 33.2652 30.1705 33.5196 29.9795 33.7071C29.7885 33.8946 29.5294 34 29.2593 34H19.0741C18.8039 34 18.5449 33.8946 18.3539 33.7071C18.1629 33.5196 18.0556 33.2652 18.0556 33V32.75C18.0556 32.087 18.3238 31.4511 18.8013 30.9822C19.2789 30.5134 19.9265 30.25 20.6019 30.25H23.5301V28.468C20.9644 28.207 18.8704 26.388 18.2455 23.991ZM30.2742 22.707C31.2927 22.5055 32.0602 21.622 32.0602 20.5625V17.375C32.0602 17.3418 32.0468 17.3101 32.0229 17.2866C31.999 17.2632 31.9666 17.25 31.9329 17.25H30.2778V22.5C30.2778 22.5695 30.2768 22.638 30.2742 22.707ZM19.3287 16.125V22.5C19.3287 23.7598 19.8384 24.968 20.7457 25.8588C21.653 26.7496 22.8836 27.25 24.1667 27.25C25.4498 27.25 26.6803 26.7496 27.5876 25.8588C28.4949 24.968 29.0046 23.7598 29.0046 22.5V16.125C29.0046 15.8929 28.9107 15.6704 28.7436 15.5063C28.5765 15.3422 28.3498 15.25 28.1134 15.25H20.2199C19.9835 15.25 19.7569 15.3422 19.5897 15.5063C19.4226 15.6704 19.3287 15.8929 19.3287 16.125ZM19.3287 32.75H29.0046C29.0046 32.4185 28.8705 32.1005 28.6317 31.8661C28.393 31.6317 28.0691 31.5 27.7315 31.5H20.6019C20.2642 31.5 19.9404 31.6317 19.7016 31.8661C19.4628 32.1005 19.3287 32.4185 19.3287 32.75Z" fill="#94D073"/>
</svg>
