<svg width="48" height="48" viewBox="0 0 48 48" fill="none" xmlns="http://www.w3.org/2000/svg">
<path d="M47.2816 29.8062C44.0758 42.6634 31.0521 50.4882 18.192 47.2819C5.33717 44.0764 -2.48842 31.0534 0.718921 18.1969C3.92326 5.33819 16.9469 -2.4873 29.8033 0.718197C42.6626 3.9237 50.4875 16.9482 47.2816 29.8062Z" fill="#F2F9EF"/>
<path d="M20.75 16.687V31.312" stroke="#94D073" stroke-width="1.5" stroke-linecap="round" stroke-linejoin="round"/>
<path d="M13.4375 27.9798C13.4375 27.7926 13.5022 27.6112 13.6206 27.4662C13.7391 27.3213 13.904 27.2218 14.0874 27.1845C14.8215 27.0345 15.4812 26.6356 15.9549 26.0553C16.4287 25.4749 16.6875 24.7487 16.6875 23.9995C16.6875 23.2503 16.4287 22.5241 15.9549 21.9437C15.4812 21.3634 14.8215 20.9645 14.0874 20.8145C13.904 20.7773 13.7391 20.6777 13.6206 20.5328C13.5022 20.3879 13.4375 20.2064 13.4375 20.0193V17.4995C13.4375 17.284 13.5231 17.0774 13.6755 16.925C13.8278 16.7726 14.0345 16.687 14.25 16.687H33.75C33.9655 16.687 34.1722 16.7726 34.3245 16.925C34.4769 17.0774 34.5625 17.284 34.5625 17.4995V20.0193C34.5625 20.2064 34.4978 20.3879 34.3794 20.5328C34.2609 20.6778 34.096 20.7773 33.9126 20.8145C33.1785 20.9645 32.5188 21.3634 32.0451 21.9438C31.5713 22.5241 31.3125 23.2503 31.3125 23.9995C31.3125 24.7487 31.5713 25.4749 32.0451 26.0553C32.5188 26.6356 33.1785 27.0346 33.9126 27.1845C34.096 27.2218 34.2609 27.3213 34.3794 27.4662C34.4978 27.6112 34.5625 27.7926 34.5625 27.9798V30.4995C34.5625 30.715 34.4769 30.9217 34.3245 31.074C34.1722 31.2264 33.9655 31.312 33.75 31.312H14.25C14.0345 31.312 13.8278 31.2264 13.6755 31.074C13.5231 30.9217 13.4375 30.715 13.4375 30.4995V27.9798Z" stroke="#94D073" stroke-width="1.5" stroke-linecap="round" stroke-linejoin="round"/>
</svg>
