<svg width="48" height="48" viewBox="0 0 48 48" fill="none" xmlns="http://www.w3.org/2000/svg">
<path d="M47.2816 29.8062C44.0758 42.6634 31.0521 50.4882 18.192 47.2819C5.33717 44.0764 -2.48842 31.0534 0.718921 18.1969C3.92326 5.33819 16.9469 -2.4873 29.8033 0.718197C42.6626 3.9237 50.4875 16.9482 47.2816 29.8062Z" fill="#F2F9EF"/>
<path d="M24.913 29H32.087M24.913 29L23 33M24.913 29L27.7783 23.009C28.0092 22.5263 28.1246 22.2849 28.2826 22.2086C28.4199 22.1423 28.5801 22.1423 28.7174 22.2086C28.8754 22.2849 28.9908 22.5263 29.2217 23.009L32.087 29M32.087 29L34 33M14 17H20M20 17H23.5M20 17V15M23.5 17H26M23.5 17C23.0039 19.9573 21.8526 22.6362 20.1655 24.8844M22 26C21.3875 25.7248 20.7626 25.3421 20.1655 24.8844M20.1655 24.8844C18.813 23.8478 17.6028 22.4266 17 21M20.1655 24.8844C18.5609 27.0229 16.4714 28.7718 14 30" stroke="#94D073" stroke-width="1.5" stroke-linecap="round" stroke-linejoin="round"/>
</svg>
