<?xml version="1.0" encoding="UTF-8"?><svg id="Lager_2" xmlns="http://www.w3.org/2000/svg" xmlns:xlink="http://www.w3.org/1999/xlink" viewBox="0 0 130 130"><defs><style>.cls-1{fill:#ffdfc8;}.cls-2{fill:#ffefe3;}.cls-3{fill:#fff7f1;}.cls-4{fill:#94d073;}.cls-5{fill:rgba(255,255,255,.3);stroke:url(#Namnlös_övertoning);}.cls-6{stroke:#f2f9ef;stroke-linejoin:round;stroke-width:2px;}.cls-6,.cls-7{fill:none;stroke-linecap:round;}.cls-7{stroke:#94d073;stroke-dasharray:0 0 8 8;stroke-width:3px;}</style><linearGradient id="Namnlös_övertoning" x1="65" y1="192.46" x2="65" y2="153.44" gradientTransform="translate(0 211.33) scale(1 -1)" gradientUnits="userSpaceOnUse"><stop offset="0" stop-color="#94d073" stop-opacity="0"/><stop offset="1" stop-color="#94d073"/></linearGradient></defs><g id="Lager_1-2"><circle class="cls-1" cx="65" cy="65" r="65"/><rect class="cls-3" x="17.33" y="37.83" width="95.33" height="65" rx="18.9" ry="18.9"/><path class="cls-2" d="m21.67,48.09c0-3.27,2.65-5.92,5.92-5.92h74.82c3.27,0,5.92,2.65,5.92,5.92,0,2.17-1.18,4.16-3.09,5.2l-32.11,17.49c-5.07,2.76-11.2,2.76-16.27,0l-32.11-17.49c-1.9-1.04-3.09-3.03-3.09-5.2Z"/><path class="cls-7" d="m36.97,107.84c2.66-12.08,21.27-31.38,40.63-24.5,30.61,10.87,36.12-10.48,42.08-20.02"/><circle class="cls-5" cx="65" cy="32.96" r="13.58"/><circle class="cls-4" cx="65" cy="32.96" r="11.37"/><path class="cls-6" d="m65.6,31.3c.32.16.61.39.82.67.22.29.36.62.42.98.06.35.04.72-.07,1.06-.11.34-.3.65-.55.91l-2.25,2.25c-.42.42-.99.66-1.59.66s-1.17-.24-1.59-.66c-.42-.42-.66-.99-.66-1.59m.66-1.59l.88-.88m6.67-.31l.88-.88c.42-.42.66-.99.66-1.59s-.24-1.17-.66-1.59c-.42-.42-.99-.66-1.59-.66s-1.17.24-1.59.66l-2.25,2.25c-.25.25-.44.57-.55.91-.11.34-.13.71-.07,1.06.06.35.21.69.42.98.22.29.5.52.82.67"/></g></svg>