<svg width="16" height="26" viewBox="0 0 16 26" fill="none" xmlns="http://www.w3.org/2000/svg">
<path d="M10.2828 13.0049L0.617977 22.6657C0.222052 23.0334 0 23.5295 0 24.0465C0 24.5635 0.222052 25.0597 0.617977 25.4273C0.812732 25.6087 1.04482 25.7527 1.30074 25.8511C1.55667 25.9494 1.83133 26 2.10875 26C2.38618 26 2.66084 25.9494 2.91676 25.8511C3.17269 25.7527 3.40477 25.6087 3.59953 25.4273L15.3842 14.3808C15.7788 14.0125 16 13.5166 16 13C16 12.4834 15.7788 11.9875 15.3842 11.6192L3.59953 0.57268C3.40477 0.391292 3.17269 0.247256 2.91676 0.148943C2.66084 0.0506299 2.38618 0 2.10875 0C1.83133 0 1.55667 0.0506299 1.30074 0.148943C1.04482 0.247256 0.812732 0.391292 0.617977 0.57268C0.222052 0.940337 0 1.43649 0 1.95349C0 2.4705 0.222052 2.96665 0.617977 3.3343L10.2828 13.0049Z" fill="white"/>
</svg>
