<svg width="43" height="40" viewBox="0 0 43 40" fill="none" xmlns="http://www.w3.org/2000/svg">
<path opacity="0.2" d="M42.9139 20C42.9139 8.9543 33.3073 0 21.457 0C9.6066 0 0 8.9543 0 20C0 31.0457 9.6066 40 21.457 40C33.3073 40 42.9139 31.0457 42.9139 20Z" fill="#94D073"/>
<path d="M25.9141 28.7778C25.6207 28.778 25.3391 28.6622 25.1307 28.4556L21.4696 24.7889L17.8363 28.4111C17.6826 28.5754 17.4827 28.6892 17.2629 28.7373C17.0432 28.7855 16.814 28.7659 16.6056 28.681C16.3973 28.5961 16.2196 28.4499 16.0961 28.2619C15.9727 28.0738 15.9092 27.8527 15.9141 27.6278V12.1111C15.9141 11.8164 16.0311 11.5338 16.2395 11.3254C16.4479 11.1171 16.7305 11 17.0252 11H25.9141C26.2088 11 26.4914 11.1171 26.6998 11.3254C26.9081 11.5338 27.0252 11.8164 27.0252 12.1111V27.6667C27.0252 27.9614 26.9081 28.244 26.6998 28.4523C26.4914 28.6607 26.2088 28.7778 25.9141 28.7778ZM25.9141 27.6667V12.1111H17.0252V27.6278L21.4696 23.2222L25.9141 27.6667Z" fill="#94D073"/>
</svg>
