<svg width="40" height="40" viewBox="0 0 40 40" fill="none" xmlns="http://www.w3.org/2000/svg">
<g clip-path="url(#clip0_2481_1829)">
<path opacity="0.2" d="M40 20C40 8.9543 31.0457 0 20 0C8.9543 0 0 8.9543 0 20C0 31.0457 8.9543 40 20 40C31.0457 40 40 31.0457 40 20Z" fill="#94D073"/>
<path d="M24.0003 28.7778C23.7069 28.778 23.4253 28.6622 23.2169 28.4556L19.5558 24.7889L15.9225 28.4111C15.7688 28.5754 15.5688 28.6892 15.3491 28.7373C15.1293 28.7855 14.9001 28.7659 14.6918 28.681C14.4835 28.5961 14.3058 28.4499 14.1823 28.2619C14.0588 28.0738 13.9954 27.8527 14.0003 27.6278V12.1111C14.0003 11.8164 14.1173 11.5338 14.3257 11.3254C14.5341 11.1171 14.8167 11 15.1114 11H24.0003C24.2949 11 24.5776 11.1171 24.7859 11.3254C24.9943 11.5338 25.1114 11.8164 25.1114 12.1111V27.6667C25.1114 27.9614 24.9943 28.244 24.7859 28.4523C24.5776 28.6607 24.2949 28.7778 24.0003 28.7778ZM24.0003 27.6667L19.5 15L19.6383 14L15.1114 27.6278L19 12L24.0003 27.6667Z" fill="#94D073"/>
</g>
<defs>
<clipPath id="clip0_2481_1829">
<rect width="40" height="40" fill="white"/>
</clipPath>
</defs>
</svg>
