<svg width="20" height="19" viewBox="0 0 20 19" fill="none" xmlns="http://www.w3.org/2000/svg">
<path d="M17 13C16.2141 13 15.4597 13.3093 14.9 13.861L6.96601 10.335C6.98392 10.2241 6.99527 10.1123 7.00001 10C6.99527 9.88778 6.98392 9.77592 6.96601 9.66502L14.9 6.13902C15.3949 6.62406 16.0424 6.92286 16.7325 6.98464C17.4227 7.04642 18.113 6.86738 18.6861 6.47794C19.2592 6.0885 19.6799 5.51266 19.8766 4.84824C20.0733 4.18383 20.0339 3.4718 19.7652 2.83311C19.4965 2.19442 19.0149 1.66845 18.4024 1.34453C17.7898 1.02062 17.084 0.918748 16.4049 1.05621C15.7257 1.19368 15.1151 1.562 14.6767 2.09863C14.2383 2.63526 13.9992 3.30709 14 4.00002C14.0048 4.11225 14.0161 4.22412 14.034 4.33502L6.10001 7.86102C5.67848 7.44649 5.14387 7.16574 4.56331 7.05405C3.98275 6.94235 3.38213 7.00468 2.83688 7.23321C2.29163 7.46174 1.82606 7.84627 1.49863 8.33853C1.1712 8.83078 0.996521 9.40881 0.996521 10C0.996521 10.5912 1.1712 11.1692 1.49863 11.6615C1.82606 12.1538 2.29163 12.5383 2.83688 12.7668C3.38213 12.9954 3.98275 13.0577 4.56331 12.946C5.14387 12.8343 5.67848 12.5535 6.10001 12.139L14.035 15.665C14.0168 15.7759 14.0051 15.8878 14 16C14 16.5934 14.176 17.1734 14.5056 17.6667C14.8352 18.1601 15.3038 18.5446 15.852 18.7717C16.4001 18.9987 17.0033 19.0581 17.5853 18.9424C18.1672 18.8266 18.7018 18.5409 19.1213 18.1213C19.5409 17.7018 19.8266 17.1672 19.9424 16.5853C20.0581 16.0033 19.9987 15.4001 19.7717 14.852C19.5446 14.3038 19.1601 13.8353 18.6667 13.5056C18.1734 13.176 17.5934 13 17 13Z" fill="white"/>
</svg>
