<svg width="42" height="42" viewBox="0 0 42 42" fill="none" xmlns="http://www.w3.org/2000/svg">
<path d="M26.2941 19.0784C26.2941 19.2344 26.2321 19.3841 26.1218 19.4944C26.0115 19.6047 25.8619 19.6667 25.7059 19.6667H16.2941C16.1381 19.6667 15.9885 19.6047 15.8782 19.4944C15.7679 19.3841 15.7059 19.2344 15.7059 19.0784C15.7059 18.9224 15.7679 18.7728 15.8782 18.6625C15.9885 18.5522 16.1381 18.4902 16.2941 18.4902H25.7059C25.8619 18.4902 26.0115 18.5522 26.1218 18.6625C26.2321 18.7728 26.2941 18.9224 26.2941 19.0784ZM25.7059 21.6275H16.2941C16.1381 21.6275 15.9885 21.6894 15.8782 21.7997C15.7679 21.9101 15.7059 22.0597 15.7059 22.2157C15.7059 22.3717 15.7679 22.5213 15.8782 22.6316C15.9885 22.7419 16.1381 22.8039 16.2941 22.8039H25.7059C25.8619 22.8039 26.0115 22.7419 26.1218 22.6316C26.2321 22.5213 26.2941 22.3717 26.2941 22.2157C26.2941 22.0597 26.2321 21.9101 26.1218 21.7997C26.0115 21.6894 25.8619 21.6275 25.7059 21.6275ZM31 14.3725V29.2745C30.9999 29.3748 30.9742 29.4733 30.9253 29.5608C30.8764 29.6483 30.8059 29.7219 30.7206 29.7745C30.628 29.8323 30.521 29.8629 30.4118 29.8627C30.3206 29.8628 30.2306 29.8417 30.149 29.801L27.2745 28.3637L24.4 29.801C24.3184 29.8417 24.2285 29.8629 24.1373 29.8629C24.0461 29.8629 23.9561 29.8417 23.8745 29.801L21 28.3637L18.1255 29.801C18.0439 29.8417 17.9539 29.8629 17.8627 29.8629C17.7715 29.8629 17.6816 29.8417 17.6 29.801L14.7255 28.3637L11.851 29.801C11.7613 29.8458 11.6616 29.8669 11.5615 29.8623C11.4613 29.8578 11.364 29.8277 11.2788 29.7749C11.1935 29.7222 11.1231 29.6485 11.0743 29.5609C11.0256 29.4734 11 29.3748 11 29.2745V14.3725C11 14.0085 11.1446 13.6594 11.402 13.402C11.6594 13.1446 12.0085 13 12.3725 13H29.6275C29.9915 13 30.3406 13.1446 30.598 13.402C30.8554 13.6594 31 14.0085 31 14.3725ZM29.8235 14.3725C29.8235 14.3205 29.8029 14.2707 29.7661 14.2339C29.7293 14.1971 29.6795 14.1765 29.6275 14.1765H12.3725C12.3205 14.1765 12.2707 14.1971 12.2339 14.2339C12.1971 14.2707 12.1765 14.3205 12.1765 14.3725V28.3225L14.4627 27.1794C14.5443 27.1387 14.6343 27.1175 14.7255 27.1175C14.8167 27.1175 14.9066 27.1387 14.9882 27.1794L17.8627 28.6167L20.7373 27.1794C20.8189 27.1387 20.9088 27.1175 21 27.1175C21.0912 27.1175 21.1811 27.1387 21.2627 27.1794L24.1373 28.6167L27.0118 27.1794C27.0934 27.1387 27.1833 27.1175 27.2745 27.1175C27.3657 27.1175 27.4557 27.1387 27.5373 27.1794L29.8235 28.3225V14.3725Z" fill="#CECECE"/>
<path d="M21 41C18.3736 41 15.7728 40.4827 13.3463 39.4776C10.9198 38.4725 8.71503 36.9993 6.85786 35.1421C5.00069 33.285 3.5275 31.0802 2.52241 28.6537C1.51731 26.2272 1 23.6264 1 21C1 18.3736 1.51732 15.7728 2.52241 13.3463C3.5275 10.9198 5.00069 8.71503 6.85787 6.85786C8.71504 5.00069 10.9198 3.5275 13.3463 2.52241C15.7728 1.51731 18.3736 0.999999 21 1C23.6264 1 26.2272 1.51732 28.6537 2.52241C31.0802 3.52751 33.285 5.0007 35.1421 6.85787C36.9993 8.71504 38.4725 10.9198 39.4776 13.3463C40.4827 15.7728 41 18.3736 41 21C41 23.6264 40.4827 26.2272 39.4776 28.6537C38.4725 31.0802 36.9993 33.285 35.1421 35.1421C33.285 36.9993 31.0802 38.4725 28.6537 39.4776C26.2272 40.4827 23.6264 41 21 41L21 41Z" stroke="#CECECE" stroke-width="1.5"/>
</svg>
