<svg width="50" height="50" viewBox="0 0 50 50" fill="none" xmlns="http://www.w3.org/2000/svg">
<g id="Ticket">
<path id="Vector" d="M18.75 10.9375V39.0625" stroke="#94D073" stroke-width="1.5" stroke-linecap="round" stroke-linejoin="round"/>
<path id="Vector_2" d="M4.6875 32.6543C4.68743 32.2944 4.81184 31.9455 5.03962 31.6667C5.26741 31.388 5.58457 31.1966 5.93734 31.125C7.34894 30.8366 8.61761 30.0695 9.52873 28.9534C10.4399 27.8373 10.9375 26.4408 10.9375 25C10.9375 23.5592 10.4399 22.1627 9.52873 21.0466C8.61761 19.9305 7.34894 19.1634 5.93734 18.875C5.58457 18.8034 5.26741 18.612 5.03962 18.3333C4.81184 18.0545 4.68743 17.7056 4.6875 17.3457V12.5C4.6875 12.0856 4.85212 11.6882 5.14515 11.3951C5.43817 11.1021 5.8356 10.9375 6.25 10.9375H43.75C44.1644 10.9375 44.5618 11.1021 44.8549 11.3951C45.1479 11.6882 45.3125 12.0856 45.3125 12.5V17.3457C45.3126 17.7056 45.1882 18.0545 44.9604 18.3333C44.7326 18.612 44.4154 18.8034 44.0627 18.875C42.6511 19.1634 41.3824 19.9305 40.4713 21.0466C39.5601 22.1627 39.0625 23.5592 39.0625 25C39.0625 26.4408 39.5601 27.8373 40.4713 28.9534C41.3824 30.0695 42.6511 30.8366 44.0627 31.125C44.4154 31.1966 44.7326 31.388 44.9604 31.6667C45.1882 31.9455 45.3126 32.2944 45.3125 32.6543V37.5C45.3125 37.9144 45.1479 38.3118 44.8549 38.6049C44.5618 38.8979 44.1644 39.0625 43.75 39.0625H6.25C5.8356 39.0625 5.43817 38.8979 5.14515 38.6049C4.85212 38.3118 4.6875 37.9144 4.6875 37.5V32.6543Z" stroke="#94D073" stroke-width="1.5" stroke-linecap="round" stroke-linejoin="round"/>
</g>
</svg>
