<svg width="16" height="16" viewBox="0 0 16 16" fill="none" xmlns="http://www.w3.org/2000/svg">
<g id="time 1">
<path id="Vector" d="M8 14.6668C11.681 14.6668 14.6667 11.6811 14.6667 8.00016C14.6667 4.3192 11.681 1.3335 8 1.3335C4.31904 1.3335 1.33333 4.3192 1.33333 8.00016C1.33333 11.6811 4.31904 14.6668 8 14.6668ZM7.52379 4.19064C7.52379 3.92873 7.73808 3.71444 8 3.71444C8.26191 3.71444 8.4762 3.92873 8.4762 4.19064V7.7716L10.6786 9.5335C10.8834 9.69779 10.9167 9.99777 10.7524 10.2025C10.6595 10.3192 10.5214 10.3811 10.3809 10.3811C10.2762 10.3811 10.1714 10.3478 10.0833 10.2763L7.70239 8.3716C7.59049 8.28111 7.52383 8.14542 7.52383 8.00016V4.19064H7.52379Z" fill="#838383"/>
</g>
</svg>
