<svg width="512" height="512" viewBox="0 0 512 512" fill="none" xmlns="http://www.w3.org/2000/svg">
<g clip-path="url(#clip0_809_1367)">
<path d="M256 512C397.385 512 512 397.385 512 256C512 114.615 397.385 0 256 0C114.615 0 0 114.615 0 256C0 397.385 114.615 512 256 512Z" fill="#27273D"/>
<path d="M236.23 87.83L278 16L328.51 67.66L372.51 51.93L389.12 108.6L426.27 100.81L445.27 217.51L435.1 233L456.42 291L422.75 317.87L438.46 357.67L385.71 375.18L417.14 403.24L381.22 427.93L422.75 441.4L396.93 477.88L321.75 448.14C321.75 448.14 345.11 405.49 346.33 393.14C347.55 380.79 356.53 293.24 356.53 293.24L338.53 165.24L236.23 87.83Z" fill="#DB1B1B"/>
<path d="M373.79 358.9C393.23 339.449 407.574 315.504 415.55 289.185C423.527 262.867 424.89 234.988 419.52 208.017C414.149 181.046 402.211 155.816 384.761 134.56C367.312 113.305 344.89 96.6806 319.481 86.1597C294.073 75.6388 266.462 71.546 239.094 74.2437C211.726 76.9414 185.446 86.3464 162.581 101.626C139.716 116.905 120.971 137.587 108.007 161.841C95.0438 186.094 88.2611 213.17 88.2599 240.67C88.2599 240.67 52.3399 500.89 396.93 477.88C396.93 477.88 331.09 431.69 373.79 358.9Z" fill="#B0D46C"/>
<path d="M379.27 478.83C53.59 491.9 88.27 240.68 88.27 240.68C88.27 196.324 105.89 153.785 137.253 122.42C168.616 91.0549 211.154 73.4328 255.51 73.4302C263.395 73.4317 271.271 73.983 279.08 75.0802C239.208 80.7643 202.725 100.642 176.331 131.063C149.937 161.483 135.404 200.405 135.4 240.68C135.4 240.68 104.18 466.89 379.27 478.83Z" fill="#A3C163"/>
<path d="M255.51 357.66C317.498 357.66 367.75 307.409 367.75 245.42C367.75 183.432 317.498 133.18 255.51 133.18C193.522 133.18 143.27 183.432 143.27 245.42C143.27 307.409 193.522 357.66 255.51 357.66Z" fill="white"/>
<path d="M255.51 317.87C292.093 317.87 321.75 288.213 321.75 251.63C321.75 215.047 292.093 185.39 255.51 185.39C218.927 185.39 189.27 215.047 189.27 251.63C189.27 288.213 218.927 317.87 255.51 317.87Z" fill="#3586CB"/>
<path d="M254.9 301.26C282.31 301.26 304.53 279.04 304.53 251.63C304.53 224.22 282.31 202 254.9 202C227.49 202 205.27 224.22 205.27 251.63C205.27 279.04 227.49 301.26 254.9 301.26Z" fill="#27273D"/>
<path d="M284.45 232.96C292.999 232.96 299.93 226.029 299.93 217.48C299.93 208.931 292.999 202 284.45 202C275.901 202 268.97 208.931 268.97 217.48C268.97 226.029 275.901 232.96 284.45 232.96Z" fill="white"/>
<path d="M254.9 270.3C265.211 270.3 273.57 261.941 273.57 251.63C273.57 241.319 265.211 232.96 254.9 232.96C244.589 232.96 236.23 241.319 236.23 251.63C236.23 261.941 244.589 270.3 254.9 270.3Z" fill="white"/>
<path d="M389.72 132.22C416.29 115.07 452.91 81.2201 465.9 20.4501C466.176 19.1682 466.889 18.0221 467.917 17.2083C468.945 16.3945 470.224 15.9636 471.536 15.9896C472.847 16.0156 474.108 16.4969 475.103 17.3508C476.098 18.2048 476.765 19.3782 476.99 20.6701C482.82 54.6701 484.24 116.42 441.54 183.75C425.91 208.38 389.39 206.55 376.39 180.44C372.287 172.171 371.379 162.679 373.839 153.782C376.298 144.885 381.953 137.208 389.72 132.22Z" fill="#A65C3B"/>
<path d="M393.33 163.82C393.341 171.935 395.99 179.826 400.876 186.304C405.762 192.783 412.621 197.498 420.42 199.74C411.774 202.229 402.522 201.522 394.355 197.748C386.188 193.973 379.653 187.385 375.947 179.187C372.24 170.989 371.609 161.731 374.17 153.106C376.73 144.482 382.311 137.067 389.89 132.22C416.44 115.07 453.07 81.2201 466.05 20.4501C467.37 14.3601 476.1 14.5301 477.14 20.6701C478.52 28.6891 479.418 36.7836 479.83 44.9101C467.071 80.8898 442.71 111.605 410.58 132.22C405.295 135.628 400.947 140.306 397.934 145.825C394.921 151.345 393.338 157.531 393.33 163.82Z" fill="#9E4830"/>
<path d="M123.69 132.22C97.1299 115.07 60.5099 81.2201 47.5199 20.4501C47.2441 19.1682 46.531 18.0221 45.5027 17.2083C44.4745 16.3945 43.1953 15.9636 41.8842 15.9896C40.5732 16.0156 39.312 16.4969 38.3169 17.3508C37.3218 18.2048 36.6546 19.3782 36.4299 20.6701C30.5899 54.6701 29.1799 116.42 71.8799 183.75C87.4999 208.38 124 206.55 137 180.44C141.106 172.174 142.019 162.683 139.563 153.786C137.107 144.888 131.455 137.21 123.69 132.22Z" fill="#A65C3B"/>
<path d="M113.61 199.81C105.853 201.993 97.5971 201.609 90.0762 198.715C82.5552 195.82 76.1721 190.571 71.8799 183.75C29.1699 116.42 30.5999 54.6901 36.4199 20.6701C36.6447 19.3782 37.3118 18.2048 38.3069 17.3508C39.302 16.4969 40.5632 16.0156 41.8743 15.9896C43.1853 15.9636 44.4646 16.3945 45.4928 17.2083C46.521 18.0221 47.2341 19.1682 47.5099 20.4501C49.188 28.3078 51.3555 36.0529 53.9999 43.6401C51.9099 79.0501 57.7199 129.64 92.0599 183.75C96.9763 191.615 104.667 197.347 113.61 199.81Z" fill="#9E4830"/>
<path d="M341.93 383.58C353.081 383.58 362.12 374.541 362.12 363.39C362.12 352.24 353.081 343.2 341.93 343.2C330.779 343.2 321.74 352.24 321.74 363.39C321.74 374.541 330.779 383.58 341.93 383.58Z" fill="#A3C163"/>
<path d="M241.48 409.96C252.631 409.96 261.67 400.921 261.67 389.77C261.67 378.619 252.631 369.58 241.48 369.58C230.329 369.58 221.29 378.619 221.29 389.77C221.29 400.921 230.329 409.96 241.48 409.96Z" fill="#A3C163"/>
<path d="M293.76 434.4C302.287 434.4 309.2 427.487 309.2 418.96C309.2 410.433 302.287 403.52 293.76 403.52C285.233 403.52 278.32 410.433 278.32 418.96C278.32 427.487 285.233 434.4 293.76 434.4Z" fill="#A3C163"/>
<path d="M293.76 389.77C299.332 389.77 303.85 385.253 303.85 379.68C303.85 374.108 299.332 369.59 293.76 369.59C288.187 369.59 283.67 374.108 283.67 379.68C283.67 385.253 288.187 389.77 293.76 389.77Z" fill="#A3C163"/>
<path d="M327.43 458.24C333.002 458.24 337.52 453.723 337.52 448.15C337.52 442.578 333.002 438.06 327.43 438.06C321.857 438.06 317.34 442.578 317.34 448.15C317.34 453.723 321.857 458.24 327.43 458.24Z" fill="#A3C163"/>
<path d="M331.84 418.95C337.413 418.95 341.93 414.433 341.93 408.86C341.93 403.287 337.413 398.77 331.84 398.77C326.267 398.77 321.75 403.287 321.75 408.86C321.75 414.433 326.267 418.95 331.84 418.95Z" fill="#A3C163"/>
</g>
<defs>
<clipPath id="clip0_809_1367">
<rect width="512" height="512" fill="white"/>
</clipPath>
</defs>
</svg>
