<svg width="512" height="512" viewBox="0 0 512 512" fill="none" xmlns="http://www.w3.org/2000/svg">
<g clip-path="url(#clip0_809_1413)">
<path d="M256 512C397.385 512 512 397.385 512 256C512 114.615 397.385 0 256 0C114.615 0 0 114.615 0 256C0 397.385 114.615 512 256 512Z" fill="#FCC8BC"/>
<path d="M338.6 116.84H392.14V84.7598H338.6V116.84Z" fill="#8348E0"/>
<path d="M410.05 49.0498L392.14 84.7598V116.84L410.05 152.55C414.57 159.48 421.14 153.12 421.14 141.82V59.8198C421.14 48.4798 414.57 42.1198 410.05 49.0498Z" fill="#F55B4B"/>
<path d="M390 308.28C390.001 335.898 381.505 362.847 365.666 385.472C349.827 408.096 327.411 425.3 301.46 434.75V508C286.455 510.677 271.242 512.015 256 512H252.4C237.974 511.812 223.589 510.404 209.4 507.79V434.79C206.61 433.79 203.85 432.67 201.15 431.47C176.107 420.426 155.027 402.01 140.72 378.677C126.413 355.344 119.56 328.204 121.074 300.876C122.589 273.548 132.399 247.331 149.196 225.722C165.994 204.113 188.98 188.139 215.09 179.93C206.642 175.591 198.945 169.926 192.29 163.15C190.9 161.74 189.55 160.27 188.29 158.76C184.717 154.594 181.533 150.108 178.78 145.36C178.28 144.49 177.78 143.61 177.32 142.73C176.86 141.85 176.39 140.95 175.95 140.05C175.283 138.717 174.653 137.343 174.06 135.93C173.467 134.517 172.907 133.107 172.38 131.7C171.86 130.27 171.38 128.83 170.91 127.37C170.76 126.88 170.61 126.37 170.47 125.9C170.05 124.43 169.66 122.9 169.3 121.44C169.18 120.94 169.07 120.44 168.96 119.93C168.75 118.93 168.54 117.93 168.36 116.93C167.435 111.744 166.969 106.487 166.97 101.22C166.963 89.6007 169.248 78.0944 173.694 67.3595C178.14 56.6246 184.66 46.8719 192.88 38.6599C194.38 37.1499 195.94 35.6599 197.54 34.3199C198.607 33.3999 199.697 32.4999 200.81 31.6199C201.37 31.1699 201.94 30.7399 202.51 30.3199C217.758 18.8521 236.321 12.6506 255.4 12.6499C256.16 12.6499 256.92 12.6499 257.67 12.6499C258.42 12.6499 258.92 12.6499 259.53 12.7199C259.696 12.7099 259.863 12.7099 260.03 12.7199C260.76 12.7199 261.48 12.7899 262.2 12.8499C262.92 12.9099 263.69 12.9699 264.44 13.0499C265.19 13.1299 265.7 13.1799 266.33 13.2599C267.98 13.4699 269.62 13.7199 271.24 14.0099C271.82 14.1099 272.4 14.2199 272.98 14.3399C274.29 14.6099 275.59 14.9099 276.88 15.2299C294.351 19.5973 310.074 29.1926 321.946 42.7336C333.819 56.2747 341.276 73.1166 343.322 91.0089C345.368 108.901 341.905 126.992 333.395 142.863C324.885 158.735 311.735 171.632 295.7 179.83C323.046 188.411 346.939 205.497 363.9 228.601C380.862 251.704 390.005 279.619 390 308.28Z" fill="#934CF5"/>
<path d="M209.41 507.76C223.599 510.374 237.983 511.783 252.41 511.97V478.81C252.411 476.1 252.26 473.393 251.96 470.7C250.885 460.686 247.775 450.998 242.82 442.23C241.7 440.23 240.49 438.3 239.17 436.42C234.365 429.495 228.369 423.478 221.46 418.65C214.184 413.572 207.428 407.788 201.29 401.38L201.16 401.24C197.327 397.233 193.744 392.996 190.43 388.55C173.144 365.366 163.826 337.209 163.87 308.29C163.87 306.81 163.87 305.34 163.95 303.87C164.734 279.782 171.975 256.347 184.918 236.016C197.86 215.685 216.027 199.205 237.52 188.3C239.034 187.528 240.377 186.458 241.467 185.153C242.557 183.849 243.371 182.338 243.862 180.71C244.352 179.083 244.508 177.373 244.321 175.683C244.133 173.994 243.606 172.36 242.77 170.88C242.083 169.694 241.204 168.63 240.17 167.73C228.01 157.094 218.993 143.333 214.097 127.937C209.202 112.541 208.614 96.0993 212.398 80.3935C216.183 64.6878 224.194 50.3176 235.565 38.8412C246.935 27.3648 261.23 19.22 276.9 15.29C275.61 14.97 274.31 14.67 273 14.4C272.42 14.28 271.84 14.17 271.26 14.07C269.64 13.78 268 13.53 266.35 13.32C265.723 13.24 265.093 13.17 264.46 13.11C263.71 13.03 262.97 12.97 262.22 12.91C261.47 12.85 260.78 12.81 260.05 12.78C259.883 12.7701 259.716 12.7701 259.55 12.78C258.94 12.78 258.32 12.72 257.69 12.71C257.06 12.7 256.18 12.71 255.42 12.71C236.337 12.6761 217.76 18.8461 202.49 30.29C201.92 30.71 201.35 31.14 200.79 31.59C199.677 32.47 198.587 33.37 197.52 34.29C195.92 35.67 194.36 37.12 192.86 38.63C192.09 39.4 191.33 40.19 190.59 40.99C189.85 41.79 189.11 42.6 188.4 43.42C187.69 44.24 187 45 186.29 45.88C184.917 47.5933 183.613 49.35 182.38 51.15C181.447 52.4833 180.557 53.8633 179.71 55.29C171.334 69.1127 166.911 84.9678 166.92 101.13C166.919 106.397 167.385 111.655 168.31 116.84C168.5 117.84 168.7 118.84 168.92 119.84C169.03 120.35 169.14 120.84 169.26 121.35C169.61 122.85 170 124.35 170.43 125.81C170.57 126.3 170.72 126.81 170.87 127.28C171.32 128.74 171.81 130.18 172.34 131.61C172.87 133.04 173.42 134.45 174.02 135.84C174.62 137.23 175.24 138.6 175.91 139.96C176.35 140.86 176.81 141.75 177.28 142.64C177.75 143.53 178.28 144.4 178.74 145.27C179.773 147.05 180.867 148.797 182.02 150.51C182.78 151.64 183.58 152.76 184.4 153.86C185.22 154.96 186.06 156.04 186.93 157.1C187.36 157.63 187.8 158.1 188.25 158.67C188.7 159.24 188.9 159.42 189.25 159.79C190.243 160.91 191.263 162 192.31 163.06C198.965 169.836 206.662 175.501 215.11 179.84C189.008 188.058 166.031 204.036 149.241 225.644C132.451 247.253 122.645 273.465 121.131 300.788C119.617 328.111 126.466 355.246 140.766 378.578C155.065 401.909 176.136 420.328 201.17 431.38C203.87 432.58 206.63 433.68 209.42 434.7V507.7L209.41 507.76Z" fill="#8348E0"/>
<path d="M301.41 434.75V462.67C271.687 473.43 239.133 473.43 209.41 462.67V434.75C239.133 445.51 271.687 445.51 301.41 434.75Z" fill="#8348E0"/>
<path d="M355.87 276.8C364.861 276.8 372.15 269.511 372.15 260.52C372.15 251.529 364.861 244.24 355.87 244.24C346.879 244.24 339.59 251.529 339.59 260.52C339.59 269.511 346.879 276.8 355.87 276.8Z" fill="#AA60FA"/>
<path d="M332.42 247.55C338.788 247.55 343.95 242.388 343.95 236.02C343.95 229.652 338.788 224.49 332.42 224.49C326.052 224.49 320.89 229.652 320.89 236.02C320.89 242.388 326.052 247.55 332.42 247.55Z" fill="#AA60FA"/>
<path d="M255.41 171.97C295.351 171.97 327.73 139.591 327.73 99.6498C327.73 59.7086 295.351 27.3298 255.41 27.3298C215.469 27.3298 183.09 59.7086 183.09 99.6498C183.09 139.591 215.469 171.97 255.41 171.97Z" fill="white"/>
<path d="M255.41 146.33C278.981 146.33 298.09 127.221 298.09 103.65C298.09 80.0785 278.981 60.97 255.41 60.97C231.838 60.97 212.73 80.0785 212.73 103.65C212.73 127.221 231.838 146.33 255.41 146.33Z" fill="#3586CB"/>
<path d="M255.02 135.62C272.676 135.62 286.99 121.306 286.99 103.65C286.99 85.9934 272.676 71.6799 255.02 71.6799C237.363 71.6799 223.05 85.9934 223.05 103.65C223.05 121.306 237.363 135.62 255.02 135.62Z" fill="#27273D"/>
<path d="M274.05 91.6199C279.556 91.6199 284.02 87.1562 284.02 81.6499C284.02 76.1437 279.556 71.6799 274.05 71.6799C268.544 71.6799 264.08 76.1437 264.08 81.6499C264.08 87.1562 268.544 91.6199 274.05 91.6199Z" fill="white"/>
<path d="M255.02 115.68C261.664 115.68 267.05 110.294 267.05 103.65C267.05 97.0059 261.664 91.6199 255.02 91.6199C248.376 91.6199 242.99 97.0059 242.99 103.65C242.99 110.294 248.376 115.68 255.02 115.68Z" fill="white"/>
<path d="M373.41 296.65C373.41 327.844 361.059 357.768 339.057 379.881C317.056 401.993 287.193 414.494 256 414.65C191 414.94 137.47 361.74 137.45 296.7C137.45 296.31 137.45 295.92 137.45 295.53C137.53 286.2 149.82 282.79 154.69 290.76C164.365 306.622 177.64 319.983 193.44 329.76C204.976 336.896 217.665 341.972 230.94 344.76C243.76 347.46 256.937 348.02 269.94 346.42C282.979 344.835 295.657 341.062 307.44 335.26C327.581 325.345 344.488 309.908 356.19 290.75C361.06 282.75 373.35 286.19 373.43 295.51C373.41 295.9 373.41 296.27 373.41 296.65Z" fill="#27273D"/>
<path d="M230.91 344.77V361.07C230.91 366.043 228.934 370.812 225.418 374.328C221.902 377.845 217.133 379.82 212.16 379.82C207.187 379.82 202.418 377.845 198.902 374.328C195.385 370.812 193.41 366.043 193.41 361.07V329.73C204.943 336.88 217.632 341.969 230.91 344.77Z" fill="white"/>
<path d="M307.41 335.27V375.07C307.41 380.043 305.435 384.812 301.918 388.328C298.402 391.845 293.633 393.82 288.66 393.82C283.687 393.82 278.918 391.845 275.402 388.328C271.886 384.812 269.91 380.043 269.91 375.07V346.43C282.949 344.845 295.627 341.072 307.41 335.27Z" fill="white"/>
<path d="M197.66 385.32H208.79C216.847 385.32 224.574 388.521 230.272 394.218C235.969 399.915 239.17 407.643 239.17 415.7V444.14C239.17 450.937 236.47 457.456 231.663 462.263C226.856 467.07 220.337 469.77 213.54 469.77C206.742 469.77 200.223 467.07 195.417 462.263C190.61 457.456 187.91 450.937 187.91 444.14V395.07C187.91 392.484 188.937 390.004 190.766 388.176C192.594 386.347 195.074 385.32 197.66 385.32Z" fill="#DB1B1B"/>
<path d="M220.16 468.9C218.001 469.48 215.775 469.773 213.54 469.77C206.742 469.77 200.223 467.07 195.417 462.263C190.61 457.456 187.91 450.937 187.91 444.14V395.07C187.913 392.485 188.941 390.006 190.769 388.178C192.596 386.351 195.075 385.322 197.66 385.32H208.79C209.23 385.32 209.67 385.32 210.1 385.32C207.661 385.523 205.388 386.635 203.73 388.435C202.072 390.235 201.151 392.593 201.15 395.04V444.11C201.143 449.759 203.004 455.253 206.441 459.736C209.879 464.219 214.702 467.441 220.16 468.9Z" fill="#C61E1E"/>
<path d="M174.4 84.76H120.86V116.84H174.4V84.76Z" fill="#8348E0"/>
<path d="M103 152.55L120.91 116.84V84.76L103 49.05C98.4799 42.12 91.91 48.48 91.91 59.78V141.78C91.86 153.12 98.4299 159.48 103 152.55Z" fill="#F55B4B"/>
</g>
<defs>
<clipPath id="clip0_809_1413">
<rect width="512" height="512" fill="white"/>
</clipPath>
</defs>
</svg>
