<svg width="60" height="60" viewBox="0 0 60 60" fill="none" xmlns="http://www.w3.org/2000/svg">
<g clip-path="url(#clip0_809_1751)">
<path d="M30 60C46.5685 60 60 46.5685 60 30C60 13.4315 46.5685 0 30 0C13.4315 0 0 13.4315 0 30C0 46.5685 13.4315 60 30 60Z" fill="#934CF5"/>
<path d="M34.513 44.6953V59.6625C31.428 60.1266 28.29 60.112 25.2095 59.6191V44.6953H34.513Z" fill="#DD5045"/>
<path d="M56.2408 28.432C55.9634 28.8243 55.6529 29.1921 55.3127 29.5312C54.1279 30.716 51.2275 32.9156 47.8619 35.0766C46.8629 35.7182 45.952 36.4876 45.1525 37.3652C43.967 38.6662 43.0404 40.1811 42.422 41.8289C41.4667 44.3662 39.7619 46.5528 37.5342 48.0981C35.3066 49.6435 32.6614 50.4745 29.9502 50.4807C27.239 50.487 24.5901 49.6681 22.3554 48.133C20.1206 46.5979 18.4058 44.4192 17.4388 41.8863C17.4306 41.8676 17.4236 41.8477 17.4166 41.8289C16.522 39.4439 14.9853 37.3528 12.9763 35.7867C12.6545 35.5359 12.3201 35.2992 11.9732 35.0766C8.6064 32.9156 5.70601 30.716 4.52125 29.5312C4.44312 29.4531 4.365 29.3699 4.28687 29.2816C2.80179 27.6794 2.00548 25.558 2.0695 23.3743C2.13352 21.1906 3.05273 19.1194 4.62913 17.607C6.20552 16.0945 8.31294 15.2618 10.4974 15.2882C12.6819 15.3145 14.7686 16.1979 16.308 17.748C16.8258 18.2838 17.3148 18.8467 17.7728 19.4344C18.8369 20.768 20.9767 19.8012 20.692 18.1195C20.2232 15.3504 19.9642 13.0242 19.9642 11.707C19.9642 10.4143 20.2188 9.13429 20.7135 7.93999C21.2082 6.74569 21.9333 5.66053 22.8474 4.74645C23.7615 3.83237 24.8466 3.10729 26.0409 2.61259C27.2352 2.1179 28.5153 1.86328 29.808 1.86328C31.1007 1.86328 32.3807 2.1179 33.575 2.61259C34.7693 3.10729 35.8545 3.83237 36.7685 4.74645C37.6826 5.66053 38.4077 6.74569 38.9024 7.93999C39.3971 9.13429 39.6517 10.4143 39.6517 11.707C39.6517 12.8484 39.4572 14.7539 39.0986 17.0402C39.0259 17.509 38.9478 17.9902 38.8642 18.484C38.5689 20.1832 40.7392 21.1418 41.7939 19.7836C42.3361 19.0725 42.9178 18.3925 43.5365 17.7469C45.011 16.2718 46.9852 15.4034 49.069 15.3132C51.1527 15.2231 53.1945 15.9177 54.791 17.2599C56.3875 18.6022 57.4225 20.4943 57.6915 22.5626C57.9606 24.6309 57.4442 26.7249 56.2443 28.4309L56.2408 28.432Z" fill="#FC715A"/>
<path d="M32.672 50.1891C29.55 50.8438 26.2968 50.3611 23.4994 48.8281C20.702 47.2951 18.5446 44.8127 17.4165 41.8289C16.3751 39.0515 14.4663 36.6837 11.9732 35.0766C8.60638 32.9156 5.70716 30.716 4.52122 29.5313C3.18709 28.1962 2.34569 26.4478 2.13474 24.5722C1.9238 22.6966 2.35581 20.805 3.36005 19.2069C4.3643 17.6089 5.8813 16.3991 7.66273 15.7755C9.44416 15.152 11.3845 15.1517 13.1661 15.7746C11.836 16.241 10.6459 17.0371 9.7071 18.0885C8.76831 19.1399 8.1115 20.4123 7.79811 21.7865C7.48472 23.1607 7.52499 24.592 7.91515 25.9465C8.30531 27.3009 9.03261 28.5343 10.029 29.5313C11.215 30.716 14.1142 32.9156 17.481 35.0766C19.9741 36.6837 21.8829 39.0515 22.9243 41.8289C23.7176 43.9281 25.0261 45.7941 26.7295 47.255C28.4329 48.716 30.4764 49.725 32.672 50.1891Z" fill="#F55B4B"/>
<path d="M13.9082 32.7422C13.9092 33.829 13.5825 34.8908 12.9707 35.7891C12.6488 35.5383 12.3145 35.3016 11.9676 35.0789C8.60664 32.9156 5.70625 30.716 4.52148 29.5313C4.44336 29.4531 4.36523 29.3699 4.28711 29.2817C4.99967 28.4189 5.96114 27.7971 7.04026 27.5012C8.11937 27.2052 9.26352 27.2496 10.3165 27.6281C11.3695 28.0067 12.28 28.701 12.9236 29.6163C13.5673 30.5316 13.9128 31.6232 13.9129 32.7422H13.9082Z" fill="#F6D372"/>
<path d="M45.1549 37.3652C43.9686 38.666 43.0411 40.1809 42.4221 41.8289C41.7507 43.6053 40.7089 45.2183 39.3659 46.5609C38.1858 45.7754 37.3593 44.5599 37.0627 43.1736C36.7661 41.7874 37.0229 40.3401 37.7782 39.1404C38.5336 37.9408 39.7278 37.0838 41.1061 36.7521C42.4844 36.4205 43.9377 36.6405 45.1561 37.3652H45.1549Z" fill="#F6D372"/>
<path d="M26.7387 45.7031C26.7398 46.4252 26.5964 47.1402 26.3168 47.806C26.0373 48.4718 25.6273 49.0749 25.1109 49.5797C23.3651 48.9041 21.7803 47.8701 20.4586 46.5444C19.137 45.2186 18.1078 43.6307 17.4375 41.8828C18.195 41.1162 19.1633 40.5922 20.2194 40.3772C21.2755 40.1622 22.3716 40.2661 23.3685 40.6755C24.3654 41.085 25.2181 41.7816 25.8182 42.6768C26.4183 43.572 26.7387 44.6254 26.7387 45.7031Z" fill="#F6D372"/>
<path d="M21.7117 32.393C23.6754 32.393 25.2672 30.8011 25.2672 28.8375C25.2672 26.8739 23.6754 25.282 21.7117 25.282C19.7481 25.282 18.1562 26.8739 18.1562 28.8375C18.1562 30.8011 19.7481 32.393 21.7117 32.393Z" fill="#F6D372"/>
<path d="M39.6469 11.707C39.6469 12.8484 39.4524 14.7539 39.0938 17.0402C38.5452 17.1947 37.9675 17.215 37.4095 17.0995C36.8514 16.984 36.3293 16.736 35.8871 16.3764C35.4449 16.0169 35.0957 15.5564 34.8687 15.0336C34.6418 14.5108 34.5439 13.9412 34.5832 13.3726C34.6225 12.8041 34.7979 12.2533 35.0946 11.7668C35.3913 11.2802 35.8006 10.8721 36.288 10.5768C36.7754 10.2815 37.3267 10.1077 37.8954 10.0701C38.464 10.0325 39.0334 10.1321 39.5555 10.3605C39.617 10.8067 39.6475 11.2566 39.6469 11.707Z" fill="#F6D372"/>
<path d="M56.2408 28.432C56.0978 28.4499 55.9538 28.4589 55.8096 28.459C55.2655 28.4596 54.7286 28.3354 54.2401 28.0959C53.7516 27.8564 53.3245 27.508 52.9918 27.0776C52.659 26.6472 52.4295 26.1461 52.3208 25.6131C52.212 25.08 52.2271 24.5291 52.3647 24.0027C52.5023 23.4764 52.7588 22.9886 53.1145 22.5769C53.4703 22.1653 53.9157 21.8407 54.4165 21.6282C54.9173 21.4157 55.4602 21.321 56.0035 21.3512C56.5467 21.3815 57.0757 21.5359 57.5498 21.8027C57.8064 22.9379 57.8226 24.1142 57.5971 25.2559C57.3717 26.3977 56.9097 27.4796 56.2408 28.432Z" fill="#F6D372"/>
<path d="M38.1258 33.4465C40.0894 33.4465 41.6812 31.8546 41.6812 29.891C41.6812 27.9274 40.0894 26.3355 38.1258 26.3355C36.1621 26.3355 34.5703 27.9274 34.5703 29.891C34.5703 31.8546 36.1621 33.4465 38.1258 33.4465Z" fill="#F6D372"/>
<path d="M29.9183 20.0086C34.4513 20.0086 38.1261 16.3338 38.1261 11.8008C38.1261 7.26772 34.4513 3.59296 29.9183 3.59296C25.3852 3.59296 21.7104 7.26772 21.7104 11.8008C21.7104 16.3338 25.3852 20.0086 29.9183 20.0086Z" fill="white"/>
<path d="M29.9181 17.0977C32.593 17.0977 34.7614 14.9292 34.7614 12.2543C34.7614 9.5794 32.593 7.41095 29.9181 7.41095C27.2432 7.41095 25.0747 9.5794 25.0747 12.2543C25.0747 14.9292 27.2432 17.0977 29.9181 17.0977Z" fill="#3586CB"/>
<path d="M29.8749 15.8836C31.8793 15.8836 33.5042 14.2587 33.5042 12.2543C33.5042 10.2499 31.8793 8.625 29.8749 8.625C27.8705 8.625 26.2456 10.2499 26.2456 12.2543C26.2456 14.2587 27.8705 15.8836 29.8749 15.8836Z" fill="#27273D"/>
<path d="M32.0344 10.8891C32.6596 10.8891 33.1664 10.3822 33.1664 9.75703C33.1664 9.13183 32.6596 8.625 32.0344 8.625C31.4092 8.625 30.9023 9.13183 30.9023 9.75703C30.9023 10.3822 31.4092 10.8891 32.0344 10.8891Z" fill="white"/>
<path d="M29.875 13.6195C30.629 13.6195 31.2402 13.0083 31.2402 12.2543C31.2402 11.5003 30.629 10.8891 29.875 10.8891C29.121 10.8891 28.5098 11.5003 28.5098 12.2543C28.5098 13.0083 29.121 13.6195 29.875 13.6195Z" fill="white"/>
<path d="M49.4017 29.891C52.9412 29.891 55.8106 27.0216 55.8106 23.482C55.8106 19.9425 52.9412 17.0731 49.4017 17.0731C45.8621 17.0731 42.9927 19.9425 42.9927 23.482C42.9927 27.0216 45.8621 29.891 49.4017 29.891Z" fill="white"/>
<path d="M49.4018 27.6188C51.4903 27.6188 53.1834 25.9257 53.1834 23.8371C53.1834 21.7486 51.4903 20.0555 49.4018 20.0555C47.3132 20.0555 45.6201 21.7486 45.6201 23.8371C45.6201 25.9257 47.3132 27.6188 49.4018 27.6188Z" fill="#3586CB"/>
<path d="M49.3668 26.6707C50.9318 26.6707 52.2004 25.4021 52.2004 23.8371C52.2004 22.2722 50.9318 21.0035 49.3668 21.0035C47.8018 21.0035 46.5332 22.2722 46.5332 23.8371C46.5332 25.4021 47.8018 26.6707 49.3668 26.6707Z" fill="#27273D"/>
<path d="M51.054 22.7707C51.542 22.7707 51.9376 22.3751 51.9376 21.8871C51.9376 21.3991 51.542 21.0035 51.054 21.0035C50.566 21.0035 50.1704 21.3991 50.1704 21.8871C50.1704 22.3751 50.566 22.7707 51.054 22.7707Z" fill="white"/>
<path d="M49.3667 24.9035C49.9557 24.9035 50.4331 24.4261 50.4331 23.8371C50.4331 23.2481 49.9557 22.7707 49.3667 22.7707C48.7777 22.7707 48.3003 23.2481 48.3003 23.8371C48.3003 24.4261 48.7777 24.9035 49.3667 24.9035Z" fill="white"/>
<path d="M10.7273 29.891C14.2669 29.891 17.1363 27.0216 17.1363 23.482C17.1363 19.9425 14.2669 17.0731 10.7273 17.0731C7.18776 17.0731 4.31836 19.9425 4.31836 23.482C4.31836 27.0216 7.18776 29.891 10.7273 29.891Z" fill="white"/>
<path d="M10.7274 27.6188C12.816 27.6188 14.5091 25.9257 14.5091 23.8371C14.5091 21.7486 12.816 20.0555 10.7274 20.0555C8.6389 20.0555 6.9458 21.7486 6.9458 23.8371C6.9458 25.9257 8.6389 27.6188 10.7274 27.6188Z" fill="#3586CB"/>
<path d="M10.6935 26.6707C12.2584 26.6707 13.5271 25.4021 13.5271 23.8371C13.5271 22.2722 12.2584 21.0035 10.6935 21.0035C9.12851 21.0035 7.85986 22.2722 7.85986 23.8371C7.85986 25.4021 9.12851 26.6707 10.6935 26.6707Z" fill="#27273D"/>
<path d="M12.3797 22.7707C12.8677 22.7707 13.2633 22.3751 13.2633 21.8871C13.2633 21.3991 12.8677 21.0035 12.3797 21.0035C11.8917 21.0035 11.4961 21.3991 11.4961 21.8871C11.4961 22.3751 11.8917 22.7707 12.3797 22.7707Z" fill="white"/>
<path d="M10.6934 24.9035C11.2823 24.9035 11.7598 24.4261 11.7598 23.8371C11.7598 23.2481 11.2823 22.7707 10.6934 22.7707C10.1044 22.7707 9.62695 23.2481 9.62695 23.8371C9.62695 24.4261 10.1044 24.9035 10.6934 24.9035Z" fill="white"/>
<path d="M26.6839 25.3418L28.5589 27.1816C29.2268 27.8379 30.5077 27.8379 31.1745 27.1816L33.0495 25.3418C33.9143 24.491 33.135 23.2406 31.7417 23.2406H27.9917C26.6018 23.2406 25.819 24.4922 26.6839 25.3418Z" fill="#DB1B1B"/>
<path d="M33.9331 36.0621C33.9331 37.1421 33.5041 38.1779 32.7404 38.9416C31.9767 39.7053 30.9409 40.1344 29.8608 40.1344C28.7808 40.1344 27.745 39.7053 26.9813 38.9416C26.2176 38.1779 25.7886 37.1421 25.7886 36.0621C25.7887 35.8395 25.8067 35.6173 25.8425 35.3977C25.9346 34.841 26.1415 34.3096 26.45 33.8371C26.7584 33.3646 27.1617 32.9614 27.6343 32.6531C27.757 32.5723 27.8842 32.4984 28.0151 32.4316C28.587 32.1412 29.2194 31.9898 29.8608 31.9898C30.5023 31.9898 31.1346 32.1412 31.7065 32.4316C31.8375 32.4984 31.9646 32.5723 32.0874 32.6531C32.56 32.9614 32.9633 33.3646 33.2717 33.8371C33.5802 34.3096 33.787 34.841 33.8792 35.3977C33.915 35.6173 33.933 35.8395 33.9331 36.0621Z" fill="#27273D"/>
<path d="M27.6341 32.6531V33.5531C27.6343 34.0333 27.4472 34.4947 27.1126 34.8391C26.778 35.1836 26.3223 35.3839 25.8423 35.3977C25.9345 34.841 26.1413 34.3096 26.4498 33.8371C26.7582 33.3646 27.1615 32.9615 27.6341 32.6531Z" fill="white"/>
<path d="M31.7065 32.4316V33.5531C31.7065 34.0426 31.5121 34.5121 31.1659 34.8582C30.8198 35.2044 30.3504 35.3988 29.8608 35.3988C29.3713 35.3988 28.9019 35.2044 28.5557 34.8582C28.2096 34.5121 28.0151 34.0426 28.0151 33.5531V32.4316C28.587 32.1412 29.2194 31.9898 29.8608 31.9898C30.5023 31.9898 31.1346 32.1412 31.7065 32.4316Z" fill="white"/>
<path d="M33.8792 35.3977C33.3992 35.3839 32.9435 35.1836 32.6089 34.8391C32.2743 34.4947 32.0872 34.0333 32.0874 33.5531V32.6531C32.56 32.9615 32.9633 33.3646 33.2717 33.8371C33.5802 34.3096 33.787 34.841 33.8792 35.3977Z" fill="white"/>
</g>
<defs>
<clipPath id="clip0_809_1751">
<rect width="60" height="60" fill="white"/>
</clipPath>
</defs>
</svg>
