<svg width="512" height="512" viewBox="0 0 512 512" fill="none" xmlns="http://www.w3.org/2000/svg">
<g clip-path="url(#clip0_809_1729)">
<path d="M256 512C397.385 512 512 397.385 512 256C512 114.615 397.385 0 256 0C114.615 0 0 114.615 0 256C0 397.385 114.615 512 256 512Z" fill="#F7BB38"/>
<path d="M411.69 459.23C367.011 493.453 312.3 511.999 256.02 511.999C199.74 511.999 145.029 493.453 100.35 459.23C107.28 442.91 125.35 428.49 150.67 417.86C178.67 406.06 215.6 398.91 256.02 398.91C296.44 398.91 333.35 406.06 361.38 417.86C386.68 428.51 404.76 442.91 411.69 459.23Z" fill="#009950"/>
<path d="M272.81 189.6H239.24V260.77H272.81V189.6Z" fill="#009950"/>
<path d="M363.39 77.48C354.329 77.4607 345.604 80.9058 339 87.11C332.276 70.5778 320.768 56.4302 305.951 46.4803C291.135 36.5304 273.685 31.2314 255.837 31.2626C237.99 31.2937 220.558 36.6536 205.777 46.6552C190.995 56.6568 179.537 70.8445 172.87 87.4C167.977 82.7179 161.853 79.5258 155.212 78.197C148.572 76.8682 141.691 77.4576 135.373 79.8964C129.055 82.3352 123.563 86.5224 119.538 91.9684C115.513 97.4143 113.122 103.894 112.644 110.649C112.166 117.404 113.622 124.156 116.841 130.114C120.06 136.072 124.909 140.99 130.82 144.293C136.732 147.597 143.462 149.149 150.223 148.767C156.985 148.386 163.497 146.087 169 142.14C173.764 161.601 184.913 178.904 200.666 191.285C216.418 203.665 235.866 210.408 255.902 210.437C275.938 210.466 295.405 203.779 311.194 191.444C326.982 179.108 338.181 161.837 343 142.39C347.592 145.592 352.873 147.668 358.417 148.45C363.96 149.232 369.61 148.698 374.908 146.891C380.207 145.084 385.006 142.055 388.916 138.049C392.827 134.043 395.739 129.172 397.417 123.832C399.096 118.491 399.493 112.83 398.578 107.307C397.662 101.784 395.459 96.5547 392.147 92.0414C388.834 87.5282 384.506 83.8582 379.512 81.3284C374.518 78.7987 368.998 77.4803 363.4 77.48H363.39Z" fill="#00B564"/>
<path d="M256.02 431.27C372.182 431.27 466.35 386.646 466.35 331.6C466.35 276.554 372.182 231.93 256.02 231.93C139.858 231.93 45.6899 276.554 45.6899 331.6C45.6899 386.646 139.858 431.27 256.02 431.27Z" fill="#00B564"/>
<path d="M401.19 329.6C401.19 344.99 379.11 358.69 344.81 367.44C320.27 373.7 289.47 377.44 256.02 377.44C222.25 377.44 191.18 373.64 166.52 367.27C132.63 358.51 110.86 344.9 110.86 329.61C110.86 321.46 117.05 313.78 127.96 307.07C137.96 300.94 151.79 295.61 168.5 291.44C172.087 290.54 175.803 289.7 179.65 288.92C193.52 286.139 207.545 284.202 221.65 283.12C225.823 282.78 230.06 282.507 234.36 282.3C241.42 281.95 248.65 281.77 256.01 281.77C263.11 281.77 270.08 281.933 276.92 282.26C281.32 282.467 285.653 282.74 289.92 283.08C304.022 284.153 318.048 286.073 331.92 288.83C335.753 289.597 339.467 290.43 343.06 291.33C359.74 295.46 373.64 300.74 383.65 306.82C394.85 313.59 401.19 321.35 401.19 329.6Z" fill="#27273D"/>
<path d="M256.02 190.27C294.36 190.27 325.44 159.19 325.44 120.85C325.44 82.5104 294.36 51.4301 256.02 51.4301C217.68 51.4301 186.6 82.5104 186.6 120.85C186.6 159.19 217.68 190.27 256.02 190.27Z" fill="white"/>
<path d="M256.02 165.66C278.647 165.66 296.99 147.317 296.99 124.69C296.99 102.063 278.647 83.72 256.02 83.72C233.393 83.72 215.05 102.063 215.05 124.69C215.05 147.317 233.393 165.66 256.02 165.66Z" fill="#3586CB"/>
<path d="M255.65 155.38C272.6 155.38 286.34 141.64 286.34 124.69C286.34 107.74 272.6 94 255.65 94C238.7 94 224.96 107.74 224.96 124.69C224.96 141.64 238.7 155.38 255.65 155.38Z" fill="#27273D"/>
<path d="M273.92 113.14C279.205 113.14 283.49 108.855 283.49 103.57C283.49 98.2846 279.205 94 273.92 94C268.635 94 264.35 98.2846 264.35 103.57C264.35 108.855 268.635 113.14 273.92 113.14Z" fill="white"/>
<path d="M255.65 136.24C262.029 136.24 267.2 131.069 267.2 124.69C267.2 118.311 262.029 113.14 255.65 113.14C249.271 113.14 244.1 118.311 244.1 124.69C244.1 131.069 249.271 136.24 255.65 136.24Z" fill="white"/>
<path d="M344.81 367.44C320.27 373.7 289.47 377.44 256.02 377.44C222.25 377.44 191.18 373.64 166.52 367.27C167.968 357.564 172.235 348.498 178.792 341.197C185.349 333.896 193.906 328.682 203.401 326.204C212.896 323.725 222.91 324.09 232.199 327.254C241.488 330.418 249.642 336.241 255.65 344C261.667 336.227 269.839 330.397 279.147 327.237C288.455 324.076 298.487 323.724 307.993 326.226C317.5 328.727 326.059 333.971 332.606 341.303C339.153 348.635 343.397 357.732 344.81 367.46V367.44Z" fill="#DB1B1B"/>
<path d="M168.5 291.43C168.03 312.66 158.67 329.59 147.19 329.59C138.72 329.59 131.41 320.39 127.96 307.06C137.91 300.93 151.79 295.6 168.5 291.43Z" fill="white"/>
<path d="M221.66 283.11C220.75 303.54 211.59 319.6 200.41 319.6C190.32 319.6 181.86 306.5 179.65 288.91C193.523 286.128 207.552 284.191 221.66 283.11Z" fill="white"/>
<path d="M383.69 306.81C380.27 320.28 372.92 329.59 364.41 329.59C352.91 329.59 343.54 312.59 343.1 291.32C359.78 295.45 373.68 300.73 383.69 306.81Z" fill="white"/>
<path d="M332 288.82C329.81 306.46 321.34 319.6 311.23 319.6C300.04 319.6 290.86 303.52 289.97 283.07C304.082 284.142 318.118 286.062 332 288.82Z" fill="white"/>
<path d="M276.93 282.25C276.25 303.09 266.98 319.6 255.65 319.6C244.32 319.6 235.06 303.11 234.37 282.29C241.43 281.94 248.66 281.76 256.02 281.76C263.12 281.76 270.09 281.923 276.93 282.25Z" fill="white"/>
<path d="M148.23 126.29C155.493 126.29 161.38 120.403 161.38 113.14C161.38 105.877 155.493 99.99 148.23 99.99C140.968 99.99 135.08 105.877 135.08 113.14C135.08 120.403 140.968 126.29 148.23 126.29Z" fill="#009950"/>
<path d="M363.39 126.29C370.652 126.29 376.54 120.403 376.54 113.14C376.54 105.877 370.652 99.99 363.39 99.99C356.127 99.99 350.24 105.877 350.24 113.14C350.24 120.403 356.127 126.29 363.39 126.29Z" fill="#009950"/>
</g>
<defs>
<clipPath id="clip0_809_1729">
<rect width="512" height="512" fill="white"/>
</clipPath>
</defs>
</svg>
