<svg width="512" height="512" viewBox="0 0 512 512" fill="none" xmlns="http://www.w3.org/2000/svg">
<g clip-path="url(#clip0_809_2029)">
<path d="M256 512C397.385 512 512 397.385 512 256C512 114.615 397.385 0 256 0C114.615 0 0 114.615 0 256C0 397.385 114.615 512 256 512Z" fill="#27273D"/>
<path d="M294.59 387.57V509.11C268.397 513.058 241.753 512.96 215.59 508.82V387.57H294.59Z" fill="#9EBC5B"/>
<path d="M294.59 419.82H215.59V459.32H294.59V419.82Z" fill="#90A84F"/>
<path d="M483.88 245.26C477.68 241.26 459.54 234.26 446.66 233.08C446.3 230.75 445.91 228.43 445.45 226.08C459.24 224.75 473.84 221.18 480.1 218.34C486.139 215.602 490.843 210.576 493.177 204.37C495.51 198.163 495.283 191.284 492.545 185.245C489.807 179.206 484.781 174.502 478.575 172.168C472.368 169.834 465.489 170.062 459.45 172.8C453.85 175.34 443.45 182.51 434.07 190.8C424.214 169.34 410.122 150.095 392.64 134.22C399.58 133.92 405.8 133.11 409.2 132.13C414.239 130.684 418.498 127.296 421.039 122.711C423.58 118.126 424.195 112.719 422.75 107.68C421.304 102.641 417.916 98.3823 413.331 95.8411C408.746 93.3 403.339 92.6845 398.3 94.1299C391.39 96.1299 375.02 104.82 365.52 113.52C363.28 112.1 361.003 110.723 358.69 109.39C370 99.9999 381.08 87.0999 384.76 80.6399C386.398 77.7862 387.456 74.6373 387.875 71.3737C388.293 68.1101 388.063 64.796 387.198 61.6215C386.333 58.4469 384.85 55.4744 382.833 52.8743C380.817 50.2742 378.307 48.0977 375.448 46.4696C372.588 44.8416 369.436 43.794 366.171 43.3869C362.906 42.9798 359.593 43.2212 356.421 44.0973C353.249 44.9734 350.282 46.467 347.689 48.4923C345.096 50.5177 342.928 53.035 341.31 55.8999C337.41 62.7499 331.54 80.4399 329.46 95.6299C307.248 87.2556 283.781 82.6947 260.05 82.1399C263.24 71.1399 264.86 58.4299 264.5 52.7199C264.167 47.4912 261.771 42.6088 257.838 39.1469C253.905 35.685 248.759 33.9271 243.53 34.2599C238.301 34.5928 233.419 36.9891 229.957 40.9217C226.495 44.8544 224.737 50.0012 225.07 55.2299C225.42 60.8099 228.52 72.8399 232.91 83.1499C212.351 85.1673 192.205 90.2223 173.13 98.1499C175.53 89.4599 176.92 80.8199 176.87 76.3799C176.716 71.2115 174.542 66.3095 170.815 62.7256C167.088 59.1417 162.104 57.1615 156.934 57.2099C151.763 57.2583 146.818 59.3315 143.158 62.9846C139.499 66.6376 137.417 71.5795 137.36 76.7499C137.43 83.5699 141.04 100.23 146.36 111.75C142.7 113.97 139.13 116.31 135.65 118.75C132 103.3 123.13 84.5899 118.05 77.8699C116.099 75.1781 113.63 72.9025 110.789 71.1763C107.948 69.45 104.791 68.3077 101.503 67.8164C98.2151 67.325 94.8621 67.4943 91.6404 68.3145C88.4186 69.1346 85.3928 70.5891 82.74 72.5929C80.0872 74.5966 77.8607 77.1093 76.1907 79.984C74.5208 82.8587 73.441 86.0375 73.0145 89.3346C72.588 92.6316 72.8234 95.9806 73.7069 99.1856C74.5904 102.391 76.1043 105.387 78.1599 108C83.3599 114.89 99.5799 129.09 113.7 136.73C97.6292 151.929 84.5886 170.039 75.2699 190.1C66.1399 182.1 56.1599 175.32 50.7299 172.85C44.6909 170.112 37.8115 169.884 31.605 172.218C25.3984 174.552 20.3733 179.256 17.6349 185.295C14.8965 191.334 14.6693 198.213 17.0032 204.42C19.3371 210.626 24.0409 215.652 30.0799 218.39C36.1699 221.15 50.1299 224.61 63.5799 226.02C63.0999 228.39 62.6899 230.79 62.3299 233.2C49.5399 234.7 32.3299 241.34 26.3299 245.26C21.9392 248.118 18.8636 252.602 17.7797 257.728C16.6957 262.853 17.6922 268.199 20.5499 272.59C23.4076 276.981 27.8924 280.056 33.0178 281.14C38.1432 282.224 43.4892 281.228 47.8799 278.37C50.9599 276.37 55.8799 271.98 60.8199 266.68C66.2199 359 150.87 432.4 254.5 432.4C358.59 432.4 443.5 358.4 448.28 265.48C453.59 271.31 459.02 276.22 462.33 278.37C466.721 281.228 472.067 282.224 477.192 281.14C482.317 280.056 486.802 276.981 489.66 272.59C492.518 268.199 493.514 262.853 492.43 257.728C491.346 252.602 488.271 248.118 483.88 245.26Z" fill="#B0D46C"/>
<path d="M256.4 432.39H254.5C150.87 432.4 66.2199 359 60.7799 266.69C55.8399 271.98 50.9199 276.38 47.8499 278.38C43.4586 281.127 38.1642 282.04 33.1063 280.923C28.0485 279.805 23.6316 276.747 20.8066 272.405C17.9817 268.063 16.9745 262.786 18.0018 257.709C19.0292 252.632 22.0091 248.162 26.2999 245.26C32.2999 241.35 49.5399 234.7 62.2999 233.2C62.6599 230.79 63.0699 228.4 63.5499 226.02C50.0999 224.61 36.1299 221.15 30.0499 218.39C24.115 215.587 19.5205 210.562 17.2584 204.401C14.9962 198.239 15.2478 191.436 17.9589 185.458C20.6699 179.481 25.6229 174.809 31.7486 172.452C37.8743 170.095 44.6812 170.241 50.6999 172.86C56.1299 175.32 66.1099 182.14 75.2399 190.11C84.5594 170.05 97.5999 151.939 113.67 136.74C99.5798 129.11 83.3599 114.9 78.1599 108C76.1334 105.384 74.6462 102.393 73.7846 99.1984C72.923 96.004 72.704 92.6704 73.1403 89.3907C73.5766 86.111 74.6596 82.9505 76.3265 80.0925C77.9934 77.2345 80.211 74.7358 82.8508 72.7413C85.4906 70.7467 88.5 69.296 91.7047 68.4732C94.9093 67.6503 98.2454 67.4718 101.52 67.948C104.794 68.4241 107.941 69.5454 110.778 71.2468C113.616 72.9483 116.087 75.196 118.05 77.8598C123.13 84.5898 132.05 103.29 135.7 118.75C139.18 116.31 142.75 113.977 146.41 111.75C141.04 100.26 137.41 83.5998 137.41 76.7498C137.467 71.5795 139.549 66.6376 143.208 62.9845C146.868 59.3314 151.813 57.2583 156.984 57.2099C162.154 57.1614 167.137 59.1416 170.865 62.7255C174.592 66.3094 176.766 71.2115 176.92 76.3798C176.92 80.8298 175.58 89.4698 173.18 98.1498C175.67 97.1498 178.18 96.1498 180.75 95.1498C158.32 132.41 145.22 177.31 145.22 225.64C145.17 315.36 190.25 393.23 256.4 432.39Z" fill="#9FBC61"/>
<path d="M327.57 149.9C312.199 149.9 297.161 154.375 284.29 162.777C271.42 171.18 261.274 183.148 255.09 197.22C247.781 180.583 234.97 166.967 218.81 158.657C202.649 150.347 184.121 147.85 166.337 151.585C148.553 155.319 132.595 165.058 121.142 179.166C109.688 193.274 103.437 210.893 103.437 229.065C103.437 247.237 109.688 264.856 121.142 278.964C132.595 293.072 148.553 302.811 166.337 306.545C184.121 310.28 202.649 307.782 218.81 299.473C234.97 291.163 247.781 277.547 255.09 260.91C260.826 273.973 269.985 285.243 281.598 293.528C293.212 301.814 306.849 306.808 321.067 307.982C335.285 309.155 349.556 306.465 362.371 300.196C375.186 293.926 386.069 284.31 393.869 272.365C401.669 260.42 406.096 246.589 406.683 232.334C407.269 218.08 403.993 203.932 397.201 191.386C390.408 178.84 380.352 168.363 368.095 161.062C355.838 153.761 341.836 149.908 327.57 149.91V149.9Z" fill="white"/>
<path d="M184.17 255.57C194.663 255.57 203.17 247.063 203.17 236.57C203.17 226.076 194.663 217.57 184.17 217.57C173.677 217.57 165.17 226.076 165.17 236.57C165.17 247.063 173.677 255.57 184.17 255.57Z" fill="#27273D"/>
<path d="M318.17 255.57C328.663 255.57 337.17 247.063 337.17 236.57C337.17 226.076 328.663 217.57 318.17 217.57C307.677 217.57 299.17 226.076 299.17 236.57C299.17 247.063 307.677 255.57 318.17 255.57Z" fill="#27273D"/>
<path d="M317.13 325.53C317.131 333.774 315.489 341.935 312.298 349.537C309.108 357.138 304.433 364.027 298.548 369.8C292.663 375.574 285.686 380.115 278.025 383.159C270.364 386.204 262.172 387.69 253.93 387.53C242.941 387.332 232.207 384.186 222.85 378.42C213.712 372.851 206.165 365.021 200.936 355.684C195.707 346.348 192.974 335.821 193 325.12C193 324.89 193 324.65 193 324.41C193.12 317.62 201.73 314.91 205.88 320.29C207.411 322.281 209.064 324.175 210.83 325.96C217.753 333.015 226.268 338.306 235.66 341.39C241.531 343.322 247.66 344.357 253.84 344.46C254.24 344.46 254.64 344.46 255.04 344.46C256.86 344.46 258.66 344.38 260.43 344.22C266.571 343.72 272.602 342.297 278.32 340C280.751 339.021 283.116 337.885 285.4 336.6C291.522 333.164 297.02 328.718 301.66 323.45C302.56 322.45 303.42 321.39 304.25 320.31C305.144 319.117 306.389 318.234 307.81 317.783C309.23 317.333 310.757 317.337 312.175 317.797C313.593 318.256 314.832 319.147 315.719 320.346C316.605 321.544 317.095 322.99 317.12 324.48C317.12 324.81 317.13 325.17 317.13 325.53Z" fill="#27273D"/>
<path d="M287.32 378.55C277.605 384.468 266.446 387.591 255.071 387.573C243.696 387.555 232.546 384.398 222.85 378.45C232.567 372.538 243.725 369.42 255.099 369.437C266.473 369.455 277.622 372.608 287.32 378.55Z" fill="#F58D89"/>
<path d="M255.09 314.74C276.723 314.74 294.26 297.203 294.26 275.57C294.26 253.937 276.723 236.4 255.09 236.4C233.457 236.4 215.92 253.937 215.92 275.57C215.92 297.203 233.457 314.74 255.09 314.74Z" fill="#E82D86"/>
<path d="M251.369 305.34C255.711 300.998 253.033 291.279 245.387 283.632C237.74 275.986 228.021 273.308 223.678 277.65C219.336 281.993 222.014 291.712 229.661 299.358C237.307 307.005 247.026 309.683 251.369 305.34Z" fill="#C9287D"/>
<path d="M280.958 299.356C288.605 291.71 291.283 281.991 286.941 277.648C282.598 273.306 272.879 275.984 265.232 283.63C257.586 291.277 254.908 300.996 259.25 305.339C263.593 309.681 273.312 307.003 280.958 299.356Z" fill="#C9287D"/>
<path d="M255.09 262.57C263.926 262.57 271.09 259.1 271.09 254.82C271.09 250.54 263.926 247.07 255.09 247.07C246.253 247.07 239.09 250.54 239.09 254.82C239.09 259.1 246.253 262.57 255.09 262.57Z" fill="#EA499E"/>
<path d="M229 338.73C228.52 349.73 224.39 358.4 219.37 358.4C214.02 358.4 209.69 348.63 209.69 336.57C209.662 333.012 210.062 329.463 210.88 326C216.109 331.294 222.246 335.606 229 338.73Z" fill="#FCFCFC"/>
<path d="M254.24 350.24C254.24 362.29 249.9 372.07 244.56 372.07C239.22 372.07 234.88 362.29 234.88 350.24C234.867 347.27 235.145 344.306 235.71 341.39C241.581 343.322 247.71 344.357 253.89 344.46C254.126 346.377 254.243 348.308 254.24 350.24Z" fill="#FCFCFC"/>
<path d="M279.46 350.24C279.46 362.29 275.13 372.07 269.78 372.07C264.43 372.07 260.1 362.29 260.1 350.24C260.096 348.234 260.223 346.23 260.48 344.24C266.605 343.729 272.619 342.299 278.32 340C279.094 343.358 279.476 346.794 279.46 350.24Z" fill="#FCFCFC"/>
<path d="M304.68 339.27C304.68 351.33 300.35 361.1 295 361.1C289.65 361.1 285.32 351.33 285.32 339.27C285.32 338.36 285.32 337.46 285.4 336.58C291.522 333.144 297.02 328.698 301.66 323.43C303.769 328.439 304.798 333.836 304.68 339.27Z" fill="#FCFCFC"/>
<path d="M153.85 352.5C167.48 352.5 178.53 343.635 178.53 332.7C178.53 321.765 167.48 312.9 153.85 312.9C140.22 312.9 129.17 321.765 129.17 332.7C129.17 343.635 140.22 352.5 153.85 352.5Z" fill="#FCC8BC"/>
<path d="M361.85 352.5C375.48 352.5 386.53 343.635 386.53 332.7C386.53 321.765 375.48 312.9 361.85 312.9C348.22 312.9 337.17 321.765 337.17 332.7C337.17 343.635 348.22 352.5 361.85 352.5Z" fill="#FCC8BC"/>
<path d="M329.57 143.36C338.561 143.36 345.85 136.071 345.85 127.08C345.85 118.089 338.561 110.8 329.57 110.8C320.579 110.8 313.29 118.089 313.29 127.08C313.29 136.071 320.579 143.36 329.57 143.36Z" fill="#C6E580"/>
<path d="M299.94 122.12C306.308 122.12 311.47 116.958 311.47 110.59C311.47 104.222 306.308 99.0598 299.94 99.0598C293.572 99.0598 288.41 104.222 288.41 110.59C288.41 116.958 293.572 122.12 299.94 122.12Z" fill="#C6E580"/>
</g>
<defs>
<clipPath id="clip0_809_2029">
<rect width="512" height="512" fill="white"/>
</clipPath>
</defs>
</svg>
