<svg width="512" height="512" viewBox="0 0 512 512" fill="none" xmlns="http://www.w3.org/2000/svg">
<g clip-path="url(#clip0_809_1664)">
<path d="M256 512C397.385 512 512 397.385 512 256C512 114.615 397.385 0 256 0C114.615 0 0 114.615 0 256C0 397.385 114.615 512 256 512Z" fill="#934CF5"/>
<path d="M221.56 53.18C221.56 71.38 236.31 193.07 254.51 193.07C272.71 193.07 287.45 71.38 287.45 53.18C287.526 48.8053 286.73 44.4592 285.109 40.3954C283.487 36.3316 281.073 32.6313 278.006 29.5107C274.939 26.39 271.282 23.9114 267.247 22.2194C263.212 20.5274 258.88 19.656 254.505 19.656C250.129 19.656 245.798 20.5274 241.763 22.2194C237.728 23.9114 234.07 26.39 231.003 29.5107C227.937 32.6313 225.522 36.3316 223.901 40.3954C222.279 44.4592 221.483 48.8053 221.56 53.18Z" fill="#F6D372"/>
<path d="M449.79 90.8901C436.92 103.75 361.3 200.23 374.17 213.1C387.04 225.97 483.51 150.35 496.38 137.48C499.439 134.421 501.866 130.789 503.521 126.792C505.177 122.795 506.029 118.511 506.029 114.185C506.029 109.859 505.177 105.575 503.521 101.578C501.866 97.5809 499.439 93.9492 496.38 90.8901C493.321 87.8309 489.689 85.4043 485.692 83.7487C481.695 82.0931 477.411 81.241 473.085 81.241C468.759 81.241 464.475 82.0931 460.478 83.7487C456.481 85.4043 452.849 87.8309 449.79 90.8901Z" fill="#F6D372"/>
<path d="M60.9398 90.8901C73.8098 103.75 149.43 200.23 136.56 213.1C123.69 225.97 27.2198 150.35 14.3498 137.48C8.17157 131.302 4.70068 122.922 4.70068 114.185C4.70068 105.448 8.17157 97.0683 14.3498 90.8901C20.528 84.7119 28.9075 81.241 37.6448 81.241C46.3821 81.241 54.7616 84.7119 60.9398 90.8901Z" fill="#F6D372"/>
<path d="M339.77 46.69C334.7 64.16 314.94 185.14 332.41 190.22C349.88 195.3 398 82.54 403.05 65.06C405.336 56.7149 404.248 47.8055 400.021 40.2559C395.794 32.7063 388.766 27.1225 380.457 24.7102C372.148 22.298 363.223 23.2511 355.61 27.3636C347.997 31.4761 342.308 38.418 339.77 46.69Z" fill="#F6D372"/>
<path d="M167.16 46.69C172.23 64.16 192 185.14 174.52 190.22C157.04 195.3 109 82.54 103.88 65.06C101.594 56.7149 102.682 47.8055 106.909 40.2559C111.136 32.7063 118.164 27.1225 126.473 24.7102C134.782 22.298 143.707 23.2511 151.32 27.3636C158.933 31.4761 164.622 38.418 167.16 46.69Z" fill="#F6D372"/>
<path d="M426.51 229.23V447C380.287 488.359 320.607 511.507 258.584 512.133C196.562 512.758 136.427 490.819 89.3798 450.4L88.5098 449.65V229.23C88.5045 222.105 89.9043 215.049 92.629 208.466C95.3537 201.883 99.3498 195.902 104.389 190.865C109.428 185.828 115.41 181.834 121.994 179.112C128.579 176.389 135.635 174.992 142.76 175H372.26C376.896 174.991 381.514 175.579 386 176.75L386.19 176.8C398.265 180.005 408.862 187.282 416.19 197.4C416.219 197.429 416.242 197.463 416.26 197.5C422.938 206.731 426.526 217.837 426.51 229.23Z" fill="#CD88F8"/>
<path d="M183.63 175C182.73 175 181.84 175 180.95 175.07C173.838 175.406 166.863 177.15 160.43 180.2C150.547 184.891 142.306 192.449 136.78 201.89C131.918 210.187 129.364 219.633 129.38 229.25V478.54C115.175 470.445 101.78 461.005 89.3799 450.35V229.23C89.3773 222.106 90.7788 215.051 93.5045 208.469C96.2301 201.887 100.226 195.907 105.265 190.871C110.303 185.834 116.285 181.84 122.868 179.117C129.451 176.394 136.506 174.995 143.63 175H183.63Z" fill="#B779E2"/>
<path d="M275.57 140.4C272.94 153.46 269.95 165.63 266.7 174.98H241.86C238.61 165.63 235.62 153.46 232.99 140.4H275.57Z" fill="#F7BB38"/>
<path d="M447.31 176.26C437 183.75 426.12 191.2 416 197.5C408.683 187.35 398.086 180.038 386 176.8C392.31 166.2 400.22 154.47 408.32 143.13C416.743 145.684 424.551 149.943 431.259 155.642C437.966 161.342 443.43 168.36 447.31 176.26Z" fill="#F7BB38"/>
<path d="M124.93 177.9C113.59 181.802 103.859 189.344 97.2497 199.35C85.9197 192.44 73.4797 183.9 61.6997 175.35C65.745 167.438 71.3891 160.453 78.2745 154.836C85.16 149.219 93.1367 145.094 101.7 142.72C110.14 154.58 118.43 166.89 124.93 177.9Z" fill="#F7BB38"/>
<path d="M370 140.4C363.31 153.54 356.4 165.86 350.09 174.98H325.75C324.75 165.98 324.99 153.76 325.91 140.4H370Z" fill="#F7BB38"/>
<path d="M180.73 175H156.41C150.1 165.88 143.19 153.56 136.5 140.42H180.57C181.5 153.76 181.71 166 180.73 175Z" fill="#F7BB38"/>
<path d="M201.92 345.71C225.657 345.71 244.9 326.467 244.9 302.73C244.9 278.993 225.657 259.75 201.92 259.75C178.183 259.75 158.94 278.993 158.94 302.73C158.94 326.467 178.183 345.71 201.92 345.71Z" fill="white"/>
<path d="M201.92 330.48C215.931 330.48 227.29 319.121 227.29 305.11C227.29 291.099 215.931 279.74 201.92 279.74C187.908 279.74 176.55 291.099 176.55 305.11C176.55 319.121 187.908 330.48 201.92 330.48Z" fill="#3586CB"/>
<path d="M201.69 324.11C212.183 324.11 220.69 315.603 220.69 305.11C220.69 294.616 212.183 286.11 201.69 286.11C191.197 286.11 182.69 294.616 182.69 305.11C182.69 315.603 191.197 324.11 201.69 324.11Z" fill="#27273D"/>
<path d="M213 297.96C216.275 297.96 218.93 295.305 218.93 292.03C218.93 288.755 216.275 286.1 213 286.1C209.725 286.1 207.07 288.755 207.07 292.03C207.07 295.305 209.725 297.96 213 297.96Z" fill="white"/>
<path d="M201.69 312.26C205.638 312.26 208.84 309.059 208.84 305.11C208.84 301.161 205.638 297.96 201.69 297.96C197.741 297.96 194.54 301.161 194.54 305.11C194.54 309.059 197.741 312.26 201.69 312.26Z" fill="white"/>
<path d="M310.79 345.71C334.527 345.71 353.77 326.467 353.77 302.73C353.77 278.993 334.527 259.75 310.79 259.75C287.052 259.75 267.81 278.993 267.81 302.73C267.81 326.467 287.052 345.71 310.79 345.71Z" fill="white"/>
<path d="M310.79 330.48C324.801 330.48 336.16 319.121 336.16 305.11C336.16 291.099 324.801 279.74 310.79 279.74C296.778 279.74 285.42 291.099 285.42 305.11C285.42 319.121 296.778 330.48 310.79 330.48Z" fill="#3586CB"/>
<path d="M310.56 324.11C321.053 324.11 329.56 315.603 329.56 305.11C329.56 294.616 321.053 286.11 310.56 286.11C300.066 286.11 291.56 294.616 291.56 305.11C291.56 315.603 300.066 324.11 310.56 324.11Z" fill="#27273D"/>
<path d="M321.87 297.96C325.145 297.96 327.8 295.305 327.8 292.03C327.8 288.755 325.145 286.1 321.87 286.1C318.595 286.1 315.94 288.755 315.94 292.03C315.94 295.305 318.595 297.96 321.87 297.96Z" fill="white"/>
<path d="M310.56 312.26C314.508 312.26 317.71 309.059 317.71 305.11C317.71 301.161 314.508 297.96 310.56 297.96C306.611 297.96 303.41 301.161 303.41 305.11C303.41 309.059 306.611 312.26 310.56 312.26Z" fill="white"/>
<path d="M343.64 440.25C337.591 449.983 328.629 457.561 318.026 461.908C307.423 466.254 295.719 467.147 284.58 464.46C266.789 460.16 248.23 460.16 230.44 464.46C222.251 466.442 213.714 466.496 205.5 464.618C197.287 462.74 189.622 458.981 183.108 453.636C176.595 448.292 171.411 441.508 167.965 433.82C164.519 426.132 162.905 417.748 163.25 409.33C163.51 402.788 164.964 396.349 167.54 390.33C172.582 378.424 181.701 368.704 193.26 362.912C204.82 357.119 218.064 355.633 230.62 358.72C248.282 363.05 266.728 363.05 284.39 358.72C296.935 355.636 310.169 357.117 321.722 362.898C333.276 368.678 342.395 378.381 347.45 390.27C350.046 396.301 351.51 402.759 351.77 409.32C352.233 420.213 349.4 430.993 343.64 440.25Z" fill="#27273D"/>
<path d="M343.64 440.25C337.592 449.983 328.629 457.561 318.026 461.908C307.423 466.254 295.72 467.147 284.58 464.46C266.789 460.16 248.23 460.16 230.44 464.46C219.3 467.147 207.597 466.254 196.994 461.908C186.391 457.561 177.428 449.983 171.38 440.25C192.61 430.25 223.38 423.98 257.51 423.98C291.64 423.98 322.41 430.26 343.64 440.25Z" fill="#DB1B1B"/>
<path d="M138.03 397.09C153.229 397.09 165.55 384.769 165.55 369.57C165.55 354.371 153.229 342.05 138.03 342.05C122.831 342.05 110.51 354.371 110.51 369.57C110.51 384.769 122.831 397.09 138.03 397.09Z" fill="#FC715A"/>
<path d="M375.08 397.09C390.278 397.09 402.6 384.769 402.6 369.57C402.6 354.371 390.278 342.05 375.08 342.05C359.881 342.05 347.56 354.371 347.56 369.57C347.56 384.769 359.881 397.09 375.08 397.09Z" fill="#FC715A"/>
<path d="M347.45 390.27C342.95 395.51 332.26 406.72 332.26 406.72L323.77 384.39L307.86 398.39L292.43 378.72L276.43 400.72L267.43 382.06L257.51 399.92L247.59 382.06L238.59 400.72L222.59 378.72L207.08 398.4L191.18 384.4L182.69 406.73C182.69 406.73 172.06 395.58 167.54 390.33C172.582 378.424 181.701 368.704 193.26 362.912C204.819 357.119 218.064 355.633 230.62 358.72C248.281 363.05 266.728 363.05 284.39 358.72C296.935 355.636 310.168 357.117 321.722 362.898C333.275 368.678 342.395 378.381 347.45 390.27Z" fill="white"/>
<path d="M395.63 249.13C404.621 249.13 411.91 241.841 411.91 232.85C411.91 223.859 404.621 216.57 395.63 216.57C386.638 216.57 379.35 223.859 379.35 232.85C379.35 241.841 386.638 249.13 395.63 249.13Z" fill="#D29BF9"/>
<path d="M371.65 220.4C378.017 220.4 383.18 215.238 383.18 208.87C383.18 202.502 378.017 197.34 371.65 197.34C365.282 197.34 360.12 202.502 360.12 208.87C360.12 215.238 365.282 220.4 371.65 220.4Z" fill="#D29BF9"/>
</g>
<defs>
<clipPath id="clip0_809_1664">
<rect width="512" height="512" fill="white"/>
</clipPath>
</defs>
</svg>
