<svg width="512" height="512" viewBox="0 0 512 512" fill="none" xmlns="http://www.w3.org/2000/svg">
<g clip-path="url(#clip0_809_1643)">
<path d="M256 512C397.385 512 512 397.385 512 256C512 114.615 397.385 0 256 0C114.615 0 0 114.615 0 256C0 397.385 114.615 512 256 512Z" fill="#FCC8BC"/>
<path d="M373.71 447.82L367.71 486.38C358.352 490.938 348.72 494.912 338.87 498.28C306.814 509.203 272.914 513.678 239.122 511.446C205.329 509.215 172.312 500.323 141.97 485.28L136.17 447.83C97.79 435.27 72 418.13 55.05 399L53.27 396.94C30.17 369.56 24.77 338.3 26.65 310.56C27.39 299.56 40.89 296.04 47.45 303.76C48.0199 304.437 48.5192 305.171 48.94 305.95C50.9523 309.663 53.385 313.133 56.19 316.29C56.53 316.68 56.87 317.05 57.19 317.42C58.5432 318.87 59.9683 320.252 61.46 321.56C62.19 322.2 62.94 322.82 63.7 323.43C64.46 324.04 65.21 324.61 65.97 325.17L67.13 325.99C68.29 326.8 69.46 327.56 70.64 328.28L71.81 328.98C73.38 329.9 74.96 330.75 76.53 331.52C77.31 331.907 78.09 332.277 78.87 332.63C79.65 332.99 80.42 333.32 81.18 333.63C82.72 334.297 84.2233 334.877 85.69 335.37L86.78 335.75C88.85 336.46 90.78 337.05 92.67 337.54C94.76 338.1 96.67 338.54 98.34 338.86L99.54 339.1C103.18 339.78 105.41 339.95 105.41 339.95V170.8C105.384 150.199 109.63 129.817 117.88 110.94C118.37 109.82 118.88 108.72 119.38 107.62C119.88 106.52 120.38 105.44 120.95 104.36C121.52 103.28 122.04 102.2 122.6 101.13C123.16 100.06 123.77 98.9999 124.36 97.9999C124.95 96.9999 125.55 95.9099 126.16 94.8699C126.77 93.8299 127.4 92.8099 128.03 91.7899C129.31 89.7899 130.63 87.7899 132.03 85.7899C132.72 84.7899 133.41 83.7899 134.12 82.8599C134.83 81.9299 135.54 80.9399 136.27 79.9799C137 79.0199 137.74 78.0899 138.49 77.1599C139.24 76.2299 140 75.2999 140.77 74.3899C141.54 73.4799 142.33 72.5699 143.12 71.6799C143.72 70.9999 144.33 70.3299 144.95 69.6799C145.32 69.2599 145.72 68.8299 146.12 68.4099C146.75 67.7499 147.38 67.0899 148.01 66.4099L149.27 65.1299C149.69 64.6999 150.12 64.2799 150.55 63.8699C150.98 63.4599 151.4 63.0399 151.84 62.6199C152.7 61.7899 153.58 60.9799 154.46 60.1799L155.8 58.9799C156.69 58.1899 157.6 57.3999 158.51 56.6299L159.89 55.4799C160.47 54.9999 161.05 54.4799 161.64 54.0599C162.43 53.4199 163.23 52.7899 164.04 52.1799C165.1 51.3599 166.18 50.5499 167.26 49.7699C167.92 49.2899 168.59 48.7699 169.26 48.3499C170.547 47.4433 171.853 46.5566 173.18 45.6899L174.25 44.9899L175.98 43.8999C176.647 43.4599 177.347 43.0299 178.08 42.6099C179.42 41.8099 180.77 41.0199 182.14 40.2599C182.6 39.9999 183.06 39.7399 183.53 39.4899C184.67 38.8699 185.82 38.2599 186.98 37.6699L188.54 36.8799L190.27 36.0299L192.27 35.0899C192.8 34.8399 193.33 34.5999 193.87 34.3699C194.41 34.1399 194.7 33.9899 195.11 33.8099C197.42 32.8099 199.75 31.8099 202.11 30.9499C202.94 30.6399 203.77 30.3299 204.6 30.0399C205.98 29.5399 207.36 29.0399 208.76 28.6199L209.86 28.2699C210.66 28.0099 211.46 27.7699 212.27 27.5299C213.08 27.2899 213.99 27.0299 214.86 26.7899C215.73 26.5499 216.6 26.3099 217.47 26.0899L219.4 25.5999L220.32 25.3799L222.75 24.8299C244.594 20.019 267.24 20.1687 289.019 25.2681C310.798 30.3675 331.155 40.2867 348.593 54.2953C366.031 68.304 380.105 86.0454 389.779 106.213C399.453 126.381 404.48 148.462 404.49 170.83V339.93C404.49 339.93 444.2 336.86 460.98 305.93C466.66 295.47 482.48 298.66 483.28 310.54C486.51 358.52 467.94 417 373.71 447.82Z" fill="#A65C3B"/>
<path d="M338.89 498.28C306.834 509.203 272.934 513.677 239.142 511.446C205.349 509.215 172.332 500.322 141.99 485.28L136.18 447.83C97.79 435.27 72 418.13 55.05 399L53.27 396.94C30.17 369.56 24.77 338.3 26.65 310.56C27.39 299.56 40.89 296.04 47.45 303.76C48.0234 304.437 48.526 305.171 48.95 305.95C50.9648 309.659 53.3937 313.128 56.19 316.29C56.53 316.68 56.87 317.05 57.19 317.42C58.57 318.89 60 320.26 61.46 321.56C62.19 322.2 62.94 322.82 63.7 323.43C64.46 324.04 65.21 324.6 65.97 325.17L67.13 325.99C68.29 326.8 69.46 327.56 70.64 328.28L71.81 328.98C73.39 329.9 74.96 330.74 76.53 331.52L78.87 332.63C79.65 332.98 80.42 333.32 81.18 333.63C82.72 334.297 84.2233 334.876 85.69 335.37L86.78 335.75C88.85 336.45 90.78 337.04 92.67 337.54C94.76 338.1 96.67 338.54 98.34 338.86L99.54 339.1C103.18 339.78 105.41 339.95 105.41 339.95V170.8C105.382 150.198 109.631 129.814 117.89 110.94C118.38 109.82 118.89 108.72 119.39 107.62C119.89 106.52 120.39 105.44 120.96 104.36C121.53 103.28 122.04 102.2 122.61 101.13C123.18 100.06 123.77 98.9998 124.36 97.9998C124.95 96.9998 125.55 95.9098 126.16 94.8698C126.77 93.8298 127.4 92.8098 128.03 91.7898C129.29 89.7498 130.623 87.7498 132.03 85.7898C132.72 84.7898 133.41 83.7898 134.12 82.8598C134.83 81.9298 135.54 80.9398 136.27 79.9798C137 79.0198 137.72 78.0898 138.49 77.1598C139.26 76.2298 140 75.2998 140.77 74.3898C141.54 73.4798 142.33 72.5698 143.12 71.6798C143.72 70.9998 144.33 70.3298 144.95 69.6798C145.32 69.2598 145.72 68.8298 146.12 68.4098C146.75 67.7498 147.38 67.0898 148.01 66.4098C148.41 65.9798 148.84 65.5498 149.26 65.1298C149.68 64.6998 150.11 64.2798 150.54 63.8698C150.97 63.4598 151.39 63.0398 151.83 62.6198C152.69 61.7898 153.57 60.9798 154.45 60.1798L155.79 58.9798C156.68 58.1898 157.59 57.3998 158.5 56.6298L159.88 55.4798C160.46 54.9998 161.04 54.4798 161.63 54.0598C162.42 53.4198 163.22 52.7898 164.03 52.1798C165.09 51.3598 166.17 50.5498 167.25 49.7698C167.91 49.2898 168.58 48.7698 169.25 48.3498C170.537 47.4432 171.843 46.5565 173.17 45.6898L174.24 44.9898L175.97 43.8998C176.637 43.4598 177.337 43.0298 178.07 42.6098C179.41 41.8098 180.76 41.0198 182.13 40.2598C182.59 39.9998 183.05 39.7398 183.52 39.4898C184.66 38.8698 185.81 38.2598 186.97 37.6698L188.53 36.8798L190.26 36.0298L192.26 35.0898C192.79 34.8398 193.32 34.5998 193.86 34.3698C194.4 34.1398 194.69 33.9898 195.1 33.8098C197.41 32.8098 199.74 31.8098 202.1 30.9498C202.93 30.6398 203.76 30.3298 204.59 30.0398C205.97 29.5398 207.35 29.0398 208.75 28.6198L209.85 28.2698C210.65 28.0098 211.45 27.7698 212.26 27.5298C213.07 27.2898 213.98 27.0298 214.85 26.7898C215.72 26.5498 216.59 26.3098 217.46 26.0898L219.39 25.5998L220.31 25.3798L222.74 24.8298C205.224 54.3273 192.265 86.3013 184.3 119.67C181.633 130.75 179.457 142.083 177.77 153.67C176.083 165.257 174.957 177.023 174.39 188.97C174.09 195.11 173.94 201.3 173.94 207.54C173.94 212.726 174.047 217.883 174.26 223.01C174.68 233.636 175.537 244.113 176.83 254.44C177.397 259.053 178.063 263.626 178.83 268.16C187.97 324.36 209.57 375.16 239.99 416.02C266.86 452.15 300.69 480.61 338.89 498.28Z" fill="#9E4830"/>
<path d="M181.52 224.08C200.751 224.08 216.34 200.66 216.34 171.77C216.34 142.88 200.751 119.46 181.52 119.46C162.29 119.46 146.7 142.88 146.7 171.77C146.7 200.66 162.29 224.08 181.52 224.08Z" fill="white"/>
<path d="M181.52 190.33C191.77 190.33 200.08 182.02 200.08 171.77C200.08 161.52 191.77 153.21 181.52 153.21C171.27 153.21 162.96 161.52 162.96 171.77C162.96 182.02 171.27 190.33 181.52 190.33Z" fill="#27273D"/>
<path d="M254.95 224.08C274.18 224.08 289.77 200.66 289.77 171.77C289.77 142.88 274.18 119.46 254.95 119.46C235.719 119.46 220.13 142.88 220.13 171.77C220.13 200.66 235.719 224.08 254.95 224.08Z" fill="white"/>
<path d="M254.95 190.33C265.201 190.33 273.51 182.02 273.51 171.77C273.51 161.52 265.201 153.21 254.95 153.21C244.7 153.21 236.39 161.52 236.39 171.77C236.39 182.02 244.7 190.33 254.95 190.33Z" fill="#27273D"/>
<path d="M328.38 224.08C347.611 224.08 363.2 200.66 363.2 171.77C363.2 142.88 347.611 119.46 328.38 119.46C309.15 119.46 293.56 142.88 293.56 171.77C293.56 200.66 309.15 224.08 328.38 224.08Z" fill="white"/>
<path d="M328.38 190.33C338.63 190.33 346.94 182.02 346.94 171.77C346.94 161.52 338.63 153.21 328.38 153.21C318.129 153.21 309.82 161.52 309.82 171.77C309.82 182.02 318.129 190.33 328.38 190.33Z" fill="#27273D"/>
<path d="M372 324.26C372 356.09 359.67 382.93 342.79 391.41C340.69 393 338.46 394.53 336.12 395.98C325.249 402.6 313.453 407.564 301.12 410.71C286.065 414.644 270.561 416.604 255 416.54C241.995 416.589 229.021 415.248 216.3 412.54C203.205 409.834 190.571 405.247 178.79 398.92C174.747 396.709 170.867 394.213 167.18 391.45C150.3 382.97 137.97 356.13 137.97 324.3C137.97 306.39 141.87 290.05 148.29 277.67C155.73 263.36 166.52 254.35 178.55 254.35C180.183 254.345 181.812 254.513 183.41 254.85C196.52 257.55 207.7 271.04 213.91 289.99C214.14 290.688 214.619 291.277 215.255 291.646C215.891 292.015 216.64 292.137 217.36 291.99C217.878 291.884 218.359 291.644 218.754 291.293C219.149 290.941 219.445 290.492 219.61 289.99C222.76 280.39 227.18 272.19 232.5 266.09C238.93 258.7 246.65 254.39 254.96 254.39C259.616 254.428 264.173 255.735 268.14 258.17C277.59 263.76 285.47 275.17 290.31 289.99C290.476 290.492 290.771 290.941 291.166 291.293C291.561 291.644 292.042 291.884 292.56 291.99C293.28 292.137 294.03 292.015 294.666 291.646C295.302 291.277 295.78 290.688 296.01 289.99C302.22 271.04 313.4 257.55 326.5 254.85C328.102 254.513 329.734 254.345 331.37 254.35C343.37 254.35 354.19 263.35 361.62 277.67C368.08 290 372 306.35 372 324.26Z" fill="#27273D"/>
<path d="M216.25 412.5C203.155 409.794 190.521 405.207 178.74 398.88L200.07 365.46L216.25 412.5Z" fill="white"/>
<path d="M336.1 396C325.229 402.62 313.433 407.584 301.1 410.73L316.66 365.48L336.1 396Z" fill="white"/>
<path d="M361.65 277.63L343.92 305.38L326.53 254.81C328.131 254.473 329.763 254.305 331.4 254.31C343.43 254.31 354.22 263.32 361.65 277.63Z" fill="white"/>
<path d="M268.13 258.09L261.64 298.09L232.49 266.09C238.92 258.7 246.64 254.39 254.95 254.39C259.598 254.403 264.154 255.683 268.13 258.09Z" fill="white"/>
<path d="M183.36 254.81L166 305.38L148.27 277.63C155.71 263.32 166.5 254.31 178.53 254.31C180.153 254.307 181.772 254.475 183.36 254.81Z" fill="white"/>
<path d="M261.18 380.13C285.994 380.13 306.11 365.888 306.11 348.32C306.11 330.752 285.994 316.51 261.18 316.51C236.366 316.51 216.25 330.752 216.25 348.32C216.25 365.888 236.366 380.13 261.18 380.13Z" fill="#DB1B1B"/>
<path d="M330.51 86.1799C340.042 86.1799 347.77 78.4523 347.77 68.9199C347.77 59.3875 340.042 51.6599 330.51 51.6599C320.978 51.6599 313.25 59.3875 313.25 68.9199C313.25 78.4523 320.978 86.1799 330.51 86.1799Z" fill="#BC6F50"/>
<path d="M301.05 60.5198C307.804 60.5198 313.28 55.0443 313.28 48.2898C313.28 41.5354 307.804 36.0598 301.05 36.0598C294.295 36.0598 288.82 41.5354 288.82 48.2898C288.82 55.0443 294.295 60.5198 301.05 60.5198Z" fill="#BC6F50"/>
</g>
<defs>
<clipPath id="clip0_809_1643">
<rect width="512" height="512" fill="white"/>
</clipPath>
</defs>
</svg>
