<svg width="60" height="60" viewBox="0 0 60 60" fill="none" xmlns="http://www.w3.org/2000/svg">
<g clip-path="url(#clip0_809_1839)">
<path d="M30 60C46.5685 60 60 46.5685 60 30C60 13.4315 46.5685 0 30 0C13.4315 0 0 13.4315 0 30C0 46.5685 13.4315 60 30 60Z" fill="#27273D"/>
<path d="M52.1191 24.6773L47.5664 24.7055L47.5898 24.6773L43.0371 24.7055L43.0605 24.6773L38.0671 24.7078L40.446 27.0867C40.4923 27.1316 40.5472 27.1664 40.6075 27.1891C40.6678 27.2117 40.7321 27.2217 40.7965 27.2184C40.8608 27.2151 40.9238 27.1986 40.9814 27.1699C41.0391 27.1412 41.0902 27.1009 41.1316 27.0516L42.839 24.9504L44.9753 27.0867C45.0216 27.1316 45.0765 27.1664 45.1368 27.1891C45.1971 27.2117 45.2614 27.2217 45.3258 27.2184C45.3901 27.2151 45.4531 27.1986 45.5107 27.1699C45.5684 27.1412 45.6195 27.1009 45.6609 27.0516L47.3683 24.9504L49.5046 27.0867C49.5509 27.1316 49.6058 27.1664 49.6661 27.1891C49.7264 27.2117 49.7907 27.2217 49.8551 27.2184C49.9194 27.2151 49.9824 27.1986 50.04 27.1699C50.0977 27.1412 50.1488 27.1009 50.1902 27.0516L52.1191 24.6773Z" fill="white"/>
<path d="M30.7747 8.1457C30.7747 8.1457 35.7504 0.3375 43.6501 1.67227C43.8562 1.7071 44.0511 1.79059 44.2185 1.91581C44.3859 2.04103 44.5211 2.20437 44.6127 2.39227C44.7044 2.58018 44.7499 2.78723 44.7455 2.99625C44.7412 3.20527 44.687 3.41024 44.5876 3.59414L44.5629 3.64219C44.431 3.90975 44.3563 4.20188 44.3435 4.49994C44.3307 4.798 44.3803 5.09544 44.4889 5.3733C44.5975 5.65116 44.7628 5.90333 44.9743 6.11373C45.1858 6.32414 45.4388 6.48815 45.7172 6.59531C47.3907 7.24688 50.1434 9.08789 50.9391 14.2242C50.9726 14.4524 50.9589 14.6851 50.8989 14.9078C50.8389 15.1305 50.7339 15.3385 50.5904 15.5191C50.4468 15.6996 50.2678 15.8488 50.0644 15.9575C49.8609 16.0661 49.6373 16.1319 49.4075 16.1508C48.811 16.2082 48.1934 16.4531 47.7938 17.1129C47.5464 17.5147 47.1998 17.8461 46.7872 18.0751C46.3747 18.3042 45.9102 18.4232 45.4383 18.4207H32.877L30.7747 8.1457Z" fill="#AA60FA"/>
<path d="M49.1975 21.5473C53.7992 21.5473 57.5295 17.8169 57.5295 13.2152C57.5295 8.61358 53.7992 4.8832 49.1975 4.8832C44.5959 4.8832 40.8655 8.61358 40.8655 13.2152C40.8655 17.8169 44.5959 21.5473 49.1975 21.5473Z" fill="white"/>
<path d="M49.1977 18.593C51.9134 18.593 54.1149 16.3915 54.1149 13.6758C54.1149 10.9601 51.9134 8.75859 49.1977 8.75859C46.482 8.75859 44.2805 10.9601 44.2805 13.6758C44.2805 16.3915 46.482 18.593 49.1977 18.593Z" fill="#3586CB"/>
<path d="M49.1519 17.3602C51.1867 17.3602 52.8363 15.7106 52.8363 13.6758C52.8363 11.641 51.1867 9.99141 49.1519 9.99141C47.1171 9.99141 45.4675 11.641 45.4675 13.6758C45.4675 15.7106 47.1171 17.3602 49.1519 17.3602Z" fill="#27273D"/>
<path d="M51.3457 12.2895C51.98 12.2895 52.4941 11.7753 52.4941 11.141C52.4941 10.5068 51.98 9.99258 51.3457 9.99258C50.7114 9.99258 50.1973 10.5068 50.1973 11.141C50.1973 11.7753 50.7114 12.2895 51.3457 12.2895Z" fill="white"/>
<path d="M49.152 15.0621C49.9176 15.0621 50.5383 14.4414 50.5383 13.6758C50.5383 12.9101 49.9176 12.2895 49.152 12.2895C48.3863 12.2895 47.7656 12.9101 47.7656 13.6758C47.7656 14.4414 48.3863 15.0621 49.152 15.0621Z" fill="white"/>
<path d="M52.0465 24.7676C52.0078 24.7676 51.9691 24.7676 51.9293 24.7676H40.4988C40.046 24.7664 39.5968 24.8482 39.1734 25.009C38.985 25.0792 38.8027 25.1651 38.6285 25.2656C38.3408 25.4307 38.0761 25.6328 37.841 25.8668C37.3157 26.3922 36.9581 27.0616 36.8133 27.7903C36.6685 28.519 36.7431 29.2743 37.0276 29.9606C37.3121 30.6469 37.7938 31.2334 38.4116 31.6459C39.0295 32.0584 39.7559 32.2785 40.4988 32.2781H44.1316C44.7607 32.2791 45.3638 32.5294 45.8086 32.9742C46.2534 33.419 46.5038 34.0221 46.5047 34.6512C46.5044 36.4287 45.7982 38.1333 44.5415 39.3902C43.2847 40.6472 41.5802 41.3537 39.8027 41.3543C39.4006 41.3534 39.0023 41.4319 38.6305 41.5853C38.2588 41.7387 37.9211 41.964 37.6367 42.2483C37.3523 42.5326 37.1268 42.8703 36.9732 43.242C36.8197 43.6136 36.741 44.0119 36.7418 44.4141V59.2383C32.5953 60.1978 28.2918 60.2624 24.1184 59.4276C19.945 58.5928 15.9975 56.8779 12.5391 54.3973V24.7711C12.5385 22.934 12.8381 21.1092 13.4262 19.3688C13.5824 18.9062 13.7578 18.452 13.9523 18.0059C14.0695 17.7293 14.1996 17.4562 14.3332 17.1855C15.2859 15.2854 16.5575 13.5628 18.0926 12.0926C18.9287 11.2883 19.8324 10.5575 20.7938 9.9082C21.3359 9.54023 21.8988 9.19648 22.4824 8.87695C24.3621 7.85297 26.3816 7.10955 28.4766 6.67031C29.7466 6.40193 31.0372 6.24237 32.3344 6.19336C32.6344 6.18164 32.9355 6.17578 33.2379 6.17578H33.5227C33.6762 6.17578 33.8297 6.17578 33.982 6.18633L34.2609 6.19688C34.4145 6.20391 34.568 6.21211 34.7203 6.22148L34.9652 6.23789L35.2078 6.25781H35.2652C37.7895 6.47357 40.2587 7.11712 42.5672 8.16094C43.7256 8.68442 44.834 9.31199 45.8789 10.0359C46.2187 10.2703 46.5504 10.5148 46.8738 10.7695C47.5034 11.265 48.1026 11.798 48.668 12.3656C49.28 12.9786 49.8493 13.6329 50.3719 14.3238C50.5414 14.5473 50.7051 14.7746 50.8629 15.0059C51.159 15.4363 51.4359 15.8781 51.6937 16.3313C51.9086 16.7086 52.1086 17.0934 52.2937 17.4855C52.7412 18.4272 53.1013 19.4078 53.3695 20.4152C53.5639 21.1441 53.7091 21.8853 53.8043 22.6336C53.838 22.8907 53.8186 23.1519 53.7471 23.4011C53.6757 23.6504 53.5537 23.8823 53.3889 24.0824C53.224 24.2825 53.0198 24.4466 52.7889 24.5645C52.5579 24.6823 52.3053 24.7515 52.0465 24.7676Z" fill="#E88032"/>
<path d="M35.2734 6.26367C34.0881 6.36681 32.9126 6.56272 31.7578 6.84961C31.1133 7.01055 30.4816 7.19805 29.8629 7.41211C27.7557 8.13712 25.7756 9.18903 23.9953 10.5293C23.3524 11.0126 22.7395 11.5346 22.1602 12.0926C22.1004 12.1512 22.043 12.2098 21.9809 12.2684C21.8098 12.4371 21.6422 12.6082 21.4781 12.784C21.2586 13.0184 21.0453 13.257 20.8383 13.5C19.8979 14.6039 19.0918 15.8155 18.4371 17.1094C18.2879 17.4031 18.148 17.702 18.0176 18.0059C17.823 18.4527 17.6477 18.907 17.4914 19.3688C16.9039 21.1093 16.6043 22.9341 16.6043 24.7711V56.85C15.1865 56.1413 13.8271 55.3211 12.5391 54.3973V24.7711C12.5385 22.934 12.8381 21.1092 13.4262 19.3688C13.5824 18.9062 13.7578 18.452 13.9523 18.0059C14.0695 17.7293 14.1996 17.4562 14.3332 17.1855C15.2859 15.2854 16.5575 13.5628 18.0926 12.0926C18.9287 11.2883 19.8324 10.5575 20.7938 9.9082C21.3359 9.54023 21.8988 9.19648 22.4824 8.87695C24.3621 7.85297 26.3816 7.10955 28.4766 6.67031C29.7466 6.40193 31.0372 6.24237 32.3344 6.19336C32.6344 6.18164 32.9355 6.17578 33.2379 6.17578H33.5227C33.6762 6.17578 33.8297 6.17578 33.982 6.18633L34.2609 6.19688C34.4145 6.19688 34.568 6.21094 34.7203 6.22148L34.9652 6.23789L35.2078 6.25781L35.2734 6.26367Z" fill="#D1702F"/>
<path d="M51.9292 24.7711H40.4988C40.0459 24.7699 39.5967 24.8517 39.1734 25.0125C34.0582 15.0188 20.9835 12.5309 18.0925 12.0949C21.8718 8.45273 27.2601 6.17578 33.2402 6.17578C43.8726 6.17578 52.6335 13.3758 53.8066 22.6453C53.8398 22.9115 53.8161 23.1816 53.7369 23.4379C53.6578 23.6942 53.525 23.9307 53.3475 24.1317C53.1699 24.3327 52.9516 24.4937 52.7071 24.604C52.4626 24.7142 52.1975 24.7712 51.9292 24.7711Z" fill="#EA8D4E"/>
<path d="M22.6289 9.09375C22.6289 9.09375 17.6531 1.28906 9.75348 2.62031C9.54734 2.65515 9.35247 2.73864 9.18505 2.86386C9.01763 2.98908 8.88248 3.15241 8.79082 3.34032C8.69916 3.52822 8.65363 3.73527 8.65801 3.9443C8.66238 4.15332 8.71654 4.35828 8.81598 4.54219L8.84059 4.59023C8.97254 4.8578 9.04728 5.14993 9.06003 5.44798C9.07279 5.74604 9.02328 6.04349 8.91467 6.32134C8.80607 6.5992 8.64074 6.85138 8.42924 7.06178C8.21774 7.27218 7.96471 7.4362 7.6863 7.54336C6.01286 8.19492 3.26012 10.0359 2.46559 15.1723C2.43214 15.4005 2.44583 15.6331 2.50582 15.8558C2.5658 16.0785 2.6708 16.2866 2.81433 16.4671C2.95786 16.6477 3.13689 16.7969 3.34034 16.9055C3.54379 17.0142 3.76736 17.08 3.99723 17.0988C4.59372 17.1562 5.2113 17.4023 5.60973 18.0609C5.85734 18.4633 6.20452 18.7951 6.61773 19.0242C7.03095 19.2533 7.49626 19.3719 7.96872 19.3687H20.5265L22.6289 9.09375Z" fill="#AA60FA"/>
<path d="M21.4044 10.7262C21.4044 10.7262 17.8782 5.19375 12.2825 6.13945C12.1375 6.16568 12.0006 6.22573 11.8831 6.31475C11.7657 6.40376 11.6708 6.51922 11.6063 6.65176C11.5418 6.7843 11.5095 6.93019 11.5119 7.07757C11.5144 7.22495 11.5515 7.36968 11.6204 7.5L11.638 7.53399C11.7311 7.72381 11.7838 7.93094 11.7925 8.14221C11.8013 8.35348 11.7659 8.56426 11.6888 8.76113C11.6116 8.958 11.4943 9.13665 11.3443 9.28572C11.1944 9.43478 11.015 9.55099 10.8177 9.62695C9.63407 10.0898 7.68407 11.3941 7.12157 15.0328C7.09761 15.1942 7.10702 15.3588 7.14921 15.5164C7.1914 15.6741 7.26548 15.8213 7.36686 15.9492C7.46824 16.077 7.59477 16.1827 7.73862 16.2597C7.88248 16.3367 8.0406 16.3834 8.20321 16.3969C8.43484 16.4094 8.65995 16.4781 8.85919 16.5969C9.05842 16.7157 9.22581 16.8811 9.34696 17.0789C9.52208 17.3637 9.76762 17.5986 10.0599 17.761C10.3522 17.9234 10.6814 18.0077 11.0157 18.0059H19.9126L21.4044 10.7262Z" fill="#9054DD"/>
<path d="M33.2401 56.2746C34.3649 56.2746 35.2768 55.3627 35.2768 54.2379C35.2768 53.113 34.3649 52.2012 33.2401 52.2012C32.1152 52.2012 31.2034 53.113 31.2034 54.2379C31.2034 55.3627 32.1152 56.2746 33.2401 56.2746Z" fill="#EA8D4E"/>
<path d="M33.2402 51.4383C34.0369 51.4383 34.6828 50.7924 34.6828 49.9957C34.6828 49.199 34.0369 48.5531 33.2402 48.5531C32.4435 48.5531 31.7976 49.199 31.7976 49.9957C31.7976 50.7924 32.4435 51.4383 33.2402 51.4383Z" fill="#EA8D4E"/>
<path d="M24.3832 26.0625C29.9764 26.0625 34.5105 21.5283 34.5105 15.9352C34.5105 10.342 29.9764 5.80781 24.3832 5.80781C18.79 5.80781 14.2559 10.342 14.2559 15.9352C14.2559 21.5283 18.79 26.0625 24.3832 26.0625Z" fill="white"/>
<path d="M24.3831 22.4719C27.6838 22.4719 30.3596 19.7961 30.3596 16.4953C30.3596 13.1945 27.6838 10.5188 24.3831 10.5188C21.0823 10.5188 18.4065 13.1945 18.4065 16.4953C18.4065 19.7961 21.0823 22.4719 24.3831 22.4719Z" fill="#3586CB"/>
<path d="M24.3281 20.973C26.8011 20.973 28.8058 18.9683 28.8058 16.4953C28.8058 14.0223 26.8011 12.0176 24.3281 12.0176C21.8551 12.0176 19.8503 14.0223 19.8503 16.4953C19.8503 18.9683 21.8551 20.973 24.3281 20.973Z" fill="#27273D"/>
<path d="M26.994 14.8113C27.7655 14.8113 28.3909 14.1859 28.3909 13.4145C28.3909 12.643 27.7655 12.0176 26.994 12.0176C26.2226 12.0176 25.5972 12.643 25.5972 13.4145C25.5972 14.1859 26.2226 14.8113 26.994 14.8113Z" fill="white"/>
<path d="M24.328 18.1805C25.2587 18.1805 26.0131 17.426 26.0131 16.4953C26.0131 15.5646 25.2587 14.8102 24.328 14.8102C23.3973 14.8102 22.6428 15.5646 22.6428 16.4953C22.6428 17.426 23.3973 18.1805 24.328 18.1805Z" fill="white"/>
<path d="M40.9008 14.0555C41.6431 14.0555 42.2449 13.2637 42.2449 12.2871C42.2449 11.3105 41.6431 10.5188 40.9008 10.5188C40.1584 10.5188 39.5566 11.3105 39.5566 12.2871C39.5566 13.2637 40.1584 14.0555 40.9008 14.0555Z" fill="#FAB3A7"/>
<path d="M47.2645 20.0621C47.8801 19.6473 47.9368 18.6544 47.3911 17.8445C46.8454 17.0345 45.904 16.7142 45.2883 17.1289C44.6727 17.5437 44.616 18.5366 45.1617 19.3465C45.7074 20.1565 46.6488 20.4768 47.2645 20.0621Z" fill="#FAB3A7"/>
<path d="M46.6992 15.1113C47.1426 15.1113 47.502 14.6386 47.502 14.0555C47.502 13.4723 47.1426 12.9996 46.6992 12.9996C46.2559 12.9996 45.8965 13.4723 45.8965 14.0555C45.8965 14.6386 46.2559 15.1113 46.6992 15.1113Z" fill="#FAB3A7"/>
<path d="M39.1311 18.0469C39.5744 18.0469 39.9338 17.5742 39.9338 16.991C39.9338 16.4079 39.5744 15.9352 39.1311 15.9352C38.6878 15.9352 38.3284 16.4079 38.3284 16.991C38.3284 17.5742 38.6878 18.0469 39.1311 18.0469Z" fill="#FAB3A7"/>
<path d="M37.6085 10.3616C37.7633 9.94614 37.4458 9.44428 36.8994 9.24063C36.353 9.03699 35.7845 9.20867 35.6297 9.62409C35.4749 10.0395 35.7923 10.5414 36.3387 10.745C36.8852 10.9487 37.4536 10.777 37.6085 10.3616Z" fill="#FAB3A7"/>
<path d="M41.9533 21.976C42.4837 21.7336 42.7643 21.2102 42.58 20.807C42.3957 20.4038 41.8164 20.2734 41.286 20.5158C40.7556 20.7581 40.4751 21.2815 40.6593 21.6847C40.8436 22.088 41.4229 22.2184 41.9533 21.976Z" fill="#FAB3A7"/>
<path d="M50.9553 22.2996C51.3987 22.2996 51.7581 21.8269 51.7581 21.2437C51.7581 20.6606 51.3987 20.1879 50.9553 20.1879C50.512 20.1879 50.1526 20.6606 50.1526 21.2437C50.1526 21.8269 50.512 22.2996 50.9553 22.2996Z" fill="#FAB3A7"/>
</g>
<defs>
<clipPath id="clip0_809_1839">
<rect width="60" height="60" fill="white"/>
</clipPath>
</defs>
</svg>
