<svg width="68" height="68" viewBox="0 0 68 68" fill="none" xmlns="http://www.w3.org/2000/svg">
<g clip-path="url(#clip0_809_2237)" filter="url(#filter0_d_809_2237)">
<path d="M34 60C50.5685 60 64 46.5685 64 30C64 13.4315 50.5685 0 34 0C17.4315 0 4 13.4315 4 30C4 46.5685 17.4315 60 34 60Z" fill="#FCC8BC"/>
<path d="M61.7875 35.7328L55.3422 31.3418L61.9317 23.0039C62.1033 22.7868 62.2163 22.5293 62.26 22.256C62.3036 21.9827 62.2764 21.7028 62.1809 21.4431C62.0854 21.1833 61.9249 20.9524 61.7146 20.7725C61.5044 20.5925 61.2515 20.4695 60.9801 20.4152L51.3977 18.4969L51.4809 8.36954C51.4839 8.09214 51.4154 7.81865 51.282 7.57539C51.1487 7.33213 50.9549 7.1273 50.7195 6.98061C50.484 6.83392 50.2148 6.75031 49.9376 6.73784C49.6605 6.72536 49.3848 6.78444 49.1371 6.90938L40.8918 11.025L35.7719 2.67071C35.6275 2.43459 35.4249 2.2395 35.1835 2.10414C34.9421 1.96879 34.67 1.89771 34.3932 1.89771C34.1164 1.89771 33.8443 1.96879 33.6029 2.10414C33.3615 2.2395 33.1589 2.43459 33.0145 2.67071L27.9332 10.9617L19.8133 6.91407C19.5656 6.78913 19.2899 6.73005 19.0128 6.74253C18.7357 6.755 18.4664 6.83861 18.231 6.9853C17.9955 7.13199 17.8018 7.33682 17.6684 7.58008C17.5351 7.82334 17.4666 8.09683 17.4696 8.37423L17.5504 18.3L6.96487 20.4152C6.6935 20.4695 6.4406 20.5925 6.23036 20.7725C6.02012 20.9524 5.85958 21.1833 5.7641 21.4431C5.66861 21.7028 5.64139 21.9827 5.68502 22.256C5.72866 22.5293 5.84169 22.7868 6.01331 23.0039L13.5133 31.8527L7.18519 35.0402C7.01724 35.1325 6.87576 35.2663 6.77427 35.4288C6.67278 35.5913 6.61468 35.7772 6.60551 35.9686C6.59634 36.16 6.63641 36.3505 6.7219 36.522C6.80738 36.6935 6.93542 36.8402 7.09378 36.9481L14.6325 42.0809L15.0192 30.9293L18.55 20.9109L29.7239 13.7285L39.4082 13.8574L49.075 20.0684L53.7508 33.334L54.1621 32.8137L53.8457 41.9391L61.6867 37.6371C61.8545 37.5455 61.996 37.4125 62.0978 37.2508C62.1997 37.089 62.2584 36.9039 62.2685 36.7131C62.2786 36.5222 62.2397 36.332 62.1555 36.1604C62.0713 35.9888 61.9447 35.8416 61.7875 35.7328Z" fill="#F7BB38"/>
<path d="M54.8043 31.0325V51.6141C49.7637 56.4666 43.1856 59.4046 36.2078 59.9199C29.2301 60.4352 22.2917 58.4953 16.593 54.436C15.3725 53.5651 14.2186 52.6047 13.1406 51.5626V31.0325C13.1366 28.485 13.6298 25.9613 14.5926 23.6028C14.684 23.3813 14.7778 23.161 14.8762 22.9442C14.909 22.8715 14.9418 22.7989 14.9758 22.7262C15.1106 22.4379 15.2524 22.1544 15.4 21.8731C15.7307 21.2425 16.0953 20.6303 16.4922 20.0391C16.5801 19.909 16.6703 19.779 16.7617 19.6512C16.8985 19.4583 17.0387 19.268 17.1824 19.0805C17.2785 18.9551 17.3758 18.8321 17.4742 18.709C17.6719 18.4645 17.875 18.2243 18.0836 17.9883C19.6563 16.2153 21.5355 14.7402 23.6313 13.6336C23.7719 13.5598 23.9125 13.4883 24.0543 13.4169C24.1957 13.3465 24.3387 13.2774 24.4832 13.2094C24.5559 13.1754 24.6285 13.1415 24.7012 13.1098C24.918 13.0114 25.1383 12.9176 25.3598 12.8262C25.5074 12.7653 25.6563 12.7067 25.8063 12.6504C25.9563 12.5942 26.1063 12.5333 26.2574 12.4852C26.4086 12.4372 26.561 12.3809 26.7145 12.3305C27.1739 12.1813 27.6403 12.0489 28.1137 11.9333C28.1922 11.9133 28.2707 11.8946 28.3481 11.877C29.8039 11.5418 31.2932 11.3731 32.7871 11.3743H35.4063C35.5 11.3743 35.5926 11.3743 35.684 11.3801H35.7016C36.9961 11.4153 38.284 11.5782 39.5465 11.8665C39.6403 11.8864 39.734 11.9086 39.8278 11.9321C40.3012 12.0477 40.7676 12.1801 41.227 12.3294C41.3594 12.3727 41.4918 12.4172 41.6242 12.4641C42.0235 12.6024 42.4164 12.7536 42.8032 12.9176C42.9496 12.9797 43.0961 13.043 43.2403 13.1086C45.403 14.088 47.371 15.4501 49.0492 17.1294C49.3836 17.4622 49.7051 17.8075 50.0137 18.1653C50.1168 18.2825 50.2176 18.3997 50.3184 18.5251C50.5184 18.7672 50.7137 19.0149 50.9043 19.268C50.9512 19.3301 50.9981 19.3946 51.0449 19.4579C51.2309 19.7118 51.4106 19.9708 51.584 20.2348C51.8879 20.6965 52.1723 21.1712 52.4371 21.6587C52.5121 21.7981 52.5871 21.9387 52.6586 22.0794C52.7301 22.22 52.8016 22.3629 52.8707 22.5059C52.9746 22.7215 53.0742 22.9387 53.1696 23.1575C53.2024 23.2301 53.2328 23.304 53.2645 23.3766C53.3266 23.5243 53.3817 23.6719 53.4461 23.8208C53.7411 24.5696 53.9897 25.3359 54.1903 26.1153C54.2313 26.2723 54.2688 26.4305 54.3074 26.584C54.6413 28.0432 54.808 29.5356 54.8043 31.0325Z" fill="#FC4581"/>
<path d="M35.6817 11.3848C30.5685 11.5309 25.7138 13.6652 22.1493 17.334C18.5848 21.0029 16.5915 25.9171 16.593 31.0324V54.4359C15.3725 53.5651 14.2185 52.6046 13.1406 51.5625V31.0324C13.1392 29.457 13.3273 27.8871 13.7008 26.3566C13.9293 25.4177 14.2278 24.4972 14.5938 23.6027C14.684 23.3813 14.7789 23.1609 14.8774 22.9441C14.9102 22.8715 14.943 22.7988 14.977 22.7262C15.1117 22.4379 15.2524 22.1543 15.4012 21.873C15.7311 21.2422 16.0953 20.63 16.4922 20.0391C16.5801 19.909 16.6703 19.7789 16.7617 19.6512C16.8977 19.4582 17.0379 19.268 17.1824 19.0805C17.2785 18.9551 17.3758 18.832 17.4742 18.709C17.6711 18.4641 17.875 18.2238 18.0836 17.9883C19.6562 16.2153 21.5355 14.7402 23.6313 13.6336C23.7719 13.5598 23.9125 13.4871 24.0543 13.4168C24.1957 13.3465 24.3387 13.2773 24.4832 13.2094C24.5559 13.1754 24.6285 13.1414 24.7012 13.1098C24.9191 13.0113 25.1387 12.9168 25.3598 12.8262C25.5074 12.7652 25.6563 12.7066 25.8063 12.6504C25.9551 12.593 26.1063 12.5332 26.2574 12.4852C26.4086 12.4371 26.5609 12.3809 26.7145 12.3305C27.1738 12.1805 27.6402 12.048 28.1137 11.9332C28.1922 11.9133 28.2707 11.8945 28.3481 11.877C29.8039 11.5413 31.2931 11.3723 32.7871 11.373H35.1461C35.2305 11.373 35.316 11.373 35.4004 11.373C35.4848 11.373 35.5902 11.3813 35.6817 11.3848Z" fill="#DD3C76"/>
<path d="M13.1347 32.0449V41.0543L10.6492 39.3621V33.2988L13.1347 32.0449Z" fill="#D89E2B"/>
<path d="M57.2912 32.6731V40.0559L54.8044 41.42V31.0325C54.8044 25.8196 52.7337 20.8203 49.0478 17.1341C45.3619 13.4479 40.3626 11.3769 35.1498 11.3766H32.7908C27.5787 11.3782 22.5807 13.4497 18.8958 17.1358C15.2108 20.8218 13.1408 25.8204 13.1408 31.0325V31.4063L10.7361 28.5727C11.0343 25.1876 12.1177 21.9187 13.9001 19.0255L17.5529 18.2942L17.5224 14.5688C19.7994 12.4089 22.5126 10.7618 25.4794 9.73834L27.931 10.9618L29.2517 8.80553C30.376 8.63042 31.5123 8.54305 32.6501 8.5442H35.2892C36.7479 8.54283 38.2031 8.6865 39.6334 8.97311L40.8919 11.0251L43.0458 9.95045C46.233 11.1538 49.0982 13.0792 51.4165 15.5755L51.3919 18.4946L54.0392 19.0266C55.8886 22.0268 56.9846 25.4298 57.2337 28.9454L55.3365 31.3465L57.2912 32.6731Z" fill="#D89E2B"/>
<path d="M51.0672 32.4645C52.2186 32.4645 53.152 31.5311 53.152 30.3797C53.152 29.2283 52.2186 28.2949 51.0672 28.2949C49.9158 28.2949 48.9824 29.2283 48.9824 30.3797C48.9824 31.5311 49.9158 32.4645 51.0672 32.4645Z" fill="#F96499"/>
<path d="M51.0671 27.5121C51.8826 27.5121 52.5437 26.851 52.5437 26.0355C52.5437 25.22 51.8826 24.559 51.0671 24.559C50.2517 24.559 49.5906 25.22 49.5906 26.0355C49.5906 26.851 50.2517 27.5121 51.0671 27.5121Z" fill="#F96499"/>
<path d="M34.0142 42.1488C41.4279 42.1488 47.438 36.1388 47.438 28.725C47.438 21.3112 41.4279 15.3011 34.0142 15.3011C26.6004 15.3011 20.5903 21.3112 20.5903 28.725C20.5903 36.1388 26.6004 42.1488 34.0142 42.1488Z" fill="white"/>
<path d="M34.0141 37.391C38.3899 37.391 41.9372 33.8437 41.9372 29.468C41.9372 25.0922 38.3899 21.5449 34.0141 21.5449C29.6383 21.5449 26.0911 25.0922 26.0911 29.468C26.0911 33.8437 29.6383 37.391 34.0141 37.391Z" fill="#3586CB"/>
<path d="M33.9414 35.4036C37.2195 35.4036 39.877 32.7461 39.877 29.468C39.877 26.1899 37.2195 23.5325 33.9414 23.5325C30.6633 23.5325 28.0059 26.1899 28.0059 29.468C28.0059 32.7461 30.6633 35.4036 33.9414 35.4036Z" fill="#27273D"/>
<path d="M37.4747 27.2343C38.4966 27.2343 39.3251 26.4059 39.3251 25.384C39.3251 24.362 38.4966 23.5336 37.4747 23.5336C36.4527 23.5336 35.6243 24.362 35.6243 25.384C35.6243 26.4059 36.4527 27.2343 37.4747 27.2343Z" fill="white"/>
<path d="M33.9414 31.7016C35.1749 31.7016 36.175 30.7016 36.175 29.468C36.175 28.2344 35.1749 27.2344 33.9414 27.2344C32.7078 27.2344 31.7078 28.2344 31.7078 29.468C31.7078 30.7016 32.7078 31.7016 33.9414 31.7016Z" fill="white"/>
<path d="M38.8492 48.832C38.8498 49.9197 38.4869 50.9764 37.8183 51.8343C37.1496 52.6922 36.2135 53.3021 35.1586 53.5671C34.1036 53.8322 32.9904 53.7372 31.9957 53.2972C31.0009 52.8572 30.1817 52.0975 29.6681 51.1386C29.1545 50.1798 28.976 49.0769 29.1609 48.005C29.3458 46.9332 29.8835 45.9538 30.6886 45.2225C31.4938 44.4911 32.5202 44.0498 33.6048 43.9685C34.6895 43.8872 35.7702 44.1706 36.6754 44.7738C37.345 45.2177 37.8941 45.8208 38.2735 46.5291C38.6529 47.2373 38.8507 48.0285 38.8492 48.832Z" fill="#27273D"/>
<path d="M37.8906 51.7371C37.437 52.35 36.8461 52.848 36.1652 53.1911C35.4844 53.5343 34.7325 53.713 33.9701 53.713C33.2076 53.713 32.4558 53.5343 31.7749 53.1911C31.0941 52.848 30.5031 52.35 30.0496 51.7371C30.385 51.2851 30.7957 50.8943 31.2636 50.5816C32.3053 49.8862 33.5747 49.6184 34.8086 49.8337C36.0424 50.0491 37.146 50.7311 37.8906 51.7382V51.7371Z" fill="#DB1B1B"/>
<path d="M36.6754 44.7738L34.586 47.9015C34.5179 48.0035 34.4257 48.0872 34.3176 48.145C34.2094 48.2028 34.0887 48.2331 33.9661 48.2331C33.8434 48.2331 33.7227 48.2028 33.6146 48.145C33.5064 48.0872 33.4142 48.0035 33.3461 47.9015C32.7965 47.0754 31.9715 45.839 31.259 44.775C32.0602 44.2405 33.0018 43.9553 33.9649 43.9553C34.928 43.9553 35.8695 44.2405 36.6708 44.775L36.6754 44.7738Z" fill="white"/>
<path d="M35.6056 53.4293C34.5468 53.8043 33.3913 53.8043 32.3325 53.4293L33.3497 51.9059C33.4178 51.8039 33.51 51.7203 33.6181 51.6624C33.7263 51.6046 33.847 51.5743 33.9696 51.5743C34.0923 51.5743 34.213 51.6046 34.3211 51.6624C34.4293 51.7203 34.5215 51.8039 34.5896 51.9059C34.872 52.3301 35.2282 52.8645 35.6056 53.4293Z" fill="white"/>
<path d="M23.8165 46.5598C25.5983 46.5598 27.0427 45.3295 27.0427 43.8118C27.0427 42.2941 25.5983 41.0637 23.8165 41.0637C22.0347 41.0637 20.5903 42.2941 20.5903 43.8118C20.5903 45.3295 22.0347 46.5598 23.8165 46.5598Z" fill="#FCC8BC"/>
<path d="M44.5646 46.5598C46.3463 46.5598 47.7907 45.3295 47.7907 43.8118C47.7907 42.2941 46.3463 41.0637 44.5646 41.0637C42.7828 41.0637 41.3384 42.2941 41.3384 43.8118C41.3384 45.3295 42.7828 46.5598 44.5646 46.5598Z" fill="#FCC8BC"/>
</g>
<defs>
<filter id="filter0_d_809_2237" x="0" y="0" width="68" height="68" filterUnits="userSpaceOnUse" color-interpolation-filters="sRGB">
<feFlood flood-opacity="0" result="BackgroundImageFix"/>
<feColorMatrix in="SourceAlpha" type="matrix" values="0 0 0 0 0 0 0 0 0 0 0 0 0 0 0 0 0 0 127 0" result="hardAlpha"/>
<feOffset dy="4"/>
<feGaussianBlur stdDeviation="2"/>
<feComposite in2="hardAlpha" operator="out"/>
<feColorMatrix type="matrix" values="0 0 0 0 0 0 0 0 0 0 0 0 0 0 0 0 0 0 0.25 0"/>
<feBlend mode="normal" in2="BackgroundImageFix" result="effect1_dropShadow_809_2237"/>
<feBlend mode="normal" in="SourceGraphic" in2="effect1_dropShadow_809_2237" result="shape"/>
</filter>
<clipPath id="clip0_809_2237">
<rect width="60" height="60" fill="white" transform="translate(4)"/>
</clipPath>
</defs>
</svg>
