<svg width="60" height="60" viewBox="0 0 60 60" fill="none" xmlns="http://www.w3.org/2000/svg">
<g clip-path="url(#clip0_809_1816)">
<path d="M30 60C46.5685 60 60 46.5685 60 30C60 13.4315 46.5685 0 30 0C13.4315 0 0 13.4315 0 30C0 46.5685 13.4315 60 30 60Z" fill="#934CF5"/>
<path d="M23.823 12.2039C23.823 12.2039 23.7351 8.97655 19.4449 7.89022C19.3066 7.85541 19.182 7.77987 19.0872 7.67339C18.9925 7.56692 18.9319 7.43441 18.9133 7.29307C18.8947 7.15173 18.919 7.00808 18.9831 6.88073C19.0472 6.75338 19.148 6.64822 19.2726 6.57889C20.3413 5.98241 21.9187 5.47147 23.6601 6.13592C24.1273 6.31822 24.6401 6.3491 25.1258 6.22419C25.6116 6.09928 26.0458 5.82491 26.3671 5.43983C27.5941 3.95975 29.8898 2.13163 33.4312 2.87577C33.5478 2.89844 33.6569 2.94995 33.7485 3.0256C33.8401 3.10126 33.9112 3.19865 33.9555 3.30888C33.9998 3.41912 34.0158 3.53869 34.002 3.65668C33.9882 3.77467 33.945 3.88732 33.8765 3.98436C33.7127 4.21221 33.5688 4.45373 33.4464 4.70624C32.5886 6.50038 34.2667 8.44921 36.198 7.95233C37.2199 7.68983 38.4796 7.60077 39.6468 8.15624C39.7803 8.22355 39.8893 8.33124 39.9581 8.46399C40.0269 8.59674 40.0522 8.74781 40.0302 8.89573C40.0083 9.04365 39.9403 9.18089 39.8359 9.28797C39.7316 9.39504 39.5961 9.46649 39.4488 9.49217C38.0367 9.72655 36.2038 10.4144 35.7691 12.4418L23.823 12.2039Z" fill="#FC4581"/>
<path d="M26.1963 12.2543C26.1963 12.2543 26.1424 10.2809 23.5197 9.6164C23.4352 9.59516 23.359 9.54901 23.3011 9.48394C23.2431 9.41886 23.206 9.33786 23.1946 9.25146C23.1833 9.16505 23.1981 9.07722 23.2373 8.99936C23.2765 8.9215 23.3381 8.85722 23.4143 8.81484C24.0682 8.45038 25.0315 8.13749 26.0967 8.54413C26.3827 8.65642 26.6969 8.67576 26.9945 8.5994C27.2922 8.52304 27.5582 8.35487 27.7549 8.11874C28.5037 7.21405 29.9076 6.09609 32.0733 6.55077C32.1439 6.56536 32.2098 6.59725 32.2651 6.64359C32.3204 6.68993 32.3634 6.74927 32.3901 6.81629C32.4168 6.88331 32.4265 6.95591 32.4182 7.02758C32.4099 7.09925 32.384 7.16775 32.3428 7.22695C32.242 7.36568 32.1537 7.51314 32.0791 7.66757C31.5553 8.76445 32.5842 9.95624 33.7619 9.65273C34.3865 9.49218 35.1565 9.43593 35.8713 9.77695C35.9544 9.81707 36.0226 9.88259 36.066 9.96403C36.1094 10.0455 36.1257 10.1386 36.1127 10.23C36.0996 10.3213 36.0578 10.4061 35.9934 10.4722C35.9289 10.5382 35.8451 10.582 35.7541 10.5973C34.8904 10.7367 33.7701 11.1609 33.5041 12.3996L26.1963 12.2543Z" fill="#FC689D"/>
<path d="M15.1791 13.8738C14.3351 13.8723 13.504 14.0818 12.7615 14.4832C12.7105 13.9336 12.5455 13.4006 12.2769 12.9184C12.0083 12.4361 11.6422 12.0152 11.2018 11.6824C11.673 11.1827 11.9762 10.5481 12.0689 9.86744C12.1616 9.18682 12.0391 8.49426 11.7186 7.88671C12.2121 7.75509 12.6483 7.46424 12.9596 7.0593C13.2709 6.65437 13.4397 6.15801 13.44 5.64726C13.4395 5.55559 13.4336 5.46403 13.4225 5.37304H13.44C13.8181 5.37409 14.1881 5.26395 14.5041 5.05633C14.82 4.84871 15.0679 4.55278 15.217 4.20535C15.366 3.85792 15.4096 3.47433 15.3424 3.10231C15.2751 2.73029 15.0999 2.38626 14.8386 2.11302C14.5774 1.83979 14.2415 1.64941 13.8729 1.56557C13.5042 1.48174 13.1191 1.50815 12.7653 1.64152C12.4116 1.77488 12.1049 2.00932 11.8833 2.31567C11.6618 2.62201 11.5352 2.98673 11.5193 3.36445C11.1462 3.29949 10.7628 3.32702 10.4027 3.44462C10.0426 3.56223 9.7169 3.76633 9.45402 4.03904C9.19114 4.31175 8.99913 4.64475 8.89482 5.00889C8.7905 5.37303 8.77706 5.75719 8.85567 6.12773H8.80528C8.16189 6.12765 7.53256 6.31599 6.99499 6.66949C6.45741 7.02299 6.03512 7.52618 5.78025 8.11693C5.52538 8.70768 5.44908 9.36014 5.56078 9.99376C5.67248 10.6274 5.96728 11.2144 6.4088 11.6824C5.65325 12.252 5.12582 13.0726 4.92143 13.9965C4.71704 14.9203 4.84912 15.8868 5.2939 16.722C5.73867 17.5571 6.46694 18.2061 7.34761 18.5521C8.22829 18.8981 9.20355 18.9184 10.0979 18.6094C10.0897 18.7266 10.0838 18.8437 10.0838 18.9691C10.0836 19.9772 10.3823 20.9627 10.9422 21.801C11.5021 22.6393 12.2981 23.2927 13.2294 23.6786C14.1607 24.0645 15.1855 24.1655 16.1743 23.9689C17.163 23.7723 18.0712 23.2869 18.784 22.5741C19.4969 21.8612 19.9823 20.953 20.1789 19.9643C20.3755 18.9756 20.2745 17.9507 19.8886 17.0194C19.5027 16.0881 18.8493 15.2922 18.011 14.7322C17.1727 14.1723 16.1872 13.8736 15.1791 13.8738Z" fill="#F7BB38"/>
<path d="M18.348 22.9594C17.5981 23.5555 16.6954 23.928 15.7434 24.0343C14.7913 24.1406 13.8286 23.9763 12.9658 23.5603C12.1029 23.1443 11.3748 22.4934 10.865 21.6823C10.3553 20.8713 10.0846 19.9329 10.084 18.975C10.084 18.8578 10.084 18.7348 10.098 18.6152C9.20256 18.9267 8.22526 18.9077 7.34256 18.5617C6.45987 18.2157 5.72995 17.5656 5.28459 16.7286C4.83923 15.8917 4.70778 14.9231 4.91397 13.9977C5.12016 13.0723 5.6504 12.2511 6.40896 11.6824C6.01804 11.2682 5.74119 10.7597 5.60545 10.2065C5.46972 9.65336 5.47972 9.07446 5.63449 8.52632C5.78926 7.97819 6.08351 7.47955 6.48852 7.07907C6.89353 6.6786 7.39545 6.38999 7.94529 6.24139C7.31172 6.84095 6.94213 7.66753 6.91774 8.53947C6.89335 9.41141 7.21616 10.2574 7.81521 10.8914C7.06151 11.4618 6.53581 12.2822 6.3325 13.2053C6.12918 14.1284 6.26156 15.0937 6.70587 15.928C7.15018 16.7623 7.87732 17.4109 8.75676 17.7573C9.63619 18.1038 10.6103 18.1254 11.5043 17.8183C11.4961 17.9355 11.4902 18.0527 11.4902 18.1781C11.4904 18.999 11.6889 19.8076 12.0687 20.5353C12.4486 21.263 12.9986 21.8881 13.6719 22.3576C14.3453 22.8271 15.1221 23.1269 15.9362 23.2317C16.7503 23.3365 17.5778 23.243 18.348 22.9594Z" fill="#E0A52F"/>
<path d="M44.7842 13.8738C45.6286 13.8723 46.46 14.0818 47.2029 14.4832C47.2539 13.9336 47.419 13.4006 47.6876 12.9184C47.9561 12.4361 48.3223 12.0152 48.7627 11.6824C48.2911 11.1829 47.9874 10.5485 47.8943 9.86783C47.8013 9.1872 47.9234 8.49449 48.2436 7.88671C47.7502 7.75505 47.3141 7.46415 47.003 7.0592C46.6919 6.65425 46.5233 6.15791 46.5232 5.64726C46.5238 5.55559 46.5296 5.46403 46.5408 5.37304H46.5232C46.1452 5.37386 45.7753 5.26353 45.4596 5.05577C45.1438 4.84801 44.896 4.55199 44.7472 4.20454C44.5983 3.85709 44.5548 3.47353 44.6222 3.10159C44.6896 2.72964 44.8649 2.38572 45.1262 2.1126C45.3876 1.83948 45.7234 1.64922 46.092 1.56548C46.4606 1.48174 46.8457 1.50822 47.1994 1.64162C47.5531 1.77503 47.8598 2.00947 48.0812 2.31579C48.3027 2.6221 48.4293 2.98678 48.4451 3.36445C48.8183 3.29949 49.2017 3.32702 49.5618 3.44463C49.9218 3.56223 50.2476 3.76633 50.5104 4.03904C50.7733 4.31175 50.9653 4.64476 51.0696 5.0089C51.174 5.37303 51.1874 5.75719 51.1088 6.12773H51.1592C51.8025 6.12788 52.4316 6.31639 52.969 6.66998C53.5064 7.02356 53.9285 7.52676 54.1833 8.11747C54.438 8.70818 54.5142 9.36054 54.4025 9.99406C54.2907 10.6276 53.9959 11.2145 53.5545 11.6824C54.31 12.252 54.8375 13.0726 55.0419 13.9965C55.2462 14.9203 55.1142 15.8868 54.6694 16.722C54.2246 17.5571 53.4964 18.2061 52.6157 18.5521C51.735 18.8981 50.7597 18.9184 49.8654 18.6094C49.8736 18.7266 49.8795 18.8437 49.8795 18.9691C49.8797 19.9772 49.581 20.9626 49.0212 21.8009C48.4613 22.6392 47.6654 23.2926 46.7342 23.6785C45.8029 24.0644 44.7782 24.1655 43.7895 23.969C42.8008 23.7725 41.8925 23.2872 41.1797 22.5745C40.4668 21.8618 39.9813 20.9537 39.7845 19.965C39.5878 18.9764 39.6887 17.9516 40.0744 17.0202C40.4601 16.0889 41.1133 15.2929 41.9514 14.7328C42.7896 14.1728 43.775 13.8738 44.783 13.8738H44.7842Z" fill="#F7BB38"/>
<path d="M41.6169 22.9594C42.3668 23.5555 43.2695 23.928 44.2216 24.0343C45.1736 24.1406 46.1363 23.9763 46.9992 23.5603C47.862 23.1443 48.5901 22.4934 49.0999 21.6823C49.6096 20.8713 49.8803 19.9329 49.881 18.975C49.881 18.8578 49.881 18.7348 49.8669 18.6152C50.7622 18.926 51.7392 18.9066 52.6215 18.5604C53.5038 18.2143 54.2333 17.5641 54.6784 16.7274C55.1235 15.8907 55.2549 14.9224 55.0488 13.9973C54.8428 13.0722 54.3129 12.2512 53.5548 11.6824C53.9457 11.2683 54.2226 10.7598 54.3584 10.2068C54.4942 9.65367 54.4843 9.07482 54.3297 8.5267C54.175 7.97859 53.8809 7.47993 53.476 7.07939C53.0712 6.67886 52.5694 6.39013 52.0196 6.24139C52.653 6.84111 53.0224 7.66777 53.0466 8.53971C53.0708 9.41165 52.7477 10.2575 52.1485 10.8914C52.9022 11.4618 53.4279 12.2822 53.6313 13.2053C53.8346 14.1284 53.7022 15.0937 53.2579 15.928C52.8136 16.7623 52.0864 17.4109 51.207 17.7573C50.3276 18.1038 49.3534 18.1254 48.4595 17.8183C48.4677 17.9355 48.4735 18.0527 48.4735 18.1781C48.4733 18.999 48.2749 19.8076 47.895 20.5353C47.5152 21.263 46.9652 21.8881 46.2918 22.3576C45.6185 22.8271 44.8417 23.1269 44.0275 23.2317C43.2134 23.3365 42.386 23.243 41.6157 22.9594H41.6169Z" fill="#E0A52F"/>
<path d="M46.2949 27.6164V55.1953C41.303 58.4308 35.4608 60.1069 29.5129 60.01C23.5649 59.9132 17.7805 58.0478 12.8965 54.6516L12.7793 54.5695V27.6164C12.7798 26.2916 12.9372 24.9715 13.248 23.6836C13.3582 23.2242 13.4824 22.7731 13.6348 22.3289C14.4333 19.9357 15.7605 17.7531 17.518 15.9431C19.2755 14.1331 21.4181 12.7421 23.7867 11.8734C24.4723 11.622 25.1738 11.4164 25.8867 11.2582C27.0436 11.0013 28.2244 10.8677 29.4094 10.8598H29.5418C30.0738 10.8598 30.5996 10.8844 31.1191 10.9336C32.7478 11.0842 34.3452 11.4752 35.8594 12.0938C37.7957 12.883 39.5672 14.0277 41.0824 15.4688C41.1844 15.566 41.2863 15.6656 41.3859 15.7652C43.343 17.7186 44.7859 20.1262 45.5859 22.7731C45.7031 23.1574 45.8059 23.5481 45.8941 23.9449C46.1619 25.1504 46.2963 26.3816 46.2949 27.6164Z" fill="#F58D89"/>
<path d="M31.1776 10.9266L31.1144 10.9324C29.4202 11.0911 27.7603 11.5085 26.1925 12.1699C26.1327 12.1957 26.0753 12.2203 26.0144 12.2473C23.7054 13.2548 21.6528 14.7688 20.0084 16.6773C18.3641 18.5858 17.1702 20.8397 16.5151 23.2723C16.4565 23.4902 16.4026 23.7098 16.3534 23.9309C16.0825 25.1402 15.9461 26.3759 15.9468 27.6152V56.509C14.8949 55.9504 13.8775 55.3294 12.8999 54.6492V27.6152C12.8991 26.3059 13.0513 25.0009 13.3534 23.7269C13.4612 23.2754 13.5862 22.8312 13.7284 22.3945C14.5144 20.0061 15.8263 17.8245 17.5675 16.0105C19.3087 14.1965 21.4347 12.7964 23.789 11.9133C24.4773 11.6557 25.1819 11.4443 25.8983 11.2805C27.0502 11.0173 28.2267 10.8762 29.4081 10.8598H29.6577C30.1687 10.8582 30.6753 10.8805 31.1776 10.9266Z" fill="#E07E7E"/>
<path d="M29.5373 35.7691C35.7609 35.7691 40.8061 30.7239 40.8061 24.5004C40.8061 18.2768 35.7609 13.2316 29.5373 13.2316C23.3137 13.2316 18.2686 18.2768 18.2686 24.5004C18.2686 30.7239 23.3137 35.7691 29.5373 35.7691Z" fill="white"/>
<path d="M29.5371 31.7742C33.21 31.7742 36.1875 28.7968 36.1875 25.1238C36.1875 21.4509 33.21 18.4734 29.5371 18.4734C25.8642 18.4734 22.8867 21.4509 22.8867 25.1238C22.8867 28.7968 25.8642 31.7742 29.5371 31.7742Z" fill="#3586CB"/>
<path d="M29.4763 30.1055C32.2276 30.1055 34.4579 27.8751 34.4579 25.1238C34.4579 22.3725 32.2276 20.1422 29.4763 20.1422C26.725 20.1422 24.4946 22.3725 24.4946 25.1238C24.4946 27.8751 26.725 30.1055 29.4763 30.1055Z" fill="#27273D"/>
<path d="M32.4421 23.25C33.3003 23.25 33.996 22.5543 33.996 21.6961C33.996 20.8379 33.3003 20.1422 32.4421 20.1422C31.5839 20.1422 30.8882 20.8379 30.8882 21.6961C30.8882 22.5543 31.5839 23.25 32.4421 23.25Z" fill="white"/>
<path d="M29.4761 26.9988C30.5116 26.9988 31.3511 26.1594 31.3511 25.1238C31.3511 24.0883 30.5116 23.2488 29.4761 23.2488C28.4405 23.2488 27.6011 24.0883 27.6011 25.1238C27.6011 26.1594 28.4405 26.9988 29.4761 26.9988Z" fill="white"/>
<path d="M42.4498 37.3031H16.8842C16.2745 37.3031 15.7803 37.7971 15.7803 38.4064C15.7803 39.0158 16.2745 39.5098 16.8842 39.5098H42.4498C43.0595 39.5098 43.5537 39.0158 43.5537 38.4064C43.5537 37.7971 43.0595 37.3031 42.4498 37.3031Z" fill="#DD7A7A"/>
<path d="M43.5538 33.723C44.6075 33.723 45.4616 32.8689 45.4616 31.8152C45.4616 30.7616 44.6075 29.9074 43.5538 29.9074C42.5002 29.9074 41.646 30.7616 41.646 31.8152C41.646 32.8689 42.5002 33.723 43.5538 33.723Z" fill="#FAB3A7"/>
<path d="M43.5538 29.1926C44.3 29.1926 44.905 28.5876 44.905 27.8414C44.905 27.0952 44.3 26.4902 43.5538 26.4902C42.8076 26.4902 42.2026 27.0952 42.2026 27.8414C42.2026 28.5876 42.8076 29.1926 43.5538 29.1926Z" fill="#FAB3A7"/>
<path d="M40.8059 54.1605V57.9937C33.7514 60.7067 25.9347 60.6669 18.9082 57.8824V54.1605C18.9082 51.2567 20.0617 48.4718 22.115 46.4185C24.1683 44.3652 26.9532 43.2117 29.857 43.2117C32.7608 43.2117 35.5457 44.3652 37.599 46.4185C39.6523 48.4718 40.8059 51.2567 40.8059 54.1605Z" fill="#F6D372"/>
<path d="M20.7422 39.5109H25.7812V46.6687C25.7812 47.337 25.5158 47.9778 25.0433 48.4503C24.5708 48.9228 23.9299 49.1883 23.2617 49.1883C22.5935 49.1883 21.9526 48.9228 21.4801 48.4503C21.0076 47.9778 20.7422 47.337 20.7422 46.6687V39.5109Z" fill="white"/>
<path d="M33.1455 39.5109H38.1846V42.5285C38.1846 43.1967 37.9191 43.8376 37.4466 44.3101C36.9741 44.7826 36.3333 45.048 35.665 45.048C34.9968 45.048 34.356 44.7826 33.8835 44.3101C33.411 43.8376 33.1455 43.1967 33.1455 42.5285V39.5109Z" fill="white"/>
</g>
<defs>
<clipPath id="clip0_809_1816">
<rect width="60" height="60" fill="white"/>
</clipPath>
</defs>
</svg>
