<svg width="512" height="512" viewBox="0 0 512 512" fill="none" xmlns="http://www.w3.org/2000/svg">
<g clip-path="url(#clip0_809_2203)">
<path d="M256 512C397.385 512 512 397.385 512 256C512 114.615 397.385 0 256 0C114.615 0 0 114.615 0 256C0 397.385 114.615 512 256 512Z" fill="#A99BD4"/>
<path d="M427.2 446.33C412.139 459.897 395.519 471.626 377.69 481.27C372.357 484.15 366.933 486.843 361.42 489.35C338.563 499.696 314.3 506.601 289.42 509.84C280.224 511.037 270.971 511.738 261.7 511.94C259.81 511.94 257.92 512 256.02 512C227.974 512.032 200.114 507.444 173.56 498.42C167.66 496.42 161.857 494.207 156.15 491.78C145.059 487.088 134.315 481.614 124 475.4C109.582 466.711 96.0541 456.626 83.61 445.29L83.5 445.18C98.06 408.81 104.3 371.29 106.78 341.18C109.018 314.4 106.393 287.435 99.03 261.59C91.1425 233.937 90.725 204.687 97.82 176.82C103.129 156.108 112.508 136.66 125.41 119.61C129.457 114.242 133.842 109.139 138.54 104.33C166.564 75.3595 204.452 57.9774 244.69 55.63C246.23 55.54 247.77 55.47 249.32 55.42C251.08 55.36 252.85 55.33 254.62 55.33H257.03H258.22L260.22 55.39L262.83 55.5H263.28L265.9 55.66C268.48 55.84 271.05 56.08 273.59 56.39C291.861 58.5471 309.626 63.8272 326.11 72C342.884 80.2916 358.09 91.4339 371.05 104.93C390.476 125.093 404.305 149.976 411.17 177.12C417.972 204.113 417.749 232.398 410.52 259.28C403.52 285.09 400.52 311.82 402.57 338.47C405 369.32 411.43 408.49 427.2 446.33Z" fill="#3E436D"/>
<path d="M273.63 56.44H273.57C256.424 58.4315 239.714 63.1899 224.09 70.53C219.99 72.45 215.99 74.5367 212.09 76.79C205.884 80.3599 199.924 84.3422 194.25 88.71C181.912 98.1949 171.004 109.407 161.86 122C157.92 127.406 154.323 133.053 151.09 138.91C149.137 142.417 147.324 146 145.65 149.66C141.624 158.418 138.397 167.521 136.01 176.86C128.915 204.727 129.333 233.977 137.22 261.63C144.587 287.458 147.223 314.404 145 341.17C142.95 366.17 138.3 396.22 128.47 426.5C123.326 442.257 121.798 458.971 124 475.4C109.583 466.711 96.0544 456.626 83.6104 445.29C98.2104 408.88 104.46 371.29 106.94 341.17C109.179 314.39 106.553 287.425 99.1904 261.58C91.3237 233.954 90.9131 204.737 98.0004 176.9C97.9957 176.87 97.9957 176.84 98.0004 176.81C100.379 167.499 103.595 158.421 107.61 149.69V149.61C112.475 139.021 118.47 128.99 125.49 119.69C129.537 114.322 133.919 109.215 138.61 104.4C152.201 90.37 168.224 78.9214 185.9 70.61L186.05 70.54C194.832 66.4191 203.97 63.1022 213.35 60.63H213.51C225.203 57.5742 237.201 55.8401 249.28 55.46C251.04 55.4 252.81 55.37 254.58 55.37H256.99H258.18L260.18 55.43L262.79 55.54H263.24L265.86 55.7C268.48 55.89 271.06 56.14 273.63 56.44Z" fill="#32314B"/>
<path d="M352.63 141C350.362 141.012 348.158 140.252 346.378 138.846C344.599 137.44 343.35 135.47 342.838 133.261C342.325 131.052 342.578 128.734 343.556 126.688C344.534 124.641 346.179 122.988 348.22 122C348.81 121.7 391.44 99.9999 405.96 45.7299C406.679 43.2072 408.361 41.0682 410.642 39.7738C412.924 38.4794 415.623 38.1334 418.157 38.8102C420.692 39.4871 422.858 41.1327 424.191 43.3923C425.523 45.6519 425.914 48.3446 425.28 50.8899C408.29 114.43 359.08 139 357 140C355.639 140.663 354.144 141.005 352.63 141Z" fill="#F6D372"/>
<path d="M416.61 84.32C436.487 84.32 452.6 68.2067 452.6 48.33C452.6 28.4532 436.487 12.34 416.61 12.34C396.733 12.34 380.62 28.4532 380.62 48.33C380.62 68.2067 396.733 84.32 416.61 84.32Z" fill="#E88032"/>
<path d="M425.27 83.27C419.965 84.5865 414.431 84.6779 409.085 83.5372C403.74 82.3965 398.725 80.0537 394.42 76.6864C390.114 73.3191 386.632 69.0157 384.238 64.1026C381.843 59.1895 380.599 53.7956 380.599 48.33C380.599 42.8643 381.843 37.4704 384.238 32.5573C386.632 27.6442 390.114 23.3408 394.42 19.9735C398.725 16.6062 403.74 14.2634 409.085 13.1227C414.431 11.982 419.965 12.0734 425.27 13.39C417.468 15.3264 410.538 19.8187 405.585 26.1509C400.633 32.4831 397.942 40.2909 397.942 48.33C397.942 56.369 400.633 64.1768 405.585 70.509C410.538 76.8413 417.468 81.3335 425.27 83.27Z" fill="#CE6D2C"/>
<path d="M157.61 141C159.877 141.009 162.08 140.248 163.858 138.841C165.635 137.434 166.882 135.465 167.394 133.256C167.905 131.048 167.651 128.731 166.673 126.685C165.695 124.64 164.051 122.988 162.01 122C161.43 121.7 118.79 100 104.28 45.73C103.472 43.3135 101.772 41.2966 99.5275 40.0912C97.2827 38.8857 94.6624 38.5826 92.2017 39.2438C89.741 39.9049 87.6255 41.4804 86.2871 43.6485C84.9487 45.8167 84.4884 48.4139 85.0002 50.91C102 114.43 151.2 138.98 153.29 139.99C154.635 140.65 156.112 140.996 157.61 141Z" fill="#F6D372"/>
<path d="M94.6101 84.32C114.487 84.32 130.6 68.2067 130.6 48.33C130.6 28.4532 114.487 12.34 94.6101 12.34C74.7334 12.34 58.6201 28.4532 58.6201 48.33C58.6201 68.2067 74.7334 84.32 94.6101 84.32Z" fill="#E88032"/>
<path d="M103.27 83.27C97.9655 84.5865 92.4307 84.6779 87.0854 83.5372C81.7401 82.3965 76.7247 80.0537 72.4196 76.6864C68.1144 73.3191 64.6325 69.0157 62.2378 64.1026C59.8431 59.1895 58.5986 53.7956 58.5986 48.33C58.5986 42.8643 59.8431 37.4704 62.2378 32.5573C64.6325 27.6442 68.1144 23.3408 72.4196 19.9735C76.7247 16.6062 81.7401 14.2634 87.0854 13.1227C92.4307 11.982 97.9655 12.0734 103.27 13.39C95.4678 15.3264 88.5381 19.8187 83.5853 26.1509C78.6326 32.4831 75.9418 40.2909 75.9418 48.33C75.9418 56.369 78.6326 64.1768 83.5853 70.509C88.5381 76.8413 95.4678 81.3335 103.27 83.27Z" fill="#CE6D2C"/>
<path d="M213.62 65.1699C213.62 79.2499 207.35 90.6699 199.62 90.6699C192.9 90.6699 187.29 82.0399 185.93 70.5399C194.76 66.3781 203.952 63.0309 213.39 60.5399C213.546 62.0783 213.622 63.6237 213.62 65.1699Z" fill="#DBB963"/>
<path d="M257.2 124.83C264.932 124.83 271.2 113.413 271.2 99.33C271.2 85.2467 264.932 73.83 257.2 73.83C249.468 73.83 243.2 85.2467 243.2 99.33C243.2 113.413 249.468 124.83 257.2 124.83Z" fill="#F6D372"/>
<path d="M326.11 72C324.47 82.77 319.05 90.68 312.62 90.68C304.89 90.68 298.62 79.26 298.62 65.18C298.62 63.92 298.67 62.68 298.77 61.47C308.186 64.1374 317.338 67.6622 326.11 72Z" fill="#F6D372"/>
<path d="M411.17 177.11C400.79 183.49 389.91 184.37 385.76 178.78C381.15 172.57 386.58 160.73 397.89 152.34C399.084 151.448 400.322 150.617 401.6 149.85C405.608 158.628 408.812 167.752 411.17 177.11Z" fill="#F6D372"/>
<path d="M123.74 178.78C119.52 184.46 108.37 183.46 97.8501 176.78C100.237 167.441 103.463 158.337 107.49 149.58C108.916 150.413 110.295 151.324 111.62 152.31C122.92 160.73 128.35 172.57 123.74 178.78Z" fill="#DBB963"/>
<path d="M334.28 423C342.012 423 348.28 411.583 348.28 397.5C348.28 383.417 342.012 372 334.28 372C326.548 372 320.28 383.417 320.28 397.5C320.28 411.583 326.548 423 334.28 423Z" fill="#F6D372"/>
<path d="M167.62 423C175.352 423 181.62 411.583 181.62 397.5C181.62 383.417 175.352 372 167.62 372C159.888 372 153.62 383.417 153.62 397.5C153.62 411.583 159.888 423 167.62 423Z" fill="#F6D372"/>
<path d="M261.62 465.68C269.352 465.68 275.62 454.263 275.62 440.18C275.62 426.097 269.352 414.68 261.62 414.68C253.888 414.68 247.62 426.097 247.62 440.18C247.62 454.263 253.888 465.68 261.62 465.68Z" fill="#F6D372"/>
<path d="M375.62 328.16C383.352 328.16 389.62 316.743 389.62 302.66C389.62 288.577 383.352 277.16 375.62 277.16C367.888 277.16 361.62 288.577 361.62 302.66C361.62 316.743 367.888 328.16 375.62 328.16Z" fill="#F6D372"/>
<path d="M380.62 465.68C380.686 471.019 379.691 476.319 377.69 481.27C372.357 484.15 366.933 486.843 361.42 489.35C356.26 485.59 352.62 476.42 352.62 465.68C352.62 451.6 358.89 440.18 366.62 440.18C374.35 440.18 380.62 451.6 380.62 465.68Z" fill="#F6D372"/>
<path d="M289.4 509.84C280.205 511.037 270.951 511.738 261.68 511.94C262.35 499 268.34 488.87 275.62 488.87C282.5 488.87 288.22 497.92 289.4 509.84Z" fill="#F6D372"/>
<path d="M173.54 498.42C167.64 496.42 161.837 494.207 156.13 491.78C157.829 489.997 160.159 488.952 162.62 488.87C167 488.87 171 492.6 173.54 498.42Z" fill="#F6D372"/>
<path d="M130.6 329.04C138.332 329.04 144.6 317.623 144.6 303.54C144.6 289.457 138.332 278.04 130.6 278.04C122.868 278.04 116.6 289.457 116.6 303.54C116.6 317.623 122.868 329.04 130.6 329.04Z" fill="#DBB963"/>
<path d="M255.62 290.57C299.063 290.57 334.28 255.353 334.28 211.91C334.28 168.467 299.063 133.25 255.62 133.25C212.178 133.25 176.96 168.467 176.96 211.91C176.96 255.353 212.178 290.57 255.62 290.57Z" fill="white"/>
<path d="M255.62 262.69C281.257 262.69 302.04 241.907 302.04 216.27C302.04 190.633 281.257 169.85 255.62 169.85C229.983 169.85 209.2 190.633 209.2 216.27C209.2 241.907 229.983 262.69 255.62 262.69Z" fill="#3586CB"/>
<path d="M255.2 251.05C274.409 251.05 289.98 235.478 289.98 216.27C289.98 197.062 274.409 181.49 255.2 181.49C235.992 181.49 220.42 197.062 220.42 216.27C220.42 235.478 235.992 251.05 255.2 251.05Z" fill="#27273D"/>
<path d="M275.9 203.19C281.893 203.19 286.75 198.332 286.75 192.34C286.75 186.348 281.893 181.49 275.9 181.49C269.908 181.49 265.05 186.348 265.05 192.34C265.05 198.332 269.908 203.19 275.9 203.19Z" fill="white"/>
<path d="M255.2 229.36C262.43 229.36 268.29 223.499 268.29 216.27C268.29 209.041 262.43 203.18 255.2 203.18C247.971 203.18 242.11 209.041 242.11 216.27C242.11 223.499 247.971 229.36 255.2 229.36Z" fill="white"/>
<path d="M299.16 340.58V358.09C299.168 365.914 296.855 373.565 292.514 380.073C288.172 386.582 281.997 391.657 274.77 394.654C267.543 397.652 259.589 398.439 251.915 396.914C244.241 395.39 237.192 391.623 231.66 386.09C230.398 384.835 229.219 383.498 228.13 382.09C222.914 375.205 220.104 366.798 220.13 358.16V340.58C220.13 330.093 224.296 320.036 231.711 312.621C239.126 305.206 249.183 301.04 259.67 301.04C270.157 301.04 280.214 305.206 287.629 312.621C295.044 320.036 299.21 330.093 299.21 340.58H299.16Z" fill="#27273D"/>
<path d="M291.11 382C287.691 386.49 283.35 390.196 278.38 392.87C273.41 395.544 267.925 397.123 262.294 397.502C256.663 397.881 251.016 397.051 245.732 395.067C240.448 393.083 235.65 389.991 231.66 386C230.398 384.745 229.219 383.409 228.13 382C231.547 377.506 235.886 373.796 240.857 371.119C245.827 368.442 251.313 366.861 256.946 366.482C262.578 366.103 268.227 366.935 273.511 368.922C278.795 370.909 283.593 374.004 287.58 378C288.845 379.253 290.024 380.59 291.11 382Z" fill="#DB1B1B"/>
<path d="M276.79 305V316C276.79 320.554 274.981 324.921 271.761 328.141C268.541 331.361 264.174 333.17 259.62 333.17C255.066 333.17 250.699 331.361 247.479 328.141C244.259 324.921 242.45 320.554 242.45 316V305C247.808 302.426 253.676 301.09 259.62 301.09C265.564 301.09 271.432 302.426 276.79 305Z" fill="white"/>
<path d="M271.17 393.56V395.92C263.64 398.207 255.601 398.207 248.07 395.92V393.57C248.07 390.507 249.287 387.569 251.453 385.403C253.619 383.237 256.557 382.02 259.62 382.02C262.684 382.02 265.621 383.237 267.787 385.403C269.953 387.569 271.17 390.507 271.17 393.57V393.56Z" fill="white"/>
</g>
<defs>
<clipPath id="clip0_809_2203">
<rect width="512" height="512" fill="white"/>
</clipPath>
</defs>
</svg>
