<svg width="512" height="512" viewBox="0 0 512 512" fill="none" xmlns="http://www.w3.org/2000/svg">
<g clip-path="url(#clip0_809_1697)">
<path d="M256 512C397.385 512 512 397.385 512 256C512 114.615 397.385 0 256 0C114.615 0 0 114.615 0 256C0 397.385 114.615 512 256 512Z" fill="#7CC8FB"/>
<path d="M315 428.08V505.16C277.642 513.943 238.796 514.285 201.29 506.16V428.08H315Z" fill="#B5622A"/>
<path d="M478 203.85C470.51 203.85 464.2 216.78 462.31 234.35H425.46C418.202 197.039 399.04 163.087 370.85 137.59L393.85 114.59C407.62 125.68 421.22 130.36 426.52 125.06C432.87 118.7 424.89 100.41 408.68 84.1999C392.47 67.9899 374.17 59.9999 367.82 66.3799C362.52 71.6799 367.19 85.2699 378.28 99.0399L353.55 123.78C327.072 105.212 295.969 94.3398 263.69 92.3699V56.3699C281.27 54.4799 294.19 48.1699 294.19 40.6699C294.19 31.6699 275.61 24.3899 252.69 24.3899C229.77 24.3899 211.19 31.6799 211.19 40.6699C211.19 48.1699 224.11 54.4799 241.69 56.3699V92.3699C208.3 94.408 176.193 105.971 149.17 125.69L122.52 98.9999C133.62 85.2299 138.29 71.6399 132.99 66.3399C126.63 59.9999 108.34 67.9999 92.1399 84.2099C75.9399 100.42 67.9399 118.71 74.2999 125.07C79.5999 130.37 93.1999 125.69 106.97 114.6L132.16 139.79C105.245 165.039 86.9672 198.125 79.9199 234.35H51.0999C49.2099 216.78 42.8999 203.85 35.4099 203.85C26.4099 203.85 19.1299 222.43 19.1299 245.35C19.1299 268.27 26.4199 286.85 35.4099 286.85C42.8999 286.85 49.2099 273.93 51.0999 256.35H77.0999C76.8399 260.21 76.7066 264.1 76.6999 268.02C76.6999 314.698 95.2427 359.464 128.249 392.471C161.255 425.477 206.022 444.02 252.7 444.02C299.378 444.02 344.144 425.477 377.151 392.471C410.157 359.464 428.7 314.698 428.7 268.02C428.7 264.1 428.56 260.21 428.31 256.35H462.31C464.2 273.93 470.51 286.85 478 286.85C487 286.85 494.28 268.27 494.28 245.35C494.28 222.43 487 203.85 478 203.85Z" fill="#E88032"/>
<path d="M293.83 439.18C267.953 445.375 241.008 445.627 215.02 439.917C189.031 434.206 164.675 422.682 143.779 406.208C122.883 389.735 105.99 368.742 94.3709 344.804C82.7514 320.867 76.7063 294.608 76.6899 268C76.6899 264.08 76.8232 260.19 77.0899 256.33H51.0899C49.1899 273.91 42.8899 286.83 35.3899 286.83C26.3899 286.83 19.1099 268.25 19.1099 245.33C19.1099 222.41 26.3999 203.83 35.3899 203.83C42.8899 203.83 49.1899 216.75 51.0899 234.33H79.9199C86.9672 198.105 105.245 165.019 132.16 139.77L107 114.6C93.1999 125.69 79.5999 130.37 74.2999 125.06C67.9499 118.71 75.9299 100.42 92.1399 84.2098C108.35 67.9998 126.64 59.9998 133 66.3698C138.3 71.6798 133.63 85.2698 122.53 99.0398L147.63 124.14C139.228 150.482 134.967 177.97 135 205.62C135 316.87 202.22 410.62 293.83 439.18Z" fill="#CE6F2E"/>
<path d="M139.96 238.11C156.954 238.11 170.73 224.334 170.73 207.34C170.73 190.346 156.954 176.57 139.96 176.57C122.966 176.57 109.19 190.346 109.19 207.34C109.19 224.334 122.966 238.11 139.96 238.11Z" fill="white"/>
<path d="M139.96 227.2C149.989 227.2 158.12 219.069 158.12 209.04C158.12 199.01 149.989 190.88 139.96 190.88C129.93 190.88 121.8 199.01 121.8 209.04C121.8 219.069 129.93 227.2 139.96 227.2Z" fill="#3586CB"/>
<path d="M139.79 222.64C147.301 222.64 153.39 216.551 153.39 209.04C153.39 201.529 147.301 195.44 139.79 195.44C132.279 195.44 126.19 201.529 126.19 209.04C126.19 216.551 132.279 222.64 139.79 222.64Z" fill="#27273D"/>
<path d="M147.89 203.92C150.232 203.92 152.13 202.022 152.13 199.68C152.13 197.338 150.232 195.44 147.89 195.44C145.548 195.44 143.65 197.338 143.65 199.68C143.65 202.022 145.548 203.92 147.89 203.92Z" fill="white"/>
<path d="M139.79 214.16C142.618 214.16 144.91 211.868 144.91 209.04C144.91 206.212 142.618 203.92 139.79 203.92C136.962 203.92 134.67 206.212 134.67 209.04C134.67 211.868 136.962 214.16 139.79 214.16Z" fill="white"/>
<path d="M256.69 182.46C273.684 182.46 287.46 168.684 287.46 151.69C287.46 134.696 273.684 120.92 256.69 120.92C239.696 120.92 225.92 134.696 225.92 151.69C225.92 168.684 239.696 182.46 256.69 182.46Z" fill="white"/>
<path d="M256.69 171.55C266.719 171.55 274.85 163.419 274.85 153.39C274.85 143.36 266.719 135.23 256.69 135.23C246.66 135.23 238.53 143.36 238.53 153.39C238.53 163.419 246.66 171.55 256.69 171.55Z" fill="#3586CB"/>
<path d="M256.53 166.99C264.041 166.99 270.13 160.901 270.13 153.39C270.13 145.879 264.041 139.79 256.53 139.79C249.019 139.79 242.93 145.879 242.93 153.39C242.93 160.901 249.019 166.99 256.53 166.99Z" fill="#27273D"/>
<path d="M264.62 148.27C266.962 148.27 268.86 146.371 268.86 144.03C268.86 141.688 266.962 139.79 264.62 139.79C262.278 139.79 260.38 141.688 260.38 144.03C260.38 146.371 262.278 148.27 264.62 148.27Z" fill="white"/>
<path d="M256.53 158.51C259.357 158.51 261.65 156.218 261.65 153.39C261.65 150.562 259.357 148.27 256.53 148.27C253.702 148.27 251.41 150.562 251.41 153.39C251.41 156.218 253.702 158.51 256.53 158.51Z" fill="white"/>
<path d="M368.45 239.81C385.444 239.81 399.22 226.034 399.22 209.04C399.22 192.046 385.444 178.27 368.45 178.27C351.456 178.27 337.68 192.046 337.68 209.04C337.68 226.034 351.456 239.81 368.45 239.81Z" fill="white"/>
<path d="M368.45 228.9C378.48 228.9 386.61 220.769 386.61 210.74C386.61 200.71 378.48 192.58 368.45 192.58C358.421 192.58 350.29 200.71 350.29 210.74C350.29 220.769 358.421 228.9 368.45 228.9Z" fill="#3586CB"/>
<path d="M368.29 224.34C375.801 224.34 381.89 218.251 381.89 210.74C381.89 203.229 375.801 197.14 368.29 197.14C360.779 197.14 354.69 203.229 354.69 210.74C354.69 218.251 360.779 224.34 368.29 224.34Z" fill="#27273D"/>
<path d="M376.39 205.62C378.732 205.62 380.63 203.722 380.63 201.38C380.63 199.038 378.732 197.14 376.39 197.14C374.048 197.14 372.15 199.038 372.15 201.38C372.15 203.722 374.048 205.62 376.39 205.62Z" fill="white"/>
<path d="M368.29 215.86C371.118 215.86 373.41 213.568 373.41 210.74C373.41 207.912 371.118 205.62 368.29 205.62C365.462 205.62 363.17 207.912 363.17 210.74C363.17 213.568 365.462 215.86 368.29 215.86Z" fill="white"/>
<path d="M256.69 319.02C287.298 319.02 312.11 294.208 312.11 263.6C312.11 232.992 287.298 208.18 256.69 208.18C226.082 208.18 201.27 232.992 201.27 263.6C201.27 294.208 226.082 319.02 256.69 319.02Z" fill="white"/>
<path d="M256.69 299.38C274.755 299.38 289.4 284.735 289.4 266.67C289.4 248.605 274.755 233.96 256.69 233.96C238.625 233.96 223.98 248.605 223.98 266.67C223.98 284.735 238.625 299.38 256.69 299.38Z" fill="#3586CB"/>
<path d="M256.39 291.17C269.921 291.17 280.89 280.201 280.89 266.67C280.89 253.139 269.921 242.17 256.39 242.17C242.859 242.17 231.89 253.139 231.89 266.67C231.89 280.201 242.859 291.17 256.39 291.17Z" fill="#27273D"/>
<path d="M270.98 257.45C275.199 257.45 278.62 254.029 278.62 249.81C278.62 245.59 275.199 242.17 270.98 242.17C266.76 242.17 263.34 245.59 263.34 249.81C263.34 254.029 266.76 257.45 270.98 257.45Z" fill="white"/>
<path d="M256.39 275.89C261.482 275.89 265.61 271.762 265.61 266.67C265.61 261.578 261.482 257.45 256.39 257.45C251.298 257.45 247.17 261.578 247.17 266.67C247.17 271.762 251.298 275.89 256.39 275.89Z" fill="white"/>
<path d="M382.22 291.8C382.245 313.41 376.685 334.66 366.078 353.488C355.472 372.316 340.18 388.084 321.685 399.261C303.19 410.438 282.12 416.646 260.519 417.282C238.919 417.917 217.52 412.96 198.4 402.89C158.27 381.68 130.89 339.36 131.16 291.07C131.16 290.69 131.16 290.31 131.16 289.93C131.182 288.804 131.591 287.72 132.319 286.86C133.046 286 134.048 285.417 135.155 285.21C136.262 285.002 137.407 285.182 138.396 285.719C139.386 286.256 140.161 287.118 140.59 288.16C150.075 311.146 166.17 330.798 186.836 344.627C207.502 358.456 231.809 365.838 256.675 365.838C281.541 365.838 305.847 358.456 326.513 344.627C347.179 330.798 363.275 311.146 372.76 288.16C373.194 287.119 373.974 286.26 374.967 285.727C375.961 285.193 377.107 285.018 378.215 285.23C379.322 285.442 380.323 286.029 381.049 286.893C381.774 287.756 382.181 288.842 382.2 289.97C382.22 290.58 382.22 291.19 382.22 291.8Z" fill="#27273D"/>
<path d="M315 403C297.012 412.426 277.002 417.339 256.694 417.316C236.386 417.294 216.387 412.336 198.42 402.87C216.408 393.444 236.418 388.531 256.726 388.554C277.034 388.576 297.033 393.534 315 403Z" fill="#DB1B1B"/>
<path d="M349.21 164.71C358.201 164.71 365.49 157.421 365.49 148.43C365.49 139.439 358.201 132.15 349.21 132.15C340.218 132.15 332.93 139.439 332.93 148.43C332.93 157.421 340.218 164.71 349.21 164.71Z" fill="#F29555"/>
<path d="M323.15 138.25C329.518 138.25 334.68 133.088 334.68 126.72C334.68 120.352 329.518 115.19 323.15 115.19C316.782 115.19 311.62 120.352 311.62 126.72C311.62 133.088 316.782 138.25 323.15 138.25Z" fill="#F29555"/>
<path d="M276.69 364.24V366.35C276.69 370.814 274.917 375.096 271.761 378.254C268.605 381.412 264.324 383.187 259.86 383.19H251.19C248.979 383.19 246.79 382.754 244.747 381.908C242.704 381.061 240.849 379.821 239.286 378.257C237.723 376.693 236.483 374.837 235.638 372.793C234.793 370.75 234.359 368.561 234.36 366.35V363.85C248.348 366.352 262.658 366.484 276.69 364.24Z" fill="white"/>
</g>
<defs>
<clipPath id="clip0_809_1697">
<rect width="512" height="512" fill="white"/>
</clipPath>
</defs>
</svg>
