<svg width="512" height="512" viewBox="0 0 512 512" fill="none" xmlns="http://www.w3.org/2000/svg">
<g clip-path="url(#clip0_809_2129)">
<path d="M256 512C397.385 512 512 397.385 512 256C512 114.615 397.385 0 256 0C114.615 0 0 114.615 0 256C0 397.385 114.615 512 256 512Z" fill="#934CF5"/>
<path d="M465.5 106.24L414 124.3C408.823 126.116 404.191 129.216 400.537 133.309C396.883 137.402 394.328 142.355 393.109 147.705C391.89 153.055 392.048 158.626 393.568 163.898C395.088 169.17 397.92 173.97 401.8 177.85C405.716 181.767 410.57 184.616 415.9 186.126C421.229 187.635 426.856 187.755 432.245 186.474C437.634 185.193 442.605 182.553 446.684 178.806C450.764 175.059 453.816 170.33 455.55 165.07L472.63 113.25C472.954 112.262 472.995 111.203 472.75 110.193C472.504 109.183 471.981 108.262 471.24 107.533C470.498 106.804 469.568 106.297 468.554 106.069C467.54 105.84 466.482 105.899 465.5 106.24Z" fill="#FC4581"/>
<path d="M405.34 180.91C404.092 179.979 402.916 178.956 401.82 177.85C397.94 173.972 395.107 169.173 393.585 163.902C392.064 158.631 391.904 153.061 393.121 147.711C394.338 142.362 396.891 137.408 400.543 133.314C404.194 129.22 408.824 126.118 414 124.3L465.48 106.24C466.413 105.912 467.417 105.838 468.389 106.026C469.36 106.214 470.264 106.657 471.008 107.309C471.751 107.962 472.309 108.8 472.622 109.738C472.935 110.677 472.993 111.682 472.79 112.65C472.553 112.698 472.319 112.761 472.09 112.84L420.62 130.9C415.816 132.585 411.477 135.376 407.951 139.048C404.426 142.721 401.814 147.171 400.327 152.039C398.839 156.907 398.518 162.057 399.389 167.073C400.26 172.088 402.298 176.828 405.34 180.91Z" fill="#E23D79"/>
<path d="M42.6899 114.17L60.7599 165.65C62.5761 170.827 65.6758 175.46 69.769 179.113C73.8623 182.767 78.8154 185.323 84.165 186.541C89.5147 187.76 95.086 187.602 100.358 186.082C105.63 184.562 110.43 181.73 114.31 177.85C118.224 173.933 121.071 169.079 122.578 163.75C124.086 158.422 124.204 152.796 122.922 147.408C121.64 142.021 119 137.052 115.254 132.973C111.507 128.895 106.779 125.844 101.52 124.11L49.6999 107C48.7078 106.672 47.6434 106.628 46.628 106.875C45.6126 107.122 44.6868 107.649 43.9563 108.396C43.2257 109.144 42.7197 110.081 42.4958 111.102C42.2719 112.122 42.3391 113.186 42.6899 114.17Z" fill="#FC4581"/>
<path d="M117.36 174.33C116.448 175.575 115.445 176.752 114.36 177.85C110.481 181.73 105.682 184.562 100.41 186.083C95.1388 187.604 89.5678 187.763 84.2183 186.545C78.8688 185.327 73.9156 182.773 69.8218 179.12C65.728 175.468 62.6275 170.836 60.8101 165.66L42.6901 114.17C42.3639 113.236 42.2918 112.232 42.4811 111.261C42.6705 110.29 43.1146 109.387 43.7678 108.644C44.4211 107.902 45.26 107.346 46.1988 107.034C47.1375 106.722 48.1423 106.666 49.1101 106.87C49.1607 107.106 49.2241 107.34 49.3001 107.57L67.3601 159.06C69.0448 163.862 71.8358 168.201 75.5075 171.725C79.1792 175.25 83.6287 177.86 88.4961 179.347C93.3636 180.833 98.5126 181.154 103.527 180.282C108.541 179.411 113.28 177.372 117.36 174.33Z" fill="#E23D79"/>
<path d="M492.31 256.31C492.31 273.96 484.75 290.71 471.18 305.79C471.163 337.582 464.15 368.98 450.639 397.758C437.128 426.536 417.449 451.989 393 472.31C352.038 498.302 304.512 512.071 256 512C238.31 512.009 220.667 510.192 203.35 506.58C171.508 499.914 141.239 487.208 114.18 469.15C90.805 448.829 72.0596 423.732 59.2079 395.552C46.3562 367.371 39.6972 336.763 39.6798 305.79C26.1098 290.71 18.5498 274 18.5498 256.31C18.5498 227.66 38.4598 201.36 71.6898 180.75C74.4998 179 77.4198 177.29 80.4198 175.63C81.5998 174.97 82.7898 174.33 83.9998 173.69C94.1682 160.348 105.846 148.228 118.8 137.57C121.73 135.16 124.74 132.81 127.8 130.57C124.438 122.306 123.15 113.344 124.05 104.468C124.949 95.592 128.009 87.0711 132.961 79.65C137.913 72.2288 144.607 66.1331 152.458 61.8954C160.309 57.6578 169.078 55.407 178 55.3398H178.46C187.415 55.3366 196.234 57.5391 204.137 61.7528C212.039 65.9665 218.782 72.0617 223.77 79.4998C226.013 82.823 227.881 86.3848 229.34 90.1199C231.93 89.8098 234.54 89.5398 237.16 89.3298C243.16 88.8098 249.25 88.5499 255.43 88.5499C264.456 88.5541 273.474 89.1219 282.43 90.2498V90.1498C283.467 87.4783 284.721 84.8963 286.18 82.4298C293.181 70.4628 304.469 61.6046 317.758 57.6502C331.046 53.6957 345.341 54.9407 357.746 61.133C370.151 67.3252 379.738 78.0015 384.564 90.9987C389.391 103.996 389.096 118.342 383.74 131.13C387.786 134.15 391.723 137.307 395.55 140.6C397.87 142.6 400.146 144.643 402.38 146.73C411.247 155.033 419.402 164.064 426.76 173.73C432.047 176.53 437.066 179.46 441.82 182.52C473.49 202.82 492.31 228.45 492.31 256.31Z" fill="#F7BB38"/>
<path d="M203.35 506.58C171.509 499.914 141.239 487.208 114.18 469.15C112.95 468.34 111.74 467.51 110.53 466.68C87.9759 446.38 69.9379 421.568 57.5847 393.852C45.2314 366.136 38.8385 336.134 38.8199 305.79C25.2499 290.71 17.6899 274 17.6899 256.31C17.6899 227.52 37.7999 201.11 71.3099 180.46C74.1233 178.733 77.0299 177.04 80.0299 175.38C81.0299 174.81 82.0899 174.25 83.1399 173.7C93.455 160.168 105.323 147.894 118.5 137.13C121.26 134.87 124.073 132.68 126.94 130.56C123.569 122.264 122.289 113.266 123.212 104.359C124.135 95.4515 127.232 86.9075 132.231 79.4782C137.231 72.049 143.98 65.9621 151.884 61.753C159.788 57.5439 168.605 55.3416 177.56 55.3398H177.96C182.725 55.3643 187.466 56.0165 192.06 57.2798C186.813 58.7179 181.814 60.9396 177.23 63.8698C175.517 64.9664 173.865 66.1548 172.28 67.4298C169.328 69.8114 166.63 72.4923 164.23 75.4298C156.247 85.1793 151.899 97.3992 151.93 110V110.14C151.936 117.144 153.294 124.081 155.93 130.57C152.57 133.06 149.28 135.63 146.07 138.31C143.757 140.217 141.49 142.18 139.27 144.2C133.703 149.223 128.406 154.537 123.4 160.12C119.453 164.493 115.697 169.023 112.13 173.71C107.87 175.97 103.787 178.303 99.8799 180.71C96.4133 182.857 93.0799 185.063 89.8799 187.33C62.6299 206.84 46.6299 230.62 46.6299 256.33C46.6299 273.98 54.1899 290.73 67.7599 305.81C67.8142 348.969 80.7464 391.13 104.901 426.897C129.056 462.663 163.335 490.408 203.35 506.58Z" fill="#E2A833"/>
<path d="M178.43 165.77C203.984 165.77 224.7 145.054 224.7 119.5C224.7 93.9458 203.984 73.23 178.43 73.23C152.876 73.23 132.16 93.9458 132.16 119.5C132.16 145.054 152.876 165.77 178.43 165.77Z" fill="#E2A937"/>
<path d="M333.2 165.77C358.754 165.77 379.47 145.054 379.47 119.5C379.47 93.9458 358.754 73.23 333.2 73.23C307.645 73.23 286.93 93.9458 286.93 119.5C286.93 145.054 307.645 165.77 333.2 165.77Z" fill="#E2A937"/>
<path d="M178.43 152.95C202.167 152.95 221.41 133.707 221.41 109.97C221.41 86.2328 202.167 66.99 178.43 66.99C154.693 66.99 135.45 86.2328 135.45 109.97C135.45 133.707 154.693 152.95 178.43 152.95Z" fill="white"/>
<path d="M178.43 137.72C192.442 137.72 203.8 126.361 203.8 112.35C203.8 98.3385 192.442 86.98 178.43 86.98C164.419 86.98 153.06 98.3385 153.06 112.35C153.06 126.361 164.419 137.72 178.43 137.72Z" fill="#3586CB"/>
<path d="M178.2 131.35C188.693 131.35 197.2 122.843 197.2 112.35C197.2 101.856 188.693 93.3499 178.2 93.3499C167.706 93.3499 159.2 101.856 159.2 112.35C159.2 122.843 167.706 131.35 178.2 131.35Z" fill="#27273D"/>
<path d="M189.51 105.21C192.785 105.21 195.44 102.555 195.44 99.2799C195.44 96.0048 192.785 93.3499 189.51 93.3499C186.235 93.3499 183.58 96.0048 183.58 99.2799C183.58 102.555 186.235 105.21 189.51 105.21Z" fill="white"/>
<path d="M178.2 119.5C182.149 119.5 185.35 116.299 185.35 112.35C185.35 108.401 182.149 105.2 178.2 105.2C174.251 105.2 171.05 108.401 171.05 112.35C171.05 116.299 174.251 119.5 178.2 119.5Z" fill="white"/>
<path d="M333.43 152.95C357.167 152.95 376.41 133.707 376.41 109.97C376.41 86.2328 357.167 66.99 333.43 66.99C309.693 66.99 290.45 86.2328 290.45 109.97C290.45 133.707 309.693 152.95 333.43 152.95Z" fill="white"/>
<path d="M333.43 137.72C347.442 137.72 358.8 126.361 358.8 112.35C358.8 98.3385 347.442 86.98 333.43 86.98C319.419 86.98 308.06 98.3385 308.06 112.35C308.06 126.361 319.419 137.72 333.43 137.72Z" fill="#3586CB"/>
<path d="M333.2 131.35C343.694 131.35 352.2 122.843 352.2 112.35C352.2 101.856 343.694 93.3499 333.2 93.3499C322.707 93.3499 314.2 101.856 314.2 112.35C314.2 122.843 322.707 131.35 333.2 131.35Z" fill="#27273D"/>
<path d="M344.51 105.21C347.785 105.21 350.44 102.555 350.44 99.2799C350.44 96.0048 347.785 93.3499 344.51 93.3499C341.235 93.3499 338.58 96.0048 338.58 99.2799C338.58 102.555 341.235 105.21 344.51 105.21Z" fill="white"/>
<path d="M333.2 119.5C337.149 119.5 340.35 116.299 340.35 112.35C340.35 108.401 337.149 105.2 333.2 105.2C329.251 105.2 326.05 108.401 326.05 112.35C326.05 116.299 329.251 119.5 333.2 119.5Z" fill="white"/>
<path d="M224.7 110.12C224.7 97.8483 219.825 86.0793 211.148 77.402C202.471 68.7247 190.702 63.8499 178.43 63.8499C166.159 63.8499 154.39 68.7247 145.712 77.402C137.035 86.0793 132.16 97.8483 132.16 110.12H224.7Z" fill="#E2A937"/>
<path d="M379.7 110.12C379.7 97.8483 374.825 86.0793 366.148 77.402C357.471 68.7247 345.702 63.8499 333.43 63.8499C321.159 63.8499 309.39 68.7247 300.712 77.402C292.035 86.0793 287.16 97.8483 287.16 110.12H379.7Z" fill="#E2A937"/>
<path d="M376.41 210.4C383.026 210.4 388.39 205.036 388.39 198.42C388.39 191.804 383.026 186.44 376.41 186.44C369.793 186.44 364.43 191.804 364.43 198.42C364.43 205.036 369.793 210.4 376.41 210.4Z" fill="#E88032"/>
<path d="M333.2 237.62C339.816 237.62 345.18 232.256 345.18 225.64C345.18 219.024 339.816 213.66 333.2 213.66C326.583 213.66 321.22 219.024 321.22 225.64C321.22 232.256 326.583 237.62 333.2 237.62Z" fill="#E88032"/>
<path d="M412.43 249.6C419.047 249.6 424.41 244.236 424.41 237.62C424.41 231.004 419.047 225.64 412.43 225.64C405.814 225.64 400.45 231.004 400.45 237.62C400.45 244.236 405.814 249.6 412.43 249.6Z" fill="#E88032"/>
<path d="M370.78 245.12C374.922 245.12 378.28 241.762 378.28 237.62C378.28 233.478 374.922 230.12 370.78 230.12C366.638 230.12 363.28 233.478 363.28 237.62C363.28 241.762 366.638 245.12 370.78 245.12Z" fill="#E88032"/>
<path d="M350.44 271.31C354.582 271.31 357.94 267.952 357.94 263.81C357.94 259.668 354.582 256.31 350.44 256.31C346.298 256.31 342.94 259.668 342.94 263.81C342.94 267.952 346.298 271.31 350.44 271.31Z" fill="#E88032"/>
<path d="M141.51 210.4C148.126 210.4 153.49 205.036 153.49 198.42C153.49 191.804 148.126 186.44 141.51 186.44C134.893 186.44 129.53 191.804 129.53 198.42C129.53 205.036 134.893 210.4 141.51 210.4Z" fill="#E88032"/>
<path d="M98.2998 237.62C104.916 237.62 110.28 232.256 110.28 225.64C110.28 219.024 104.916 213.66 98.2998 213.66C91.6835 213.66 86.3198 219.024 86.3198 225.64C86.3198 232.256 91.6835 237.62 98.2998 237.62Z" fill="#E88032"/>
<path d="M171.05 254.08C177.666 254.08 183.03 248.716 183.03 242.1C183.03 235.484 177.666 230.12 171.05 230.12C164.433 230.12 159.07 235.484 159.07 242.1C159.07 248.716 164.433 254.08 171.05 254.08Z" fill="#E88032"/>
<path d="M135.88 245.12C140.022 245.12 143.38 241.762 143.38 237.62C143.38 233.478 140.022 230.12 135.88 230.12C131.738 230.12 128.38 233.478 128.38 237.62C128.38 241.762 131.738 245.12 135.88 245.12Z" fill="#E88032"/>
<path d="M115.54 271.31C119.682 271.31 123.04 267.952 123.04 263.81C123.04 259.668 119.682 256.31 115.54 256.31C111.398 256.31 108.04 259.668 108.04 263.81C108.04 267.952 111.398 271.31 115.54 271.31Z" fill="#E88032"/>
<path d="M189.51 210.4L201 259.24C201.25 260.28 201.791 261.227 202.558 261.973C203.325 262.718 204.287 263.231 205.334 263.452C206.38 263.673 207.468 263.592 208.471 263.22C209.474 262.848 210.35 262.2 211 261.35L224.7 243.3L189.51 210.4Z" fill="white"/>
<path d="M208.38 189.47C198.71 192.08 186.48 199.02 176.59 216.41C173.72 221.41 180.13 226.64 184.53 222.88L213.15 198.46C214.055 197.691 214.67 196.636 214.894 195.47C215.117 194.304 214.936 193.096 214.379 192.047C213.823 190.998 212.924 190.171 211.833 189.702C210.742 189.233 209.524 189.151 208.38 189.47Z" fill="#E2A937"/>
<path d="M203.64 204.55C229.33 229.68 267.14 256.45 318.78 268.87C319.166 268.963 319.502 269.198 319.721 269.528C319.941 269.859 320.027 270.261 319.962 270.652C319.897 271.044 319.687 271.396 319.373 271.639C319.059 271.881 318.665 271.996 318.27 271.96C286.92 269 228.56 257.83 191.59 216C184.49 208 196 197.06 203.64 204.55Z" fill="#27273D"/>
<path d="M293.18 320.88V321C293.173 321.391 293.033 321.768 292.783 322.068C292.532 322.369 292.186 322.574 291.802 322.65C291.419 322.726 291.02 322.668 290.674 322.486C290.328 322.304 290.055 322.009 289.9 321.65C286.924 314.996 282.086 309.345 275.969 305.38C269.852 301.415 262.719 299.305 255.43 299.305C248.14 299.305 241.007 301.415 234.89 305.38C228.774 309.345 223.936 314.996 220.96 321.65C220.805 322.009 220.531 322.304 220.185 322.486C219.839 322.668 219.441 322.726 219.057 322.65C218.673 322.574 218.327 322.369 218.077 322.068C217.826 321.768 217.686 321.391 217.68 321V320.87C217.68 310.858 221.657 301.256 228.736 294.177C235.816 287.097 245.418 283.12 255.43 283.12C265.442 283.12 275.043 287.097 282.123 294.177C289.202 301.256 293.18 310.858 293.18 320.87V320.88Z" fill="#E2A937"/>
<path d="M376.41 452.31C376.405 463.628 374.194 474.837 369.9 485.31C334.472 502.908 295.448 512.059 255.889 512.043C216.331 512.027 177.314 502.846 141.9 485.22C139.073 478.285 137.151 471.015 136.18 463.59C135.686 459.847 135.439 456.075 135.44 452.3C135.44 396.14 189.38 350.62 255.92 350.62C322.46 350.62 376.41 396.15 376.41 452.31Z" fill="#F6D372"/>
<path d="M249.82 9.07986L226.19 58.2599C223.813 63.2051 222.73 68.6722 223.041 74.1498C223.353 79.6275 225.048 84.9367 227.969 89.581C230.89 94.2253 234.941 98.0528 239.744 100.706C244.546 103.358 249.943 104.75 255.43 104.75C260.965 104.752 266.409 103.337 271.243 100.641C276.078 97.944 280.142 94.0553 283.048 89.3443C285.955 84.6334 287.608 79.257 287.85 73.7268C288.092 68.1966 286.914 62.6965 284.43 57.7499L259.83 8.99986C259.362 8.06916 258.643 7.28805 257.754 6.74493C256.865 6.20181 255.842 5.91837 254.8 5.92669C253.758 5.93502 252.74 6.23477 251.859 6.79203C250.979 7.34929 250.273 8.1418 249.82 9.07986Z" fill="#FC4581"/>
<path d="M260.08 104.42C254.26 105.257 248.321 104.497 242.899 102.221C237.478 99.9456 232.776 96.2401 229.296 91.5003C225.816 86.7606 223.689 81.1646 223.142 75.31C222.595 69.4555 223.648 63.5623 226.19 58.2599L249.82 9.07988C250.249 8.18878 250.907 7.4277 251.727 6.8746C252.547 6.3215 253.499 5.99624 254.486 5.93214C255.473 5.86804 256.459 6.0674 257.344 6.50981C258.228 6.95221 258.979 7.62176 259.52 8.44988C259.388 8.65295 259.268 8.86329 259.16 9.07988L235.52 58.2599C233.316 62.8477 232.222 67.8896 232.327 72.9783C232.432 78.0669 233.732 83.0596 236.123 87.5529C238.513 92.0462 241.927 95.9141 246.089 98.8442C250.251 101.774 255.044 103.684 260.08 104.42Z" fill="#E23D79"/>
</g>
<defs>
<clipPath id="clip0_809_2129">
<rect width="512" height="512" fill="white"/>
</clipPath>
</defs>
</svg>
