<svg width="512" height="512" viewBox="0 0 512 512" fill="none" xmlns="http://www.w3.org/2000/svg">
<g clip-path="url(#clip0_809_1593)">
<path d="M256 512C397.385 512 512 397.385 512 256C512 114.615 397.385 0 256 0C114.615 0 0 114.615 0 256C0 397.385 114.615 512 256 512Z" fill="#7CC8FB"/>
<path d="M444.73 312.19C444.91 316.1 445 320.02 445 323.98C445 379.39 427.36 430.06 398.2 468.9C364.793 491.287 326.554 505.434 286.62 510.18C276.458 511.393 266.234 512.001 256 512C200.253 512.087 146.015 493.89 101.6 460.2C76.16 422.63 61 375.34 61 324C61 319.253 61.1333 314.543 61.4 309.87C42.209 301.393 26.9404 285.962 18.6659 266.683C10.3913 247.403 9.72487 225.706 16.8005 205.955C23.8762 186.204 38.169 169.866 56.8035 160.226C75.4381 150.587 97.0316 148.363 117.24 154C120.436 154.889 123.575 155.971 126.64 157.24C127.973 155.907 129.307 154.573 130.64 153.24L131.74 152.24C132.15 151.84 132.57 151.45 132.99 151.07C134.67 149.51 136.373 147.987 138.1 146.5L139.62 145.21L141.29 143.81L142.59 142.75L143.81 141.75C144.38 141.29 144.95 140.83 145.53 140.39C146.27 139.81 147 139.24 147.75 138.68C148.5 138.12 149.13 137.68 149.83 137.13C151.5 135.89 153.2 134.69 154.92 133.51C155.55 133.07 156.19 132.64 156.83 132.22L158.95 130.82C160.38 129.89 161.82 128.99 163.27 128.1C175.256 120.752 188.077 114.864 201.46 110.56C180.53 96.2199 145.8 82.8999 106.57 110.44C106.57 110.44 93.94 50.2499 210.5 62.0999C210.5 62.0999 196.76 15.2099 259.07 10.3999C259.07 10.3999 247.84 35.3999 270.85 56.3999C270.85 56.3999 331.85 -3.2101 387.73 61.7499C387.73 61.7499 337.73 50.4699 319.46 81.1199C319.46 81.1199 368.75 68.3299 380.88 103.3C380.88 103.3 342.79 93.6099 309.97 112.47C336.65 122.03 360.83 138.12 381.12 159.12C391.282 154.286 402.32 151.569 413.565 151.134C424.809 150.699 436.025 152.554 446.53 156.589C457.035 160.623 466.61 166.751 474.673 174.601C482.736 182.451 489.118 191.858 493.432 202.251C497.747 212.644 499.902 223.806 499.769 235.058C499.635 246.31 497.214 257.418 492.654 267.705C488.094 277.993 481.49 287.246 473.243 294.902C464.996 302.558 455.278 308.457 444.68 312.24L444.73 312.19Z" fill="#4F4F74"/>
<path d="M286.62 510.18C276.458 511.393 266.234 512.001 256 512C200.253 512.086 146.015 493.89 101.6 460.2C76.16 422.63 61 375.34 61 324C61 319.253 61.1333 314.543 61.4 309.87C42.209 301.392 26.9404 285.962 18.6659 266.683C10.3913 247.403 9.72487 225.706 16.8005 205.955C23.8762 186.204 38.169 169.866 56.8035 160.226C75.4381 150.587 97.0316 148.362 117.24 154C120.436 154.889 123.575 155.971 126.64 157.24C127.973 155.907 129.307 154.573 130.64 153.24L131.74 152.24C132.15 151.84 132.57 151.45 132.99 151.07C134.67 149.51 136.373 147.987 138.1 146.5L139.62 145.21L141.29 143.81L142.59 142.75L143.81 141.75C144.38 141.29 144.95 140.83 145.53 140.39C146.27 139.81 147 139.24 147.75 138.68C148.5 138.12 149.13 137.68 149.83 137.13C151.5 135.89 153.2 134.69 154.92 133.51C155.55 133.07 156.19 132.64 156.83 132.22L158.95 130.82C160.38 129.89 161.82 128.99 163.27 128.1C148.28 228.68 154.1 386.06 286.62 510.18Z" fill="#3E436D"/>
<path d="M397.79 415.98C406.781 415.98 414.07 408.691 414.07 399.7C414.07 390.709 406.781 383.42 397.79 383.42C388.799 383.42 381.51 390.709 381.51 399.7C381.51 408.691 388.799 415.98 397.79 415.98Z" fill="#5F5F87"/>
<path d="M411.55 380.23C417.918 380.23 423.08 375.068 423.08 368.7C423.08 362.332 417.918 357.17 411.55 357.17C405.182 357.17 400.02 362.332 400.02 368.7C400.02 375.068 405.182 380.23 411.55 380.23Z" fill="#5F5F87"/>
<path d="M95.7199 293.54C128.459 293.54 155 266.999 155 234.26C155 201.521 128.459 174.98 95.7199 174.98C62.9805 174.98 36.4399 201.521 36.4399 234.26C36.4399 266.999 62.9805 293.54 95.7199 293.54Z" fill="white"/>
<path d="M95.72 272.52C115.039 272.52 130.7 256.859 130.7 237.54C130.7 218.221 115.039 202.56 95.72 202.56C76.4011 202.56 60.74 218.221 60.74 237.54C60.74 256.859 76.4011 272.52 95.72 272.52Z" fill="#3586CB"/>
<path d="M95.3999 263.75C109.875 263.75 121.61 252.015 121.61 237.54C121.61 223.064 109.875 211.33 95.3999 211.33C80.9246 211.33 69.1899 223.064 69.1899 237.54C69.1899 252.015 80.9246 263.75 95.3999 263.75Z" fill="#27273D"/>
<path d="M111.01 227.67C115.522 227.67 119.18 224.012 119.18 219.5C119.18 214.988 115.522 211.33 111.01 211.33C106.498 211.33 102.84 214.988 102.84 219.5C102.84 224.012 106.498 227.67 111.01 227.67Z" fill="white"/>
<path d="M95.4 247.4C100.846 247.4 105.26 242.985 105.26 237.54C105.26 232.094 100.846 227.68 95.4 227.68C89.9545 227.68 85.54 232.094 85.54 237.54C85.54 242.985 89.9545 247.4 95.4 247.4Z" fill="white"/>
<path d="M418.46 293.54C451.199 293.54 477.74 266.999 477.74 234.26C477.74 201.521 451.199 174.98 418.46 174.98C385.72 174.98 359.18 201.521 359.18 234.26C359.18 266.999 385.72 293.54 418.46 293.54Z" fill="white"/>
<path d="M418.46 272.52C437.779 272.52 453.44 256.859 453.44 237.54C453.44 218.221 437.779 202.56 418.46 202.56C399.141 202.56 383.48 218.221 383.48 237.54C383.48 256.859 399.141 272.52 418.46 272.52Z" fill="#3586CB"/>
<path d="M418.14 263.75C432.615 263.75 444.35 252.015 444.35 237.54C444.35 223.064 432.615 211.33 418.14 211.33C403.665 211.33 391.93 223.064 391.93 237.54C391.93 252.015 403.665 263.75 418.14 263.75Z" fill="#27273D"/>
<path d="M433.74 227.67C438.252 227.67 441.91 224.012 441.91 219.5C441.91 214.988 438.252 211.33 433.74 211.33C429.228 211.33 425.57 214.988 425.57 219.5C425.57 224.012 429.228 227.67 433.74 227.67Z" fill="white"/>
<path d="M418.14 247.4C423.586 247.4 428 242.985 428 237.54C428 232.094 423.586 227.68 418.14 227.68C412.695 227.68 408.28 232.094 408.28 237.54C408.28 242.985 412.695 247.4 418.14 247.4Z" fill="white"/>
<path d="M337 258.56V263.56C337 284.91 328.519 305.385 313.422 320.482C298.325 335.579 277.85 344.06 256.5 344.06C235.15 344.06 214.675 335.579 199.578 320.482C184.481 305.385 176 284.91 176 263.56V258.56H337Z" fill="#27273D"/>
<path d="M300.56 330.94C287.46 339.501 272.149 344.06 256.5 344.06C240.85 344.06 225.54 339.501 212.44 330.94C225.538 322.373 240.849 317.81 256.5 317.81C272.151 317.81 287.462 322.373 300.56 330.94Z" fill="#DB1B1B"/>
<path d="M191.76 275.58C192.322 276.194 193.006 276.684 193.768 277.019C194.529 277.355 195.353 277.528 196.185 277.528C197.017 277.528 197.841 277.355 198.602 277.019C199.364 276.684 200.048 276.194 200.61 275.58L216.25 258.69L176 258.56L191.76 275.58Z" fill="white"/>
<path d="M232 275.58C232.562 276.194 233.246 276.684 234.008 277.019C234.769 277.355 235.593 277.528 236.425 277.528C237.257 277.528 238.081 277.355 238.842 277.019C239.604 276.684 240.288 276.194 240.85 275.58L256.49 258.69L216.24 258.56L232 275.58Z" fill="white"/>
<path d="M272.26 275.58C272.822 276.194 273.506 276.684 274.268 277.019C275.029 277.355 275.853 277.528 276.685 277.528C277.517 277.528 278.341 277.355 279.102 277.019C279.864 276.684 280.548 276.194 281.11 275.58L296.75 258.69L256.5 258.56L272.26 275.58Z" fill="white"/>
<path d="M296.75 258.56L312.51 275.56C313.072 276.174 313.756 276.664 314.518 276.999C315.279 277.335 316.103 277.508 316.935 277.508C317.767 277.508 318.591 277.335 319.352 276.999C320.114 276.664 320.798 276.174 321.36 275.56L337 258.69L296.75 258.56Z" fill="white"/>
</g>
<defs>
<clipPath id="clip0_809_1593">
<rect width="512" height="512" fill="white"/>
</clipPath>
</defs>
</svg>
