<svg width="512" height="512" viewBox="0 0 512 512" fill="none" xmlns="http://www.w3.org/2000/svg">
<g clip-path="url(#clip0_809_1972)">
<path d="M256 512C397.385 512 512 397.385 512 256C512 114.615 397.385 0 256 0C114.615 0 0 114.615 0 256C0 397.385 114.615 512 256 512Z" fill="#A99BD4"/>
<path d="M470.88 316.62C469.88 326.11 487.67 338.51 485.7 347.62C483.7 356.93 462.37 360.9 459.42 369.77C456.8 377.67 467.7 390.86 467.85 399.77C467.902 400.978 467.677 402.183 467.19 403.29C466.041 405.401 464.212 407.061 462 408C454.08 412 440.39 413 436.66 419.14C434.15 423.28 435.71 430.2 437.08 436.97C438.4 443.49 439.55 449.88 436.73 453.51C432.68 458.73 421.32 457.51 412.57 458.51C408.75 458.96 405.42 459.84 403.41 461.87C402.092 463.355 401.191 465.163 400.8 467.11C358.205 496.416 307.703 512.073 256 512C245.149 512.018 234.307 511.35 223.54 510C185.689 505.215 149.397 491.982 117.35 471.28L116.65 470.82C116.22 467.12 115.35 463.91 113.39 461.92C110.49 458.98 104.81 458.46 98.86 458.14C91.31 457.75 83.33 457.71 80.07 453.51C77.83 450.63 78.07 446.01 78.96 440.96C80.31 433.05 83.14 424.1 80.14 419.14C75.29 411.14 53.62 411.95 49.64 403.31C45.66 394.67 60.41 378.86 57.41 369.83C54.47 360.96 33.13 356.99 31.13 347.68C29.13 338.55 46.96 326.15 45.96 316.68C45 307.36 25 299 25 289.4C25 279.8 45 271.4 46 262.17C47 252.69 29.21 240.28 31.17 231.17C33.17 221.86 54.5 217.89 57.45 209.02C60.45 200.02 45.76 184.02 49.68 175.54C53.68 166.9 75.33 167.72 80.18 159.71C85.03 151.7 74.37 132.71 80.11 125.34C85.85 117.97 106.84 123.6 113.43 116.92C120.02 110.24 114.1 89.33 121.43 83.51C123.18 82.12 125.58 81.66 128.32 81.7C129.06 81.7 129.84 81.7 130.63 81.82C136.86 82.43 144.31 84.82 150.08 84.76C150.267 84.7702 150.453 84.7702 150.64 84.76C152.438 84.7778 154.21 84.3373 155.79 83.48C163.87 78.62 163.33 56.93 171.99 53.17C173.097 52.7114 174.294 52.513 175.49 52.59C183.68 52.9 195.25 62.59 203.26 62.35C203.906 62.3341 204.547 62.2401 205.17 62.07C214.17 59.53 219.45 38.49 228.87 37.2C229.274 37.1432 229.683 37.1265 230.09 37.15H230.2C239.13 37.69 249.31 54.74 258.42 54.74H258.85C268.07 54.2 278.35 36.84 287.29 37.16H287.5L287.96 37.21C288.138 37.2337 288.315 37.2671 288.49 37.31C297.58 39.31 302.81 59.59 311.66 62.08C320.78 64.64 336.22 49.44 344.85 53.18C352.59 56.54 352.97 74.25 358.75 81.43C359.388 82.2479 360.167 82.9455 361.05 83.49C363.75 85.11 367.65 85 371.93 84.34C380.45 83.06 390.46 79.63 395.4 83.54C402.78 89.36 396.79 110.21 403.4 116.95C410.01 123.69 430.9 117.87 436.72 125.37C442.54 132.87 431.72 151.61 436.65 159.74C441.58 167.87 463.18 166.93 467.15 175.57C471.11 184 456.42 200 459.42 209C462.37 217.87 483.7 221.83 485.7 231.15C487.7 240.27 469.88 252.68 470.88 262.15C471.88 271.42 491.88 279.82 491.88 289.38C491.88 298.94 471.85 307.36 470.88 316.62Z" fill="#FC4581"/>
<path d="M288.49 37.27C279.4 39.27 274.18 59.55 265.33 62.04C256.21 64.6 240.77 49.4 232.15 53.15C223.53 56.9 224 78.58 215.94 83.45C207.88 88.32 189.01 77.63 181.59 83.45C174.17 89.27 180.21 110.13 173.59 116.87C166.97 123.61 146.09 117.79 140.27 125.28C134.45 132.77 145.27 151.54 140.34 159.66C135.41 167.78 113.81 166.85 109.84 175.49C105.87 184.13 120.57 200 117.56 209C114.62 217.87 93.2998 221.83 91.2898 231.15C89.2898 240.28 107.11 252.68 106.11 262.15C105.11 271.41 85.1098 279.82 85.1098 289.37C85.1098 296.16 95.2098 302.37 101.39 308.71C103.92 311.3 105.8 313.91 106.08 316.59C106.184 318.786 105.664 320.967 104.58 322.88C100.49 331.13 89.6998 340.4 91.2598 347.61C93.2598 356.92 114.59 360.89 117.54 369.76C120.54 378.76 105.86 394.76 109.77 403.24C113.68 411.72 135.42 411.06 140.27 419.07C145.12 427.08 134.45 446.07 140.2 453.44C145.95 460.81 166.93 455.18 173.52 461.86C180.11 468.54 174.19 489.44 181.52 495.28C188.85 501.12 207.81 490.46 215.87 495.28C219.71 497.59 221.61 503.71 223.47 509.89C185.618 505.105 149.327 491.872 117.28 471.17C116.87 467.29 116.02 463.89 113.98 461.82C110.98 458.76 104.98 458.31 98.7398 458C91.3998 457.63 83.8098 457.46 80.6598 453.4C78.4998 450.62 78.6598 446.23 79.4598 441.4C80.7698 433.4 83.7998 424.11 80.7298 419.04C75.8698 411.04 54.1998 411.85 50.2298 403.21C46.2598 394.57 60.9998 378.76 57.9998 369.73C54.9998 360.86 33.7198 356.89 31.7198 347.58C29.7198 338.46 47.5398 326.05 46.5398 316.58C45.5398 307.32 25.5398 298.91 25.5398 289.36C25.5398 279.81 45.5398 271.36 46.5398 262.14C47.5398 252.65 29.7498 240.25 31.7198 231.14C33.7198 221.82 55.0498 217.86 57.9898 208.99C60.9898 199.99 46.3098 183.99 50.2298 175.51C54.1498 167.03 75.8698 167.69 80.7298 159.68C85.5898 151.67 74.9098 132.68 80.6598 125.3C86.4098 117.92 107.39 123.57 113.98 116.89C120.57 110.21 114.65 89.31 121.98 83.47C123.801 82.1988 125.991 81.5659 128.21 81.67C128.954 81.6541 129.698 81.6775 130.44 81.74C136.58 82.19 144.06 84.59 149.97 84.74H150.56C152.565 84.825 154.557 84.3728 156.33 83.43C164.42 78.56 163.88 56.89 172.53 53.13C173.431 52.7459 174.4 52.5453 175.38 52.54C183.38 52.33 194.95 62.07 203.15 62.3C204.016 62.3407 204.883 62.2462 205.72 62.02C214.72 59.48 220 38.44 229.41 37.15L229.98 37.1H230.09C239.09 36.79 249.32 54.1 258.53 54.68H258.96C268.07 54.68 278.24 37.63 287.18 37.09H287.39C287.764 37.0717 288.139 37.0884 288.51 37.14H288.71L288.49 37.27Z" fill="#DD3E78"/>
<path d="M417.8 281.43C417.837 320.806 403.282 358.799 376.946 388.072C350.61 417.344 314.361 435.82 275.2 439.93C271.2 440.35 267.12 440.63 263.02 440.73L260.82 440.79C249.671 440.976 238.535 439.97 227.6 437.79C223.92 437.057 220.283 436.193 216.69 435.2C209.062 433.099 201.604 430.425 194.38 427.2C172.157 417.268 152.462 402.45 136.76 383.85C112.426 355.268 99.0427 318.968 99 281.43C99 280.93 99 280.43 99 279.93C99.07 270.93 110.75 267.57 115.71 275.08C128.71 294.79 148.71 304.39 173.15 309.08C186.15 311.55 200.36 312.65 215.52 313.08C229.15 313.52 243.52 313.46 258.37 313.46C265.94 313.46 273.37 313.46 280.68 313.46C289.18 313.46 297.46 313.28 305.47 312.97C317.339 312.614 329.172 311.471 340.89 309.55C366.58 305.08 387.53 295.55 401.02 275.08C406.02 267.56 417.66 270.93 417.73 279.94C417.8 280.43 417.8 280.93 417.8 281.43Z" fill="#27273D"/>
<path d="M379.58 385C353.138 416.054 315.764 435.747 275.2 440C271.2 440.42 267.12 440.7 263.02 440.8L260.82 440.86C249.671 441.046 238.535 440.04 227.6 437.86C223.92 437.127 220.283 436.263 216.69 435.27C209.062 433.169 201.604 430.495 194.38 427.27C172.157 417.338 152.462 402.52 136.76 383.92C167.38 368.83 209.94 359.46 257 359.46C305.26 359.34 348.79 369.18 379.58 385Z" fill="#DB1B1B"/>
<path d="M427.72 217.66C437.274 217.66 445.02 209.915 445.02 200.36C445.02 190.805 437.274 183.06 427.72 183.06C418.165 183.06 410.42 190.805 410.42 200.36C410.42 209.915 418.165 217.66 427.72 217.66Z" fill="#F96B9E"/>
<path d="M404.63 184.94C411.395 184.94 416.88 179.455 416.88 172.69C416.88 165.925 411.395 160.44 404.63 160.44C397.864 160.44 392.38 165.925 392.38 172.69C392.38 179.455 397.864 184.94 404.63 184.94Z" fill="#F96B9E"/>
<path d="M258.17 289.4C313.918 289.4 359.11 244.208 359.11 188.46C359.11 132.712 313.918 87.52 258.17 87.52C202.422 87.52 157.23 132.712 157.23 188.46C157.23 244.208 202.422 289.4 258.17 289.4Z" fill="white"/>
<path d="M258.17 253.61C291.069 253.61 317.74 226.94 317.74 194.04C317.74 161.14 291.069 134.47 258.17 134.47C225.27 134.47 198.6 161.14 198.6 194.04C198.6 226.94 225.27 253.61 258.17 253.61Z" fill="#3586CB"/>
<path d="M257.62 238.67C282.268 238.67 302.25 218.688 302.25 194.04C302.25 169.392 282.268 149.41 257.62 149.41C232.972 149.41 212.99 169.392 212.99 194.04C212.99 218.688 232.972 238.67 257.62 238.67Z" fill="#27273D"/>
<path d="M284.19 177.25C291.878 177.25 298.11 171.018 298.11 163.33C298.11 155.642 291.878 149.41 284.19 149.41C276.502 149.41 270.27 155.642 270.27 163.33C270.27 171.018 276.502 177.25 284.19 177.25Z" fill="white"/>
<path d="M257.62 210.83C266.893 210.83 274.41 203.313 274.41 194.04C274.41 184.767 266.893 177.25 257.62 177.25C248.347 177.25 240.83 184.767 240.83 194.04C240.83 203.313 248.347 210.83 257.62 210.83Z" fill="white"/>
<path d="M215.57 313.11V331.3C215.57 333.457 215.068 335.585 214.104 337.515C213.14 339.445 211.741 341.124 210.016 342.42C208.291 343.716 206.289 344.593 204.167 344.981C202.045 345.37 199.862 345.26 197.79 344.66L183.22 340.43C180.333 339.589 177.797 337.834 175.994 335.429C174.191 333.023 173.217 330.097 173.22 327.09V309.09C186.18 311.54 200.41 312.64 215.57 313.11Z" fill="#F6D372"/>
<path d="M317.57 418.89V429.47C303.997 434.896 289.738 438.416 275.2 439.93V414.66C275.199 412.501 275.7 410.371 276.666 408.439C277.631 406.507 279.032 404.827 280.76 403.532C282.487 402.236 284.493 401.361 286.618 400.975C288.742 400.589 290.927 400.704 293 401.31L307.57 405.53C310.457 406.376 312.993 408.135 314.796 410.544C316.599 412.953 317.572 415.881 317.57 418.89Z" fill="#F6D372"/>
<path d="M280.73 313.46V332.46C280.775 333.953 280.519 335.44 279.979 336.832C279.438 338.225 278.624 339.494 277.584 340.566C276.543 341.638 275.298 342.49 273.923 343.072C272.547 343.654 271.069 343.954 269.575 343.954C268.081 343.954 266.603 343.654 265.227 343.072C263.852 342.49 262.607 341.638 261.566 340.566C260.526 339.494 259.712 338.225 259.171 336.832C258.631 335.44 258.375 333.953 258.42 332.46V313.49C266 313.49 273.44 313.51 280.73 313.46Z" fill="#F6D372"/>
<path d="M216.69 408.4V435.16C209.062 433.059 201.604 430.385 194.38 427.16V408.4C194.335 406.907 194.591 405.42 195.131 404.028C195.672 402.635 196.486 401.366 197.526 400.294C198.567 399.222 199.812 398.37 201.187 397.788C202.563 397.206 204.041 396.906 205.535 396.906C207.029 396.906 208.507 397.206 209.883 397.788C211.258 398.37 212.503 399.222 213.544 400.294C214.584 401.366 215.398 402.635 215.939 404.028C216.479 405.42 216.735 406.907 216.69 408.4Z" fill="#F6D372"/>
<path d="M340.94 309.55V317.91C340.94 320.634 339.858 323.246 337.932 325.172C336.006 327.098 333.394 328.18 330.67 328.18H315.79C313.066 328.18 310.454 327.098 308.528 325.172C306.602 323.246 305.52 320.634 305.52 317.91V313C317.39 312.634 329.223 311.482 340.94 309.55Z" fill="#F6D372"/>
<path d="M263 429.3V440.73L260.8 440.79C249.651 440.976 238.515 439.97 227.58 437.79V429.3C227.576 427.946 227.84 426.605 228.356 425.354C228.872 424.102 229.631 422.965 230.588 422.008C231.545 421.051 232.682 420.292 233.934 419.776C235.185 419.26 236.526 418.996 237.88 419H252.75C254.099 419.003 255.435 419.271 256.681 419.79C257.927 420.31 259.058 421.069 260.01 422.026C260.961 422.982 261.716 424.117 262.229 425.365C262.742 426.613 263.004 427.951 263 429.3Z" fill="#F6D372"/>
<path d="M157.23 104.7C156.436 104.697 155.652 104.516 154.937 104.17C154.222 103.824 153.594 103.322 153.1 102.7C152.76 102.28 118.1 60.31 73.0998 59.15C72.4025 59.1322 71.7155 58.9773 71.078 58.6941C70.4406 58.4109 69.8652 58.0049 69.3846 57.4993C68.9041 56.9936 68.5278 56.3983 68.2773 55.7473C68.0269 55.0963 67.9071 54.4023 67.9248 53.705C67.9425 53.0077 68.0974 52.3207 68.3807 51.6832C68.6639 51.0457 69.0699 50.4703 69.5755 49.9898C70.0811 49.5092 70.6765 49.133 71.3275 48.8825C71.9785 48.632 72.6725 48.5122 73.3698 48.53C123.37 49.82 159.88 94.12 161.37 96.01C162.253 97.1062 162.667 98.508 162.518 99.9082C162.37 101.308 161.673 102.593 160.58 103.48C159.639 104.264 158.454 104.696 157.23 104.7Z" fill="#AD325E"/>
<path d="M86.6271 55.9219C87.5233 47.4807 73.0457 39.0237 54.2906 37.0326C35.5354 35.0415 19.6049 40.2703 18.7088 48.7115C17.8126 57.1527 32.2902 65.6097 51.0453 67.6008C69.8005 69.5919 85.731 64.3631 86.6271 55.9219Z" fill="#00B564"/>
<path d="M348.52 104.69C347.508 104.701 346.514 104.422 345.656 103.886C344.798 103.35 344.111 102.579 343.677 101.665C343.242 100.751 343.079 99.7324 343.205 98.7285C343.331 97.7245 343.743 96.7778 344.39 96C345.92 94.11 382.39 49.81 432.39 48.52C433.798 48.4829 435.163 49.0067 436.186 49.9763C437.208 50.9459 437.803 52.2817 437.84 53.69C437.877 55.0983 437.353 56.4637 436.384 57.4858C435.414 58.5078 434.078 59.1029 432.67 59.14C387.59 60.3 352.96 102.27 352.61 102.69C352.119 103.306 351.498 103.806 350.79 104.152C350.083 104.498 349.307 104.681 348.52 104.69Z" fill="#AD325E"/>
<path d="M454.693 67.6013C473.448 65.6102 487.926 57.1531 487.03 48.7119C486.134 40.2708 470.203 35.0419 451.448 37.033C432.693 39.0241 418.215 47.4812 419.111 55.9224C420.008 64.3635 435.938 69.5924 454.693 67.6013Z" fill="#00B564"/>
</g>
<defs>
<clipPath id="clip0_809_1972">
<rect width="512" height="512" fill="white"/>
</clipPath>
</defs>
</svg>
