<svg width="512" height="512" viewBox="0 0 512 512" fill="none" xmlns="http://www.w3.org/2000/svg">
<g clip-path="url(#clip0_809_2094)">
<path d="M256 512C397.385 512 512 397.385 512 256C512 114.615 397.385 0 256 0C114.615 0 0 114.615 0 256C0 397.385 114.615 512 256 512Z" fill="#F55B4B"/>
<path d="M290.19 377.49V509.73C265.972 512.958 241.418 512.742 217.26 509.09V377.49H290.19Z" fill="#A4C165"/>
<path d="M290.57 377.49H217.64V411.99H290.57V377.49Z" fill="#94AA57"/>
<path d="M503.5 195.72C497 124.79 450.42 137.8 450.42 137.8C451.34 122.89 479.13 107.42 479.13 107.42C438.5 104.42 422.26 121.68 422.26 121.68L426.59 95.3201C385.59 102.87 380.96 137.56 380.84 151.85H130.84C130.72 137.56 126.12 102.85 85.0902 95.3201L89.4202 121.68C89.4202 121.68 73.1802 104.37 32.5502 107.42C32.5502 107.42 60.3402 122.89 61.2602 137.8C61.2602 137.8 14.6802 124.8 8.18018 195.72L27.6802 180.58C27.6802 180.58 5.47018 229.09 19.0102 266.82C19.0102 266.82 30.4302 214.98 58.5502 210.31V344.17C58.5502 349.115 59.5248 354.012 61.4184 358.58C63.312 363.148 66.0874 367.298 69.5859 370.793C73.0844 374.287 77.2374 377.058 81.8075 378.947C86.3776 380.836 91.2752 381.805 96.2202 381.8H412C421.98 381.8 431.552 377.836 438.609 370.779C445.666 363.721 449.63 354.15 449.63 344.17V210C480.32 210.7 492.68 266.83 492.68 266.83C506.22 229.1 484.01 180.59 484.01 180.59L503.5 195.72Z" fill="#B0D46C"/>
<path d="M85.1303 119.52L89.4603 145.87C89.4603 145.87 80.7303 136.57 60.0603 132.8C54.5103 119.63 32.5903 107.42 32.5903 107.42C65.3403 104.96 82.2503 115.74 87.5903 120.01C86.7603 119.84 86.0003 119.67 85.1303 119.52Z" fill="#C8E589"/>
<path d="M422.48 120.4C398.28 126.28 388 142.19 383.73 156.4C382.088 162.036 378.671 166.992 373.986 170.53C369.302 174.069 363.601 176.001 357.73 176.04H154C148.13 175.999 142.43 174.067 137.746 170.528C133.062 166.99 129.644 162.035 128 156.4C123.74 142.19 113.45 126.28 89.2604 120.4L85.1304 95.3201C126.13 102.87 130.76 137.56 130.88 151.85H380.88C381 137.56 385.6 102.85 426.63 95.3201L422.48 120.4Z" fill="#C8E589"/>
<path d="M479.13 107.42C479.13 107.42 457.21 119.63 451.66 132.8C430.99 136.57 422.26 145.87 422.26 145.87L426.59 119.52C425.77 119.67 424.96 119.84 424.15 120.01C429.47 115.74 446.38 105 479.13 107.42Z" fill="#C8E589"/>
<path d="M254.11 303.63C291.787 303.63 322.33 273.087 322.33 235.41C322.33 197.733 291.787 167.19 254.11 167.19C216.433 167.19 185.89 197.733 185.89 235.41C185.89 273.087 216.433 303.63 254.11 303.63Z" fill="#A4C165"/>
<path d="M371.66 314.85C398.187 314.85 419.69 293.346 419.69 266.82C419.69 240.294 398.187 218.79 371.66 218.79C345.134 218.79 323.63 240.294 323.63 266.82C323.63 293.346 345.134 314.85 371.66 314.85Z" fill="#A4C165"/>
<path d="M136.72 314.85C163.246 314.85 184.75 293.346 184.75 266.82C184.75 240.294 163.246 218.79 136.72 218.79C110.194 218.79 88.6899 240.294 88.6899 266.82C88.6899 293.346 110.194 314.85 136.72 314.85Z" fill="#A4C165"/>
<path d="M254.11 292.8C285.806 292.8 311.5 267.106 311.5 235.41C311.5 203.714 285.806 178.02 254.11 178.02C222.415 178.02 196.72 203.714 196.72 235.41C196.72 267.106 222.415 292.8 254.11 292.8Z" fill="white"/>
<path d="M254.11 258.57C265.476 258.57 274.69 249.356 274.69 237.99C274.69 226.624 265.476 217.41 254.11 217.41C242.744 217.41 233.53 226.624 233.53 237.99C233.53 249.356 242.744 258.57 254.11 258.57Z" fill="#3586CB"/>
<path d="M253.92 253.41C262.436 253.41 269.34 246.506 269.34 237.99C269.34 229.474 262.436 222.57 253.92 222.57C245.404 222.57 238.5 229.474 238.5 237.99C238.5 246.506 245.404 253.41 253.92 253.41Z" fill="#27273D"/>
<path d="M263.1 232.19C265.757 232.19 267.91 230.037 267.91 227.38C267.91 224.724 265.757 222.57 263.1 222.57C260.444 222.57 258.29 224.724 258.29 227.38C258.29 230.037 260.444 232.19 263.1 232.19Z" fill="white"/>
<path d="M253.92 243.79C257.123 243.79 259.72 241.193 259.72 237.99C259.72 234.787 257.123 232.19 253.92 232.19C250.717 232.19 248.12 234.787 248.12 237.99C248.12 241.193 250.717 243.79 253.92 243.79Z" fill="white"/>
<path d="M371.66 301.08C391.343 301.08 407.3 285.123 407.3 265.44C407.3 245.757 391.343 229.8 371.66 229.8C351.977 229.8 336.02 245.757 336.02 265.44C336.02 285.123 351.977 301.08 371.66 301.08Z" fill="white"/>
<path d="M371.66 279.82C378.719 279.82 384.44 274.098 384.44 267.04C384.44 259.982 378.719 254.26 371.66 254.26C364.602 254.26 358.88 259.982 358.88 267.04C358.88 274.098 364.602 279.82 371.66 279.82Z" fill="#3586CB"/>
<path d="M371.54 276.62C376.831 276.62 381.12 272.331 381.12 267.04C381.12 261.749 376.831 257.46 371.54 257.46C366.249 257.46 361.96 261.749 361.96 267.04C361.96 272.331 366.249 276.62 371.54 276.62Z" fill="#27273D"/>
<path d="M377.24 263.44C378.891 263.44 380.23 262.101 380.23 260.45C380.23 258.799 378.891 257.46 377.24 257.46C375.589 257.46 374.25 258.799 374.25 260.45C374.25 262.101 375.589 263.44 377.24 263.44Z" fill="white"/>
<path d="M371.54 270.64C373.529 270.64 375.14 269.028 375.14 267.04C375.14 265.052 373.529 263.44 371.54 263.44C369.552 263.44 367.94 265.052 367.94 267.04C367.94 269.028 369.552 270.64 371.54 270.64Z" fill="white"/>
<path d="M136.83 301.08C156.513 301.08 172.47 285.123 172.47 265.44C172.47 245.757 156.513 229.8 136.83 229.8C117.147 229.8 101.19 245.757 101.19 265.44C101.19 285.123 117.147 301.08 136.83 301.08Z" fill="white"/>
<path d="M136.83 279.82C143.888 279.82 149.61 274.098 149.61 267.04C149.61 259.982 143.888 254.26 136.83 254.26C129.772 254.26 124.05 259.982 124.05 267.04C124.05 274.098 129.772 279.82 136.83 279.82Z" fill="#3586CB"/>
<path d="M136.72 276.62C142.011 276.62 146.3 272.331 146.3 267.04C146.3 261.749 142.011 257.46 136.72 257.46C131.429 257.46 127.14 261.749 127.14 267.04C127.14 272.331 131.429 276.62 136.72 276.62Z" fill="#27273D"/>
<path d="M142.42 263.44C144.072 263.44 145.41 262.101 145.41 260.45C145.41 258.799 144.072 257.46 142.42 257.46C140.769 257.46 139.43 258.799 139.43 260.45C139.43 262.101 140.769 263.44 142.42 263.44Z" fill="white"/>
<path d="M136.72 270.64C138.708 270.64 140.32 269.028 140.32 267.04C140.32 265.052 138.708 263.44 136.72 263.44C134.732 263.44 133.12 265.052 133.12 267.04C133.12 269.028 134.732 270.64 136.72 270.64Z" fill="white"/>
<path d="M301.67 324.36C301.67 324.98 301.67 325.61 301.67 326.22C301.163 338.689 295.797 350.463 286.718 359.025C277.64 367.587 265.571 372.255 253.095 372.032C240.618 371.808 228.724 366.711 219.958 357.829C211.192 348.948 206.251 336.989 206.19 324.51V324.35C206.212 323.375 206.541 322.432 207.13 321.656C207.72 320.88 208.54 320.31 209.474 320.028C210.407 319.746 211.405 319.767 212.326 320.087C213.247 320.407 214.043 321.01 214.6 321.81C215.498 323.119 216.463 324.381 217.49 325.59C223.766 333.023 232.165 338.358 241.56 340.88C244.08 341.558 246.653 342.023 249.25 342.27C250.812 342.431 252.381 342.511 253.95 342.51C261.694 342.502 269.319 340.614 276.171 337.008C283.024 333.402 288.898 328.187 293.29 321.81C293.852 321.022 294.648 320.43 295.564 320.118C296.48 319.807 297.471 319.79 298.397 320.072C299.323 320.354 300.137 320.919 300.725 321.689C301.312 322.458 301.643 323.393 301.67 324.36Z" fill="#27273D"/>
<path d="M241.53 340.88C239.28 347.56 235.07 352.05 230.28 352.05C223.08 352.05 217.28 341.99 217.28 329.57C217.274 328.234 217.341 326.899 217.48 325.57C223.748 333.007 232.14 338.349 241.53 340.88Z" fill="white"/>
<path d="M267.62 346.05C267.62 354.94 263.44 362.15 258.29 362.15C253.14 362.15 248.96 354.94 248.96 346.05C248.959 344.786 249.046 343.523 249.22 342.27C250.781 342.431 252.35 342.511 253.92 342.51C258.375 342.517 262.809 341.894 267.09 340.66C267.449 342.434 267.627 344.24 267.62 346.05Z" fill="white"/>
<path d="M290.19 337.92C290.19 344.57 287.06 349.97 283.19 349.97C279.32 349.97 276.19 344.57 276.19 337.92C276.19 337.6 276.19 337.28 276.19 336.97C280.373 334.754 284.202 331.926 287.55 328.58C289.348 331.358 290.268 334.612 290.19 337.92Z" fill="white"/>
<path d="M181.14 381.8H96.2203C86.2402 381.8 76.6689 377.835 69.6119 370.778C62.5549 363.721 58.5903 354.15 58.5903 344.17V341.17L80.1003 333.04C83.4347 331.777 87.1066 331.723 90.4762 332.889C93.8459 334.055 96.6997 336.366 98.5403 339.42L108.6 356.12L113.65 351.56C115.302 350.066 117.26 348.953 119.388 348.298C121.516 347.643 123.762 347.463 125.967 347.77C128.172 348.077 130.283 348.864 132.152 350.075C134.02 351.286 135.6 352.892 136.78 354.78L149.62 375.29C149.62 375.29 164.93 359.41 167.81 362.29C169.31 363.83 175.53 373.19 181.14 381.8Z" fill="#41C0E3"/>
<path d="M449.62 341.43V344.17C449.62 354.148 445.657 363.718 438.602 370.775C431.547 377.832 421.978 381.797 412 381.8H326.46C332.06 373.19 338.28 363.8 339.79 362.32C342.68 359.44 357.98 375.32 357.98 375.32L370.82 354.81C372 352.915 373.582 351.302 375.454 350.085C377.326 348.869 379.443 348.079 381.654 347.771C383.865 347.463 386.117 347.644 388.251 348.302C390.384 348.961 392.347 350.079 394 351.58L399.05 356.15L409.1 339.46C410.938 336.403 413.791 334.088 417.161 332.921C420.531 331.753 424.205 331.806 427.54 333.07L449.62 341.43Z" fill="#41C0E3"/>
<path d="M254.11 328.86C267.89 328.86 279.06 324.705 279.06 319.58C279.06 314.455 267.89 310.3 254.11 310.3C240.331 310.3 229.16 314.455 229.16 319.58C229.16 324.705 240.331 328.86 254.11 328.86Z" fill="#DB1B1B"/>
</g>
<defs>
<clipPath id="clip0_809_2094">
<rect width="512" height="512" fill="white"/>
</clipPath>
</defs>
</svg>
