<svg width="512" height="512" viewBox="0 0 512 512" fill="none" xmlns="http://www.w3.org/2000/svg">
<g clip-path="url(#clip0_809_1617)">
<path d="M256 512C397.385 512 512 397.385 512 256C512 114.615 397.385 0 256 0C114.615 0 0 114.615 0 256C0 397.385 114.615 512 256 512Z" fill="#7CC8FB"/>
<path d="M441.6 330.49C451.031 366.764 448.434 405.119 434.2 439.79C386.487 486.174 322.543 512.085 256 512C252.24 512 248.5 511.917 244.78 511.75C178.625 508.926 116.156 480.506 70.5599 432.49C61.7612 407.934 58.6231 381.708 61.38 355.77C61.5933 353.77 61.84 351.77 62.12 349.77C62.26 348.77 62.41 347.77 62.57 346.77C62.8766 344.77 63.21 342.81 63.57 340.89C64.5166 335.997 65.6733 331.18 67.04 326.44C36 287.05 41.09 238.35 50.52 205C53.23 195.39 66.3599 194.57 70.5199 203.66C71.1099 204.94 71.73 206.2 72.39 207.43C73.39 209.28 74.4499 211.06 75.5899 212.79C76.3499 213.95 77.1399 215.08 77.9599 216.18C79.1933 217.84 80.4799 219.44 81.82 220.98C82.72 221.98 83.64 222.98 84.58 223.98C93.97 233.79 105.37 241.18 115.66 246.52C131.877 230.952 150.677 218.32 171.22 209.19C170.247 208.09 169.303 206.973 168.39 205.84C167.93 205.27 167.47 204.7 167.02 204.12C166.12 202.96 165.243 201.787 164.39 200.6C152.508 184.076 145.471 164.565 144.07 144.26C141.58 143.736 139.123 143.069 136.71 142.26C132.481 140.814 128.405 138.955 124.54 136.71C123.507 136.11 122.507 135.49 121.54 134.85C117.022 131.898 112.811 128.501 108.97 124.71C107.637 123.377 106.357 122.043 105.13 120.71C104.36 119.88 103.62 119.03 102.9 118.18C102.43 117.63 101.97 117.06 101.51 116.5C100.6 115.38 99.72 114.24 98.87 113.11C96.75 110.27 94.8699 107.41 93.0899 104.6C92.0499 102.92 91.0733 101.253 90.16 99.6C89.5067 98.4201 89.2331 97.0675 89.3762 95.7264C89.5194 94.3854 90.0724 93.121 90.96 92.1056C91.8475 91.0901 93.0265 90.3729 94.3363 90.0516C95.6462 89.7303 97.0232 89.8205 98.2799 90.31C123.42 99.7 156.28 83.05 157.38 83.63C157.77 82.91 158.18 82.2 158.59 81.49C158.67 81.35 158.75 81.2 158.84 81.06C159.26 80.34 159.69 79.63 160.12 78.92C160.55 78.21 160.86 77.74 161.24 77.15C161.48 76.77 161.72 76.39 161.98 76.02C163.913 73.0933 165.98 70.2633 168.18 67.53C169.18 66.2833 170.213 65.06 171.28 63.86L171.73 63.34C172.27 62.74 172.81 62.14 173.36 61.55C173.91 60.96 174.61 60.23 175.25 59.55C175.89 58.87 176.43 58.35 177.04 57.76L177.18 57.63C177.83 56.99 178.49 56.37 179.18 55.75C179.87 55.13 180.4 54.63 181.03 54.07L181.26 53.87C182.6 52.68 183.98 51.53 185.38 50.42C186.09 49.85 186.81 49.3 187.54 48.75C188.987 47.6433 190.463 46.58 191.97 45.56C192.72 45.05 193.48 44.56 194.25 44.05C195.02 43.54 195.79 43.05 196.57 42.59C197.35 42.13 198.13 41.65 198.92 41.19C199.71 40.73 200.51 40.29 201.32 39.85C202.13 39.41 202.93 38.98 203.75 38.56L206.21 37.34C207.04 36.94 207.88 36.55 208.72 36.17L211.25 35.07C212.1 34.71 212.95 34.37 213.82 34.07C214.69 33.77 215.54 33.41 216.41 33.07C218.15 32.43 219.92 31.84 221.7 31.31C222.59 31.04 223.49 30.78 224.39 30.53C248.128 23.941 273.39 25.511 296.13 34.9886C318.869 44.4662 337.768 61.3026 349.8 82.8C350.43 82.52 382.12 99.67 407.27 90.28C408.527 89.7905 409.904 89.7003 411.214 90.0216C412.523 90.3429 413.702 91.0601 414.59 92.0756C415.478 93.091 416.031 94.3554 416.174 95.6964C416.317 97.0375 416.043 98.3901 415.39 99.57C405.93 116.47 389.39 137.29 363.54 143.74C361.985 167.96 352.424 190.977 336.36 209.17C357.557 218.598 376.893 231.749 393.45 248C410.45 239.61 431.57 225.4 441.45 203.65C445.6 194.56 458.73 195.38 461.45 204.99C471.23 239.49 476.33 290.42 441.6 330.49Z" fill="#F58D89"/>
<path d="M195.24 403.29C207.32 444.29 224.24 481.07 244.78 511.75C178.625 508.926 116.156 480.506 70.5601 432.49C63.839 413.743 60.4085 393.975 60.4201 374.06C60.4351 367.95 60.7688 361.845 61.4201 355.77C61.6301 353.77 61.8801 351.77 62.1601 349.77C62.3001 348.77 62.4501 347.77 62.6101 346.77C62.9301 344.77 63.2701 342.84 63.6101 340.89C64.5567 335.997 65.7134 331.18 67.0801 326.44C36.0001 287.05 41.0901 238.35 50.5201 205C53.2301 195.39 66.3601 194.57 70.5201 203.66C71.1101 204.94 71.7301 206.2 72.3901 207.43C73.3901 209.28 74.4501 211.06 75.5901 212.79C76.3501 213.95 77.1401 215.08 77.9601 216.18C79.1934 217.84 80.4801 219.44 81.8201 220.98C82.7201 221.98 83.6401 222.98 84.5801 223.98C93.9701 233.79 105.37 241.18 115.66 246.52C131.877 230.952 150.677 218.32 171.22 209.19C170.22 208.09 169.31 206.97 168.38 205.84C167.92 205.27 167.46 204.7 167.01 204.12C166.11 202.96 165.233 201.787 164.38 200.6C152.498 184.076 145.461 164.565 144.06 144.26C141.57 143.736 139.113 143.069 136.7 142.26C132.469 140.818 128.393 138.959 124.53 136.71C123.497 136.11 122.497 135.49 121.53 134.85C117.008 131.904 112.796 128.507 108.96 124.71C107.627 123.377 106.347 122.043 105.12 120.71C104.35 119.88 103.61 119.03 102.89 118.18C102.42 117.63 101.96 117.06 101.5 116.5C100.59 115.38 99.7101 114.24 98.8601 113.11C96.7401 110.27 94.8601 107.41 93.0801 104.6C92.0401 102.92 91.0634 101.253 90.1501 99.6C89.4968 98.4201 89.2232 97.0675 89.3663 95.7265C89.5095 94.3854 90.0625 93.1211 90.9501 92.1056C91.8376 91.0902 93.0166 90.3729 94.3265 90.0516C95.6363 89.7303 97.0133 89.8206 98.2701 90.31C123.41 99.7 156.27 83.05 157.37 83.63C157.76 82.91 158.17 82.2 158.58 81.49C158.66 81.35 158.74 81.2 158.83 81.06C159.25 80.34 159.68 79.63 160.11 78.92C160.54 78.21 160.85 77.74 161.23 77.15C161.47 76.77 161.71 76.39 161.97 76.02C163.903 73.0934 165.97 70.2634 168.17 67.53C169.17 66.2834 170.203 65.06 171.27 63.86L171.72 63.34C172.26 62.74 172.8 62.14 173.35 61.55C173.9 60.96 174.6 60.23 175.24 59.55C175.88 58.87 176.42 58.35 177.03 57.76L177.17 57.63C177.82 56.99 178.48 56.37 179.17 55.75C179.86 55.13 180.39 54.63 181.02 54.07L181.25 53.87C182.59 52.69 183.97 51.54 185.37 50.42C186.08 49.85 186.8 49.3 187.53 48.75C188.977 47.65 190.453 46.5867 191.96 45.56C192.71 45.05 193.47 44.56 194.24 44.05C195.01 43.54 195.78 43.05 196.56 42.59C197.34 42.13 198.12 41.65 198.91 41.19C199.7 40.73 200.5 40.29 201.31 39.85C202.12 39.41 202.92 38.98 203.74 38.56L206.2 37.34C207.03 36.94 207.87 36.55 208.71 36.17L211.24 35.07C212.09 34.71 212.94 34.37 213.81 34.07C214.68 33.77 215.53 33.41 216.4 33.07C218.153 32.4434 219.917 31.8567 221.69 31.31C222.58 31.04 223.48 30.78 224.38 30.53C210.997 56.9445 200.38 84.6719 192.7 113.27C188.773 127.67 185.44 142.55 182.7 157.91C178.194 183.463 175.52 209.306 174.7 235.24C174.5 241.353 174.4 247.507 174.4 253.7C174.4 256.09 174.4 258.47 174.45 260.85C174.53 267.33 174.72 273.77 175.02 280.17C175.207 284.297 175.443 288.41 175.73 292.51C177.179 313.868 179.907 335.119 183.9 356.15C184.94 361.65 186.07 367.097 187.29 372.49C188.297 377.017 189.37 381.503 190.51 385.95C191.977 391.81 193.553 397.59 195.24 403.29Z" fill="#E28181"/>
<path d="M170.15 113.25C170.15 136.019 179.195 157.855 195.295 173.955C211.395 190.055 233.231 199.1 256 199.1C278.769 199.1 300.605 190.055 316.705 173.955C332.805 157.855 341.85 136.019 341.85 113.25H170.15Z" fill="white"/>
<path d="M205.33 118C205.33 131.439 210.669 144.327 220.171 153.829C229.673 163.332 242.562 168.67 256 168.67C269.439 168.67 282.327 163.332 291.829 153.829C301.332 144.327 306.67 131.439 306.67 118H205.33Z" fill="#3586CB"/>
<path d="M217.58 118C218.029 127.766 222.224 136.984 229.294 143.736C236.363 150.489 245.764 154.257 255.54 154.257C265.317 154.257 274.717 150.489 281.787 143.736C288.856 136.984 293.052 127.766 293.5 118H217.58Z" fill="#27273D"/>
<path d="M241.26 118C241.26 121.787 242.764 125.419 245.442 128.097C248.12 130.776 251.752 132.28 255.54 132.28C259.327 132.28 262.959 130.776 265.637 128.097C268.315 125.419 269.82 121.787 269.82 118H241.26Z" fill="white"/>
<path d="M228.79 394.17C229.25 395.45 242.22 425.47 250.08 443.66C250.576 444.718 251.371 445.608 252.366 446.221C253.361 446.835 254.513 447.144 255.682 447.111C256.85 447.078 257.983 446.704 258.942 446.036C259.901 445.368 260.644 444.434 261.08 443.35L280 391.69L228.79 394.17Z" fill="white"/>
<path d="M296.08 386.88C297.08 387.83 321.71 409.31 336.66 422.32C337.556 423.103 338.667 423.599 339.848 423.743C341.029 423.887 342.226 423.673 343.285 423.129C344.343 422.585 345.213 421.735 345.783 420.691C346.353 419.646 346.596 418.454 346.48 417.27L341.24 362.51L296.08 386.88Z" fill="white"/>
<path d="M344.87 349.4C346.19 349.71 378.42 355.29 397.95 358.67C399.116 358.847 400.308 358.676 401.377 358.179C402.446 357.682 403.345 356.881 403.962 355.876C404.578 354.871 404.885 353.706 404.844 352.528C404.803 351.35 404.415 350.21 403.73 349.25L370.86 305.14L344.87 349.4Z" fill="white"/>
<path d="M214 386.88C213 387.83 188.36 409.31 173.42 422.32C172.515 423.076 171.408 423.548 170.236 423.678C169.064 423.809 167.88 423.591 166.832 423.052C165.783 422.513 164.916 421.678 164.34 420.649C163.763 419.621 163.503 418.446 163.59 417.27L168.83 362.51L214 386.88Z" fill="white"/>
<path d="M165.17 349.4C163.85 349.71 131.62 355.29 112.09 358.67C110.924 358.847 109.732 358.676 108.663 358.179C107.594 357.682 106.695 356.881 106.078 355.876C105.462 354.871 105.155 353.706 105.196 352.528C105.237 351.35 105.625 350.21 106.31 349.25L139.19 305.14L165.17 349.4Z" fill="white"/>
<path d="M256 404.17C222.329 404.133 190.047 390.741 166.238 366.932C142.429 343.122 129.037 310.841 129 277.17C129 274.518 130.054 271.974 131.929 270.099C133.804 268.223 136.348 267.17 139 267.17C141.652 267.17 144.196 268.223 146.071 270.099C147.946 271.974 149 274.518 149 277.17C149 305.548 160.273 332.764 180.34 352.83C200.406 372.897 227.622 384.17 256 384.17C284.378 384.17 311.594 372.897 331.66 352.83C351.727 332.764 363 305.548 363 277.17C363 274.518 364.054 271.974 365.929 270.099C367.804 268.223 370.348 267.17 373 267.17C375.652 267.17 378.196 268.223 380.071 270.099C381.946 271.974 383 274.518 383 277.17C382.963 310.841 369.571 343.122 345.762 366.932C321.953 390.741 289.671 404.133 256 404.17Z" fill="#D67676"/>
<path d="M316.28 100.07C325.271 100.07 332.56 92.7812 332.56 83.79C332.56 74.7988 325.271 67.51 316.28 67.51C307.289 67.51 300 74.7988 300 83.79C300 92.7812 307.289 100.07 316.28 100.07Z" fill="#FAB3A7"/>
<path d="M292.3 71.34C298.668 71.34 303.83 66.1779 303.83 59.81C303.83 53.4422 298.668 48.28 292.3 48.28C285.932 48.28 280.77 53.4422 280.77 59.81C280.77 66.1779 285.932 71.34 292.3 71.34Z" fill="#FAB3A7"/>
<path d="M174.41 260.83C181.485 260.83 187.22 255.095 187.22 248.02C187.22 240.945 181.485 235.21 174.41 235.21C167.335 235.21 161.6 240.945 161.6 248.02C161.6 255.095 167.335 260.83 174.41 260.83Z" fill="#CD88F8"/>
<path d="M201.16 296.99C205.496 296.99 209.01 293.475 209.01 289.14C209.01 284.805 205.496 281.29 201.16 281.29C196.825 281.29 193.31 284.805 193.31 289.14C193.31 293.475 196.825 296.99 201.16 296.99Z" fill="#CD88F8"/>
<path d="M172.14 293.48C175.989 293.48 179.11 290.359 179.11 286.51C179.11 282.661 175.989 279.54 172.14 279.54C168.29 279.54 165.17 282.661 165.17 286.51C165.17 290.359 168.29 293.48 172.14 293.48Z" fill="#CD88F8"/>
<path d="M194.19 270.81C198.039 270.81 201.16 267.69 201.16 263.84C201.16 259.991 198.039 256.87 194.19 256.87C190.34 256.87 187.22 259.991 187.22 263.84C187.22 267.69 190.34 270.81 194.19 270.81Z" fill="#CD88F8"/>
<path d="M343.46 260.83C350.535 260.83 356.27 255.095 356.27 248.02C356.27 240.945 350.535 235.21 343.46 235.21C336.385 235.21 330.65 240.945 330.65 248.02C330.65 255.095 336.385 260.83 343.46 260.83Z" fill="#CD88F8"/>
<path d="M316.71 296.99C321.045 296.99 324.56 293.475 324.56 289.14C324.56 284.805 321.045 281.29 316.71 281.29C312.374 281.29 308.86 284.805 308.86 289.14C308.86 293.475 312.374 296.99 316.71 296.99Z" fill="#CD88F8"/>
<path d="M345.73 293.48C349.579 293.48 352.7 290.359 352.7 286.51C352.7 282.661 349.579 279.54 345.73 279.54C341.88 279.54 338.76 282.661 338.76 286.51C338.76 290.359 341.88 293.48 345.73 293.48Z" fill="#CD88F8"/>
<path d="M323.68 270.81C327.529 270.81 330.65 267.69 330.65 263.84C330.65 259.991 327.529 256.87 323.68 256.87C319.831 256.87 316.71 259.991 316.71 263.84C316.71 267.69 319.831 270.81 323.68 270.81Z" fill="#CD88F8"/>
</g>
<defs>
<clipPath id="clip0_809_1617">
<rect width="512" height="512" fill="white"/>
</clipPath>
</defs>
</svg>
