<svg width="512" height="512" viewBox="0 0 512 512" fill="none" xmlns="http://www.w3.org/2000/svg">
<g clip-path="url(#clip0_809_1237)">
<path d="M256 512C397.385 512 512 397.385 512 256C512 114.615 397.385 0 256 0C114.615 0 0 114.615 0 256C0 397.385 114.615 512 256 512Z" fill="#3586CB"/>
<path d="M441.38 157.41C441.369 171.124 436.704 184.429 428.148 195.147C419.592 205.865 407.651 213.362 394.28 216.41V471.41C349.43 500.24 296.69 514.331 243.438 511.712C190.185 509.092 139.083 489.893 97.2797 456.8V213.47C97.2674 197.824 99.7313 182.275 104.58 167.4C103.193 166.433 101.833 165.433 100.5 164.4C98.8397 163.067 97.2297 161.693 95.6697 160.28C94.7397 159.43 93.8197 158.55 92.9297 157.65C92.3297 157.05 91.7397 156.44 91.1597 155.83C90.5797 155.22 89.7897 154.35 89.1597 153.59C88.6997 153.08 88.2597 152.59 87.8197 152.03C87.3797 151.47 86.7397 150.73 86.2197 150.03C85.6997 149.33 85.2197 148.69 84.6797 148.03C83.573 146.537 82.513 145.007 81.4997 143.44C81.1297 142.87 80.7597 142.29 80.4097 141.7C80.0597 141.11 79.6597 140.47 79.3097 139.85C79.1564 139.61 79.0164 139.36 78.8897 139.1C78.5297 138.5 78.1997 137.88 77.8897 137.27C71.2626 124.836 67.8071 110.959 67.8297 96.8699C67.8297 96.1899 67.8297 95.5099 67.8297 94.8699C67.8297 94.6999 67.8297 94.5199 67.8297 94.3399C67.8297 94.1599 67.8297 94.0699 67.8297 93.9299C67.8297 93.3599 67.8297 92.7999 67.8997 92.2299C68.0097 90.1299 68.1997 88.0399 68.4597 85.9799C68.6797 84.2999 68.9397 82.6299 69.2497 80.9799C72.487 63.8822 80.828 48.1663 93.1738 35.9027C105.519 23.639 121.291 15.4031 138.41 12.2799L140.41 11.9399L142.41 11.6499H142.51L144.15 11.4499L144.67 11.3899L145.76 11.2799L147.03 11.1699L148.8 11.0599C149.28 11.0599 149.8 10.9999 150.24 10.9899C150.68 10.9799 151.13 10.9899 151.58 10.9399H153.77C154.34 10.9399 154.91 10.9399 155.49 10.9399C156.07 10.9399 156.62 10.9399 157.19 10.9899H158.32C159.15 10.9899 159.97 11.0799 160.79 11.1499L162.01 11.2599H162.42C162.87 11.2599 163.32 11.3499 163.76 11.4099C163.826 11.4005 163.893 11.4005 163.96 11.4099C164.49 11.4699 165.01 11.5299 165.53 11.6099C166.05 11.6899 166.63 11.7599 167.17 11.8499C169.296 12.1766 171.396 12.5833 173.47 13.0699L174.35 13.2899C174.64 13.3499 174.92 13.4199 175.21 13.4999L176.78 13.9199C177.826 14.2133 178.866 14.5233 179.9 14.8499L181.27 15.2899L181.53 15.3799C182.53 15.7199 183.53 16.0799 184.47 16.4499L186 16.9999C187 17.3999 188 17.8199 189 18.2599C189.48 18.4699 190 18.6999 190.45 18.9299C193.388 20.3194 196.243 21.8787 199 23.5999C199.38 23.8299 199.75 24.0699 200.12 24.3099C201.18 24.9799 202.21 25.6699 203.23 26.3899L204.15 27.0499C205 27.6599 205.83 28.2799 206.65 28.9199C218.861 38.4195 228.291 51.0305 233.95 65.4299C237.85 65.1433 241.793 64.9999 245.78 64.9999C284.062 64.9378 320.879 79.712 348.5 106.22C357.657 100.43 368.201 97.2031 379.03 96.8774C389.86 96.5517 400.578 99.1387 410.067 104.368C419.555 109.598 427.466 117.278 432.974 126.608C438.482 135.938 441.385 146.576 441.38 157.41Z" fill="#F7BB38"/>
<path d="M122.9 110.42C122.82 111.92 122.78 113.42 122.78 114.94C122.776 135.746 130.315 155.848 144 171.52C148.258 176.469 151.373 182.296 153.124 188.585C154.875 194.875 155.218 201.473 154.13 207.91C152.88 215.725 152.251 223.626 152.25 231.54V490.11C132.592 481.387 114.113 470.219 97.2499 456.87V213.47C97.2377 197.824 99.7015 182.275 104.55 167.4C103.16 166.4 101.8 165.4 100.47 164.4C98.8099 163.09 97.1999 161.71 95.6399 160.28C94.7099 159.43 93.7899 158.55 92.8999 157.65C92.2999 157.05 91.7099 156.44 91.1299 155.83C90.5499 155.22 89.7599 154.35 89.1299 153.59C88.6699 153.08 88.2299 152.59 87.7899 152.03C87.3499 151.47 86.7099 150.73 86.1899 150.03C85.6699 149.33 85.1899 148.69 84.6499 148.03C83.5432 146.537 82.4832 145.007 81.4699 143.44C81.0999 142.87 80.7299 142.29 80.3799 141.7C80.0299 141.11 79.6299 140.47 79.2799 139.85C79.1266 139.61 78.9866 139.36 78.8599 139.1C78.4999 138.5 78.1699 137.88 77.8599 137.27C71.2328 124.836 67.7773 110.959 67.7999 96.87C67.7999 96.19 67.7999 95.51 67.7999 94.87C67.7999 94.7 67.7999 94.52 67.7999 94.34C67.7999 94.16 67.7999 94.07 67.7999 93.93C67.7999 93.36 67.7999 92.8 67.8699 92.23C67.9766 90.13 68.1632 88.0467 68.4299 85.98C68.6599 84.29 68.9199 82.62 69.2399 80.98C72.5326 63.912 80.8896 48.2314 93.2219 35.9811C105.554 23.7308 121.29 15.4787 138.38 12.3L140.38 11.96L142.38 11.67H142.48L144.12 11.47L144.64 11.41L145.73 11.3L147 11.19L148.77 11.08C149.25 11.08 149.77 11.02 150.21 11.01C150.41 11.01 150.62 11.01 150.82 11.01H151.55H153.74C154.31 11.01 154.88 11.01 155.46 11.01C156.04 11.01 156.59 11.01 157.16 11.06H158.29C159.12 11.06 159.94 11.15 160.76 11.22L161.98 11.33H162.39C162.84 11.33 163.29 11.42 163.73 11.48C163.796 11.4706 163.864 11.4706 163.93 11.48C164.46 11.54 164.98 11.6 165.5 11.68C166.02 11.76 166.6 11.83 167.14 11.92C169.267 12.24 171.367 12.6467 173.44 13.14L174.32 13.36C174.61 13.42 174.89 13.49 175.18 13.57L176.75 13.99C177.797 14.2833 178.837 14.5933 179.87 14.92L181.24 15.36L181.5 15.45C182.5 15.79 183.5 16.15 184.44 16.52L186 17C187 17.4 188 17.82 189 18.26C189.48 18.47 190 18.7 190.45 18.93C193.388 20.3194 196.243 21.8787 199 23.6C199.38 23.83 199.75 24.07 200.12 24.31C201.18 24.98 202.21 25.67 203.23 26.39L204.15 27.05C205 27.66 205.83 28.28 206.65 28.92C184.994 29.4625 164.341 38.1573 148.819 53.2667C133.296 68.3762 124.047 88.7871 122.92 110.42H122.9Z" fill="#DDA12A"/>
<path d="M379.86 202.28C403.597 202.28 422.84 183.037 422.84 159.3C422.84 135.563 403.597 116.32 379.86 116.32C356.123 116.32 336.88 135.563 336.88 159.3C336.88 183.037 356.123 202.28 379.86 202.28Z" fill="white"/>
<path d="M379.86 187.04C393.871 187.04 405.23 175.682 405.23 161.67C405.23 147.659 393.871 136.3 379.86 136.3C365.848 136.3 354.49 147.659 354.49 161.67C354.49 175.682 365.848 187.04 379.86 187.04Z" fill="#DB1B1B"/>
<path d="M379.63 180.67C390.123 180.67 398.63 172.163 398.63 161.67C398.63 151.177 390.123 142.67 379.63 142.67C369.136 142.67 360.63 151.177 360.63 161.67C360.63 172.163 369.136 180.67 379.63 180.67Z" fill="#27273D"/>
<path d="M390.95 154.53C394.225 154.53 396.88 151.875 396.88 148.6C396.88 145.325 394.225 142.67 390.95 142.67C387.675 142.67 385.02 145.325 385.02 148.6C385.02 151.875 387.675 154.53 390.95 154.53Z" fill="white"/>
<path d="M379.63 168.82C383.579 168.82 386.78 165.619 386.78 161.67C386.78 157.721 383.579 154.52 379.63 154.52C375.681 154.52 372.48 157.721 372.48 161.67C372.48 165.619 375.681 168.82 379.63 168.82Z" fill="white"/>
<path d="M150.69 162.36C188.256 162.36 218.71 131.906 218.71 94.3398C218.71 56.7734 188.256 26.3198 150.69 26.3198C113.124 26.3198 82.6699 56.7734 82.6699 94.3398C82.6699 131.906 113.124 162.36 150.69 162.36Z" fill="white"/>
<path d="M150.69 138.24C172.859 138.24 190.83 120.269 190.83 98.1C190.83 75.9312 172.859 57.96 150.69 57.96C128.521 57.96 110.55 75.9312 110.55 98.1C110.55 120.269 128.521 138.24 150.69 138.24Z" fill="#DB1B1B"/>
<path d="M150.32 128.18C166.932 128.18 180.4 114.713 180.4 98.1C180.4 81.4873 166.932 68.02 150.32 68.02C133.707 68.02 120.24 81.4873 120.24 98.1C120.24 114.713 133.707 128.18 150.32 128.18Z" fill="#27273D"/>
<path d="M168.23 86.78C173.411 86.78 177.61 82.5805 177.61 77.4C177.61 72.2196 173.411 68.02 168.23 68.02C163.05 68.02 158.85 72.2196 158.85 77.4C158.85 82.5805 163.05 86.78 168.23 86.78Z" fill="white"/>
<path d="M150.32 109.42C156.572 109.42 161.64 104.352 161.64 98.1C161.64 91.8482 156.572 86.78 150.32 86.78C144.068 86.78 139 91.8482 139 98.1C139 104.352 144.068 109.42 150.32 109.42Z" fill="white"/>
<path d="M138.78 292.8L125.74 229.96L177.78 286.96L138.78 292.8Z" fill="white"/>
<path d="M194.78 292.8L207.28 248.29L230.28 292.8H194.78Z" fill="white"/>
<path d="M242.28 292.8L259.78 207.29L278.28 292.8H242.28Z" fill="white"/>
<path d="M308.28 292.8L336.88 224.29L351.74 286.96L308.28 292.8Z" fill="white"/>
<path d="M351.75 286.96H139.82C132.044 286.96 125.74 293.264 125.74 301.04V301.05C125.74 308.826 132.044 315.13 139.82 315.13H351.75C359.526 315.13 365.83 308.826 365.83 301.05V301.04C365.83 293.264 359.526 286.96 351.75 286.96Z" fill="#E88032"/>
<path d="M258.12 125.25C266.863 125.25 273.95 118.163 273.95 109.42C273.95 100.677 266.863 93.5898 258.12 93.5898C249.377 93.5898 242.29 100.677 242.29 109.42C242.29 118.163 249.377 125.25 258.12 125.25Z" fill="#E88032"/>
<path d="M288.21 152.58C293.683 152.58 298.12 148.143 298.12 142.67C298.12 137.197 293.683 132.76 288.21 132.76C282.737 132.76 278.3 137.197 278.3 142.67C278.3 148.143 282.737 152.58 288.21 152.58Z" fill="#E88032"/>
<path d="M242.28 170.21C250.945 170.21 257.97 163.185 257.97 154.52C257.97 145.854 250.945 138.83 242.28 138.83C233.614 138.83 226.59 145.854 226.59 154.52C226.59 163.185 233.614 170.21 242.28 170.21Z" fill="#E88032"/>
<path d="M317.62 132C326.285 132 333.31 124.975 333.31 116.31C333.31 107.645 326.285 100.62 317.62 100.62C308.954 100.62 301.93 107.645 301.93 116.31C301.93 124.975 308.954 132 317.62 132Z" fill="#E88032"/>
<path d="M288.21 195.92C293.114 195.92 297.09 191.944 297.09 187.04C297.09 182.136 293.114 178.16 288.21 178.16C283.306 178.16 279.33 182.136 279.33 187.04C279.33 191.944 283.306 195.92 288.21 195.92Z" fill="#E88032"/>
<path d="M251.16 204.8C256.064 204.8 260.04 200.824 260.04 195.92C260.04 191.016 256.064 187.04 251.16 187.04C246.256 187.04 242.28 191.016 242.28 195.92C242.28 200.824 246.256 204.8 251.16 204.8Z" fill="#E88032"/>
<path d="M365.83 389.69C374.821 389.69 382.11 382.401 382.11 373.41C382.11 364.419 374.821 357.13 365.83 357.13C356.839 357.13 349.55 364.419 349.55 373.41C349.55 382.401 356.839 389.69 365.83 389.69Z" fill="#F6D372"/>
<path d="M365.83 351.02C372.198 351.02 377.36 345.858 377.36 339.49C377.36 333.122 372.198 327.96 365.83 327.96C359.462 327.96 354.3 333.122 354.3 339.49C354.3 345.858 359.462 351.02 365.83 351.02Z" fill="#F6D372"/>
</g>
<defs>
<clipPath id="clip0_809_1237">
<rect width="512" height="512" fill="white"/>
</clipPath>
</defs>
</svg>
