<svg width="512" height="512" viewBox="0 0 512 512" fill="none" xmlns="http://www.w3.org/2000/svg">
<g clip-path="url(#clip0_809_1298)">
<path d="M256 512C397.385 512 512 397.385 512 256C512 114.615 397.385 0 256 0C114.615 0 0 114.615 0 256C0 397.385 114.615 512 256 512Z" fill="#27273D"/>
<path d="M432.3 171.75V421.87C432.305 429.391 431.385 436.884 429.56 444.18C382.311 487.836 320.33 512.055 256 512C247.23 512.002 238.465 511.558 229.74 510.67C191.136 506.744 153.941 494.04 121 473.53C104.991 463.57 90.1247 451.879 76.6701 438.67L75.7401 437.75C74.8269 432.506 74.3685 427.193 74.3701 421.87V171.75C74.3622 159.734 76.7235 147.835 81.3187 136.732C85.914 125.63 92.6531 115.542 101.151 107.046C109.648 98.5507 119.737 91.8138 130.841 87.221C141.944 82.6282 153.844 80.2695 165.86 80.2801H340.86C352.875 80.2722 364.774 82.6326 375.877 87.2264C386.979 91.8201 397.067 98.5571 405.564 107.052C414.061 115.547 420.8 125.634 425.396 136.735C429.992 147.837 432.355 159.735 432.35 171.75H432.3Z" fill="#41C0E3"/>
<path d="M229.74 510.67C191.136 506.744 153.941 494.04 121 473.53C104.991 463.57 90.1247 451.879 76.6702 438.67C75.6439 433.129 75.1284 427.505 75.1302 421.87V171.75C75.1113 150.016 82.8396 128.987 96.9279 112.437C111.016 95.8874 130.542 84.901 152 81.45C148.562 92.0776 146.817 103.18 146.83 114.35V406.5C146.819 430.698 155.025 454.182 170.104 473.107C185.183 492.032 206.241 505.276 229.83 510.67H229.74Z" fill="#3EB3CE"/>
<path d="M152.1 299.75C189.208 299.75 219.29 269.668 219.29 232.56C219.29 195.452 189.208 165.37 152.1 165.37C114.992 165.37 84.9102 195.452 84.9102 232.56C84.9102 269.668 114.992 299.75 152.1 299.75Z" fill="white"/>
<path d="M152.1 275.94C174.004 275.94 191.76 258.184 191.76 236.28C191.76 214.377 174.004 196.62 152.1 196.62C130.197 196.62 112.44 214.377 112.44 236.28C112.44 258.184 130.197 275.94 152.1 275.94Z" fill="#A65C3B"/>
<path d="M151.74 265.99C168.148 265.99 181.45 252.688 181.45 236.28C181.45 219.872 168.148 206.57 151.74 206.57C135.332 206.57 122.03 219.872 122.03 236.28C122.03 252.688 135.332 265.99 151.74 265.99Z" fill="#27273D"/>
<path d="M169.42 225.1C174.534 225.1 178.68 220.954 178.68 215.84C178.68 210.726 174.534 206.58 169.42 206.58C164.306 206.58 160.16 210.726 160.16 215.84C160.16 220.954 164.306 225.1 169.42 225.1Z" fill="white"/>
<path d="M151.74 247.46C157.915 247.46 162.92 242.455 162.92 236.28C162.92 230.106 157.915 225.1 151.74 225.1C145.566 225.1 140.56 230.106 140.56 236.28C140.56 242.455 145.566 247.46 151.74 247.46Z" fill="white"/>
<path d="M355.62 299.75C392.728 299.75 422.81 269.668 422.81 232.56C422.81 195.452 392.728 165.37 355.62 165.37C318.512 165.37 288.43 195.452 288.43 232.56C288.43 269.668 318.512 299.75 355.62 299.75Z" fill="white"/>
<path d="M355.62 275.94C377.524 275.94 395.28 258.184 395.28 236.28C395.28 214.377 377.524 196.62 355.62 196.62C333.716 196.62 315.96 214.377 315.96 236.28C315.96 258.184 333.716 275.94 355.62 275.94Z" fill="#A65C3B"/>
<path d="M355.26 265.99C371.668 265.99 384.97 252.688 384.97 236.28C384.97 219.872 371.668 206.57 355.26 206.57C338.852 206.57 325.55 219.872 325.55 236.28C325.55 252.688 338.852 265.99 355.26 265.99Z" fill="#27273D"/>
<path d="M372.95 225.1C378.064 225.1 382.21 220.954 382.21 215.84C382.21 210.726 378.064 206.58 372.95 206.58C367.836 206.58 363.69 210.726 363.69 215.84C363.69 220.954 367.836 225.1 372.95 225.1Z" fill="white"/>
<path d="M355.26 247.46C361.435 247.46 366.44 242.455 366.44 236.28C366.44 230.106 361.435 225.1 355.26 225.1C349.086 225.1 344.08 230.106 344.08 236.28C344.08 242.455 349.086 247.46 355.26 247.46Z" fill="white"/>
<path d="M140.06 360.62C162.914 360.62 181.44 350.613 181.44 338.27C181.44 325.926 162.914 315.92 140.06 315.92C117.207 315.92 98.6802 325.926 98.6802 338.27C98.6802 350.613 117.207 360.62 140.06 360.62Z" fill="#FAB3A7"/>
<path d="M366.44 360.62C389.294 360.62 407.82 350.613 407.82 338.27C407.82 325.926 389.294 315.92 366.44 315.92C343.587 315.92 325.06 325.926 325.06 338.27C325.06 350.613 343.587 360.62 366.44 360.62Z" fill="#FAB3A7"/>
<path d="M217.15 278.88H294.67C294.67 283.589 293.743 288.252 291.94 292.603C290.138 296.954 287.497 300.907 284.167 304.237C280.837 307.567 276.884 310.208 272.533 312.01C268.182 313.812 263.519 314.74 258.81 314.74H253C248.291 314.74 243.628 313.812 239.277 312.01C234.926 310.208 230.973 307.567 227.643 304.237C224.313 300.907 221.672 296.954 219.87 292.603C218.068 288.252 217.14 283.589 217.14 278.88H217.15Z" fill="#27273D"/>
<path d="M387 457.39C387.006 464.031 386.335 470.655 385 477.16C345.866 500.045 301.334 512.072 256 512C247.23 512.002 238.465 511.558 229.74 510.67C191.136 506.744 153.941 494.04 121 473.53C120.109 468.196 119.66 462.798 119.66 457.39C119.66 431.57 129.77 407.77 146.81 388.68C171.22 361.32 209.86 343.68 253.35 343.68C327.15 343.66 387 394.57 387 457.39Z" fill="#3EACC6"/>
<path d="M236.76 278.88H279.06V283.49C279.06 287.802 277.347 291.938 274.298 294.987C271.248 298.037 267.112 299.75 262.8 299.75H253C248.688 299.75 244.552 298.037 241.502 294.987C238.453 291.938 236.74 287.802 236.74 283.49V278.88H236.76Z" fill="white"/>
<path d="M382.73 59.52H123.91C106.163 59.5253 89.1438 66.5792 76.5963 79.1304C64.0488 91.6817 57 108.703 57 126.45V195.45C57 206.245 61.2877 216.598 68.9202 224.233C76.5526 231.867 86.9048 236.157 97.7 236.16H114.46C125.257 236.16 135.612 231.871 143.246 224.236C150.881 216.602 155.17 206.247 155.17 195.45C155.17 206.245 159.458 216.598 167.09 224.233C174.723 231.867 185.075 236.157 195.87 236.16H212.63C223.427 236.16 233.782 231.871 241.416 224.236C249.051 216.602 253.34 206.247 253.34 195.45C253.353 206.23 257.641 216.564 265.264 224.186C272.886 231.809 283.22 236.097 294 236.11H310.76C316.106 236.11 321.4 235.057 326.339 233.011C331.278 230.965 335.766 227.967 339.546 224.186C343.327 220.406 346.325 215.918 348.371 210.979C350.417 206.04 351.47 200.746 351.47 195.4C351.47 206.195 355.758 216.548 363.39 224.183C371.023 231.817 381.375 236.107 392.17 236.11H409C414.346 236.11 419.64 235.057 424.579 233.011C429.518 230.965 434.006 227.967 437.786 224.186C441.567 220.406 444.565 215.918 446.611 210.979C448.657 206.04 449.71 200.746 449.71 195.4V126.45C449.709 117.657 447.975 108.95 444.608 100.827C441.241 92.704 436.306 85.324 430.086 79.1086C423.866 72.8932 416.482 67.9642 408.357 64.6031C400.231 61.242 391.523 59.5148 382.73 59.52Z" fill="#FC715A"/>
<path d="M161.9 59.52C151.987 76.0898 146.761 95.0412 146.78 114.35V221.08C142.966 225.775 138.152 229.559 132.688 232.154C127.224 234.75 121.249 236.091 115.2 236.08H98.44C87.6465 236.077 77.2958 231.788 69.6637 224.156C62.0315 216.524 57.7426 206.174 57.74 195.38V126.45C57.7387 117.661 59.4686 108.958 62.8311 100.838C66.1936 92.7175 71.1226 85.3391 77.3369 79.124C83.5511 72.9088 90.9287 67.9786 99.0485 64.615C107.168 61.2513 115.871 59.52 124.66 59.52H161.9Z" fill="#E56453"/>
<path d="M124 69.06L51.1601 26.57C50.4478 26.1526 49.6257 25.961 48.8023 26.0207C47.9789 26.0803 47.193 26.3883 46.5483 26.9041C45.9037 27.4198 45.4306 28.1189 45.1917 28.9092C44.9528 29.6994 44.9592 30.5435 45.2101 31.33L72.6301 118C73.4169 120.485 74.84 122.72 76.7581 124.485C78.6762 126.249 81.0224 127.481 83.564 128.059C86.1055 128.636 88.7538 128.538 91.2459 127.775C93.738 127.012 95.9872 125.611 97.7701 123.71L127.37 92.14C128.898 90.5024 130.038 88.5423 130.706 86.4046C131.373 84.267 131.552 82.0066 131.229 79.7906C130.905 77.5746 130.087 75.4596 128.836 73.6022C127.585 71.7448 125.932 70.1925 124 69.06Z" fill="#DB1B1B"/>
<path d="M387 69.06L459.83 26.57C460.542 26.1526 461.364 25.961 462.188 26.0207C463.011 26.0803 463.797 26.3883 464.442 26.9041C465.086 27.4198 465.559 28.1189 465.798 28.9092C466.037 29.6994 466.031 30.5435 465.78 31.33L438.39 118C437.603 120.485 436.18 122.72 434.262 124.485C432.344 126.249 429.998 127.481 427.456 128.059C424.915 128.636 422.266 128.538 419.774 127.775C417.282 127.012 415.033 125.611 413.25 123.71L383.65 92.14C382.122 90.5037 380.98 88.5448 380.311 86.4081C379.642 84.2713 379.461 82.0115 379.783 79.7955C380.104 77.5796 380.92 75.4643 382.169 73.6061C383.418 71.7479 385.069 70.1942 387 69.06Z" fill="#DB1B1B"/>
<path d="M414.76 215.79C425.524 215.79 434.25 207.064 434.25 196.3C434.25 185.536 425.524 176.81 414.76 176.81C403.996 176.81 395.27 185.536 395.27 196.3C395.27 207.064 403.996 215.79 414.76 215.79Z" fill="#F98878"/>
<path d="M414.76 169.5C422.382 169.5 428.56 163.321 428.56 155.7C428.56 148.078 422.382 141.9 414.76 141.9C407.138 141.9 400.96 148.078 400.96 155.7C400.96 163.321 407.138 169.5 414.76 169.5Z" fill="#F98878"/>
</g>
<defs>
<clipPath id="clip0_809_1298">
<rect width="512" height="512" fill="white"/>
</clipPath>
</defs>
</svg>
