<svg width="512" height="512" viewBox="0 0 512 512" fill="none" xmlns="http://www.w3.org/2000/svg">
<g clip-path="url(#clip0_809_1483)">
<path d="M256 512C397.385 512 512 397.385 512 256C512 114.615 397.385 0 256 0C114.615 0 0 114.615 0 256C0 397.385 114.615 512 256 512Z" fill="#27273D"/>
<path d="M360.62 211.43C404.399 211.43 439.89 175.94 439.89 132.16C439.89 88.3803 404.399 52.8899 360.62 52.8899C316.84 52.8899 281.35 88.3803 281.35 132.16C281.35 175.94 316.84 211.43 360.62 211.43Z" fill="#048943"/>
<path d="M374.63 82.22C374.639 90.811 372.954 99.3195 369.67 107.258C366.387 115.197 361.57 122.411 355.495 128.485C349.42 134.56 342.207 139.377 334.268 142.66C326.329 145.944 317.821 147.629 309.23 147.62H307.57C298.704 147.405 289.975 145.38 281.92 141.67C281.52 141.49 281.12 141.3 280.72 141.1C274.678 138.162 269.124 134.314 264.25 129.69C262.05 131.742 259.711 133.64 257.25 135.37C256.66 135.78 256.07 136.19 255.47 136.58L254.75 137.05C240.334 146.241 222.893 149.425 206.16 145.92C203.987 145.46 201.857 144.9 199.77 144.24C198.38 143.8 197.02 143.31 195.67 142.78C194.32 142.25 193 141.68 191.67 141.06C191.26 140.87 190.85 140.67 190.45 140.46C189.57 140.03 188.7 139.57 187.84 139.09C187.21 138.75 186.59 138.39 185.98 138.02C184.873 140.485 183.635 142.888 182.27 145.22C182.219 145.317 182.162 145.41 182.1 145.5C178.866 150.999 174.944 156.063 170.43 160.57C169.8 161.19 169.17 161.81 168.53 162.41C167.89 163.01 167.24 163.59 166.58 164.16C165.92 164.73 165.41 165.16 164.81 165.65C164.74 165.721 164.663 165.785 164.58 165.84L162.58 167.44C161.89 167.96 161.2 168.44 160.51 168.96C159.82 169.48 158.91 170.06 158.09 170.58C157.58 170.92 157.09 171.25 156.54 171.58L155.89 171.98C155.4 172.28 154.89 172.57 154.4 172.85C150.733 174.941 146.896 176.717 142.93 178.16L142.66 178.26C141.88 178.54 141.1 178.81 140.32 179.06C139.77 179.24 139.21 179.41 138.66 179.57L137.38 179.94C136.77 180.11 136.16 180.28 135.55 180.43C141.753 186.258 146.4 193.546 149.065 201.629C151.73 209.713 152.33 218.335 150.81 226.71C150.55 228.19 150.21 229.65 149.81 231.08C149.68 231.56 149.54 232.03 149.4 232.51C148.25 236.247 146.677 239.841 144.71 243.22C144.47 243.64 144.22 244.06 143.96 244.47C143.44 245.29 142.91 246.1 142.36 246.88C141.81 247.66 141.23 248.45 140.63 249.2C140.03 249.95 139.41 250.69 138.77 251.41C138.45 251.77 138.13 252.13 137.77 252.48C137.41 252.83 137.1 253.18 136.77 253.48C135.074 255.19 133.26 256.777 131.34 258.23C133.271 259.688 135.095 261.282 136.8 263C137.14 263.34 137.48 263.69 137.8 264C138.12 264.31 138.45 264.71 138.8 265.07C139.44 265.79 140.06 266.52 140.66 267.28C141.26 268.04 141.84 268.81 142.39 269.6C142.94 270.39 143.47 271.19 143.99 272.01C144.25 272.42 144.5 272.84 144.74 273.26C146.702 276.65 148.269 280.253 149.41 284C149.55 284.48 149.69 284.95 149.82 285.43C150.21 286.86 150.55 288.32 150.82 289.8C151.913 295.838 151.913 302.022 150.82 308.06C150.56 309.54 150.22 311 149.82 312.43C149.69 312.91 149.55 313.38 149.41 313.85C148.262 317.591 146.689 321.188 144.72 324.57C144.48 324.98 144.23 325.4 143.97 325.81C143.45 326.63 142.92 327.44 142.37 328.23C140.704 330.597 138.841 332.818 136.8 334.87C135.105 336.576 133.294 338.163 131.38 339.62C134.83 342.244 137.941 345.288 140.64 348.68C140.94 349.06 141.24 349.45 141.52 349.83C142.38 350.99 143.19 352.18 143.97 353.41C146.295 357.14 148.124 361.157 149.41 365.36C149.55 365.84 149.69 366.31 149.82 366.79C150.21 368.22 150.55 369.68 150.82 371.16C151.913 377.198 151.913 383.382 150.82 389.42C150.56 390.9 150.22 392.36 149.82 393.79C149.69 394.27 149.55 394.79 149.41 395.22C148.263 398.98 146.689 402.597 144.72 406C144.48 406.41 144.23 406.83 143.97 407.24C143.45 408.06 142.92 408.87 142.37 409.66C141.82 410.45 141.24 411.22 140.64 411.97C140.04 412.72 139.42 413.47 138.78 414.19L137.78 415.26C137.45 415.61 137.11 415.95 136.78 416.26C135.087 417.972 133.272 419.56 131.35 421.01C133.272 422.46 135.087 424.048 136.78 425.76C137.12 426.1 137.46 426.44 137.78 426.76L138.78 427.83C139.447 428.55 140.067 429.29 140.64 430.05C141.24 430.8 141.82 431.57 142.37 432.36C142.92 433.15 143.45 433.96 143.97 434.78C144.23 435.19 144.48 435.61 144.72 436.02C146.685 439.404 148.258 443 149.41 446.74C149.56 447.22 149.69 447.69 149.82 448.17C150.21 449.6 150.54 451.05 150.82 452.53C151.367 455.543 151.641 458.598 151.64 461.66C151.643 464.821 151.348 467.975 150.76 471.08C150.54 472.33 150.26 473.57 149.93 474.79C149.77 475.4 149.6 475.99 149.42 476.59C149.24 477.19 149.12 477.53 148.96 478C148.647 478.94 148.313 479.86 147.96 480.76C147.133 482.823 146.167 484.827 145.07 486.76C136.343 482.557 127.862 477.859 119.67 472.69C112.523 468.183 105.627 463.343 98.9799 458.17C88.2279 449.808 78.1563 440.605 68.8599 430.65C71.6494 427.199 74.7054 423.973 77.9999 421C61.1999 406.1 49.6499 380.31 49.6499 380.31C49.6499 380.31 61.1799 354.52 77.9999 339.62C61.1999 324.71 49.6499 298.93 49.6499 298.93C49.6499 298.93 61.1799 273.14 77.9999 258.24C61.1999 243.34 49.6499 217.55 49.6499 217.55C49.6499 217.55 62.8499 188 81.5799 173.91C74.9502 170.379 68.8836 165.879 63.5799 160.56C49.9999 147 48.8899 123.39 51.6499 101.79C53.9193 85.3675 57.9078 69.2289 63.5499 53.64C63.5499 53.64 89.2699 43.83 116.71 41.18C134.56 39.45 153.14 40.75 165.84 49.76C166.73 50.39 167.59 51.05 168.42 51.76C171.421 48.5176 174.62 45.4651 178 42.62C196.69 26.75 219.61 16.49 219.61 16.49C219.61 16.49 245.41 28.04 264.61 45.58C283.76 28.22 309.23 16.82 309.23 16.82C309.23 16.82 342 31.5 361.16 52.89C362.367 54.2233 363.513 55.5967 364.6 57.01C365 57.52 365.39 58.01 365.77 58.56C366.15 59.11 366.44 59.49 366.77 59.96C367.1 60.43 367.36 60.81 367.64 61.24C367.92 61.67 368.38 62.41 368.74 63C369 63.44 369.26 63.88 369.51 64.32L369.61 64.5C369.87 64.96 370.11 65.42 370.35 65.88C370.59 66.34 370.88 66.93 371.12 67.45C371.198 67.5994 371.268 67.753 371.33 67.91C371.51 68.29 371.67 68.66 371.83 69.04C372.635 70.9408 373.283 72.904 373.77 74.91L373.92 75.61C373.92 75.71 373.92 75.82 373.99 75.93C374.08 76.35 374.15 76.77 374.22 77.19C374.225 77.2666 374.225 77.3434 374.22 77.42C374.28 77.78 374.33 78.15 374.37 78.51C374.37 78.62 374.37 78.74 374.37 78.85C374.43 79.38 374.47 79.9 374.5 80.42C374.53 80.94 374.63 81.62 374.63 82.22Z" fill="#B0D46C"/>
<path d="M374.63 82.2201C374.639 90.8111 372.954 99.3196 369.67 107.258C366.387 115.197 361.57 122.411 355.495 128.485C349.421 134.56 342.207 139.377 334.268 142.661C326.33 145.944 317.821 147.629 309.23 147.62H307.57C298.704 147.405 289.975 145.38 281.92 141.67C281.52 141.49 281.12 141.3 280.72 141.1C274.678 138.162 269.124 134.314 264.25 129.69C262.05 131.742 259.711 133.64 257.25 135.37C256.66 135.78 256.07 136.19 255.47 136.58L254.75 137.05C244.249 143.746 232.054 147.302 219.6 147.3C215.085 147.3 210.581 146.837 206.16 145.92C203.987 145.46 201.857 144.9 199.77 144.24C198.38 143.79 197.02 143.31 195.67 142.78C194.32 142.25 193 141.67 191.67 141.06L190.45 140.45C189.57 140.02 188.7 139.56 187.84 139.09C187.213 138.743 186.593 138.383 185.98 138.01C184.873 140.475 183.635 142.878 182.27 145.21C182.219 145.31 182.163 145.407 182.1 145.5C178.866 150.999 174.945 156.063 170.43 160.57C169.8 161.19 169.17 161.81 168.53 162.41C167.89 163.01 167.24 163.59 166.58 164.16C165.92 164.73 165.41 165.16 164.81 165.65C164.74 165.722 164.663 165.785 164.58 165.84L162.58 167.44C161.89 167.96 161.2 168.44 160.51 168.96C159.82 169.48 158.91 170.06 158.09 170.58C157.58 170.92 157.09 171.25 156.54 171.58L155.89 171.98C155.4 172.28 154.89 172.57 154.4 172.85C150.733 174.941 146.896 176.717 142.93 178.16L142.66 178.26C141.88 178.54 141.1 178.81 140.32 179.06C139.77 179.24 139.21 179.41 138.66 179.57L137.38 179.94C136.77 180.11 136.16 180.28 135.55 180.43C141.754 186.258 146.4 193.546 149.065 201.63C151.731 209.713 152.33 218.335 150.81 226.71C150.55 228.19 150.22 229.65 149.81 231.08C149.68 231.56 149.54 232.03 149.4 232.51C148.255 236.249 146.681 239.843 144.71 243.22C144.47 243.64 144.22 244.06 143.96 244.47C143.45 245.29 142.96 246.1 142.36 246.88C141.76 247.66 141.23 248.45 140.63 249.2C140.03 249.95 139.41 250.69 138.77 251.41C138.45 251.77 138.13 252.13 137.77 252.48C137.41 252.83 137.1 253.18 136.77 253.48C135.074 255.19 133.26 256.777 131.34 258.23C133.271 259.689 135.095 261.283 136.8 263C137.14 263.34 137.48 263.69 137.8 264C138.12 264.31 138.45 264.71 138.8 265.07C139.44 265.79 140.06 266.52 140.66 267.28C141.26 268.04 141.84 268.81 142.39 269.6C142.94 270.39 143.48 271.19 143.99 272.01C144.25 272.42 144.5 272.84 144.74 273.26C146.706 276.648 148.273 280.252 149.41 284C149.55 284.48 149.69 284.95 149.82 285.43C150.22 286.86 150.55 288.32 150.82 289.8C151.913 295.838 151.913 302.023 150.82 308.06C150.56 309.54 150.23 311 149.82 312.43C149.69 312.91 149.55 313.38 149.41 313.85C148.267 317.593 146.693 321.19 144.72 324.57C144.48 324.98 144.23 325.4 143.97 325.81C143.46 326.63 142.97 327.44 142.37 328.23C139.315 332.571 135.604 336.41 131.37 339.61C134.83 342.224 137.942 345.268 140.63 348.67C140.93 349.05 141.23 349.44 141.51 349.82C142.377 350.98 143.193 352.173 143.96 353.4C146.255 357.146 148.082 361.159 149.4 365.35C149.54 365.83 149.68 366.3 149.81 366.78C150.21 368.21 150.54 369.67 150.81 371.15C151.903 377.188 151.903 383.373 150.81 389.41C150.55 390.89 150.22 392.35 149.81 393.78C149.68 394.26 149.54 394.78 149.4 395.21C148.261 398.975 146.691 402.596 144.72 406C144.48 406.41 144.23 406.83 143.97 407.24C143.46 408.06 142.97 408.87 142.37 409.66C141.77 410.45 141.24 411.22 140.64 411.97C140.04 412.72 139.42 413.47 138.78 414.19L137.78 415.26C137.45 415.61 137.11 415.95 136.78 416.26C135.087 417.972 133.272 419.56 131.35 421.01C133.272 422.46 135.087 424.048 136.78 425.76C137.12 426.1 137.46 426.44 137.78 426.76L138.78 427.83C139.447 428.55 140.067 429.29 140.64 430.05C141.24 430.8 141.82 431.57 142.37 432.36C142.92 433.15 143.46 433.96 143.97 434.78C144.23 435.19 144.48 435.61 144.72 436.02C146.693 439.4 148.267 442.997 149.41 446.74C149.56 447.22 149.69 447.69 149.82 448.17C150.22 449.6 150.55 451.06 150.82 452.53C151.367 455.543 151.641 458.598 151.64 461.66C151.643 464.821 151.348 467.975 150.76 471.08C150.54 472.33 150.26 473.57 149.93 474.79C149.77 475.4 149.6 475.99 149.42 476.59C149.24 477.19 149.12 477.53 148.96 478C148.647 478.94 148.313 479.86 147.96 480.76C147.133 482.823 146.167 484.828 145.07 486.76C136.343 482.557 127.862 477.859 119.67 472.69C112.523 468.183 105.627 463.343 98.98 458.17C101.972 454.374 105.281 450.838 108.87 447.6C92 432.7 80.48 406.92 80.48 406.92C80.48 406.92 92 381.13 108.83 366.23C92.03 351.33 80.48 325.54 80.48 325.54C80.48 325.54 92 299.75 108.83 284.85C92 270 80.48 244.17 80.48 244.17C80.48 244.17 93.7 214.64 112.48 200.52C105.851 196.992 99.7839 192.496 94.48 187.18C64.95 157.65 94.48 80.2501 94.48 80.2501C94.48 80.2501 119.48 70.7101 146.48 67.9101C163.16 66.1701 180.6 67.0101 193.38 74.2401C194.38 74.8101 195.38 75.4301 196.33 76.0901C197.368 76.7982 198.37 77.5592 199.33 78.3701C201.736 75.7664 204.272 73.2865 206.93 70.9401C207.31 70.6101 207.69 70.2701 208.08 69.9401C226.92 53.6701 250.51 43.1001 250.51 43.1001C260.495 47.7864 270.089 53.2638 279.2 59.4801C282.62 61.8001 286.09 64.3401 289.47 67.0601C291.47 68.7101 293.47 70.4201 295.47 72.1901C298.54 69.4101 301.77 66.7901 305.03 64.3301C315.999 56.2243 327.743 49.2236 340.09 43.4301C346.219 46.2871 352.197 49.4579 358 52.9301C360.11 54.1801 362.33 55.5401 364.6 57.0101C365 57.5201 365.39 58.0101 365.77 58.5601C366.15 59.1101 366.44 59.4901 366.77 59.9601C367.1 60.4301 367.36 60.8101 367.64 61.2401C367.92 61.6701 368.38 62.4101 368.74 63.0001C369 63.4401 369.26 63.8801 369.51 64.3201L369.61 64.5001C369.87 64.9601 370.11 65.4201 370.35 65.8801C370.59 66.3401 370.88 66.9301 371.12 67.4501C371.198 67.5995 371.268 67.7531 371.33 67.9101C371.51 68.2901 371.67 68.6601 371.83 69.0401C372.635 70.9409 373.284 72.9041 373.77 74.9101L373.92 75.6101C373.92 75.7101 373.92 75.8201 373.99 75.9301C374.08 76.3501 374.15 76.7701 374.22 77.1901C374.225 77.2667 374.225 77.3435 374.22 77.4201C374.28 77.7801 374.33 78.1501 374.37 78.5101C374.37 78.6201 374.37 78.7401 374.37 78.8501C374.43 79.3801 374.47 79.9001 374.5 80.4201C374.53 80.9401 374.63 81.6201 374.63 82.2201Z" fill="#9DBA5D"/>
<path d="M493.63 271.51C493.63 310.51 457.43 342.77 410.63 347.51V460C375.048 487.055 332.972 504.268 288.63 509.91C277.808 511.295 266.91 511.993 256 512C217.57 512.064 179.624 503.435 145 486.76C136.273 482.557 127.792 477.859 119.6 472.69V204.3C119.572 185.19 123.323 166.262 130.635 148.607C137.948 130.951 148.678 114.914 162.21 101.42C162.97 100.66 163.73 99.91 164.51 99.17C174.006 90.0825 184.686 82.319 196.26 76.0899C199.7 74.2299 203.227 72.5133 206.84 70.94C207.84 70.5 208.84 70.08 209.84 69.67C227.382 62.466 246.167 58.7729 265.13 58.8C269.883 58.8 274.573 59.0266 279.2 59.48C280.44 59.59 281.68 59.73 282.91 59.88C290.377 60.79 297.763 62.2778 305 64.33C308.333 65.2766 311.58 66.33 314.74 67.49C341.178 77.1 364.266 94.1612 381.216 116.612C398.165 139.062 408.249 165.941 410.25 194C410.25 194.5 410.32 195 410.35 195.5C457.29 200.13 493.63 232.39 493.63 271.51Z" fill="#00B564"/>
<path d="M424.46 231.22H324.8C304.824 231.22 288.63 247.412 288.63 267.385C288.63 287.358 304.824 303.55 324.8 303.55H424.46C444.436 303.55 460.63 287.358 460.63 267.385C460.63 247.412 444.436 231.22 424.46 231.22Z" fill="#27273D"/>
<path d="M345.71 264.55C351.258 264.55 356.579 266.754 360.503 270.677C364.426 274.601 366.63 279.922 366.63 285.47V303.55H324.79V285.47C324.79 279.922 326.994 274.601 330.917 270.677C334.841 266.754 340.162 264.55 345.71 264.55Z" fill="white"/>
<path d="M407.8 270.22C402.252 270.22 396.931 268.016 393.007 264.093C389.084 260.169 386.88 254.848 386.88 249.3V231.22H428.71V249.3C428.71 254.847 426.507 260.166 422.586 264.089C418.665 268.012 413.347 270.217 407.8 270.22Z" fill="white"/>
<path d="M218.63 299.22C234.646 299.22 247.63 286.236 247.63 270.22C247.63 254.204 234.646 241.22 218.63 241.22C202.614 241.22 189.63 254.204 189.63 270.22C189.63 286.236 202.614 299.22 218.63 299.22Z" fill="#FC715A"/>
<path d="M267.29 292.49C273.696 292.49 278.89 287.297 278.89 280.89C278.89 274.484 273.696 269.29 267.29 269.29C260.883 269.29 255.69 274.484 255.69 280.89C255.69 287.297 260.883 292.49 267.29 292.49Z" fill="#FC715A"/>
<path d="M247.63 323.01C252.855 323.01 257.09 318.775 257.09 313.55C257.09 308.325 252.855 304.09 247.63 304.09C242.405 304.09 238.17 308.325 238.17 313.55C238.17 318.775 242.405 323.01 247.63 323.01Z" fill="#FC715A"/>
<path d="M218.29 217.35C269.1 217.35 310.29 176.16 310.29 125.35C310.29 74.5399 269.1 33.3501 218.29 33.3501C167.48 33.3501 126.29 74.5399 126.29 125.35C126.29 176.16 167.48 217.35 218.29 217.35Z" fill="#00B564"/>
<path d="M218.29 195.22C253.117 195.22 281.35 166.987 281.35 132.16C281.35 97.333 253.117 69.1001 218.29 69.1001C183.463 69.1001 155.23 97.333 155.23 132.16C155.23 166.987 183.463 195.22 218.29 195.22Z" fill="white"/>
<path d="M218.29 172.86C238.84 172.86 255.5 156.2 255.5 135.65C255.5 115.099 238.84 98.4399 218.29 98.4399C197.739 98.4399 181.08 115.099 181.08 135.65C181.08 156.2 197.739 172.86 218.29 172.86Z" fill="#A65C3B"/>
<path d="M217.95 163.53C233.348 163.53 245.83 151.048 245.83 135.65C245.83 120.252 233.348 107.77 217.95 107.77C202.552 107.77 190.07 120.252 190.07 135.65C190.07 151.048 202.552 163.53 217.95 163.53Z" fill="#27273D"/>
<path d="M234.55 125.15C239.349 125.15 243.24 121.259 243.24 116.46C243.24 111.661 239.349 107.77 234.55 107.77C229.751 107.77 225.86 111.661 225.86 116.46C225.86 121.259 229.751 125.15 234.55 125.15Z" fill="white"/>
<path d="M217.95 146.14C223.743 146.14 228.44 141.443 228.44 135.65C228.44 129.856 223.743 125.16 217.95 125.16C212.156 125.16 207.46 129.856 207.46 135.65C207.46 141.443 212.156 146.14 217.95 146.14Z" fill="white"/>
<path d="M324.79 204.56C332.803 204.56 339.3 198.064 339.3 190.05C339.3 182.036 332.803 175.54 324.79 175.54C316.776 175.54 310.28 182.036 310.28 190.05C310.28 198.064 316.776 204.56 324.79 204.56Z" fill="#029950"/>
<path d="M381.13 204.56C389.144 204.56 395.64 198.064 395.64 190.05C395.64 182.036 389.144 175.54 381.13 175.54C373.116 175.54 366.62 182.036 366.62 190.05C366.62 198.064 373.116 204.56 381.13 204.56Z" fill="#029950"/>
<path d="M410.63 347.53V460C375.048 487.055 332.972 504.268 288.63 509.91V428.29C288.63 406.871 297.138 386.329 312.284 371.184C327.429 356.038 347.971 347.53 369.39 347.53H410.63Z" fill="#4ACC97"/>
</g>
<defs>
<clipPath id="clip0_809_1483">
<rect width="512" height="512" fill="white"/>
</clipPath>
</defs>
</svg>
