<svg width="512" height="512" viewBox="0 0 512 512" fill="none" xmlns="http://www.w3.org/2000/svg">
<g clip-path="url(#clip0_809_1389)">
<path d="M256 512C397.385 512 512 397.385 512 256C512 114.615 397.385 0 256 0C114.615 0 0 114.615 0 256C0 397.385 114.615 512 256 512Z" fill="#F7BB38"/>
<path d="M428.14 254.4V267.4H456C458.635 267.281 461.267 267.697 463.737 268.623C466.207 269.549 468.463 270.966 470.37 272.788C472.277 274.611 473.795 276.801 474.832 279.226C475.869 281.652 476.403 284.262 476.403 286.9C476.403 289.538 475.869 292.148 474.832 294.574C473.795 296.999 472.277 299.189 470.37 301.012C468.463 302.834 466.207 304.251 463.737 305.177C461.267 306.103 458.635 306.519 456 306.4H428.14V445.49C381.425 487.96 320.657 511.658 257.523 512.027C194.39 512.396 133.349 489.41 86.1399 447.49V306.38H60.1399C56.0413 306.379 52.0469 305.088 48.7229 302.691C45.399 300.293 42.9141 296.909 41.6207 293.02C40.3273 289.131 40.2908 284.933 41.5166 281.022C42.7423 277.111 45.1681 273.685 48.4499 271.23C48.9499 270.86 49.4499 270.51 49.9999 270.23C50.5346 269.906 51.0853 269.609 51.6499 269.34C52.5939 268.884 53.5739 268.506 54.5799 268.21C55.0364 268.068 55.5004 267.951 55.9699 267.86C56.0973 267.822 56.2278 267.795 56.3599 267.78C56.8981 267.666 57.4423 267.582 57.9899 267.53C58.6971 267.45 59.4082 267.41 60.1199 267.41H86.1199V254.41H60.1199C55.4551 254.406 50.9459 252.731 47.4091 249.69C43.8723 246.648 41.5417 242.441 40.8393 237.829C40.137 233.217 41.1094 228.507 43.5805 224.55C46.0515 220.593 49.8578 217.652 54.3099 216.26C54.9183 216.058 55.5397 215.897 56.1699 215.78C56.8038 215.644 57.4448 215.544 58.0899 215.48C58.7544 215.412 59.4219 215.378 60.0899 215.38H86.0899C86.0899 214.29 86.0899 213.2 86.0899 212.12C86.1599 208.86 86.3099 205.63 86.5599 202.43H60.0699C57.4348 202.549 54.8029 202.133 52.333 201.207C49.8632 200.281 47.6067 198.864 45.6997 197.042C43.7928 195.219 42.275 193.029 41.2381 190.604C40.2011 188.178 39.6665 185.568 39.6665 182.93C39.6665 180.292 40.2011 177.682 41.2381 175.256C42.275 172.831 43.7928 170.641 45.6997 168.818C47.6067 166.996 49.8632 165.579 52.333 164.653C54.8029 163.727 57.4348 163.311 60.0699 163.43H90.9999C92.0658 163.436 93.1293 163.53 94.1799 163.71C94.5299 162.63 94.8799 161.56 95.2499 160.49C97.7855 153.062 100.84 145.82 104.39 138.82C104.9 137.82 105.39 136.82 105.94 135.82C107.5 132.867 109.143 129.97 110.87 127.13C112.537 124.39 114.28 121.7 116.1 119.06C116.79 118.06 117.5 117.06 118.21 116.06C121.615 111.333 125.26 106.784 129.13 102.43C130.39 101 131.69 99.58 133 98.19C134.527 96.59 136.077 95.02 137.65 93.48C138.45 92.7 139.25 91.94 140.05 91.19C141.657 89.6833 143.293 88.2033 144.96 86.75C146.627 85.2966 148.323 83.88 150.05 82.5C151.77 81.12 153.52 79.7866 155.3 78.5C157.08 77.2133 158.883 75.93 160.71 74.65C161.57 74.06 162.44 73.48 163.31 72.9L163.47 72.8C164.4 72.19 165.33 71.59 166.27 71C167.21 70.41 168.16 69.83 169.11 69.26C170.91 68.17 172.73 67.13 174.57 66.11C174.81 65.98 175.05 65.84 175.29 65.72C176.14 65.25 176.98 64.8 177.84 64.35C178.7 63.9 179.84 63.35 180.84 62.83C181.67 62.41 182.51 62 183.35 61.6L184.17 61.21C184.95 60.84 185.74 60.48 186.53 60.13C188.19 59.37 189.857 58.6433 191.53 57.95L193.7 57C195.273 56.38 196.85 55.78 198.43 55.2L200.43 54.47L201.1 54.24L203.1 53.56C204.67 53.03 206.26 52.56 207.85 52.06L210.2 51.38H210.33C211.9 50.94 213.47 50.52 215.05 50.12C215.92 49.9 216.8 49.7 217.67 49.49L219.76 49.01L222.91 48.33L223.81 48.16C265.048 39.991 307.851 47.2836 344.057 68.6475C380.264 90.0114 407.342 123.952 420.13 164C421.742 163.574 423.402 163.356 425.07 163.35H456.07C458.705 163.231 461.337 163.647 463.807 164.573C466.277 165.499 468.533 166.916 470.44 168.738C472.347 170.561 473.865 172.751 474.902 175.176C475.939 177.602 476.473 180.212 476.473 182.85C476.473 185.488 475.939 188.098 474.902 190.524C473.865 192.949 472.347 195.139 470.44 196.962C468.533 198.784 466.277 200.201 463.807 201.127C461.337 202.053 458.705 202.469 456.07 202.35H427.61C427.943 206.623 428.117 210.957 428.13 215.35H456C458.635 215.231 461.267 215.647 463.737 216.573C466.207 217.499 468.463 218.916 470.37 220.738C472.277 222.561 473.795 224.751 474.832 227.176C475.869 229.602 476.403 232.212 476.403 234.85C476.403 237.488 475.869 240.098 474.832 242.524C473.795 244.949 472.277 247.139 470.37 248.962C468.463 250.784 466.207 252.201 463.737 253.127C461.267 254.053 458.635 254.469 456 254.35L428.14 254.4Z" fill="#3E436D"/>
<path d="M164.85 344.08C169.19 404.48 182.54 459.99 202.47 506.39C159.23 497.168 119.127 476.872 86.0899 447.49V306.38H60.0899C55.9913 306.379 51.9969 305.089 48.6729 302.691C45.349 300.293 42.8641 296.909 41.5707 293.02C40.2773 289.131 40.2408 284.933 41.4666 281.022C42.6923 277.111 45.1181 273.685 48.3999 271.23C48.8993 270.871 49.4167 270.537 49.9499 270.23C50.4846 269.906 51.0353 269.609 51.5999 269.34C52.5439 268.884 53.5239 268.506 54.5299 268.21C54.9864 268.068 55.4504 267.951 55.9199 267.86C56.0473 267.822 56.1778 267.795 56.3099 267.78C56.8481 267.666 57.3923 267.582 57.9399 267.53C58.647 267.45 59.3582 267.41 60.0699 267.41H86.0699V254.41H60.0699C55.4051 254.406 50.8959 252.731 47.3591 249.69C43.8223 246.648 41.4917 242.441 40.7893 237.829C40.087 233.217 41.0594 228.507 43.5305 224.55C46.0015 220.593 49.8078 217.652 54.2599 216.26C54.871 216.067 55.4918 215.907 56.1199 215.78C56.7532 215.647 57.3932 215.547 58.0399 215.48C58.7044 215.412 59.3719 215.378 60.0399 215.38H86.0399C86.0399 214.29 86.0399 213.2 86.0399 212.12C86.1132 208.86 86.2732 205.63 86.5199 202.43H60.0699C57.4348 202.549 54.8029 202.133 52.333 201.207C49.8632 200.281 47.6067 198.864 45.6997 197.042C43.7928 195.219 42.275 193.029 41.2381 190.604C40.2011 188.178 39.6665 185.568 39.6665 182.93C39.6665 180.292 40.2011 177.682 41.2381 175.256C42.275 172.831 43.7928 170.641 45.6997 168.818C47.6067 166.996 49.8632 165.579 52.333 164.653C54.8029 163.727 57.4348 163.311 60.0699 163.43H90.9999C92.0658 163.436 93.1293 163.53 94.1799 163.71C94.5299 162.63 94.8799 161.56 95.2499 160.49C97.7959 153.066 100.85 145.825 104.39 138.82C104.9 137.82 105.39 136.82 105.94 135.82C107.5 132.867 109.143 129.97 110.87 127.13C112.537 124.39 114.28 121.7 116.1 119.06C116.79 118.06 117.5 117.06 118.21 116.06C121.615 111.333 125.26 106.784 129.13 102.43C130.39 101 131.69 99.58 133 98.19C134.527 96.59 136.077 95.02 137.65 93.48C138.45 92.7 139.25 91.94 140.05 91.19C141.657 89.67 143.293 88.19 144.96 86.75C146.627 85.31 148.323 83.8933 150.05 82.5C151.77 81.1066 153.52 79.7533 155.3 78.44C157.08 77.1266 158.883 75.8466 160.71 74.6C161.57 74.01 162.44 73.43 163.31 72.85L163.47 72.75C164.4 72.14 165.33 71.54 166.27 70.95C167.21 70.36 168.16 69.78 169.11 69.21C170.91 68.1166 172.73 67.0666 174.57 66.06C174.81 65.93 175.05 65.79 175.29 65.67C176.14 65.2 176.98 64.75 177.84 64.3C178.7 63.85 179.84 63.3 180.84 62.78C181.67 62.36 182.51 61.95 183.35 61.55L184.17 61.16C184.95 60.79 185.74 60.43 186.53 60.08C188.19 59.32 189.857 58.5933 191.53 57.9L193.7 57C195.273 56.38 196.85 55.78 198.43 55.2L200.43 54.47L201.1 54.24L203.1 53.56C204.67 53.04 206.26 52.56 207.85 52.06L210.2 51.38H210.33C215.962 49.7861 221.673 48.4844 227.44 47.48C207.73 78.84 191.69 117.1 180.58 160.08C178.687 167.413 176.94 174.873 175.34 182.46C174.83 184.87 174.34 187.29 173.86 189.73C172.973 194.25 172.137 198.81 171.35 203.41C170.51 208.47 169.727 213.593 169 218.78C168.333 223.34 167.743 227.933 167.23 232.56C166.95 234.99 166.68 237.42 166.43 239.87C165.83 245.663 165.317 251.507 164.89 257.4C164.223 266.453 163.773 275.613 163.54 284.88C163.393 290.213 163.32 295.563 163.32 300.93C163.313 315.543 163.823 329.927 164.85 344.08Z" fill="#32314B"/>
<path d="M400.85 365.91C411.001 365.91 419.23 357.681 419.23 347.53C419.23 337.379 411.001 329.15 400.85 329.15C390.699 329.15 382.47 337.379 382.47 347.53C382.47 357.681 390.699 365.91 400.85 365.91Z" fill="#4F4F74"/>
<path d="M400.85 322.26C408.041 322.26 413.87 316.431 413.87 309.24C413.87 302.049 408.041 296.22 400.85 296.22C393.659 296.22 387.83 302.049 387.83 309.24C387.83 316.431 393.659 322.26 400.85 322.26Z" fill="#4F4F74"/>
<path d="M141.21 114.44L106.11 79.34C111.864 71.0745 114.411 60.9965 113.275 50.9897C112.139 40.9829 107.398 31.7323 99.9372 24.9669C92.477 18.2015 82.8083 14.3844 72.7384 14.2291C62.6686 14.0737 52.8867 17.5908 45.2213 24.1229C37.556 30.655 32.5316 39.755 31.0875 49.722C29.6434 59.6889 31.8783 69.8407 37.3746 78.2798C42.8708 86.7188 51.2521 92.8676 60.952 95.5767C70.6518 98.2858 81.0063 97.3698 90.08 93L126.38 129.3C127.353 130.275 128.509 131.048 129.781 131.575C131.054 132.103 132.418 132.374 133.795 132.374C135.172 132.374 136.536 132.103 137.808 131.575C139.081 131.048 140.237 130.275 141.21 129.3C142.189 128.326 142.966 127.168 143.496 125.893C144.026 124.618 144.299 123.251 144.299 121.87C144.299 120.489 144.026 119.122 143.496 117.847C142.966 116.572 142.189 115.414 141.21 114.44Z" fill="#366FCA"/>
<path d="M370.79 114.44L405.89 79.34C400.129 71.0769 397.575 60.9984 398.706 50.9891C399.837 40.9799 404.574 31.7251 412.033 24.9552C419.492 18.1854 429.161 14.3641 439.233 14.2058C449.305 14.0475 459.089 17.5631 466.757 24.0951C474.425 30.6272 479.451 39.7285 480.896 49.6973C482.34 59.6661 480.105 69.8199 474.606 78.2599C469.108 86.7 460.724 92.8485 451.022 95.5559C441.32 98.2632 430.964 97.3439 421.89 92.97L385.59 129.27C384.616 130.244 383.461 131.018 382.188 131.545C380.916 132.073 379.552 132.344 378.175 132.344C376.797 132.344 375.434 132.073 374.161 131.545C372.889 131.018 371.733 130.244 370.76 129.27C369.787 128.295 369.016 127.137 368.492 125.864C367.967 124.59 367.698 123.226 367.701 121.849C367.703 120.471 367.978 119.108 368.508 117.837C369.038 116.566 369.813 115.411 370.79 114.44Z" fill="#366FCA"/>
<path d="M167.81 257.48C195.181 257.48 217.37 235.291 217.37 207.92C217.37 180.549 195.181 158.36 167.81 158.36C140.439 158.36 118.25 180.549 118.25 207.92C118.25 235.291 140.439 257.48 167.81 257.48Z" fill="white"/>
<path d="M167.81 239.91C183.964 239.91 197.06 226.814 197.06 210.66C197.06 194.506 183.964 181.41 167.81 181.41C151.656 181.41 138.56 194.506 138.56 210.66C138.56 226.814 151.656 239.91 167.81 239.91Z" fill="#B0D46C"/>
<path d="M167.55 232.57C179.65 232.57 189.46 222.761 189.46 210.66C189.46 198.559 179.65 188.75 167.55 188.75C155.449 188.75 145.64 198.559 145.64 210.66C145.64 222.761 155.449 232.57 167.55 232.57Z" fill="#27273D"/>
<path d="M180.59 202.42C184.362 202.42 187.42 199.362 187.42 195.59C187.42 191.818 184.362 188.76 180.59 188.76C176.818 188.76 173.76 191.818 173.76 195.59C173.76 199.362 176.818 202.42 180.59 202.42Z" fill="white"/>
<path d="M167.55 218.9C172.101 218.9 175.79 215.211 175.79 210.66C175.79 206.109 172.101 202.42 167.55 202.42C162.999 202.42 159.31 206.109 159.31 210.66C159.31 215.211 162.999 218.9 167.55 218.9Z" fill="white"/>
<path d="M342.34 257.48C369.711 257.48 391.9 235.291 391.9 207.92C391.9 180.549 369.711 158.36 342.34 158.36C314.969 158.36 292.78 180.549 292.78 207.92C292.78 235.291 314.969 257.48 342.34 257.48Z" fill="white"/>
<path d="M342.34 239.91C358.494 239.91 371.59 226.814 371.59 210.66C371.59 194.506 358.494 181.41 342.34 181.41C326.186 181.41 313.09 194.506 313.09 210.66C313.09 226.814 326.186 239.91 342.34 239.91Z" fill="#B0D46C"/>
<path d="M342.07 232.57C354.171 232.57 363.98 222.761 363.98 210.66C363.98 198.559 354.171 188.75 342.07 188.75C329.97 188.75 320.16 198.559 320.16 210.66C320.16 222.761 329.97 232.57 342.07 232.57Z" fill="#27273D"/>
<path d="M355.12 202.42C358.892 202.42 361.95 199.362 361.95 195.59C361.95 191.818 358.892 188.76 355.12 188.76C351.348 188.76 348.29 191.818 348.29 195.59C348.29 199.362 351.348 202.42 355.12 202.42Z" fill="white"/>
<path d="M342.07 218.9C346.621 218.9 350.31 215.211 350.31 210.66C350.31 206.109 346.621 202.42 342.07 202.42C337.519 202.42 333.83 206.109 333.83 210.66C333.83 215.211 337.519 218.9 342.07 218.9Z" fill="white"/>
<path d="M366.77 284.88V291.22C366.771 303.557 364.342 315.773 359.622 327.171C354.902 338.569 347.982 348.925 339.259 357.649C330.535 366.372 320.179 373.291 308.781 378.012C297.383 382.732 285.167 385.161 272.83 385.16H242.51C230.174 385.161 217.958 382.732 206.561 378.012C195.163 373.291 184.808 366.371 176.085 357.648C167.362 348.924 160.444 338.568 155.725 327.17C151.005 315.772 148.577 303.556 148.58 291.22V284.88H366.77Z" fill="#27273D"/>
<path d="M344.79 351.61C335.977 362.132 324.961 370.591 312.519 376.388C300.078 382.186 286.516 385.18 272.79 385.16H242.51C228.784 385.18 215.222 382.186 202.781 376.388C190.339 370.591 179.323 362.132 170.51 351.61C179.319 341.082 190.334 332.619 202.776 326.82C215.218 321.02 228.783 318.026 242.51 318.05H272.83C286.55 318.032 300.107 321.029 312.542 326.828C324.976 332.627 335.985 341.087 344.79 351.61Z" fill="#DB1B1B"/>
<path d="M187.42 284.71H217.37V294.26C217.37 298.238 215.79 302.054 212.976 304.867C210.163 307.68 206.348 309.26 202.37 309.26C198.392 309.26 194.576 307.68 191.763 304.867C188.95 302.054 187.37 298.238 187.37 294.26V284.71H187.42Z" fill="white"/>
<path d="M298.12 284.71H328.07V294.26C328.07 298.238 326.489 302.054 323.676 304.867C320.863 307.68 317.048 309.26 313.07 309.26C309.092 309.26 305.276 307.68 302.463 304.867C299.65 302.054 298.07 298.238 298.07 294.26V284.71H298.12Z" fill="white"/>
</g>
<defs>
<clipPath id="clip0_809_1389">
<rect width="512" height="512" fill="white"/>
</clipPath>
</defs>
</svg>
