<svg width="512" height="512" viewBox="0 0 512 512" fill="none" xmlns="http://www.w3.org/2000/svg">
<g clip-path="url(#clip0_809_1997)">
<path d="M256 512C397.385 512 512 397.385 512 256C512 114.615 397.385 0 256 0C114.615 0 0 114.615 0 256C0 397.385 114.615 512 256 512Z" fill="#F7BB38"/>
<path d="M318.77 414V504.25C276.288 514.906 231.792 514.562 189.48 503.25V414H318.77Z" fill="#A3B564"/>
<path d="M318.77 413.99H189.48V473.41H318.77V413.99Z" fill="#95A35A"/>
<path d="M453.43 147.77L477 149.6L461.32 140L463 125.9L444.67 126L437.58 116.41L435.54 131C423.634 121.122 410.77 112.459 397.14 105.14L443.36 95.37L406 85.32L401.1 55.9L364.19 67L344.19 51.86L349.06 85.17C321.039 76.6739 291.911 72.3904 262.63 72.46C254.577 72.46 246.633 72.77 238.8 73.39L239.57 73.14L254.96 53.14L238.36 61L227.48 51.87L217.55 67.28L205.65 67.98L215 76.16C177.2 82.16 142.68 95.27 113.76 113.55L127.17 71.14L100.04 98.74L72 88.53L63.47 126.08L40.47 136.01L71.59 148.07C66.4277 153.548 61.5958 159.328 57.12 165.38L54.28 147.68L48.64 165.22L34.53 166.86L38.92 184.66L31.26 193.8L40.56 192.91C30.7847 213.127 25.6853 235.284 25.64 257.74C25.64 360.1 131.75 443.08 262.64 443.08C393.53 443.08 499.64 360.08 499.64 257.74C499.66 216.57 482.48 178.53 453.43 147.77Z" fill="#C6E580"/>
<path d="M256 443C128.2 440.23 25.6801 358.34 25.6801 257.74C25.7252 235.281 30.8245 213.12 40.6001 192.9L31.3001 193.8L39.0001 184.67L34.6001 166.87L48.7101 165.22L54.3601 147.69L57.2001 165.38C61.6719 159.328 66.5005 153.548 71.6601 148.07L40.4901 136L63.4901 126.07L72.0001 88.54L100 98.75L127.13 71.15L113.73 113.56C122.102 108.271 130.785 103.489 139.73 99.24C113.84 176.53 113.32 296.15 256 443Z" fill="#BAD376"/>
<path d="M276.17 351.09H232.19C212.772 351.09 197.03 366.832 197.03 386.25C197.03 405.668 212.772 421.41 232.19 421.41H276.17C295.588 421.41 311.33 405.668 311.33 386.25C311.33 366.832 295.588 351.09 276.17 351.09Z" fill="#27273D"/>
<path d="M144.81 334.01C195.261 334.01 236.16 293.111 236.16 242.66C236.16 192.209 195.261 151.31 144.81 151.31C94.3587 151.31 53.46 192.209 53.46 242.66C53.46 293.111 94.3587 334.01 144.81 334.01Z" fill="white"/>
<path d="M144.81 279.65C166.106 279.65 183.37 262.386 183.37 241.09C183.37 219.794 166.106 202.53 144.81 202.53C123.514 202.53 106.25 219.794 106.25 241.09C106.25 262.386 123.514 279.65 144.81 279.65Z" fill="#3586CB"/>
<path d="M144.46 269.98C160.416 269.98 173.35 257.046 173.35 241.09C173.35 225.134 160.416 212.2 144.46 212.2C128.505 212.2 115.57 225.134 115.57 241.09C115.57 257.046 128.505 269.98 144.46 269.98Z" fill="#27273D"/>
<path d="M161.66 230.22C166.636 230.22 170.67 226.186 170.67 221.21C170.67 216.234 166.636 212.2 161.66 212.2C156.684 212.2 152.65 216.234 152.65 221.21C152.65 226.186 156.684 230.22 161.66 230.22Z" fill="white"/>
<path d="M144.46 251.96C150.463 251.96 155.33 247.093 155.33 241.09C155.33 235.087 150.463 230.22 144.46 230.22C138.457 230.22 133.59 235.087 133.59 241.09C133.59 247.093 138.457 251.96 144.46 251.96Z" fill="white"/>
<path d="M367.12 334.01C417.571 334.01 458.47 293.111 458.47 242.66C458.47 192.209 417.571 151.31 367.12 151.31C316.669 151.31 275.77 192.209 275.77 242.66C275.77 293.111 316.669 334.01 367.12 334.01Z" fill="white"/>
<path d="M367.12 279.65C388.416 279.65 405.68 262.386 405.68 241.09C405.68 219.794 388.416 202.53 367.12 202.53C345.824 202.53 328.56 219.794 328.56 241.09C328.56 262.386 345.824 279.65 367.12 279.65Z" fill="#3586CB"/>
<path d="M366.77 269.98C382.725 269.98 395.66 257.046 395.66 241.09C395.66 225.134 382.725 212.2 366.77 212.2C350.814 212.2 337.88 225.134 337.88 241.09C337.88 257.046 350.814 269.98 366.77 269.98Z" fill="#27273D"/>
<path d="M383.97 230.22C388.946 230.22 392.98 226.186 392.98 221.21C392.98 216.234 388.946 212.2 383.97 212.2C378.994 212.2 374.96 216.234 374.96 221.21C374.96 226.186 378.994 230.22 383.97 230.22Z" fill="white"/>
<path d="M366.77 251.96C372.773 251.96 377.64 247.093 377.64 241.09C377.64 235.087 372.773 230.22 366.77 230.22C360.767 230.22 355.9 235.087 355.9 241.09C355.9 247.093 360.767 251.96 366.77 251.96Z" fill="white"/>
<path d="M302 328.48C302 329.48 302 330.4 301.91 331.34C301.205 343.487 295.884 354.905 287.034 363.256C278.185 371.607 266.478 376.259 254.31 376.259C242.142 376.259 230.435 371.607 221.586 363.256C212.736 354.905 207.415 343.487 206.71 331.34C206.65 330.4 206.62 329.44 206.62 328.48C206.81 321.693 207.539 314.932 208.8 308.26C210 301.4 211.66 293.75 213.71 285.9C215.71 278.23 218.08 270.36 220.78 262.82C229.4 238.71 241.24 217.98 254.31 217.98C267.38 217.98 279.22 238.71 287.84 262.82C290.54 270.36 292.91 278.23 294.91 285.9C296.96 293.75 298.62 301.4 299.82 308.26C301.081 314.932 301.81 321.693 302 328.48Z" fill="#E82D86"/>
<path d="M266 374.65C259.182 376.42 252.057 376.658 245.137 375.347C238.216 374.036 231.672 371.209 225.973 367.068C220.275 362.927 215.565 357.576 212.181 351.399C208.796 345.221 206.822 338.371 206.4 331.34C206.34 330.4 206.31 329.44 206.31 328.48C206.5 321.693 207.229 314.932 208.49 308.26C209.69 301.4 211.35 293.75 213.4 285.9C215.4 278.23 217.77 270.36 220.47 262.82C229.09 238.71 240.93 218 254 218C258.14 218 262.17 220.09 266 223.7C257.74 231.49 250.36 246.38 244.47 262.84C241.77 270.38 239.4 278.25 237.4 285.92C235.35 293.77 233.69 301.42 232.49 308.28C231.229 314.952 230.5 321.713 230.31 328.5C230.31 329.5 230.31 330.42 230.4 331.36C231.009 341.408 234.781 351.007 241.175 358.782C247.569 366.558 256.258 372.112 266 374.65Z" fill="#CE257E"/>
<path d="M295 285.9H213.8C215.8 278.23 218.17 270.36 220.87 262.82H287.93C290.58 270.36 293 278.23 295 285.9Z" fill="#F7BB38"/>
<path d="M302 328.48C302 329.48 302 330.4 301.91 331.34H206.71C206.65 330.4 206.62 329.44 206.62 328.48C206.81 321.693 207.539 314.932 208.8 308.26H299.8C301.068 314.931 301.803 321.692 302 328.48Z" fill="#F7BB38"/>
<path d="M244.47 262.82C241.77 270.36 239.4 278.23 237.4 285.9H213.4C215.4 278.23 217.77 270.36 220.47 262.82H244.47Z" fill="#E0A42D"/>
<path d="M230.31 328.48C230.31 329.48 230.31 330.4 230.4 331.34H206.4C206.34 330.4 206.31 329.44 206.31 328.48C206.5 321.693 207.229 314.932 208.49 308.26H232.49C231.229 314.932 230.5 321.693 230.31 328.48Z" fill="#E0A42D"/>
<path d="M253.91 386.25C256.241 386.25 258.549 386.709 260.703 387.601C262.856 388.493 264.813 389.801 266.461 391.449C268.109 393.097 269.417 395.054 270.309 397.207C271.201 399.361 271.66 401.669 271.66 404V421.41H236.16V404C236.16 399.292 238.03 394.778 241.359 391.449C244.688 388.12 249.202 386.25 253.91 386.25Z" fill="white"/>
<path d="M144.46 390.71C163.183 390.71 178.36 379.925 178.36 366.62C178.36 353.315 163.183 342.53 144.46 342.53C125.738 342.53 110.56 353.315 110.56 366.62C110.56 379.925 125.738 390.71 144.46 390.71Z" fill="#FC715A"/>
<path d="M367.12 390.71C385.842 390.71 401.02 379.925 401.02 366.62C401.02 353.315 385.842 342.53 367.12 342.53C348.398 342.53 333.22 353.315 333.22 366.62C333.22 379.925 348.398 390.71 367.12 390.71Z" fill="#FC715A"/>
<path d="M253.91 154C269.473 154 282.09 147.32 282.09 139.08C282.09 130.84 269.473 124.16 253.91 124.16C238.347 124.16 225.73 130.84 225.73 139.08C225.73 147.32 238.347 154 253.91 154Z" fill="#D9ED9F"/>
<path d="M328.56 127.77C340.412 127.77 350.02 122.684 350.02 116.41C350.02 110.136 340.412 105.05 328.56 105.05C316.708 105.05 307.1 110.136 307.1 116.41C307.1 122.684 316.708 127.77 328.56 127.77Z" fill="#D9ED9F"/>
<path d="M192.13 127.77C203.982 127.77 213.59 122.684 213.59 116.41C213.59 110.136 203.982 105.05 192.13 105.05C180.278 105.05 170.67 110.136 170.67 116.41C170.67 122.684 180.278 127.77 192.13 127.77Z" fill="#D9ED9F"/>
<path d="M260.15 113.31C268.771 113.31 275.76 109.612 275.76 105.05C275.76 100.488 268.771 96.79 260.15 96.79C251.529 96.79 244.54 100.488 244.54 105.05C244.54 109.612 251.529 113.31 260.15 113.31Z" fill="#D9ED9F"/>
</g>
<defs>
<clipPath id="clip0_809_1997">
<rect width="512" height="512" fill="white"/>
</clipPath>
</defs>
</svg>
