<svg width="512" height="512" viewBox="0 0 512 512" fill="none" xmlns="http://www.w3.org/2000/svg">
<g clip-path="url(#clip0_809_1896)">
<path d="M256 512C397.385 512 512 397.385 512 256C512 114.615 397.385 0 256 0C114.615 0 0 114.615 0 256C0 397.385 114.615 512 256 512Z" fill="#F55B4B"/>
<path d="M159 66.6401C165.765 80.0531 167.01 95.5809 162.471 109.901C157.931 124.221 147.967 136.195 134.71 143.261C121.454 150.327 105.958 151.923 91.5394 147.709C77.1206 143.494 64.9241 133.803 57.5601 120.71C42.6601 92.7301 81.3001 43.0001 81.3001 43.0001C81.3001 43.0001 144.12 38.6601 159 66.6401Z" fill="#3586CB"/>
<path d="M127.12 77.8299C130.192 83.8378 130.78 90.8122 128.757 97.2495C126.734 103.687 122.263 109.071 116.307 112.242C110.351 115.413 103.387 116.117 96.9169 114.201C90.447 112.285 84.9891 107.903 81.72 102C75.05 89.4999 92.34 67.2499 92.34 67.2499C92.34 67.2499 120.45 65.3099 127.12 77.8299Z" fill="#366FCA"/>
<path d="M354.22 66.6401C347.05 80.0945 345.518 95.8462 349.962 110.43C354.406 125.014 364.461 137.235 377.915 144.405C391.369 151.575 407.121 153.107 421.705 148.663C436.289 144.22 448.51 134.165 455.68 120.71C470.59 92.7101 431.94 43.0101 431.94 43.0101C431.94 43.0101 369.12 38.6601 354.22 66.6401Z" fill="#3586CB"/>
<path d="M386.12 77.83C383.048 83.8379 382.46 90.8123 384.483 97.2496C386.506 103.687 390.978 109.071 396.934 112.242C402.89 115.413 409.854 116.117 416.323 114.201C422.793 112.285 428.251 107.903 431.52 102C438.19 89.48 420.9 67.23 420.9 67.23C420.9 67.23 392.79 65.31 386.12 77.83Z" fill="#366FCA"/>
<path d="M488.48 235.75C488.503 253.347 484.244 270.686 476.07 286.27L315.44 505.06C285.675 512.096 254.897 513.789 224.54 510.06C214.861 508.881 205.258 507.141 195.78 504.85C195.41 504.77 195.04 504.68 194.68 504.58L37.0601 290.84C27.3603 274.28 22.2048 255.452 22.115 236.26C22.0251 217.069 27.0041 198.193 36.5484 181.543C46.0928 164.893 59.8641 151.058 76.4702 141.436C93.0762 131.815 111.928 126.749 131.12 126.75H131.66C136.838 126.771 142.007 127.158 147.13 127.91V127.79C147.13 127.44 147.13 127.09 147.13 126.79C147.13 97.8814 158.614 70.1569 179.055 49.7154C199.497 29.2739 227.222 17.79 256.13 17.79H256.59C285.424 17.8959 313.04 29.4284 333.385 49.8602C353.731 70.2919 365.146 97.9561 365.13 126.79C365.13 127.1 365.13 127.42 365.13 127.73C369.894 127.102 374.695 126.788 379.5 126.79C393.814 126.79 407.988 129.609 421.213 135.087C434.437 140.565 446.453 148.594 456.575 158.715C466.696 168.837 474.725 180.853 480.203 194.078C485.681 207.302 488.5 221.476 488.5 235.79L488.48 235.75Z" fill="#41C0E3"/>
<path d="M304 28.39L302.76 28.23C298.197 27.6388 293.601 27.3449 289 27.35C260.091 27.35 232.367 38.8339 211.925 59.2753C191.484 79.7168 180 107.441 180 136.35C180 136.74 180 137.13 180 137.53C178.213 137.27 176.413 137.05 174.6 136.87C171.11 136.53 167.6 136.35 163.99 136.35C161.61 136.35 159.24 136.43 156.9 136.59C152.805 136.841 148.728 137.329 144.69 138.05C127.421 141.164 111.159 148.402 97.2863 159.148C83.4137 169.894 72.3406 183.83 65.0081 199.772C57.6755 215.715 54.3004 233.192 55.1695 250.718C56.0385 268.244 61.1262 285.301 69.9999 300.44L71.2299 302.11L71.9999 303.11L224.54 510.08C214.861 508.901 205.258 507.161 195.78 504.87L37.9999 290.84C28.3179 274.306 23.165 255.513 23.0607 236.353C22.9564 217.193 27.9042 198.344 37.4057 181.706C46.9071 165.068 60.6264 151.229 77.1808 141.582C93.7353 131.936 112.54 126.823 131.7 126.76H132C137.05 126.743 142.096 127.077 147.1 127.76C147.41 127.76 147.71 127.84 148.01 127.88C148.01 127.49 148.01 127.1 148.01 126.71C148.01 97.8792 159.432 70.2226 179.776 49.794C200.12 29.3654 227.729 17.829 256.56 17.71H257C273.269 17.7002 289.332 21.3503 304 28.39Z" fill="#3EB3CE"/>
<path d="M324.109 200.959C362.38 162.688 362.38 100.638 324.109 62.3664C285.838 24.095 223.788 24.095 185.516 62.3664C147.245 100.638 147.245 162.688 185.516 200.959C223.788 239.231 285.838 239.231 324.109 200.959Z" fill="#3EB3CE"/>
<path d="M255.3 212.5C299.941 212.5 336.13 176.311 336.13 131.67C336.13 87.0289 299.941 50.8401 255.3 50.8401C210.659 50.8401 174.47 87.0289 174.47 131.67C174.47 176.311 210.659 212.5 255.3 212.5Z" fill="white"/>
<path d="M255.3 183.85C281.65 183.85 303.01 162.489 303.01 136.14C303.01 109.79 281.65 88.4299 255.3 88.4299C228.951 88.4299 207.59 109.79 207.59 136.14C207.59 162.489 228.951 183.85 255.3 183.85Z" fill="#3586CB"/>
<path d="M254.86 171.88C274.599 171.88 290.6 155.879 290.6 136.14C290.6 116.401 274.599 100.4 254.86 100.4C235.121 100.4 219.12 116.401 219.12 136.14C219.12 155.879 235.121 171.88 254.86 171.88Z" fill="#27273D"/>
<path d="M276.14 122.69C282.298 122.69 287.29 117.698 287.29 111.54C287.29 105.382 282.298 100.39 276.14 100.39C269.982 100.39 264.99 105.382 264.99 111.54C264.99 117.698 269.982 122.69 276.14 122.69Z" fill="white"/>
<path d="M254.86 149.59C262.288 149.59 268.31 143.568 268.31 136.14C268.31 128.712 262.288 122.69 254.86 122.69C247.432 122.69 241.41 128.712 241.41 136.14C241.41 143.568 247.432 149.59 254.86 149.59Z" fill="white"/>
<path d="M223.12 352.5L249.53 422.5C249.933 423.57 250.652 424.491 251.592 425.142C252.531 425.792 253.647 426.141 254.79 426.141C255.933 426.141 257.049 425.792 257.989 425.142C258.929 424.491 259.648 423.57 260.05 422.5L286.12 352.5H223.12Z" fill="white"/>
<path d="M293.18 350.39L343.77 405.49C344.542 406.335 345.554 406.924 346.67 407.177C347.786 407.431 348.953 407.337 350.014 406.908C351.075 406.479 351.98 405.736 352.607 404.778C353.233 403.821 353.552 402.694 353.52 401.55L351.65 326.91L293.18 350.39Z" fill="white"/>
<path d="M217.15 350.39L166.57 405.49C165.798 406.335 164.786 406.924 163.67 407.177C162.554 407.431 161.387 407.337 160.326 406.908C159.265 406.479 158.36 405.736 157.734 404.778C157.107 403.821 156.788 402.694 156.82 401.55L158.69 326.91L217.15 350.39Z" fill="white"/>
<path d="M158.35 324.67L111.82 348C111.106 348.361 110.299 348.494 109.507 348.381C108.716 348.269 107.977 347.917 107.392 347.372C106.807 346.827 106.403 346.116 106.234 345.334C106.066 344.552 106.141 343.738 106.45 343L126.16 294.94L158.35 324.67Z" fill="white"/>
<path d="M126.59 295.08L75.3602 304.18C74.5769 304.323 73.7687 304.222 73.0442 303.892C72.3198 303.561 71.7138 303.017 71.3077 302.332C70.9016 301.648 70.7148 300.855 70.7724 300.061C70.8301 299.267 71.1294 298.509 71.6302 297.89L104.18 257.41L126.59 295.08Z" fill="white"/>
<path d="M353.52 324.67L400.06 348C400.773 348.357 401.579 348.488 402.369 348.374C403.159 348.26 403.894 347.907 404.478 347.363C405.061 346.819 405.464 346.109 405.633 345.329C405.801 344.549 405.727 343.736 405.42 343L385.72 294.94L353.52 324.67Z" fill="white"/>
<path d="M385.28 295.08L436.52 304.18C437.302 304.317 438.107 304.212 438.828 303.881C439.549 303.549 440.152 303.006 440.557 302.323C440.962 301.64 441.149 300.851 441.094 300.059C441.04 299.267 440.745 298.511 440.25 297.89L407.69 257.41L385.28 295.08Z" fill="white"/>
<path d="M255.3 361.63C159.12 361.63 80.8701 283.38 80.8701 187.2C80.8701 185.211 81.6603 183.303 83.0668 181.897C84.4733 180.49 86.381 179.7 88.3701 179.7C90.3592 179.7 92.2669 180.49 93.6734 181.897C95.0799 183.303 95.8701 185.211 95.8701 187.2C95.8701 275.11 167.39 346.63 255.3 346.63C343.21 346.63 414.73 275.11 414.73 187.2C414.73 185.211 415.52 183.303 416.927 181.897C418.333 180.49 420.241 179.7 422.23 179.7C424.219 179.7 426.127 180.49 427.533 181.897C428.94 183.303 429.73 185.211 429.73 187.2C429.73 283.38 351.48 361.63 255.3 361.63Z" fill="#3586CB"/>
<path d="M172.49 235.06C177.439 235.06 181.45 231.049 181.45 226.1C181.45 221.152 177.439 217.14 172.49 217.14C167.542 217.14 163.53 221.152 163.53 226.1C163.53 231.049 167.542 235.06 172.49 235.06Z" fill="#FCC8BC"/>
<path d="M159.05 289.52C163.999 289.52 168.01 285.509 168.01 280.56C168.01 275.612 163.999 271.6 159.05 271.6C154.102 271.6 150.09 275.612 150.09 280.56C150.09 285.509 154.102 289.52 159.05 289.52Z" fill="#FCC8BC"/>
<path d="M145.39 262.44C152.94 262.44 159.06 256.32 159.06 248.77C159.06 241.22 152.94 235.1 145.39 235.1C137.84 235.1 131.72 241.22 131.72 248.77C131.72 256.32 137.84 262.44 145.39 262.44Z" fill="#FCC8BC"/>
<path d="M186.16 271.44C193.71 271.44 199.83 265.32 199.83 257.77C199.83 250.22 193.71 244.1 186.16 244.1C178.61 244.1 172.49 250.22 172.49 257.77C172.49 265.32 178.61 271.44 186.16 271.44Z" fill="#FCC8BC"/>
<path d="M340.75 235.06C345.699 235.06 349.71 231.049 349.71 226.1C349.71 221.152 345.699 217.14 340.75 217.14C335.802 217.14 331.79 221.152 331.79 226.1C331.79 231.049 335.802 235.06 340.75 235.06Z" fill="#FCC8BC"/>
<path d="M354.19 289.52C359.138 289.52 363.15 285.509 363.15 280.56C363.15 275.612 359.138 271.6 354.19 271.6C349.242 271.6 345.23 275.612 345.23 280.56C345.23 285.509 349.242 289.52 354.19 289.52Z" fill="#FCC8BC"/>
<path d="M367.86 262.44C375.41 262.44 381.53 256.32 381.53 248.77C381.53 241.22 375.41 235.1 367.86 235.1C360.31 235.1 354.19 241.22 354.19 248.77C354.19 256.32 360.31 262.44 367.86 262.44Z" fill="#FCC8BC"/>
<path d="M327.08 271.44C334.63 271.44 340.75 265.32 340.75 257.77C340.75 250.22 334.63 244.1 327.08 244.1C319.53 244.1 313.41 250.22 313.41 257.77C313.41 265.32 319.53 271.44 327.08 271.44Z" fill="#FCC8BC"/>
<path d="M217.15 227.6C217.15 248.67 234.23 295.83 255.3 295.83C276.37 295.83 293.44 248.67 293.44 227.6C293.278 217.59 289.188 208.045 282.052 201.024C274.916 194.003 265.306 190.068 255.295 190.068C245.284 190.068 235.674 194.003 228.538 201.024C221.402 208.045 217.312 217.59 217.15 227.6Z" fill="#DB1B1B"/>
</g>
<defs>
<clipPath id="clip0_809_1896">
<rect width="512" height="512" fill="white"/>
</clipPath>
</defs>
</svg>
