<svg width="512" height="512" viewBox="0 0 512 512" fill="none" xmlns="http://www.w3.org/2000/svg">
<g clip-path="url(#clip0_809_1436)">
<path d="M256 512C397.385 512 512 397.385 512 256C512 114.615 397.385 0 256 0C114.615 0 0 114.615 0 256C0 397.385 114.615 512 256 512Z" fill="#27273D"/>
<path d="M424.31 270.82C433.052 295.662 437.493 321.814 437.44 348.15C437.44 390.54 426.25 429.93 407.05 462.71C363.484 494.609 310.938 511.896 256.944 512.093C202.949 512.291 150.278 495.389 106.48 463.81C86.88 430.81 75.4799 391.01 75.4799 348.15C75.4449 325.012 78.8626 301.999 85.6199 279.87C86.5599 276.817 87.5599 273.8 88.6199 270.82C87.6199 270.37 86.7099 269.91 85.7599 269.43C84.8099 268.95 83.8899 268.43 82.9699 267.95C81.1199 266.95 79.3099 265.84 77.5399 264.69C62.335 254.83 50.4549 240.617 43.4497 223.904C36.4445 207.191 34.6394 188.754 38.2699 171C38.5699 169.54 38.8999 168.09 39.2699 166.65C39.6399 165.21 40.0499 163.79 40.4899 162.38C41.1399 160.27 41.8799 158.18 42.6799 156.14C43.2199 154.78 43.7899 153.43 44.3899 152.14C45.8917 148.832 47.588 145.617 49.4699 142.51C50.2199 141.28 50.9999 140.06 51.8099 138.86C52.6199 137.66 53.4599 136.49 54.3199 135.33C55.1799 134.17 56.0799 133 56.9999 131.9C65.4365 121.648 76.0406 113.393 88.0494 107.731C100.058 102.068 113.173 99.1371 126.45 99.1499C129.45 99.1499 132.4 99.2999 135.32 99.5799C137.26 99.7799 139.19 100.03 141.09 100.34C143.95 100.81 146.77 101.42 149.53 102.15C149.48 101.15 149.45 100.15 149.45 99.1499C149.45 81.3804 156.509 64.3387 169.074 51.7737C181.639 39.2088 198.68 32.1499 216.45 32.1499H218.25H218.9H219.06C219.62 32.1499 220.18 32.1799 220.74 32.2399C221.32 32.2399 221.9 32.3199 222.48 32.3699L223.1 32.4299C223.73 32.4899 224.35 32.5599 224.97 32.6399C225.59 32.7199 225.97 32.7699 226.46 32.8499H226.74L227.62 32.9899L228.56 33.1499L229.56 33.3399C230.1 33.4399 230.65 33.5599 231.19 33.6799C231.73 33.7999 232.38 33.9499 232.97 34.0999C233.78 34.3099 234.59 34.5299 235.39 34.7599L237.15 35.3099C237.81 35.5199 238.45 35.7399 239.09 35.9699C239.73 36.1999 240.22 36.3799 240.78 36.5999C241.49 36.8799 242.19 37.1699 242.89 37.4699C244.14 37.9999 245.36 38.5699 246.57 39.1799C247.17 39.4899 247.77 39.7999 248.36 40.1199C261.956 47.4922 272.594 59.3275 278.48 73.6299C287.744 64.3793 299.179 57.5983 311.74 53.9068C324.301 50.2153 337.586 49.7309 350.383 52.498C363.179 55.2652 375.077 61.1955 384.991 69.7469C394.904 78.2983 402.516 89.1981 407.13 101.45C425.361 105.735 441.801 115.6 454.16 129.671C466.518 143.742 474.18 161.318 476.076 179.949C477.972 198.581 474.009 217.34 464.739 233.612C455.469 249.884 441.354 262.86 424.36 270.73L424.31 270.82Z" fill="#DB1B1B"/>
<path d="M248.31 40.2099C233.645 43.6995 220.586 52.0324 211.242 63.8618C201.899 75.6911 196.818 90.3257 196.82 105.4C196.82 106.4 196.82 107.4 196.89 108.4C196.19 108.21 195.48 108.04 194.77 107.87C192.277 107.27 189.747 106.777 187.18 106.39C182.757 105.732 178.292 105.398 173.82 105.39C170.907 105.39 168.037 105.527 165.21 105.8C142.926 107.928 122.237 118.289 107.186 134.859C92.1347 151.428 83.8033 173.015 83.82 195.4C83.82 196.53 83.82 197.66 83.88 198.78C84.5126 216.108 90.1611 232.88 100.14 247.06C109.242 260.024 121.591 270.37 135.95 277.06C130.071 293.71 126.138 310.985 124.23 328.54C123.289 337.128 122.818 345.761 122.82 354.4C122.82 410.55 142.47 461.47 174.34 498.7C150.099 490.537 127.223 478.775 106.48 463.81C86.8801 430.81 75.48 391.01 75.48 348.15C75.445 325.012 78.8627 301.999 85.62 279.87C86.5534 276.817 87.5534 273.797 88.62 270.81C87.62 270.36 86.71 269.9 85.76 269.42C84.81 268.94 83.89 268.42 82.97 267.94C81.12 266.94 79.31 265.83 77.54 264.68C72.2591 261.245 67.3494 257.27 62.89 252.82C52.3387 242.282 44.5664 229.292 40.2696 215.012C35.9728 200.733 35.2858 185.61 38.27 171C38.57 169.54 38.9 168.09 39.27 166.65C39.64 165.21 40.05 163.79 40.49 162.38C41.14 160.27 41.88 158.18 42.68 156.14C43.22 154.78 43.79 153.43 44.39 152.14C45.8878 148.83 47.5842 145.615 49.47 142.51C50.22 141.28 51 140.06 51.81 138.86C52.62 137.66 53.45 136.49 54.32 135.33C55.19 134.17 56.08 133 57 131.9C65.4366 121.648 76.0407 113.393 88.0495 107.731C100.058 102.068 113.173 99.1371 126.45 99.1499C129.45 99.1499 132.4 99.2999 135.32 99.5799C137.26 99.7699 139.19 100.02 141.09 100.34C143.932 100.795 146.749 101.396 149.53 102.14C149.48 101.14 149.45 100.14 149.45 99.1399C149.45 81.3704 156.509 64.3287 169.074 51.7637C181.639 39.1988 198.681 32.1399 216.45 32.1399H218.25H218.9H219.06C219.62 32.1399 220.18 32.1699 220.74 32.2299C221.32 32.2299 221.9 32.3099 222.48 32.3599L223.1 32.4199C223.73 32.4799 224.35 32.5499 224.97 32.6299C225.59 32.7099 225.97 32.7599 226.46 32.8399H226.74L227.62 32.9799L228.56 33.1399L229.56 33.3299C230.1 33.4299 230.65 33.5499 231.19 33.6699C231.73 33.7899 232.38 33.9399 232.97 34.0899C233.78 34.2999 234.59 34.5199 235.39 34.7499L237.15 35.2999C237.81 35.5099 238.45 35.7299 239.09 35.9599C239.73 36.1899 240.22 36.3699 240.78 36.5899C241.49 36.8699 242.19 37.1599 242.89 37.4599C244.13 37.9899 245.36 38.5599 246.57 39.1699C247.12 39.5799 247.72 39.8899 248.31 40.2099Z" fill="#C61A1A"/>
<path d="M398.47 251.38C432.712 251.38 460.47 223.622 460.47 189.38C460.47 155.138 432.712 127.38 398.47 127.38C364.228 127.38 336.47 155.138 336.47 189.38C336.47 223.622 364.228 251.38 398.47 251.38Z" fill="white"/>
<path d="M398.47 229.4C418.678 229.4 435.06 213.018 435.06 192.81C435.06 172.602 418.678 156.22 398.47 156.22C378.262 156.22 361.88 172.602 361.88 192.81C361.88 213.018 378.262 229.4 398.47 229.4Z" fill="#3586CB"/>
<path d="M398.13 220.22C413.268 220.22 425.54 207.948 425.54 192.81C425.54 177.672 413.268 165.4 398.13 165.4C382.992 165.4 370.72 177.672 370.72 192.81C370.72 207.948 382.992 220.22 398.13 220.22Z" fill="#27273D"/>
<path d="M414.45 182.5C419.172 182.5 423 178.672 423 173.95C423 169.228 419.172 165.4 414.45 165.4C409.728 165.4 405.9 169.228 405.9 173.95C405.9 178.672 409.728 182.5 414.45 182.5Z" fill="white"/>
<path d="M398.13 203.12C403.824 203.12 408.44 198.504 408.44 192.81C408.44 187.116 403.824 182.5 398.13 182.5C392.436 182.5 387.82 187.116 387.82 192.81C387.82 198.504 392.436 203.12 398.13 203.12Z" fill="white"/>
<path d="M119.79 250.26C154.032 250.26 181.79 222.502 181.79 188.26C181.79 154.018 154.032 126.26 119.79 126.26C85.5484 126.26 57.79 154.018 57.79 188.26C57.79 222.502 85.5484 250.26 119.79 250.26Z" fill="white"/>
<path d="M119.79 228.28C139.998 228.28 156.38 211.898 156.38 191.69C156.38 171.482 139.998 155.1 119.79 155.1C99.5819 155.1 83.2 171.482 83.2 191.69C83.2 211.898 99.5819 228.28 119.79 228.28Z" fill="#3586CB"/>
<path d="M119.45 219.1C134.588 219.1 146.86 206.828 146.86 191.69C146.86 176.552 134.588 164.28 119.45 164.28C104.312 164.28 92.04 176.552 92.04 191.69C92.04 206.828 104.312 219.1 119.45 219.1Z" fill="#27273D"/>
<path d="M135.77 181.38C140.492 181.38 144.32 177.552 144.32 172.83C144.32 168.108 140.492 164.28 135.77 164.28C131.048 164.28 127.22 168.108 127.22 172.83C127.22 177.552 131.048 181.38 135.77 181.38Z" fill="white"/>
<path d="M119.45 202C125.144 202 129.76 197.384 129.76 191.69C129.76 185.996 125.144 181.38 119.45 181.38C113.756 181.38 109.14 185.996 109.14 191.69C109.14 197.384 113.756 202 119.45 202Z" fill="white"/>
<path d="M336.46 132.54C354.531 132.54 369.18 117.891 369.18 99.8199C369.18 81.7491 354.531 67.0999 336.46 67.0999C318.389 67.0999 303.74 81.7491 303.74 99.8199C303.74 117.891 318.389 132.54 336.46 132.54Z" fill="white"/>
<path d="M336.46 120.94C347.125 120.94 355.77 112.294 355.77 101.63C355.77 90.9652 347.125 82.3198 336.46 82.3198C325.795 82.3198 317.15 90.9652 317.15 101.63C317.15 112.294 325.795 120.94 336.46 120.94Z" fill="#3586CB"/>
<path d="M336.29 116.09C344.276 116.09 350.75 109.616 350.75 101.63C350.75 93.6439 344.276 87.1699 336.29 87.1699C328.304 87.1699 321.83 93.6439 321.83 101.63C321.83 109.616 328.304 116.09 336.29 116.09Z" fill="#27273D"/>
<path d="M344.9 96.1899C347.391 96.1899 349.41 94.1707 349.41 91.6799C349.41 89.1891 347.391 87.1699 344.9 87.1699C342.409 87.1699 340.39 89.1891 340.39 91.6799C340.39 94.1707 342.409 96.1899 344.9 96.1899Z" fill="white"/>
<path d="M336.29 107.07C339.294 107.07 341.73 104.634 341.73 101.63C341.73 98.6255 339.294 96.1899 336.29 96.1899C333.285 96.1899 330.85 98.6255 330.85 101.63C330.85 104.634 333.285 107.07 336.29 107.07Z" fill="white"/>
<path d="M218.72 158.48C248.278 158.48 272.24 134.518 272.24 104.96C272.24 75.4017 248.278 51.4399 218.72 51.4399C189.162 51.4399 165.2 75.4017 165.2 104.96C165.2 134.518 189.162 158.48 218.72 158.48Z" fill="white"/>
<path d="M218.72 139.51C236.167 139.51 250.31 125.367 250.31 107.92C250.31 90.4732 236.167 76.3298 218.72 76.3298C201.273 76.3298 187.13 90.4732 187.13 107.92C187.13 125.367 201.273 139.51 218.72 139.51Z" fill="#3586CB"/>
<path d="M218.44 131.58C231.507 131.58 242.1 120.987 242.1 107.92C242.1 94.8529 231.507 84.26 218.44 84.26C205.373 84.26 194.78 94.8529 194.78 107.92C194.78 120.987 205.373 131.58 218.44 131.58Z" fill="#27273D"/>
<path d="M232.53 99.02C236.606 99.02 239.91 95.7159 239.91 91.64C239.91 87.5641 236.606 84.26 232.53 84.26C228.454 84.26 225.15 87.5641 225.15 91.64C225.15 95.7159 228.454 99.02 232.53 99.02Z" fill="white"/>
<path d="M218.44 116.82C223.355 116.82 227.34 112.835 227.34 107.92C227.34 103.004 223.355 99.0198 218.44 99.0198C213.525 99.0198 209.54 103.004 209.54 107.92C209.54 112.835 213.525 116.82 218.44 116.82Z" fill="white"/>
<path d="M284.91 305.04H217.98C203.129 305.04 191.09 317.079 191.09 331.93C191.09 346.781 203.129 358.82 217.98 358.82H284.91C299.761 358.82 311.8 346.781 311.8 331.93C311.8 317.079 299.761 305.04 284.91 305.04Z" fill="#27273D"/>
<path d="M144.32 334.83C163.749 334.83 179.5 319.079 179.5 299.65C179.5 280.221 163.749 264.47 144.32 264.47C124.891 264.47 109.14 280.221 109.14 299.65C109.14 319.079 124.891 334.83 144.32 334.83Z" fill="#FC715A"/>
<path d="M369.18 334.83C388.609 334.83 404.36 319.079 404.36 299.65C404.36 280.221 388.609 264.47 369.18 264.47C349.751 264.47 334 280.221 334 299.65C334 319.079 349.751 334.83 369.18 334.83Z" fill="#FC715A"/>
<path d="M260.67 270.45H252.21C235.3 270.45 220.68 253.85 217.12 230.61L213.57 207.37C211.9 196.44 217.83 186.12 225.79 186.12H287.09C295.09 186.12 300.98 196.44 299.31 207.37L295.76 230.61C292.2 253.85 277.59 270.45 260.67 270.45Z" fill="#4ACC97"/>
<path d="M262.85 270.34C262.13 270.41 261.4 270.44 260.67 270.44H252.21C235.3 270.44 220.68 253.84 217.12 230.6L213.57 207.37C211.9 196.44 217.83 186.12 225.79 186.12H238.6C230.6 186.12 224.71 196.44 226.38 207.37L229.93 230.6C233.34 252.84 246.87 269 262.85 270.34Z" fill="#38C487"/>
<path d="M272.25 246.21C278.872 246.21 284.24 240.842 284.24 234.22C284.24 227.598 278.872 222.23 272.25 222.23C265.628 222.23 260.26 227.598 260.26 234.22C260.26 240.842 265.628 246.21 272.25 246.21Z" fill="#68E0AC"/>
<path d="M272.25 217.74C276.939 217.74 280.74 213.939 280.74 209.25C280.74 204.561 276.939 200.76 272.25 200.76C267.561 200.76 263.76 204.561 263.76 209.25C263.76 213.939 267.561 217.74 272.25 217.74Z" fill="#68E0AC"/>
<path d="M213.29 305H238.07V316.54C238.074 317.865 237.817 319.179 237.312 320.404C236.808 321.63 236.067 322.744 235.132 323.684C234.196 324.623 233.085 325.368 231.861 325.877C230.638 326.386 229.325 326.649 228 326.65H223.37C220.697 326.65 218.133 325.588 216.242 323.698C214.352 321.807 213.29 319.243 213.29 316.57V305Z" fill="white"/>
<path d="M263.76 305H288.54V316.54C288.54 319.213 287.478 321.777 285.588 323.668C283.697 325.558 281.133 326.62 278.46 326.62H273.83C271.157 326.62 268.593 325.558 266.702 323.668C264.812 321.777 263.75 319.213 263.75 316.54V305H263.76Z" fill="white"/>
<path d="M279.22 358.82H254.44V347.28C254.44 344.606 255.502 342.043 257.392 340.152C259.283 338.262 261.847 337.2 264.52 337.2H269.15C271.823 337.2 274.387 338.262 276.278 340.152C278.168 342.043 279.23 344.606 279.23 347.28V358.82H279.22Z" fill="white"/>
<path d="M248.46 358.82H223.68V347.28C223.68 344.606 224.742 342.043 226.632 340.152C228.523 338.262 231.087 337.2 233.76 337.2H238.39C241.063 337.2 243.627 338.262 245.518 340.152C247.408 342.043 248.47 344.606 248.47 347.28V358.82H248.46Z" fill="white"/>
<path d="M169.11 399.63C181.249 399.63 191.09 389.789 191.09 377.65C191.09 365.511 181.249 355.67 169.11 355.67C156.971 355.67 147.13 365.511 147.13 377.65C147.13 389.789 156.971 399.63 169.11 399.63Z" fill="#A65C3B"/>
<path d="M218.72 402.8C227.363 402.8 234.37 395.793 234.37 387.15C234.37 378.507 227.363 371.5 218.72 371.5C210.077 371.5 203.07 378.507 203.07 387.15C203.07 395.793 210.077 402.8 218.72 402.8Z" fill="#A65C3B"/>
<path d="M191.09 422.66C196.574 422.66 201.02 418.214 201.02 412.73C201.02 407.246 196.574 402.8 191.09 402.8C185.606 402.8 181.16 407.246 181.16 412.73C181.16 418.214 185.606 422.66 191.09 422.66Z" fill="#A65C3B"/>
<path d="M151.85 429.42C157.334 429.42 161.78 424.974 161.78 419.49C161.78 414.006 157.334 409.56 151.85 409.56C146.366 409.56 141.92 414.006 141.92 419.49C141.92 424.974 146.366 429.42 151.85 429.42Z" fill="#A65C3B"/>
<path d="M201.01 454.9C206.494 454.9 210.94 450.454 210.94 444.97C210.94 439.486 206.494 435.04 201.01 435.04C195.526 435.04 191.08 439.486 191.08 444.97C191.08 450.454 195.526 454.9 201.01 454.9Z" fill="#A65C3B"/>
<path d="M340.7 399.63C352.839 399.63 362.68 389.789 362.68 377.65C362.68 365.511 352.839 355.67 340.7 355.67C328.561 355.67 318.72 365.511 318.72 377.65C318.72 389.789 328.561 399.63 340.7 399.63Z" fill="#A65C3B"/>
<path d="M291.08 402.8C299.723 402.8 306.73 395.793 306.73 387.15C306.73 378.507 299.723 371.5 291.08 371.5C282.437 371.5 275.43 378.507 275.43 387.15C275.43 395.793 282.437 402.8 291.08 402.8Z" fill="#A65C3B"/>
<path d="M318.72 422.66C324.204 422.66 328.65 418.214 328.65 412.73C328.65 407.246 324.204 402.8 318.72 402.8C313.236 402.8 308.79 407.246 308.79 412.73C308.79 418.214 313.236 422.66 318.72 422.66Z" fill="#A65C3B"/>
<path d="M357.96 429.42C363.444 429.42 367.89 424.974 367.89 419.49C367.89 414.006 363.444 409.56 357.96 409.56C352.476 409.56 348.03 414.006 348.03 419.49C348.03 424.974 352.476 429.42 357.96 429.42Z" fill="#A65C3B"/>
<path d="M308.79 454.9C314.274 454.9 318.72 450.454 318.72 444.97C318.72 439.486 314.274 435.04 308.79 435.04C303.306 435.04 298.86 439.486 298.86 444.97C298.86 450.454 303.306 454.9 308.79 454.9Z" fill="#A65C3B"/>
</g>
<defs>
<clipPath id="clip0_809_1436">
<rect width="512" height="512" fill="white"/>
</clipPath>
</defs>
</svg>
