<svg width="512" height="512" viewBox="0 0 512 512" fill="none" xmlns="http://www.w3.org/2000/svg">
<g clip-path="url(#clip0_809_1506)">
<path d="M256 512C397.385 512 512 397.385 512 256C512 114.615 397.385 0 256 0C114.615 0 0 114.615 0 256C0 397.385 114.615 512 256 512Z" fill="#F55B4B"/>
<path d="M300.67 407.27V508.11C271.619 513.208 241.91 513.296 212.83 508.37V407.27H300.67Z" fill="#B87FE2"/>
<path d="M348.8 167.36L286.75 63.71C283.723 58.6538 279.438 54.4686 274.311 51.5626C269.185 48.6565 263.393 47.129 257.5 47.129C251.607 47.129 245.815 48.6565 240.689 51.5626C235.562 54.4686 231.277 58.6538 228.25 63.71L166.48 166.89C150.98 192.79 127.37 212.62 99.6401 224.53C82.1442 232.038 67.2759 244.579 56.9251 260.558C46.5743 276.537 41.2086 295.234 41.5101 314.27C42.2801 364.85 82.7801 406.53 133.32 408.68C136.233 408.8 139.113 408.8 141.96 408.68C161.023 407.841 179.66 414.479 193.9 427.18C211.364 442.626 233.853 451.189 257.167 451.27C280.482 451.351 303.029 442.944 320.6 427.62C334.962 415.081 353.489 408.355 372.55 408.76C374.29 408.76 376.05 408.76 377.81 408.76C428.36 407.06 469.24 365.76 470.47 315.22C470.944 296.438 465.897 277.929 455.953 261.988C446.01 246.047 431.607 233.374 414.53 225.54C387.31 213 364.18 193.06 348.8 167.36Z" fill="#CD88F8"/>
<path d="M300.67 441V465.3C287.021 472.161 271.933 475.67 256.657 475.536C241.381 475.403 226.357 471.629 212.83 464.53V440.26C226.357 447.358 241.38 451.131 256.656 451.266C271.931 451.402 287.019 447.897 300.67 441.04V441Z" fill="#9B6BC6"/>
<path d="M281 448.36C265.852 452.175 250.003 452.24 234.824 448.55C219.645 444.859 205.595 437.524 193.89 427.18C179.666 414.485 161.048 407.844 142 408.67C139.147 408.797 136.267 408.797 133.36 408.67C82.8201 406.52 42.3601 364.84 41.5501 314.26C41.2487 295.224 46.6144 276.527 56.9651 260.548C67.3159 244.569 82.1842 232.028 99.6801 224.52C127.41 212.61 151.02 192.78 166.52 166.89L228.25 63.71C230.876 59.3257 234.454 55.5871 238.718 52.7703C242.982 49.9535 247.825 48.1303 252.888 47.4354C257.952 46.7405 263.106 47.1915 267.972 48.7552C272.837 50.3189 277.29 52.9554 281 56.47C278.768 58.6147 276.834 61.0499 275.25 63.71L213.48 166.9C197.98 192.79 174.37 212.62 146.64 224.53C129.144 232.038 114.276 244.579 103.925 260.558C93.5744 276.537 88.2087 295.234 88.5101 314.27C89.2801 364.85 129.78 406.53 180.32 408.68C183.233 408.8 186.113 408.8 188.96 408.68C208.025 407.841 226.663 414.483 240.9 427.19C252.376 437.359 266.13 444.62 281 448.36Z" fill="#B87FE2"/>
<path d="M255.54 361.76C221.207 361.852 187.197 355.134 155.477 341.994C123.758 328.855 94.9601 309.554 70.75 285.21C69.5287 283.991 68.8415 282.337 68.8396 280.612C68.8377 278.887 69.5213 277.231 70.74 276.01C71.9587 274.789 73.6126 274.101 75.3379 274.1C77.0633 274.098 78.7187 274.781 79.94 276C176.77 372.83 334.32 372.83 431.15 276C432.378 274.827 434.016 274.181 435.714 274.2C437.412 274.22 439.036 274.903 440.236 276.104C441.437 277.304 442.12 278.928 442.14 280.626C442.159 282.324 441.513 283.962 440.34 285.19C416.13 309.538 387.331 328.843 355.61 341.986C323.889 355.13 289.876 361.85 255.54 361.76Z" fill="#B87FE2"/>
<path d="M256 303.48C302.757 303.48 340.66 265.576 340.66 218.82C340.66 172.064 302.757 134.16 256 134.16C209.244 134.16 171.34 172.064 171.34 218.82C171.34 265.576 209.244 303.48 256 303.48Z" fill="white"/>
<path d="M256 273.47C283.592 273.47 305.96 251.102 305.96 223.51C305.96 195.918 283.592 173.55 256 173.55C228.408 173.55 206.04 195.918 206.04 223.51C206.04 251.102 228.408 273.47 256 273.47Z" fill="#3586CB"/>
<path d="M255.54 260.94C276.212 260.94 292.97 244.182 292.97 223.51C292.97 202.838 276.212 186.08 255.54 186.08C234.868 186.08 218.11 202.838 218.11 223.51C218.11 244.182 234.868 260.94 255.54 260.94Z" fill="#27273D"/>
<path d="M277.83 209.42C284.275 209.42 289.5 204.195 289.5 197.75C289.5 191.305 284.275 186.08 277.83 186.08C271.385 186.08 266.16 191.305 266.16 197.75C266.16 204.195 271.385 209.42 277.83 209.42Z" fill="white"/>
<path d="M255.54 237.59C263.316 237.59 269.62 231.286 269.62 223.51C269.62 215.734 263.316 209.43 255.54 209.43C247.764 209.43 241.46 215.734 241.46 223.51C241.46 231.286 247.764 237.59 255.54 237.59Z" fill="white"/>
<path d="M81.75 277.77L97.12 338.66C97.369 339.645 97.8846 340.542 98.6101 341.254C99.3357 341.965 100.243 342.462 101.233 342.692C102.223 342.921 103.257 342.873 104.221 342.554C105.185 342.234 106.043 341.655 106.7 340.88L131.7 311.27L81.75 277.77Z" fill="white"/>
<path d="M428.91 277.77L413.54 338.66C413.291 339.645 412.775 340.542 412.05 341.254C411.324 341.965 410.417 342.462 409.427 342.692C408.437 342.921 407.403 342.873 406.439 342.554C405.475 342.234 404.617 341.655 403.96 340.88L378.96 311.27L428.91 277.77Z" fill="white"/>
<path d="M141.08 317.94L159.36 366.48C159.687 367.35 160.228 368.123 160.934 368.728C161.639 369.333 162.486 369.75 163.395 369.94C164.305 370.131 165.248 370.088 166.137 369.817C167.025 369.546 167.832 369.055 168.48 368.39L198.42 337.77L141.08 317.94Z" fill="white"/>
<path d="M369.32 317.94L351.05 366.48C350.722 367.35 350.179 368.123 349.473 368.727C348.766 369.332 347.919 369.749 347.009 369.939C346.099 370.13 345.155 370.088 344.266 369.817C343.376 369.546 342.57 369.055 341.92 368.39L312 337.77L369.32 317.94Z" fill="white"/>
<path d="M255.54 349.09C221.207 349.185 187.196 342.467 155.476 329.327C123.757 316.188 94.959 296.886 70.7502 272.54C69.577 271.312 68.931 269.674 68.9504 267.976C68.9697 266.278 69.6529 264.654 70.8538 263.454C72.0546 262.253 73.6777 261.57 75.3759 261.55C77.074 261.531 78.7123 262.177 79.9402 263.35C176.77 360.18 334.32 360.18 431.15 263.35C432.378 262.177 434.016 261.531 435.715 261.55C437.413 261.57 439.036 262.253 440.237 263.454C441.437 264.654 442.121 266.278 442.14 267.976C442.159 269.674 441.513 271.312 440.34 272.54C416.13 296.887 387.33 316.189 355.609 329.329C323.888 342.469 289.875 349.185 255.54 349.09Z" fill="#32314B"/>
<path d="M339.5 119.32C376.85 108.79 426.05 82.37 434.65 16.11C434.753 15.3413 435.115 14.6308 435.677 14.0962C436.238 13.5617 436.966 13.2352 437.739 13.171C438.512 13.1068 439.283 13.3087 439.925 13.7432C440.568 14.1777 441.042 14.8188 441.27 15.56C451 47.7 461.13 124.9 352 160.35C348.537 161.473 344.845 161.695 341.272 160.995C337.699 160.295 334.364 158.696 331.58 156.35C318.49 145.24 323 124 339.5 119.32Z" fill="#F6C752"/>
<path d="M173.68 119.32C136.33 108.79 87.1302 82.37 78.5302 16.11C78.4327 15.339 78.0734 14.625 77.5123 14.0873C76.9512 13.5497 76.2224 13.2212 75.448 13.1567C74.6736 13.0923 73.9006 13.2959 73.2583 13.7334C72.6161 14.1709 72.1437 14.8157 71.9202 15.56C62.2202 47.7 52.0502 124.9 161.18 160.35C164.643 161.473 168.336 161.695 171.908 160.995C175.481 160.295 178.817 158.696 181.6 156.35C194.69 145.24 190.18 124 173.68 119.32Z" fill="#F6C752"/>
<path d="M340.11 124.6H173.38C164.312 124.6 156.96 131.949 156.96 141.015C156.96 150.081 164.312 157.43 173.38 157.43H340.11C349.179 157.43 356.53 150.081 356.53 141.015C356.53 131.949 349.179 124.6 340.11 124.6Z" fill="#32314B"/>
<path d="M335.08 300.01C341.221 300.01 346.2 295.031 346.2 288.89C346.2 282.749 341.221 277.77 335.08 277.77C328.939 277.77 323.96 282.749 323.96 288.89C323.96 295.031 328.939 300.01 335.08 300.01Z" fill="#E88032"/>
<path d="M369.32 294.15C373.843 294.15 377.51 290.483 377.51 285.96C377.51 281.437 373.843 277.77 369.32 277.77C364.797 277.77 361.13 281.437 361.13 285.96C361.13 290.483 364.797 294.15 369.32 294.15Z" fill="#E88032"/>
<path d="M361.13 269.21C369.862 269.21 376.94 262.132 376.94 253.4C376.94 244.668 369.862 237.59 361.13 237.59C352.398 237.59 345.32 244.668 345.32 253.4C345.32 262.132 352.398 269.21 361.13 269.21Z" fill="#E88032"/>
<path d="M176.91 300.01C183.051 300.01 188.03 295.031 188.03 288.89C188.03 282.749 183.051 277.77 176.91 277.77C170.769 277.77 165.79 282.749 165.79 288.89C165.79 295.031 170.769 300.01 176.91 300.01Z" fill="#E88032"/>
<path d="M142.67 294.15C147.193 294.15 150.86 290.483 150.86 285.96C150.86 281.437 147.193 277.77 142.67 277.77C138.147 277.77 134.48 281.437 134.48 285.96C134.48 290.483 138.147 294.15 142.67 294.15Z" fill="#E88032"/>
<path d="M150.86 269.21C159.592 269.21 166.67 262.132 166.67 253.4C166.67 244.668 159.592 237.59 150.86 237.59C142.128 237.59 135.05 244.668 135.05 253.4C135.05 262.132 142.128 269.21 150.86 269.21Z" fill="#E88032"/>
</g>
<defs>
<clipPath id="clip0_809_1506">
<rect width="512" height="512" fill="white"/>
</clipPath>
</defs>
</svg>
