<svg width="512" height="512" viewBox="0 0 512 512" fill="none" xmlns="http://www.w3.org/2000/svg">
<g clip-path="url(#clip0_809_1266)">
<path d="M256 512C397.385 512 512 397.385 512 256C512 114.615 397.385 0 256 0C114.615 0 0 114.615 0 256C0 397.385 114.615 512 256 512Z" fill="#F7BB38"/>
<path d="M211.36 106.41L244.5 23.5501C249.1 12.0601 265.55 12.6201 269.35 24.4101L295.81 106.41H211.36Z" fill="#32314B"/>
<path d="M142.06 156.35L121.9 69.42C119.11 57.36 132.9 48.42 142.79 55.91L211.36 108.09L142.06 156.35Z" fill="#32314B"/>
<path d="M99.2101 218.07L42.6301 149.07C34.7801 139.5 43.2101 125.36 55.3701 127.71L140 144.1L99.2101 218.07Z" fill="#32314B"/>
<path d="M82.7899 265.76L20.9999 231.1C19.1168 230.045 17.6051 228.435 16.671 226.489C15.7368 224.543 15.4257 222.356 15.78 220.227C16.1343 218.098 17.1369 216.129 18.6509 214.591C20.1649 213.052 22.1166 212.019 24.2399 211.63L91.5199 199.3L82.7899 265.76Z" fill="#32314B"/>
<path d="M369.94 156.35L390.1 69.42C392.89 57.36 379.1 48.42 369.21 55.91L300.64 108.09L369.94 156.35Z" fill="#32314B"/>
<path d="M412.79 218.07L469.37 149.07C477.22 139.5 468.79 125.36 456.63 127.71L372 144.1L412.79 218.07Z" fill="#32314B"/>
<path d="M429.21 265.76L491 231.1C492.883 230.045 494.395 228.435 495.329 226.489C496.263 224.543 496.574 222.356 496.22 220.227C495.866 218.098 494.863 216.129 493.349 214.591C491.835 213.052 489.883 212.019 487.76 211.63L420.48 199.3L429.21 265.76Z" fill="#32314B"/>
<path d="M459.58 290.09C459.58 343.929 438.193 395.563 400.123 433.633C362.053 471.703 310.419 493.09 256.58 493.09C202.741 493.09 151.107 471.703 113.037 433.633C74.9675 395.563 53.5801 343.929 53.5801 290.09C53.5801 177.98 144.47 87.0901 256.58 87.0901C368.69 87.0901 459.58 178 459.58 290.09Z" fill="#AA60FA"/>
<path d="M278.11 492.08C271.443 492.747 264.666 493.08 257.78 493.08C203.941 493.08 152.307 471.693 114.237 433.623C76.1672 395.553 54.7798 343.919 54.7798 290.08C54.7798 177.97 145.67 87.0801 257.78 87.0801C264.64 87.0801 271.416 87.4134 278.11 88.0801C175.55 98.2701 95.4398 184.82 95.4398 290.08C95.4481 340.399 114.139 388.923 147.889 426.244C181.64 463.566 228.045 487.027 278.11 492.08Z" fill="#934CF5"/>
<path d="M256.58 300.09C289.347 300.09 315.91 273.527 315.91 240.76C315.91 207.993 289.347 181.43 256.58 181.43C223.813 181.43 197.25 207.993 197.25 240.76C197.25 273.527 223.813 300.09 256.58 300.09Z" fill="white"/>
<path d="M256.58 279.06C275.921 279.06 291.6 263.381 291.6 244.04C291.6 224.699 275.921 209.02 256.58 209.02C237.239 209.02 221.56 224.699 221.56 244.04C221.56 263.381 237.239 279.06 256.58 279.06Z" fill="#E82D86"/>
<path d="M256.26 270.27C270.746 270.27 282.49 258.526 282.49 244.04C282.49 229.554 270.746 217.81 256.26 217.81C241.773 217.81 230.03 229.554 230.03 244.04C230.03 258.526 241.773 270.27 256.26 270.27Z" fill="#27273D"/>
<path d="M271.88 234.17C276.397 234.17 280.06 230.508 280.06 225.99C280.06 221.472 276.397 217.81 271.88 217.81C267.362 217.81 263.7 221.472 263.7 225.99C263.7 230.508 267.362 234.17 271.88 234.17Z" fill="white"/>
<path d="M256.26 253.91C261.711 253.91 266.13 249.491 266.13 244.04C266.13 238.589 261.711 234.17 256.26 234.17C250.809 234.17 246.39 238.589 246.39 244.04C246.39 249.491 250.809 253.91 256.26 253.91Z" fill="white"/>
<path d="M404.49 429.11C385.508 449.304 362.592 465.396 337.154 476.397C311.716 487.397 284.295 493.072 256.58 493.072C228.865 493.072 201.444 487.397 176.006 476.397C150.568 465.396 127.652 449.304 108.67 429.11C119.24 371.58 181.43 327.42 256.58 327.42C331.73 327.42 393.92 371.58 404.49 429.11Z" fill="#C99FFF"/>
<path d="M217.61 355.75C222.685 360.827 228.71 364.854 235.342 367.601C241.974 370.349 249.082 371.763 256.26 371.763C263.438 371.763 270.546 370.349 277.178 367.601C283.81 364.854 289.835 360.827 294.91 355.75" stroke="#27273D" stroke-width="25" stroke-miterlimit="10" stroke-linecap="round"/>
<path d="M166.45 329.06C180.257 329.06 191.45 317.867 191.45 304.06C191.45 290.253 180.257 279.06 166.45 279.06C152.643 279.06 141.45 290.253 141.45 304.06C141.45 317.867 152.643 329.06 166.45 329.06Z" fill="#FAB3A7"/>
<path d="M347.04 329.06C360.847 329.06 372.04 317.867 372.04 304.06C372.04 290.253 360.847 279.06 347.04 279.06C333.233 279.06 322.04 290.253 322.04 304.06C322.04 317.867 333.233 329.06 347.04 329.06Z" fill="#FAB3A7"/>
<path d="M97.58 336.87C101.893 336.87 105.39 333.373 105.39 329.06C105.39 324.747 101.893 321.25 97.58 321.25C93.2667 321.25 89.77 324.747 89.77 329.06C89.77 333.373 93.2667 336.87 97.58 336.87Z" fill="#7F45DB"/>
<path d="M123.58 344.68C127.893 344.68 131.39 341.183 131.39 336.87C131.39 332.557 127.893 329.06 123.58 329.06C119.267 329.06 115.77 332.557 115.77 336.87C115.77 341.183 119.267 344.68 123.58 344.68Z" fill="#934CF5"/>
<path d="M91.5198 365.2C96.7389 365.2 100.97 360.969 100.97 355.75C100.97 350.531 96.7389 346.3 91.5198 346.3C86.3007 346.3 82.0698 350.531 82.0698 355.75C82.0698 360.969 86.3007 365.2 91.5198 365.2Z" fill="#7F45DB"/>
<path d="M121.54 376.93C128.814 376.93 134.71 371.034 134.71 363.76C134.71 356.487 128.814 350.59 121.54 350.59C114.267 350.59 108.37 356.487 108.37 363.76C108.37 371.034 114.267 376.93 121.54 376.93Z" fill="#934CF5"/>
<path d="M415.3 336.87C419.613 336.87 423.11 333.373 423.11 329.06C423.11 324.747 419.613 321.25 415.3 321.25C410.986 321.25 407.49 324.747 407.49 329.06C407.49 333.373 410.986 336.87 415.3 336.87Z" fill="#934CF5"/>
<path d="M389.3 344.68C393.613 344.68 397.11 341.183 397.11 336.87C397.11 332.557 393.613 329.06 389.3 329.06C384.986 329.06 381.49 332.557 381.49 336.87C381.49 341.183 384.986 344.68 389.3 344.68Z" fill="#934CF5"/>
<path d="M421.36 365.2C426.579 365.2 430.81 360.969 430.81 355.75C430.81 350.531 426.579 346.3 421.36 346.3C416.141 346.3 411.91 350.531 411.91 355.75C411.91 360.969 416.141 365.2 421.36 365.2Z" fill="#934CF5"/>
<path d="M391.34 376.93C398.613 376.93 404.51 371.034 404.51 363.76C404.51 356.487 398.613 350.59 391.34 350.59C384.066 350.59 378.17 356.487 378.17 363.76C378.17 371.034 384.066 376.93 391.34 376.93Z" fill="#934CF5"/>
<path d="M387.79 190.65C396.781 190.65 404.07 183.361 404.07 174.37C404.07 165.379 396.781 158.09 387.79 158.09C378.799 158.09 371.51 165.379 371.51 174.37C371.51 183.361 378.799 190.65 387.79 190.65Z" fill="#B276FF"/>
<path d="M363.81 161.92C370.178 161.92 375.34 156.758 375.34 150.39C375.34 144.022 370.178 138.86 363.81 138.86C357.442 138.86 352.28 144.022 352.28 150.39C352.28 156.758 357.442 161.92 363.81 161.92Z" fill="#B276FF"/>
</g>
<defs>
<clipPath id="clip0_809_1266">
<rect width="512" height="512" fill="white"/>
</clipPath>
</defs>
</svg>
