<svg width="512" height="512" viewBox="0 0 512 512" fill="none" xmlns="http://www.w3.org/2000/svg">
<g clip-path="url(#clip0_809_2170)">
<path d="M256 512C397.385 512 512 397.385 512 256C512 114.615 397.385 0 256 0C114.615 0 0 114.615 0 256C0 397.385 114.615 512 256 512Z" fill="#7CC8FB"/>
<path d="M451.19 235.46C433.61 257.52 409.33 268.96 390.37 265.96C408.43 294.79 419.8 329.05 419.8 365.81C419.8 468.27 331.49 497.16 255.96 497.16C180.43 497.16 92.11 468.27 92.11 365.81C92.11 329.24 103.36 295.16 121.26 266.43C103.35 266.55 82.11 255.32 66.26 235.43C49.26 214.12 47.38 172.03 47.52 152.1C47.5262 150.742 47.8368 149.402 48.4289 148.179C49.0211 146.957 49.8797 145.883 50.9416 145.036C52.0035 144.188 53.2418 143.59 54.5654 143.285C55.889 142.979 57.2642 142.974 58.59 143.27L60.93 143.81L52.18 129.33C83.89 127.77 95 143.08 95 143.08V129.36C114.53 133.05 129.78 158.92 129.78 158.92L129.38 143.08C146.86 155.22 148.31 185.31 148.31 185.31L157.7 175.46C162.37 189.09 156.08 202.98 151.77 210.24C153.318 215.267 154.291 220.454 154.67 225.7C179.33 202.54 208.56 186.86 237.18 181.95C237.16 178.56 237.663 175.187 238.67 171.95C240.738 165.622 244.551 160.006 249.67 155.75C255.25 150.91 263.08 146.42 273.91 142.75L275.01 142.38C281.89 139.833 288.472 136.543 294.64 132.57C300.64 128.65 306.83 123.57 311.04 117.44C315.02 111.988 316.911 105.289 316.37 98.5601C315.969 94.7304 314.882 91.0042 313.16 87.5601C312.36 85.9067 311.577 84.2401 310.81 82.5601C308.223 76.9334 305.81 71.2301 303.57 65.4501C301.57 60.4167 299.73 55.3401 298.05 50.2201C296.693 46.0031 294.815 41.9719 292.46 38.2201C288.97 32.8101 284.27 28.5001 277.96 26.9801C273.65 25.9201 268.59 26.1801 262.66 28.2901C258.803 29.6909 255.114 31.5154 251.66 33.7301C250.17 34.6601 248.66 35.5801 247.17 36.4801C241.388 39.9826 235.404 43.1414 229.25 45.9401C228.94 46.0701 228.64 46.2101 228.33 46.3601C222.827 48.8278 217.837 52.3083 213.62 56.6201C210.65 59.6841 208.371 63.3494 206.938 67.3687C205.504 71.3881 204.949 75.668 205.31 79.9201C205.379 80.7921 205.152 81.6618 204.665 82.3889C204.179 83.116 203.462 83.6579 202.63 83.9273C201.798 84.1966 200.899 84.1775 200.079 83.8732C199.259 83.5689 198.565 82.9971 198.11 82.2501C191 70.6801 186.9 54.3601 208.3 42.4901L208.92 42.1401C213.916 39.4725 218.745 36.5037 223.38 33.2501C226.14 31.3201 228.82 29.2501 231.38 27.1001C234.426 24.5313 237.607 22.1278 240.91 19.9001C245.76 16.6072 250.946 13.8384 256.38 11.6401C264.93 8.26008 274.48 6.47008 284.32 8.26008C290.079 9.31354 295.581 11.4624 300.53 14.5901C309.4 20.1101 318.22 29.2601 326.53 43.4201C328.73 47.1901 330.91 51.3201 333.03 55.8101C333.03 55.8101 333.68 57.2301 334.6 59.7501C338.526 70.5707 340.585 81.9797 340.69 93.4901C340.713 99.6179 340.011 105.727 338.6 111.69C335.735 123.732 329.555 134.73 320.76 143.44C316.569 147.622 311.931 151.331 306.93 154.5C306.29 154.92 305.65 155.32 305 155.7C302.63 157.14 300.19 158.45 297.7 159.7C297 160.05 296.08 160.52 295.03 161.13C288.193 164.952 282.28 170.23 277.71 176.59C276.536 178.287 275.496 180.072 274.6 181.93C305.41 187.17 336.96 204.93 362.74 231.04C362.624 223.994 363.637 216.975 365.74 210.25C361.43 202.99 355.14 189.1 359.81 175.47L369.2 185.32C369.2 185.32 370.65 155.23 388.13 143.09L387.73 158.93C387.73 158.93 402.98 133.06 422.51 129.37V143.09C422.51 143.09 433.59 127.78 465.26 129.37L456.51 143.85L458.86 143.31C460.186 143.016 461.561 143.023 462.884 143.329C464.208 143.635 465.446 144.234 466.508 145.08C467.57 145.927 468.43 147 469.023 148.221C469.617 149.443 469.93 150.782 469.94 152.14C470.06 172.06 468.16 214.15 451.19 235.46Z" fill="#F7BB38"/>
<path d="M321.53 227.06C309.188 226.568 296.92 229.181 285.85 234.66C276.56 239.268 266.33 241.665 255.96 241.665C245.59 241.665 235.36 239.268 226.07 234.66C214.438 228.913 201.501 226.32 188.552 227.141C175.603 227.961 163.097 232.166 152.283 239.335C141.469 246.505 132.726 256.387 126.929 267.994C121.132 279.602 118.483 292.528 119.247 305.48C120.012 318.432 124.163 330.956 131.286 341.801C138.408 352.646 148.253 361.431 159.835 367.278C171.417 373.126 184.332 375.83 197.287 375.122C210.242 374.413 222.785 370.316 233.66 363.24C240.286 358.894 248.037 356.579 255.96 356.579C263.884 356.579 271.635 358.894 278.26 363.24C287.827 369.463 298.702 373.392 310.037 374.721C321.372 376.05 332.861 374.743 343.608 370.902C354.355 367.061 364.07 360.79 371.995 352.578C379.92 344.366 385.842 334.434 389.298 323.557C392.754 312.68 393.651 301.152 391.919 289.872C390.188 278.591 385.875 267.863 379.316 258.523C372.757 249.183 364.129 241.485 354.106 236.027C344.083 230.57 332.934 227.501 321.53 227.06Z" fill="#DDA533"/>
<path d="M330.1 472.44V501.11C281.739 515.65 230.171 515.65 181.81 501.11V472.44H330.1Z" fill="#D39C2D"/>
<path d="M118.79 189.66C131.79 205.99 133.46 226.3 122.5 235.03C111.54 243.76 92.11 237.6 79.11 221.27C69.39 209.07 68.31 184.99 68.38 173.59C68.3853 172.813 68.5645 172.047 68.9043 171.348C69.2441 170.649 69.7359 170.035 70.3438 169.551C70.9517 169.067 71.6602 168.725 72.4174 168.55C73.1746 168.375 73.9613 168.371 74.72 168.54C85.85 171 109.08 177.46 118.79 189.66Z" fill="#F58D89"/>
<path d="M398.69 189.66C385.68 206 384 226.3 395 235C406 243.7 425.39 237.57 438.39 221.24C448.11 209.04 449.19 184.96 449.12 173.56C449.117 172.782 448.939 172.015 448.599 171.315C448.26 170.616 447.768 170.001 447.16 169.516C446.552 169.032 445.842 168.69 445.084 168.516C444.326 168.341 443.539 168.34 442.78 168.51C431.63 171 408.41 177.46 398.69 189.66Z" fill="#F58D89"/>
<path d="M198.06 369.55C235.853 369.55 266.49 338.913 266.49 301.12C266.49 263.327 235.853 232.69 198.06 232.69C160.267 232.69 129.63 263.327 129.63 301.12C129.63 338.913 160.267 369.55 198.06 369.55Z" fill="white"/>
<path d="M198.06 345.29C220.367 345.29 238.45 327.207 238.45 304.9C238.45 282.593 220.367 264.51 198.06 264.51C175.753 264.51 157.67 282.593 157.67 304.9C157.67 327.207 175.753 345.29 198.06 345.29Z" fill="#3586CB"/>
<path d="M197.69 335.16C214.402 335.16 227.95 321.612 227.95 304.9C227.95 288.188 214.402 274.64 197.69 274.64C180.978 274.64 167.43 288.188 167.43 304.9C167.43 321.612 180.978 335.16 197.69 335.16Z" fill="#27273D"/>
<path d="M215.7 293.52C220.913 293.52 225.14 289.294 225.14 284.08C225.14 278.867 220.913 274.64 215.7 274.64C210.486 274.64 206.26 278.867 206.26 284.08C206.26 289.294 210.486 293.52 215.7 293.52Z" fill="white"/>
<path d="M197.69 316.28C203.975 316.28 209.07 311.185 209.07 304.9C209.07 298.615 203.975 293.52 197.69 293.52C191.405 293.52 186.31 298.615 186.31 304.9C186.31 311.185 191.405 316.28 197.69 316.28Z" fill="white"/>
<path d="M313.86 369.55C351.653 369.55 382.29 338.913 382.29 301.12C382.29 263.327 351.653 232.69 313.86 232.69C276.067 232.69 245.43 263.327 245.43 301.12C245.43 338.913 276.067 369.55 313.86 369.55Z" fill="white"/>
<path d="M313.86 345.29C336.167 345.29 354.25 327.207 354.25 304.9C354.25 282.593 336.167 264.51 313.86 264.51C291.553 264.51 273.47 282.593 273.47 304.9C273.47 327.207 291.553 345.29 313.86 345.29Z" fill="#3586CB"/>
<path d="M313.49 335.16C330.202 335.16 343.75 321.612 343.75 304.9C343.75 288.188 330.202 274.64 313.49 274.64C296.778 274.64 283.23 288.188 283.23 304.9C283.23 321.612 296.778 335.16 313.49 335.16Z" fill="#27273D"/>
<path d="M331.5 293.52C336.714 293.52 340.94 289.294 340.94 284.08C340.94 278.867 336.714 274.64 331.5 274.64C326.286 274.64 322.06 278.867 322.06 284.08C322.06 289.294 326.286 293.52 331.5 293.52Z" fill="white"/>
<path d="M313.49 316.28C319.775 316.28 324.87 311.185 324.87 304.9C324.87 298.615 319.775 293.52 313.49 293.52C307.205 293.52 302.11 298.615 302.11 304.9C302.11 311.185 307.205 316.28 313.49 316.28Z" fill="white"/>
<path d="M382.57 408.61C382.57 424.88 373.98 439.95 359.34 452.28C340.28 468.34 310.99 479.78 277.13 483.17C259.645 484.928 242.009 484.498 224.63 481.89C192.22 476.97 164.82 464.59 147.83 447.97C136.1 436.51 129.35 423.04 129.35 408.61C129.35 393.13 137.14 386.02 150.5 383.2C161.86 380.81 177.23 381.51 195.27 382.81C201.52 383.26 208.1 383.81 214.93 384.27C227.79 385.19 241.59 386 255.93 386C265.93 386 275.72 385.61 285.07 385.05C293.45 384.56 301.5 383.95 309.13 383.37C326.69 382.04 342.06 380.94 354.13 382.11C371.93 383.85 382.57 390.5 382.57 408.61Z" fill="#27273D"/>
<path d="M302.11 432.92C286.762 432.807 271.62 436.446 258 443.52C255.745 444.714 253.232 445.339 250.68 445.339C248.128 445.339 245.615 444.714 243.36 443.52C229.746 436.446 214.611 432.804 199.27 432.91C179.64 432.91 161.67 438.57 147.8 447.96C164.8 464.58 192.19 476.96 224.6 481.88C241.979 484.488 259.615 484.918 277.1 483.16C310.96 479.77 340.25 468.33 359.31 452.27C344.87 440.34 324.59 432.92 302.11 432.92Z" fill="#DB1B1B"/>
<path d="M195.27 382.81L182.42 409.24C181.731 410.652 180.675 411.852 179.363 412.715C178.05 413.578 176.53 414.071 174.961 414.144C173.391 414.217 171.832 413.866 170.445 413.128C169.059 412.39 167.896 411.292 167.08 409.95C161.49 400.73 154.44 389.22 150.5 383.2C161.86 380.81 177.23 381.51 195.27 382.81Z" fill="white"/>
<path d="M354.16 382.11L341 409.23C340.314 410.643 339.26 411.844 337.948 412.708C336.637 413.573 335.117 414.068 333.549 414.141C331.98 414.215 330.421 413.865 329.034 413.127C327.648 412.39 326.486 411.292 325.67 409.95C320.13 400.82 313.16 389.43 309.19 383.37C326.72 382 342.09 380.94 354.16 382.11Z" fill="white"/>
<path d="M285.1 385.05L265.24 425.05C264.116 427.324 262.4 429.253 260.273 430.634C258.146 432.016 255.686 432.799 253.152 432.901C250.618 433.003 248.103 432.421 245.871 431.216C243.639 430.01 241.774 428.226 240.47 426.05C231.53 411.05 220.39 392.58 214.93 384.27C227.79 385.19 241.59 386 255.93 386C266 386 275.75 385.61 285.1 385.05Z" fill="white"/>
<path d="M228.28 46.25C222.777 48.7178 217.787 52.1982 213.57 56.51L208.3 42.51L208.92 42.16C213.915 39.4924 218.744 36.5236 223.38 33.27L228.28 46.25Z" fill="#FA3268"/>
<path d="M262.61 28.1801C258.753 29.581 255.064 31.4055 251.61 33.6201C250.12 34.5501 248.61 35.4701 247.12 36.3701L240.92 19.9001C245.77 16.6073 250.956 13.8384 256.39 11.6401L262.61 28.1801Z" fill="#FA3268"/>
<path d="M300.54 14.59L292.41 38.11C288.92 32.7 284.22 28.39 277.91 26.87L284.33 8.26001C290.089 9.31347 295.592 11.4623 300.54 14.59Z" fill="#FA3268"/>
<path d="M334.59 59.7501L310.76 82.5001C308.173 76.8735 305.76 71.1701 303.52 65.3901L326.52 43.3901C328.72 47.1601 330.9 51.2901 333.02 55.7801C333 55.8101 333.67 57.2301 334.59 59.7501Z" fill="#FA3268"/>
<path d="M340.68 93.49C340.703 99.6178 340.001 105.727 338.59 111.69L311 117.43C314.98 111.978 316.871 105.278 316.33 98.55L340.68 93.49Z" fill="#FA3268"/>
<path d="M320.75 143.44C316.559 147.622 311.921 151.331 306.92 154.5C306.28 154.92 305.64 155.32 304.99 155.7L273.86 142.7L274.96 142.33C281.84 139.783 288.422 136.493 294.59 132.52L320.75 143.44Z" fill="#FA3268"/>
<path d="M295 161.12C288.163 164.942 282.251 170.22 277.68 176.58L238.64 172C240.708 165.672 244.521 160.056 249.64 155.8L295 161.12Z" fill="#FA3268"/>
<path d="M121.89 381.12C132.091 381.12 140.36 372.851 140.36 362.65C140.36 352.449 132.091 344.18 121.89 344.18C111.689 344.18 103.42 352.449 103.42 362.65C103.42 372.851 111.689 381.12 121.89 381.12Z" fill="#FCC8BC"/>
<path d="M392.78 381.12C402.981 381.12 411.25 372.851 411.25 362.65C411.25 352.449 402.981 344.18 392.78 344.18C382.579 344.18 374.31 352.449 374.31 362.65C374.31 372.851 382.579 381.12 392.78 381.12Z" fill="#FCC8BC"/>
</g>
<defs>
<clipPath id="clip0_809_2170">
<rect width="512" height="512" fill="white"/>
</clipPath>
</defs>
</svg>
