<svg width="512" height="512" viewBox="0 0 512 512" fill="none" xmlns="http://www.w3.org/2000/svg">
<g clip-path="url(#clip0_809_1209)">
<path d="M256 512C397.385 512 512 397.385 512 256C512 114.615 397.385 0 256 0C114.615 0 0 114.615 0 256C0 397.385 114.615 512 256 512Z" fill="#F55B4B"/>
<path d="M83.4902 62.5L83.0002 79.69C82.8815 83.8273 84.1721 87.8822 86.6602 91.19L135.66 156.37L182 121.54L133 56.35C130.521 53.0454 126.996 50.677 123 49.63L106.39 45.3C103.726 44.609 100.941 44.5273 98.2413 45.0611C95.5416 45.5949 92.9969 46.7303 90.7965 48.3831C88.596 50.0358 86.7965 52.1633 85.5315 54.6073C84.2666 57.0514 83.5688 59.7491 83.4902 62.5Z" fill="#E88032"/>
<path d="M99.1 44.8999C98.0776 47.1314 97.5164 49.5463 97.45 51.9999L97 69.1999C96.8893 73.3361 98.179 77.3885 100.66 80.6999L149.66 145.89L135.66 156.37L86.66 91.1899C84.1769 87.8796 82.8869 83.8265 83 79.6899L83.5 62.4999C83.6196 58.2014 85.2484 54.0822 88.1007 50.8641C90.953 47.6461 94.847 45.5347 99.1 44.8999Z" fill="#CE6F30"/>
<path d="M139.045 64.3187L92.6616 99.1572L110.582 123.017L156.966 88.1782L139.045 64.3187Z" fill="white"/>
<path d="M106.632 88.6761L92.6709 99.1619L110.592 123.021L124.552 112.536L106.632 88.6761Z" fill="#DDDAD9"/>
<path d="M418.36 50.3099L401.29 52.3099C397.181 52.8003 393.36 54.6685 390.45 57.6099L333.08 115.54L374.3 156.35L431.66 98.4199C434.578 95.4855 436.408 91.6444 436.85 87.5299L438.71 70.4399C439.006 67.7048 438.682 64.9382 437.76 62.346C436.839 59.7538 435.345 57.4028 433.389 55.4681C431.433 53.5334 429.066 52.0648 426.464 51.1717C423.862 50.2786 421.092 49.9841 418.36 50.3099Z" fill="#E88032"/>
<path d="M438.05 63.18C435.684 62.4977 433.205 62.2971 430.76 62.59L413.7 64.59C409.589 65.0804 405.764 66.9485 402.85 69.89L345.48 127.82L333.08 115.54L390.45 57.61C393.362 54.6705 397.182 52.8026 401.29 52.31L418.36 50.31C422.631 49.8029 426.944 50.8144 430.544 53.1674C434.143 55.5204 436.801 59.0648 438.05 63.18Z" fill="#CE6F30"/>
<path d="M424.64 105.537L383.421 64.7188L362.424 85.9217L403.643 126.74L424.64 105.537Z" fill="white"/>
<path d="M383.446 64.7251L362.449 85.928L374.855 98.2136L395.852 77.0107L383.446 64.7251Z" fill="#DDDAD9"/>
<path d="M420.1 190.88C420.1 190.88 437.25 210.88 434.57 242.35L406.47 225.35C406.56 227.54 406.62 229.75 406.62 231.97V463C362.867 494.89 310.122 512.072 255.98 512.072C201.838 512.072 149.093 494.89 105.34 463V232C105.34 231.56 105.34 231.13 105.34 230.69L86 242.35C83.36 211.35 100 191.47 100.46 190.9C99.5 190.54 98.52 190.207 97.52 189.9C96.85 189.71 96.18 189.54 95.52 189.39C94.84 189.23 94.15 189.1 93.46 188.98L92.39 188.81C91.69 188.7 90.99 188.61 90.28 188.54C89.57 188.46 88.86 188.4 88.15 188.35C70.94 187.19 52.28 193.53 51.75 193.71C66.22 156.02 109.1 146.19 109.1 146.19L91.4 123C97.6332 122.285 103.916 122.108 110.18 122.47C110.52 122.47 110.853 122.49 111.18 122.53C119.119 123.049 126.998 124.254 134.73 126.13C138.98 127.13 142.73 128.25 145.73 129.24C146.59 128.32 147.46 127.41 148.34 126.51C149 125.83 149.67 125.16 150.34 124.51C151.01 123.86 151.7 123.18 152.34 122.51C152.787 122.07 153.247 121.64 153.72 121.22C154.26 120.71 154.81 120.22 155.36 119.72L156.53 118.72C157 118.3 157.47 117.88 157.95 117.48L159.35 116.3L159.48 116.2C160.27 115.53 161.08 114.87 161.89 114.2C163.017 113.293 164.163 112.403 165.33 111.53L166.85 110.4C168.29 109.34 169.75 108.307 171.23 107.3L172.06 106.74L173.06 106.07L175.16 104.71L175.44 104.53C176.38 103.94 177.33 103.36 178.28 102.78C179.23 102.2 180.28 101.58 181.28 101C185.642 98.504 190.128 96.231 194.72 94.19C220.919 82.5632 249.893 78.6566 278.236 82.9293C306.578 87.202 333.113 99.4764 354.72 118.31C359.452 122.432 363.924 126.844 368.11 131.52C378.452 127.587 389.213 124.859 400.18 123.39C402.553 123.07 405 122.813 407.52 122.62C414.695 122.046 421.908 122.163 429.06 122.97L411.37 146.16C411.37 146.16 454.25 155.99 468.72 193.68C468.2 193.51 439.18 183.64 420.1 190.88Z" fill="#B0D46C"/>
<path d="M190.85 96.1299C186.91 103.25 183.18 110.673 179.66 118.4C178.553 120.82 177.473 123.27 176.42 125.75C168.889 143.483 162.705 161.758 157.92 180.42C151.625 204.921 147.384 229.904 145.24 255.11C144.033 269.11 143.42 283.38 143.4 297.92C143.4 317.25 144.51 340.26 146.63 364.85C147.18 371.16 147.79 377.58 148.47 384.07C152.36 421.37 158.4 460.89 166.27 495.82C144.562 487.701 124.063 476.659 105.34 463V232C105.34 231.56 105.34 231.13 105.34 230.69L85.9998 242.35C83.3598 211.35 99.9998 191.47 100.46 190.9C99.4598 190.53 98.5298 190.21 97.5298 189.9C96.8598 189.71 96.1898 189.54 95.5298 189.39C94.8498 189.23 94.1598 189.1 93.4698 188.98L92.3998 188.81C91.6998 188.7 90.9998 188.61 90.2898 188.54C89.5798 188.46 88.8698 188.4 88.1598 188.35C70.9498 187.19 52.2898 193.53 51.7598 193.71C66.2298 156.02 109.11 146.19 109.11 146.19L91.3998 123C97.633 122.285 103.916 122.108 110.18 122.47C110.52 122.47 110.853 122.49 111.18 122.53C119.119 123.049 126.998 124.254 134.73 126.13C138.98 127.13 142.73 128.25 145.73 129.24C146.59 128.32 147.46 127.41 148.34 126.51C149 125.83 149.67 125.16 150.34 124.51C151.01 123.86 151.7 123.18 152.34 122.51C152.786 122.07 153.246 121.64 153.72 121.22C154.26 120.71 154.81 120.22 155.36 119.72L156.53 118.72C157 118.3 157.47 117.88 157.95 117.48L159.35 116.3L159.48 116.2C160.27 115.52 161.08 114.87 161.89 114.2C163.016 113.293 164.163 112.403 165.33 111.53L166.85 110.4C168.29 109.34 169.75 108.307 171.23 107.3L172.05 106.74L173.05 106.07L175.15 104.71L175.43 104.53C176.37 103.94 177.32 103.36 178.27 102.78C179.22 102.2 180.27 101.58 181.27 101C184.53 99.3099 187.66 97.6599 190.85 96.1299Z" fill="#A5C462"/>
<path d="M257.42 349.57C320.286 349.57 371.25 298.606 371.25 235.74C371.25 172.873 320.286 121.91 257.42 121.91C194.553 121.91 143.59 172.873 143.59 235.74C143.59 298.606 194.553 349.57 257.42 349.57Z" fill="#A5C462"/>
<path d="M366 375.86C359.535 400.119 345.234 421.561 325.323 436.853C305.411 452.144 281.004 460.427 255.899 460.413C230.793 460.399 206.396 452.09 186.501 436.777C166.606 421.464 152.329 400.006 145.89 375.74C142.54 363 154.37 351.3 167 355.08L169.81 355.91C180.399 358.994 191.14 361.53 201.99 363.51C214.518 365.811 227.181 367.311 239.9 368C250.614 368.62 261.354 368.64 272.07 368.06C283.568 367.457 295.02 366.185 306.37 364.25C317.216 362.417 327.958 360.01 338.55 357.04C340.65 356.45 342.74 355.84 344.84 355.2C347.73 354.342 350.797 354.271 353.723 354.994C356.65 355.718 359.33 357.21 361.487 359.316C363.644 361.422 365.2 364.066 365.993 366.974C366.787 369.883 366.789 372.95 366 375.86Z" fill="#27273D"/>
<path d="M326.93 435.66C306.774 451.722 281.763 460.469 255.99 460.469C230.216 460.469 205.206 451.722 185.05 435.66C205.206 419.598 230.216 410.851 255.99 410.851C281.763 410.851 306.774 419.598 326.93 435.66Z" fill="#DB1B1B"/>
<path d="M385.95 334.65C395.587 334.65 403.4 326.837 403.4 317.2C403.4 307.563 395.587 299.75 385.95 299.75C376.313 299.75 368.5 307.563 368.5 317.2C368.5 326.837 376.313 334.65 385.95 334.65Z" fill="#C5E286"/>
<path d="M385.95 293.2C392.776 293.2 398.31 287.666 398.31 280.84C398.31 274.014 392.776 268.48 385.95 268.48C379.124 268.48 373.59 274.014 373.59 280.84C373.59 287.666 379.124 293.2 385.95 293.2Z" fill="#C5E286"/>
<path d="M257.42 336.76C313.212 336.76 358.44 291.532 358.44 235.74C358.44 179.948 313.212 134.72 257.42 134.72C201.628 134.72 156.4 179.948 156.4 235.74C156.4 291.532 201.628 336.76 257.42 336.76Z" fill="white"/>
<path d="M257.42 304C295.119 304 325.68 273.439 325.68 235.74C325.68 198.041 295.119 167.48 257.42 167.48C219.721 167.48 189.16 198.041 189.16 235.74C189.16 273.439 219.721 304 257.42 304Z" fill="#00E577"/>
<path d="M257.42 291.14C288.017 291.14 312.82 266.336 312.82 235.74C312.82 205.143 288.017 180.34 257.42 180.34C226.823 180.34 202.02 205.143 202.02 235.74C202.02 266.336 226.823 291.14 257.42 291.14Z" fill="#00B564"/>
<path d="M257.42 272.92C277.954 272.92 294.6 256.274 294.6 235.74C294.6 215.206 277.954 198.56 257.42 198.56C236.886 198.56 220.24 215.206 220.24 235.74C220.24 256.274 236.886 272.92 257.42 272.92Z" fill="#27273D"/>
<path d="M257.42 247.55C263.942 247.55 269.23 242.262 269.23 235.74C269.23 229.217 263.942 223.93 257.42 223.93C250.897 223.93 245.61 229.217 245.61 235.74C245.61 242.262 250.897 247.55 257.42 247.55Z" fill="white"/>
<path d="M281.03 222.18C287.553 222.18 292.84 216.893 292.84 210.37C292.84 203.848 287.553 198.56 281.03 198.56C274.508 198.56 269.22 203.848 269.22 210.37C269.22 216.893 274.508 222.18 281.03 222.18Z" fill="white"/>
<path d="M202 363.51V376.51C202 380.777 200.305 384.87 197.287 387.887C194.27 390.905 190.177 392.6 185.91 392.6C181.642 392.6 177.55 390.905 174.532 387.887C171.515 384.87 169.82 380.777 169.82 376.51V355.91C180.409 358.994 191.15 361.53 202 363.51Z" fill="white"/>
<path d="M338.55 357.07V376.55C338.55 380.817 336.855 384.91 333.837 387.927C330.82 390.945 326.727 392.64 322.46 392.64C318.193 392.64 314.1 390.945 311.083 387.927C308.065 384.91 306.37 380.817 306.37 376.55V364.28C317.217 362.447 327.958 360.04 338.55 357.07Z" fill="white"/>
<path d="M272.07 368.09V391.31C272.073 395.576 270.381 399.668 267.368 402.687C264.354 405.706 260.266 407.405 256 407.41C253.887 407.409 251.795 406.991 249.843 406.181C247.892 405.372 246.119 404.185 244.626 402.69C243.132 401.195 241.948 399.421 241.141 397.468C240.333 395.516 239.919 393.423 239.92 391.31V368C250.627 368.629 261.36 368.659 272.07 368.09Z" fill="white"/>
</g>
<defs>
<clipPath id="clip0_809_1209">
<rect width="512" height="512" fill="white"/>
</clipPath>
</defs>
</svg>
