<svg width="512" height="512" viewBox="0 0 512 512" fill="none" xmlns="http://www.w3.org/2000/svg">
<g clip-path="url(#clip0_809_2054)">
<path d="M256 512C397.385 512 512 397.385 512 256C512 114.615 397.385 0 256 0C114.615 0 0 114.615 0 256C0 397.385 114.615 512 256 512Z" fill="#F7BB38"/>
<path d="M152.82 127.79C152.82 127.79 58.5798 130.56 34.7399 78.68C34.2939 77.6452 33.5274 76.7809 32.5533 76.2145C31.5792 75.6481 30.449 75.4095 29.329 75.5338C28.2091 75.6581 27.1587 76.1388 26.3325 76.905C25.5063 77.6713 24.948 78.6826 24.7398 79.79C17.0398 119.2 14.3798 208.79 137.42 240.59L152.82 127.79Z" fill="#DB1B1B"/>
<path d="M152.82 128.88L137.44 241.68C32.7599 214.6 19.0599 145.73 22.0499 101.52C25.0499 144.2 48.1199 197.71 137.44 220.82L150 128.9C151.82 128.92 152.82 128.88 152.82 128.88Z" fill="#BF1919"/>
<path d="M56.4 140.21C63.2594 140.21 68.82 134.649 68.82 127.79C68.82 120.931 63.2594 115.37 56.4 115.37C49.5406 115.37 43.98 120.931 43.98 127.79C43.98 134.649 49.5406 140.21 56.4 140.21Z" fill="#F6D372"/>
<path d="M96.9197 158.07C101.852 158.07 105.85 154.072 105.85 149.14C105.85 144.208 101.852 140.21 96.9197 140.21C91.9878 140.21 87.9897 144.208 87.9897 149.14C87.9897 154.072 91.9878 158.07 96.9197 158.07Z" fill="#F6D372"/>
<path d="M68.8299 193.12C77.4897 193.12 84.5099 186.1 84.5099 177.44C84.5099 168.78 77.4897 161.76 68.8299 161.76C60.1701 161.76 53.1499 168.78 53.1499 177.44C53.1499 186.1 60.1701 193.12 68.8299 193.12Z" fill="#F6D372"/>
<path d="M360 127.79C360 127.79 454.25 130.56 478.09 78.68C478.536 77.6452 479.302 76.7809 480.277 76.2145C481.251 75.6481 482.381 75.4095 483.501 75.5338C484.621 75.6581 485.671 76.1388 486.497 76.905C487.324 77.6713 487.882 78.6826 488.09 79.79C495.79 119.2 498.45 208.79 375.4 240.59L360 127.79Z" fill="#DB1B1B"/>
<path d="M360 128.88L375.38 241.68C480.07 214.6 493.77 145.68 490.78 101.52C487.78 144.2 464.7 197.71 375.38 220.82L362.85 128.9C361 128.92 360 128.88 360 128.88Z" fill="#BF1919"/>
<path d="M456.41 140.21C463.269 140.21 468.83 134.649 468.83 127.79C468.83 120.931 463.269 115.37 456.41 115.37C449.55 115.37 443.99 120.931 443.99 127.79C443.99 134.649 449.55 140.21 456.41 140.21Z" fill="#F6D372"/>
<path d="M415.89 158.07C420.822 158.07 424.82 154.072 424.82 149.14C424.82 144.208 420.822 140.21 415.89 140.21C410.958 140.21 406.96 144.208 406.96 149.14C406.96 154.072 410.958 158.07 415.89 158.07Z" fill="#F6D372"/>
<path d="M443.99 193.12C452.65 193.12 459.67 186.1 459.67 177.44C459.67 168.78 452.65 161.76 443.99 161.76C435.33 161.76 428.31 168.78 428.31 177.44C428.31 186.1 435.33 193.12 443.99 193.12Z" fill="#F6D372"/>
<path d="M393 202.78C393 207.167 392.797 211.5 392.39 215.78C391.727 222.847 390.513 229.852 388.76 236.73C388.66 237.13 388.56 237.53 388.45 237.92C383.328 257.262 374.027 275.244 361.2 290.6C366.122 324.711 368.558 359.135 368.49 393.6C368.543 425.486 366.472 457.34 362.29 488.95C328.823 504.182 292.473 512.043 255.703 512C218.933 511.957 182.601 504.011 149.17 488.7C140.584 422.92 140.961 356.279 150.29 290.6C137.39 275.125 128.071 256.988 123 237.49C122.89 237.09 122.78 236.69 122.68 236.29C120.959 229.408 119.772 222.404 119.13 215.34C118.75 211.2 118.56 207.013 118.56 202.78C118.562 171.811 129.036 141.752 148.279 117.487C167.523 93.2219 194.405 76.1766 224.56 69.12C214 62 202.58 52.85 200.09 50.36C197.987 48.1455 196.833 45.1971 196.873 42.1437C196.913 39.0902 198.145 36.1732 200.305 34.0146C202.464 31.8559 205.382 30.6264 208.436 30.5882C211.489 30.55 214.437 31.7061 216.65 33.81C219.81 37 233.71 54.4 240.5 66.4C243.63 66.05 246.8 65.81 249.99 65.68C246.44 52.31 243.99 30.99 243.99 26.61C244.079 23.5649 245.351 20.6743 247.537 18.5519C249.722 16.4294 252.649 15.2422 255.695 15.2422C258.742 15.2422 261.668 16.4294 263.853 18.5519C266.039 20.6743 267.311 23.5649 267.4 26.61C267.4 30.99 265.01 52.31 261.46 65.68C265.647 65.8467 269.79 66.2034 273.89 66.75C280.65 54.75 294.8 37 298 33.81C300.195 31.6154 303.171 30.3824 306.275 30.3824C309.379 30.3824 312.355 31.6154 314.55 33.81C316.745 36.0047 317.978 38.9813 317.978 42.085C317.978 45.1888 316.745 48.1654 314.55 50.36C312 52.92 300.09 62.51 289.28 69.68C318.921 77.1492 345.22 94.2986 364.009 118.409C382.797 142.52 393 172.213 393 202.78Z" fill="#3586CB"/>
<path d="M255.75 319.26C259.593 319.26 263.278 320.787 265.996 323.504C268.713 326.221 270.24 329.907 270.24 333.75V354.75H241.24V333.75C241.24 331.845 241.615 329.96 242.345 328.2C243.074 326.441 244.143 324.843 245.491 323.497C246.838 322.151 248.438 321.084 250.199 320.357C251.959 319.63 253.845 319.257 255.75 319.26Z" fill="#F6D372"/>
<path d="M307.977 325.093C311.669 326.16 314.786 328.65 316.642 332.015C318.498 335.38 318.941 339.345 317.874 343.037L312.044 363.211L284.184 355.159L290.014 334.985C291.081 331.293 293.571 328.176 296.936 326.32C300.301 324.464 304.266 324.021 307.958 325.088L307.977 325.093Z" fill="#F6D372"/>
<path d="M339.986 340.364C341.393 340.762 342.708 341.434 343.855 342.341C345.002 343.248 345.959 344.372 346.671 345.65C347.382 346.927 347.834 348.333 348.002 349.785C348.169 351.238 348.048 352.71 347.645 354.115L343.267 369.609L321.884 363.566L326.262 348.073C327.064 345.237 328.958 342.836 331.53 341.398C334.102 339.959 337.139 339.602 339.975 340.403L339.986 340.364Z" fill="#F6D372"/>
<path d="M170.97 339.13C174.01 338.138 177.321 338.395 180.172 339.843C183.024 341.292 185.183 343.814 186.176 346.855L191.613 363.52L168.683 371.002L163.245 354.336C162.253 351.296 162.51 347.985 163.958 345.134C165.407 342.282 167.929 340.122 170.97 339.13Z" fill="#F6D372"/>
<path d="M209.967 311.694C214.815 311.242 219.645 312.734 223.393 315.842C227.141 318.951 229.501 323.421 229.953 328.269L232.424 354.754L195.863 358.165L193.392 331.68C192.94 326.832 194.432 322.003 197.54 318.254C200.649 314.506 205.119 312.146 209.967 311.694Z" fill="#F6D372"/>
<path d="M349.8 403C348.634 403 347.48 402.77 346.403 402.324C345.326 401.878 344.348 401.223 343.524 400.399C342.701 399.574 342.047 398.595 341.602 397.518C341.157 396.44 340.929 395.286 340.93 394.12C340.93 382.07 307.74 364.55 255.75 364.55C203.76 364.55 170.57 382.07 170.57 394.12C170.61 395.311 170.41 396.497 169.982 397.609C169.554 398.72 168.907 399.735 168.079 400.591C167.25 401.447 166.259 402.128 165.162 402.593C164.065 403.058 162.886 403.298 161.695 403.298C160.504 403.298 159.325 403.058 158.228 402.593C157.131 402.128 156.139 401.447 155.311 400.591C154.483 399.735 153.836 398.72 153.408 397.609C152.98 396.497 152.78 395.311 152.82 394.12C152.82 363.39 205.82 346.8 255.75 346.8C305.68 346.8 358.67 363.39 358.67 394.12C358.671 395.286 358.443 396.44 357.998 397.518C357.552 398.595 356.899 399.574 356.076 400.399C355.252 401.223 354.273 401.878 353.197 402.324C352.12 402.77 350.966 403 349.8 403Z" fill="#366FCA"/>
<path d="M255.75 415.09C288.268 415.09 314.63 408.424 314.63 400.2C314.63 391.977 288.268 385.31 255.75 385.31C223.231 385.31 196.87 391.977 196.87 400.2C196.87 408.424 223.231 415.09 255.75 415.09Z" fill="#366FCA"/>
<path d="M306.62 260.42C306.62 275.17 283.85 304.47 255.75 304.47C227.65 304.47 204.87 275.17 204.87 260.42C204.87 245.67 227.65 233.72 255.75 233.72C283.85 233.72 306.62 245.68 306.62 260.42Z" fill="#9E4830"/>
<path d="M242.676 286.331C246.082 282.926 244.255 275.578 238.596 269.919C232.938 264.26 225.59 262.434 222.185 265.839C218.779 269.245 220.606 276.592 226.265 282.251C231.923 287.91 239.271 289.736 242.676 286.331Z" fill="#723222"/>
<path d="M288.369 282.249C294.028 276.59 295.855 269.242 292.449 265.837C289.044 262.431 281.696 264.258 276.037 269.917C270.379 275.575 268.552 282.923 271.957 286.329C275.363 289.734 282.711 287.907 288.369 282.249Z" fill="#723222"/>
<path d="M255.75 260.57C267.414 260.57 276.87 256.097 276.87 250.58C276.87 245.063 267.414 240.59 255.75 240.59C244.086 240.59 234.63 245.063 234.63 250.58C234.63 256.097 244.086 260.57 255.75 260.57Z" fill="#AF4E37"/>
<path d="M202.04 227.81C230.477 227.81 253.53 204.757 253.53 176.32C253.53 147.883 230.477 124.83 202.04 124.83C173.603 124.83 150.55 147.883 150.55 176.32C150.55 204.757 173.603 227.81 202.04 227.81Z" fill="#366FCA"/>
<path d="M321.77 204.33C342.906 204.33 360.04 187.196 360.04 166.06C360.04 144.924 342.906 127.79 321.77 127.79C300.634 127.79 283.5 144.924 283.5 166.06C283.5 187.196 300.634 204.33 321.77 204.33Z" fill="#366FCA"/>
<path d="M202.04 235.83C227.262 235.83 247.71 215.383 247.71 190.16C247.71 164.937 227.262 144.49 202.04 144.49C176.817 144.49 156.37 164.937 156.37 190.16C156.37 215.383 176.817 235.83 202.04 235.83Z" fill="white"/>
<path d="M201.8 219.32C216.507 219.32 228.43 207.397 228.43 192.69C228.43 177.983 216.507 166.06 201.8 166.06C187.093 166.06 175.17 177.983 175.17 192.69C175.17 207.397 187.093 219.32 201.8 219.32Z" fill="#B0D46C"/>
<path d="M201.8 209.79C211.244 209.79 218.9 202.134 218.9 192.69C218.9 183.246 211.244 175.59 201.8 175.59C192.356 175.59 184.7 183.246 184.7 192.69C184.7 202.134 192.356 209.79 201.8 209.79Z" fill="#27273D"/>
<path d="M321.9 214.27C335.216 214.27 346.01 203.476 346.01 190.16C346.01 176.844 335.216 166.05 321.9 166.05C308.584 166.05 297.79 176.844 297.79 190.16C297.79 203.476 308.584 214.27 321.9 214.27Z" fill="white"/>
<path d="M321.77 205.56C329.535 205.56 335.83 199.265 335.83 191.5C335.83 183.735 329.535 177.44 321.77 177.44C314.005 177.44 307.71 183.735 307.71 191.5C307.71 199.265 314.005 205.56 321.77 205.56Z" fill="#B0D46C"/>
<path d="M321.77 200.53C326.757 200.53 330.8 196.487 330.8 191.5C330.8 186.513 326.757 182.47 321.77 182.47C316.783 182.47 312.74 186.513 312.74 191.5C312.74 196.487 316.783 200.53 321.77 200.53Z" fill="#27273D"/>
<path d="M168.2 256.03C172.773 256.03 176.48 252.323 176.48 247.75C176.48 243.177 172.773 239.47 168.2 239.47C163.627 239.47 159.92 243.177 159.92 247.75C159.92 252.323 163.627 256.03 168.2 256.03Z" fill="#41C0E3"/>
<path d="M191.59 277.38C196.163 277.38 199.87 273.673 199.87 269.1C199.87 264.527 196.163 260.82 191.59 260.82C187.017 260.82 183.31 264.527 183.31 269.1C183.31 273.673 187.017 277.38 191.59 277.38Z" fill="#41C0E3"/>
<path d="M168.2 277.38C172.773 277.38 176.48 273.673 176.48 269.1C176.48 264.527 172.773 260.82 168.2 260.82C163.627 260.82 159.92 264.527 159.92 269.1C159.92 273.673 163.627 277.38 168.2 277.38Z" fill="#41C0E3"/>
<path d="M342.49 256.03C347.063 256.03 350.77 252.323 350.77 247.75C350.77 243.177 347.063 239.47 342.49 239.47C337.917 239.47 334.21 243.177 334.21 247.75C334.21 252.323 337.917 256.03 342.49 256.03Z" fill="#41C0E3"/>
<path d="M319.1 277.38C323.673 277.38 327.38 273.673 327.38 269.1C327.38 264.527 323.673 260.82 319.1 260.82C314.527 260.82 310.82 264.527 310.82 269.1C310.82 273.673 314.527 277.38 319.1 277.38Z" fill="#41C0E3"/>
<path d="M342.49 277.38C347.063 277.38 350.77 273.673 350.77 269.1C350.77 264.527 347.063 260.82 342.49 260.82C337.917 260.82 334.21 264.527 334.21 269.1C334.21 273.673 337.917 277.38 342.49 277.38Z" fill="#41C0E3"/>
</g>
<defs>
<clipPath id="clip0_809_2054">
<rect width="512" height="512" fill="white"/>
</clipPath>
</defs>
</svg>
