<svg width="512" height="512" viewBox="0 0 512 512" fill="none" xmlns="http://www.w3.org/2000/svg">
<g clip-path="url(#clip0_809_1325)">
<path d="M256 512C397.385 512 512 397.385 512 256C512 114.615 397.385 0 256 0C114.615 0 0 114.615 0 256C0 397.385 114.615 512 256 512Z" fill="#F55B4B"/>
<path d="M319.18 477.15C319.194 486.459 318.229 495.743 316.3 504.85C275.771 514.599 233.483 514.376 193.06 504.2C191.225 495.301 190.307 486.237 190.32 477.15C190.212 460.915 193.234 444.812 199.22 429.72C201.041 425.211 203.186 420.839 205.64 416.64C207.099 414.126 208.688 411.69 210.4 409.34C221.68 393.79 236.85 384.1 253.57 383.67H254.75H255.3C274.71 383.9 292.08 396.59 303.78 416.51C306.268 420.751 308.44 425.17 310.28 429.73C316.265 444.819 319.286 460.919 319.18 477.15Z" fill="#3165AF"/>
<path d="M420.4 130.6C420.125 122.594 420.874 114.586 422.63 106.77C424.385 99.0548 427.002 91.5612 430.43 84.4301C433.761 77.4841 437.714 70.8537 442.24 64.6201C447.3 57.6277 452.929 51.0654 459.07 45.0001C460.688 43.4152 461.824 41.405 462.347 39.2017C462.87 36.9984 462.76 34.692 462.028 32.549C461.295 30.406 459.972 28.5139 458.21 27.0913C456.448 25.6688 454.319 24.7739 452.07 24.5101C424.85 21.0901 402.87 23.7201 385.15 29.9801C376.559 32.9764 368.401 37.0955 360.89 42.2301C349.34 50.2443 339.485 60.4595 331.89 72.2901C327.669 78.8077 324.051 85.6962 321.08 92.8701C317.074 102.261 314.249 112.113 312.67 122.2L435.85 181.2C425.46 163.15 420.94 146.18 420.4 130.6Z" fill="#4F4F74"/>
<path d="M360.93 42.23L430.43 84.43C433.761 77.484 437.714 70.8536 442.24 64.62L385.19 30C376.6 32.9901 368.442 37.1024 360.93 42.23Z" fill="#F6C752"/>
<path d="M420.4 130.6C420.125 122.594 420.874 114.586 422.63 106.77L331.94 72.29C327.719 78.8077 324.101 85.6961 321.13 92.87L420.4 130.6Z" fill="#F6C752"/>
<path d="M92.3099 130.6C92.585 122.594 91.8356 114.586 90.0799 106.77C88.3246 99.0548 85.7082 91.5612 82.2799 84.4301C78.9526 77.482 74.9996 70.8513 70.4699 64.6201C65.4098 57.6277 59.7807 51.0654 53.6399 45.0001C52.0222 43.4152 50.8861 41.405 50.3627 39.2017C49.8393 36.9984 49.9501 34.692 50.6822 32.549C51.4143 30.406 52.7379 28.5139 54.5 27.0913C56.262 25.6688 58.3907 24.7739 60.6399 24.5101C87.8699 21.0901 109.84 23.7201 127.56 29.9801C136.154 32.9765 144.315 37.0955 151.83 42.2301C163.379 50.2463 173.233 60.4612 180.83 72.2901C185.05 78.8077 188.669 85.6962 191.64 92.8701C195.629 102.263 198.437 112.115 200 122.2L76.8199 181.2C87.2499 163.15 91.7699 146.18 92.3099 130.6Z" fill="#4F4F74"/>
<path d="M254.75 434.15C386.387 434.15 493.1 361.531 493.1 271.95C493.1 182.369 386.387 109.75 254.75 109.75C123.113 109.75 16.3999 182.369 16.3999 271.95C16.3999 361.531 123.113 434.15 254.75 434.15Z" fill="#3586CB"/>
<path d="M295.94 431.73C282.27 433.353 268.516 434.161 254.75 434.15C123.11 434.15 16.3999 361.52 16.3999 272C16.3999 182.48 123.11 109.8 254.75 109.8C268.516 109.789 282.27 110.597 295.94 112.22C183.93 125.45 98.7799 191.93 98.7799 272C98.7799 352.07 183.93 418.45 295.94 431.73Z" fill="#366FCA"/>
<path d="M129.2 255.47C155.273 255.47 176.41 234.333 176.41 208.26C176.41 182.187 155.273 161.05 129.2 161.05C103.127 161.05 81.99 182.187 81.99 208.26C81.99 234.333 103.127 255.47 129.2 255.47Z" fill="white"/>
<path d="M129.2 238.73C144.586 238.73 157.06 226.257 157.06 210.87C157.06 195.483 144.586 183.01 129.2 183.01C113.813 183.01 101.34 195.483 101.34 210.87C101.34 226.257 113.813 238.73 129.2 238.73Z" fill="#B0D46C"/>
<path d="M128.94 231.74C140.466 231.74 149.81 222.396 149.81 210.87C149.81 199.344 140.466 190 128.94 190C117.414 190 108.07 199.344 108.07 210.87C108.07 222.396 117.414 231.74 128.94 231.74Z" fill="#27273D"/>
<path d="M141.37 203.02C144.965 203.02 147.88 200.105 147.88 196.51C147.88 192.915 144.965 190 141.37 190C137.774 190 134.86 192.915 134.86 196.51C134.86 200.105 137.774 203.02 141.37 203.02Z" fill="white"/>
<path d="M128.94 218.72C133.275 218.72 136.79 215.205 136.79 210.87C136.79 206.535 133.275 203.02 128.94 203.02C124.604 203.02 121.09 206.535 121.09 210.87C121.09 215.205 124.604 218.72 128.94 218.72Z" fill="white"/>
<path d="M382.01 255.47C408.083 255.47 429.22 234.333 429.22 208.26C429.22 182.187 408.083 161.05 382.01 161.05C355.936 161.05 334.8 182.187 334.8 208.26C334.8 234.333 355.936 255.47 382.01 255.47Z" fill="white"/>
<path d="M382.01 238.73C397.397 238.73 409.87 226.257 409.87 210.87C409.87 195.483 397.397 183.01 382.01 183.01C366.623 183.01 354.15 195.483 354.15 210.87C354.15 226.257 366.623 238.73 382.01 238.73Z" fill="#B0D46C"/>
<path d="M381.76 231.74C393.286 231.74 402.63 222.396 402.63 210.87C402.63 199.344 393.286 190 381.76 190C370.234 190 360.89 199.344 360.89 210.87C360.89 222.396 370.234 231.74 381.76 231.74Z" fill="#27273D"/>
<path d="M394.18 203.02C397.775 203.02 400.69 200.105 400.69 196.51C400.69 192.915 397.775 190 394.18 190C390.585 190 387.67 192.915 387.67 196.51C387.67 200.105 390.585 203.02 394.18 203.02Z" fill="white"/>
<path d="M381.76 218.72C386.095 218.72 389.61 215.205 389.61 210.87C389.61 206.535 386.095 203.02 381.76 203.02C377.424 203.02 373.91 206.535 373.91 210.87C373.91 215.205 377.424 218.72 381.76 218.72Z" fill="white"/>
<path d="M204.27 305.3C218.027 305.3 229.18 294.147 229.18 280.39C229.18 266.633 218.027 255.48 204.27 255.48C190.512 255.48 179.36 266.633 179.36 280.39C179.36 294.147 190.512 305.3 204.27 305.3Z" fill="white"/>
<path d="M204.27 296.46C212.388 296.46 218.97 289.879 218.97 281.76C218.97 273.641 212.388 267.06 204.27 267.06C196.151 267.06 189.57 273.641 189.57 281.76C189.57 289.879 196.151 296.46 204.27 296.46Z" fill="#B0D46C"/>
<path d="M204.14 292.77C210.221 292.77 215.15 287.841 215.15 281.76C215.15 275.679 210.221 270.75 204.14 270.75C198.059 270.75 193.13 275.679 193.13 281.76C193.13 287.841 198.059 292.77 204.14 292.77Z" fill="#27273D"/>
<path d="M210.7 277.61C212.594 277.61 214.13 276.074 214.13 274.18C214.13 272.286 212.594 270.75 210.7 270.75C208.806 270.75 207.27 272.286 207.27 274.18C207.27 276.074 208.806 277.61 210.7 277.61Z" fill="white"/>
<path d="M204.14 285.9C206.426 285.9 208.28 284.047 208.28 281.76C208.28 279.474 206.426 277.62 204.14 277.62C201.854 277.62 200 279.474 200 281.76C200 284.047 201.854 285.9 204.14 285.9Z" fill="white"/>
<path d="M305.45 305.3C319.207 305.3 330.36 294.147 330.36 280.39C330.36 266.633 319.207 255.48 305.45 255.48C291.693 255.48 280.54 266.633 280.54 280.39C280.54 294.147 291.693 305.3 305.45 305.3Z" fill="white"/>
<path d="M305.45 296.46C313.569 296.46 320.15 289.879 320.15 281.76C320.15 273.641 313.569 267.06 305.45 267.06C297.331 267.06 290.75 273.641 290.75 281.76C290.75 289.879 297.331 296.46 305.45 296.46Z" fill="#B0D46C"/>
<path d="M305.31 292.77C311.39 292.77 316.32 287.841 316.32 281.76C316.32 275.679 311.39 270.75 305.31 270.75C299.229 270.75 294.3 275.679 294.3 281.76C294.3 287.841 299.229 292.77 305.31 292.77Z" fill="#27273D"/>
<path d="M311.87 277.61C313.764 277.61 315.3 276.074 315.3 274.18C315.3 272.286 313.764 270.75 311.87 270.75C309.976 270.75 308.44 272.286 308.44 274.18C308.44 276.074 309.976 277.61 311.87 277.61Z" fill="white"/>
<path d="M305.31 285.9C307.596 285.9 309.45 284.047 309.45 281.76C309.45 279.474 307.596 277.62 305.31 277.62C303.023 277.62 301.17 279.474 301.17 281.76C301.17 284.047 303.023 285.9 305.31 285.9Z" fill="white"/>
<path d="M254.75 246.78C287.357 246.78 313.79 220.347 313.79 187.74C313.79 155.133 287.357 128.7 254.75 128.7C222.143 128.7 195.71 155.133 195.71 187.74C195.71 220.347 222.143 246.78 254.75 246.78Z" fill="white"/>
<path d="M254.75 225.85C273.992 225.85 289.59 210.252 289.59 191.01C289.59 171.769 273.992 156.17 254.75 156.17C235.508 156.17 219.91 171.769 219.91 191.01C219.91 210.252 235.508 225.85 254.75 225.85Z" fill="#B0D46C"/>
<path d="M254.43 217.11C268.844 217.11 280.53 205.425 280.53 191.01C280.53 176.596 268.844 164.91 254.43 164.91C240.015 164.91 228.33 176.596 228.33 191.01C228.33 205.425 240.015 217.11 254.43 217.11Z" fill="#27273D"/>
<path d="M269.97 181.18C274.465 181.18 278.11 177.536 278.11 173.04C278.11 168.545 274.465 164.9 269.97 164.9C265.474 164.9 261.83 168.545 261.83 173.04C261.83 177.536 265.474 181.18 269.97 181.18Z" fill="white"/>
<path d="M254.43 200.83C259.853 200.83 264.25 196.434 264.25 191.01C264.25 185.587 259.853 181.19 254.43 181.19C249.006 181.19 244.61 185.587 244.61 191.01C244.61 196.434 249.006 200.83 254.43 200.83Z" fill="white"/>
<path d="M464.08 295.96C473.955 295.96 481.96 287.955 481.96 278.08C481.96 268.205 473.955 260.2 464.08 260.2C454.205 260.2 446.2 268.205 446.2 278.08C446.2 287.955 454.205 295.96 464.08 295.96Z" fill="#489AD8"/>
<path d="M464.08 253.5C471.077 253.5 476.75 247.828 476.75 240.83C476.75 233.833 471.077 228.16 464.08 228.16C457.082 228.16 451.41 233.833 451.41 240.83C451.41 247.828 457.082 253.5 464.08 253.5Z" fill="#489AD8"/>
<path d="M151.79 42.23L82.28 84.43C78.9527 77.4819 74.9997 70.8512 70.47 64.62L127.52 30C136.113 32.9901 144.274 37.1024 151.79 42.23Z" fill="#F6C752"/>
<path d="M92.3098 130.6C92.5849 122.594 91.8355 114.586 90.0798 106.77L180.77 72.29C184.99 78.8077 188.609 85.6961 191.58 92.87L92.3098 130.6Z" fill="#F6C752"/>
<path d="M292.39 417.88C287.976 417.886 283.583 417.274 279.34 416.06C263.064 411.4 245.806 411.4 229.53 416.06C222.45 418.087 214.996 418.437 207.758 417.083C200.519 415.729 193.695 412.709 187.827 408.26C181.958 403.812 177.206 398.059 173.946 391.455C170.687 384.852 169.01 377.581 169.048 370.217C169.086 362.853 170.838 355.599 174.165 349.03C177.493 342.46 182.304 336.756 188.218 332.369C194.133 327.981 200.987 325.031 208.239 323.752C215.491 322.473 222.942 322.901 230 325C245.96 329.73 262.95 329.73 278.91 325C285.433 323.064 292.297 322.555 299.034 323.506C305.772 324.457 312.226 326.847 317.959 330.513C323.691 334.179 328.567 339.036 332.257 344.754C335.946 350.471 338.362 356.916 339.341 363.649C340.319 370.383 339.837 377.249 337.928 383.78C336.018 390.311 332.726 396.355 328.274 401.501C323.823 406.647 318.316 410.775 312.127 413.605C305.939 416.434 299.214 417.899 292.41 417.9L292.39 417.88Z" fill="#27273D"/>
<path d="M327.24 338.38C319.18 352.88 304.6 376.3 304.6 376.3L284.32 354.3L254.43 384.51L224.54 354.3L204.28 376.3C204.28 376.3 189.69 352.88 181.62 338.38C187.62 331.84 195.337 327.117 203.891 324.752C212.445 322.386 221.492 322.472 230 325C245.96 329.73 262.95 329.73 278.91 325C287.415 322.479 296.457 322.399 305.006 324.768C313.555 327.137 321.266 331.861 327.26 338.4L327.24 338.38Z" fill="white"/>
</g>
<defs>
<clipPath id="clip0_809_1325">
<rect width="512" height="512" fill="white"/>
</clipPath>
</defs>
</svg>
