<svg width="512" height="512" viewBox="0 0 512 512" fill="none" xmlns="http://www.w3.org/2000/svg">
<g clip-path="url(#clip0_809_1534)">
<path d="M256 512C397.385 512 512 397.385 512 256C512 114.615 397.385 0 256 0C114.615 0 0 114.615 0 256C0 397.385 114.615 512 256 512Z" fill="#FC4581"/>
<path d="M200.35 115.86C200.35 115.86 201.47 90.8599 158.47 78.3699C157.67 78.1415 156.955 77.6804 156.417 77.045C155.879 76.4096 155.542 75.6287 155.449 74.8014C155.356 73.9741 155.51 73.1377 155.893 72.3986C156.276 71.6594 156.871 71.0508 157.6 70.6499C168.09 64.8699 188.21 58.0699 214.12 69.7399C214.12 69.7399 224.65 45.6299 266.98 27.9499C267.676 27.6625 268.437 27.568 269.182 27.6765C269.928 27.7849 270.63 28.0922 271.215 28.566C271.801 29.0399 272.248 29.6627 272.509 30.3691C272.77 31.0754 272.836 31.8392 272.7 32.5799C270.94 42.1399 268.55 58.5799 270.85 67.8599C270.85 67.8599 313.85 18.1399 358.99 54.6899C359.708 55.2697 360.215 56.0698 360.433 56.9666C360.651 57.8634 360.567 58.8069 360.195 59.6514C359.823 60.4959 359.183 61.1943 358.374 61.6387C357.565 62.083 356.633 62.2487 355.72 62.1099C346.34 60.7199 335.11 62.6199 328.24 76.1099C328.24 76.1099 395.71 81.7899 376.7 87.1699C368.75 89.4199 309.76 90.5499 293.12 118.12L200.35 115.86Z" fill="#9E4830"/>
<path d="M447.08 162.28L446.56 182.17L439.93 434.07C416.49 458.303 388.492 477.666 357.545 491.045C326.598 504.423 293.312 511.554 259.6 512.028C225.889 512.502 192.416 506.31 161.105 493.806C129.794 481.303 101.263 462.735 77.1503 439.17L70.5503 188.33L69.8603 162.28C69.6612 154.963 70.8488 147.675 73.3603 140.8C73.8403 139.47 74.3603 138.16 74.9603 136.88C75.5603 135.6 76.1703 134.33 76.8403 133.09C77.2803 132.27 77.7503 131.46 78.2303 130.67C80.6461 126.672 83.5335 122.979 86.8303 119.67C87.1603 119.34 87.4903 119.01 87.8303 118.67C88.5003 118.02 89.1903 117.4 89.8903 116.79C90.8903 115.88 92.0303 115 93.1503 114.16C93.8903 113.6 94.6503 113.06 95.4203 112.54C95.8003 112.28 96.2003 112.02 96.6003 111.77C97.3903 111.26 98.1803 110.77 98.9903 110.31L100.22 109.62C101.04 109.17 101.88 108.74 102.72 108.34C103.93 107.75 105.16 107.21 106.42 106.71C111.695 104.604 117.251 103.29 122.91 102.81H123.06C124.667 102.67 126.297 102.6 127.95 102.6H389.33C397.063 102.637 404.71 104.219 411.824 107.252C418.937 110.285 425.372 114.709 430.751 120.264C436.131 125.819 440.347 132.393 443.151 139.599C445.955 146.806 447.291 154.5 447.08 162.23V162.28Z" fill="#F6C752"/>
<path d="M175.91 102.65C163.908 102.629 152.196 106.344 142.4 113.28H142.34C134.535 118.796 128.215 126.156 123.94 134.705C119.666 143.254 117.571 152.726 117.84 162.28L118.16 174.41L118.89 202.11L121.4 297.75L126.1 476.61C108.339 466.134 91.9039 453.556 77.1503 439.15L70.5503 188.31L69.8603 162.26C69.6612 154.943 70.8488 147.655 73.3603 140.78C73.8503 139.45 74.3603 138.14 74.9603 136.86C75.5603 135.58 76.1703 134.31 76.8403 133.07C77.2903 132.25 77.7503 131.44 78.2303 130.65C80.6461 126.652 83.5335 122.959 86.8303 119.65C87.1603 119.32 87.4903 118.99 87.8303 118.65C88.5003 118.01 89.1903 117.38 89.8903 116.77C90.8903 115.86 92.0303 114.98 93.1503 114.14C93.8903 113.59 94.6503 113.05 95.4203 112.52C95.8003 112.26 96.2003 112 96.6003 111.75C97.3803 111.24 98.1803 110.75 98.9903 110.29L100.22 109.6C101.04 109.16 101.88 108.73 102.72 108.32C103.93 107.73 105.16 107.19 106.42 106.69C111.695 104.584 117.251 103.27 122.91 102.79H123.06C124.667 102.65 126.297 102.58 127.95 102.58L175.91 102.65Z" fill="#DDAF4A"/>
<path d="M136.13 109.75C136.13 109.75 69.7502 78.7499 52.2502 34.0999C51.7956 32.9698 51.0029 32.0077 49.9805 31.3454C48.9581 30.6831 47.7561 30.3529 46.5388 30.3999C45.3215 30.447 44.1486 30.8691 43.1804 31.6084C42.2122 32.3476 41.4962 33.3681 41.1302 34.5299C30.8002 66.9999 18.8902 137.51 80.0002 198.52C81.3518 199.863 83.0744 200.772 84.9465 201.128C86.8185 201.485 88.7545 201.273 90.5052 200.52C92.256 199.768 93.7415 198.508 94.7706 196.904C95.7998 195.3 96.3255 193.425 96.2802 191.52L95.7802 171.67L123.83 175.11C125.352 175.297 126.897 175.114 128.333 174.578C129.769 174.041 131.055 173.166 132.081 172.027C133.108 170.888 133.844 169.518 134.229 168.034C134.613 166.549 134.634 164.994 134.29 163.5L128.35 137.72L144.43 130.42C145.901 129.75 147.159 128.687 148.063 127.347C148.967 126.007 149.483 124.443 149.553 122.828C149.623 121.214 149.246 119.611 148.461 118.197C147.677 116.784 146.517 115.615 145.11 114.82L136.13 109.75Z" fill="#F55B4B"/>
<path d="M375.91 109.75C375.91 109.75 442.3 78.7499 459.8 34.0999C460.255 32.9698 461.047 32.0077 462.07 31.3454C463.092 30.6831 464.294 30.3529 465.511 30.3999C466.729 30.447 467.902 30.8691 468.87 31.6084C469.838 32.3476 470.554 33.3681 470.92 34.5299C481.24 67.0399 493.16 137.53 432.03 198.53C430.679 199.877 428.956 200.789 427.082 201.147C425.208 201.506 423.27 201.295 421.517 200.541C419.764 199.788 418.277 198.527 417.247 196.921C416.218 195.315 415.693 193.437 415.74 191.53L416.25 171.68L388.2 175.12C386.678 175.307 385.134 175.124 383.697 174.588C382.261 174.051 380.975 173.176 379.949 172.037C378.923 170.898 378.186 169.528 377.802 168.044C377.417 166.559 377.396 165.004 377.74 163.51L383.67 137.73L367.59 130.43C366.119 129.76 364.862 128.697 363.958 127.357C363.053 126.017 362.538 124.453 362.467 122.838C362.397 121.224 362.775 119.621 363.559 118.207C364.343 116.794 365.503 115.625 366.91 114.83L375.91 109.75Z" fill="#F55B4B"/>
<path d="M416 174.58L439.71 171.67L439.22 190.73C436.893 193.343 434.437 195.94 431.85 198.52C430.499 199.863 428.776 200.772 426.904 201.128C425.032 201.485 423.096 201.273 421.345 200.52C419.594 199.768 418.109 198.508 417.08 196.904C416.051 195.3 415.525 193.425 415.57 191.52L416 174.58Z" fill="#DB4F45"/>
<path d="M474.83 49.81C450.5 85.89 399.34 109.81 399.34 109.81L390.34 114.87C388.933 115.665 387.773 116.834 386.989 118.247C386.205 119.661 385.827 121.264 385.898 122.878C385.968 124.493 386.484 126.057 387.388 127.397C388.292 128.737 389.549 129.8 391.02 130.47L407.1 137.77L401.17 163.55C400.765 165.3 400.863 167.129 401.452 168.825C402.041 170.522 403.098 172.018 404.5 173.14L387.99 175.14C386.469 175.325 384.926 175.141 383.491 174.604C382.056 174.066 380.772 173.191 379.747 172.052C378.721 170.913 377.986 169.544 377.602 168.061C377.218 166.577 377.197 165.023 377.54 163.53L383.47 137.75L367.39 130.45C365.919 129.78 364.662 128.717 363.758 127.377C362.854 126.037 362.338 124.473 362.268 122.858C362.197 121.244 362.575 119.641 363.359 118.227C364.143 116.814 365.303 115.645 366.71 114.85L375.71 109.79C375.71 109.79 442.09 78.79 459.59 34.13C460.045 32.9998 460.838 32.0378 461.86 31.3754C462.882 30.7131 464.085 30.3829 465.302 30.43C466.519 30.477 467.692 30.8991 468.66 31.6384C469.628 32.3777 470.344 33.3981 470.71 34.56C472.12 39 473.55 44.09 474.83 49.81Z" fill="#DB4F45"/>
<path d="M96.7603 174.59L73.0503 171.67L73.5403 190.73C75.867 193.343 78.3236 195.94 80.9103 198.52C82.2619 199.863 83.9845 200.772 85.8566 201.128C87.7286 201.485 89.6646 201.273 91.4153 200.52C93.1661 199.768 94.6516 198.508 95.6807 196.904C96.7099 195.3 97.2356 193.425 97.1903 191.52L96.7603 174.59Z" fill="#DB4F45"/>
<path d="M36.8604 49.8099C61.1804 85.8899 112.35 109.81 112.35 109.81L121.35 114.87C122.758 115.664 123.919 116.832 124.704 118.245C125.488 119.658 125.867 121.26 125.798 122.875C125.729 124.49 125.214 126.054 124.311 127.395C123.407 128.735 122.151 129.799 120.68 130.47L104.6 137.77L110.53 163.55C110.937 165.3 110.84 167.129 110.25 168.826C109.661 170.523 108.604 172.018 107.2 173.14L123.71 175.14C125.231 175.325 126.775 175.141 128.21 174.604C129.645 174.066 130.929 173.191 131.954 172.052C132.979 170.913 133.715 169.544 134.099 168.061C134.483 166.577 134.504 165.023 134.16 163.53L128.23 137.75L144.31 130.45C145.781 129.78 147.039 128.717 147.943 127.377C148.847 126.037 149.363 124.473 149.433 122.858C149.504 121.244 149.126 119.641 148.342 118.227C147.558 116.814 146.398 115.645 144.99 114.85L135.99 109.79C135.99 109.79 69.6003 78.7899 52.1003 34.0999C51.6378 32.9812 50.8433 32.0312 49.8242 31.378C48.805 30.7248 47.6101 30.3997 46.4005 30.4466C45.1909 30.4934 44.0247 30.91 43.0591 31.6401C42.0936 32.3702 41.375 33.3788 41.0004 34.5299C39.5704 38.9999 38.1404 44.0999 36.8604 49.8099Z" fill="#DB4F45"/>
<path d="M172.33 319.39C211.437 319.39 243.14 287.687 243.14 248.58C243.14 209.473 211.437 177.77 172.33 177.77C133.223 177.77 101.52 209.473 101.52 248.58C101.52 287.687 133.223 319.39 172.33 319.39Z" fill="white"/>
<path d="M172.33 294.29C195.41 294.29 214.12 275.58 214.12 252.5C214.12 229.42 195.41 210.71 172.33 210.71C149.25 210.71 130.54 229.42 130.54 252.5C130.54 275.58 149.25 294.29 172.33 294.29Z" fill="#3586CB"/>
<path d="M171.95 283.81C189.242 283.81 203.26 269.792 203.26 252.5C203.26 235.208 189.242 221.19 171.95 221.19C154.658 221.19 140.64 235.208 140.64 252.5C140.64 269.792 154.658 283.81 171.95 283.81Z" fill="#27273D"/>
<path d="M190.59 240.71C195.98 240.71 200.35 236.34 200.35 230.95C200.35 225.56 195.98 221.19 190.59 221.19C185.2 221.19 180.83 225.56 180.83 230.95C180.83 236.34 185.2 240.71 190.59 240.71Z" fill="white"/>
<path d="M171.95 264.28C178.456 264.28 183.73 259.006 183.73 252.5C183.73 245.994 178.456 240.72 171.95 240.72C165.444 240.72 160.17 245.994 160.17 252.5C160.17 259.006 165.444 264.28 171.95 264.28Z" fill="white"/>
<path d="M343.99 319.39C383.097 319.39 414.8 287.687 414.8 248.58C414.8 209.473 383.097 177.77 343.99 177.77C304.883 177.77 273.18 209.473 273.18 248.58C273.18 287.687 304.883 319.39 343.99 319.39Z" fill="white"/>
<path d="M343.99 294.29C367.07 294.29 385.78 275.58 385.78 252.5C385.78 229.42 367.07 210.71 343.99 210.71C320.91 210.71 302.2 229.42 302.2 252.5C302.2 275.58 320.91 294.29 343.99 294.29Z" fill="#3586CB"/>
<path d="M343.61 283.81C360.902 283.81 374.92 269.792 374.92 252.5C374.92 235.208 360.902 221.19 343.61 221.19C326.318 221.19 312.3 235.208 312.3 252.5C312.3 269.792 326.318 283.81 343.61 283.81Z" fill="#27273D"/>
<path d="M362.25 240.71C367.641 240.71 372.01 236.34 372.01 230.95C372.01 225.56 367.641 221.19 362.25 221.19C356.86 221.19 352.49 225.56 352.49 230.95C352.49 236.34 356.86 240.71 362.25 240.71Z" fill="white"/>
<path d="M343.61 264.28C350.116 264.28 355.39 259.006 355.39 252.5C355.39 245.994 350.116 240.72 343.61 240.72C337.104 240.72 331.83 245.994 331.83 252.5C331.83 259.006 337.104 264.28 343.61 264.28Z" fill="white"/>
<path d="M359.65 419C359.105 422.552 357.991 425.993 356.35 429.19C352 437.74 343.99 444.99 333.35 450.56C323.78 455.56 312.05 459.24 298.92 461.26C281.316 463.832 263.424 463.731 245.85 460.96C242.05 460.39 238.3 459.71 234.63 458.96C222.072 456.335 209.843 452.324 198.17 447C188.24 442.557 178.951 436.802 170.55 429.89C155.38 417.12 147.27 402.03 149.55 387.18C150.63 380.09 157.18 373.27 167.36 367.04C175.49 362.04 185.93 357.46 197.74 353.41C203.8 351.33 210.22 349.41 216.87 347.62C231.671 343.722 246.7 340.746 261.87 338.71C270.81 337.51 279.69 336.64 288.25 336.17C303.11 335.35 316.99 335.69 328.57 337.44C332.072 337.948 335.541 338.659 338.96 339.57C383.76 351.56 364.16 389.14 359.65 419Z" fill="#27273D"/>
<path d="M197.7 353.45V384.26C197.7 388.289 196.1 392.152 193.251 395.001C190.403 397.85 186.539 399.45 182.51 399.45C178.482 399.45 174.618 397.85 171.769 395.001C168.921 392.152 167.32 388.289 167.32 384.26V367.08C175.45 362.1 185.89 357.5 197.7 353.45Z" fill="white"/>
<path d="M261.85 338.75V362.6C261.85 370.99 251.77 377.79 239.34 377.79C226.91 377.79 216.83 370.99 216.83 362.6V347.66C231.638 343.761 246.674 340.786 261.85 338.75Z" fill="white"/>
<path d="M338.94 339.61L322.94 367.23C321.97 368.904 320.567 370.286 318.878 371.231C317.19 372.177 315.278 372.651 313.344 372.604C311.41 372.557 309.523 371.99 307.883 370.964C306.243 369.938 304.908 368.489 304.02 366.77L288.24 336.21C303.1 335.39 316.98 335.73 328.56 337.48C332.059 337.988 335.524 338.699 338.94 339.61Z" fill="white"/>
<path d="M414.8 408.67C424.918 408.67 433.12 400.468 433.12 390.35C433.12 380.232 424.918 372.03 414.8 372.03C404.682 372.03 396.48 380.232 396.48 390.35C396.48 400.468 404.682 408.67 414.8 408.67Z" fill="#F6D372"/>
<path d="M414.8 365.17C421.969 365.17 427.78 359.359 427.78 352.19C427.78 345.021 421.969 339.21 414.8 339.21C407.632 339.21 401.82 345.021 401.82 352.19C401.82 359.359 407.632 365.17 414.8 365.17Z" fill="#F6D372"/>
<path d="M356.35 429.13C352 437.68 343.99 444.93 333.35 450.5C323.78 455.5 312.05 459.18 298.92 461.2C281.316 463.772 263.424 463.671 245.85 460.9C242.05 460.32 238.3 459.65 234.63 458.9C222.075 456.29 209.848 452.299 198.17 447C188.242 442.554 178.953 436.799 170.55 429.89C190.24 417.11 224.76 408.64 264.04 408.64C302.56 408.62 336.49 416.76 356.35 429.13Z" fill="#DB1B1B"/>
<path d="M234.6 458.92C222.054 456.306 209.836 452.308 198.17 447L211.11 420.32C214.57 413.17 221.97 413.95 224.11 421.68L234.6 458.92Z" fill="white"/>
<path d="M333.32 450.56C323.75 455.56 312.02 459.24 298.89 461.26L297.89 430.85C297.63 422.91 304.54 420.16 310.07 426L333.32 450.56Z" fill="white"/>
</g>
<defs>
<clipPath id="clip0_809_1534">
<rect width="512" height="512" fill="white"/>
</clipPath>
</defs>
</svg>
