<svg width="60" height="60" viewBox="0 0 60 60" fill="none" xmlns="http://www.w3.org/2000/svg">
<g clip-path="url(#clip0_809_1785)">
<path d="M30 60C46.5685 60 60 46.5685 60 30C60 13.4315 46.5685 0 30 0C13.4315 0 0 13.4315 0 30C0 46.5685 13.4315 60 30 60Z" fill="#7CC8FB"/>
<path d="M54.2578 34.2879C54.2578 43.2199 50.4961 51.1629 44.6695 56.1738C38.7096 59.5052 31.7941 60.7115 25.0582 59.5946C21.7939 59.054 18.6425 57.9732 15.7336 56.3965C15.6387 56.3449 15.5437 56.2934 15.45 56.2406C9.57891 51.2285 5.7832 43.261 5.7832 34.2879C5.7832 28.977 7.11328 24.0188 9.41602 19.8164C9.67695 19.3399 9.95039 18.8735 10.2363 18.4172C11.5155 16.3622 13.0702 14.492 14.857 12.859C16.3525 11.4934 18.015 10.3228 19.8047 9.37502C20.1375 9.19924 20.4742 9.03205 20.8148 8.87346C21.9648 8.33652 23.1591 7.90013 24.3844 7.56916C24.7465 7.47189 25.1109 7.38283 25.4789 7.30432C26.7895 7.02424 28.1235 6.86731 29.4633 6.83557C29.6496 6.83557 29.8371 6.82736 30.0246 6.82736H30.3375C30.4207 6.82736 30.5039 6.82736 30.5859 6.82736C31.1531 6.84142 31.7152 6.87775 32.2723 6.93635C32.9668 7.00744 33.6523 7.11252 34.3289 7.25158C34.6977 7.3258 35.0633 7.40978 35.4258 7.50353C36.6594 7.82227 37.8632 8.2473 39.0234 8.77385C39.3656 8.9301 39.7035 9.09338 40.0371 9.26369C41.8974 10.2263 43.6235 11.4288 45.1711 12.8403C45.5664 13.1988 45.9508 13.5707 46.3242 13.9559C48.0085 15.7011 49.451 17.6643 50.6133 19.793C52.9242 24 54.2578 28.9676 54.2578 34.2879Z" fill="#00B564"/>
<path d="M30.5859 7.17656C30.2086 7.2457 29.8348 7.32538 29.4633 7.41093C28.1779 7.72003 26.9228 8.144 25.7133 8.67773C25.3586 8.83398 25.007 8.99999 24.6586 9.17578C23.6157 9.70299 22.6137 10.3074 21.6609 10.984C21.3445 11.2074 21.032 11.4394 20.7234 11.6801C19.1587 12.9091 17.7429 14.3167 16.5047 15.8742C15.3608 17.3156 14.3641 18.8679 13.5293 20.5078C11.3634 24.7772 10.244 29.5005 10.2633 34.2879C10.2633 45.6621 16.3641 55.4226 25.0582 59.6004C21.7939 59.0599 18.6425 57.979 15.7336 56.4023C9.7582 51.3937 5.88281 43.3594 5.88281 34.2879C5.88281 28.9992 7.20117 24.0598 9.48633 19.8738C9.74336 19.4004 10.0133 18.9371 10.2961 18.484C11.5716 16.4223 13.1235 14.5451 14.9086 12.9047C16.3938 11.5411 18.0447 10.3698 19.8223 9.41835C20.1551 9.24101 20.4914 9.07265 20.8312 8.91328C21.9771 8.37273 23.1675 7.93203 24.3891 7.59609C24.75 7.49609 25.1145 7.40585 25.4824 7.32538C26.7897 7.03867 28.1208 6.87429 29.4586 6.83437C29.6781 6.82734 29.8984 6.82382 30.1195 6.82382H30.3328H30.5812C31.1672 6.83554 31.7402 6.8707 32.3098 6.93046H32.2676C31.6996 6.99218 31.1391 7.07421 30.5859 7.17656Z" fill="#04A055"/>
<path d="M7.70722 5.13048C8.32011 6.71134 10.0943 10.2645 14.2029 12.4336C15.185 12.9566 15.9328 13.8319 16.296 14.8836C16.6593 15.9353 16.6111 17.0855 16.1611 18.1031C15.8844 18.7303 15.4657 19.2844 14.9379 19.7219C14.4102 20.1593 13.788 20.468 13.1205 20.6236C12.4529 20.7792 11.7583 20.7775 11.0916 20.6185C10.4248 20.4594 9.80418 20.1476 9.2787 19.7074C5.68222 16.7133 2.14433 11.6496 6.90683 5.02736C6.95526 4.96044 7.02084 4.90782 7.09666 4.87503C7.17248 4.84225 7.25574 4.83052 7.33767 4.84108C7.41959 4.85163 7.49716 4.88408 7.5622 4.93502C7.62723 4.98595 7.67733 5.05347 7.70722 5.13048Z" fill="#E88032"/>
<path d="M13.2959 20.5781C12.6058 20.7694 11.8797 20.7901 11.1799 20.6384C10.4801 20.4867 9.8276 20.1672 9.27869 19.7074C5.68221 16.7133 2.14432 11.6496 6.91385 5.02734C6.96235 4.96073 7.02787 4.90838 7.10355 4.8758C7.17924 4.84321 7.26229 4.83158 7.34401 4.84213C7.42573 4.85267 7.50311 4.885 7.56805 4.93573C7.63298 4.98646 7.68307 5.05372 7.71307 5.13047C7.8952 5.59589 8.10294 6.05088 8.33533 6.49336C5.03885 12.3984 8.31073 16.9383 11.6365 19.7074C12.1209 20.1132 12.6868 20.4101 13.2959 20.5781Z" fill="#D1702F"/>
<path d="M52.2926 5.13048C51.6797 6.71134 49.9055 10.2645 45.7969 12.4336C44.8148 12.9566 44.067 13.8319 43.7038 14.8836C43.3405 15.9353 43.3887 17.0855 43.8387 18.1031C44.1154 18.7303 44.5341 19.2844 45.0619 19.7219C45.5896 20.1593 46.2118 20.468 46.8793 20.6236C47.5469 20.7792 48.2415 20.7775 48.9082 20.6185C49.575 20.4594 50.1956 20.1476 50.7211 19.7074C54.3176 16.7133 57.8555 11.6496 53.093 5.02736C53.0445 4.96044 52.979 4.90782 52.9031 4.87503C52.8273 4.84225 52.7441 4.83052 52.6621 4.84108C52.5802 4.85163 52.5026 4.88408 52.4376 4.93502C52.3726 4.98595 52.3225 5.05347 52.2926 5.13048Z" fill="#E88032"/>
<path d="M46.0098 18.1043C46.2779 18.7202 46.6843 19.2661 47.1974 19.6996C47.7106 20.133 48.3167 20.4425 48.9687 20.6039C47.9561 20.8598 46.8856 20.7492 45.9467 20.2917C45.0078 19.8343 44.2609 19.0594 43.8383 18.1043C43.3882 17.0865 43.34 15.9361 43.7032 14.8842C44.0665 13.8323 44.8143 12.9568 45.7965 12.4336C49.9062 10.2645 51.6793 6.71134 52.2922 5.13048C52.3221 5.05347 52.3722 4.98595 52.4372 4.93502C52.5022 4.88408 52.5798 4.85163 52.6617 4.84108C52.7437 4.83052 52.8269 4.84225 52.9027 4.87503C52.9786 4.90782 53.0441 4.96044 53.0926 5.02736C53.3935 5.44256 53.6732 5.8728 53.9305 6.31642C52.6235 8.92235 50.5397 11.0582 47.9668 12.4289C46.9837 12.9524 46.2353 13.8288 45.8722 14.8818C45.5091 15.9347 45.5583 17.0861 46.0098 18.1043Z" fill="#D1702F"/>
<path d="M44.8297 47.9894C44.8316 48.9908 44.6353 49.9827 44.2521 50.9078C43.869 51.833 43.3066 52.6732 42.5973 53.3801C41.889 54.0871 41.0484 54.6477 40.1235 55.0297C39.1985 55.4118 38.2074 55.6078 37.2066 55.6066H23.1348C21.1146 55.6066 19.1771 54.8041 17.7486 53.3756C16.3201 51.9471 15.5176 50.0096 15.5176 47.9894C15.5176 45.9692 16.3201 44.0318 17.7486 42.6033C19.1771 41.1748 21.1146 40.3723 23.1348 40.3723H37.2113C39.2315 40.3723 41.169 41.1748 42.5975 42.6033C44.026 44.0318 44.8285 45.9692 44.8285 47.9894H44.8297Z" fill="#27273D"/>
<path d="M43.1871 43.2645L38.5547 47.1188C38.4298 47.2222 38.2831 47.296 38.1255 47.3347C37.968 47.3734 37.8038 47.3759 37.6452 47.3421C37.4865 47.3083 37.3376 47.239 37.2096 47.1394C37.0816 47.0399 36.9777 46.9126 36.9059 46.7672L35.8184 44.5664C35.7439 44.4162 35.6353 44.2856 35.5013 44.185C35.3672 44.0843 35.2114 44.0166 35.0464 43.987C34.8814 43.9575 34.7118 43.9671 34.5512 44.015C34.3905 44.0629 34.2434 44.1478 34.1215 44.2629L30.9035 47.2922C30.705 47.4801 30.4421 47.5848 30.1688 47.5848C29.8954 47.5848 29.6325 47.4801 29.434 47.2922L26.216 44.2629C26.0941 44.1478 25.947 44.0629 25.7863 44.015C25.6257 43.9671 25.4561 43.9575 25.2911 43.987C25.1261 44.0166 24.9703 44.0843 24.8362 44.185C24.7022 44.2856 24.5936 44.4162 24.5191 44.5664L23.4375 46.7707C23.3659 46.9163 23.2623 47.0437 23.1344 47.1434C23.0065 47.2431 22.8576 47.3125 22.699 47.3463C22.5404 47.3801 22.3761 47.3776 22.2187 47.3388C22.0612 47.3 21.9146 47.2259 21.7898 47.1223L17.1621 43.268C17.3443 43.036 17.5399 42.8149 17.748 42.6059C18.4553 41.8976 19.2958 41.3362 20.2209 40.9541C21.1461 40.5719 22.1377 40.3766 23.1387 40.3793H37.2117C38.361 40.3772 39.4958 40.6358 40.5308 41.1355C41.5658 41.6352 42.474 42.3631 43.1871 43.2645Z" fill="white"/>
<path d="M41.25 54.4488C40.0406 55.2081 38.6409 55.6095 37.2129 55.6066H23.1352C21.7084 55.6086 20.3101 55.2072 19.1016 54.4488C21.7887 53.0719 25.7555 52.2023 30.1781 52.2023C34.6008 52.2023 38.5617 53.0719 41.25 54.4488Z" fill="#DB1B1B"/>
<path d="M14.8379 33.2777C15.6857 33.2777 16.373 32.5904 16.373 31.7426C16.373 30.8947 15.6857 30.2074 14.8379 30.2074C13.99 30.2074 13.3027 30.8947 13.3027 31.7426C13.3027 32.5904 13.99 33.2777 14.8379 33.2777Z" fill="#4ACC97"/>
<path d="M14.8379 38.3695C15.6857 38.3695 16.373 37.6822 16.373 36.8344C16.373 35.9865 15.6857 35.2992 14.8379 35.2992C13.99 35.2992 13.3027 35.9865 13.3027 36.8344C13.3027 37.6822 13.99 38.3695 14.8379 38.3695Z" fill="#4ACC97"/>
<path d="M17.8168 35.5676C18.5235 35.5676 19.0965 34.9946 19.0965 34.2879C19.0965 33.5811 18.5235 33.0082 17.8168 33.0082C17.11 33.0082 16.5371 33.5811 16.5371 34.2879C16.5371 34.9946 17.11 35.5676 17.8168 35.5676Z" fill="#4ACC97"/>
<path d="M11.9013 35.5676C12.608 35.5676 13.181 34.9946 13.181 34.2879C13.181 33.5811 12.608 33.0082 11.9013 33.0082C11.1945 33.0082 10.6216 33.5811 10.6216 34.2879C10.6216 34.9946 11.1945 35.5676 11.9013 35.5676Z" fill="#4ACC97"/>
<path d="M44.8086 33.2777C45.6564 33.2777 46.3438 32.5904 46.3438 31.7426C46.3438 30.8947 45.6564 30.2074 44.8086 30.2074C43.9608 30.2074 43.2734 30.8947 43.2734 31.7426C43.2734 32.5904 43.9608 33.2777 44.8086 33.2777Z" fill="#4ACC97"/>
<path d="M44.8086 38.3695C45.6564 38.3695 46.3438 37.6822 46.3438 36.8344C46.3438 35.9865 45.6564 35.2992 44.8086 35.2992C43.9608 35.2992 43.2734 35.9865 43.2734 36.8344C43.2734 37.6822 43.9608 38.3695 44.8086 38.3695Z" fill="#4ACC97"/>
<path d="M47.7875 35.5676C48.4943 35.5676 49.0672 34.9946 49.0672 34.2879C49.0672 33.5811 48.4943 33.0082 47.7875 33.0082C47.0807 33.0082 46.5078 33.5811 46.5078 34.2879C46.5078 34.9946 47.0807 35.5676 47.7875 35.5676Z" fill="#4ACC97"/>
<path d="M41.872 35.5676C42.5787 35.5676 43.1517 34.9946 43.1517 34.2879C43.1517 33.5811 42.5787 33.0082 41.872 33.0082C41.1652 33.0082 40.5923 33.5811 40.5923 34.2879C40.5923 34.9946 41.1652 35.5676 41.872 35.5676Z" fill="#4ACC97"/>
<path d="M30.0208 13.8656C29.8719 13.8656 29.7292 13.8065 29.6239 13.7012C29.5186 13.596 29.4595 13.4532 29.4595 13.3043V3.64571C29.4595 3.49684 29.5186 3.35406 29.6239 3.24879C29.7292 3.14352 29.8719 3.08438 30.0208 3.08438C30.1697 3.08438 30.3125 3.14352 30.4177 3.24879C30.523 3.35406 30.5821 3.49684 30.5821 3.64571V13.3043C30.5823 13.3781 30.5679 13.4511 30.5397 13.5193C30.5116 13.5875 30.4702 13.6494 30.4181 13.7016C30.3659 13.7537 30.304 13.7951 30.2358 13.8232C30.1676 13.8514 30.0946 13.8658 30.0208 13.8656Z" fill="#27273D"/>
<path d="M26.0085 14.3789C25.8757 14.379 25.7472 14.332 25.6459 14.2461C25.5446 14.1602 25.4771 14.0412 25.4554 13.9102L23.8499 4.38517C23.8378 4.31223 23.8401 4.2376 23.8568 4.16555C23.8735 4.09351 23.9042 4.02546 23.9472 3.96528C23.9902 3.9051 24.0446 3.85398 24.1073 3.81483C24.1701 3.77569 24.2399 3.74928 24.3128 3.73712C24.3858 3.72497 24.4604 3.7273 24.5325 3.74398C24.6045 3.76066 24.6726 3.79137 24.7327 3.83435C24.7929 3.87734 24.844 3.93175 24.8832 3.99449C24.9223 4.05723 24.9487 4.12707 24.9609 4.20001L26.5664 13.7238C26.5911 13.8708 26.5565 14.0217 26.4702 14.1432C26.3838 14.2647 26.2528 14.3469 26.1058 14.3719C26.0736 14.3767 26.0411 14.379 26.0085 14.3789Z" fill="#27273D"/>
<path d="M23.0552 16.575C22.9431 16.5753 22.8335 16.542 22.7405 16.4793C22.6475 16.4166 22.5755 16.3275 22.5337 16.2234L18.9607 7.24688C18.9129 7.11 18.9197 6.95992 18.9799 6.82797C19.04 6.69602 19.1488 6.5924 19.2835 6.53873C19.4182 6.48506 19.5684 6.48548 19.7028 6.53991C19.8373 6.59435 19.9454 6.69858 20.0048 6.83087L23.5767 15.8051C23.6108 15.8903 23.6235 15.9826 23.6137 16.0738C23.6039 16.165 23.5718 16.2525 23.5203 16.3285C23.4689 16.4045 23.3996 16.4667 23.3185 16.5096C23.2374 16.5526 23.147 16.5751 23.0552 16.575Z" fill="#27273D"/>
<path d="M33.7887 14.3789C33.7573 14.3789 33.726 14.3765 33.6949 14.3719C33.548 14.3469 33.4169 14.2647 33.3306 14.1431C33.2442 14.0216 33.2096 13.8708 33.2344 13.7238L34.8399 4.19999C34.8646 4.05314 34.9466 3.92211 35.0679 3.83575C35.1892 3.74938 35.3399 3.71474 35.4867 3.73944C35.6336 3.76415 35.7646 3.84619 35.851 3.9675C35.9373 4.08881 35.972 4.23947 35.9473 4.38632L34.3418 13.9113C34.3197 14.042 34.252 14.1607 34.1507 14.2463C34.0495 14.3318 33.9212 14.3788 33.7887 14.3789Z" fill="#27273D"/>
<path d="M36.7414 16.575C36.6496 16.5751 36.5592 16.5526 36.4781 16.5097C36.397 16.4667 36.3277 16.4045 36.2763 16.3285C36.2248 16.2525 36.1927 16.1651 36.1829 16.0738C36.1731 15.9826 36.1858 15.8903 36.2199 15.8051L39.7918 6.83088C39.8191 6.7624 39.8596 6.69996 39.9111 6.64715C39.9625 6.59433 40.0238 6.55217 40.0916 6.52306C40.1593 6.49395 40.2321 6.47847 40.3059 6.4775C40.3796 6.47653 40.4528 6.49009 40.5213 6.5174C40.5897 6.54472 40.6522 6.58525 40.705 6.6367C40.7578 6.68814 40.8 6.74949 40.8291 6.81722C40.8582 6.88496 40.8737 6.95777 40.8746 7.0315C40.8756 7.10522 40.862 7.17841 40.8347 7.24689L37.2652 16.2211C37.2237 16.326 37.1514 16.4159 37.058 16.479C36.9645 16.5422 36.8542 16.5756 36.7414 16.575Z" fill="#27273D"/>
<path d="M30.0207 37.8926C36.953 37.8926 42.5727 32.2729 42.5727 25.3407C42.5727 18.4084 36.953 12.7887 30.0207 12.7887C23.0884 12.7887 17.4688 18.4084 17.4688 25.3407C17.4688 32.2729 23.0884 37.8926 30.0207 37.8926Z" fill="white"/>
<path d="M30.0209 33.4441C34.1126 33.4441 37.4295 30.1272 37.4295 26.0355C37.4295 21.9439 34.1126 18.627 30.0209 18.627C25.9292 18.627 22.6123 21.9439 22.6123 26.0355C22.6123 30.1272 25.9292 33.4441 30.0209 33.4441Z" fill="#3586CB"/>
<path d="M29.9543 31.5855C33.0195 31.5855 35.5043 29.1007 35.5043 26.0355C35.5043 22.9704 33.0195 20.4855 29.9543 20.4855C26.8891 20.4855 24.4043 22.9704 24.4043 26.0355C24.4043 29.1007 26.8891 31.5855 29.9543 31.5855Z" fill="#27273D"/>
<path d="M33.2577 23.9473C34.2136 23.9473 34.9886 23.1723 34.9886 22.2164C34.9886 21.2605 34.2136 20.4855 33.2577 20.4855C32.3018 20.4855 31.5269 21.2605 31.5269 22.2164C31.5269 23.1723 32.3018 23.9473 33.2577 23.9473Z" fill="white"/>
<path d="M29.954 28.1238C31.1073 28.1238 32.0423 27.1889 32.0423 26.0355C32.0423 24.8822 31.1073 23.9473 29.954 23.9473C28.8007 23.9473 27.8657 24.8822 27.8657 26.0355C27.8657 27.1889 28.8007 28.1238 29.954 28.1238Z" fill="white"/>
</g>
<defs>
<clipPath id="clip0_809_1785">
<rect width="60" height="60" fill="white"/>
</clipPath>
</defs>
</svg>
