<svg width="512" height="512" viewBox="0 0 512 512" fill="none" xmlns="http://www.w3.org/2000/svg">
<g clip-path="url(#clip0_809_1566)">
<path d="M256 512C397.385 512 512 397.385 512 256C512 114.615 397.385 0 256 0C114.615 0 0 114.615 0 256C0 397.385 114.615 512 256 512Z" fill="#3586CB"/>
<path d="M454.81 239.16C454.81 264.01 450.14 353.62 441.63 400.98C441.283 403.022 440.31 404.906 438.846 406.371C437.382 407.837 435.499 408.811 433.457 409.16C431.415 409.509 429.315 409.216 427.447 408.32C425.58 407.424 424.036 405.971 423.03 404.16C413.717 387.798 403.445 372.001 392.27 356.85C371.03 328.12 325.47 344.29 327.27 379.97L333.2 500.16C286.177 514.951 235.897 515.937 188.33 503L194.63 375.29C196.43 338.91 149.32 323.15 128.82 353.29C125.82 357.67 122.94 362.09 120.13 366.51C119.857 366.93 119.597 367.35 119.35 367.77C118.62 368.91 117.91 370.05 117.2 371.2C116.49 372.35 115.83 373.41 115.2 374.52C114.2 376.1 113.27 377.68 112.34 379.25L110.86 381.75C110.833 381.788 110.81 381.828 110.79 381.87C109.21 384.537 107.673 387.203 106.18 389.87C105.33 391.36 104.5 392.87 103.67 394.31C101.94 397.41 100.26 400.49 98.6701 403.52C98.4349 403.957 98.171 404.378 97.8801 404.78C97.5998 405.162 97.2924 405.522 96.9601 405.86C95.2649 407.54 93.0306 408.566 90.6518 408.758C88.2731 408.951 85.9029 408.296 83.9601 406.91C83.7301 406.74 83.5101 406.57 83.2901 406.38C83.0657 406.203 82.8551 406.009 82.6601 405.8C81.2527 404.353 80.3211 402.511 79.9901 400.52C78.6701 393.1 77.4401 384.66 76.3101 375.62C75.8601 372 75.4201 368.28 75.0001 364.5C74.5801 360.72 74.1801 356.86 73.7801 352.95C73.3801 349.04 72.9301 345 72.5701 341C72.3001 338 72.0401 335 71.7901 332.05C71.6301 330.05 71.4601 328.05 71.3001 326.05C70.8301 320.05 70.3901 314.14 69.9801 308.32C69.9801 307.82 69.9101 307.32 69.8801 306.85C69.7901 305.4 69.6901 303.96 69.5901 302.53C69.4034 299.657 69.2234 296.827 69.0501 294.04C68.8801 291.26 68.7201 288.52 68.5701 285.84L68.4201 283.18C68.3001 280.967 68.1868 278.807 68.0801 276.7C68.0801 275.85 67.9901 275.02 67.9501 274.19C67.8501 272.12 67.7601 270.09 67.6701 268.13C67.6701 267.35 67.6001 266.57 67.5601 265.81C67.5601 265.05 67.5001 264.29 67.4701 263.55C67.4401 262.81 67.4101 262.05 67.3801 261.33C67.3501 260.61 67.3201 259.89 67.2901 259.19C66.9701 250.73 66.8101 243.83 66.8101 239.19C66.7983 221.791 69.1224 204.47 73.7201 187.69C73.8601 187.15 74.0101 186.62 74.1701 186.08C75.2234 182.38 76.3801 178.713 77.6401 175.08C77.6401 174.95 77.7301 174.82 77.7801 174.69C80.9227 165.78 84.7093 157.11 89.1101 148.75L90.1901 146.75C92.3034 142.857 94.5401 139.053 96.9001 135.34C103.665 124.694 111.445 114.727 120.13 105.58L120.37 105.34C121.44 104.22 122.53 103.11 123.62 102.01C125.92 99.7099 128.28 97.4666 130.7 95.2799C135.766 90.6862 141.073 86.3667 146.6 82.3399C149.12 80.4999 151.67 78.7299 154.28 77.0199C156.233 75.7399 158.207 74.4899 160.2 73.2699C162.2 72.0499 164.2 70.8699 166.27 69.7299C168.997 68.2099 171.767 66.7499 174.58 65.3499C178.087 63.6033 181.657 61.9633 185.29 60.4299C186.74 59.8099 188.2 59.2199 189.67 58.6399C193.337 57.1933 197.06 55.8599 200.84 54.6399C210.767 51.4137 220.941 49.0024 231.26 47.4299C233.66 47.0599 236.09 46.7299 238.52 46.4299C245.916 45.582 253.355 45.158 260.8 45.1599H263.65C265.55 45.1599 267.44 45.2299 269.32 45.3199C310.68 47.0728 350.38 62.0779 382.56 88.1199C386.56 91.3466 390.437 94.7366 394.19 98.2899C404.405 107.964 413.545 118.713 421.45 130.35C423.943 134.023 426.31 137.783 428.55 141.63C434.26 151.429 439.096 161.712 443 172.36C444.507 176.467 445.877 180.64 447.11 184.88C452.232 202.518 454.825 220.793 454.81 239.16Z" fill="#FC4581"/>
<path d="M260.81 45.1699C268.329 45.1677 275.842 45.6018 283.31 46.4699C186.77 57.6099 111.81 139.64 111.81 239.17C111.81 258.78 114.72 318.74 120.13 366.43C112.22 378.92 105.02 391.43 98.6001 403.43C97.6254 405.281 96.0946 406.78 94.2232 407.716C92.3518 408.651 90.2341 408.976 88.1683 408.645C86.1025 408.314 84.1926 407.343 82.7076 405.869C81.2225 404.396 80.2371 402.493 79.8901 400.43C71.4501 352.92 66.8101 263.92 66.8101 239.18C66.8101 132 153.67 45.1699 260.81 45.1699Z" fill="#E03472"/>
<path d="M111.6 192.33C102.26 192.352 92.937 191.545 83.7399 189.92C52.9999 184.32 31.9999 169.3 23.2799 146.47C22.654 144.84 22.7011 143.029 23.4109 141.434C24.1208 139.839 25.4351 138.591 27.0649 137.965C28.6946 137.339 30.5063 137.386 32.1013 138.096C33.6963 138.806 34.944 140.12 35.5699 141.75C52.8299 186.75 124.42 178.61 125.14 178.52C126.009 178.391 126.896 178.437 127.747 178.657C128.598 178.876 129.397 179.264 130.096 179.797C130.795 180.33 131.38 180.997 131.817 181.76C132.253 182.523 132.533 183.366 132.638 184.238C132.744 185.111 132.673 185.996 132.431 186.841C132.189 187.686 131.78 188.474 131.229 189.158C130.677 189.843 129.994 190.41 129.219 190.825C128.445 191.241 127.595 191.498 126.72 191.58C121.698 192.115 116.65 192.366 111.6 192.33Z" fill="#27273D"/>
<path d="M140.16 167C139.754 166.999 139.349 166.959 138.95 166.88C125.874 164.128 113.235 159.606 101.38 153.44C75.6301 139.91 61.2701 120.72 59.8701 98C59.8076 96.2855 60.4171 94.6145 61.5688 93.3429C62.7205 92.0714 64.3233 91.2999 66.0356 91.193C67.7479 91.086 69.4342 91.6521 70.7351 92.7705C72.0361 93.8888 72.8488 95.4711 73.0001 97.18C75.7101 141.12 140.7 153.85 141.35 153.98C142.964 154.279 144.408 155.17 145.398 156.478C146.389 157.787 146.855 159.418 146.704 161.053C146.554 162.687 145.799 164.206 144.586 165.312C143.373 166.418 141.791 167.03 140.15 167.03L140.16 167Z" fill="#27273D"/>
<path d="M157.63 150.57C156.178 150.559 154.771 150.067 153.63 149.17C151.48 147.5 101.25 107.58 120.43 64.3598C120.743 63.5178 121.226 62.7488 121.848 62.1004C122.47 61.452 123.218 60.9379 124.047 60.5898C124.875 60.2417 125.766 60.0669 126.665 60.0763C127.563 60.0857 128.45 60.279 129.271 60.6443C130.092 61.0096 130.83 61.5392 131.438 62.2004C132.047 62.8617 132.513 63.6405 132.809 64.489C133.105 65.3374 133.224 66.2375 133.159 67.1337C133.093 68.0299 132.845 68.9032 132.43 69.6998C117.43 103.63 161.26 138.46 161.71 138.8C162.792 139.643 163.583 140.804 163.973 142.119C164.363 143.434 164.333 144.839 163.885 146.136C163.438 147.432 162.596 148.557 161.478 149.352C160.36 150.147 159.022 150.573 157.65 150.57H157.63Z" fill="#27273D"/>
<path d="M183.11 146.22C181.906 146.222 180.724 145.893 179.694 145.268C178.664 144.644 177.825 143.749 177.27 142.68C176.27 140.68 152.14 93.6299 181.45 67.5499C182.095 66.9753 182.848 66.5336 183.664 66.2498C184.48 65.966 185.344 65.8457 186.207 65.8959C187.07 65.946 187.914 66.1656 188.692 66.542C189.469 66.9185 190.165 67.4444 190.74 68.0899C191.315 68.7353 191.756 69.4876 192.04 70.3038C192.324 71.12 192.444 71.9841 192.394 72.8467C192.344 73.7094 192.124 74.5537 191.748 75.3315C191.371 76.1093 190.845 76.8053 190.2 77.3799C168.47 96.7099 188.73 136.2 188.93 136.59C189.454 137.592 189.711 138.712 189.676 139.843C189.642 140.973 189.316 142.075 188.731 143.043C188.146 144.011 187.322 144.812 186.337 145.368C185.352 145.925 184.241 146.218 183.11 146.22Z" fill="#27273D"/>
<path d="M179.71 257.68C216.729 257.68 246.74 227.67 246.74 190.65C246.74 153.63 216.729 123.62 179.71 123.62C142.69 123.62 112.68 153.63 112.68 190.65C112.68 227.67 142.69 257.68 179.71 257.68Z" fill="white"/>
<path d="M179.71 233.92C201.558 233.92 219.27 216.208 219.27 194.36C219.27 172.511 201.558 154.8 179.71 154.8C157.862 154.8 140.15 172.511 140.15 194.36C140.15 216.208 157.862 233.92 179.71 233.92Z" fill="#F7BB38"/>
<path d="M179.35 224C195.72 224 208.99 210.73 208.99 194.36C208.99 177.99 195.72 164.72 179.35 164.72C162.98 164.72 149.71 177.99 149.71 194.36C149.71 210.73 162.98 224 179.35 224Z" fill="#27273D"/>
<path d="M197 183.21C202.103 183.21 206.24 179.073 206.24 173.97C206.24 168.867 202.103 164.73 197 164.73C191.897 164.73 187.76 168.867 187.76 173.97C187.76 179.073 191.897 183.21 197 183.21Z" fill="white"/>
<path d="M179.35 205.51C185.508 205.51 190.5 200.518 190.5 194.36C190.5 188.202 185.508 183.21 179.35 183.21C173.192 183.21 168.2 188.202 168.2 194.36C168.2 200.518 173.192 205.51 179.35 205.51Z" fill="white"/>
<path d="M400.4 192.33C409.74 192.352 419.063 191.545 428.26 189.92C459.05 184.32 479.96 169.3 488.72 146.47C489.346 144.84 489.299 143.029 488.589 141.434C487.879 139.839 486.565 138.591 484.935 137.965C483.305 137.339 481.493 137.386 479.898 138.096C478.303 138.806 477.056 140.12 476.43 141.75C459.17 186.75 387.58 178.61 386.86 178.52C385.99 178.391 385.104 178.437 384.253 178.657C383.401 178.876 382.603 179.264 381.904 179.797C381.205 180.33 380.62 180.997 380.183 181.76C379.746 182.523 379.467 183.366 379.362 184.238C379.256 185.111 379.326 185.996 379.568 186.841C379.811 187.686 380.22 188.474 380.771 189.158C381.323 189.843 382.006 190.41 382.78 190.825C383.555 191.241 384.405 191.498 385.28 191.58C390.302 192.115 395.35 192.366 400.4 192.33Z" fill="#27273D"/>
<path d="M371.84 167C372.246 166.999 372.651 166.959 373.05 166.88C386.126 164.128 398.765 159.606 410.62 153.44C436.37 139.88 450.73 120.69 452.13 97.96C452.176 96.2522 451.556 94.5935 450.402 93.3344C449.247 92.0754 447.648 91.3148 445.943 91.2135C444.237 91.1122 442.559 91.6781 441.264 92.7916C439.968 93.905 439.156 95.4788 439 97.18C436.29 141.12 371.3 153.85 370.65 153.98C369.036 154.279 367.592 155.17 366.602 156.478C365.611 157.787 365.145 159.418 365.296 161.052C365.446 162.687 366.202 164.206 367.414 165.312C368.627 166.418 370.209 167.03 371.85 167.03L371.84 167Z" fill="#27273D"/>
<path d="M354.37 150.57C355.822 150.559 357.229 150.067 358.37 149.17C360.52 147.5 410.75 107.58 391.57 64.3598C390.796 62.8755 389.484 61.7422 387.903 61.1908C386.323 60.6394 384.591 60.7114 383.061 61.3921C381.532 62.0728 380.319 63.311 379.67 64.8545C379.022 66.398 378.986 68.1308 379.57 69.6998C394.62 103.63 350.74 138.46 350.29 138.8C349.208 139.643 348.417 140.804 348.026 142.119C347.636 143.434 347.667 144.839 348.115 146.135C348.562 147.432 349.403 148.557 350.522 149.352C351.64 150.147 352.978 150.573 354.35 150.57H354.37Z" fill="#27273D"/>
<path d="M328.89 146.22C330.094 146.222 331.276 145.893 332.306 145.268C333.336 144.644 334.174 143.749 334.73 142.68C335.73 140.68 359.86 93.6299 330.55 67.5499C329.246 66.3896 327.535 65.7946 325.793 65.8959C324.051 65.9971 322.42 66.7863 321.26 68.0899C320.1 69.3934 319.505 71.1045 319.606 72.8467C319.707 74.5889 320.496 76.2196 321.8 77.3799C343.53 96.7099 323.27 136.2 323.07 136.59C322.546 137.592 322.289 138.712 322.323 139.843C322.358 140.973 322.684 142.075 323.269 143.043C323.854 144.011 324.678 144.812 325.663 145.368C326.648 145.925 327.759 146.218 328.89 146.22Z" fill="#27273D"/>
<path d="M332.29 257.68C369.309 257.68 399.32 227.67 399.32 190.65C399.32 153.63 369.309 123.62 332.29 123.62C295.27 123.62 265.26 153.63 265.26 190.65C265.26 227.67 295.27 257.68 332.29 257.68Z" fill="white"/>
<path d="M332.29 233.92C354.138 233.92 371.85 216.208 371.85 194.36C371.85 172.511 354.138 154.8 332.29 154.8C310.442 154.8 292.73 172.511 292.73 194.36C292.73 216.208 310.442 233.92 332.29 233.92Z" fill="#F7BB38"/>
<path d="M332.65 224C349.019 224 362.29 210.73 362.29 194.36C362.29 177.99 349.019 164.72 332.65 164.72C316.28 164.72 303.01 177.99 303.01 194.36C303.01 210.73 316.28 224 332.65 224Z" fill="#27273D"/>
<path d="M315 183.21C320.103 183.21 324.24 179.073 324.24 173.97C324.24 168.867 320.103 164.73 315 164.73C309.897 164.73 305.76 168.867 305.76 173.97C305.76 179.073 309.897 183.21 315 183.21Z" fill="white"/>
<path d="M332.65 205.51C338.808 205.51 343.8 200.518 343.8 194.36C343.8 188.202 338.808 183.21 332.65 183.21C326.492 183.21 321.5 188.202 321.5 194.36C321.5 200.518 326.492 205.51 332.65 205.51Z" fill="white"/>
<path d="M430.25 319.6C439.241 319.6 446.53 312.311 446.53 303.32C446.53 294.329 439.241 287.04 430.25 287.04C421.259 287.04 413.97 294.329 413.97 303.32C413.97 312.311 421.259 319.6 430.25 319.6Z" fill="#F96298"/>
<path d="M430.25 280.93C436.618 280.93 441.78 275.768 441.78 269.4C441.78 263.032 436.618 257.87 430.25 257.87C423.882 257.87 418.72 263.032 418.72 269.4C418.72 275.768 423.882 280.93 430.25 280.93Z" fill="#F96298"/>
<path d="M315 276C315.019 283.871 313.474 291.667 310.454 298.936C307.433 306.205 302.999 312.801 297.407 318.341C291.816 323.881 285.179 328.254 277.883 331.207C270.586 334.159 262.776 335.632 254.905 335.54C247.034 335.448 239.261 333.793 232.035 330.67C224.81 327.547 218.277 323.02 212.817 317.351C207.357 311.682 203.078 304.984 200.228 297.646C197.379 290.309 196.017 282.478 196.22 274.61C196.22 274.41 196.22 274.22 196.22 274.02C196.258 273.036 196.612 272.09 197.229 271.322C197.846 270.555 198.694 270.006 199.647 269.757C200.6 269.508 201.607 269.573 202.521 269.94C203.434 270.308 204.205 270.96 204.72 271.8C210.008 280.561 217.469 287.808 226.38 292.839C235.292 297.87 245.352 300.513 255.585 300.513C265.818 300.513 275.878 297.87 284.79 292.839C293.701 287.808 301.162 280.561 306.45 271.8C306.954 270.938 307.725 270.265 308.646 269.881C309.568 269.497 310.589 269.424 311.555 269.673C312.522 269.922 313.381 270.478 314.003 271.259C314.624 272.04 314.974 273.002 315 274C315 274.68 315 275.35 315 276Z" fill="#27273D"/>
</g>
<defs>
<clipPath id="clip0_809_1566">
<rect width="512" height="512" fill="white"/>
</clipPath>
</defs>
</svg>
