<svg width="48" height="18" viewBox="0 0 48 18" fill="none" xmlns="http://www.w3.org/2000/svg">
<g id="Objects">
<g id="Group">
<path id="Vector" d="M18.9225 1.94552L18.3003 0C18.3003 0 18.7783 0.199154 19.0155 0.932042C19.104 1.20555 19.4687 2.06501 19.4687 2.06501L18.9225 1.94552Z" fill="#AF9595"/>
<path id="Vector_2" d="M17.6653 2.98275L17.6152 3.30371L19.3477 3.57408L19.3978 3.25312L17.6653 2.98275Z" fill="#190707"/>
<path id="Vector_3" d="M17.6643 1.36003L17.0674 4.75195L17.4074 4.81178L18.0042 1.41985L17.6643 1.36003Z" fill="#190707"/>
<path id="Vector_4" d="M10.8302 2.92334L9.63232 3.24072L10.7885 7.60431L11.9863 7.28693L10.8302 2.92334Z" fill="#896143"/>
<path id="Vector_5" d="M1.08145 9.43271C1.08145 9.43271 1.62138 2.50392 10.0823 2.50392C10.0823 2.50392 10.3957 4.4096 10.6648 5.23366C11.5118 7.82266 18.052 7.01896 18.5539 5.52221C19.2302 3.50588 18.9221 1.97461 18.9221 1.97461C18.9221 1.97461 21.235 1.98966 21.7838 3.89269C21.7838 3.89269 35.6006 4.01129 43.3809 6.63659C48.1226 8.23602 48.0792 10.401 47.7181 11.6818C47.2374 13.3839 45.5937 14.9568 38.2472 14.9568C28.0584 14.9568 6.76045 15.533 2.57644 13.7176C0.94426 13.0095 1.08145 9.43183 1.08145 9.43183V9.43271Z" fill="#A82C2C"/>
<path id="Vector_6" d="M46.3589 10.7749C46.5837 12.9125 46.3819 13.5126 46.3819 13.5126C47.175 12.9771 47.5343 12.3398 47.7193 11.683C48.0141 10.6386 48.0964 9.00462 45.541 7.56982C45.541 7.56982 46.1305 8.61428 46.358 10.7758L46.3589 10.7749Z" fill="#AF9595"/>
<path id="Vector_7" d="M10.2515 5.67273C10.2515 5.67273 10.2718 5.72318 10.3134 5.81524C10.3577 5.9064 10.4294 6.03652 10.5436 6.18434C10.6586 6.33127 10.8197 6.49325 11.033 6.64106C11.2455 6.78888 11.5075 6.92253 11.8058 7.03495C12.1049 7.14559 12.4413 7.23233 12.8024 7.29517C13.1635 7.35713 13.5495 7.39342 13.9504 7.40758C14.3505 7.42263 14.7656 7.40758 15.1852 7.37572C15.6047 7.34297 16.0287 7.28278 16.4465 7.19692C16.8643 7.11284 17.2776 7.0022 17.6653 6.85172C18.0486 6.69948 18.4265 6.51626 18.6868 6.24718C18.7496 6.17991 18.8062 6.10821 18.8434 6.03121C18.854 6.01262 18.8602 5.99226 18.8691 5.97367L18.8753 5.95951C18.8753 5.95951 18.8788 5.94889 18.8806 5.94447L18.8921 5.90906C18.9072 5.86215 18.9231 5.81524 18.9381 5.76921C19.0027 5.58333 19.0523 5.40277 19.1019 5.22663C19.193 4.8708 19.2701 4.53003 19.317 4.21138C19.3665 3.89362 19.3984 3.59887 19.4143 3.33776C19.4329 3.07576 19.4338 2.84651 19.4294 2.65798C19.4223 2.28003 19.3904 2.06494 19.3904 2.06494C19.3904 2.06494 19.4037 2.11716 19.4214 2.21718C19.4382 2.3172 19.4648 2.46502 19.4807 2.65444C19.4975 2.84386 19.5126 3.07487 19.5126 3.34041C19.5152 3.47318 19.509 3.61392 19.5055 3.76351C19.4949 3.91221 19.4878 4.06888 19.4674 4.23174C19.4365 4.55835 19.3763 4.90798 19.294 5.27531C19.2497 5.45941 19.2046 5.64883 19.147 5.83382C19.1337 5.88074 19.1196 5.92765 19.1063 5.97544L19.0957 6.01085L19.0895 6.03121L19.0815 6.05157C19.0709 6.07812 19.062 6.10556 19.0488 6.13123C19.001 6.23479 18.9328 6.32507 18.8594 6.4065C18.7115 6.57114 18.5319 6.69594 18.3469 6.80835C18.1601 6.91899 17.9627 7.01105 17.76 7.09071C17.3546 7.25092 16.9298 7.36864 16.4996 7.45804C16.0694 7.54389 15.6348 7.60143 15.2047 7.63241C14.7745 7.66516 14.3496 7.66427 13.9398 7.64214C13.53 7.6209 13.1343 7.56691 12.7652 7.49079C12.5811 7.45096 12.4023 7.40758 12.2324 7.35448C12.0624 7.30137 11.9013 7.24118 11.7491 7.17745C11.5977 7.11107 11.4552 7.04114 11.3251 6.96502C11.1959 6.88624 11.0782 6.8057 10.9728 6.72161C10.7631 6.55343 10.6082 6.37464 10.5011 6.2162C10.3931 6.05776 10.3356 5.91703 10.2993 5.82232C10.2665 5.72584 10.2515 5.6745 10.2515 5.6745V5.67273Z" fill="#541616"/>
<path id="Vector_8" d="M38.2482 14.3557C31.0822 14.3557 18.4195 14.4584 10.0816 14.292C10.063 14.3531 10.04 14.4124 10.0187 14.4708C10.0019 14.5168 9.98245 14.5628 9.96387 14.608C18.2991 14.7779 31.0477 14.6744 38.2482 14.6744C39.1546 14.6744 39.9733 14.6655 40.715 14.6496C40.746 14.5425 40.7779 14.4354 40.8027 14.3283C40.0379 14.346 39.1909 14.3557 38.2482 14.3557Z" fill="#5B2424"/>
<path id="Vector_9" d="M38.2438 13.741C31.0778 13.741 18.4151 13.8437 10.0772 13.6772C10.0586 13.7383 10.0356 13.7976 10.0144 13.856C9.99753 13.9021 9.97806 13.9481 9.95947 13.9932C18.2947 14.1632 31.0433 14.0596 38.2438 14.0596C39.1502 14.0596 39.9689 14.0508 40.7107 14.0348C40.7416 13.9277 40.7735 13.8206 40.7983 13.7135C40.0335 13.7312 39.1865 13.741 38.2438 13.741Z" fill="#5B2424"/>
<path id="Vector_10" d="M6.63834 4.04069C7.92001 3.707 9.03882 3.50961 10.3001 3.69903L10.1736 3.05908C7.504 3.05908 4.36799 4.02741 2.97656 5.71801C4.09714 4.86829 5.44784 4.35049 6.63834 4.04069Z" fill="#B54848"/>
<g id="Group_2">
<path id="Vector_11" d="M11.034 12.4828C11.034 15.5295 8.56363 17.9998 5.51701 17.9998C2.4704 17.9998 0 15.5303 0 12.4828C0 9.43533 2.4704 6.96582 5.51701 6.96582C8.56363 6.96582 11.034 9.43622 11.034 12.4828Z" fill="#423333"/>
<path id="Vector_12" d="M10.2542 12.4829C10.2542 15.0994 8.13344 17.2201 5.517 17.2201C2.90056 17.2201 0.779785 15.0994 0.779785 12.4829C0.779785 9.86647 2.90056 7.74658 5.517 7.74658C8.13344 7.74658 10.2542 9.86735 10.2542 12.4829Z" fill="#210909"/>
<path id="Vector_13" d="M8.98153 12.483C8.98153 14.3966 7.43078 15.9474 5.51713 15.9474C3.60348 15.9474 2.05273 14.3966 2.05273 12.483C2.05273 10.5693 3.60348 9.01855 5.51713 9.01855C7.43078 9.01855 8.98153 10.5693 8.98153 12.483Z" fill="#896143"/>
<path id="Vector_14" d="M8.14952 12.483C8.14952 13.9363 6.97141 15.1153 5.51714 15.1153C4.06287 15.1153 2.88477 13.9372 2.88477 12.483C2.88477 11.0287 4.06287 9.85059 5.51714 9.85059C6.97141 9.85059 8.14952 11.0287 8.14952 12.483Z" fill="#5B2424"/>
<path id="Vector_15" d="M6.65784 12.4832C6.65784 13.1134 6.14712 13.6241 5.51691 13.6241C4.8867 13.6241 4.37598 13.1134 4.37598 12.4832C4.37598 11.853 4.8867 11.3423 5.51691 11.3423C6.14712 11.3423 6.65784 11.853 6.65784 12.4832Z" fill="black"/>
</g>
<path id="Vector_16" d="M35.2089 12.774C35.5975 14.8443 22.7578 10.9445 23.7615 10.8267C24.7644 10.709 34.7371 10.8267 34.7371 10.8267C34.7371 10.8267 35.0319 11.8296 35.2089 12.774Z" fill="#B54848"/>
<path id="Vector_17" d="M21.7787 3.87402C21.7601 4.03512 21.7495 4.19887 21.7495 4.36527C21.7495 6.6967 23.6402 8.58734 25.9716 8.58734C28.303 8.58734 30.1936 6.6967 30.1936 4.36527C30.1936 4.35199 30.1936 4.33783 30.1928 4.32455C25.5166 3.92536 21.7849 3.8935 21.7849 3.8935C21.7831 3.8873 21.7805 3.8811 21.7787 3.87491V3.87402Z" fill="#C77878"/>
<path id="Vector_18" d="M11.2484 10.7837C11.4759 10.789 24.9441 10.7837 24.9441 10.7837L25.7265 11.5661L11.2476 10.7837H11.2484Z" fill="#B54848"/>
<path id="Vector_19" d="M12.6645 11.5801C12.8919 11.5854 30.0776 11.5801 30.0776 11.5801L30.8601 12.3625L12.6636 11.5801H12.6645Z" fill="#B54848"/>
<path id="Vector_20" d="M14.2577 12.1997C14.4852 12.205 31.6709 12.1997 31.6709 12.1997L32.4533 12.9822L14.2568 12.1997H14.2577Z" fill="#B54848"/>
<path id="Vector_21" d="M16.4706 12.9077C16.6981 12.913 33.8838 12.9077 33.8838 12.9077L34.6662 13.6902L16.4697 12.9077H16.4706Z" fill="#B54848"/>
<path id="Vector_22" d="M19.4535 7.34473C18.8339 7.8165 17.5947 8.02362 17.5947 8.02362C17.5947 8.02362 19.3942 8.64321 19.4535 7.34473Z" fill="#7E2121"/>
<g id="Group_3">
<path id="Vector_23" d="M34.1343 4.73527C34.0165 4.72022 33.8997 4.70606 33.7829 4.69189L33.6094 6.64626L33.9617 6.67724L34.1343 4.73438V4.73527Z" fill="#5B2424"/>
<path id="Vector_24" d="M36.5924 5.07987C36.4755 5.06128 36.3587 5.04358 36.2419 5.02588L36.0781 6.86606L36.4304 6.89793L36.5915 5.08076L36.5924 5.07987Z" fill="#5B2424"/>
<path id="Vector_25" d="M31.5824 4.45209C31.4647 4.44059 31.347 4.42908 31.2302 4.41846L31.0522 6.41974L31.4045 6.4516L31.5824 4.45298V4.45209Z" fill="#5B2424"/>
<path id="Vector_26" d="M35.3647 4.89732C35.2479 4.8805 35.131 4.86457 35.0133 4.84863L34.8442 6.7552L35.1965 6.78618L35.3647 4.89643V4.89732Z" fill="#5B2424"/>
<path id="Vector_27" d="M32.8155 4.58054C32.6978 4.56726 32.581 4.55487 32.4633 4.54248L32.2871 6.5296L32.6394 6.56058L32.8155 4.58054Z" fill="#5B2424"/>
<path id="Vector_28" d="M39.1291 5.53193C39.0131 5.50892 38.8963 5.4859 38.7794 5.46289L38.6343 7.0933L38.9866 7.12428L39.1282 5.53193H39.1291Z" fill="#5B2424"/>
<path id="Vector_29" d="M37.5553 5.23926L37.4004 6.98385L37.7527 7.01571L37.9049 5.30122C37.789 5.28086 37.6721 5.25962 37.5553 5.24014V5.23926Z" fill="#5B2424"/>
</g>
<path id="Vector_30" d="M6.20659 5.30908H5.85254V6.1057H6.20659V5.30908Z" fill="#C77878"/>
<path id="Vector_31" d="M6.82622 5.30908H6.47217V6.1057H6.82622V5.30908Z" fill="#C77878"/>
<path id="Vector_32" d="M7.53423 5.30908H7.18018V6.1057H7.53423V5.30908Z" fill="#C77878"/>
<path id="Vector_33" d="M5.32129 6.28273H8.06519V5.30908L5.32129 6.28273Z" fill="#7E2121"/>
<g id="Group_4" opacity="0.3">
<path id="Vector_34" d="M46.4646 12.5669C46.4646 12.6297 46.4637 12.6882 46.4619 12.7439H47.2045C47.2488 12.6855 47.2886 12.6262 47.3276 12.5669H46.4646Z" fill="#837070"/>
<path id="Vector_35" d="M46.4507 11.9473C46.4533 12.0083 46.456 12.0676 46.4578 12.1243H47.5624C47.5881 12.0659 47.6111 12.0066 47.6332 11.9473H46.4507Z" fill="#837070"/>
<path id="Vector_36" d="M46.4097 11.3281C46.415 11.3883 46.4194 11.4476 46.4229 11.5052H47.7639C47.7781 11.4476 47.7905 11.3883 47.802 11.3281H46.4097Z" fill="#837070"/>
<path id="Vector_37" d="M46.3506 10.7085C46.3532 10.7306 46.3559 10.7519 46.3577 10.774C46.3612 10.8121 46.3647 10.8483 46.3692 10.8855H47.858C47.8615 10.8271 47.8633 10.7687 47.8624 10.7085H46.3506Z" fill="#837070"/>
<path id="Vector_38" d="M46.4434 13.0981C46.4381 13.1663 46.4319 13.2256 46.4248 13.2752H46.6948C46.7647 13.2168 46.8302 13.1583 46.8922 13.0981H46.4434Z" fill="#837070"/>
<path id="Vector_39" d="M45.8496 8.31836C45.8682 8.37412 45.8877 8.43343 45.9071 8.49539H46.8268C46.7648 8.43608 46.6993 8.37766 46.6312 8.31836H45.8496Z" fill="#837070"/>
<path id="Vector_40" d="M46.0337 8.93799C46.0487 8.99464 46.0629 9.05483 46.0779 9.11501H47.3578C47.318 9.05571 47.2755 8.99729 47.2295 8.93799H46.0337Z" fill="#837070"/>
<path id="Vector_41" d="M45.646 7.7876C45.6681 7.83805 45.6929 7.89647 45.7203 7.96462H46.1735C46.0886 7.90532 45.9992 7.84602 45.9062 7.7876H45.646Z" fill="#837070"/>
<path id="Vector_42" d="M46.2826 10.1772C46.2915 10.2357 46.2994 10.2941 46.3074 10.3543H47.8396C47.8325 10.2959 47.8227 10.2365 47.8112 10.1772H46.2817H46.2826Z" fill="#837070"/>
<path id="Vector_43" d="M46.2154 9.73464H47.6838C47.6617 9.67622 47.636 9.61692 47.6094 9.55762H46.1826C46.1941 9.61692 46.2056 9.67534 46.2154 9.73464Z" fill="#837070"/>
</g>
<path id="Vector_44" d="M44.8533 7.75109C45.0755 8.02371 45.1321 8.3459 44.979 8.4707C44.8259 8.5955 44.5214 8.47601 44.2992 8.20251C44.077 7.92989 44.0204 7.6077 44.1735 7.48289C44.3266 7.35809 44.6311 7.47847 44.8533 7.75109Z" fill="#C77878"/>
<g id="Group_5">
<path id="Vector_45" d="M44.4037 12.4828C44.4037 15.5295 41.9333 17.9998 38.8866 17.9998C35.84 17.9998 33.3696 15.5295 33.3696 12.4828C33.3696 9.43622 35.84 6.96582 38.8866 6.96582C41.9333 6.96582 44.4037 9.43622 44.4037 12.4828Z" fill="#423333"/>
<path id="Vector_46" d="M43.6239 12.4829C43.6239 15.0994 41.5032 17.2201 38.8876 17.2201C36.272 17.2201 34.1504 15.0994 34.1504 12.4829C34.1504 9.86647 36.2712 7.74658 38.8876 7.74658C41.504 7.74658 43.6239 9.86735 43.6239 12.4829Z" fill="#210909"/>
<path id="Vector_47" d="M42.3512 12.483C42.3512 14.3966 40.8004 15.9474 38.8868 15.9474C36.9731 15.9474 35.4224 14.3966 35.4224 12.483C35.4224 10.5693 36.9731 9.01855 38.8868 9.01855C40.8004 9.01855 42.3512 10.5693 42.3512 12.483Z" fill="#896143"/>
<path id="Vector_48" d="M41.5191 12.483C41.5191 13.9363 40.341 15.1153 38.8868 15.1153C37.4325 15.1153 36.2544 13.9372 36.2544 12.483C36.2544 11.0287 37.4334 9.85059 38.8868 9.85059C40.3402 9.85059 41.5191 11.0287 41.5191 12.483Z" fill="#5B2424"/>
<path id="Vector_49" d="M40.0275 12.4832C40.0275 13.1134 39.5167 13.6241 38.8865 13.6241C38.2563 13.6241 37.7456 13.1134 37.7456 12.4832C37.7456 11.853 38.2563 11.3423 38.8865 11.3423C39.5167 11.3423 40.0275 11.853 40.0275 12.4832Z" fill="black"/>
</g>
<g id="Group_6" opacity="0.5">
<path id="Vector_50" d="M20.4573 9.02637H20.2803V10.0885H20.4573V9.02637Z" fill="#7E2121"/>
<path id="Vector_51" d="M21.3426 9.02637H21.1655V10.0885H21.3426V9.02637Z" fill="#7E2121"/>
<path id="Vector_52" d="M22.2273 9.02637H22.0503V10.0885H22.2273V9.02637Z" fill="#7E2121"/>
<path id="Vector_53" d="M23.1126 9.02637H22.9355V10.0885H23.1126V9.02637Z" fill="#7E2121"/>
<path id="Vector_54" d="M23.9978 9.02637H23.8208V10.0885H23.9978V9.02637Z" fill="#7E2121"/>
</g>
<path id="Vector_55" opacity="0.2" d="M27.7595 4.84966C27.8573 4.84966 27.9366 4.7704 27.9366 4.67263C27.9366 4.57486 27.8573 4.49561 27.7595 4.49561C27.6618 4.49561 27.5825 4.57486 27.5825 4.67263C27.5825 4.7704 27.6618 4.84966 27.7595 4.84966Z" fill="#5B2424"/>
<path id="Vector_56" opacity="0.2" d="M28.7332 4.93804C28.8309 4.93804 28.9102 4.85878 28.9102 4.76101C28.9102 4.66324 28.8309 4.58398 28.7332 4.58398C28.6354 4.58398 28.5562 4.66324 28.5562 4.76101C28.5562 4.85878 28.6354 4.93804 28.7332 4.93804Z" fill="#5B2424"/>
<path id="Vector_57" opacity="0.2" d="M29.6184 5.02642C29.7162 5.02642 29.7955 4.94716 29.7955 4.84939C29.7955 4.75162 29.7162 4.67236 29.6184 4.67236C29.5207 4.67236 29.4414 4.75162 29.4414 4.84939C29.4414 4.94716 29.5207 5.02642 29.6184 5.02642Z" fill="#5B2424"/>
</g>
</g>
</svg>
