<svg width="54" height="18" viewBox="0 0 54 18" fill="none" xmlns="http://www.w3.org/2000/svg">
<g id="Layer 2">
<g id="Layer 1">
<g id="Group">
<path id="Vector" d="M44.3323 5.55464C44.3323 5.55464 46.6818 5.05909 50.6556 4.98933C50.8511 4.98588 50.9434 5.11353 50.7939 5.17985C50.5195 5.30123 50.2289 5.4661 50.1669 5.64067L46.9465 6.0749L44.332 5.55495L44.3323 5.55464Z" fill="#A6B4BD"/>
<path id="Vector_2" d="M1.47991 6.0957H0.375255C0.132799 6.0957 -0.0473996 6.32283 0.0111025 6.5584C0.133738 7.05207 0.400282 7.77662 0.922734 7.87048H2.41751L1.4796 6.0957H1.47991Z" fill="#E33A26"/>
<g id="Group_2">
<path id="Vector_3" d="M14.6008 13.686H1.65775C1.60056 13.686 1.5542 13.7324 1.5542 13.7896V14.1315C1.5542 14.1887 1.60056 14.2351 1.65775 14.2351H14.6008C14.658 14.2351 14.7043 14.1887 14.7043 14.1315V13.7896C14.7043 13.7324 14.658 13.686 14.6008 13.686Z" fill="#33333B"/>
<path id="Vector_4" d="M6.09211 12.8013H22.1236C22.341 12.8013 22.5174 12.9777 22.5174 13.1951V14.0336C22.5174 14.251 22.341 14.4274 22.1236 14.4274H6.09211C5.87469 14.4274 5.69824 14.251 5.69824 14.0336V13.1951C5.69824 12.9777 5.87469 12.8013 6.09211 12.8013Z" fill="#002733"/>
<path id="Vector_5" d="M31.4671 12.8013H47.4986C47.716 12.8013 47.8924 12.9777 47.8924 13.1951V14.0336C47.8924 14.251 47.716 14.4274 47.4986 14.4274H31.4671C31.2497 14.4274 31.0732 14.251 31.0732 14.0336V13.1951C31.0732 12.9777 31.2497 12.8013 31.4671 12.8013Z" fill="#002733"/>
</g>
<path id="Vector_6" d="M7.12646 13.1766L19.3046 13.7544H39.0439L50.7027 13.6145L50.5585 8.72602L47.1241 7.88916H8.59809L7.12646 13.1766Z" fill="#363436"/>
<g id="Group_3">
<path id="Vector_7" d="M17.6834 13.1095C17.6834 15.3861 15.8386 17.2313 13.5617 17.2313C11.2848 17.2313 9.43994 15.3861 9.43994 13.1095C9.43994 10.833 11.2854 8.98779 13.5617 8.98779C15.8379 8.98779 17.6834 10.8336 17.6834 13.1095Z" fill="#414042"/>
<path id="Vector_8" d="M16.2998 13.1096C16.2998 14.6219 15.074 15.8476 13.5618 15.8476C12.0495 15.8476 10.8237 14.6219 10.8237 13.1096C10.8237 11.5973 12.0495 10.3716 13.5618 10.3716C15.074 10.3716 16.2998 11.5976 16.2998 13.1096Z" fill="#B52232"/>
<path id="Vector_9" d="M16.1274 13.1096C16.1274 14.5268 14.9789 15.6752 13.5617 15.6752C12.1445 15.6752 10.9961 14.5268 10.9961 13.1096C10.9961 11.6924 12.1449 10.5439 13.5617 10.5439C14.9786 10.5439 16.1274 11.6927 16.1274 13.1096Z" fill="#F1F2F2"/>
<path id="Vector_10" d="M15.9619 13.1094C15.9619 14.4353 14.8876 15.5096 13.5618 15.5096C12.2359 15.5096 11.1616 14.435 11.1616 13.1094C11.1616 11.7839 12.2362 10.709 13.5618 10.709C14.8873 10.709 15.9619 11.7839 15.9619 13.1094Z" fill="#A7A9AC"/>
<path id="Vector_11" d="M13.577 14.9474C14.5916 14.9386 15.4068 14.109 15.398 13.0944C15.3891 12.0799 14.5595 11.2647 13.545 11.2735C12.5304 11.2824 11.7152 12.112 11.724 13.1265C11.7329 14.141 12.5625 14.9563 13.577 14.9474Z" fill="#F1F2F2"/>
<path id="Vector_12" d="M15.2315 13.1094C15.2315 14.0317 14.4838 14.7794 13.5616 14.7794C12.6393 14.7794 11.8916 14.0317 11.8916 13.1094C11.8916 12.1872 12.6393 11.4395 13.5616 11.4395C14.4838 11.4395 15.2315 12.1875 15.2315 13.1094Z" fill="#D1D3D4"/>
<path id="Vector_13" d="M14.6323 13.1096C14.6323 13.7009 14.153 14.1802 13.5618 14.1802C12.9705 14.1802 12.4912 13.7009 12.4912 13.1096C12.4912 12.5183 12.9705 12.0391 13.5618 12.0391C14.153 12.0391 14.6323 12.5183 14.6323 13.1096Z" fill="#F1F2F2"/>
<g id="Group_4">
<path id="Vector_14" d="M13.3438 10.8521C13.1373 10.8721 12.9333 10.9196 12.7378 10.9953L12.8651 11.271C13.0194 11.2124 13.183 11.1727 13.3528 11.1549L13.3438 10.8521Z" fill="#414042"/>
<path id="Vector_15" d="M12.0359 11.8706L11.8147 11.6626C11.6786 11.8262 11.5697 12.0042 11.4868 12.191L11.7718 12.2958C11.8416 12.1425 11.9307 11.9998 12.0355 11.8706H12.0359Z" fill="#414042"/>
<path id="Vector_16" d="M12.6068 11.3913L12.4792 11.1157C12.3125 11.2064 12.1548 11.3194 12.0103 11.4552L12.2314 11.6632C12.345 11.5587 12.4711 11.4674 12.6068 11.3917V11.3913Z" fill="#414042"/>
<path id="Vector_17" d="M15.0022 11.3572C14.8373 11.2214 14.6581 11.1122 14.47 11.0303L14.3652 11.3147C14.5198 11.3841 14.664 11.4729 14.7945 11.5778L15.0022 11.3569V11.3572Z" fill="#414042"/>
<path id="Vector_18" d="M14.2017 10.933C14.015 10.8779 13.8222 10.8476 13.6289 10.8423L13.6383 11.1451C13.7969 11.1511 13.9505 11.1758 14.0972 11.2174L14.2017 10.933Z" fill="#414042"/>
<path id="Vector_19" d="M15.5166 12.9012L15.8191 12.8918C15.7991 12.6837 15.7512 12.4785 15.6742 12.2817L15.3989 12.4091C15.4584 12.5646 15.4984 12.7297 15.5166 12.9012Z" fill="#414042"/>
<path id="Vector_20" d="M11.6732 12.5633L11.3885 12.4585C11.3325 12.6453 11.3015 12.8377 11.2949 13.0307L11.5981 13.0213C11.605 12.863 11.6306 12.7097 11.6728 12.5633H11.6732Z" fill="#414042"/>
<path id="Vector_21" d="M15.5532 12.0237C15.4619 11.8557 15.3477 11.6968 15.2107 11.5522L15.0029 11.7731C15.109 11.8873 15.2013 12.014 15.2779 12.1507L15.5532 12.0234V12.0237Z" fill="#414042"/>
<path id="Vector_22" d="M14.5112 14.8313L14.6386 15.1069C14.8078 15.0156 14.9674 14.9017 15.1138 14.7647L14.8926 14.5566C14.7775 14.6627 14.6495 14.755 14.5112 14.8313Z" fill="#414042"/>
<path id="Vector_23" d="M13.7583 15.0655L13.7677 15.3686C13.976 15.3499 14.1822 15.3026 14.3793 15.2266L14.2517 14.9507C14.0955 15.0092 13.9304 15.0486 13.7583 15.0655Z" fill="#414042"/>
<path id="Vector_24" d="M15.0877 14.3489L15.3089 14.5569C15.4459 14.3911 15.5564 14.2112 15.6386 14.022L15.3543 13.9175C15.2839 14.0733 15.1941 14.2178 15.0874 14.3489H15.0877Z" fill="#414042"/>
<path id="Vector_25" d="M15.5262 13.1863C15.5199 13.3465 15.4949 13.502 15.4526 13.6503L15.737 13.7551C15.793 13.5661 15.8237 13.3721 15.829 13.1772L15.5262 13.1866V13.1863Z" fill="#414042"/>
<path id="Vector_26" d="M11.8379 14.0542L11.562 14.1818C11.6527 14.3502 11.7657 14.5094 11.9008 14.6545L12.1089 14.4334C12.0044 14.3186 11.913 14.1915 11.8376 14.0545L11.8379 14.0542Z" fill="#414042"/>
<path id="Vector_27" d="M12.1079 14.8509C12.2725 14.9882 12.4511 15.0983 12.6388 15.1822L12.7436 14.8969C12.5894 14.8262 12.4458 14.7361 12.316 14.6294L12.1079 14.8509Z" fill="#414042"/>
<path id="Vector_28" d="M11.6057 13.3062L11.3022 13.3155C11.3213 13.5223 11.3676 13.7272 11.4427 13.9231L11.719 13.7954C11.6614 13.6406 11.6226 13.4767 11.6057 13.3062Z" fill="#414042"/>
<path id="Vector_29" d="M13.0111 14.9971L12.9062 15.2821C13.0943 15.3387 13.2882 15.37 13.4831 15.3769L13.4738 15.0734C13.3139 15.0662 13.159 15.0402 13.0111 14.9971Z" fill="#414042"/>
</g>
<path id="Vector_30" d="M14.4854 13.1099C14.4854 13.6201 14.0718 14.0337 13.5615 14.0337C13.0513 14.0337 12.6377 13.6201 12.6377 13.1099C12.6377 12.5996 13.0513 12.186 13.5615 12.186C14.0718 12.186 14.4854 12.5996 14.4854 13.1099Z" fill="#D1D3D4"/>
<path id="Vector_31" d="M14.2014 13.1095C14.2014 13.4627 13.9152 13.7493 13.5616 13.7493C13.2081 13.7493 12.9219 13.463 12.9219 13.1095C12.9219 12.756 13.2081 12.4697 13.5616 12.4697C13.9152 12.4697 14.2014 12.7563 14.2014 13.1095Z" fill="#F1F2F2"/>
<path id="Vector_32" d="M14.1138 13.1098C14.1138 13.4148 13.8666 13.662 13.5616 13.662C13.2566 13.662 13.0098 13.4148 13.0098 13.1098C13.0098 12.8048 13.2569 12.5576 13.5616 12.5576C13.8663 12.5576 14.1138 12.8048 14.1138 13.1098Z" fill="#A7A9AC"/>
<path id="Vector_33" d="M13.5619 9.70801C11.6864 9.70801 10.1606 11.2341 10.1606 13.1096C10.1606 14.9851 11.6864 16.5108 13.5619 16.5108C15.4374 16.5108 16.9632 14.9851 16.9632 13.1096C16.9632 11.2341 15.4374 9.70801 13.5619 9.70801ZM13.5619 15.8457C12.053 15.8457 10.8258 14.6184 10.8258 13.1096C10.8258 11.6007 12.0534 10.3731 13.5619 10.3731C15.0704 10.3731 16.2984 11.6007 16.2984 13.1096C16.2984 14.6184 15.0708 15.8457 13.5619 15.8457Z" fill="#E6E7E8"/>
<g id="Vector_34" style="mix-blend-mode:multiply" opacity="0.21">
<path d="M16.4581 16.0415C17.2146 15.2944 17.6835 14.2567 17.6835 13.1095C17.6835 10.8336 15.8387 8.98779 13.5618 8.98779C12.4399 8.98779 11.4232 9.43673 10.6802 10.1641L16.4581 16.0418V16.0415Z" fill="#414042"/>
</g>
</g>
<path id="Vector_35" d="M53.1464 6.3272C52.8692 5.78316 52.2542 5.65645 52.2542 5.65645C52.0686 5.56604 38.7827 5.30012 36.8262 5.20752C35.4512 2.66565 35.2203 1.91545 33.9652 0.89088C33.5272 0.533297 32.935 0.37093 32.3722 0.314931L31.2882 0.207312C22.5629 -0.25914 19.2446 0.207312 19.2446 0.207312C17.2827 0.207312 16.3226 1.08516 16.3226 1.08516L12.122 4.63627C8.53368 4.72261 9.21788 4.71792 7.66773 4.75077C6.02654 4.75077 1.77778 5.30482 1.00599 5.57981C0.724747 5.67992 0.541106 5.95147 0.553307 6.24992C0.602111 7.43905 1.07232 7.79319 1.07232 7.79319L0.635899 12.9458L7.01138 13.4078C8.41449 13.4078 9.79508 11.3465 9.79508 11.3465C10.5634 10.3726 11.5511 10.3588 11.5511 10.3588H15.2827C17.2993 10.3588 18.1499 12.8281 18.1499 12.8281C18.3695 13.578 19.1651 13.9669 19.1651 13.9669H38.2384C39.1544 13.9669 40.0153 13.6212 40.6736 12.9842C41.1403 12.5325 41.4641 11.9706 41.7253 11.3812C42.0632 10.6185 42.3845 9.92398 43.0893 9.43375C43.7482 8.97543 44.912 8.67948 45.7188 8.67166L47.9835 8.74674C48.0458 8.74893 48.1074 8.75863 48.1675 8.7749C49.9579 9.26826 50.4519 11.9299 50.4519 11.9299H52.3039L52.5723 8.21709L53.1805 7.52383C53.1761 7.50005 53.1642 6.35097 53.1473 6.32782L53.1464 6.3272Z" fill="#B12C1A"/>
<g id="Group_5" style="mix-blend-mode:multiply" opacity="0.23">
<path id="Vector_36" d="M9.79443 11.346C10.5628 10.3721 11.5504 10.3584 11.5504 10.3584H15.2821C17.2987 10.3584 18.1493 12.8277 18.1493 12.8277C18.3689 13.5776 19.1645 13.9664 19.1645 13.9664H38.2377C39.1537 13.9664 40.0147 13.6207 40.6729 12.9838C41.1397 12.532 41.4635 11.9702 41.7247 11.3808C42.0037 10.7507 42.2722 10.1675 42.7543 9.70703H0.909619L0.635254 12.9456L7.01073 13.4077C8.41384 13.4077 9.79443 11.3463 9.79443 11.3463V11.346Z" fill="#414042"/>
<path id="Vector_37" d="M49.4759 9.70703C50.2142 10.6556 50.4507 11.9292 50.4507 11.9292H52.3028L52.4633 9.70703H49.4756H49.4759Z" fill="#414042"/>
</g>
<path id="Vector_38" d="M22.4282 5.54901L32.4897 5.2637H34.3311L35.6785 3.05188C35.1491 2.08644 34.765 1.54459 33.9647 0.891368C33.5267 0.533785 32.9345 0.371419 32.3717 0.315419L31.2877 0.207801C22.5624 -0.258652 19.2441 0.207801 19.2441 0.207801C17.2822 0.207801 16.3221 1.08564 16.3221 1.08564L12.1215 4.63675C8.53319 4.7231 9.21739 4.71841 7.66724 4.75126C6.02605 4.75126 1.7773 5.3053 1.00551 5.5803C0.724259 5.68041 0.540618 5.95196 0.552819 6.25041C0.601623 7.43954 1.07183 7.79368 1.07183 7.79368L0.63541 12.9462L3.08468 13.1236L4.18277 8.98843H23.8354C23.8354 8.98843 23.6402 7.82434 22.4282 5.54932V5.54901Z" fill="#E6E7E8"/>
<g id="Group_6">
<g id="Vector_39" style="mix-blend-mode:multiply" opacity="0.21">
<path d="M27.0107 6.84927C26.9341 6.87742 26.8512 6.88274 26.7695 6.88775C26.3171 6.91528 25.8651 6.94343 25.4133 6.97847C25.0795 7.00444 24.7457 7.03009 24.4122 7.05606C24.2608 7.06795 24.1338 6.88305 24.1338 6.65092C24.1338 6.41879 24.2524 6.24548 24.3988 6.24548H26.7004C26.8227 6.24548 26.9735 6.22733 27.0836 6.29272C27.2979 6.41942 27.2347 6.7623 27.0189 6.84676C27.016 6.8477 27.0135 6.84895 27.0107 6.84989V6.84927Z" fill="#414042"/>
</g>
<path id="Vector_40" d="M26.7706 6.5519C26.7078 6.56786 26.6396 6.57099 26.5726 6.57349C26.2009 6.58913 25.8296 6.60509 25.4586 6.62479C25.1845 6.6395 24.9105 6.6542 24.6364 6.66891C24.5122 6.67548 24.4077 6.57067 24.4077 6.43928C24.4077 6.30788 24.505 6.20934 24.6255 6.20934H26.5157C26.6161 6.20934 26.74 6.19901 26.8304 6.23593C27.0065 6.30757 26.9546 6.50216 26.7772 6.55002C26.775 6.55065 26.7728 6.55128 26.7706 6.5519Z" fill="#D1D3D4"/>
<path id="Vector_41" d="M25.0215 6.55321C25.0215 6.77314 24.8431 6.95115 24.6235 6.95115C24.4039 6.95115 24.2256 6.77314 24.2256 6.55321C24.2256 6.33328 24.4039 6.15527 24.6235 6.15527C24.8431 6.15527 25.0215 6.33328 25.0215 6.55321Z" fill="#F1F2F2"/>
</g>
<g id="Vector_42" style="mix-blend-mode:multiply" opacity="0.21">
<path d="M8.02386 5.89453H6.39862C6.15961 5.89453 5.96533 6.08881 5.96533 6.32782V7.51726C5.96533 7.75627 6.15961 7.95055 6.39862 7.95055H8.02386C8.26287 7.95055 8.45715 7.75627 8.45715 7.51726V6.32782C8.45715 6.08881 8.26287 5.89453 8.02386 5.89453ZM8.29478 7.51726C8.29478 7.66649 8.1734 7.78818 8.02386 7.78818H6.39862C6.2494 7.78818 6.1277 7.6668 6.1277 7.51726V6.32782C6.1277 6.17859 6.24908 6.0569 6.39862 6.0569H8.02386C8.17308 6.0569 8.29478 6.17828 8.29478 6.32782V7.51726Z" fill="#414042"/>
</g>
<g id="Group_7">
<path id="Vector_43" d="M50.1238 13.1095C50.1238 15.3861 48.279 17.2313 46.0021 17.2313C43.7252 17.2313 41.8804 15.3861 41.8804 13.1095C41.8804 10.833 43.7258 8.98779 46.0021 8.98779C48.2784 8.98779 50.1238 10.8336 50.1238 13.1095Z" fill="#414042"/>
<path id="Vector_44" d="M48.7399 13.1096C48.7399 14.6219 47.5145 15.8476 46.0022 15.8476C44.4899 15.8476 43.2642 14.6219 43.2642 13.1096C43.2642 11.5973 44.4899 10.3716 46.0022 10.3716C47.5145 10.3716 48.7399 11.5976 48.7399 13.1096Z" fill="#B52232"/>
<path id="Vector_45" d="M48.5678 13.1096C48.5678 14.5268 47.4194 15.6752 46.0022 15.6752C44.585 15.6752 43.4365 14.5268 43.4365 13.1096C43.4365 11.6924 44.5853 10.5439 46.0022 10.5439C47.419 10.5439 48.5678 11.6927 48.5678 13.1096Z" fill="#F1F2F2"/>
<path id="Vector_46" d="M48.4024 13.1094C48.4024 14.4353 47.328 15.5096 46.0022 15.5096C44.6764 15.5096 43.6021 14.435 43.6021 13.1094C43.6021 11.7839 44.6767 10.709 46.0022 10.709C47.3277 10.709 48.4024 11.7839 48.4024 13.1094Z" fill="#A7A9AC"/>
<path id="Vector_47" d="M47.8391 13.1095C47.8391 14.124 47.0166 14.9465 46.0021 14.9465C44.9875 14.9465 44.165 14.124 44.165 13.1095C44.165 12.0949 44.9875 11.2725 46.0021 11.2725C47.0166 11.2725 47.8391 12.0952 47.8391 13.1095Z" fill="#F1F2F2"/>
<path id="Vector_48" d="M47.672 13.1094C47.672 14.0317 46.9243 14.7794 46.002 14.7794C45.0797 14.7794 44.332 14.0317 44.332 13.1094C44.332 12.1872 45.0797 11.4395 46.002 11.4395C46.9243 11.4395 47.672 12.1875 47.672 13.1094Z" fill="#D1D3D4"/>
<path id="Vector_49" d="M47.0728 13.1096C47.0728 13.7009 46.5935 14.1802 46.0022 14.1802C45.4109 14.1802 44.9316 13.7009 44.9316 13.1096C44.9316 12.5183 45.4109 12.0391 46.0022 12.0391C46.5935 12.0391 47.0728 12.5183 47.0728 13.1096Z" fill="#F1F2F2"/>
<g id="Group_8">
<path id="Vector_50" d="M45.7842 10.8521C45.5777 10.8721 45.3738 10.9196 45.1782 10.9953L45.3059 11.271C45.4601 11.2124 45.6237 11.1727 45.7936 11.1549L45.7845 10.8521H45.7842Z" fill="#414042"/>
<path id="Vector_51" d="M44.4763 11.8706L44.2551 11.6626C44.119 11.8262 44.0102 12.0042 43.9272 12.191L44.2122 12.2958C44.282 12.1425 44.3712 11.9998 44.476 11.8706H44.4763Z" fill="#414042"/>
<path id="Vector_52" d="M45.0468 11.3913L44.9192 11.1157C44.7524 11.2064 44.5947 11.3194 44.4502 11.4552L44.6714 11.6632C44.7849 11.5587 44.911 11.4674 45.0468 11.3917V11.3913Z" fill="#414042"/>
<path id="Vector_53" d="M47.4421 11.3572C47.2773 11.2214 47.098 11.1122 46.91 11.0303L46.8052 11.3147C46.96 11.3841 47.1039 11.4729 47.2344 11.5778L47.4421 11.3569V11.3572Z" fill="#414042"/>
<path id="Vector_54" d="M46.6422 10.933C46.4554 10.8779 46.2627 10.8476 46.0693 10.8423L46.0787 11.1451C46.2373 11.1511 46.3909 11.1758 46.5377 11.2174L46.6422 10.933Z" fill="#414042"/>
<path id="Vector_55" d="M47.957 12.9012L48.2595 12.8918C48.2395 12.6837 48.1916 12.4785 48.1147 12.2817L47.8394 12.4091C47.8988 12.5646 47.9388 12.7297 47.957 12.9012Z" fill="#414042"/>
<path id="Vector_56" d="M44.1136 12.5633L43.8289 12.4585C43.7729 12.6453 43.7419 12.8377 43.7354 13.0307L44.0385 13.0213C44.0454 12.863 44.071 12.7097 44.1133 12.5633H44.1136Z" fill="#414042"/>
<path id="Vector_57" d="M47.9937 12.0237C47.9023 11.8557 47.7881 11.6968 47.6511 11.5522L47.4434 11.7731C47.5491 11.8873 47.6417 12.014 47.7184 12.1507L47.9937 12.0234V12.0237Z" fill="#414042"/>
<path id="Vector_58" d="M46.9512 14.8313L47.0785 15.1069C47.2477 15.0156 47.4073 14.9017 47.5537 14.7647L47.3325 14.5566C47.2174 14.6627 47.0891 14.755 46.9512 14.8313Z" fill="#414042"/>
<path id="Vector_59" d="M46.1987 15.0655L46.2081 15.3686C46.4165 15.3499 46.6226 15.3026 46.8197 15.2266L46.6921 14.9507C46.536 15.0092 46.3708 15.0486 46.1987 15.0655Z" fill="#414042"/>
<path id="Vector_60" d="M47.5278 14.3489L47.7493 14.5569C47.8864 14.3911 47.9968 14.2112 48.0791 14.022L47.7947 13.9175C47.7243 14.0733 47.6345 14.2178 47.5278 14.3489Z" fill="#414042"/>
<path id="Vector_61" d="M47.9661 13.1863C47.9598 13.3465 47.9348 13.502 47.8926 13.6503L48.177 13.7551C48.233 13.5661 48.2636 13.3721 48.2689 13.1772L47.9661 13.1866V13.1863Z" fill="#414042"/>
<path id="Vector_62" d="M44.2784 14.0542L44.0024 14.1818C44.0932 14.3502 44.2061 14.5094 44.3413 14.6545L44.5493 14.4334C44.4448 14.3186 44.3535 14.1915 44.2784 14.0545V14.0542Z" fill="#414042"/>
<path id="Vector_63" d="M44.5483 14.8509C44.7129 14.9882 44.8915 15.0983 45.0792 15.1822L45.1844 14.8969C45.0301 14.8262 44.8862 14.7361 44.7567 14.6294L44.5487 14.8509H44.5483Z" fill="#414042"/>
<path id="Vector_64" d="M44.0461 13.3062L43.7427 13.3155C43.7618 13.5223 43.8081 13.7272 43.8831 13.9231L44.1594 13.7954C44.1018 13.6406 44.063 13.4767 44.0461 13.3062Z" fill="#414042"/>
<path id="Vector_65" d="M45.4515 14.9971L45.3467 15.2821C45.5347 15.3387 45.7287 15.37 45.9236 15.3769L45.9142 15.0734C45.7543 15.0662 45.5995 15.0402 45.4515 14.9971Z" fill="#414042"/>
</g>
<path id="Vector_66" d="M46.9258 13.1099C46.9258 13.6201 46.5122 14.0337 46.002 14.0337C45.4917 14.0337 45.0781 13.6201 45.0781 13.1099C45.0781 12.5996 45.4917 12.186 46.002 12.186C46.5122 12.186 46.9258 12.5996 46.9258 13.1099Z" fill="#D1D3D4"/>
<path id="Vector_67" d="M46.6418 13.1095C46.6418 13.4627 46.3556 13.7493 46.0021 13.7493C45.6486 13.7493 45.3623 13.463 45.3623 13.1095C45.3623 12.756 45.6489 12.4697 46.0021 12.4697C46.3553 12.4697 46.6418 12.7563 46.6418 13.1095Z" fill="#F1F2F2"/>
<path id="Vector_68" d="M46.5542 13.1098C46.5542 13.4148 46.3071 13.662 46.0021 13.662C45.697 13.662 45.4502 13.4148 45.4502 13.1098C45.4502 12.8048 45.6973 12.5576 46.0021 12.5576C46.3068 12.5576 46.5542 12.8048 46.5542 13.1098Z" fill="#A7A9AC"/>
<path id="Vector_69" d="M46.0023 9.70801C44.1268 9.70801 42.6011 11.2341 42.6011 13.1096C42.6011 14.9851 44.1268 16.5108 46.0023 16.5108C47.8778 16.5108 49.4036 14.9851 49.4036 13.1096C49.4036 11.2341 47.8778 9.70801 46.0023 9.70801ZM46.0023 15.8457C44.4935 15.8457 43.2662 14.6184 43.2662 13.1096C43.2662 11.6007 44.4938 10.3731 46.0023 10.3731C47.5109 10.3731 48.7385 11.6007 48.7385 13.1096C48.7385 14.6184 47.5109 15.8457 46.0023 15.8457Z" fill="#E6E7E8"/>
<g id="Vector_70" style="mix-blend-mode:multiply" opacity="0.21">
<path d="M48.8981 16.0415C49.6545 15.2944 50.1235 14.2567 50.1235 13.1095C50.1235 10.8336 48.2786 8.98779 46.0017 8.98779C44.8799 8.98779 43.8631 9.43673 43.1201 10.1641L48.8981 16.0418V16.0415Z" fill="#414042"/>
</g>
</g>
<g id="Group_9">
<path id="Vector_71" d="M53.3981 13.6307L50.7974 13.9051C50.5628 13.9051 50.3726 13.7477 50.3726 13.5537V11.5118C50.3726 11.3175 50.5628 11.1602 50.7974 11.1602H53.3981C53.6327 11.1602 53.8229 11.3175 53.8229 11.5118V13.2791C53.8229 13.473 53.6327 13.6304 53.3981 13.6304V13.6307Z" fill="#BACAD3"/>
<g id="Vector_72" style="mix-blend-mode:multiply" opacity="0.21">
<path d="M50.3726 12.7993V13.5536C50.3726 13.7476 50.5628 13.9049 50.7974 13.9049L53.3981 13.6305C53.6327 13.6305 53.8229 13.4732 53.8229 13.2792V12.7993H50.3726Z" fill="#414042"/>
</g>
</g>
<path id="Vector_73" d="M34.4016 1.27783C34.4016 1.27783 33.8131 1.41236 33.8131 1.95327V4.74541C33.8131 4.74541 33.7737 5.26317 34.3309 5.26317L36.8258 5.20936C35.6273 2.99348 35.2979 2.1391 34.4016 1.27783Z" fill="#3C3338"/>
<path id="Vector_74" d="M32.8969 1.92931V4.754C32.8969 5.03712 32.671 5.26863 32.3879 5.27582C30.7385 5.31649 25.4834 5.44976 22.6402 5.55707C22.4757 5.56333 22.3111 5.54111 22.1547 5.48918C21.712 5.34277 20.4997 5.02899 17.9137 4.87131C17.5981 4.85223 17.4464 4.47369 17.6632 4.24343C18.5272 3.32492 20.4353 1.61991 22.9427 1.28642C22.989 1.28016 23.036 1.27734 23.0829 1.27734H32.2452C32.605 1.27734 32.8969 1.56892 32.8969 1.929V1.92931Z" fill="#3C3338"/>
<path id="Vector_75" d="M18.034 1.3887L16.2621 1.13623L12.1216 4.63635L12.1694 4.65699H15.4521C15.8626 4.65699 16.3963 4.41016 16.869 3.95872L18.5571 2.17675C18.6213 1.81667 18.391 1.46941 18.034 1.3887Z" fill="#3C3338"/>
<g id="Clip path group">
<mask id="mask0_2895_4169" style="mask-type:luminance" maskUnits="userSpaceOnUse" x="12" y="1" width="7" height="4">
<g id="clippath">
<path id="Vector_76" d="M18.034 1.3887L16.2621 1.13623L12.1216 4.63635L12.1694 4.65699H15.4521C15.8626 4.65699 16.3963 4.41016 16.869 3.95872L18.5571 2.17675C18.6213 1.81667 18.391 1.46941 18.034 1.3887Z" fill="white"/>
</g>
</mask>
<g mask="url(#mask0_2895_4169)">
<g id="Group_10">
<g id="Group_11">
<g id="Vector_77" style="mix-blend-mode:overlay" opacity="0.25">
<path d="M13.5085 9.03617H11.7856L17.18 -2.53223H18.9029L13.5085 9.03617Z" fill="white"/>
</g>
<g id="Vector_78" style="mix-blend-mode:overlay" opacity="0.25">
<path d="M14.7786 9.03617H14.0625L19.4569 -2.53223H20.173L14.7786 9.03617Z" fill="white"/>
</g>
</g>
</g>
</g>
</g>
<g id="Group_12">
<path id="Vector_79" d="M5.90402 13.9042L0.351325 13.4139C0.157361 13.4136 0 13.2566 0 13.0626V11.5125C0 11.3185 0.157361 11.1611 0.351325 11.1611H5.90402C6.09798 11.1611 6.25535 11.3185 6.25535 11.5125V13.5528C6.25535 13.7468 6.09798 13.9042 5.90402 13.9042Z" fill="#BACAD3"/>
<g id="Vector_80" style="mix-blend-mode:multiply" opacity="0.21">
<path d="M0 12.7993V13.0627C0 13.2567 0.157361 13.4141 0.351325 13.4141L5.90402 13.9043C6.09798 13.9043 6.25535 13.7469 6.25535 13.553V12.7993H0Z" fill="#414042"/>
</g>
</g>
<path id="Vector_81" d="M27.5369 8.38232H4.15391C3.98654 8.38232 3.85107 8.51779 3.85107 8.68516C3.85107 8.85253 3.98685 8.98799 4.15391 8.98799H27.5369C27.7043 8.98799 27.8398 8.85253 27.8398 8.68516C27.8398 8.51779 27.7043 8.38232 27.5369 8.38232Z" fill="#BACAD3"/>
<path id="Vector_82" d="M18.0342 1.3887L16.2623 1.13623L15.8709 1.46722L16.9264 1.62427L17.9607 1.77162C18.0765 1.8029 18.1587 1.89957 18.1753 2.01314L16.5933 3.68311C16.2191 4.03819 15.772 4.26719 15.4523 4.26719H12.5585L12.1221 4.63603L12.1699 4.65668H15.4526C15.8631 4.65668 16.3968 4.40985 16.8695 3.95841L18.5576 2.17644C18.6217 1.81636 18.3915 1.4691 18.0345 1.38838L18.0342 1.3887Z" fill="#BACAD3"/>
<g id="Clip path group_2">
<mask id="mask1_2895_4169" style="mask-type:luminance" maskUnits="userSpaceOnUse" x="17" y="1" width="16" height="5">
<g id="clippath-1">
<path id="Vector_83" d="M32.8969 1.92931V4.754C32.8969 5.03712 32.671 5.26863 32.3879 5.27582C30.7385 5.31649 25.4834 5.44976 22.6402 5.55707C22.4757 5.56333 22.3111 5.54111 22.1547 5.48918C21.712 5.34277 20.4997 5.02899 17.9137 4.87131C17.5981 4.85223 17.4464 4.47369 17.6632 4.24343C18.5272 3.32492 20.4353 1.61991 22.9427 1.28642C22.989 1.28016 23.036 1.27734 23.0829 1.27734H32.2452C32.605 1.27734 32.8969 1.56892 32.8969 1.929V1.92931Z" fill="white"/>
</g>
</mask>
<g mask="url(#mask1_2895_4169)">
<g id="Group_13">
<g id="Group_14">
<g id="Vector_84" style="mix-blend-mode:overlay" opacity="0.25">
<path d="M28.0005 10.4546H26.0205L32.2192 -2.83887H34.1992L28.0005 10.4546Z" fill="white"/>
</g>
<g id="Vector_85" style="mix-blend-mode:overlay" opacity="0.25">
<path d="M19.0308 10.4546H17.0508L23.2498 -2.83887H25.2295L19.0308 10.4546Z" fill="white"/>
</g>
<g id="Vector_86" style="mix-blend-mode:overlay" opacity="0.25">
<path d="M22.7689 10.4546H21.4912L27.6899 -2.83887H28.9676L22.7689 10.4546Z" fill="white"/>
</g>
<g id="Vector_87" style="mix-blend-mode:overlay" opacity="0.25">
<path d="M24.063 10.4546H23.2402L29.439 -2.83887H30.2617L24.063 10.4546Z" fill="white"/>
</g>
</g>
</g>
</g>
</g>
<path id="Vector_88" d="M32.2452 1.27783H23.0829C23.036 1.27783 22.989 1.28065 22.9427 1.2869C20.4353 1.6204 18.5275 3.32509 17.6632 4.24392C17.4464 4.47417 17.5981 4.85272 17.9137 4.8718C20.4997 5.02916 21.712 5.34326 22.1547 5.48967C22.2942 5.53566 22.4397 5.5585 22.5864 5.5585C22.6042 5.5585 22.6224 5.55818 22.6402 5.55756C25.4834 5.45025 30.7385 5.31698 32.3879 5.27631C32.671 5.26943 32.8969 5.03792 32.8969 4.75448V1.92949C32.8969 1.56972 32.6053 1.27783 32.2452 1.27783ZM23.2074 1.62415H30.9344V4.96597C28.8489 5.01946 25.4859 5.10956 23.2074 5.18965V1.62415ZM22.6274 5.21093C22.6136 5.21155 22.6002 5.21155 22.5864 5.21155C22.475 5.21155 22.3662 5.19434 22.2635 5.16024C21.7495 4.99037 20.5035 4.6819 17.935 4.52548C17.9278 4.52517 17.9172 4.52454 17.9106 4.50765C17.9047 4.49232 17.9106 4.48575 17.9156 4.48043C18.7578 3.58507 20.48 2.06214 22.7313 1.66951V5.20655C22.6962 5.2078 22.6615 5.20905 22.6274 5.2103V5.21093ZM32.5505 4.75386C32.5505 4.8499 32.4754 4.92717 32.3794 4.92936C32.1166 4.93593 31.7475 4.94501 31.3023 4.95627V1.62415H32.2452C32.4135 1.62415 32.5505 1.76118 32.5505 1.92949V4.75417V4.75386Z" fill="#BACAD3"/>
<g id="Vector_89" style="mix-blend-mode:multiply" opacity="0.21">
<path d="M18.0342 1.3887L16.2623 1.13623L15.8709 1.46722L16.9264 1.62427L17.9607 1.77162C18.0765 1.8029 18.1587 1.89957 18.1753 2.01314L16.5933 3.68311C16.2191 4.03819 15.772 4.26719 15.4523 4.26719H12.5585L12.1221 4.63603L12.1699 4.65668H15.4526C15.8631 4.65668 16.3968 4.40985 16.8695 3.95841L18.5576 2.17644C18.6217 1.81636 18.3915 1.4691 18.0345 1.38838L18.0342 1.3887ZM18.476 2.13671L16.8079 3.8974C16.3727 4.31255 15.8534 4.57034 15.4523 4.57034H12.3342L12.5901 4.35385H15.4523C15.7924 4.35385 16.2635 4.11515 16.6527 3.74599L16.6543 3.74442L16.6558 3.74286L18.2379 2.07289L18.2667 2.04254L18.2607 2.00094C18.2388 1.85046 18.1296 1.72782 17.9829 1.68809L17.9779 1.68684L17.9726 1.68621L16.939 1.53886L16.0727 1.40997L16.2882 1.22758L18.0183 1.4741C18.3205 1.54418 18.5173 1.83169 18.4756 2.13671H18.476Z" fill="#414042"/>
</g>
<g id="Clip path group_3">
<mask id="mask2_2895_4169" style="mask-type:luminance" maskUnits="userSpaceOnUse" x="33" y="1" width="4" height="5">
<g id="clippath-2">
<path id="Vector_90" d="M34.3959 1.27197C34.3959 1.27197 33.8077 1.4065 33.8077 1.94772V4.73986C33.8077 4.73986 33.7683 5.25762 34.3255 5.25762L36.8201 5.20381C35.6216 2.98793 35.2922 2.13355 34.3959 1.27229V1.27197Z" fill="white"/>
</g>
</mask>
<g mask="url(#mask2_2895_4169)">
<g id="Group_15">
<g id="Group_16">
<g id="Vector_91" style="mix-blend-mode:overlay" opacity="0.25">
<path d="M32.3347 10.7481H30.6118L36.0062 -0.820312H37.7291L32.3347 10.7481Z" fill="white"/>
</g>
<g id="Vector_92" style="mix-blend-mode:overlay" opacity="0.25">
<path d="M33.6046 10.7481H32.8882L38.2829 -0.820312H38.999L33.6046 10.7481Z" fill="white"/>
</g>
</g>
</g>
</g>
</g>
<path id="Vector_93" d="M36.6258 4.83707H36.0307L34.3276 4.87368C34.2591 4.87305 34.23 4.85897 34.2247 4.85334C34.2128 4.84114 34.2031 4.80078 34.2025 4.77232L34.2031 4.76981V1.95358C34.2031 1.89101 34.2165 1.81686 34.3148 1.74366C34.3148 1.74366 34.4318 1.64011 34.6627 1.54594C34.5807 1.45584 34.4943 1.36668 34.4021 1.27783C34.4021 1.27783 33.8136 1.41236 33.8136 1.95327V4.74541C33.8136 4.74541 33.7742 5.26317 34.3314 5.26317L36.8263 5.20936C36.7565 5.08047 36.6902 4.95689 36.6261 4.83676L36.6258 4.83707Z" fill="#BACAD3"/>
<g id="Vector_94" style="mix-blend-mode:multiply" opacity="0.21">
<path d="M36.6258 4.83707H36.0307L34.3276 4.87368C34.2591 4.87305 34.23 4.85897 34.2247 4.85334C34.2128 4.84114 34.2031 4.80078 34.2025 4.77232L34.2031 4.76981V1.95358C34.2031 1.89101 34.2165 1.81686 34.3148 1.74366C34.3148 1.74366 34.4318 1.64011 34.6627 1.54594C34.5807 1.45584 34.4943 1.36668 34.4021 1.27783C34.4021 1.27783 33.8136 1.41236 33.8136 1.95327V4.74541C33.8136 4.74541 33.7742 5.26317 34.3314 5.26317L36.8263 5.20936C36.7565 5.08047 36.6902 4.95689 36.6261 4.83676L36.6258 4.83707ZM34.0032 5.06045C33.8887 4.93812 33.8996 4.75386 33.8999 4.75229V4.74917V4.74572V1.95358C33.8999 1.56471 34.2513 1.4158 34.3773 1.37481C34.4249 1.42143 34.4712 1.46835 34.5169 1.51622C34.3639 1.5913 34.2779 1.66138 34.2603 1.67608C34.1314 1.77338 34.1164 1.881 34.1164 1.95358V4.76074L34.1155 4.76449V4.77513C34.1161 4.78483 34.1196 4.86992 34.1627 4.91404C34.1993 4.95158 34.2722 4.96002 34.327 4.96034H34.3282H34.3295L36.0307 4.92373H36.5738C36.6092 4.99006 36.6455 5.05732 36.6824 5.12614L34.331 5.17683C34.1856 5.17683 34.0751 5.13772 34.0029 5.06013L34.0032 5.06045Z" fill="#414042"/>
</g>
<path id="Vector_95" d="M31.4326 7.90345H51.648C51.7431 7.90345 51.821 7.82555 51.821 7.73013C51.821 7.63503 51.7431 7.55713 51.648 7.55713H31.4326C31.3375 7.55713 31.2593 7.63503 31.2593 7.73013C31.2593 7.82524 31.3372 7.90345 31.4326 7.90345Z" fill="#BACAD3"/>
<path id="Vector_96" d="M21.6948 5.35938C21.6948 5.35938 22.4791 6.60982 22.9988 8.38209H23.6736C23.6736 8.38209 23.3951 7.37817 22.4288 5.54865C22.4288 5.54865 21.7855 5.3672 21.6951 5.35938H21.6948Z" fill="#D1D3D4"/>
<path id="Vector_97" d="M4.18267 8.98779L3.60547 11.1608H4.50553L5.11151 8.98779H4.18267Z" fill="#33333B"/>
<g id="Group_17" style="mix-blend-mode:multiply" opacity="0.21">
<path id="Vector_98" d="M17.8529 4.42179C17.8104 4.46684 17.8207 4.51533 17.8304 4.54035C17.8385 4.56069 17.8645 4.60855 17.9302 4.61262C20.4889 4.76842 21.7266 5.07438 22.2368 5.243C22.3485 5.27992 22.4661 5.29869 22.5869 5.29869C22.6016 5.29869 22.6163 5.29869 22.631 5.29775L22.7286 5.294H22.7349L22.8181 5.29056V1.56738L22.7167 1.58521C20.432 1.98347 18.6888 3.53362 17.8529 4.4221V4.42179ZM22.7317 5.20734C22.6967 5.20859 22.662 5.20984 22.6279 5.21109C22.6141 5.21172 22.6007 5.21172 22.5869 5.21172C22.4755 5.21172 22.3666 5.19451 22.264 5.16041C21.75 4.99054 20.504 4.68207 17.9355 4.52565C17.9283 4.52534 17.9177 4.52471 17.9111 4.50782C17.9052 4.49249 17.9111 4.48592 17.9161 4.4806C18.7583 3.58524 20.4805 2.0623 22.7317 1.66968V5.20671V5.20734Z" fill="#414042"/>
<path id="Vector_99" d="M23.2078 1.5376H23.1211V5.27954L23.2106 5.27641C25.4243 5.19851 28.6337 5.11154 30.9366 5.05273L31.0211 5.05054V1.5376H23.2078ZM30.9347 4.96607C28.8493 5.01957 25.4862 5.10967 23.2078 5.18976V1.62426H30.9347V4.96607Z" fill="#414042"/>
<path id="Vector_100" d="M32.2454 1.5376H31.2158V5.04553L31.3047 5.04334C31.7498 5.03208 32.119 5.0227 32.3815 5.01644C32.5248 5.013 32.6371 4.89787 32.6371 4.75428V1.92959C32.6371 1.71342 32.4613 1.53791 32.2454 1.53791V1.5376ZM32.5507 4.75396C32.5507 4.85001 32.4756 4.92728 32.3796 4.92947C32.1168 4.93604 31.7477 4.94511 31.3025 4.95637V1.62426H32.2454C32.4137 1.62426 32.5507 1.76128 32.5507 1.92959V4.75428V4.75396Z" fill="#414042"/>
<path id="Vector_101" d="M32.2452 1.27783H23.0829C23.036 1.27783 22.989 1.28065 22.9427 1.2869C20.4353 1.6204 18.5275 3.32509 17.6632 4.24392C17.4464 4.47417 17.5981 4.85272 17.9137 4.8718C20.4997 5.02916 21.712 5.34326 22.1547 5.48967C22.2942 5.53566 22.4397 5.5585 22.5864 5.5585C22.6042 5.5585 22.6224 5.55818 22.6402 5.55756C25.4834 5.45025 30.7385 5.31698 32.3879 5.27631C32.671 5.26943 32.8969 5.03792 32.8969 4.75448V1.92949C32.8969 1.56972 32.6053 1.27783 32.2452 1.27783ZM32.8102 4.75417C32.8102 4.99225 32.6237 5.18339 32.3857 5.18934C30.8205 5.22813 25.4924 5.36266 22.6371 5.47059C22.6202 5.47121 22.6033 5.47153 22.5864 5.47153C22.4472 5.47153 22.3111 5.44994 22.1819 5.40708C21.6798 5.24127 20.4584 4.93969 17.9191 4.78514C17.8046 4.77826 17.7113 4.71037 17.6688 4.60401C17.6269 4.49826 17.6481 4.38595 17.726 4.30305C18.6239 3.34887 20.4966 1.69923 22.954 1.37262C22.9947 1.36731 23.0378 1.36449 23.0826 1.36449H32.2449C32.5565 1.36449 32.8099 1.61789 32.8099 1.92949V4.75417H32.8102Z" fill="#414042"/>
</g>
<g id="Vector_102" style="mix-blend-mode:multiply" opacity="0.21">
<path d="M33.4166 5.27944V1.484C33.4166 1.37012 33.3243 1.27783 33.2105 1.27783H32.2732C32.2732 1.27783 32.5103 1.28221 32.6868 1.45084H33.1079C33.1829 1.45084 33.2436 1.51153 33.2436 1.58661V5.32762L33.2683 5.36891L34.0805 6.71728V12.728H24.1417L23.888 8.98791H23.7144L23.9796 12.901H34.2532V6.6691L33.4163 5.27944H33.4166Z" fill="#414042"/>
</g>
<path id="Vector_103" d="M0.329726 9.94092H1.85235C1.97905 9.94092 2.08197 10.0438 2.08197 10.1705V10.4887C2.08197 10.6154 1.97905 10.7183 1.85235 10.7183H0.329726C0.203024 10.7183 0.100098 10.6154 0.100098 10.4887V10.1705C0.100098 10.0438 0.203024 9.94092 0.329726 9.94092Z" fill="#BACAD3"/>
</g>
</g>
</g>
</svg>
