<svg width="61" height="22" viewBox="0 0 61 22" fill="none" xmlns="http://www.w3.org/2000/svg">
<g id="Group" filter="url(#filter0_d_2895_3315)">
<g id="Layer 2">
<g id="Layer 1">
<g id="Group_2">
<path id="Vector" d="M20.5018 1.75655C20.5018 1.75655 21.7066 1.57882 22.4036 3.56031L21.0671 3.92855L20.5015 1.75685L20.5018 1.75655Z" fill="#3D4D84"/>
<path id="Vector_2" d="M11.5043 10.9422H21.4926H42.8244L52.6231 9.94388L53.8244 7.40066L50.1875 4.2666L22.7001 5.74254L13.6516 4.2666L10.3467 7.20778L11.5043 10.9422Z" fill="#363436"/>
<g id="Group_3">
<path id="Vector_3" d="M41.1734 2.94354L32.6388 2.67725C32.6388 2.67725 31.6274 3.75968 27.9013 3.79505C27.9013 3.79505 23.4363 4.05451 21.0111 2.74471L20.7861 3.47555L28.7353 5.17885L41.1734 2.94325V2.94354Z" fill="#D39535"/>
<path id="Vector_4" d="M12.5518 2.0701C12.5518 2.0701 16.403 0.83252 20.2533 0.83252C20.2533 0.83252 21.0103 2.15153 21.2707 3.97312L12.5518 2.0701Z" fill="#D39535"/>
</g>
<path id="Vector_5" d="M20.885 3.88852L21.2705 3.97263C21.0101 2.15104 20.2531 0.832031 20.2531 0.832031C20.1455 0.832031 20.0383 0.83322 19.9307 0.835003C20.0903 1.14856 20.6493 2.32966 20.885 3.88852Z" fill="#414042"/>
<g id="Group_4">
<path id="Vector_6" d="M52.3662 9.61586C52.3662 12.0375 50.4037 14 47.9821 14C45.5604 14 43.5977 12.0372 43.5977 9.61586C43.5977 7.19451 45.5607 5.23145 47.9821 5.23145C50.4034 5.23145 52.3662 7.1948 52.3662 9.61586Z" fill="#414042"/>
<path id="Vector_7" d="M50.9357 9.61606C50.9357 11.2474 49.6135 12.57 47.9818 12.57C46.3501 12.57 45.0278 11.2477 45.0278 9.61606C45.0278 7.98439 46.3504 6.66211 47.9818 6.66211C49.6132 6.66211 50.9357 7.98469 50.9357 9.61606Z" fill="#F1F2F2"/>
<path id="Vector_8" d="M50.6141 9.61626C50.6141 11.0702 49.4356 12.2486 47.9817 12.2486C46.5277 12.2486 45.3496 11.0702 45.3496 9.61626C45.3496 8.16232 46.528 6.98389 47.9817 6.98389C49.4353 6.98389 50.6141 8.16262 50.6141 9.61626Z" fill="#A7A9AC"/>
<g id="Group_5">
<path id="Vector_9" d="M46.3131 8.24509L46.1259 8.06885C45.9814 8.24271 45.8655 8.43174 45.7778 8.62998L46.0198 8.71884C46.0973 8.54795 46.196 8.38835 46.3134 8.24479L46.3131 8.24509Z" fill="#414042"/>
<path id="Vector_10" d="M45.9146 9.00293L45.673 8.91406C45.6136 9.1126 45.5806 9.31678 45.5737 9.52185L45.8308 9.51383C45.8382 9.33729 45.8671 9.1661 45.9146 9.00293Z" fill="#414042"/>
<path id="Vector_11" d="M46.9393 7.7214L46.8311 7.48779C46.654 7.58439 46.4864 7.70416 46.333 7.84831L46.5205 8.02455C46.6472 7.90745 46.7874 7.80551 46.9393 7.7214Z" fill="#414042"/>
<path id="Vector_12" d="M47.7579 7.46401L47.7502 7.20752C47.5309 7.22862 47.3142 7.27915 47.1064 7.35969L47.2146 7.59359C47.3864 7.52791 47.5683 7.48333 47.7579 7.46401Z" fill="#414042"/>
<path id="Vector_13" d="M48.6611 7.29356C48.4626 7.23531 48.2578 7.20291 48.0527 7.19727L48.0608 7.45405C48.2379 7.4603 48.4091 7.48823 48.5726 7.53489L48.6611 7.29356Z" fill="#414042"/>
<path id="Vector_14" d="M50.0967 8.45197C49.9995 8.27364 49.8782 8.10483 49.7329 7.95117L49.5566 8.13841C49.6749 8.26532 49.7784 8.40679 49.8634 8.55956L50.0967 8.45167V8.45197Z" fill="#414042"/>
<path id="Vector_15" d="M50.1231 9.38201L50.3793 9.37399C50.3582 9.15316 50.307 8.93501 50.2253 8.72607L49.9917 8.83396C50.0583 9.00694 50.1035 9.19061 50.1231 9.38201Z" fill="#414042"/>
<path id="Vector_16" d="M49.5111 7.7446C49.336 7.60045 49.1455 7.48454 48.9458 7.39746L48.8569 7.63879C49.0293 7.71577 49.1901 7.81444 49.3348 7.93184L49.5108 7.7446H49.5111Z" fill="#414042"/>
<path id="Vector_17" d="M49.0171 11.4936L49.125 11.7272C49.3048 11.6303 49.4745 11.5091 49.6296 11.3637L49.4421 11.1875C49.3137 11.3061 49.1713 11.4092 49.0171 11.4939V11.4936Z" fill="#414042"/>
<path id="Vector_18" d="M48.1919 11.7482L48.1999 12.005C48.4213 11.9851 48.6401 11.9349 48.8496 11.854L48.7414 11.6201C48.5679 11.6855 48.3836 11.7295 48.1919 11.7482Z" fill="#414042"/>
<path id="Vector_19" d="M49.6497 10.9669L49.8372 11.1432C49.9826 10.9672 50.1 10.7758 50.1874 10.5752L49.946 10.4863C49.8682 10.6599 49.7683 10.8213 49.6494 10.9669H49.6497Z" fill="#414042"/>
<path id="Vector_20" d="M45.8386 9.81641L45.5815 9.82443C45.6021 10.0441 45.6511 10.2616 45.7307 10.4697L45.9649 10.3615C45.9004 10.1891 45.8571 10.0066 45.8386 9.81641Z" fill="#414042"/>
<path id="Vector_21" d="M50.1326 9.68497C50.1261 9.86389 50.0978 10.0369 50.0503 10.2021L50.2916 10.291C50.3511 10.0904 50.3838 9.8841 50.3891 9.67725L50.1323 9.68497H50.1326Z" fill="#414042"/>
<path id="Vector_22" d="M46.4365 11.4553C46.6113 11.6012 46.8012 11.7183 47.0003 11.8072L47.0895 11.5653C46.9174 11.4868 46.7569 11.3869 46.6128 11.2681L46.4365 11.4556V11.4553Z" fill="#414042"/>
<path id="Vector_23" d="M45.8574 10.7449C45.9537 10.9238 46.0738 11.0926 46.2173 11.2469L46.3936 11.0593C46.2765 10.9315 46.1748 10.7898 46.091 10.6367L45.8574 10.7446V10.7449Z" fill="#414042"/>
<path id="Vector_24" d="M47.374 11.6714L47.2852 11.913C47.4849 11.9731 47.6908 12.0066 47.8977 12.0138L47.89 11.7567C47.7116 11.7493 47.5387 11.7198 47.374 11.6714Z" fill="#414042"/>
<path id="Vector_25" d="M46.6741 8.5846L46.4973 8.41846C46.4025 8.53704 46.3213 8.66692 46.2568 8.80631L46.4842 8.89013C46.5365 8.78105 46.6004 8.67881 46.6741 8.5846Z" fill="#414042"/>
<path id="Vector_26" d="M46.083 9.50613L46.3258 9.4987C46.333 9.38724 46.3511 9.27847 46.379 9.17415L46.1517 9.09033C46.1142 9.22378 46.0904 9.36258 46.083 9.50613Z" fill="#414042"/>
<path id="Vector_27" d="M46.8817 8.3637C46.9635 8.29118 47.0526 8.22668 47.1477 8.1714L47.0458 7.95117C46.923 8.02072 46.8086 8.10334 46.7046 8.19756L46.8817 8.36399V8.3637Z" fill="#414042"/>
<path id="Vector_28" d="M47.4218 8.04313C47.5335 8.00301 47.6509 7.97507 47.7725 7.95962L47.765 7.7168C47.6102 7.73433 47.461 7.77029 47.3198 7.8226L47.4218 8.04283V8.04313Z" fill="#414042"/>
<path id="Vector_29" d="M48.4849 7.77271C48.3511 7.73616 48.2117 7.71327 48.0679 7.70703L48.0753 7.94926C48.1873 7.9555 48.2961 7.97274 48.401 8.00008L48.4846 7.77271H48.4849Z" fill="#414042"/>
<path id="Vector_30" d="M49.2173 8.4991C49.2913 8.58173 49.3567 8.67178 49.4131 8.76778L49.6334 8.66584C49.5629 8.5419 49.4791 8.42659 49.3834 8.32227L49.2173 8.49881V8.4991Z" fill="#414042"/>
<path id="Vector_31" d="M49.8698 9.39011C49.8523 9.23377 49.8157 9.08279 49.7622 8.94043L49.542 9.04208C49.583 9.15531 49.6115 9.27449 49.627 9.39754L49.8695 9.39011H49.8698Z" fill="#414042"/>
<path id="Vector_32" d="M49.1616 8.11612C49.0418 8.02101 48.9104 7.94017 48.7695 7.87598L48.686 8.10334C48.7963 8.15506 48.9 8.21896 48.9954 8.29266L49.1616 8.11582V8.11612Z" fill="#414042"/>
<path id="Vector_33" d="M49.0808 10.8477C48.9973 10.9217 48.9061 10.9873 48.8086 11.0435L48.9105 11.2637C49.0357 11.1936 49.1522 11.1098 49.2577 11.0141L49.0808 10.8477Z" fill="#414042"/>
<path id="Vector_34" d="M48.5334 11.1704C48.4196 11.2105 48.3004 11.2385 48.1768 11.253L48.1842 11.4956C48.3411 11.4789 48.4924 11.4432 48.6353 11.3909L48.5334 11.1704Z" fill="#414042"/>
<path id="Vector_35" d="M49.7088 10.3992L49.4815 10.3154C49.4286 10.4269 49.3638 10.5312 49.2886 10.6275L49.4654 10.7936C49.562 10.6733 49.6437 10.541 49.7091 10.3992H49.7088Z" fill="#414042"/>
<path id="Vector_36" d="M46.4153 10.1535C46.376 10.0411 46.3484 9.92312 46.3341 9.80127L46.0913 9.8087C46.108 9.96384 46.143 10.1136 46.1944 10.2554L46.415 10.1535H46.4153Z" fill="#414042"/>
<path id="Vector_37" d="M49.8805 9.69238L49.6382 9.69981C49.632 9.81364 49.6139 9.92421 49.5859 10.0306L49.8133 10.1144C49.8507 9.97919 49.8739 9.83801 49.8805 9.69238Z" fill="#414042"/>
<path id="Vector_38" d="M46.7866 11.0838C46.9058 11.1801 47.0369 11.2624 47.1772 11.3281L47.261 11.1007C47.1507 11.0475 47.0479 10.9824 46.9528 10.9072L46.7866 11.0841V11.0838Z" fill="#414042"/>
<path id="Vector_39" d="M46.7333 10.6985C46.6605 10.6155 46.5963 10.5255 46.541 10.4292L46.3208 10.5308C46.3901 10.6548 46.4727 10.7704 46.5669 10.8753L46.7333 10.6985Z" fill="#414042"/>
<path id="Vector_40" d="M47.4614 11.4339C47.5964 11.4722 47.7369 11.4963 47.8823 11.504L47.8748 11.2612C47.7616 11.2541 47.6513 11.2354 47.5452 11.2065L47.4614 11.4339Z" fill="#414042"/>
</g>
<path id="Vector_41" d="M49.3485 9.61589C49.3485 10.3708 48.7365 10.9827 47.9816 10.9827C47.2267 10.9827 46.6147 10.3708 46.6147 9.61589C46.6147 8.86098 47.2267 8.24902 47.9816 8.24902C48.7365 8.24902 49.3485 8.86127 49.3485 9.61589Z" fill="#F1F2F2"/>
<path id="Vector_42" d="M49.0817 9.61578C49.0817 10.223 48.5895 10.7155 47.982 10.7155C47.3745 10.7155 46.8823 10.2233 46.8823 9.61578C46.8823 9.00829 47.3745 8.51611 47.982 8.51611C48.5895 8.51611 49.0817 9.00859 49.0817 9.61578Z" fill="#D1D3D4"/>
<path id="Vector_43" d="M48.569 9.6158C48.569 9.94005 48.3063 10.2028 47.982 10.2028C47.6578 10.2028 47.395 9.94005 47.395 9.6158C47.395 9.29154 47.6578 9.02881 47.982 9.02881C48.3063 9.02881 48.569 9.29154 48.569 9.6158Z" fill="#F1F2F2"/>
<g id="Vector_44" style="mix-blend-mode:multiply" opacity="0.21">
<path d="M51.061 12.7338C51.8656 11.9391 52.3646 10.8355 52.3646 9.61489C52.3646 7.19383 50.4021 5.23047 47.9804 5.23047C46.7872 5.23047 45.7056 5.70808 44.915 6.48172L51.061 12.7338Z" fill="#414042"/>
</g>
</g>
<g id="Group_6">
<path id="Vector_45" d="M20.7856 9.61586C20.7856 12.0375 18.8232 14 16.4015 14C13.9799 14 12.0171 12.0372 12.0171 9.61586C12.0171 7.19451 13.9802 5.23145 16.4015 5.23145C18.8229 5.23145 20.7856 7.1948 20.7856 9.61586Z" fill="#414042"/>
<path id="Vector_46" d="M19.3554 9.61606C19.3554 11.2474 18.0331 12.57 16.4017 12.57C14.7703 12.57 13.4478 11.2477 13.4478 9.61606C13.4478 7.98439 14.7703 6.66211 16.4017 6.66211C18.0331 6.66211 19.3554 7.98469 19.3554 9.61606Z" fill="#F1F2F2"/>
<path id="Vector_47" d="M19.0335 9.61626C19.0335 11.0702 17.8551 12.2486 16.4014 12.2486C14.9478 12.2486 13.769 11.0702 13.769 9.61626C13.769 8.16232 14.9475 6.98389 16.4014 6.98389C17.8554 6.98389 19.0335 8.16262 19.0335 9.61626Z" fill="#A7A9AC"/>
<g id="Group_7">
<path id="Vector_48" d="M14.733 8.24509L14.5458 8.06885C14.4013 8.24271 14.2854 8.43174 14.1978 8.62998L14.4397 8.71884C14.517 8.54795 14.6159 8.38835 14.733 8.24479V8.24509Z" fill="#414042"/>
<path id="Vector_49" d="M14.3341 9.00293L14.0924 8.91406C14.033 9.1126 14 9.31678 13.9932 9.52185L14.2503 9.51383C14.2577 9.33729 14.2865 9.1661 14.3341 9.00293Z" fill="#414042"/>
<path id="Vector_50" d="M15.3592 7.7214L15.2511 7.48779C15.0739 7.58439 14.9063 7.70416 14.7529 7.84831L14.9405 8.02455C15.0671 7.90745 15.2074 7.80551 15.3592 7.7214Z" fill="#414042"/>
<path id="Vector_51" d="M16.1774 7.46401L16.1696 7.20752C15.9503 7.22862 15.7336 7.27915 15.5259 7.35969L15.6341 7.59359C15.8058 7.52791 15.9877 7.48333 16.1774 7.46401Z" fill="#414042"/>
<path id="Vector_52" d="M17.081 7.29356C16.8825 7.23531 16.6777 7.20291 16.4727 7.19727L16.4807 7.45405C16.6575 7.4603 16.829 7.48823 16.9925 7.53489L17.081 7.29356Z" fill="#414042"/>
<path id="Vector_53" d="M18.5166 8.45197C18.4194 8.27364 18.2981 8.10483 18.1528 7.95117L17.9766 8.13841C18.0949 8.26532 18.1983 8.40679 18.2833 8.55956L18.5166 8.45167V8.45197Z" fill="#414042"/>
<path id="Vector_54" d="M18.5425 9.38201L18.7987 9.37399C18.7776 9.15316 18.7265 8.93501 18.6447 8.72607L18.4111 8.83396C18.4777 9.00694 18.5229 9.19061 18.5425 9.38201Z" fill="#414042"/>
<path id="Vector_55" d="M17.9305 7.7446C17.7555 7.60045 17.565 7.48454 17.3652 7.39746L17.2764 7.63879C17.4487 7.71577 17.6095 7.81444 17.7543 7.93184L17.9302 7.7446H17.9305Z" fill="#414042"/>
<path id="Vector_56" d="M17.437 11.4936L17.5449 11.7272C17.7247 11.6303 17.8944 11.5091 18.0496 11.3637L17.862 11.1875C17.7336 11.3061 17.5913 11.4092 17.437 11.4939V11.4936Z" fill="#414042"/>
<path id="Vector_57" d="M16.6118 11.7482L16.6198 12.005C16.8413 11.9851 17.06 11.9349 17.2695 11.854L17.1614 11.6201C16.9878 11.6855 16.8035 11.7295 16.6118 11.7482Z" fill="#414042"/>
<path id="Vector_58" d="M18.0696 10.9669L18.2572 11.1432C18.4025 10.9672 18.5199 10.7758 18.6073 10.5752L18.3659 10.4863C18.2881 10.6599 18.1882 10.8213 18.0693 10.9669H18.0696Z" fill="#414042"/>
<path id="Vector_59" d="M14.2585 9.81641L14.0015 9.82443C14.022 10.0441 14.071 10.2616 14.1507 10.4697L14.3849 10.3615C14.3204 10.1891 14.277 10.0066 14.2585 9.81641Z" fill="#414042"/>
<path id="Vector_60" d="M18.5525 9.68497C18.546 9.86389 18.5178 10.0369 18.4702 10.2021L18.7115 10.291C18.771 10.0904 18.8037 9.8841 18.809 9.67725L18.5522 9.68497H18.5525Z" fill="#414042"/>
<path id="Vector_61" d="M14.8564 11.4553C15.0312 11.6012 15.2211 11.7183 15.4202 11.8072L15.5094 11.5653C15.3373 11.4868 15.1768 11.3869 15.0327 11.2681L14.8564 11.4556V11.4553Z" fill="#414042"/>
<path id="Vector_62" d="M14.2769 10.7449C14.3732 10.9238 14.4932 11.0926 14.6368 11.2469L14.813 11.0593C14.6959 10.9315 14.5943 10.7898 14.5105 10.6367L14.2769 10.7446V10.7449Z" fill="#414042"/>
<path id="Vector_63" d="M15.7939 11.6714L15.7051 11.913C15.9048 11.9731 16.1108 12.0066 16.3179 12.0138L16.3099 11.7567C16.1316 11.7493 15.9586 11.7198 15.7939 11.6714Z" fill="#414042"/>
<path id="Vector_64" d="M15.0938 8.5846L14.917 8.41846C14.8222 8.53704 14.7411 8.66692 14.6763 8.80631L14.9036 8.89013C14.9559 8.78105 15.0198 8.67881 15.0936 8.5846H15.0938Z" fill="#414042"/>
<path id="Vector_65" d="M14.5024 9.50613L14.7453 9.4987C14.7524 9.38724 14.7705 9.27847 14.7985 9.17415L14.5711 9.09033C14.5336 9.22378 14.5099 9.36258 14.5024 9.50613Z" fill="#414042"/>
<path id="Vector_66" d="M15.3016 8.3637C15.3834 8.29118 15.4725 8.22668 15.5676 8.1714L15.4657 7.95117C15.343 8.02072 15.2285 8.10334 15.1245 8.19756L15.3016 8.36399V8.3637Z" fill="#414042"/>
<path id="Vector_67" d="M15.8417 8.04313C15.9534 8.00301 16.0708 7.97507 16.1924 7.95962L16.185 7.7168C16.0301 7.73433 15.8809 7.77029 15.7397 7.8226L15.8417 8.04283V8.04313Z" fill="#414042"/>
<path id="Vector_68" d="M16.9048 7.77271C16.771 7.73616 16.6316 7.71327 16.4878 7.70703L16.4952 7.94926C16.6073 7.9555 16.716 7.97274 16.821 8.00008L16.9045 7.77271H16.9048Z" fill="#414042"/>
<path id="Vector_69" d="M17.6377 8.4991C17.7117 8.58173 17.7771 8.67178 17.8336 8.76778L18.0538 8.66584C17.9833 8.5419 17.8995 8.42659 17.8038 8.32227L17.6377 8.49881V8.4991Z" fill="#414042"/>
<path id="Vector_70" d="M18.2892 9.39011C18.2717 9.23377 18.2352 9.08279 18.1817 8.94043L17.9614 9.04208C18.0024 9.15531 18.031 9.27449 18.0464 9.39754L18.2889 9.39011H18.2892Z" fill="#414042"/>
<path id="Vector_71" d="M17.5815 8.11612C17.4617 8.02101 17.3303 7.94017 17.1895 7.87598L17.106 8.10334C17.2162 8.15506 17.3199 8.21896 17.4154 8.29266L17.5815 8.11582V8.11612Z" fill="#414042"/>
<path id="Vector_72" d="M17.5008 10.8477C17.4172 10.9217 17.326 10.9873 17.2285 11.0435L17.3305 11.2637C17.4556 11.1936 17.5721 11.1098 17.6776 11.0141L17.5008 10.8477Z" fill="#414042"/>
<path id="Vector_73" d="M16.9533 11.1704C16.8395 11.2105 16.7203 11.2385 16.5967 11.253L16.6041 11.4956C16.761 11.4789 16.9123 11.4432 17.0553 11.3909L16.9533 11.1704Z" fill="#414042"/>
<path id="Vector_74" d="M18.1287 10.3992L17.9014 10.3154C17.8485 10.4269 17.7837 10.5312 17.7085 10.6275L17.8853 10.7936C17.9819 10.6733 18.064 10.541 18.129 10.3992H18.1287Z" fill="#414042"/>
<path id="Vector_75" d="M14.8349 10.1535C14.7957 10.0411 14.768 9.92312 14.7538 9.80127L14.5112 9.8087C14.5279 9.96384 14.5629 10.1136 14.6144 10.2554L14.8349 10.1535Z" fill="#414042"/>
<path id="Vector_76" d="M18.2999 9.69238L18.0577 9.69981C18.0514 9.81364 18.0333 9.92421 18.0054 10.0306L18.2327 10.1144C18.2702 9.97919 18.2934 9.83801 18.2999 9.69238Z" fill="#414042"/>
<path id="Vector_77" d="M15.2064 11.0838C15.3255 11.1801 15.4566 11.2624 15.5969 11.3281L15.6804 11.1007C15.5704 11.0475 15.4673 10.9824 15.3722 10.9072L15.2061 11.0841L15.2064 11.0838Z" fill="#414042"/>
<path id="Vector_78" d="M15.1528 10.6985C15.0799 10.6155 15.0154 10.5255 14.9605 10.4292L14.7402 10.5308C14.8095 10.6548 14.8921 10.7704 14.9863 10.8753L15.1528 10.6985Z" fill="#414042"/>
<path id="Vector_79" d="M15.8813 11.4339C16.0163 11.4722 16.1569 11.4963 16.3022 11.504L16.2948 11.2612C16.1815 11.2541 16.0713 11.2354 15.9652 11.2065L15.8813 11.4339Z" fill="#414042"/>
</g>
<path id="Vector_80" d="M17.7684 9.61589C17.7684 10.3708 17.1564 10.9827 16.4015 10.9827C15.6466 10.9827 15.0347 10.3708 15.0347 9.61589C15.0347 8.86098 15.6466 8.24902 16.4015 8.24902C17.1564 8.24902 17.7684 8.86127 17.7684 9.61589Z" fill="#F1F2F2"/>
<path id="Vector_81" d="M17.5006 9.61578C17.5006 10.223 17.0084 10.7155 16.4009 10.7155C15.7934 10.7155 15.3013 10.2233 15.3013 9.61578C15.3013 9.00829 15.7934 8.51611 16.4009 8.51611C17.0084 8.51611 17.5006 9.00859 17.5006 9.61578Z" fill="#D1D3D4"/>
<path id="Vector_82" d="M16.9884 9.6158C16.9884 9.94005 16.7257 10.2028 16.4014 10.2028C16.0772 10.2028 15.8145 9.94005 15.8145 9.6158C15.8145 9.29154 16.0772 9.02881 16.4014 9.02881C16.7257 9.02881 16.9884 9.29154 16.9884 9.6158Z" fill="#F1F2F2"/>
<g id="Vector_83" style="mix-blend-mode:multiply" opacity="0.21">
<path d="M19.4809 12.7338C20.2855 11.9391 20.7845 10.8355 20.7845 9.61489C20.7845 7.19383 18.822 5.23047 16.4004 5.23047C15.2071 5.23047 14.1255 5.70808 13.335 6.48172L19.4809 12.7338Z" fill="#414042"/>
</g>
</g>
<path id="Vector_84" d="M21.7213 11.2654H42.5655C42.6864 11.2654 42.7925 11.1846 42.8243 11.0678L43.8348 7.37943C43.8348 7.37943 44.3731 5.392 46.4669 5.15542C46.4669 5.15542 48.3913 4.94143 50.0584 5.3385C51.0621 5.57775 51.9076 6.25331 52.3403 7.18981C52.6625 7.88676 52.8899 8.83307 52.6233 9.94344C52.576 10.1399 52.7359 10.3254 52.9368 10.3037C53.7857 10.2127 55.256 9.9161 56.4151 8.96444C56.4151 8.96444 57.0776 8.19556 56.3087 7.27303C56.3087 7.27303 52.831 2.68324 47.555 2.3994C47.555 2.3994 44.0123 2.23386 40.5875 2.85473C40.5875 2.85473 31.9287 4.22099 26.2862 4.18533C26.2862 4.18533 23.5655 4.25161 18.8574 2.37919C18.8574 2.37919 15.7109 0.766839 10.2458 2.73049C10.2458 2.73049 4.47316 4.67037 4 7.74589C4 7.74589 4.08857 9.95206 6.89213 10.5554C6.89213 10.5554 9.15389 11.0562 11.3188 11.0559C11.4623 11.0559 11.5619 10.9138 11.5152 10.778C11.3265 10.2291 11.0459 8.87617 11.8603 6.90003C11.8603 6.90003 12.57 4.84186 15.6574 4.9661C15.6574 4.9661 19.1972 4.88615 19.8183 5.80898C19.8183 5.80898 21.1757 7.11907 21.2705 8.85804L21.4922 11.0583C21.5041 11.1757 21.6031 11.2651 21.721 11.2651L21.7213 11.2654Z" fill="#FDBB40"/>
<path id="Vector_85" d="M36.88 4.8457H41.9762C42.214 4.8457 42.3858 5.07336 42.3207 5.30192L41.7497 7.30629C41.6956 7.4965 41.4989 7.60855 41.3075 7.55743L37.4173 6.52315C37.2693 6.48362 37.1501 6.37365 37.0993 6.22921L36.7014 5.09744C36.658 4.97439 36.7492 4.8457 36.8797 4.8457H36.88Z" fill="#414042"/>
<path id="Vector_86" d="M32.6381 2.67755L30.3636 0L27.2158 1.45067L27.7951 3.8004C27.7951 3.8004 31.0454 3.96446 32.6381 2.67755Z" fill="#3C3338"/>
<path id="Vector_87" d="M56.3086 7.28208C56.3086 7.28208 55.1046 5.6938 53.0393 4.32812C52.8286 4.84051 52.5492 5.78534 53.0384 6.37559C53.6471 7.11029 55.318 7.35073 56.4216 7.43187C56.3877 7.38254 56.3508 7.3326 56.3086 7.28208Z" fill="#D39535"/>
<path id="Vector_88" d="M52.9409 4.59619C52.7619 5.12641 52.6276 5.87686 53.0404 6.37528C53.3977 6.80653 54.1208 7.06718 54.8804 7.22559C54.0893 5.4361 52.9409 4.59619 52.9409 4.59619Z" fill="#D1D3D4"/>
<g id="Vector_89" style="mix-blend-mode:multiply" opacity="0.21">
<path d="M52.9409 4.59619C52.7619 5.12641 52.6276 5.87686 53.0404 6.37528C53.3977 6.80653 54.1208 7.06718 54.8804 7.22559C54.0893 5.4361 52.9409 4.59619 52.9409 4.59619ZM53.1516 6.28315C52.8306 5.89559 52.8841 5.31989 53.0152 4.84525C53.3299 5.12284 54.0497 5.83912 54.6251 7.01963C53.9029 6.83982 53.4078 6.59284 53.1513 6.28344L53.1516 6.28315Z" fill="#414042"/>
</g>
<g id="Vector_90" style="mix-blend-mode:overlay" opacity="0.41">
<path d="M56.4211 7.43648C55.3175 7.35504 53.6466 7.1149 53.0379 6.3802C52.5621 5.80599 52.8132 4.89683 53.0213 4.37612C53.0272 4.36126 53.0329 4.3467 53.0385 4.33273C53.0394 4.33332 53.04 4.33392 53.0409 4.33421L53.0439 4.32797C52.9488 4.26496 52.8522 4.20225 52.7535 4.14014L52.7271 4.20433C52.4878 4.78567 52.1766 5.869 52.7782 6.59508C53.3114 7.23883 54.5287 7.63471 56.3961 7.77232L56.6071 7.78778C56.5673 7.67513 56.5087 7.55744 56.427 7.43618H56.4208L56.4211 7.43648Z" fill="white"/>
</g>
<g id="Group_8" style="mix-blend-mode:multiply" opacity="0.21">
<path id="Vector_91" d="M4.10059 8.25391C4.30893 8.94343 4.94674 10.1337 6.89256 10.5525C6.89256 10.5525 9.15432 11.0533 11.3192 11.053C11.4627 11.053 11.5623 10.9109 11.5156 10.7751C11.3739 10.3629 11.1804 9.49683 11.4378 8.25391H4.10059Z" fill="#414042"/>
<path id="Vector_92" d="M21.7211 11.2621H42.5652C42.6862 11.2621 42.7923 11.1812 42.8241 11.0644L43.5941 8.25342H21.187C21.2298 8.4469 21.2592 8.64752 21.2705 8.85467L21.4922 11.0549C21.5041 11.1723 21.6031 11.2618 21.7211 11.2618V11.2621Z" fill="#414042"/>
<path id="Vector_93" d="M52.6778 8.25391C52.7666 8.75559 52.7714 9.32237 52.6231 9.94056C52.5758 10.137 52.7357 10.3225 52.9367 10.3008C53.7855 10.2098 55.2558 9.91322 56.4149 8.96156C56.4149 8.96156 56.6568 8.6801 56.6782 8.25391H52.6778Z" fill="#414042"/>
</g>
<g id="Vector_94" style="mix-blend-mode:overlay" opacity="0.41">
<path d="M42.4545 4.84304C42.3404 4.69177 42.1662 4.60498 41.9766 4.60498H36.8803C36.7413 4.60498 36.6102 4.67274 36.5296 4.78628C36.4491 4.89981 36.4289 5.04604 36.475 5.17711L36.8729 6.30888C36.9502 6.52881 37.1309 6.69584 37.3562 6.75558L41.2463 7.78987C41.2972 7.80324 41.3495 7.81008 41.4015 7.81008C41.6696 7.81008 41.9082 7.62997 41.9816 7.37199L42.5526 5.36762C42.6046 5.18543 42.5686 4.99403 42.4545 4.84275V4.84304ZM42.321 5.30193L41.7501 7.30631C41.7046 7.46561 41.5596 7.56993 41.4015 7.56993C41.3706 7.56993 41.3394 7.56607 41.3082 7.55775L37.418 6.52346C37.27 6.48393 37.1508 6.37396 37.1 6.22952L36.702 5.09775C36.6586 4.97471 36.7499 4.84602 36.8803 4.84602H41.9766C42.2143 4.84602 42.3861 5.07368 42.321 5.30223V5.30193Z" fill="white"/>
</g>
<g id="Group_9">
<path id="Vector_95" d="M37.0291 6.0283L37.0998 6.22921C37.1195 6.28538 37.1498 6.33591 37.1875 6.3796L37.9585 4.8457H37.6235L37.0288 6.02859L37.0291 6.0283Z" fill="#A7A9AC"/>
<path id="Vector_96" d="M38.9341 4.8457L38.0112 6.68126L38.3067 6.75972L39.269 4.8457H38.9341Z" fill="#A7A9AC"/>
<path id="Vector_97" d="M40.2453 4.8457L39.168 6.98858L39.4634 7.06704L40.5803 4.8457H40.2453Z" fill="#A7A9AC"/>
<path id="Vector_98" d="M41.5557 4.8457L40.3237 7.29589L40.6192 7.37435L41.8906 4.8457H41.5557Z" fill="#A7A9AC"/>
</g>
<path id="Vector_99" d="M42.4834 5.77441H36.4118C36.3607 5.77441 36.3193 5.8158 36.3193 5.86685V5.8719C36.3193 5.92295 36.3607 5.96433 36.4118 5.96433H42.4834C42.5345 5.96433 42.5759 5.92295 42.5759 5.8719V5.86685C42.5759 5.8158 42.5345 5.77441 42.4834 5.77441Z" fill="#F1F2F2"/>
<g id="Group_10" style="mix-blend-mode:multiply" opacity="0.21">
<path id="Vector_100" d="M19.0384 5.32992C19.1695 5.37331 19.2907 5.42146 19.3983 5.47555L20.7524 3.06995C20.6305 3.02983 20.5066 2.98792 20.3809 2.94482L19.0381 5.32992H19.0384Z" fill="#414042"/>
<path id="Vector_101" d="M35.4383 3.54736C35.2779 3.56609 35.1153 3.58481 34.9509 3.60324L31.4168 9.31915H21.3174L21.3563 9.70433H31.6317L35.4386 3.54736H35.4383Z" fill="#414042"/>
</g>
<path id="Vector_102" d="M41.5272 9.12061H39.4473C39.0832 9.12061 38.7881 9.41574 38.7881 9.77981V9.91207C38.7881 10.2761 39.0832 10.5713 39.4473 10.5713H41.5272C41.8912 10.5713 42.1864 10.2761 42.1864 9.91207V9.77981C42.1864 9.41574 41.8912 9.12061 41.5272 9.12061Z" fill="#414042"/>
<path id="Vector_103" d="M41.5642 9.12061H39.4109C39.0671 9.12061 38.7886 9.39939 38.7886 9.74326V9.94893C38.7886 10.2928 39.0674 10.5713 39.4109 10.5713H41.5642C41.9081 10.5713 42.1866 10.2925 42.1866 9.94893V9.74326C42.1866 9.39939 41.9078 9.12061 41.5642 9.12061ZM42.0097 9.94893C42.0097 10.1944 41.81 10.3944 41.5642 10.3944H39.4109C39.1654 10.3944 38.9654 10.1947 38.9654 9.94893V9.74326C38.9654 9.49776 39.1651 9.29774 39.4109 9.29774H41.5642C41.8097 9.29774 42.0097 9.49747 42.0097 9.74326V9.94893Z" fill="#363436"/>
<path id="Vector_104" d="M40.4431 9.85185C40.4431 10.1164 40.1483 10.3307 39.7848 10.3307C39.4213 10.3307 39.1265 10.1164 39.1265 9.85185C39.1265 9.58733 39.4213 9.37305 39.7848 9.37305C40.1483 9.37305 40.4431 9.58733 40.4431 9.85185Z" fill="#363436"/>
<path id="Vector_105" d="M41.8381 9.85185C41.8381 10.1164 41.5433 10.3307 41.1798 10.3307C40.8163 10.3307 40.5215 10.1164 40.5215 9.85185C40.5215 9.58733 40.8163 9.37305 41.1798 9.37305C41.5433 9.37305 41.8381 9.58733 41.8381 9.85185Z" fill="#363436"/>
<g id="Group_11">
<path id="Vector_106" d="M39.7853 9.37305C39.4218 9.37305 39.127 9.58733 39.127 9.85185C39.127 10.1164 39.4218 10.3307 39.7853 10.3307C40.1488 10.3307 40.4436 10.1164 40.4436 9.85185C40.4436 9.58733 40.1488 9.37305 39.7853 9.37305ZM39.7853 10.1978C39.5005 10.1978 39.2598 10.0394 39.2598 9.85185C39.2598 9.66431 39.5005 9.5059 39.7853 9.5059C40.07 9.5059 40.3107 9.66431 40.3107 9.85185C40.3107 10.0394 40.0703 10.1978 39.7853 10.1978Z" fill="#A7A9AC"/>
<path id="Vector_107" d="M41.1798 9.37305C40.8163 9.37305 40.5215 9.58733 40.5215 9.85185C40.5215 10.1164 40.8163 10.3307 41.1798 10.3307C41.5433 10.3307 41.8381 10.1164 41.8381 9.85185C41.8381 9.58733 41.5433 9.37305 41.1798 9.37305ZM41.1798 10.1978C40.8951 10.1978 40.6543 10.0394 40.6543 9.85185C40.6543 9.66431 40.8951 9.5059 41.1798 9.5059C41.4645 9.5059 41.7053 9.66431 41.7053 9.85185C41.7053 10.0394 41.4645 10.1978 41.1798 10.1978Z" fill="#A7A9AC"/>
</g>
<g id="Clip path group">
<mask id="mask0_2895_3315" style="mask-type:luminance" maskUnits="userSpaceOnUse" x="27" y="0" width="6" height="4">
<g id="clippath">
<path id="Vector_108" d="M32.6381 2.67755L30.3636 0L27.2158 1.45067L27.7951 3.8004C27.7951 3.8004 31.0454 3.96446 32.6381 2.67755Z" fill="white"/>
</g>
</mask>
<g mask="url(#mask0_2895_3315)">
<g id="Group_12">
<g id="Group_13">
<g id="Vector_109" style="mix-blend-mode:overlay" opacity="0.25">
<path d="M31.2807 11.3813H29.1357L35.8509 -3.01904H37.9958L31.2807 11.3813Z" fill="white"/>
</g>
<g id="Vector_110" style="mix-blend-mode:overlay" opacity="0.25">
<path d="M25.6133 11.3813H24.2295L30.9446 -3.01904H32.3284L25.6133 11.3813Z" fill="white"/>
</g>
<g id="Vector_111" style="mix-blend-mode:overlay" opacity="0.25">
<path d="M27.0154 11.3813H26.124L32.8391 -3.01904H33.7305L27.0154 11.3813Z" fill="white"/>
</g>
</g>
</g>
</g>
</g>
</g>
</g>
</g>
</g>
<defs>
<filter id="filter0_d_2895_3315" x="0" y="0" width="60.6802" height="22" filterUnits="userSpaceOnUse" color-interpolation-filters="sRGB">
<feFlood flood-opacity="0" result="BackgroundImageFix"/>
<feColorMatrix in="SourceAlpha" type="matrix" values="0 0 0 0 0 0 0 0 0 0 0 0 0 0 0 0 0 0 127 0" result="hardAlpha"/>
<feOffset dy="4"/>
<feGaussianBlur stdDeviation="2"/>
<feComposite in2="hardAlpha" operator="out"/>
<feColorMatrix type="matrix" values="0 0 0 0 0 0 0 0 0 0 0 0 0 0 0 0 0 0 0.25 0"/>
<feBlend mode="normal" in2="BackgroundImageFix" result="effect1_dropShadow_2895_3315"/>
<feBlend mode="normal" in="SourceGraphic" in2="effect1_dropShadow_2895_3315" result="shape"/>
</filter>
</defs>
</svg>
