<svg width="45" height="18" viewBox="0 0 45 18" fill="none" xmlns="http://www.w3.org/2000/svg">
<g id="OBJECTS">
<g id="Group">
<g id="Group_2">
<path id="Vector" d="M11.3422 1.00639L11.1245 5.49428L26.9929 5.90958L26.8472 1.23246C26.8472 1.23246 14.4904 -0.103863 11.3422 1.00639Z" fill="#30AAC6"/>
<path id="Vector_2" d="M19.0063 4.72911L26.6693 1.44189L26.9925 1.89738L19.0063 5.481V4.72911Z" fill="#60D5E8"/>
<path id="Vector_3" d="M10.6104 4.35704L18.2733 1.06982L18.5965 1.52531L10.6104 5.1106V4.35704Z" fill="#60D5E8"/>
<path id="Vector_4" d="M20.9341 3.46136L23.9969 2.23389C23.9969 2.23389 21.6542 2.92717 20.9341 3.46136Z" fill="#60D5E8"/>
<path id="Vector_5" d="M12.5679 3.14642L15.6307 1.91895C15.6307 1.91895 13.2879 2.61222 12.5679 3.14642Z" fill="#60D5E8"/>
<path id="Vector_6" d="M13.7114 4.07562L16.7742 2.84814C16.7742 2.84814 14.4315 3.54142 13.7114 4.07562Z" fill="#60D5E8"/>
<path id="Vector_7" d="M21.9976 4.54632L25.0604 3.31885C25.0604 3.31885 22.7176 4.01213 21.9976 4.54632Z" fill="#60D5E8"/>
<path id="Vector_8" d="M27.284 14.3895L10.9015 13.8586C10.9015 13.8586 11.4658 8.77122 7.91571 7.92555C4.36558 7.07821 1.80347 9.68722 1.19727 11.4455L1.45348 12.5005C1.45348 12.5005 3.2905 13.2842 5.84424 13.7464C7.45017 14.0378 10.1027 13.9557 10.3656 14.2421L27.5938 14.6373L28.6605 14.3911C27.8215 14.4045 27.2857 14.3878 27.2857 14.3878L27.284 14.3895Z" fill="#1E1E1E"/>
<path id="Vector_9" d="M42.0537 8.67404L37.8371 9.40583L34.853 11.6615L31.5591 13.7229L28.6587 14.3911C31.2895 14.3509 38.4182 15.5114 39.9571 13.5538C41.9867 10.9716 44.8218 9.99696 44.8218 9.99696C44.3378 9.38574 42.0537 8.67236 42.0537 8.67236V8.67404Z" fill="#1E1E1E"/>
<g id="Group_3">
<path id="Vector_10" d="M39.8937 13.589L39.1284 10.3604L41.1078 10.4792L39.8937 13.589Z" stroke="#828282" stroke-width="0.47" stroke-miterlimit="10"/>
<path id="Vector_11" d="M39.8936 13.5889L40.2117 10.2866L42.0471 11.0385L39.8936 13.5889Z" stroke="#828282" stroke-width="0.47" stroke-miterlimit="10"/>
<path id="Vector_12" d="M39.8936 13.589L41.2617 10.5664L42.7554 11.8726L39.8936 13.589Z" stroke="#828282" stroke-width="0.47" stroke-miterlimit="10"/>
<path id="Vector_13" d="M39.8936 13.589L42.1643 11.1709L43.1573 12.889L39.8936 13.589Z" stroke="#828282" stroke-width="0.47" stroke-miterlimit="10"/>
<path id="Vector_14" d="M39.8936 13.5892L42.8241 12.0352L43.2076 13.981L39.8936 13.5892Z" stroke="#828282" stroke-width="0.47" stroke-miterlimit="10"/>
<path id="Vector_15" d="M39.8936 13.5891L43.169 13.0649L42.9028 15.0309L39.8936 13.5891Z" stroke="#828282" stroke-width="0.47" stroke-miterlimit="10"/>
<path id="Vector_16" d="M39.8936 13.5894L43.1623 14.152L42.2765 15.9271L39.8936 13.5894Z" stroke="#828282" stroke-width="0.47" stroke-miterlimit="10"/>
<path id="Vector_17" d="M39.8936 13.5894L42.8057 15.1785L41.3923 16.5718L39.8936 13.5894Z" stroke="#828282" stroke-width="0.47" stroke-miterlimit="10"/>
<path id="Vector_18" d="M39.8936 13.5894L42.1358 16.0343L40.349 16.895L39.8936 13.5894Z" stroke="#828282" stroke-width="0.47" stroke-miterlimit="10"/>
<path id="Vector_19" d="M39.8939 13.5894L41.2252 16.6271L39.2559 16.8648L39.8939 13.5894Z" stroke="#828282" stroke-width="0.47" stroke-miterlimit="10"/>
<path id="Vector_20" d="M39.8938 13.5894L40.1718 16.895L38.231 16.483L39.8938 13.5894Z" stroke="#828282" stroke-width="0.47" stroke-miterlimit="10"/>
<path id="Vector_21" d="M39.8938 13.5894L39.0883 16.8079L37.3853 15.7914L39.8938 13.5894Z" stroke="#828282" stroke-width="0.47" stroke-miterlimit="10"/>
<path id="Vector_22" d="M39.8939 13.5894L38.092 16.3742L36.8076 14.862L39.8939 13.5894Z" stroke="#828282" stroke-width="0.47" stroke-miterlimit="10"/>
<path id="Vector_23" d="M39.8935 13.5894L37.2878 15.6441L36.561 13.797L39.8935 13.5894Z" stroke="#828282" stroke-width="0.47" stroke-miterlimit="10"/>
<path id="Vector_24" d="M39.8936 13.5891L36.7638 14.691L36.6733 12.71L39.8936 13.5891Z" stroke="#828282" stroke-width="0.47" stroke-miterlimit="10"/>
<path id="Vector_25" d="M39.8935 13.589L36.5762 13.6208L37.1305 11.7168L39.8935 13.589Z" stroke="#828282" stroke-width="0.47" stroke-miterlimit="10"/>
<path id="Vector_26" d="M39.8936 13.5893L36.7437 12.5477L37.884 10.9233L39.8936 13.5893Z" stroke="#828282" stroke-width="0.47" stroke-miterlimit="10"/>
<path id="Vector_27" d="M39.8937 13.5891L37.2495 11.5863L38.8521 10.4175L39.8937 13.5891Z" stroke="#828282" stroke-width="0.47" stroke-miterlimit="10"/>
<path id="Vector_28" d="M39.8935 13.5889L38.0381 10.8376L39.9337 10.2515L39.8935 13.5889Z" stroke="#828282" stroke-width="0.47" stroke-miterlimit="10"/>
<path id="Vector_29" d="M39.8938 13.589L39.0264 10.3872L41.0091 10.4425L39.8938 13.589Z" stroke="#828282" stroke-width="0.47" stroke-miterlimit="10"/>
<path id="Vector_30" d="M39.8936 13.589L40.1079 10.2783L41.9667 10.9716L39.8936 13.589Z" stroke="#828282" stroke-width="0.47" stroke-miterlimit="10"/>
<path id="Vector_31" d="M39.8939 9.3374C37.5461 9.3374 35.6421 11.2414 35.6421 13.5892C35.6421 15.9369 37.5461 17.841 39.8939 17.841C42.2416 17.841 44.1456 15.9369 44.1456 13.5892C44.1456 11.2414 42.2416 9.3374 39.8939 9.3374ZM39.8939 16.2216C38.4387 16.2216 37.2597 15.0427 37.2597 13.5875C37.2597 12.1323 38.4387 10.9534 39.8939 10.9534C41.3491 10.9534 42.528 12.1323 42.528 13.5875C42.528 15.0427 41.3491 16.2216 39.8939 16.2216Z" fill="#303030"/>
<path id="Vector_32" d="M39.8938 14.2891C40.2804 14.2891 40.5938 13.9757 40.5938 13.5891C40.5938 13.2026 40.2804 12.8892 39.8938 12.8892C39.5072 12.8892 39.1938 13.2026 39.1938 13.5891C39.1938 13.9757 39.5072 14.2891 39.8938 14.2891Z" fill="#303030"/>
<path id="Vector_33" d="M39.8935 14.0298C40.1368 14.0298 40.334 13.8326 40.334 13.5893C40.334 13.3461 40.1368 13.1489 39.8935 13.1489C39.6503 13.1489 39.4531 13.3461 39.4531 13.5893C39.4531 13.8326 39.6503 14.0298 39.8935 14.0298Z" fill="#636363"/>
<path id="Vector_34" d="M40.1482 13.589C40.1482 13.7297 40.0344 13.8435 39.8937 13.8435C39.753 13.8435 39.6392 13.7297 39.6392 13.589C39.6392 13.4483 39.753 13.3345 39.8937 13.3345C40.0344 13.3345 40.1482 13.4483 40.1482 13.589Z" fill="#D1D1D1"/>
<path id="Vector_35" d="M40.0577 9.33887H39.979V9.70058H40.0577V9.33887Z" fill="#1E1E1E"/>
<path id="Vector_36" d="M40.2032 9.34973L40.1841 9.71094L40.2627 9.7151L40.2818 9.35389L40.2032 9.34973Z" fill="#1E1E1E"/>
<path id="Vector_37" d="M40.4288 9.37322L40.3906 9.73291L40.4689 9.74122L40.5071 9.38153L40.4288 9.37322Z" fill="#1E1E1E"/>
<path id="Vector_38" d="M40.6459 9.40453L40.5889 9.76172L40.6666 9.77413L40.7236 9.41694L40.6459 9.40453Z" fill="#1E1E1E"/>
<path id="Vector_39" d="M40.8698 9.45249L40.7939 9.80615L40.8709 9.82266L40.9468 9.469L40.8698 9.45249Z" fill="#1E1E1E"/>
<path id="Vector_40" d="M41.0867 9.5112L40.9922 9.86035L41.0682 9.88091L41.1626 9.53175L41.0867 9.5112Z" fill="#1E1E1E"/>
<path id="Vector_41" d="M41.3012 9.57965L41.1885 9.92334L41.2633 9.94787L41.376 9.60418L41.3012 9.57965Z" fill="#1E1E1E"/>
<path id="Vector_42" d="M41.5092 9.65835L41.3784 9.99561L41.4518 10.0241L41.5825 9.6868L41.5092 9.65835Z" fill="#1E1E1E"/>
<path id="Vector_43" d="M41.7113 9.74627L41.563 10.0762L41.6348 10.1084L41.7831 9.77855L41.7113 9.74627Z" fill="#1E1E1E"/>
<path id="Vector_44" d="M41.9121 9.84833L41.7466 10.1699L41.8166 10.2059L41.9821 9.88435L41.9121 9.84833Z" fill="#1E1E1E"/>
<path id="Vector_45" d="M42.1066 9.9586L41.9243 10.271L41.9923 10.3107L42.1746 9.99827L42.1066 9.9586Z" fill="#1E1E1E"/>
<path id="Vector_46" d="M42.2958 10.081L42.0972 10.3833L42.163 10.4265L42.3615 10.1242L42.2958 10.081Z" fill="#1E1E1E"/>
<path id="Vector_47" d="M42.4824 10.2184L42.2681 10.5098L42.3315 10.5564L42.5458 10.265L42.4824 10.2184Z" fill="#1E1E1E"/>
<path id="Vector_48" d="M42.6561 10.359L42.4268 10.6387L42.4876 10.6886L42.717 10.4089L42.6561 10.359Z" fill="#1E1E1E"/>
<path id="Vector_49" d="M42.8194 10.5067L42.5757 10.7739L42.6338 10.827L42.8776 10.5597L42.8194 10.5067Z" fill="#1E1E1E"/>
<path id="Vector_50" d="M42.9778 10.663L42.7202 10.917L42.7755 10.973L43.033 10.7191L42.9778 10.663Z" fill="#1E1E1E"/>
<path id="Vector_51" d="M43.1305 10.8347L42.8599 11.0747L42.9121 11.1336L43.1827 10.8936L43.1305 10.8347Z" fill="#1E1E1E"/>
<path id="Vector_52" d="M43.2717 11.0085L42.9888 11.2339L43.0378 11.2954L43.3207 11.07L43.2717 11.0085Z" fill="#1E1E1E"/>
<path id="Vector_53" d="M43.4013 11.1878L43.1069 11.3979L43.1527 11.462L43.4471 11.2519L43.4013 11.1878Z" fill="#1E1E1E"/>
<path id="Vector_54" d="M43.5234 11.3775L43.2183 11.5718L43.2605 11.6382L43.5656 11.4439L43.5234 11.3775Z" fill="#1E1E1E"/>
<path id="Vector_55" d="M43.6362 11.576L43.3213 11.7539L43.36 11.8224L43.6749 11.6445L43.6362 11.576Z" fill="#1E1E1E"/>
<path id="Vector_56" d="M43.7375 11.7735L43.4136 11.9346L43.4486 12.005L43.7725 11.844L43.7375 11.7735Z" fill="#1E1E1E"/>
<path id="Vector_57" d="M43.8261 11.9754L43.4941 12.1191L43.5254 12.1914L43.8573 12.0477L43.8261 11.9754Z" fill="#1E1E1E"/>
<path id="Vector_58" d="M43.9059 12.1884L43.5669 12.3145L43.5943 12.3882L43.9334 12.2622L43.9059 12.1884Z" fill="#1E1E1E"/>
<path id="Vector_59" d="M43.9751 12.4053L43.6299 12.5132L43.6534 12.5883L43.9986 12.4804L43.9751 12.4053Z" fill="#1E1E1E"/>
<path id="Vector_60" d="M44.0321 12.6224L43.6816 12.7119L43.7011 12.7882L44.0516 12.6986L44.0321 12.6224Z" fill="#1E1E1E"/>
<path id="Vector_61" d="M44.0769 12.8407L43.7222 12.9116L43.7376 12.9888L44.0923 12.9179L44.0769 12.8407Z" fill="#1E1E1E"/>
<path id="Vector_62" d="M44.1114 13.0607L43.7534 13.1128L43.7648 13.1907L44.1227 13.1386L44.1114 13.0607Z" fill="#1E1E1E"/>
<path id="Vector_63" d="M44.1322 13.2877L43.772 13.3208L43.7792 13.3992L44.1394 13.3661L44.1322 13.2877Z" fill="#1E1E1E"/>
<path id="Vector_64" d="M44.1437 13.5074L43.7822 13.5215L43.7853 13.6001L44.1467 13.5861L44.1437 13.5074Z" fill="#1E1E1E"/>
<path id="Vector_65" d="M43.7789 13.7294L43.7778 13.8081L44.1395 13.8132L44.1406 13.7345L43.7789 13.7294Z" fill="#1E1E1E"/>
<path id="Vector_66" d="M43.7655 13.9347L43.7603 14.0132L44.1212 14.0373L44.1264 13.9588L43.7655 13.9347Z" fill="#1E1E1E"/>
<path id="Vector_67" d="M43.7452 14.1396L43.7358 14.2178L44.095 14.2609L44.1044 14.1828L43.7452 14.1396Z" fill="#1E1E1E"/>
<path id="Vector_68" d="M43.7069 14.339L43.6934 14.4165L44.0497 14.4786L44.0632 14.401L43.7069 14.339Z" fill="#1E1E1E"/>
<path id="Vector_69" d="M43.6636 14.5395L43.646 14.6162L43.9986 14.697L44.0161 14.6203L43.6636 14.5395Z" fill="#1E1E1E"/>
<path id="Vector_70" d="M43.6105 14.7393L43.5889 14.8149L43.9367 14.9143L43.9583 14.8386L43.6105 14.7393Z" fill="#1E1E1E"/>
<path id="Vector_71" d="M43.5402 14.9304L43.5146 15.0049L43.8567 15.1224L43.8823 15.048L43.5402 14.9304Z" fill="#1E1E1E"/>
<path id="Vector_72" d="M43.4679 15.1258L43.4385 15.1987L43.7739 15.3342L43.8033 15.2612L43.4679 15.1258Z" fill="#1E1E1E"/>
<path id="Vector_73" d="M43.3809 15.3115L43.3477 15.3828L43.6755 15.5357L43.7087 15.4644L43.3809 15.3115Z" fill="#1E1E1E"/>
<path id="Vector_74" d="M43.2831 15.4891L43.2461 15.5586L43.5653 15.7286L43.6023 15.6592L43.2831 15.4891Z" fill="#1E1E1E"/>
<path id="Vector_75" d="M43.1827 15.6714L43.1421 15.7388L43.4519 15.9255L43.4925 15.8581L43.1827 15.6714Z" fill="#1E1E1E"/>
<path id="Vector_76" d="M43.0651 15.8401L43.021 15.9053L43.3205 16.1081L43.3646 16.0429L43.0651 15.8401Z" fill="#1E1E1E"/>
<path id="Vector_77" d="M42.9411 16.0027L42.8936 16.0654L43.182 16.2837L43.2295 16.221L42.9411 16.0027Z" fill="#1E1E1E"/>
<path id="Vector_78" d="M42.8066 16.1571L42.7559 16.2173L43.0324 16.4505L43.0831 16.3903L42.8066 16.1571Z" fill="#1E1E1E"/>
<path id="Vector_79" d="M42.672 16.3137L42.6182 16.3711L42.882 16.6186L42.9358 16.5612L42.672 16.3137Z" fill="#1E1E1E"/>
<path id="Vector_80" d="M42.5231 16.4553L42.4663 16.5098L42.7166 16.7709L42.7734 16.7164L42.5231 16.4553Z" fill="#1E1E1E"/>
<path id="Vector_81" d="M42.3687 16.5931L42.3091 16.6445L42.5452 16.9185L42.6049 16.8671L42.3687 16.5931Z" fill="#1E1E1E"/>
<path id="Vector_82" d="M42.2068 16.7175L42.1445 16.7656L42.3659 17.0517L42.4282 17.0035L42.2068 16.7175Z" fill="#1E1E1E"/>
<path id="Vector_83" d="M42.0378 16.8307L41.9731 16.8755L42.1792 17.1728L42.2439 17.128L42.0378 16.8307Z" fill="#1E1E1E"/>
<path id="Vector_84" d="M41.8624 16.9425L41.7954 16.9839L41.9855 17.2916L42.0524 17.2503L41.8624 16.9425Z" fill="#1E1E1E"/>
<path id="Vector_85" d="M41.6833 17.0438L41.6143 17.0815L41.7877 17.3989L41.8568 17.3612L41.6833 17.0438Z" fill="#1E1E1E"/>
<path id="Vector_86" d="M41.4992 17.1315L41.4282 17.1655L41.5847 17.4916L41.6557 17.4576L41.4992 17.1315Z" fill="#1E1E1E"/>
<path id="Vector_87" d="M41.309 17.2119L41.2363 17.2422L41.3754 17.5761L41.448 17.5458L41.309 17.2119Z" fill="#1E1E1E"/>
<path id="Vector_88" d="M41.1147 17.2798L41.0405 17.3062L41.1618 17.6469L41.236 17.6205L41.1147 17.2798Z" fill="#1E1E1E"/>
<path id="Vector_89" d="M40.9187 17.3384L40.8433 17.3608L40.9464 17.7075L41.0218 17.6851L40.9187 17.3384Z" fill="#1E1E1E"/>
<path id="Vector_90" d="M40.7186 17.3937L40.6421 17.4121L40.7267 17.7638L40.8032 17.7454L40.7186 17.3937Z" fill="#1E1E1E"/>
<path id="Vector_91" d="M40.5173 17.4275L40.4399 17.4419L40.5059 17.7975L40.5833 17.7832L40.5173 17.4275Z" fill="#1E1E1E"/>
<path id="Vector_92" d="M40.3144 17.458L40.2363 17.4683L40.2834 17.8269L40.3615 17.8166L40.3144 17.458Z" fill="#1E1E1E"/>
<path id="Vector_93" d="M40.1102 17.4714L40.0317 17.4775L40.0598 17.8382L40.1383 17.8321L40.1102 17.4714Z" fill="#1E1E1E"/>
<path id="Vector_94" d="M39.9044 17.4761L39.8257 17.478L39.8346 17.8396L39.9133 17.8377L39.9044 17.4761Z" fill="#1E1E1E"/>
<path id="Vector_95" d="M39.6209 17.4709L39.6108 17.8325L39.6895 17.8347L39.6996 17.4731L39.6209 17.4709Z" fill="#1E1E1E"/>
<path id="Vector_96" d="M39.4159 17.4495L39.3867 17.8101L39.4652 17.8164L39.4943 17.4559L39.4159 17.4495Z" fill="#1E1E1E"/>
<path id="Vector_97" d="M39.2098 17.4169L39.1616 17.7754L39.2396 17.7859L39.2878 17.4274L39.2098 17.4169Z" fill="#1E1E1E"/>
<path id="Vector_98" d="M39.0089 17.3784L38.9419 17.7339L39.0192 17.7485L39.0863 17.393L39.0089 17.3784Z" fill="#1E1E1E"/>
<path id="Vector_99" d="M38.8133 17.3273L38.7275 17.6787L38.804 17.6974L38.8897 17.346L38.8133 17.3273Z" fill="#1E1E1E"/>
<path id="Vector_100" d="M38.6139 17.263L38.5098 17.6094L38.5851 17.632L38.6893 17.2856L38.6139 17.263Z" fill="#1E1E1E"/>
<path id="Vector_101" d="M38.4246 17.1923L38.3022 17.5327L38.3763 17.5593L38.4987 17.2189L38.4246 17.1923Z" fill="#1E1E1E"/>
<path id="Vector_102" d="M38.2378 17.1109L38.0977 17.4443L38.1702 17.4748L38.3103 17.1414L38.2378 17.1109Z" fill="#1E1E1E"/>
<path id="Vector_103" d="M38.0535 17.0177L37.896 17.3433L37.9668 17.3775L38.1244 17.0519L38.0535 17.0177Z" fill="#1E1E1E"/>
<path id="Vector_104" d="M37.8752 16.9151L37.7007 17.2319L37.7696 17.2699L37.9441 16.9531L37.8752 16.9151Z" fill="#1E1E1E"/>
<path id="Vector_105" d="M37.7023 16.8061L37.5112 17.1133L37.5781 17.1548L37.7691 16.8477L37.7023 16.8061Z" fill="#1E1E1E"/>
<path id="Vector_106" d="M37.5336 16.6808L37.3267 16.9775L37.3912 17.0226L37.5981 16.7259L37.5336 16.6808Z" fill="#1E1E1E"/>
<path id="Vector_107" d="M37.3732 16.5531L37.1509 16.8384L37.213 16.8868L37.4353 16.6015L37.3732 16.5531Z" fill="#1E1E1E"/>
<path id="Vector_108" d="M37.2185 16.4143L36.9814 16.6875L37.0409 16.7391L37.278 16.4659L37.2185 16.4143Z" fill="#1E1E1E"/>
<path id="Vector_109" d="M37.0754 16.2724L36.8242 16.5327L36.8809 16.5874L37.132 16.3271L37.0754 16.2724Z" fill="#1E1E1E"/>
<path id="Vector_110" d="M36.9369 16.1171L36.6724 16.3638L36.726 16.4213L36.9906 16.1746L36.9369 16.1171Z" fill="#1E1E1E"/>
<path id="Vector_111" d="M36.8075 15.9576L36.5303 16.1899L36.5808 16.2503L36.858 16.0179L36.8075 15.9576Z" fill="#1E1E1E"/>
<path id="Vector_112" d="M36.686 15.7923L36.397 16.0098L36.4443 16.0727L36.7333 15.8552L36.686 15.7923Z" fill="#1E1E1E"/>
<path id="Vector_113" d="M36.5741 15.6185L36.2739 15.8203L36.3178 15.8856L36.618 15.6838L36.5741 15.6185Z" fill="#1E1E1E"/>
<path id="Vector_114" d="M36.473 15.4452L36.1626 15.6309L36.203 15.6984L36.5134 15.5127L36.473 15.4452Z" fill="#1E1E1E"/>
<path id="Vector_115" d="M36.3783 15.2572L36.0586 15.4263L36.0954 15.4958L36.4151 15.3268L36.3783 15.2572Z" fill="#1E1E1E"/>
<path id="Vector_116" d="M36.297 15.0702L35.9688 15.2222L36.0018 15.2936L36.3301 15.1416L36.297 15.0702Z" fill="#1E1E1E"/>
<path id="Vector_117" d="M36.2235 14.8788L35.8877 15.0132L35.9169 15.0863L36.2528 14.9519L36.2235 14.8788Z" fill="#1E1E1E"/>
<path id="Vector_118" d="M36.1613 14.6813L35.8188 14.7979L35.8442 14.8724L36.1866 14.7558L36.1613 14.6813Z" fill="#1E1E1E"/>
<path id="Vector_119" d="M36.1064 14.4892L35.7583 14.5874L35.7797 14.6631L36.1278 14.5649L36.1064 14.4892Z" fill="#1E1E1E"/>
<path id="Vector_120" d="M36.0662 14.2826L35.7134 14.3623L35.7307 14.4391L36.0835 14.3594L36.0662 14.2826Z" fill="#1E1E1E"/>
<path id="Vector_121" d="M36.0338 14.0816L35.6772 14.1426L35.6905 14.2202L36.0471 14.1591L36.0338 14.0816Z" fill="#1E1E1E"/>
<path id="Vector_122" d="M36.0126 13.8764L35.6533 13.9185L35.6625 13.9966L36.0217 13.9546L36.0126 13.8764Z" fill="#1E1E1E"/>
<path id="Vector_123" d="M36.0045 13.6723L35.6436 13.6953L35.6486 13.7739L36.0095 13.7508L36.0045 13.6723Z" fill="#1E1E1E"/>
<path id="Vector_124" d="M36.0057 13.4672L35.644 13.4712L35.6449 13.5499L36.0066 13.5459L36.0057 13.4672Z" fill="#1E1E1E"/>
<path id="Vector_125" d="M35.6556 13.247L35.6523 13.3257L36.0137 13.3408L36.017 13.2622L35.6556 13.247Z" fill="#1E1E1E"/>
<path id="Vector_126" d="M35.6764 13.0232L35.6689 13.1016L36.029 13.1358L36.0365 13.0574L35.6764 13.0232Z" fill="#1E1E1E"/>
<path id="Vector_127" d="M35.7142 12.8025L35.7026 12.8804L36.0604 12.9335L36.072 12.8557L35.7142 12.8025Z" fill="#1E1E1E"/>
<path id="Vector_128" d="M35.7618 12.5835L35.7461 12.6606L36.1006 12.7327L36.1162 12.6556L35.7618 12.5835Z" fill="#1E1E1E"/>
<path id="Vector_129" d="M35.82 12.3662L35.8003 12.4424L36.1505 12.533L36.1702 12.4568L35.82 12.3662Z" fill="#1E1E1E"/>
<path id="Vector_130" d="M35.888 12.15L35.8643 12.2251L36.2092 12.334L36.2329 12.259L35.888 12.15Z" fill="#1E1E1E"/>
<path id="Vector_131" d="M35.9739 11.9454L35.9463 12.019L36.285 12.1461L36.3126 12.0724L35.9739 11.9454Z" fill="#1E1E1E"/>
<path id="Vector_132" d="M36.0662 11.7394L36.0347 11.8115L36.3662 11.9563L36.3976 11.8841L36.0662 11.7394Z" fill="#1E1E1E"/>
<path id="Vector_133" d="M36.1661 11.5385L36.1309 11.6089L36.4543 11.7709L36.4895 11.7005L36.1661 11.5385Z" fill="#1E1E1E"/>
<path id="Vector_134" d="M36.2796 11.3442L36.2407 11.4126L36.5551 11.5915L36.594 11.5231L36.2796 11.3442Z" fill="#1E1E1E"/>
<path id="Vector_135" d="M36.4072 11.1593L36.3647 11.2256L36.6692 11.4209L36.7117 11.3546L36.4072 11.1593Z" fill="#1E1E1E"/>
<path id="Vector_136" d="M36.5371 10.9751L36.4912 11.0391L36.785 11.2501L36.8309 11.1862L36.5371 10.9751Z" fill="#1E1E1E"/>
<path id="Vector_137" d="M36.6806 10.8043L36.6313 10.8657L36.9136 11.092L36.9628 11.0306L36.6806 10.8043Z" fill="#1E1E1E"/>
<path id="Vector_138" d="M36.8312 10.6361L36.7788 10.6948L37.0487 10.9357L37.1011 10.877L36.8312 10.6361Z" fill="#1E1E1E"/>
<path id="Vector_139" d="M36.9939 10.4812L36.9385 10.5371L37.1952 10.7919L37.2507 10.736L36.9939 10.4812Z" fill="#1E1E1E"/>
<path id="Vector_140" d="M37.1589 10.3299L37.1006 10.3828L37.3436 10.6508L37.4019 10.5979L37.1589 10.3299Z" fill="#1E1E1E"/>
<path id="Vector_141" d="M37.3349 10.1876L37.2739 10.2373L37.5024 10.5177L37.5634 10.468L37.3349 10.1876Z" fill="#1E1E1E"/>
<path id="Vector_142" d="M37.5186 10.0634L37.4551 10.1099L37.6684 10.402L37.732 10.3556L37.5186 10.0634Z" fill="#1E1E1E"/>
<path id="Vector_143" d="M37.7085 9.94187L37.6426 9.98486L37.8402 10.2878L37.9061 10.2448L37.7085 9.94187Z" fill="#1E1E1E"/>
<path id="Vector_144" d="M37.9045 9.8336L37.8364 9.87305L38.0177 10.186L38.0858 10.1466L37.9045 9.8336Z" fill="#1E1E1E"/>
<path id="Vector_145" d="M38.1062 9.73323L38.0361 9.76904L38.2007 10.0911L38.2708 10.0553L38.1062 9.73323Z" fill="#1E1E1E"/>
<path id="Vector_146" d="M38.3111 9.64227L38.2393 9.67432L38.3866 10.0047L38.4584 9.97263L38.3111 9.64227Z" fill="#1E1E1E"/>
<path id="Vector_147" d="M38.5237 9.56309L38.4502 9.59131L38.5799 9.92897L38.6534 9.90075L38.5237 9.56309Z" fill="#1E1E1E"/>
<path id="Vector_148" d="M38.7379 9.49572L38.6631 9.52002L38.7747 9.86407L38.8496 9.83977L38.7379 9.49572Z" fill="#1E1E1E"/>
<path id="Vector_149" d="M38.9554 9.4416L38.8794 9.46191L38.9728 9.81137L39.0488 9.79105L38.9554 9.4416Z" fill="#1E1E1E"/>
<path id="Vector_150" d="M39.1752 9.39926L39.0981 9.41553L39.1729 9.76943L39.2499 9.75316L39.1752 9.39926Z" fill="#1E1E1E"/>
<path id="Vector_151" d="M39.3981 9.36771L39.3203 9.37988L39.3763 9.73724L39.454 9.72506L39.3981 9.36771Z" fill="#1E1E1E"/>
<path id="Vector_152" d="M39.6203 9.34888L39.542 9.35693L39.579 9.71675L39.6573 9.7087L39.6203 9.34888Z" fill="#1E1E1E"/>
<path id="Vector_153" d="M39.8467 9.33544L39.7681 9.33936L39.7861 9.70062L39.8647 9.69671L39.8467 9.33544Z" fill="#1E1E1E"/>
<path id="Vector_154" d="M39.9206 10.4258C38.174 10.4258 36.7573 11.8425 36.7573 13.5891C36.7573 15.3357 38.174 16.7524 39.9206 16.7524C41.6672 16.7524 43.0839 15.3357 43.0839 13.5891C43.0839 11.8425 41.6672 10.4258 39.9206 10.4258ZM39.8922 16.2232C38.4369 16.2232 37.258 15.0443 37.258 13.5891C37.258 12.1339 38.4369 10.955 39.8922 10.955C41.3474 10.955 42.5263 12.1339 42.5263 13.5891C42.5263 15.0443 41.3474 16.2232 39.8922 16.2232Z" fill="#3F3F3F"/>
</g>
<g id="Group_4">
<path id="Vector_155" d="M5.84243 13.7465L5.07715 10.5195L7.05651 10.6384L5.84243 13.7465Z" stroke="#828282" stroke-width="0.47" stroke-miterlimit="10"/>
<path id="Vector_156" d="M5.84277 13.7466L6.16095 10.4443L7.99629 11.1979L5.84277 13.7466Z" stroke="#828282" stroke-width="0.47" stroke-miterlimit="10"/>
<path id="Vector_157" d="M5.84277 13.7465L7.21091 10.7256L8.70464 12.0301L5.84277 13.7465Z" stroke="#828282" stroke-width="0.47" stroke-miterlimit="10"/>
<path id="Vector_158" d="M5.84277 13.7467L8.11351 11.3286L9.10654 13.0467L5.84277 13.7467Z" stroke="#828282" stroke-width="0.47" stroke-miterlimit="10"/>
<path id="Vector_159" d="M5.84277 13.7464L8.7733 12.1924L9.15678 14.1383L5.84277 13.7464Z" stroke="#828282" stroke-width="0.47" stroke-miterlimit="10"/>
<path id="Vector_160" d="M5.84277 13.7466L9.11827 13.2241L8.85368 15.1901L5.84277 13.7466Z" stroke="#828282" stroke-width="0.47" stroke-miterlimit="10"/>
<path id="Vector_161" d="M5.84277 13.7466L9.11157 14.3092L8.22571 16.0843L5.84277 13.7466Z" stroke="#828282" stroke-width="0.47" stroke-miterlimit="10"/>
<path id="Vector_162" d="M5.84277 13.7466L8.75488 15.3358L7.34153 16.729L5.84277 13.7466Z" stroke="#828282" stroke-width="0.47" stroke-miterlimit="10"/>
<path id="Vector_163" d="M5.84277 13.7466L8.08505 16.1915L6.29826 17.0539L5.84277 13.7466Z" stroke="#828282" stroke-width="0.47" stroke-miterlimit="10"/>
<path id="Vector_164" d="M5.84261 13.7466L7.1739 16.786L5.20459 17.0237L5.84261 13.7466Z" stroke="#828282" stroke-width="0.47" stroke-miterlimit="10"/>
<path id="Vector_165" d="M5.84255 13.7466L6.12053 17.0522L4.17969 16.6419L5.84255 13.7466Z" stroke="#828282" stroke-width="0.47" stroke-miterlimit="10"/>
<path id="Vector_166" d="M5.84252 13.7466L5.03871 16.9651L3.33398 15.9487L5.84252 13.7466Z" stroke="#828282" stroke-width="0.47" stroke-miterlimit="10"/>
<path id="Vector_167" d="M5.84289 13.7466L4.04103 16.5331L2.7583 15.0209L5.84289 13.7466Z" stroke="#828282" stroke-width="0.47" stroke-miterlimit="10"/>
<path id="Vector_168" d="M5.84247 13.7466L3.23681 15.8013L2.51172 13.9559L5.84247 13.7466Z" stroke="#828282" stroke-width="0.47" stroke-miterlimit="10"/>
<path id="Vector_169" d="M5.84279 13.7463L2.71299 14.8499L2.62256 12.8672L5.84279 13.7463Z" stroke="#828282" stroke-width="0.47" stroke-miterlimit="10"/>
<path id="Vector_170" d="M5.84275 13.7467L2.52539 13.7802L3.07968 11.8745L5.84275 13.7467Z" stroke="#828282" stroke-width="0.47" stroke-miterlimit="10"/>
<path id="Vector_171" d="M5.84277 13.7468L2.69287 12.7052L3.83326 11.0825L5.84277 13.7468Z" stroke="#828282" stroke-width="0.47" stroke-miterlimit="10"/>
<path id="Vector_172" d="M5.84241 13.7464L3.19824 11.7436L4.80082 10.5747L5.84241 13.7464Z" stroke="#828282" stroke-width="0.47" stroke-miterlimit="10"/>
<path id="Vector_173" d="M5.84275 13.7466L3.9873 10.997L5.88294 10.4092L5.84275 13.7466Z" stroke="#828282" stroke-width="0.47" stroke-miterlimit="10"/>
<path id="Vector_174" d="M5.84253 13.7467L4.9751 10.5449L6.95781 10.6019L5.84253 13.7467Z" stroke="#828282" stroke-width="0.47" stroke-miterlimit="10"/>
<path id="Vector_175" d="M5.84277 13.7467L6.05712 10.436L7.91591 11.131L5.84277 13.7467Z" stroke="#828282" stroke-width="0.47" stroke-miterlimit="10"/>
<path id="Vector_176" d="M5.8426 9.49658C3.49483 9.49658 1.59082 11.4006 1.59082 13.7484C1.59082 16.0961 3.49483 18.0001 5.8426 18.0001C8.19037 18.0001 10.0944 16.0961 10.0944 13.7484C10.0944 11.4006 8.19037 9.49658 5.8426 9.49658ZM5.8426 16.3808C4.38738 16.3808 3.20847 15.2019 3.20847 13.7467C3.20847 12.2915 4.38738 11.1126 5.8426 11.1126C7.29781 11.1126 8.47672 12.2915 8.47672 13.7467C8.47672 15.2019 7.29781 16.3808 5.8426 16.3808Z" fill="#303030"/>
<path id="Vector_177" d="M6.54253 13.7464C6.54253 14.1332 6.22939 14.4463 5.84256 14.4463C5.45573 14.4463 5.14258 14.1332 5.14258 13.7464C5.14258 13.3595 5.45573 13.0464 5.84256 13.0464C6.22939 13.0464 6.54253 13.3595 6.54253 13.7464Z" fill="#303030"/>
<path id="Vector_178" d="M5.84276 14.187C6.086 14.187 6.28318 13.9898 6.28318 13.7466C6.28318 13.5033 6.086 13.3062 5.84276 13.3062C5.59953 13.3062 5.40234 13.5033 5.40234 13.7466C5.40234 13.9898 5.59953 14.187 5.84276 14.187Z" fill="#636363"/>
<path id="Vector_179" d="M6.09697 13.7467C6.09697 13.8874 5.98309 14.0013 5.84243 14.0013C5.70176 14.0013 5.58789 13.8874 5.58789 13.7467C5.58789 13.6061 5.70176 13.4922 5.84243 13.4922C5.98309 13.4922 6.09697 13.6061 6.09697 13.7467Z" fill="#D1D1D1"/>
<path id="Vector_180" d="M6.00693 9.49805H5.92822V9.85976H6.00693V9.49805Z" fill="#1E1E1E"/>
<path id="Vector_181" d="M6.15193 9.50794L6.13281 9.86914L6.21141 9.8733L6.23053 9.5121L6.15193 9.50794Z" fill="#1E1E1E"/>
<path id="Vector_182" d="M6.37559 9.53142L6.3374 9.89111L6.41567 9.89942L6.45385 9.53973L6.37559 9.53142Z" fill="#1E1E1E"/>
<path id="Vector_183" d="M6.59706 9.56273L6.54004 9.91992L6.61776 9.93233L6.67478 9.57514L6.59706 9.56273Z" fill="#1E1E1E"/>
<path id="Vector_184" d="M6.81709 9.61069L6.74121 9.96436L6.81817 9.98087L6.89405 9.62721L6.81709 9.61069Z" fill="#1E1E1E"/>
<path id="Vector_185" d="M7.03484 9.66694L6.94043 10.0161L7.01641 10.0367L7.11082 9.68748L7.03484 9.66694Z" fill="#1E1E1E"/>
<path id="Vector_186" d="M7.24799 9.73638L7.13525 10.0801L7.21004 10.1046L7.32277 9.76091L7.24799 9.73638Z" fill="#1E1E1E"/>
<path id="Vector_187" d="M7.45735 9.81409L7.32666 10.1514L7.40005 10.1798L7.53073 9.84253L7.45735 9.81409Z" fill="#1E1E1E"/>
<path id="Vector_188" d="M7.66249 9.90594L7.51416 10.2358L7.58594 10.2681L7.73427 9.93822L7.66249 9.90594Z" fill="#1E1E1E"/>
<path id="Vector_189" d="M7.86337 10.0085L7.69775 10.3301L7.76772 10.3661L7.93334 10.0445L7.86337 10.0085Z" fill="#1E1E1E"/>
<path id="Vector_190" d="M8.05923 10.1197L7.87695 10.4321L7.94494 10.4718L8.12721 10.1594L8.05923 10.1197Z" fill="#1E1E1E"/>
<path id="Vector_191" d="M8.24742 10.2426L8.04883 10.5449L8.11461 10.5881L8.3132 10.2858L8.24742 10.2426Z" fill="#1E1E1E"/>
<path id="Vector_192" d="M8.42811 10.3736L8.21387 10.665L8.27728 10.7117L8.49152 10.4202L8.42811 10.3736Z" fill="#1E1E1E"/>
<path id="Vector_193" d="M8.60288 10.5157L8.37354 10.7954L8.4344 10.8453L8.66374 10.5656L8.60288 10.5157Z" fill="#1E1E1E"/>
<path id="Vector_194" d="M8.77111 10.6644L8.52734 10.9316L8.58549 10.9847L8.82925 10.7174L8.77111 10.6644Z" fill="#1E1E1E"/>
<path id="Vector_195" d="M8.92747 10.8241L8.66992 11.0781L8.72519 11.1342L8.98273 10.8802L8.92747 10.8241Z" fill="#1E1E1E"/>
<path id="Vector_196" d="M9.07872 10.9919L8.80811 11.2319L8.86033 11.2908L9.13094 11.0508L9.07872 10.9919Z" fill="#1E1E1E"/>
<path id="Vector_197" d="M9.21989 11.1647L8.93701 11.3901L8.98606 11.4517L9.26894 11.2263L9.21989 11.1647Z" fill="#1E1E1E"/>
<path id="Vector_198" d="M9.35202 11.347L9.05762 11.5571L9.10334 11.6212L9.39775 11.411L9.35202 11.347Z" fill="#1E1E1E"/>
<path id="Vector_199" d="M9.47157 11.5356L9.1665 11.73L9.20879 11.7964L9.51386 11.602L9.47157 11.5356Z" fill="#1E1E1E"/>
<path id="Vector_200" d="M9.58346 11.7303L9.26855 11.9082L9.30727 11.9767L9.62219 11.7988L9.58346 11.7303Z" fill="#1E1E1E"/>
<path id="Vector_201" d="M9.68618 11.9293L9.3623 12.0903L9.39735 12.1608L9.72123 11.9997L9.68618 11.9293Z" fill="#1E1E1E"/>
<path id="Vector_202" d="M9.7753 12.1346L9.44336 12.2783L9.47463 12.3505L9.80657 12.2068L9.7753 12.1346Z" fill="#1E1E1E"/>
<path id="Vector_203" d="M9.85467 12.3466L9.51562 12.4727L9.54305 12.5464L9.88209 12.4204L9.85467 12.3466Z" fill="#1E1E1E"/>
<path id="Vector_204" d="M9.92338 12.5621L9.57812 12.6699L9.6016 12.745L9.94685 12.6372L9.92338 12.5621Z" fill="#1E1E1E"/>
<path id="Vector_205" d="M9.98083 12.7772L9.63037 12.8667L9.64985 12.943L10.0003 12.8534L9.98083 12.7772Z" fill="#1E1E1E"/>
<path id="Vector_206" d="M10.0271 12.9975L9.67236 13.0684L9.68779 13.1455L10.0425 13.0747L10.0271 12.9975Z" fill="#1E1E1E"/>
<path id="Vector_207" d="M10.0596 13.2189L9.70166 13.271L9.71299 13.3489L10.0709 13.2968L10.0596 13.2189Z" fill="#1E1E1E"/>
<path id="Vector_208" d="M10.0814 13.442L9.72119 13.4751L9.72839 13.5535L10.0886 13.5204L10.0814 13.442Z" fill="#1E1E1E"/>
<path id="Vector_209" d="M10.0929 13.6685L9.73145 13.6826L9.73451 13.7613L10.0959 13.7472L10.0929 13.6685Z" fill="#1E1E1E"/>
<path id="Vector_210" d="M9.72961 13.8857L9.72852 13.9644L10.0902 13.9694L10.0913 13.8907L9.72961 13.8857Z" fill="#1E1E1E"/>
<path id="Vector_211" d="M9.71717 14.0904L9.71191 14.1689L10.0728 14.1931L10.0781 14.1146L9.71717 14.0904Z" fill="#1E1E1E"/>
<path id="Vector_212" d="M9.69298 14.2954L9.68359 14.3735L10.0427 14.4167L10.0521 14.3385L9.69298 14.2954Z" fill="#1E1E1E"/>
<path id="Vector_213" d="M9.65852 14.4981L9.64502 14.5757L10.0014 14.6377L10.0149 14.5602L9.65852 14.4981Z" fill="#1E1E1E"/>
<path id="Vector_214" d="M9.61329 14.6992L9.5957 14.7759L9.94827 14.8567L9.96586 14.78L9.61329 14.6992Z" fill="#1E1E1E"/>
<path id="Vector_215" d="M9.55775 14.897L9.53613 14.9727L9.88394 15.072L9.90555 14.9963L9.55775 14.897Z" fill="#1E1E1E"/>
<path id="Vector_216" d="M9.49139 15.0921L9.46582 15.1665L9.80791 15.284L9.83348 15.2096L9.49139 15.0921Z" fill="#1E1E1E"/>
<path id="Vector_217" d="M9.4157 15.2825L9.38623 15.3555L9.72163 15.4909L9.7511 15.4179L9.4157 15.2825Z" fill="#1E1E1E"/>
<path id="Vector_218" d="M9.32966 15.4677L9.29639 15.5391L9.62418 15.692L9.65746 15.6207L9.32966 15.4677Z" fill="#1E1E1E"/>
<path id="Vector_219" d="M9.23378 15.6488L9.19678 15.7183L9.51603 15.8883L9.55303 15.8188L9.23378 15.6488Z" fill="#1E1E1E"/>
<path id="Vector_220" d="M9.12901 15.8276L9.08838 15.895L9.39816 16.0817L9.43879 16.0143L9.12901 15.8276Z" fill="#1E1E1E"/>
<path id="Vector_221" d="M9.01483 15.9968L8.9707 16.062L9.27022 16.2648L9.31435 16.1996L9.01483 15.9968Z" fill="#1E1E1E"/>
<path id="Vector_222" d="M8.89076 16.1614L8.84326 16.2241L9.13168 16.4424L9.17918 16.3797L8.89076 16.1614Z" fill="#1E1E1E"/>
<path id="Vector_223" d="M8.75923 16.3212L8.7085 16.3813L8.98501 16.6145L9.03575 16.5544L8.75923 16.3212Z" fill="#1E1E1E"/>
<path id="Vector_224" d="M8.61879 16.4704L8.56494 16.5278L8.82875 16.7753L8.88259 16.7179L8.61879 16.4704Z" fill="#1E1E1E"/>
<path id="Vector_225" d="M8.47138 16.6145L8.41455 16.6689L8.66482 16.9301L8.72164 16.8756L8.47138 16.6145Z" fill="#1E1E1E"/>
<path id="Vector_226" d="M8.31742 16.745L8.25781 16.7964L8.49402 17.0703L8.55362 17.0189L8.31742 16.745Z" fill="#1E1E1E"/>
<path id="Vector_227" d="M8.15452 16.8742L8.09229 16.9224L8.31373 17.2084L8.37596 17.1602L8.15452 16.8742Z" fill="#1E1E1E"/>
<path id="Vector_228" d="M7.98803 16.9913L7.92334 17.0361L8.12936 17.3334L8.19405 17.2886L7.98803 16.9913Z" fill="#1E1E1E"/>
<path id="Vector_229" d="M7.81209 17.1007L7.74512 17.1421L7.93513 17.4499L8.0021 17.4085L7.81209 17.1007Z" fill="#1E1E1E"/>
<path id="Vector_230" d="M7.63107 17.201L7.56201 17.2388L7.73549 17.5562L7.80455 17.5184L7.63107 17.201Z" fill="#1E1E1E"/>
<path id="Vector_231" d="M7.44743 17.2892L7.37646 17.3232L7.53293 17.6494L7.60389 17.6153L7.44743 17.2892Z" fill="#1E1E1E"/>
<path id="Vector_232" d="M7.25869 17.3696L7.18604 17.3999L7.3251 17.7338L7.39775 17.7036L7.25869 17.3696Z" fill="#1E1E1E"/>
<path id="Vector_233" d="M7.06683 17.4375L6.99268 17.4639L7.11389 17.8047L7.18805 17.7783L7.06683 17.4375Z" fill="#1E1E1E"/>
<path id="Vector_234" d="M6.86792 17.4971L6.79248 17.5195L6.89557 17.8662L6.97102 17.8438L6.86792 17.4971Z" fill="#1E1E1E"/>
<path id="Vector_235" d="M6.66783 17.5485L6.59131 17.5669L6.67593 17.9186L6.75245 17.9002L6.66783 17.5485Z" fill="#1E1E1E"/>
<path id="Vector_236" d="M6.46752 17.5858L6.39014 17.6001L6.45605 17.9558L6.53344 17.9414L6.46752 17.5858Z" fill="#1E1E1E"/>
<path id="Vector_237" d="M6.26407 17.6128L6.18604 17.623L6.23312 17.9817L6.31116 17.9714L6.26407 17.6128Z" fill="#1E1E1E"/>
<path id="Vector_238" d="M6.0604 17.6296L5.98193 17.6357L6.01 17.9964L6.08847 17.9903L6.0604 17.6296Z" fill="#1E1E1E"/>
<path id="Vector_239" d="M5.85407 17.6357L5.77539 17.6377L5.78442 17.9993L5.8631 17.9973L5.85407 17.6357Z" fill="#1E1E1E"/>
<path id="Vector_240" d="M5.57016 17.6277L5.56006 17.9893L5.63873 17.9915L5.64883 17.6299L5.57016 17.6277Z" fill="#1E1E1E"/>
<path id="Vector_241" d="M5.36514 17.6072L5.33594 17.9678L5.41439 17.9741L5.44358 17.6136L5.36514 17.6072Z" fill="#1E1E1E"/>
<path id="Vector_242" d="M5.16241 17.5771L5.11426 17.9355L5.19226 17.946L5.24041 17.5875L5.16241 17.5771Z" fill="#1E1E1E"/>
<path id="Vector_243" d="M4.95961 17.5347L4.89258 17.8901L4.96992 17.9047L5.03695 17.5493L4.95961 17.5347Z" fill="#1E1E1E"/>
<path id="Vector_244" d="M4.76102 17.4865L4.67529 17.8379L4.75176 17.8565L4.83748 17.5051L4.76102 17.4865Z" fill="#1E1E1E"/>
<path id="Vector_245" d="M4.56555 17.4217L4.46143 17.7681L4.5368 17.7907L4.64092 17.4443L4.56555 17.4217Z" fill="#1E1E1E"/>
<path id="Vector_246" d="M4.37375 17.349L4.25146 17.6895L4.32554 17.7161L4.44782 17.3756L4.37375 17.349Z" fill="#1E1E1E"/>
<path id="Vector_247" d="M4.18552 17.2686L4.04541 17.6021L4.11797 17.6325L4.25808 17.2991L4.18552 17.2686Z" fill="#1E1E1E"/>
<path id="Vector_248" d="M4.00129 17.1749L3.84375 17.5005L3.9146 17.5348L4.07214 17.2092L4.00129 17.1749Z" fill="#1E1E1E"/>
<path id="Vector_249" d="M3.82389 17.0733L3.64941 17.3901L3.71836 17.4281L3.89283 17.1113L3.82389 17.0733Z" fill="#1E1E1E"/>
<path id="Vector_250" d="M3.65143 16.9638L3.46045 17.271L3.52729 17.3126L3.71827 17.0054L3.65143 16.9638Z" fill="#1E1E1E"/>
<path id="Vector_251" d="M3.48478 16.8415L3.27783 17.1382L3.34238 17.1832L3.54933 16.8866L3.48478 16.8415Z" fill="#1E1E1E"/>
<path id="Vector_252" d="M3.32337 16.7117L3.10107 16.9971L3.16316 17.0454L3.38546 16.7601L3.32337 16.7117Z" fill="#1E1E1E"/>
<path id="Vector_253" d="M3.17017 16.5759L2.93311 16.8491L2.99255 16.9007L3.22962 16.6275L3.17017 16.5759Z" fill="#1E1E1E"/>
<path id="Vector_254" d="M3.02505 16.4282L2.77393 16.6885L2.83057 16.7431L3.0817 16.4828L3.02505 16.4282Z" fill="#1E1E1E"/>
<path id="Vector_255" d="M2.8871 16.2768L2.62256 16.5234L2.67624 16.581L2.94077 16.3343L2.8871 16.2768Z" fill="#1E1E1E"/>
<path id="Vector_256" d="M2.75817 16.1173L2.48096 16.3496L2.53152 16.4099L2.80872 16.1776L2.75817 16.1173Z" fill="#1E1E1E"/>
<path id="Vector_257" d="M2.63721 15.951L2.34814 16.1685L2.39546 16.2314L2.68452 16.0139L2.63721 15.951Z" fill="#1E1E1E"/>
<path id="Vector_258" d="M2.52529 15.7811L2.2251 15.9829L2.26901 16.0482L2.5692 15.8464L2.52529 15.7811Z" fill="#1E1E1E"/>
<path id="Vector_259" d="M2.42316 15.6009L2.11279 15.7866L2.15321 15.8542L2.46358 15.6684L2.42316 15.6009Z" fill="#1E1E1E"/>
<path id="Vector_260" d="M2.3276 15.4184L2.00781 15.5874L2.04459 15.657L2.36438 15.488L2.3276 15.4184Z" fill="#1E1E1E"/>
<path id="Vector_261" d="M2.24622 15.2314L1.91797 15.3833L1.95103 15.4547L2.27928 15.3028L2.24622 15.2314Z" fill="#1E1E1E"/>
<path id="Vector_262" d="M2.1708 15.0395L1.83496 15.1738L1.86419 15.2469L2.20003 15.1126L2.1708 15.0395Z" fill="#1E1E1E"/>
<path id="Vector_263" d="M2.10806 14.843L1.76562 14.9595L1.79098 15.034L2.13341 14.9175L2.10806 14.843Z" fill="#1E1E1E"/>
<path id="Vector_264" d="M2.0571 14.6454L1.70898 14.7437L1.73036 14.8194L2.07847 14.7212L2.0571 14.6454Z" fill="#1E1E1E"/>
<path id="Vector_265" d="M2.01591 14.4428L1.66309 14.5225L1.68043 14.5992L2.03325 14.5195L2.01591 14.4428Z" fill="#1E1E1E"/>
<path id="Vector_266" d="M1.98299 14.2408L1.62646 14.3018L1.63974 14.3793L1.99627 14.3183L1.98299 14.2408Z" fill="#1E1E1E"/>
<path id="Vector_267" d="M1.96179 14.0351L1.60254 14.0771L1.61169 14.1553L1.97095 14.1132L1.96179 14.0351Z" fill="#1E1E1E"/>
<path id="Vector_268" d="M1.95424 13.83L1.59326 13.853L1.59827 13.9316L1.95925 13.9085L1.95424 13.83Z" fill="#1E1E1E"/>
<path id="Vector_269" d="M1.95349 13.6254L1.5918 13.6294L1.59266 13.7081L1.95435 13.7041L1.95349 13.6254Z" fill="#1E1E1E"/>
<path id="Vector_270" d="M1.60388 13.4048L1.60059 13.4834L1.96198 13.4985L1.96528 13.4199L1.60388 13.4048Z" fill="#1E1E1E"/>
<path id="Vector_271" d="M1.62805 13.1799L1.62061 13.2583L1.98069 13.2925L1.98814 13.2142L1.62805 13.1799Z" fill="#1E1E1E"/>
<path id="Vector_272" d="M1.66489 12.9602L1.65332 13.0381L2.01111 13.0912L2.02267 13.0134L1.66489 12.9602Z" fill="#1E1E1E"/>
<path id="Vector_273" d="M1.71148 12.7417L1.6958 12.8188L2.05026 12.8909L2.06594 12.8138L1.71148 12.7417Z" fill="#1E1E1E"/>
<path id="Vector_274" d="M1.77118 12.5239L1.75146 12.6001L2.10164 12.6907L2.12136 12.6145L1.77118 12.5239Z" fill="#1E1E1E"/>
<path id="Vector_275" d="M1.84011 12.3112L1.81641 12.3862L2.16132 12.4952L2.18502 12.4201L1.84011 12.3112Z" fill="#1E1E1E"/>
<path id="Vector_276" d="M1.92217 12.1011L1.89453 12.1748L2.2332 12.3018L2.26084 12.2281L1.92217 12.1011Z" fill="#1E1E1E"/>
<path id="Vector_277" d="M2.01392 11.8956L1.98242 11.9678L2.3139 12.1125L2.3454 12.0404L2.01392 11.8956Z" fill="#1E1E1E"/>
<path id="Vector_278" d="M2.11777 11.6948L2.08252 11.7651L2.40592 11.9272L2.44117 11.8568L2.11777 11.6948Z" fill="#1E1E1E"/>
<path id="Vector_279" d="M2.23034 11.5034L2.19141 11.5718L2.50576 11.7507L2.54469 11.6823L2.23034 11.5034Z" fill="#1E1E1E"/>
<path id="Vector_280" d="M2.35256 11.3166L2.31006 11.3828L2.61451 11.5781L2.65701 11.5119L2.35256 11.3166Z" fill="#1E1E1E"/>
<path id="Vector_281" d="M2.48781 11.1329L2.44189 11.1968L2.73567 11.4078L2.78159 11.3439L2.48781 11.1329Z" fill="#1E1E1E"/>
<path id="Vector_282" d="M2.63079 10.9625L2.58154 11.0239L2.86372 11.2502L2.91296 11.1888L2.63079 10.9625Z" fill="#1E1E1E"/>
<path id="Vector_283" d="M2.7819 10.7948L2.72949 10.8535L2.99935 11.0944L3.05176 11.0357L2.7819 10.7948Z" fill="#1E1E1E"/>
<path id="Vector_284" d="M2.94069 10.638L2.88525 10.6938L3.142 10.9486L3.19744 10.8928L2.94069 10.638Z" fill="#1E1E1E"/>
<path id="Vector_285" d="M3.11006 10.4881L3.05176 10.541L3.29473 10.809L3.35303 10.7561L3.11006 10.4881Z" fill="#1E1E1E"/>
<path id="Vector_286" d="M3.28465 10.3502L3.22363 10.3999L3.4521 10.6803L3.51312 10.6306L3.28465 10.3502Z" fill="#1E1E1E"/>
<path id="Vector_287" d="M3.46737 10.2207L3.40381 10.2671L3.61713 10.5592L3.68069 10.5128L3.46737 10.2207Z" fill="#1E1E1E"/>
<path id="Vector_288" d="M3.6582 10.0996L3.59229 10.1426L3.78992 10.4455L3.85584 10.4025L3.6582 10.0996Z" fill="#1E1E1E"/>
<path id="Vector_289" d="M3.85374 9.98837L3.78564 10.0278L3.96699 10.3408L4.03509 10.3013L3.85374 9.98837Z" fill="#1E1E1E"/>
<path id="Vector_290" d="M4.05446 9.88949L3.98438 9.92529L4.14893 10.2474L4.21902 10.2116L4.05446 9.88949Z" fill="#1E1E1E"/>
<path id="Vector_291" d="M4.26231 9.79948L4.19043 9.83154L4.33778 10.1619L4.40966 10.1298L4.26231 9.79948Z" fill="#1E1E1E"/>
<path id="Vector_292" d="M4.4724 9.72227L4.39893 9.75049L4.52861 10.0882L4.60208 10.0599L4.4724 9.72227Z" fill="#1E1E1E"/>
<path id="Vector_293" d="M4.68716 9.65538L4.6123 9.67969L4.72402 10.0237L4.79888 9.99941L4.68716 9.65538Z" fill="#1E1E1E"/>
<path id="Vector_294" d="M4.90367 9.59931L4.82764 9.61963L4.92101 9.96908L4.99705 9.94876L4.90367 9.59931Z" fill="#1E1E1E"/>
<path id="Vector_295" d="M5.12339 9.55551L5.04639 9.57178L5.12116 9.92568L5.19816 9.90941L5.12339 9.55551Z" fill="#1E1E1E"/>
<path id="Vector_296" d="M5.34631 9.52493L5.26855 9.53711L5.32452 9.89447L5.40227 9.88229L5.34631 9.52493Z" fill="#1E1E1E"/>
<path id="Vector_297" d="M5.57145 9.50218L5.49316 9.51025L5.53028 9.87006L5.60857 9.86198L5.57145 9.50218Z" fill="#1E1E1E"/>
<path id="Vector_298" d="M5.79541 9.49413L5.7168 9.49805L5.73478 9.85931L5.81339 9.8554L5.79541 9.49413Z" fill="#1E1E1E"/>
<path id="Vector_299" d="M5.8713 10.5835C4.12471 10.5835 2.70801 12.0002 2.70801 13.7468C2.70801 15.4934 4.12471 16.9101 5.8713 16.9101C7.6179 16.9101 9.0346 15.4934 9.0346 13.7468C9.0346 12.0002 7.6179 10.5835 5.8713 10.5835ZM5.84283 16.3809C4.38762 16.3809 3.20871 15.202 3.20871 13.7468C3.20871 12.2916 4.38762 11.1127 5.84283 11.1127C7.29805 11.1127 8.47696 12.2916 8.47696 13.7468C8.47696 15.202 7.29805 16.3809 5.84283 16.3809Z" fill="#3F3F3F"/>
</g>
<path id="Vector_300" d="M10.8999 11.8662L11.3085 13.9963L26.6578 14.358L30.9665 13.7786C30.9665 13.7786 28.617 10.3306 10.8999 11.8662Z" fill="#1E1E1E"/>
<path id="Vector_301" d="M27.2238 5.66016L38.7047 6.96633C38.7047 6.96633 39.1954 7.01155 38.9559 8.09501C38.7165 9.17846 26.9927 6.87758 26.9927 6.87758L27.2238 5.66016Z" fill="#AF2323"/>
<path id="Vector_302" d="M26.786 5.30238L11.0024 4.86426L10.9704 6.01928L26.754 6.4574L26.786 5.30238Z" fill="#AF2323"/>
<path id="Vector_303" d="M7.16378 5.7085V7.59073L9.18334 9.79616L11.3419 12.3734L29.049 12.8473L31.1254 13.9977C31.1254 13.9977 35.8377 9.64043 39.1651 8.72945V7.61083L30.2396 6.74507L7.16211 5.7085H7.16378Z" fill="#AF2323"/>
<path id="Vector_304" d="M18.3401 6.31299L18.2563 12.5575L26.7314 12.7836L26.9927 6.67805L18.2563 6.3783" fill="#9B1E1E"/>
<path id="Vector_305" d="M9.51985 6.03516L9.38086 9.85154L10.7155 11.1008L10.6619 12.3601L18.1473 12.5543L18.221 6.31314L9.51985 6.03516Z" fill="#7F1919"/>
<path id="Vector_306" d="M39.1653 7.88058L28.0176 6.67822L30.3737 6.74856L39.1653 7.60929V7.88058Z" fill="#CECECE"/>
<path id="Vector_307" d="M7.16377 5.43537C7.16377 5.43537 6.87239 5.90258 7.92906 6.00808C8.98572 6.11358 30.3719 6.74657 30.3719 6.74657C30.3719 6.74657 30.4255 6.53558 30.1944 6.45687C30.1944 6.45687 27.726 6.80016 27.2236 5.65809H26.5103L26.517 5.8356L19.1605 5.65809C19.1605 5.65809 19.0115 5.65474 19.0249 5.28131H17.6785C17.6785 5.28131 17.6383 5.5191 17.4909 5.50905L11.8509 5.4337C11.8509 5.4337 11.6852 5.35499 11.7053 5.07031H10.8998L10.8881 5.20595C10.8881 5.20595 10.6452 5.72508 9.34241 5.70833C9.34241 5.70833 8.03288 5.69996 7.16545 5.43537H7.16377Z" fill="#CECECE"/>
<path id="Vector_308" d="M27.917 5.73877L38.7064 6.96624C38.7064 6.96624 28.473 6.68826 27.917 5.73877Z" fill="#D34F4F"/>
<path id="Vector_309" opacity="0.47" d="M7.0249 7.78857C7.0249 7.78857 10.9903 8.56391 11.3085 12.7068L31.5593 13.725L34.5903 11.7205L37.2947 9.47153C37.2947 9.47153 19.3616 14.6108 7.0249 7.78857Z" fill="#4F0B0B"/>
<g id="Group_5">
<path id="Vector_310" d="M13.8252 13.4569C15.2887 13.539 16.7574 13.549 18.2226 13.5624L18.2427 12.839C18.2511 12.546 18.02 12.3015 17.7269 12.2931L12.807 12.1574C12.514 12.1491 12.2695 12.3802 12.2611 12.6732L12.2427 13.3397C12.7702 13.3866 13.2977 13.4268 13.8252 13.4553V13.4569Z" fill="#CECECE"/>
<path id="Vector_311" d="M17.7726 13.5656C16.2604 13.5489 14.7466 13.5321 13.2378 13.4283C12.9062 13.4049 12.5747 13.3781 12.2448 13.3496L12.2414 13.4534C12.2331 13.7465 12.4642 13.991 12.7572 13.9993L17.6771 14.135C17.9702 14.1434 18.2147 13.9123 18.2231 13.6192V13.5707C18.074 13.5707 17.9233 13.5673 17.7726 13.5656Z" fill="#939393"/>
<path id="Vector_312" d="M22.9251 13.6108C24.2279 13.6326 25.5291 13.6627 26.8319 13.6711L26.847 13.1151C26.8554 12.8221 26.6243 12.5776 26.3312 12.5692L19.2377 12.3733C18.9446 12.3649 18.7001 12.596 18.6918 12.889L18.6733 13.5656C20.09 13.5773 21.5084 13.5857 22.9251 13.6091V13.6108Z" fill="#CECECE"/>
<path id="Vector_313" d="M22.3275 13.6094C21.1101 13.5926 19.891 13.5859 18.6736 13.5742V13.5926C18.6652 13.8857 18.8963 14.1302 19.1893 14.1386L26.2829 14.3345C26.5759 14.3429 26.8204 14.1118 26.8288 13.8187L26.8321 13.6797C25.33 13.6697 23.8296 13.6295 22.3275 13.6094Z" fill="#939393"/>
</g>
<path id="Vector_314" d="M7.16378 5.46057C7.16378 5.46057 10.1931 6.23256 10.8864 5.22278L11.3419 0.153809L9.12473 0.423417C8.06639 0.55236 7.26258 1.43822 7.23579 2.50325L7.16211 5.4589L7.16378 5.46057Z" fill="#2B2B2B"/>
<path id="Vector_315" d="M11.3086 0.529035C11.3086 0.529035 15.4817 0.252728 27.4231 1.2826V1.04481C27.4231 1.04481 16.5701 -0.479066 11.3421 0.153928L11.3086 0.529035Z" fill="#B7B7B7"/>
<path id="Vector_316" d="M11.9532 1.52214L11.7054 5.07226H10.8999L11.3085 0.529109C11.3085 0.529109 20.373 0.391792 27.4231 1.28267L27.2255 5.65837H26.5121L26.6578 2.08982C26.6645 1.92739 26.5389 1.79007 26.3764 1.78337L19.4202 1.4719C19.2779 1.4652 19.1573 1.57573 19.1523 1.71974L19.0267 5.28326H17.6803L17.8277 1.54893C17.8327 1.40324 17.7171 1.28267 17.5715 1.28267H12.2094C12.0755 1.28267 11.9633 1.3865 11.9532 1.52214Z" fill="#1E1E1E"/>
<g id="Group_6">
<path id="Vector_317" d="M31.8424 10.2198L31.0771 6.99121L33.0565 7.11011L31.8424 10.2198Z" stroke="#828282" stroke-width="0.47" stroke-miterlimit="10"/>
<path id="Vector_318" d="M31.8423 10.2198L32.1605 6.91748L33.9958 7.66937L31.8423 10.2198Z" stroke="#828282" stroke-width="0.47" stroke-miterlimit="10"/>
<path id="Vector_319" d="M31.8423 10.2199L33.2104 7.19727L34.7042 8.50177L31.8423 10.2199Z" stroke="#828282" stroke-width="0.47" stroke-miterlimit="10"/>
<path id="Vector_320" d="M31.8423 10.2199L34.1147 7.80176L35.1061 9.51988L31.8423 10.2199Z" stroke="#828282" stroke-width="0.47" stroke-miterlimit="10"/>
<path id="Vector_321" d="M31.8423 10.22L34.7728 8.66602L35.158 10.6119L31.8423 10.22Z" stroke="#828282" stroke-width="0.47" stroke-miterlimit="10"/>
<path id="Vector_322" d="M31.8423 10.2199L35.1178 9.6958L34.8532 11.6618L31.8423 10.2199Z" stroke="#828282" stroke-width="0.47" stroke-miterlimit="10"/>
<path id="Vector_323" d="M31.8423 10.2197L35.1111 10.7824L34.2252 12.5574L31.8423 10.2197Z" stroke="#828282" stroke-width="0.47" stroke-miterlimit="10"/>
<path id="Vector_324" d="M31.8423 10.2197L34.7544 11.8089L33.3427 13.2022L31.8423 10.2197Z" stroke="#828282" stroke-width="0.47" stroke-miterlimit="10"/>
<path id="Vector_325" d="M31.8423 10.2197L34.0846 12.6646L32.2978 13.5254L31.8423 10.2197Z" stroke="#828282" stroke-width="0.47" stroke-miterlimit="10"/>
<path id="Vector_326" d="M31.8421 10.2197L33.1751 13.2574L31.2041 13.4952L31.8421 10.2197Z" stroke="#828282" stroke-width="0.47" stroke-miterlimit="10"/>
<path id="Vector_327" d="M31.8423 10.2197L32.122 13.5254L30.1812 13.1134L31.8423 10.2197Z" stroke="#828282" stroke-width="0.47" stroke-miterlimit="10"/>
<path id="Vector_328" d="M31.842 10.2197L31.0382 13.4383L29.3335 12.4218L31.842 10.2197Z" stroke="#828282" stroke-width="0.47" stroke-miterlimit="10"/>
<path id="Vector_329" d="M31.8424 10.2197L30.0422 13.0046L28.7578 11.4924L31.8424 10.2197Z" stroke="#828282" stroke-width="0.47" stroke-miterlimit="10"/>
<path id="Vector_330" d="M31.8425 10.2197L29.2385 12.2744L28.5117 10.4274L31.8425 10.2197Z" stroke="#828282" stroke-width="0.47" stroke-miterlimit="10"/>
<path id="Vector_331" d="M31.8423 10.22L28.7142 11.3219L28.6221 9.34082L31.8423 10.22Z" stroke="#828282" stroke-width="0.47" stroke-miterlimit="10"/>
<path id="Vector_332" d="M31.8423 10.2198L28.5249 10.2517L29.0792 8.34766L31.8423 10.2198Z" stroke="#828282" stroke-width="0.47" stroke-miterlimit="10"/>
<path id="Vector_333" d="M31.8423 10.2197L28.6924 9.17806L29.8328 7.55371L31.8423 10.2197Z" stroke="#828282" stroke-width="0.47" stroke-miterlimit="10"/>
<path id="Vector_334" d="M31.8424 10.22L29.1982 8.2172L30.8025 7.04834L31.8424 10.22Z" stroke="#828282" stroke-width="0.47" stroke-miterlimit="10"/>
<path id="Vector_335" d="M31.8423 10.2198L29.9868 7.46843L31.8824 6.88232L31.8423 10.2198Z" stroke="#828282" stroke-width="0.47" stroke-miterlimit="10"/>
<path id="Vector_336" d="M31.842 10.2199L30.9746 7.01807L32.959 7.07333L31.842 10.2199Z" stroke="#828282" stroke-width="0.47" stroke-miterlimit="10"/>
<path id="Vector_337" d="M31.8423 10.2198L32.0566 6.90918L33.9154 7.60246L31.8423 10.2198Z" stroke="#828282" stroke-width="0.47" stroke-miterlimit="10"/>
<path id="Vector_338" d="M31.8421 5.96826C29.4943 5.96826 27.5903 7.87227 27.5903 10.22C27.5903 12.5678 29.4943 14.4718 31.8421 14.4718C34.1899 14.4718 36.0939 12.5678 36.0939 10.22C36.0939 7.87227 34.1899 5.96826 31.8421 5.96826ZM31.8421 12.8525C30.3869 12.8525 29.208 11.6736 29.208 10.2184C29.208 8.76315 30.3869 7.58424 31.8421 7.58424C33.2973 7.58424 34.4762 8.76315 34.4762 10.2184C34.4762 11.6736 33.2973 12.8525 31.8421 12.8525Z" fill="#303030"/>
<path id="Vector_339" d="M31.8421 10.92C32.2287 10.92 32.542 10.6066 32.542 10.22C32.542 9.83341 32.2287 9.52002 31.8421 9.52002C31.4555 9.52002 31.1421 9.83341 31.1421 10.22C31.1421 10.6066 31.4555 10.92 31.8421 10.92Z" fill="#303030"/>
<path id="Vector_340" d="M31.8423 10.6601C32.0855 10.6601 32.2827 10.4629 32.2827 10.2197C32.2827 9.97648 32.0855 9.7793 31.8423 9.7793C31.599 9.7793 31.4019 9.97648 31.4019 10.2197C31.4019 10.4629 31.599 10.6601 31.8423 10.6601Z" fill="#636363"/>
<path id="Vector_341" d="M32.097 10.2199C32.097 10.3605 31.9831 10.4744 31.8424 10.4744C31.7018 10.4744 31.5879 10.3605 31.5879 10.2199C31.5879 10.0792 31.7018 9.96533 31.8424 9.96533C31.9831 9.96533 32.097 10.0792 32.097 10.2199Z" fill="#D1D1D1"/>
<path id="Vector_342" d="M32.0064 5.96973H31.9277V6.33144H32.0064V5.96973Z" fill="#1E1E1E"/>
<path id="Vector_343" d="M32.1529 5.98011L32.1338 6.34131L32.2124 6.34547L32.2315 5.98427L32.1529 5.98011Z" fill="#1E1E1E"/>
<path id="Vector_344" d="M32.3785 6.00213L32.3403 6.36182L32.4186 6.37013L32.4568 6.01044L32.3785 6.00213Z" fill="#1E1E1E"/>
<path id="Vector_345" d="M32.5951 6.03637L32.5381 6.39355L32.6158 6.40596L32.6728 6.04877L32.5951 6.03637Z" fill="#1E1E1E"/>
<path id="Vector_346" d="M32.819 6.08335L32.7432 6.43701L32.8201 6.45352L32.896 6.09986L32.819 6.08335Z" fill="#1E1E1E"/>
<path id="Vector_347" d="M33.0354 6.14157L32.9409 6.49072L33.0169 6.51128L33.1114 6.16212L33.0354 6.14157Z" fill="#1E1E1E"/>
<path id="Vector_348" d="M33.2476 6.20906L33.1348 6.55273L33.2095 6.57728L33.3223 6.23361L33.2476 6.20906Z" fill="#1E1E1E"/>
<path id="Vector_349" d="M33.4569 6.28723L33.3262 6.62451L33.3996 6.65295L33.5302 6.31567L33.4569 6.28723Z" fill="#1E1E1E"/>
<path id="Vector_350" d="M33.661 6.37713L33.5127 6.70703L33.5845 6.73931L33.7328 6.40941L33.661 6.37713Z" fill="#1E1E1E"/>
<path id="Vector_351" d="M33.8653 6.48068L33.6997 6.80225L33.7697 6.83828L33.9353 6.51672L33.8653 6.48068Z" fill="#1E1E1E"/>
<path id="Vector_352" d="M34.0583 6.59337L33.876 6.90576L33.944 6.94544L34.1263 6.63304L34.0583 6.59337Z" fill="#1E1E1E"/>
<path id="Vector_353" d="M34.2469 6.71477L34.0483 7.01709L34.1141 7.0603L34.3127 6.75798L34.2469 6.71477Z" fill="#1E1E1E"/>
<path id="Vector_354" d="M34.4285 6.84768L34.2144 7.13916L34.2778 7.18577L34.492 6.89429L34.4285 6.84768Z" fill="#1E1E1E"/>
<path id="Vector_355" d="M34.6034 6.9884L34.374 7.26807L34.4349 7.31798L34.6643 7.03831L34.6034 6.9884Z" fill="#1E1E1E"/>
<path id="Vector_356" d="M34.7702 7.13808L34.5264 7.40527L34.5845 7.45832L34.8283 7.19113L34.7702 7.13808Z" fill="#1E1E1E"/>
<path id="Vector_357" d="M34.926 7.29383L34.6685 7.54785L34.7237 7.60388L34.9812 7.34986L34.926 7.29383Z" fill="#1E1E1E"/>
<path id="Vector_358" d="M35.0783 7.4661L34.8076 7.70605L34.8598 7.76495L35.1305 7.52499L35.0783 7.4661Z" fill="#1E1E1E"/>
<path id="Vector_359" d="M35.2184 7.63542L34.9355 7.86084L34.9846 7.92239L35.2675 7.69698L35.2184 7.63542Z" fill="#1E1E1E"/>
<path id="Vector_360" d="M35.3491 7.81817L35.0547 8.02832L35.1004 8.09238L35.3948 7.88223L35.3491 7.81817Z" fill="#1E1E1E"/>
<path id="Vector_361" d="M35.4726 8.00834L35.1675 8.20264L35.2098 8.26902L35.5149 8.07473L35.4726 8.00834Z" fill="#1E1E1E"/>
<path id="Vector_362" d="M35.5835 8.20296L35.2686 8.38086L35.3073 8.44939L35.6222 8.27149L35.5835 8.20296Z" fill="#1E1E1E"/>
<path id="Vector_363" d="M35.6862 8.40291L35.3623 8.56396L35.3973 8.63444L35.7212 8.47338L35.6862 8.40291Z" fill="#1E1E1E"/>
<path id="Vector_364" d="M35.7743 8.60623L35.4424 8.75L35.4737 8.82222L35.8056 8.67845L35.7743 8.60623Z" fill="#1E1E1E"/>
<path id="Vector_365" d="M35.8561 8.8188L35.5171 8.94482L35.5445 9.0186L35.8836 8.89258L35.8561 8.8188Z" fill="#1E1E1E"/>
<path id="Vector_366" d="M35.9234 9.0352L35.5781 9.14307L35.6016 9.21819L35.9468 9.11033L35.9234 9.0352Z" fill="#1E1E1E"/>
<path id="Vector_367" d="M35.9813 9.25178L35.6309 9.34131L35.6503 9.41757L36.0008 9.32804L35.9813 9.25178Z" fill="#1E1E1E"/>
<path id="Vector_368" d="M36.0256 9.47014L35.6709 9.54102L35.6863 9.6182L36.041 9.54732L36.0256 9.47014Z" fill="#1E1E1E"/>
<path id="Vector_369" d="M36.0591 9.69059L35.7012 9.74268L35.7125 9.82056L36.0704 9.76847L36.0591 9.69059Z" fill="#1E1E1E"/>
<path id="Vector_370" d="M36.0814 9.91563L35.7212 9.94873L35.7284 10.0271L36.0886 9.99401L36.0814 9.91563Z" fill="#1E1E1E"/>
<path id="Vector_371" d="M36.0929 10.1392L35.7314 10.1533L35.7345 10.232L36.0959 10.2179L36.0929 10.1392Z" fill="#1E1E1E"/>
<path id="Vector_372" d="M35.7291 10.3593L35.728 10.438L36.0897 10.443L36.0908 10.3643L35.7291 10.3593Z" fill="#1E1E1E"/>
<path id="Vector_373" d="M35.7147 10.5636L35.7095 10.6421L36.0704 10.6663L36.0756 10.5877L35.7147 10.5636Z" fill="#1E1E1E"/>
<path id="Vector_374" d="M35.693 10.7676L35.6836 10.8457L36.0427 10.8889L36.0521 10.8108L35.693 10.7676Z" fill="#1E1E1E"/>
<path id="Vector_375" d="M35.6571 10.9708L35.6436 11.0483L35.9999 11.1104L36.0134 11.0329L35.6571 10.9708Z" fill="#1E1E1E"/>
<path id="Vector_376" d="M35.6113 11.1704L35.5938 11.2471L35.9463 11.3279L35.9639 11.2512L35.6113 11.1704Z" fill="#1E1E1E"/>
<path id="Vector_377" d="M35.5602 11.3706L35.5386 11.4463L35.8864 11.5456L35.908 11.4699L35.5602 11.3706Z" fill="#1E1E1E"/>
<path id="Vector_378" d="M35.4919 11.5637L35.4663 11.6382L35.8084 11.7557L35.834 11.6813L35.4919 11.5637Z" fill="#1E1E1E"/>
<path id="Vector_379" d="M35.4167 11.7561L35.3872 11.8291L35.7226 11.9645L35.7521 11.8916L35.4167 11.7561Z" fill="#1E1E1E"/>
<path id="Vector_380" d="M35.3301 11.9399L35.2969 12.0112L35.6247 12.1642L35.6579 12.0928L35.3301 11.9399Z" fill="#1E1E1E"/>
<path id="Vector_381" d="M35.2318 12.1214L35.1948 12.1909L35.5141 12.3609L35.5511 12.2914L35.2318 12.1214Z" fill="#1E1E1E"/>
<path id="Vector_382" d="M35.13 12.3022L35.0894 12.3696L35.3992 12.5563L35.4398 12.4889L35.13 12.3022Z" fill="#1E1E1E"/>
<path id="Vector_383" d="M35.0148 12.4695L34.9707 12.5347L35.2703 12.7374L35.3144 12.6722L35.0148 12.4695Z" fill="#1E1E1E"/>
<path id="Vector_384" d="M34.8913 12.635L34.8438 12.6978L35.1321 12.9161L35.1796 12.8533L34.8913 12.635Z" fill="#1E1E1E"/>
<path id="Vector_385" d="M34.7602 12.7934L34.7095 12.8535L34.9859 13.0867L35.0367 13.0266L34.7602 12.7934Z" fill="#1E1E1E"/>
<path id="Vector_386" d="M34.6203 12.9455L34.5664 13.0029L34.8302 13.2504L34.884 13.1931L34.6203 12.9455Z" fill="#1E1E1E"/>
<path id="Vector_387" d="M34.4709 13.0847L34.4141 13.1392L34.6644 13.4002L34.7212 13.3458L34.4709 13.0847Z" fill="#1E1E1E"/>
<path id="Vector_388" d="M34.3174 13.222L34.2578 13.2734L34.494 13.5474L34.5536 13.496L34.3174 13.222Z" fill="#1E1E1E"/>
<path id="Vector_389" d="M34.1555 13.3483L34.0933 13.3965L34.3147 13.6825L34.3769 13.6343L34.1555 13.3483Z" fill="#1E1E1E"/>
<path id="Vector_390" d="M33.9866 13.463L33.9219 13.5078L34.1279 13.8051L34.1926 13.7603L33.9866 13.463Z" fill="#1E1E1E"/>
<path id="Vector_391" d="M33.8116 13.5714L33.7446 13.6128L33.9346 13.9206L34.0016 13.8792L33.8116 13.5714Z" fill="#1E1E1E"/>
<path id="Vector_392" d="M33.632 13.6702L33.563 13.708L33.7365 14.0254L33.8056 13.9876L33.632 13.6702Z" fill="#1E1E1E"/>
<path id="Vector_393" d="M33.4494 13.7638L33.3784 13.7979L33.5349 14.124L33.6058 14.0899L33.4494 13.7638Z" fill="#1E1E1E"/>
<path id="Vector_394" d="M33.2577 13.8398L33.1851 13.8701L33.3242 14.204L33.3968 14.1737L33.2577 13.8398Z" fill="#1E1E1E"/>
<path id="Vector_395" d="M33.0659 13.9121L32.9917 13.9385L33.1129 14.2793L33.1871 14.2529L33.0659 13.9121Z" fill="#1E1E1E"/>
<path id="Vector_396" d="M32.8689 13.9683L32.7935 13.9907L32.8966 14.3374L32.972 14.315L32.8689 13.9683Z" fill="#1E1E1E"/>
<path id="Vector_397" d="M32.6698 14.0231L32.5933 14.0415L32.6779 14.3932L32.7544 14.3748L32.6698 14.0231Z" fill="#1E1E1E"/>
<path id="Vector_398" d="M32.467 14.0579L32.3896 14.0723L32.4556 14.4279L32.533 14.4136L32.467 14.0579Z" fill="#1E1E1E"/>
<path id="Vector_399" d="M32.2631 14.0869L32.1851 14.0972L32.2321 14.4558L32.3102 14.4456L32.2631 14.0869Z" fill="#1E1E1E"/>
<path id="Vector_400" d="M32.0594 14.1023L31.981 14.1084L32.009 14.469L32.0875 14.4629L32.0594 14.1023Z" fill="#1E1E1E"/>
<path id="Vector_401" d="M31.8541 14.1084L31.7754 14.1104L31.7844 14.472L31.863 14.47L31.8541 14.1084Z" fill="#1E1E1E"/>
<path id="Vector_402" d="M31.5706 14.1013L31.5605 14.4629L31.6392 14.4651L31.6493 14.1035L31.5706 14.1013Z" fill="#1E1E1E"/>
<path id="Vector_403" d="M31.3651 14.0804L31.3359 14.4409L31.4144 14.4473L31.4436 14.0867L31.3651 14.0804Z" fill="#1E1E1E"/>
<path id="Vector_404" d="M31.1595 14.0482L31.1113 14.4067L31.1893 14.4172L31.2375 14.0587L31.1595 14.0482Z" fill="#1E1E1E"/>
<path id="Vector_405" d="M30.9641 14.0108L30.897 14.3662L30.9743 14.3808L31.0414 14.0254L30.9641 14.0108Z" fill="#1E1E1E"/>
<path id="Vector_406" d="M30.7615 13.9582L30.6758 14.3096L30.7522 14.3282L30.838 13.9768L30.7615 13.9582Z" fill="#1E1E1E"/>
<path id="Vector_407" d="M30.5626 13.8943L30.4585 14.2407L30.5339 14.2634L30.638 13.917L30.5626 13.8943Z" fill="#1E1E1E"/>
<path id="Vector_408" d="M30.3752 13.8236L30.2529 14.1641L30.327 14.1907L30.4493 13.8503L30.3752 13.8236Z" fill="#1E1E1E"/>
<path id="Vector_409" d="M30.1865 13.7403L30.0464 14.0737L30.1189 14.1042L30.2591 13.7707L30.1865 13.7403Z" fill="#1E1E1E"/>
<path id="Vector_410" d="M30.0032 13.6495L29.8457 13.9751L29.9166 14.0094L30.0741 13.6838L30.0032 13.6495Z" fill="#1E1E1E"/>
<path id="Vector_411" d="M29.823 13.5465L29.6484 13.8633L29.7174 13.9013L29.8919 13.5844L29.823 13.5465Z" fill="#1E1E1E"/>
<path id="Vector_412" d="M29.6514 13.437L29.4604 13.7441L29.5273 13.7857L29.7183 13.4785L29.6514 13.437Z" fill="#1E1E1E"/>
<path id="Vector_413" d="M29.4813 13.3132L29.2744 13.6099L29.339 13.6549L29.5459 13.3582L29.4813 13.3132Z" fill="#1E1E1E"/>
<path id="Vector_414" d="M29.3234 13.1883L29.1011 13.4736L29.1632 13.522L29.3855 13.2367L29.3234 13.1883Z" fill="#1E1E1E"/>
<path id="Vector_415" d="M29.1702 13.0452L28.9331 13.3184L28.9926 13.3699L29.2296 13.0967L29.1702 13.0452Z" fill="#1E1E1E"/>
<path id="Vector_416" d="M29.0255 12.9008L28.7744 13.1611L28.8311 13.2158L29.0822 12.9555L29.0255 12.9008Z" fill="#1E1E1E"/>
<path id="Vector_417" d="M28.8876 12.7475L28.623 12.9941L28.6767 13.0517L28.9413 12.8051L28.8876 12.7475Z" fill="#1E1E1E"/>
<path id="Vector_418" d="M28.7587 12.5933L28.4814 12.8257L28.532 12.886L28.8092 12.6536L28.7587 12.5933Z" fill="#1E1E1E"/>
<path id="Vector_419" d="M28.6362 12.4227L28.3472 12.6401L28.3945 12.703L28.6835 12.4856L28.6362 12.4227Z" fill="#1E1E1E"/>
<path id="Vector_420" d="M28.5248 12.2508L28.2246 12.4526L28.2685 12.5179L28.5687 12.3161L28.5248 12.2508Z" fill="#1E1E1E"/>
<path id="Vector_421" d="M28.4217 12.0736L28.1113 12.2593L28.1517 12.3268L28.4621 12.1411L28.4217 12.0736Z" fill="#1E1E1E"/>
<path id="Vector_422" d="M28.329 11.8885L28.0093 12.0576L28.0461 12.1272L28.3658 11.9581L28.329 11.8885Z" fill="#1E1E1E"/>
<path id="Vector_423" d="M28.2447 11.7011L27.9165 11.853L27.9496 11.9245L28.2778 11.7725L28.2447 11.7011Z" fill="#1E1E1E"/>
<path id="Vector_424" d="M28.1732 11.5136L27.8374 11.6479L27.8666 11.721L28.2025 11.5866L28.1732 11.5136Z" fill="#1E1E1E"/>
<path id="Vector_425" d="M28.1095 11.3157L27.7671 11.4321L27.7924 11.5066L28.1349 11.3902L28.1095 11.3157Z" fill="#1E1E1E"/>
<path id="Vector_426" d="M28.0566 11.1157L27.7085 11.2139L27.7299 11.2896L28.078 11.1914L28.0566 11.1157Z" fill="#1E1E1E"/>
<path id="Vector_427" d="M28.0154 10.9149L27.6626 10.9946L27.68 11.0714L28.0328 10.9916L28.0154 10.9149Z" fill="#1E1E1E"/>
<path id="Vector_428" d="M27.984 10.712L27.6274 10.7729L27.6407 10.8505L27.9972 10.7896L27.984 10.712Z" fill="#1E1E1E"/>
<path id="Vector_429" d="M27.9642 10.5072L27.605 10.5493L27.6141 10.6275L27.9734 10.5854L27.9642 10.5072Z" fill="#1E1E1E"/>
<path id="Vector_430" d="M27.9523 10.3031L27.5913 10.3262L27.5963 10.4047L27.9573 10.3816L27.9523 10.3031Z" fill="#1E1E1E"/>
<path id="Vector_431" d="M27.9545 10.0957L27.5928 10.0996L27.5936 10.1783L27.9553 10.1744L27.9545 10.0957Z" fill="#1E1E1E"/>
<path id="Vector_432" d="M27.6049 9.87839L27.6016 9.95703L27.963 9.97218L27.9663 9.89354L27.6049 9.87839Z" fill="#1E1E1E"/>
<path id="Vector_433" d="M27.6256 9.65358L27.6182 9.73193L27.9783 9.7661L27.9857 9.68775L27.6256 9.65358Z" fill="#1E1E1E"/>
<path id="Vector_434" d="M27.6615 9.4324L27.6499 9.51025L28.0077 9.56347L28.0193 9.48562L27.6615 9.4324Z" fill="#1E1E1E"/>
<path id="Vector_435" d="M27.711 9.21389L27.6953 9.29102L28.0498 9.36307L28.0655 9.28594L27.711 9.21389Z" fill="#1E1E1E"/>
<path id="Vector_436" d="M27.7712 8.99802L27.7515 9.07422L28.1016 9.16485L28.1214 9.08865L27.7712 8.99802Z" fill="#1E1E1E"/>
<path id="Vector_437" d="M27.8406 8.78384L27.8169 8.85889L28.1618 8.96784L28.1855 8.89279L27.8406 8.78384Z" fill="#1E1E1E"/>
<path id="Vector_438" d="M27.9217 8.57475L27.894 8.64844L28.2327 8.77553L28.2603 8.70184L27.9217 8.57475Z" fill="#1E1E1E"/>
<path id="Vector_439" d="M28.0139 8.36781L27.9824 8.43994L28.3139 8.58469L28.3454 8.51257L28.0139 8.36781Z" fill="#1E1E1E"/>
<path id="Vector_440" d="M28.1153 8.16694L28.0801 8.2373L28.4034 8.39938L28.4387 8.32901L28.1153 8.16694Z" fill="#1E1E1E"/>
<path id="Vector_441" d="M28.2313 7.97651L28.1924 8.04492L28.5068 8.22381L28.5457 8.1554L28.2313 7.97651Z" fill="#1E1E1E"/>
<path id="Vector_442" d="M28.3545 7.79019L28.312 7.85645L28.6165 8.0517L28.659 7.98544L28.3545 7.79019Z" fill="#1E1E1E"/>
<path id="Vector_443" d="M28.4863 7.60649L28.4404 7.67041L28.7342 7.88143L28.7801 7.81751L28.4863 7.60649Z" fill="#1E1E1E"/>
<path id="Vector_444" d="M28.6313 7.43421L28.582 7.49561L28.8642 7.72191L28.9134 7.66051L28.6313 7.43421Z" fill="#1E1E1E"/>
<path id="Vector_445" d="M28.7809 7.26793L28.7285 7.32666L28.9984 7.56747L29.0508 7.50874L28.7809 7.26793Z" fill="#1E1E1E"/>
<path id="Vector_446" d="M28.9417 7.1116L28.8862 7.16748L29.143 7.42222L29.1985 7.36634L28.9417 7.1116Z" fill="#1E1E1E"/>
<path id="Vector_447" d="M29.1096 6.96129L29.0513 7.01416L29.2942 7.28212L29.3525 7.22925L29.1096 6.96129Z" fill="#1E1E1E"/>
<path id="Vector_448" d="M29.2871 6.82236L29.2261 6.87207L29.4545 7.1525L29.5156 7.10278L29.2871 6.82236Z" fill="#1E1E1E"/>
<path id="Vector_449" d="M29.4698 6.69284L29.4062 6.73926L29.6196 7.03137L29.6831 6.98495L29.4698 6.69284Z" fill="#1E1E1E"/>
<path id="Vector_450" d="M29.6582 6.57272L29.5923 6.61572L29.7899 6.91867L29.8558 6.87566L29.6582 6.57272Z" fill="#1E1E1E"/>
<path id="Vector_451" d="M29.8537 6.46005L29.7856 6.49951L29.967 6.81248L30.0351 6.77302L29.8537 6.46005Z" fill="#1E1E1E"/>
<path id="Vector_452" d="M30.0545 6.36166L29.9844 6.39746L30.1489 6.71958L30.219 6.68377L30.0545 6.36166Z" fill="#1E1E1E"/>
<path id="Vector_453" d="M30.2623 6.27214L30.1904 6.3042L30.3378 6.63454L30.4097 6.60247L30.2623 6.27214Z" fill="#1E1E1E"/>
<path id="Vector_454" d="M30.4724 6.19346L30.3989 6.22168L30.5286 6.55934L30.6021 6.53112L30.4724 6.19346Z" fill="#1E1E1E"/>
<path id="Vector_455" d="M30.6852 6.12706L30.6104 6.15137L30.7221 6.49539L30.7969 6.47109L30.6852 6.12706Z" fill="#1E1E1E"/>
<path id="Vector_456" d="M30.9027 6.07148L30.8267 6.0918L30.92 6.44125L30.9961 6.42093L30.9027 6.07148Z" fill="#1E1E1E"/>
<path id="Vector_457" d="M31.1234 6.02914L31.0464 6.04541L31.1212 6.39931L31.1982 6.38304L31.1234 6.02914Z" fill="#1E1E1E"/>
<path id="Vector_458" d="M31.3463 5.9971L31.2686 6.00928L31.3245 6.36663L31.4023 6.35446L31.3463 5.9971Z" fill="#1E1E1E"/>
<path id="Vector_459" d="M31.5705 5.97924L31.4922 5.9873L31.5292 6.34711L31.6075 6.33905L31.5705 5.97924Z" fill="#1E1E1E"/>
<path id="Vector_460" d="M31.7949 5.96679L31.7163 5.9707L31.7343 6.33197L31.8129 6.32805L31.7949 5.96679Z" fill="#1E1E1E"/>
<path id="Vector_461" d="M31.8708 7.05664C30.1242 7.05664 28.7075 8.47334 28.7075 10.2199C28.7075 11.9665 30.1242 13.3832 31.8708 13.3832C33.6174 13.3832 35.0341 11.9665 35.0341 10.2199C35.0341 8.47334 33.6174 7.05664 31.8708 7.05664ZM31.8423 12.8541C30.3871 12.8541 29.2082 11.6752 29.2082 10.2199C29.2082 8.76472 30.3871 7.58581 31.8423 7.58581C33.2976 7.58581 34.4765 8.76472 34.4765 10.2199C34.4765 11.6752 33.2976 12.8541 31.8423 12.8541Z" fill="#3F3F3F"/>
</g>
<path id="Vector_462" d="M38.7065 6.96631C38.7065 6.96631 38.9929 7.17898 38.9745 7.5206C38.9544 7.86221 38.9494 8.79328 38.9494 8.79328L39.8453 8.55047V7.52562C39.8453 7.52562 39.7867 7.05004 39.3596 6.96631H38.7065Z" fill="#CECECE"/>
<path id="Vector_463" d="M44.8203 9.99888C44.8203 9.99888 42.7606 7.11356 38.2191 8.75131C33.6776 10.3891 33.7831 14.1385 26.0197 14.244L11.419 13.7952C11.419 13.7952 12.5544 7.90732 6.24453 7.45853C6.24453 7.45853 1.94085 7.40494 0.857388 11.6299C0.857388 11.6299 0.870785 12.2378 0 12.1574V12.5007H1.45187C1.45187 12.5007 2.01955 8.51352 5.87445 8.46161C9.72935 8.40802 10.5214 12.1842 10.3891 13.9794L10.3623 14.244L27.1032 14.7463C27.1032 14.7463 31.149 14.738 33.3343 12.9244C35.523 11.1075 40.4898 7.50039 44.8203 10.0006V9.99888Z" fill="#303030"/>
<path id="Vector_464" d="M20.2672 6.80754L18.8594 6.76846C18.803 6.76689 18.7561 6.81134 18.7545 6.86774L18.7537 6.89787C18.7521 6.95426 18.7965 7.00125 18.8529 7.00281L20.2607 7.04189C20.3171 7.04345 20.3641 6.99901 20.3657 6.94261L20.3665 6.91248C20.3681 6.85609 20.3236 6.8091 20.2672 6.80754Z" fill="#1E1E1E"/>
<path id="Vector_465" d="M10.3433 6.43496L11.7528 6.47409C11.8097 6.47567 11.8536 6.52212 11.8521 6.57903L11.8512 6.60916C11.8496 6.66608 11.8032 6.71002 11.7463 6.70844L10.3368 6.66931C10.2799 6.66773 10.236 6.62128 10.2375 6.56437L10.2384 6.53424C10.24 6.47733 10.2864 6.43338 10.3433 6.43496Z" fill="#1E1E1E"/>
<path id="Vector_466" d="M7.42822 2.39125V3.86991C7.42822 3.86991 10.0155 3.21013 11.124 0.437012L9.08606 0.597772C8.14997 0.671454 7.42822 1.45181 7.42822 2.39125Z" fill="#494949"/>
</g>
<path id="Vector_467" d="M2.31104 9.23018C2.31104 9.23018 3.87343 7.51373 6.45396 7.55392C6.45396 7.55392 9.71606 7.67114 11.1244 10.9466C11.1244 10.9466 8.34122 5.37695 2.31104 9.23185V9.23018Z" fill="#494949"/>
<path id="Vector_468" d="M44.1455 9.41601C44.1455 9.41601 41.8982 7.19215 37.5107 9.33228C37.5107 9.33228 41.0374 7.64764 44.1455 9.41601Z" fill="#494949"/>
</g>
</g>
</svg>
