<svg width="50" height="26" viewBox="0 0 50 26" fill="none" xmlns="http://www.w3.org/2000/svg">
<g id="Layer 1" filter="url(#filter0_d_2895_2184)">
<g id="Group">
<path id="Vector" d="M7.26721 14.2369C7.26721 14.3526 7.36099 14.4464 7.47681 14.4464H15.154C15.2697 14.4464 15.3635 14.3526 15.3635 14.2369C15.3635 14.1211 15.2697 14.0273 15.154 14.0273H7.47669C7.36099 14.0273 7.26709 14.1211 7.26709 14.2369H7.26721Z" fill="#3B2416"/>
<path id="Vector_2" d="M5.84796 12.5612C5.84796 13.6614 6.41225 14.1082 7.72913 14.1082H14.4068L15.8923 14.767H41.4705C41.9373 14.767 42.4472 14.4925 42.4472 14.4925L44.2736 12.5611V8.44841C44.2736 7.60092 43.6722 7.25483 43.3642 7.25483H43.0929C43.0929 7.25483 42.7743 6.33523 42.0253 6.33523H35.2631C35.2631 6.33523 31.3219 3.14255 30.531 2.49221C30.5036 2.46979 30.4802 2.45024 30.4606 2.43417C29.8763 1.95034 29.3324 1.6832 28.5413 1.6832H8.24995C7.26161 1.6832 6.94814 1.65294 6.51101 2.65498C6.074 3.6569 4.92725 7.02792 4.92725 9.79817L5.84809 12.5611L5.84796 12.5612Z" fill="#333333"/>
<path id="Vector_3" d="M41.6856 8.33057H6.78027V10.6944H41.6856V8.33057Z" fill="#2D2525"/>
<path id="Vector_4" d="M33.8286 14.8776C33.8286 14.9933 33.9224 15.0872 34.0382 15.0872H41.7154C41.8311 15.0872 41.925 14.9934 41.925 14.8776C41.925 14.7617 41.8312 14.668 41.7154 14.668H34.0382C33.9224 14.668 33.8286 14.7617 33.8286 14.8776Z" fill="#3B2416"/>
<g id="Group_2">
<path id="Vector_5" d="M6.12011 12.1313H5.03662V13.1767H6.12011V12.1313Z" fill="#3B2416"/>
<path id="Vector_6" d="M5.06125 10.0952L4.18213 10.883L5.98172 11.161L5.06125 10.0952Z" fill="#331C10"/>
</g>
<g id="Group_3">
<path id="Vector_7" d="M44.2585 10.0656L45.4882 10.8397C45.5802 11.2671 42.8359 10.9544 42.8359 10.9544L44.2585 10.0654V10.0656Z" fill="#331C10"/>
<path id="Vector_8" d="M44.4891 12.561H42.8882V13.3516H44.4891V12.561Z" fill="#3B2416"/>
</g>
<path id="Vector_9" d="M5.84796 12.5609C5.84796 13.4448 6.21224 13.907 7.03818 14.0545C7.03818 14.0545 8.01083 11.9219 8.30425 11.1651C8.59766 10.4082 9.35461 10.1288 10.1272 10.1288H13.2005C13.7617 10.1288 14.5549 10.2282 14.8257 11.2311C15.0965 12.2339 15.8922 14.7669 15.8922 14.7669H33.3292C33.3292 14.7669 34.3827 11.9034 34.6112 11.1899C34.8398 10.4764 35.3206 10.1288 36.2738 10.1288H39.5115C40.1877 10.1288 40.8345 10.4121 41.0759 11.085C41.3174 11.7579 42.447 14.4925 42.447 14.4925L44.2734 12.5611V8.44841C44.2734 6.94772 43.6976 6.33523 42.0251 6.33523H35.2628C35.2628 6.33523 31.3217 3.14255 30.5307 2.49221C30.5033 2.46979 30.4799 2.45024 30.4604 2.43417C29.876 1.95034 29.3322 1.6832 28.5411 1.6832H8.24995C7.26161 1.6832 6.94814 1.65294 6.51101 2.65498C6.074 3.6569 4.92725 7.02792 4.92725 9.79817L5.84809 12.5611L5.84796 12.5609Z" fill="#B76C29"/>
<path id="Vector_10" d="M7.9467 6.92424H12.4808C12.7737 6.92424 13.0113 6.68674 13.0113 6.39383L13.3202 3.88686C13.3202 3.59394 13.0827 3.35645 12.7898 3.35645H9.22559C8.61846 3.35645 8.29018 3.59606 8.13874 4.11402C8.0259 4.49984 7.68031 5.49117 7.51131 6.06915C7.38689 6.5439 7.65378 6.92436 7.94682 6.92436L7.9467 6.92424Z" fill="#9E5619"/>
<path id="Vector_11" d="M14.8262 6.59832C14.8262 6.7784 14.9721 6.92424 15.1521 6.92424H21.217C21.3971 6.92424 21.5429 6.7784 21.5429 6.59832L21.38 3.68236C21.38 3.5024 21.2341 3.35645 21.0541 3.35645H15.3151C15.1352 3.35645 14.9892 3.5024 14.9892 3.68236L14.8262 6.59832Z" fill="#9E5619"/>
<path id="Vector_12" d="M30.7984 6.92427H23.5409C23.248 6.92427 23.0105 6.68677 23.0105 6.39385L22.7017 3.70082C22.7017 3.40791 22.9392 3.17041 23.2321 3.17041H27.5645C27.9738 3.17041 28.4904 3.44352 28.8718 3.7733C29.2533 4.10308 31.123 5.68983 31.234 6.06906C31.3584 6.5438 31.0914 6.92427 30.7984 6.92427Z" fill="#9E5619"/>
<path id="Vector_13" d="M29.9882 3.19746C30.0741 3.27504 32.8833 5.84229 33.1928 6.13396C33.4187 6.33534 33.9291 6.33522 33.9291 6.33522H35.2633C35.2633 6.33522 31.8193 3.54878 31.0283 2.89844H30.1057C29.8934 2.89844 29.8873 3.10642 29.9881 3.19746H29.9882Z" fill="#577A7A"/>
<path id="Vector_14" d="M30.0592 3.26222C30.0197 3.22622 29.9949 3.20368 29.9881 3.19746C29.8873 3.10654 29.8934 2.89844 30.1057 2.89844H31.0283C31.8193 3.54878 35.2633 6.33522 35.2633 6.33522H34.6999C33.7403 5.55834 31.5282 3.76697 30.9144 3.26222H30.0593H30.0592Z" fill="#4D4B4C"/>
<path id="Vector_15" d="M33.1926 6.13389C32.908 5.86563 30.51 3.67362 30.0591 3.26215C30.1624 3.26215 29.9114 3.06201 30.0591 3.06201C30.2907 3.06201 33.6858 6.29231 33.6858 6.29231C33.6858 6.29231 33.4186 6.33527 33.1926 6.13389Z" fill="#4D4B4C"/>
<g id="Group_4" opacity="0.5">
<path id="Vector_16" d="M30.1055 2.93115H30.4254L34.356 6.36793H34.1077L30.1055 2.93115Z" fill="#E6E7E8"/>
</g>
<path id="Vector_17" d="M42.0808 7.146H34.4214V7.36332H42.0808V7.146Z" fill="#3B2416"/>
<path id="Vector_18" d="M41.9722 7.25459C41.9722 7.31462 42.0209 7.36319 42.0808 7.36319C42.1407 7.36319 42.1894 7.3145 42.1894 7.25459C42.1894 7.19469 42.1407 7.146 42.0808 7.146C42.0209 7.146 41.9722 7.19469 41.9722 7.25459Z" fill="#3B2416"/>
<path id="Vector_19" d="M23.9808 8.56055H24.5718C24.6494 8.46453 24.7897 8.40039 24.9501 8.40039C25.1105 8.40039 25.2508 8.46453 25.3285 8.56055H25.616C25.7116 8.56055 25.7888 8.63789 25.7888 8.73328C25.7888 8.82868 25.7114 8.90602 25.616 8.90602H25.3285C25.2508 9.00204 25.1105 9.06618 24.9503 9.06618C24.79 9.06618 24.6495 9.00204 24.5719 8.90602H23.981C23.8856 8.90602 23.8081 8.82868 23.8081 8.73328C23.8081 8.63789 23.8854 8.56055 23.981 8.56055H23.9808Z" fill="#9E5619"/>
<path id="Vector_20" d="M15.668 8.56055H16.2589C16.3366 8.46453 16.4769 8.40039 16.6373 8.40039C16.7977 8.40039 16.938 8.46453 17.0156 8.56055H17.3032C17.3986 8.56055 17.4759 8.63789 17.4759 8.73328C17.4759 8.82868 17.3986 8.90602 17.3032 8.90602H17.0156C16.938 9.00204 16.7975 9.06618 16.6373 9.06618C16.477 9.06618 16.3366 9.00204 16.2589 8.90602H15.668C15.5726 8.90602 15.4951 8.82868 15.4951 8.73328C15.4951 8.63789 15.5725 8.56055 15.668 8.56055Z" fill="#9E5619"/>
<path id="Vector_21" d="M23.975 8.45801H24.5659C24.6435 8.36199 24.784 8.29785 24.9443 8.29785C25.1046 8.29785 25.2449 8.36199 25.3226 8.45801H25.6101C25.7056 8.45801 25.7829 8.53535 25.7829 8.63074C25.7829 8.72614 25.7056 8.80348 25.6101 8.80348H25.3226C25.245 8.8995 25.1046 8.96364 24.9443 8.96364C24.784 8.96364 24.6435 8.8995 24.5659 8.80348H23.975C23.8796 8.80348 23.8022 8.72614 23.8022 8.63074C23.8022 8.53535 23.8796 8.45801 23.975 8.45801Z" fill="#3B2416"/>
<path id="Vector_22" d="M15.6616 8.45801H16.2526C16.3302 8.36199 16.4706 8.29785 16.6309 8.29785C16.7912 8.29785 16.9316 8.36199 17.0093 8.45801H17.2968C17.3922 8.45801 17.4697 8.53535 17.4697 8.63074C17.4697 8.72614 17.3923 8.80348 17.2968 8.80348H17.0093C16.9317 8.8995 16.7912 8.96364 16.6309 8.96364C16.4706 8.96364 16.3303 8.8995 16.2526 8.80348H15.6616C15.5662 8.80348 15.4888 8.72614 15.4888 8.63074C15.4888 8.53535 15.5662 8.45801 15.6616 8.45801Z" fill="#3B2416"/>
<path id="Vector_23" d="M14.0373 7.33398H32.9457L33.0514 7.77759H13.8623L14.0373 7.33398Z" fill="#9E5619"/>
<path id="Vector_24" d="M13.7397 8.02909H33.0515L32.9675 7.44238H14.033L13.7397 8.02909Z" fill="#D19766"/>
<path id="Vector_25" d="M15.9512 12.0718H32.7902L32.6768 12.5154H16.0767L15.9512 12.0718Z" fill="#9E5619"/>
<path id="Vector_26" d="M16.1616 12.7664H32.593L32.7621 12.1797H15.9849L16.1616 12.7664Z" fill="#D19766"/>
<path id="Vector_27" d="M16.4907 13.8442H32.1476L32.0703 14.0061H16.5481L16.4907 13.8442Z" fill="#9E5619"/>
<path id="Vector_28" d="M16.5674 14.1079H32.0703L31.9929 14.2698H16.6248L16.5674 14.1079Z" fill="#D19766"/>
<path id="Vector_29" d="M43.0706 13.8882L43 13.9153L43.0553 13.8481C43.0629 13.8681 43.0681 13.8816 43.0706 13.8884V13.8882Z" fill="#3B2416"/>
<path id="Vector_30" d="M32.4995 14.7671H32.5922L32.5811 14.7971L32.4995 14.7671Z" fill="#3B2416"/>
<g id="Group_5">
<path id="Vector_31" d="M39.7184 9.24369H35.9295C34.9911 9.24369 34.4387 9.29985 33.9962 10.4537L32.4179 14.7369L32.4995 14.7669H32.1753L33.7933 10.3759C34.276 9.11716 34.9224 9.02637 35.9295 9.02637H39.7184C40.8063 9.02637 41.5831 9.45553 41.9058 10.2355C41.9247 10.2817 42.2202 11.054 42.5353 11.8782C42.7975 12.5639 43.0676 13.138 44.1359 12.5919L43.0553 13.8479C42.9002 13.4418 41.7414 10.4074 41.7046 10.3177C41.418 9.6249 40.7126 9.24369 39.7184 9.24369Z" fill="#9E5619"/>
<path id="Vector_32" d="M32.4993 14.4849H16.6816V14.7666H32.4993V14.4849Z" fill="#9E5619"/>
</g>
<path id="Vector_33" d="M32.5811 14.7968L34.159 10.5148C34.5619 9.46409 35.0181 9.41751 35.9296 9.41751H39.7184C40.3688 9.41751 41.2134 9.58514 41.5439 10.3838C41.5814 10.4757 42.8949 13.9154 42.9083 13.9501L43.0707 13.8881C43.0165 13.7461 41.7432 10.4118 41.7047 10.3177C41.418 9.62487 40.7126 9.24365 39.7184 9.24365H35.9296C34.9912 9.24365 34.4387 9.29982 33.9963 10.4537L32.418 14.7368L32.5811 14.797V14.7968Z" fill="#3B2416"/>
<path id="Vector_34" d="M33.3779 6.29248L35.2631 6.33258H42.0253C42.4267 6.33258 43.6632 6.5966 43.8346 6.8417H34.0301L33.3779 6.29248Z" fill="#D19766"/>
<path id="Vector_35" d="M34.6687 7.89919C34.6687 7.89919 34.8683 8.08886 35.7027 8.08886C35.4831 7.9769 34.8178 7.74115 34.8178 7.74115C34.4847 7.42719 30.0942 3.4189 30.0609 3.38888C30.0385 3.36858 29.9182 2.84353 29.8664 2.89857C29.845 2.92136 29.8311 2.94976 29.8161 2.9789C29.6694 3.26235 29.8257 3.46921 29.9153 3.55016C29.9485 3.58005 34.3586 7.60702 34.6687 7.89919Z" fill="#9E5619"/>
<path id="Vector_36" d="M35.2631 6.20459H33.4492V6.46537H35.2631V6.20459Z" fill="#3B2416"/>
<path id="Vector_37" d="M34.9785 7.73584H44.2258L44.2013 7.97695H35.4381C35.2122 7.97695 34.9785 7.73584 34.9785 7.73584Z" fill="#9E5619"/>
<path id="Vector_38" d="M36.0078 8.08549H44.2015V7.86817H36.0078C35.5548 7.86817 35.2554 7.86817 34.8164 7.46777L34.6699 7.6283C35.1711 8.08549 35.5403 8.08549 36.0077 8.08549H36.0078Z" fill="#3B2416"/>
<path id="Vector_39" d="M5.24283 10.3533H5.53637C5.88944 10.3533 6.17563 10.0671 6.17563 9.71408V7.54697C6.17563 7.19391 5.88931 6.90771 5.53637 6.90771H5.24283C4.88976 6.90771 4.88976 10.3533 5.24283 10.3533Z" fill="#9E5619"/>
<path id="Vector_40" d="M8.78223 8.03595C8.78223 8.43547 9.10665 8.75927 9.50679 8.75927C9.64603 8.75927 9.77592 8.72016 9.88639 8.65229C10.0934 8.52489 9.90706 7.3125 9.50679 7.3125C9.39558 7.3125 9.29035 7.33753 9.19619 7.38224C8.95148 7.49831 8.78223 7.74739 8.78223 8.03595Z" fill="#9E5619"/>
<g id="Group_6" opacity="0.4">
<path id="Vector_41" d="M9.84961 7.86861C9.84961 7.96587 9.92844 8.0447 10.0257 8.0447C10.123 8.0447 10.2019 7.96587 10.2019 7.86861C10.2019 7.77134 10.1231 7.69238 10.0257 7.69238C9.92832 7.69238 9.84961 7.77122 9.84961 7.86861Z" fill="white"/>
</g>
<path id="Vector_42" d="M8.89307 7.9568C8.89307 7.52178 9.24701 7.16797 9.6819 7.16797C10.1168 7.16797 10.4709 7.52191 10.4709 7.9568C10.4709 8.39169 10.1169 8.74563 9.6819 8.74563C9.24688 8.74563 8.89307 8.39169 8.89307 7.9568ZM9.11039 7.9568C9.11039 8.27201 9.36681 8.52843 9.68202 8.52843C9.99723 8.52843 10.2537 8.27201 10.2537 7.9568C10.2537 7.64159 9.99723 7.38516 9.68202 7.38516C9.36681 7.38516 9.11039 7.64159 9.11039 7.9568Z" fill="#3B2416"/>
<path id="Vector_43" d="M9.18057 8.32998C9.38644 8.32998 9.55382 8.16248 9.55382 7.95674C9.55382 7.751 9.38631 7.5835 9.18057 7.5835C9.11008 7.5835 9.04146 7.6033 8.98193 7.64066L9.09763 7.8246C9.12241 7.80904 9.15106 7.80082 9.18045 7.80082C9.26651 7.80082 9.33637 7.87081 9.33637 7.95674C9.33637 8.04267 9.26638 8.11266 9.18045 8.11266C9.15106 8.11266 9.12241 8.10444 9.09763 8.08888L8.98206 8.27282C9.04146 8.31018 9.11008 8.32998 9.18045 8.32998H9.18057Z" fill="#3B2416"/>
<g id="Group_7">
<path id="Vector_44" d="M7.9467 6.65227H12.4808C12.7737 6.65227 13.0113 6.41477 13.0113 6.12186L13.3202 3.61488C13.3202 3.32197 13.0827 3.08447 12.7898 3.08447H9.22559C8.61846 3.08447 8.29018 3.32409 8.13874 3.84204C8.0259 4.22787 7.68031 5.2192 7.51131 5.79706C7.38689 6.27192 7.65378 6.65227 7.94682 6.65227H7.9467Z" fill="#4D4B4C"/>
<path id="Vector_45" d="M8.38477 6.65264H12.1091C12.3497 6.65264 12.5447 6.4606 12.5447 6.22373L12.7984 4.19698C12.7984 3.96011 12.6034 3.76807 12.3628 3.76807H9.43525C8.9366 3.76807 8.66697 3.96185 8.54256 4.38055C8.4499 4.69252 8.16595 5.49393 8.02721 5.96107C7.92497 6.34503 8.14428 6.65252 8.38489 6.65252L8.38477 6.65264Z" fill="#577A7A"/>
<g id="Group_8" opacity="0.5">
<path id="Vector_46" d="M9.76367 3.08447H10.7874L11.8773 6.65239H10.8538L9.76367 3.08447Z" fill="#E6E7E8"/>
</g>
<g id="Group_9" opacity="0.5">
<path id="Vector_47" d="M9.18506 3.08447H9.39777L10.4879 6.65239H10.2751L9.18506 3.08447Z" fill="#E6E7E8"/>
</g>
<path id="Vector_48" d="M7.53299 6.53952C7.37931 6.34026 7.33174 6.05245 7.40596 5.76937L7.40671 5.76638C7.50024 5.44656 7.64832 4.99847 7.77908 4.60306C7.88444 4.28424 7.98395 3.98298 8.03426 3.81137C8.2009 3.24123 8.57937 2.97559 9.22536 2.97559H12.7895C13.142 2.97559 13.4287 3.26227 13.4287 3.61472V3.62132L13.1197 6.12854C13.116 6.47775 12.8308 6.7607 12.4806 6.7607H7.94646C7.79216 6.7607 7.64147 6.68 7.53287 6.53939L7.53299 6.53952ZM12.7895 3.19291H9.22536C8.67589 3.19291 8.3821 3.39615 8.24287 3.87227C8.19156 4.04762 8.09143 4.3505 7.98544 4.67118C7.85555 5.06423 7.70822 5.50971 7.61581 5.82579C7.55915 6.0436 7.59252 6.26068 7.70511 6.40664C7.77223 6.49356 7.86016 6.54338 7.94659 6.54338H12.4807C12.7133 6.54338 12.9026 6.35421 12.9026 6.12157V6.11484L13.2115 3.60824C13.2081 3.37859 13.0202 3.19278 12.7897 3.19278L12.7895 3.19291Z" fill="#3B2416"/>
<g id="Group_10" opacity="0.4">
<path id="Vector_49" d="M9.2207 4.12206C9.2207 4.27151 9.34176 4.39256 9.4912 4.39256C9.64065 4.39256 9.7617 4.27138 9.7617 4.12206C9.7617 3.97274 9.64052 3.85156 9.4912 3.85156C9.34188 3.85156 9.2207 3.97261 9.2207 4.12206Z" fill="white"/>
</g>
<g id="Group_11" opacity="0.4">
<path id="Vector_50" d="M8.69385 5.3982C8.69385 5.59223 8.85114 5.74952 9.0453 5.74952C9.23945 5.74952 9.39662 5.59223 9.39662 5.3982C9.39662 5.20417 9.23933 5.04688 9.0453 5.04688C8.85126 5.04688 8.69385 5.20417 8.69385 5.3982Z" fill="white"/>
</g>
</g>
<g id="Group_12">
<path id="Vector_51" d="M14.8257 6.32635C14.8257 6.50631 14.9716 6.65227 15.1516 6.65227H21.2165C21.3966 6.65227 21.5424 6.50631 21.5424 6.32635L21.3796 3.41039C21.3796 3.23043 21.2336 3.08447 21.0536 3.08447H15.3146C15.1347 3.08447 14.9887 3.23043 14.9887 3.41039L14.8257 6.32635Z" fill="#4D4B4C"/>
<path id="Vector_52" d="M15.4014 6.38911C15.4014 6.5347 15.5223 6.65264 15.6714 6.65264H20.6965C20.8457 6.65264 20.9666 6.5347 20.9666 6.38911L20.8316 4.03159C20.8316 3.886 20.7107 3.76807 20.5616 3.76807H15.8065C15.6574 3.76807 15.5365 3.886 15.5365 4.03159L15.4015 6.38911H15.4014Z" fill="#577A7A"/>
<g id="Group_13" opacity="0.5">
<path id="Vector_53" d="M16.4751 3.08447H17.4987L18.5888 6.65239H17.5651L16.4751 3.08447Z" fill="#E6E7E8"/>
</g>
<g id="Group_14" opacity="0.5">
<path id="Vector_54" d="M15.897 3.08447H16.1097L17.1998 6.65239H16.9871L15.897 3.08447Z" fill="#E6E7E8"/>
</g>
<g id="Group_15" opacity="0.5">
<path id="Vector_55" d="M19.106 3.08447H19.546L20.636 6.65239H20.196L19.106 3.08447Z" fill="#E6E7E8"/>
</g>
<g id="Group_16" opacity="0.5">
<path id="Vector_56" d="M18.6816 3.08447H18.8944L19.9844 6.65239H19.7717L18.6816 3.08447Z" fill="#E6E7E8"/>
</g>
<path id="Vector_57" d="M14.7173 6.32655V6.32356L14.8803 3.40735C14.8821 3.16923 15.0763 2.97607 15.3148 2.97607H21.0538C21.2924 2.97607 21.4866 3.16923 21.4883 3.40735L21.6511 6.32057V6.32667C21.6512 6.56629 21.4563 6.76131 21.2167 6.76131H15.1518C14.9122 6.76131 14.7173 6.56641 14.7173 6.32667V6.32655ZM21.2713 3.41657V3.41047C21.2712 3.29066 21.1736 3.19315 21.0538 3.19315H15.3148C15.195 3.19315 15.0975 3.29066 15.0975 3.41047V3.41346L14.9346 6.32916C14.9361 6.44772 15.033 6.54374 15.1519 6.54374H21.2169C21.3358 6.54374 21.4327 6.44772 21.4342 6.32916L21.2714 3.41644L21.2713 3.41657Z" fill="#3B2416"/>
<g id="Group_17" opacity="0.4">
<path id="Vector_58" d="M15.4849 5.49207C15.4849 5.68611 15.6422 5.8434 15.8362 5.8434C16.0302 5.8434 16.1875 5.68611 16.1875 5.49207C16.1875 5.29804 16.0302 5.14062 15.8362 5.14062C15.6422 5.14062 15.4849 5.29792 15.4849 5.49207Z" fill="white"/>
</g>
</g>
<path id="Vector_59" d="M34.6686 7.62702L34.8176 7.46886C34.4866 7.15701 30.094 3.14673 30.0607 3.11659C30.0382 3.09629 30.0271 3.05856 30.0364 3.03415C30.0452 3.0116 30.0788 3.00687 30.1056 3.00687H30.9893C31.8252 3.69308 35.1609 6.39197 35.1949 6.41949L35.3315 6.25049C35.2971 6.22259 31.8788 3.45696 31.0972 2.81433L31.0671 2.78955H30.1056C29.9754 2.78955 29.8738 2.85182 29.8337 2.95606C29.792 3.06453 29.8255 3.19679 29.9151 3.27787C29.9484 3.30788 34.338 7.31542 34.6686 7.6269V7.62702Z" fill="#3B2416"/>
<g id="Group_18" opacity="0.4">
<path id="Vector_60" d="M7.20658 2.46899C6.98067 2.63052 6.91977 2.84834 7.07071 2.95544C7.22152 3.06267 7.52714 3.01858 7.75306 2.85706C7.97897 2.69553 8.03987 2.47771 7.88893 2.37061C7.73811 2.26338 7.43249 2.30746 7.20658 2.46899Z" fill="white"/>
</g>
<path id="Vector_61" d="M33.452 14.811L34.7355 11.2299C34.9535 10.5496 35.4136 10.2593 36.2741 10.2593H39.5117C39.8513 10.2593 40.6718 10.3441 40.9534 11.1291L40.9551 11.1337L42.3262 14.5412L42.5681 14.4438L41.198 11.0386C40.9631 10.3872 40.3328 9.99854 39.5116 9.99854H36.2739C35.2942 9.99854 34.7434 10.3531 34.4878 11.148L33.2065 14.7229L33.452 14.811Z" fill="#3B2416"/>
<path id="Vector_62" d="M42.5233 14.4421L41.1696 11.0603C40.9359 10.409 40.3089 10.0202 39.4919 10.0202H36.271C35.2963 10.0202 34.7482 10.3747 34.494 11.1697L33.2193 14.7446L33.281 14.7669H33.0337L34.3235 11.1497C34.5877 10.3234 35.2634 9.84619 36.2708 9.84619H39.4918C40.3367 9.84619 40.9864 10.3594 41.23 11.0369L42.5931 14.4419H42.5231L42.5233 14.4421Z" fill="#D19766"/>
<path id="Vector_63" d="M8.25015 1.68323H28.1582C29.4169 1.68323 29.562 1.80976 30.0425 2.11551H22.2461C21.6382 2.11003 21.0144 2.10367 20.3809 2.09558C15.8927 2.03829 8.55627 2.15785 7.78189 2.15785C7.0075 2.15785 6.66925 2.76983 6.36426 3.01418C6.80849 2.10666 6.83987 1.68311 8.25003 1.68311L8.25015 1.68323Z" fill="#D19766"/>
<path id="Vector_64" d="M15.9701 14.7426L15.9731 14.7281C15.9651 14.7028 15.1752 12.1862 14.9081 11.1974C14.618 10.123 13.8133 10.0422 13.2006 10.0422H10.1273C9.1674 10.0422 8.50211 10.4068 8.22626 11.1183C7.93757 11.863 6.9729 13.9795 6.96318 14.0007L7.04563 14.0583H6.88846L6.83316 14.033L6.75146 13.9737C6.76118 13.9524 7.72349 11.8417 8.01317 11.0946C8.29924 10.3567 9.13888 9.82471 10.1272 9.82471H13.2005C13.8346 9.82471 14.7126 10.0627 15.0145 11.1803C15.2801 12.1639 16.0708 14.6832 16.0787 14.7084L16.0894 14.7425H15.97L15.9701 14.7426Z" fill="#D19766"/>
<path id="Vector_65" d="M15.7678 14.806L16.0165 14.7279C16.0085 14.7026 15.2186 12.1861 14.9516 11.1972C14.6614 10.1228 13.8133 9.99854 13.2004 9.99854H10.1272C9.16724 9.99854 8.45849 10.4066 8.18263 11.1181C7.89383 11.8629 6.92927 13.9793 6.91943 14.0006L7.15668 14.1088C7.16639 14.0875 8.13419 11.9641 8.42573 11.2123C8.74729 10.383 9.62978 10.2592 10.1272 10.2592H13.2004C13.7721 10.2592 14.459 10.3735 14.6998 11.2651C14.9681 12.259 15.7597 14.7806 15.7677 14.806H15.7678Z" fill="#3B2416"/>
<path id="Vector_66" d="M14.5681 9.49077C14.2234 9.34133 13.8058 9.26548 13.3272 9.26548H9.61084C8.60755 9.26548 8.03853 9.29985 7.56441 10.4518C7.2857 11.129 6.70198 12.6113 6.26136 13.7357C6.26136 13.7357 5.78214 13.1977 5.84802 12.561C6.01477 13.0513 6.25601 13.0988 6.33534 12.8972C6.46424 12.5695 6.59637 12.234 6.7234 11.9129C6.96999 11.2897 7.1969 10.721 7.34186 10.369C7.58994 9.76625 7.88087 9.41169 8.28512 9.2194C8.66135 9.04056 9.08989 9.02637 9.61096 9.02637H13.3273C13.836 9.02637 14.2824 9.10819 14.6547 9.26959C15.1237 9.47296 15.4589 9.79515 15.6507 10.2272C15.9403 10.8794 17.0111 14.5264 17.0565 14.6813L16.8263 14.7425C16.7809 14.588 15.7138 10.9537 15.4304 10.3153C15.2614 9.93475 14.9857 9.67173 14.5682 9.49065L14.5681 9.49077Z" fill="#9E5619"/>
<path id="Vector_67" d="M16.6813 14.7914L16.8481 14.7424C16.8028 14.588 15.7356 10.9537 15.4521 10.3153C15.2831 9.93472 14.9857 9.6499 14.5682 9.46894C14.2234 9.3195 13.8059 9.24365 13.3273 9.24365H9.61089C8.60761 9.24365 8.01692 9.29982 7.5428 10.4518C7.26408 11.1289 6.68037 12.6113 6.23975 13.7357L6.40165 13.799C6.84214 12.6753 7.42536 11.1939 7.70358 10.5179C7.90981 10.0167 8.13847 9.72686 8.44459 9.57841C8.75195 9.42934 9.13814 9.41751 9.61089 9.41751H13.3273C14.0279 9.41751 14.9378 9.58551 15.2932 10.3859C15.5721 11.0137 16.6701 14.7536 16.6812 14.7914H16.6813Z" fill="#3B2416"/>
<path id="Vector_68" d="M16.5789 14.1396H32.1055L32.1308 14.0973C32.7097 13.1288 33.1033 11.5247 33.184 9.80681C33.2611 8.16464 33.0414 6.83506 32.6109 6.33678L32.6064 6.33205C32.1866 5.91459 31.8035 5.51507 31.4331 5.1285C30.6731 4.33556 30.0165 3.65072 29.3658 3.15356C28.6465 2.6041 28.0001 2.34256 27.3321 2.33048C25.8792 2.30421 19.0817 2.31915 16.5226 2.32475C15.983 2.32588 15.6151 2.32675 15.4996 2.32675C14.8294 2.32675 14.2236 2.38777 14.1744 3.12492C14.1327 3.7506 13.9613 7.13943 13.9471 7.4199L13.6528 8.00859V9.3307H13.8267V8.04957L14.119 7.46498L14.1199 7.4468C14.1217 7.41031 14.3047 3.78448 14.348 3.1365C14.3841 2.59575 14.7482 2.5006 15.4997 2.5006C15.6153 2.5006 15.9833 2.49986 16.5232 2.49861C19.0817 2.49301 25.878 2.47806 27.3291 2.50434C28.701 2.52925 29.7945 3.6699 31.3079 5.24881C31.6784 5.63525 32.0613 6.0349 32.4816 6.45285C32.8769 6.91377 33.0844 8.22616 33.0106 9.79859C32.9323 11.4643 32.5579 13.0163 32.0068 13.9658H16.5789V14.1396Z" fill="#3B2416"/>
<path id="Vector_69" d="M22.3964 14.054L22.5702 14.0511L22.4602 7.43848L22.4599 7.43599L22.0944 2.40723L21.9209 2.41981L22.2864 7.4462L22.3964 14.054Z" fill="#3B2416"/>
<g id="Group_19">
<path id="Vector_70" d="M30.7994 6.66499H23.5419C23.249 6.66499 23.0115 6.42749 23.0115 6.13458L22.7026 3.44154C22.7026 3.14863 22.9401 2.91113 23.233 2.91113H27.5655C27.9747 2.91113 28.4913 3.18425 28.8728 3.51403C29.2543 3.84381 31.1241 5.43056 31.2351 5.80978C31.3595 6.28465 31.0925 6.66499 30.7995 6.66499H30.7994Z" fill="#4D4B4C"/>
<path id="Vector_71" d="M30.1039 6.66472H24.1696C23.9301 6.66472 23.736 6.48215 23.736 6.25711L23.4834 4.18789C23.4834 3.96272 23.6776 3.78027 23.9172 3.78027H27.4597C27.7943 3.78027 28.2168 3.99012 28.5286 4.24356C28.8404 4.497 30.3694 5.71623 30.4601 6.00765C30.5618 6.37255 30.3435 6.66485 30.104 6.66485L30.1039 6.66472Z" fill="#577A7A"/>
<path id="Vector_72" d="M24.1727 5.2278C24.8772 5.16703 25.2092 5.86818 25.5379 6.62451C24.7711 6.69786 23.7626 6.65988 23.7626 6.65988C23.7626 6.65988 23.2008 5.31162 24.1727 5.22793V5.2278Z" fill="#3B2416"/>
<path id="Vector_73" d="M27.6895 6.6651C27.6917 6.66136 27.6938 6.65775 27.6963 6.65414L28.9819 4.79402C29.0331 4.71992 29.1346 4.70137 29.2087 4.75255C29.2828 4.80374 29.3012 4.90524 29.2502 4.97934L28.0851 6.6651H27.6896H27.6895Z" fill="#3B2416"/>
<path id="Vector_74" d="M23.9395 3.86294C24.066 3.83716 24.2411 4.05174 24.3305 4.34229C24.4199 4.63296 24.39 4.88951 24.2635 4.91529L23.6838 5.03373C23.5573 5.05951 23.3822 4.84493 23.2927 4.55426C23.2033 4.26358 23.2332 4.00716 23.3597 3.98138L23.9395 3.86282V3.86294Z" fill="#3B2416"/>
<path id="Vector_75" d="M23.9954 5.49416L23.6835 4.59424L23.5723 4.65975L23.8842 5.55967L23.9954 5.49416Z" fill="#3B2416"/>
<path id="Vector_76" d="M24.2581 5.32814L23.9462 4.42822L23.835 4.49373L24.1469 5.39377L24.2581 5.32814Z" fill="#3B2416"/>
<g id="Group_20" opacity="0.4">
<path id="Vector_77" d="M27.3384 3.86793C27.3384 4.06196 27.4958 4.21925 27.6897 4.21925C27.8836 4.21925 28.041 4.06196 28.041 3.86793C28.041 3.67389 27.8837 3.5166 27.6897 3.5166C27.4957 3.5166 27.3384 3.67389 27.3384 3.86793Z" fill="white"/>
</g>
<g id="Group_21" opacity="0.5">
<path id="Vector_78" d="M24.0073 2.91113H24.4473L25.7501 6.66499H25.31L24.0073 2.91113Z" fill="#E6E7E8"/>
</g>
<g id="Group_22" opacity="0.5">
<path id="Vector_79" d="M24.667 2.91113H26.8563L28.1589 6.66499H25.9697L24.667 2.91113Z" fill="#E6E7E8"/>
</g>
<g id="Group_23" opacity="0.5">
<path id="Vector_80" d="M23.5835 2.91113H23.7961L25.0989 6.66499H24.8862L23.5835 2.91113Z" fill="#E6E7E8"/>
</g>
<path id="Vector_81" d="M22.9027 6.14089L22.5945 3.45383L22.5938 3.44138C22.5938 3.08894 22.8804 2.80225 23.2329 2.80225H27.5653C28.0449 2.80225 28.5918 3.12729 28.9437 3.43154C28.9708 3.45496 29.0053 3.4846 29.0461 3.51972C30.5544 4.81716 31.2617 5.51396 31.3391 5.77898L31.34 5.78197C31.4141 6.06492 31.3667 6.35285 31.2128 6.55212C31.1042 6.69272 30.9536 6.77342 30.7993 6.77342H23.5417C23.1915 6.77342 22.9062 6.49022 22.9026 6.14076L22.9027 6.14089ZM30.1932 4.82613C29.7097 4.37729 29.1658 3.9094 28.9044 3.68448C28.8634 3.64924 28.8288 3.61935 28.8016 3.59593C28.3966 3.24573 27.9113 3.01957 27.5653 3.01957H23.2329C23.0022 3.01957 22.8142 3.20563 22.8111 3.43553L23.1192 6.12196L23.1199 6.13429C23.1199 6.36693 23.3091 6.5561 23.5417 6.5561H30.7993C30.8857 6.5561 30.9736 6.50629 31.0407 6.41923C31.1533 6.27327 31.1867 6.05645 31.1302 5.83876C31.1113 5.77761 30.9816 5.55767 30.1932 4.82601V4.82613Z" fill="#3B2416"/>
</g>
<g id="Group_24">
<g id="Group_25">
<path id="Vector_82" d="M30.5417 4.79199H30.9166C30.6793 4.79199 30.487 4.98428 30.487 5.2214V5.93837C30.487 6.17562 30.6793 6.36791 30.9166 6.36791H30.5417C30.3046 6.36791 30.1123 6.17562 30.1123 5.93837V5.2214C30.1123 4.98428 30.3046 4.79199 30.5417 4.79199Z" fill="#777474"/>
<path id="Vector_83" d="M30.4873 5.93837V5.2214C30.4873 4.98428 30.6796 4.79199 30.9168 4.79199H31.175C31.4123 4.79199 31.6045 4.98428 31.6045 5.2214V5.93837C31.6045 6.17562 31.4123 6.36791 31.175 6.36791H30.9168C30.6796 6.36791 30.4873 6.17562 30.4873 5.93837Z" fill="#4D4B4B"/>
</g>
<g id="Group_26">
<path id="Vector_84" d="M29.9121 5.93821V5.22124C29.9121 4.92459 30.1535 4.68311 30.4502 4.68311H31.0833C31.38 4.68311 31.6214 4.92446 31.6214 5.22124V5.93821C31.6214 6.23499 31.38 6.47634 31.0833 6.47634H30.4502C30.1536 6.47634 29.9121 6.23499 29.9121 5.93821ZM30.4502 4.90043C30.2734 4.90043 30.1294 5.04439 30.1294 5.22124V5.93821C30.1294 6.11518 30.2734 6.25902 30.4502 6.25902H31.0833C31.2602 6.25902 31.4042 6.11506 31.4042 5.93821V5.22124C31.4042 5.04439 31.2602 4.90043 31.0833 4.90043H30.4502Z" fill="#3B2416"/>
<path id="Vector_85" d="M31.5147 6.43213H31.8459C31.9698 6.43213 32.0705 6.53276 32.0705 6.6568V7.03191C32.0705 7.15583 31.9699 7.25658 31.8459 7.25658H31.5147C31.3907 7.25658 31.29 7.15595 31.29 7.03191V6.6568C31.29 6.53276 31.3907 6.43213 31.5147 6.43213Z" fill="#3B2416"/>
<path id="Vector_86" d="M31.4135 6.23441L31.2314 6.35303L31.5892 6.90223L31.7713 6.78362L31.4135 6.23441Z" fill="#3B2416"/>
</g>
</g>
<path id="Vector_87" d="M5.04919 6.47902V0.27685C5.01681 0.247833 4.99626 0.205738 4.99626 0.158787C4.99626 0.0711118 5.06737 0 5.15492 0C5.24247 0 5.31371 0.0711118 5.31371 0.158787C5.31371 0.205738 5.29316 0.247833 5.26078 0.27685V6.47902H5.42654V7.14941H4.8833V6.47902H5.04906H5.04919Z" fill="#3B2416"/>
<g id="Group_27">
<path id="Vector_88" d="M22.3797 1.15527H21.1934V1.68307H22.3797V1.15527Z" fill="#3B2416"/>
<path id="Vector_89" d="M17.1414 1.15527H15.9551V1.68307H17.1414V1.15527Z" fill="#3B2416"/>
<path id="Vector_90" d="M14.0324 0.742094C14.0324 0.442453 14.2761 0.19873 14.5757 0.19873H15.1655L15.9159 0.528634H22.3498L22.9817 0.19873H23.6352C23.9348 0.19873 24.1785 0.442578 24.1785 0.742094C24.1785 1.04161 23.9348 1.28558 23.6352 1.28558H14.5756C14.2759 1.28558 14.0322 1.04174 14.0322 0.742094H14.0324ZM23.0457 0.459391L22.4138 0.789295H15.8611L15.1107 0.459391H14.5757C14.4198 0.459391 14.293 0.586171 14.293 0.742094C14.293 0.898017 14.4198 1.0248 14.5757 1.0248H23.6353C23.7912 1.0248 23.918 0.898017 23.918 0.742094C23.918 0.586171 23.7912 0.459391 23.6353 0.459391H23.0457Z" fill="#3B2416"/>
</g>
<path id="Vector_91" d="M4.79688 9.79833V9.8195L5.71784 12.5825C5.7217 13.1659 5.8836 13.5801 6.21251 13.8483C6.53905 14.1146 7.02102 14.2386 7.72927 14.2386H14.3793L15.8648 14.8975H41.4706C41.9646 14.8975 42.4871 14.6194 42.509 14.6075L42.5276 14.5976L44.4039 12.6132V8.4487C44.4039 7.59984 44.2498 7.06881 43.9046 6.72695C43.54 6.36603 42.9604 6.20513 42.0252 6.20513H35.3092C34.9115 5.88295 31.3549 3.00136 30.6137 2.39174C30.5964 2.37755 30.5807 2.36459 30.5666 2.35301L30.5433 2.33383C29.8739 1.77939 29.2938 1.55322 28.5412 1.55322H8.08782C7.62603 1.55322 7.32701 1.56294 7.06959 1.69993C6.80718 1.83941 6.61079 2.10107 6.39172 2.60321C5.8714 3.7963 4.797 7.12473 4.797 9.79858L4.79688 9.79833ZM5.05766 9.77728C5.06364 6.88872 6.29906 3.46726 6.63059 2.70733C7.02039 1.81376 7.26785 1.81376 8.08782 1.81376H8.25009H28.5412C29.3426 1.81376 29.8549 2.10194 30.3774 2.53471L30.4006 2.55377C30.4151 2.5656 30.431 2.5788 30.4486 2.59325C31.2305 3.23624 35.1417 6.40464 35.1812 6.43665L35.217 6.46567H42.0255C42.8865 6.46567 43.4096 6.60341 43.7214 6.91214C44.0132 7.20107 44.1434 7.67481 44.1434 8.44845V12.5092L42.3679 14.3868C42.2769 14.4328 41.8517 14.6365 41.4708 14.6365H15.92L14.4345 13.9777H7.72927C6.46943 13.9777 5.9785 13.5805 5.9785 12.5611V12.5399L5.05766 9.77716V9.77728Z" fill="#3B2416"/>
<g id="Group_28">
<g id="Group_29">
<path id="Vector_92" d="M4.54304 10.854H5.92953C6.16939 10.854 6.36417 11.0488 6.36417 11.2886V12.0746C6.36417 12.3145 6.16939 12.5093 5.92953 12.5093H4.54304C4.30318 12.5093 4.1084 12.3145 4.1084 12.0746V11.2886C4.1084 11.0488 4.30305 10.8541 4.54292 10.8541L4.54304 10.854Z" fill="#4D4B4B"/>
<path id="Vector_93" d="M5.98134 12.0142C5.98134 12.158 5.81981 12.2744 5.62043 12.2744H4.46931C4.26993 12.2744 4.1084 12.158 4.1084 12.0142V11.5435C4.1084 11.3998 4.26993 11.2832 4.46931 11.2832H5.62055C5.81981 11.2832 5.98147 11.3998 5.98147 11.5435V12.0142H5.98134Z" fill="#777474"/>
<path id="Vector_94" d="M4 12.0744V11.2884C4 10.9888 4.2436 10.7451 4.54324 10.7451H5.92973C6.22925 10.7451 6.47297 10.9888 6.47297 11.2884V12.0744C6.47297 12.374 6.22925 12.6177 5.92973 12.6177H4.54324C4.24372 12.6177 4 12.374 4 12.0744ZM4.54324 10.9624C4.3634 10.9624 4.21732 11.1086 4.21732 11.2884V12.0744C4.21732 12.2542 4.36353 12.4004 4.54324 12.4004H5.92973C6.10944 12.4004 6.25565 12.2542 6.25565 12.0744V11.2884C6.25565 11.1086 6.10944 10.9624 5.92973 10.9624H4.54324Z" fill="#3B2416"/>
<g id="Group_30" opacity="0.4">
<path id="Vector_95" d="M4.98848 11.3597C4.98848 11.5088 4.85385 11.6296 4.68784 11.6296C4.52183 11.6296 4.38721 11.5088 4.38721 11.3597C4.38721 11.2106 4.52171 11.0898 4.68784 11.0898C4.85398 11.0898 4.98848 11.2106 4.98848 11.3597Z" fill="white"/>
</g>
<g id="Group_31" opacity="0.4">
<path id="Vector_96" d="M5.48175 11.3597C5.48175 11.4414 5.40802 11.5076 5.31698 11.5076C5.22595 11.5076 5.15234 11.4414 5.15234 11.3597C5.15234 11.278 5.22607 11.2119 5.31698 11.2119C5.4079 11.2119 5.48175 11.2782 5.48175 11.3597Z" fill="white"/>
</g>
</g>
<g id="Group_32">
<path id="Vector_97" d="M5.03738 7.16699H5.28671C5.5866 7.16699 5.82995 7.41047 5.82995 7.71023V9.55167C5.82995 9.85143 5.58647 10.0949 5.28671 10.0949H5.03738C4.73749 10.0949 4.49414 9.85143 4.49414 9.55167V7.71023C4.49414 7.41034 4.73761 7.16699 5.03738 7.16699Z" fill="#E91A21"/>
<path id="Vector_98" d="M5.03738 9.24197H5.28671C5.58672 9.24197 5.82995 8.99874 5.82995 8.69873V9.55182C5.82995 9.85184 5.58672 10.0951 5.28671 10.0951H5.03738C4.73737 10.0951 4.49414 9.85184 4.49414 9.55182V8.69873C4.49414 8.99874 4.73737 9.24197 5.03738 9.24197Z" fill="#BC1925"/>
<g id="Group_33" opacity="0.8">
<path id="Vector_99" d="M4.49219 8.97865C4.49219 9.09173 4.57575 9.18351 4.67887 9.18351H4.76455C4.86755 9.18351 4.95124 9.09173 4.95124 8.97865V8.28397C4.95124 8.17076 4.86767 8.0791 4.76455 8.0791H4.67887C4.57575 8.0791 4.49219 8.17089 4.49219 8.28397V8.97865Z" fill="white"/>
</g>
<path id="Vector_100" d="M4.38574 9.55187V7.71043C4.38574 7.35089 4.67816 7.05859 5.03758 7.05859H5.28691C5.64633 7.05859 5.93874 7.35101 5.93874 7.71043V9.55187C5.93874 9.91129 5.64633 10.2037 5.28691 10.2037H5.03758C4.67816 10.2037 4.38574 9.91129 4.38574 9.55187ZM5.03758 7.27579C4.79797 7.27579 4.60294 7.47069 4.60294 7.71043V9.55187C4.60294 9.79148 4.79784 9.98651 5.03758 9.98651H5.28691C5.52652 9.98651 5.72142 9.79148 5.72142 9.55187V7.71043C5.72142 7.47082 5.52652 7.27579 5.28691 7.27579H5.03758Z" fill="#3B2416"/>
<g id="Group_34" opacity="0.6">
<path id="Vector_101" d="M4.72168 7.77815C4.72168 7.94341 4.85568 8.07729 5.02095 8.07729C5.18621 8.07729 5.32009 7.94341 5.32009 7.77815C5.32009 7.61288 5.18621 7.479 5.02095 7.479C4.85568 7.479 4.72168 7.61288 4.72168 7.77815Z" fill="white"/>
</g>
</g>
<g id="Group_35">
<path id="Vector_102" d="M43.3613 12.0746C43.3613 12.3146 43.5559 12.5091 43.7958 12.5091H45.1823C45.4223 12.5091 45.617 12.3146 45.617 12.0746V11.2885C45.617 11.0485 45.4224 10.854 45.1823 10.854H43.7958C43.5559 10.854 43.3613 11.0485 43.3613 11.2885V12.0746Z" fill="#4D4B4B"/>
<path id="Vector_103" d="M43.7441 12.0142C43.7441 12.158 43.9057 12.2744 44.1051 12.2744H45.2563C45.4556 12.2744 45.6172 12.158 45.6172 12.0142V11.5435C45.6172 11.3998 45.4557 11.2832 45.2563 11.2832H44.1051C43.9058 11.2832 43.7441 11.3998 43.7441 11.5435V12.0142Z" fill="#777474"/>
<path id="Vector_104" d="M43.2529 12.0744V11.2884C43.2529 10.9888 43.4967 10.7451 43.7962 10.7451H45.1827C45.4822 10.7451 45.7259 10.9888 45.7259 11.2884V12.0744C45.7259 12.374 45.4822 12.6177 45.1827 12.6177H43.7962C43.4967 12.6177 43.2529 12.374 43.2529 12.0744ZM43.7962 10.9624C43.6165 10.9624 43.4702 11.1086 43.4702 11.2884V12.0744C43.4702 12.2542 43.6165 12.4004 43.7962 12.4004H45.1827C45.3624 12.4004 45.5087 12.2542 45.5087 12.0744V11.2884C45.5087 11.1086 45.3625 10.9624 45.1827 10.9624H43.7962Z" fill="#3B2416"/>
<g id="Group_36" opacity="0.4">
<path id="Vector_105" d="M44.7368 11.3597C44.7368 11.5088 44.8714 11.6296 45.0375 11.6296C45.2035 11.6296 45.3381 11.5088 45.3381 11.3597C45.3381 11.2106 45.2035 11.0898 45.0375 11.0898C44.8714 11.0898 44.7368 11.2106 44.7368 11.3597Z" fill="white"/>
</g>
<g id="Group_37" opacity="0.4">
<path id="Vector_106" d="M44.873 11.8607C44.873 11.9424 44.9468 12.0085 45.0377 12.0085C45.1286 12.0085 45.2023 11.9423 45.2023 11.8607C45.2023 11.7791 45.1286 11.7129 45.0377 11.7129C44.9468 11.7129 44.873 11.7791 44.873 11.8607Z" fill="white"/>
</g>
</g>
</g>
<g id="Group_38">
<path id="Vector_107" d="M42.6304 9.60993C42.6304 9.26795 42.8735 8.99072 43.1734 8.99072H44.59L44.893 9.63135L44.59 10.2291H43.1734C42.8735 10.2291 42.6304 9.95192 42.6304 9.60993Z" fill="#E91A21"/>
<path id="Vector_108" d="M42.6729 9.60993C42.6729 9.26795 42.8553 8.99072 43.0805 8.99072H43.2432V10.2291H43.0805C42.8553 10.2291 42.6729 9.95192 42.6729 9.60993Z" fill="#BC1925"/>
<g id="Group_39" opacity="0.8">
<path id="Vector_109" d="M43.1025 9.45204C43.1025 9.55104 43.1712 9.63112 43.2558 9.63112C43.3405 9.63112 43.4092 9.55092 43.4092 9.45204C43.4092 9.35315 43.3405 9.27295 43.2558 9.27295C43.1712 9.27295 43.1025 9.35315 43.1025 9.45204Z" fill="white"/>
</g>
<g id="Group_40" opacity="0.3">
<path id="Vector_110" d="M42.6304 9.60993C42.6304 9.26795 42.8128 8.99072 43.038 8.99072H44.5956L44.7728 9.34915H43.038C42.7969 9.34915 42.6304 9.60981 42.6304 9.60981V9.60993Z" fill="white"/>
</g>
<path id="Vector_111" opacity="0.8" d="M44.1284 9.34691C44.1284 9.51989 44.2687 9.66012 44.4416 9.66012C44.6146 9.66012 44.7548 9.51989 44.7548 9.34691C44.7548 9.17392 44.6146 9.03369 44.4416 9.03369C44.2687 9.03369 44.1284 9.17392 44.1284 9.34691Z" fill="white"/>
<path id="Vector_112" d="M42.5215 9.61013C42.5215 10.0182 42.7483 10.3379 43.0378 10.3379H44.4582C44.7477 10.3379 44.9745 10.0182 44.9745 9.61013C44.9745 9.20202 44.7477 8.88232 44.4582 8.88232H43.0378C42.7483 8.88232 42.5215 9.20202 42.5215 9.61013ZM42.7388 9.61013C42.7388 9.3334 42.8757 9.09964 43.0378 9.09964H44.4582C44.6203 9.09964 44.7572 9.3334 44.7572 9.61013C44.7572 9.88686 44.6203 10.1207 44.4582 10.1207H43.0378C42.8757 10.1207 42.7388 9.88698 42.7388 9.61013Z" fill="#3B2416"/>
</g>
<g id="Group_41">
<path id="Vector_113" d="M8.01683 15.1813L7.98158 15.1657C7.9492 14.9897 7.93003 14.8093 7.92542 14.6251L7.96091 14.5993C7.96091 14.587 7.96041 14.5748 7.96041 14.5624C7.96041 14.5334 7.96079 14.5045 7.96153 14.4758L7.92529 14.4495C7.9299 14.2653 7.94908 14.0848 7.98146 13.9089L8.02729 13.8886C8.03501 13.8501 8.04348 13.812 8.05245 13.7741L8.01795 13.7359C8.06029 13.5583 8.11621 13.3858 8.18471 13.2199L8.241 13.2081C8.25557 13.1744 8.27076 13.1409 8.28646 13.1078L8.25706 13.0569C8.33478 12.8932 8.42494 12.7364 8.52644 12.5881H8.5917C8.61163 12.5603 8.63205 12.5328 8.65285 12.5055L8.63218 12.4418C8.74115 12.2988 8.86083 12.1646 8.99035 12.0401L9.06271 12.0556C9.08649 12.0337 9.11053 12.012 9.13494 11.991L9.12697 11.9156C9.26135 11.7994 9.40494 11.6937 9.55613 11.5992L9.63185 11.6329C9.65863 11.6171 9.6854 11.6016 9.71255 11.5866L9.7214 11.5019C9.87445 11.4176 10.0346 11.3443 10.2006 11.2836L10.275 11.3377C10.3036 11.328 10.3324 11.3188 10.3613 11.31L10.3903 11.2206C10.5549 11.171 10.7246 11.1335 10.8984 11.1088L10.9654 11.1833C10.9944 11.18 11.0237 11.177 11.053 11.1743L11.1015 11.0903L11.1042 11.0858C11.1974 11.0782 11.2917 11.0742 11.3869 11.0742C11.4647 11.0742 11.542 11.0771 11.6186 11.0821L11.6718 11.1743C11.7011 11.177 11.7302 11.18 11.7591 11.1833L11.8317 11.1027C12.0017 11.1247 12.168 11.1589 12.3292 11.2046L12.3635 11.31C12.3924 11.3188 12.4212 11.328 12.4497 11.3376L12.5401 11.2719C12.6992 11.3283 12.8529 11.3959 13.0005 11.4739L13.0123 11.5866C13.0395 11.6016 13.0663 11.6171 13.0929 11.6328L13.1973 11.5863C13.3393 11.6738 13.4744 11.7711 13.6019 11.8775L13.59 11.9908C13.6144 12.0119 13.6383 12.0335 13.6622 12.0553L13.7748 12.0314C13.8941 12.1451 14.0053 12.2674 14.1074 12.3969L14.0722 12.5053C14.0928 12.5324 14.1131 12.56 14.1331 12.5877H14.2473C14.3392 12.7222 14.4217 12.8635 14.4945 13.0107L14.4384 13.1077C14.4541 13.1408 14.4692 13.1742 14.4839 13.2078L14.5937 13.2311C14.6546 13.3803 14.7056 13.5345 14.7454 13.693L14.6726 13.774C14.6814 13.8118 14.6899 13.8499 14.6976 13.8883L14.7966 13.9324C14.8245 14.0897 14.8414 14.2508 14.8472 14.4147L14.7634 14.4756C14.7641 14.5045 14.7645 14.5334 14.7645 14.5624C14.7645 14.5748 14.7641 14.587 14.764 14.5992L14.8472 14.6596C14.8414 14.8235 14.8244 14.9845 14.7966 15.1419L14.7082 15.1813C14.7002 15.2247 14.6912 15.2678 14.6818 15.3105L14.7454 15.3812C14.7056 15.5398 14.6546 15.6941 14.5936 15.8432L14.5076 15.8615C14.4897 15.9045 14.4711 15.9471 14.4515 15.9892L14.4945 16.0634C14.4219 16.2106 14.3393 16.3518 14.2473 16.4864H14.1683C14.1409 16.5263 14.1128 16.5658 14.0836 16.6044L14.1073 16.6771C14.0052 16.8068 13.894 16.9289 13.7746 17.0428L13.7063 17.0282C13.6699 17.0628 13.6327 17.0967 13.5948 17.1296L13.6019 17.1966C13.4744 17.303 13.3391 17.4004 13.1972 17.4879L13.1411 17.4628C13.0969 17.49 13.0521 17.5161 13.0066 17.5413L13.0004 17.6002C12.8529 17.6783 12.6991 17.7459 12.54 17.8023L12.4965 17.7707C12.4466 17.7884 12.3961 17.8048 12.3452 17.8203L12.3291 17.8697C12.1677 17.9154 12.0016 17.9496 11.8316 17.9716L11.8002 17.9366C11.7475 17.9433 11.6945 17.9489 11.641 17.9531L11.6186 17.992C11.542 17.9971 11.4648 18 11.3869 18C11.2916 18 11.1973 17.996 11.104 17.9884L11.0837 17.9531C11.0304 17.9488 10.9772 17.9433 10.9244 17.9366L10.8985 17.9655C10.7247 17.9408 10.5549 17.9032 10.3903 17.8536L10.3795 17.8201C10.3285 17.8048 10.2781 17.7882 10.2281 17.7706L10.2006 17.7906C10.0346 17.7298 9.87445 17.6566 9.72127 17.5722L9.71803 17.5412C9.67258 17.516 9.62774 17.49 9.58353 17.4627L9.55601 17.475C9.40482 17.3804 9.26122 17.2746 9.12672 17.1586L9.12971 17.1294C9.09185 17.0964 9.05461 17.0627 9.01825 17.0281L8.98998 17.034C8.86058 16.9097 8.74077 16.7754 8.6318 16.6324L8.64089 16.6044C8.61175 16.5656 8.58361 16.5263 8.55621 16.4863H8.52619C8.42469 16.3379 8.33453 16.1811 8.25669 16.0173L8.27288 15.989C8.25345 15.9468 8.23477 15.9043 8.21696 15.8613L8.18433 15.8543C8.11584 15.6883 8.0598 15.5159 8.01745 15.3382L8.04261 15.3103C8.03302 15.2674 8.0243 15.2244 8.01621 15.1809L8.01683 15.1813Z" fill="#3B2416"/>
<g id="Group_42">
<path id="Vector_114" d="M8.99512 14.6201C8.99512 15.9236 10.0404 16.9803 11.3297 16.9803C12.6191 16.9803 13.6642 15.9236 13.6642 14.6201C13.6642 13.3167 12.619 12.2603 11.3297 12.2603C10.0405 12.2603 8.99512 13.317 8.99512 14.6201Z" fill="#5E3A26"/>
<path id="Vector_115" d="M9.10986 14.5375C9.10986 15.7952 10.1295 16.8148 11.3871 16.8148C12.6447 16.8148 13.6641 15.795 13.6641 14.5375C13.6641 13.2799 12.6447 12.2603 11.3871 12.2603C10.1295 12.2603 9.10986 13.2799 9.10986 14.5375Z" fill="white"/>
<path id="Vector_116" d="M11.3872 16.8148C12.6448 16.8148 13.6643 15.795 13.6643 14.5375C13.6643 13.2799 12.6448 12.2603 11.3872 12.2603C14.0135 12.7157 14.2429 16.2075 11.3872 16.8148Z" fill="#777474"/>
<path id="Vector_117" d="M9.52539 14.5374C9.52539 15.5656 10.3589 16.3991 11.3871 16.3991C12.4153 16.3991 13.2487 15.5656 13.2487 14.5374C13.2487 13.5092 12.4152 12.6758 11.3871 12.6758C10.3591 12.6758 9.52539 13.5094 9.52539 14.5374Z" fill="white"/>
<path id="Vector_118" d="M9.52539 14.5374C9.71868 13.3401 11.2734 12.0912 12.9207 13.4819C12.5849 12.995 12.0233 12.6758 11.3871 12.6758C10.3589 12.6758 9.52539 13.5094 9.52539 14.5374Z" fill="#777474"/>
<path id="Vector_119" d="M9.45166 14.5374C9.45166 13.4702 10.3198 12.6021 11.387 12.6021C12.4542 12.6021 13.3222 13.4702 13.3222 14.5374C13.3222 15.6046 12.454 16.4727 11.387 16.4727C10.3199 16.4727 9.45166 15.6044 9.45166 14.5374ZM9.59887 14.5374C9.59887 15.5234 10.401 16.3255 11.3869 16.3255C12.3727 16.3255 13.1749 15.5234 13.1749 14.5374C13.1749 13.5514 12.3727 12.7494 11.3869 12.7494C10.401 12.7494 9.59887 13.5514 9.59887 14.5374Z" fill="#3B2416"/>
<path id="Vector_120" d="M10.3022 14.5192C10.3022 13.9279 10.7833 13.4468 11.3747 13.4468C11.966 13.4468 12.4469 13.9279 12.4469 14.5192C12.4469 15.1105 11.966 15.5913 11.3747 15.5913C10.7833 15.5913 10.3022 15.1104 10.3022 14.5192ZM10.4127 14.5192C10.4127 15.0495 10.8442 15.4809 11.3747 15.4809C11.9051 15.4809 12.3365 15.0495 12.3365 14.5192C12.3365 13.9889 11.9049 13.5572 11.3747 13.5572C10.8444 13.5572 10.4127 13.9888 10.4127 14.5192Z" fill="#3B2416"/>
<g id="Group_43">
<path id="Vector_121" d="M11.3218 13.7702C11.3217 13.8062 11.3508 13.8353 11.3869 13.8353C11.423 13.8353 11.452 13.8061 11.452 13.7702C11.452 13.7343 11.4229 13.7051 11.3868 13.7051C11.3507 13.7051 11.3217 13.7342 11.3219 13.7702H11.3218Z" fill="#2D2525"/>
<path id="Vector_122" d="M10.6904 14.2105C10.7217 14.2284 10.7613 14.2178 10.7792 14.1866C10.7974 14.1555 10.7868 14.1157 10.7555 14.0977C10.7243 14.0796 10.6844 14.0902 10.6664 14.1216C10.6484 14.1527 10.6593 14.1926 10.6903 14.2105H10.6904Z" fill="#2D2525"/>
<path id="Vector_123" d="M10.7559 14.977C10.7872 14.959 10.7977 14.9192 10.7796 14.888C10.7617 14.857 10.7219 14.8462 10.6908 14.8641C10.6597 14.8822 10.649 14.922 10.6669 14.9532C10.6848 14.9844 10.7247 14.995 10.7559 14.977Z" fill="#2D2525"/>
<path id="Vector_124" d="M11.4522 15.3039C11.4522 15.2679 11.4229 15.2388 11.387 15.2388C11.3512 15.2388 11.3218 15.2679 11.3218 15.3039C11.3218 15.3399 11.3509 15.3692 11.387 15.3692C11.4232 15.3692 11.4522 15.34 11.4522 15.3039Z" fill="#2D2525"/>
<path id="Vector_125" d="M12.0836 14.8643C12.0524 14.8461 12.0126 14.857 11.9946 14.888C11.9766 14.9192 11.9872 14.959 12.0184 14.9769C12.0494 14.9949 12.0894 14.9844 12.1075 14.9531C12.1255 14.922 12.1148 14.8821 12.0836 14.8643Z" fill="#2D2525"/>
<path id="Vector_126" d="M12.0184 14.0978C11.9871 14.1157 11.9767 14.1554 11.9946 14.1866C12.0126 14.2178 12.0524 14.2284 12.0835 14.2106C12.1148 14.1925 12.1255 14.1526 12.1074 14.1215C12.0895 14.0902 12.0496 14.0796 12.0184 14.0978Z" fill="#2D2525"/>
<path id="Vector_127" d="M11.3218 13.7702C11.3218 13.8062 11.3508 13.8353 11.3869 13.8353C11.423 13.8353 11.452 13.8061 11.452 13.7702C11.452 13.7343 11.4229 13.7051 11.3869 13.7051C11.3509 13.7051 11.3218 13.7342 11.3218 13.7702Z" fill="#2D2525"/>
</g>
<g id="Group_44">
<path id="Vector_128" d="M11.8256 14.7683C11.862 14.6993 11.8827 14.6206 11.8827 14.5372C11.8827 14.2634 11.6608 14.0415 11.3872 14.0415C11.3081 14.0415 11.2334 14.0601 11.167 14.0929C11.4935 14.118 11.8251 14.3053 11.8256 14.7683Z" fill="#777474"/>
<path id="Vector_129" d="M10.8364 14.5372C10.8364 14.2334 11.0835 13.9863 11.3873 13.9863C11.691 13.9863 11.9381 14.2334 11.9381 14.5372C11.9381 14.8409 11.691 15.0879 11.3873 15.0879C11.0835 15.0879 10.8364 14.8408 10.8364 14.5372ZM10.9469 14.5372C10.9469 14.7799 11.1444 14.9774 11.3873 14.9774C11.6301 14.9774 11.8276 14.7799 11.8276 14.5372C11.8276 14.2944 11.6301 14.0967 11.3873 14.0967C11.1444 14.0967 10.9469 14.2942 10.9469 14.5372Z" fill="#3B2416"/>
<path id="Vector_130" d="M11.1172 14.5375C11.1172 14.6864 11.238 14.8072 11.3871 14.8072C11.5361 14.8072 11.6569 14.6864 11.6569 14.5375C11.6569 14.3885 11.5361 14.2676 11.3871 14.2676C11.238 14.2676 11.1172 14.3884 11.1172 14.5375Z" fill="#777474"/>
<g id="Group_45" opacity="0.4">
<path id="Vector_131" d="M11.7161 14.4049C11.7161 14.5105 11.6306 14.596 11.525 14.596C11.4194 14.596 11.334 14.5104 11.334 14.4049C11.334 14.2994 11.4195 14.2139 11.525 14.2139C11.6305 14.2139 11.7161 14.2994 11.7161 14.4049Z" fill="white"/>
</g>
</g>
<path id="Vector_132" d="M9.03613 14.5372C9.03613 13.241 10.0907 12.1865 11.3869 12.1865C12.6831 12.1865 13.7376 13.241 13.7376 14.5372C13.7376 15.8334 12.6831 16.8881 11.3869 16.8881C10.0907 16.8881 9.03613 15.8334 9.03613 14.5372ZM9.18334 14.5372C9.18334 15.7523 10.1719 16.7409 11.3869 16.7409C12.6019 16.7409 13.5904 15.7523 13.5904 14.5372C13.5904 13.3221 12.6018 12.3336 11.3869 12.3336C10.1721 12.3336 9.18334 13.3221 9.18334 14.5372Z" fill="#3B2416"/>
<path id="Vector_133" d="M11.2928 11.7352C10.2095 11.7352 9.71024 12.1661 9.21582 12.7265C9.67848 12.0342 10.4671 11.5781 11.3623 11.5781C12.2574 11.5781 13.0461 12.0342 13.5088 12.7265C13.0145 12.1661 12.376 11.7352 11.2928 11.7352Z" fill="#5E3A26"/>
<path id="Vector_134" d="M9.45166 14.5374C9.45166 15.6046 10.3198 16.4727 11.387 16.4727C12.4542 16.4727 13.3222 15.6044 13.3222 14.5374C13.3222 13.4703 12.454 12.6021 11.387 12.6021C10.3199 12.6021 9.45166 13.4702 9.45166 14.5374ZM11.387 16.3255C11.2359 16.3255 11.0892 16.3065 10.949 16.2711C10.9723 15.9969 10.952 15.6281 10.7151 15.453C10.4757 15.276 10.1198 15.3742 9.87036 15.483C9.71456 15.2338 9.61804 14.944 9.60161 14.6332C9.86588 14.5716 10.2089 14.4379 10.2999 14.1526C10.3874 13.8782 10.2061 13.5784 10.0336 13.371C10.2254 13.1487 10.4709 12.974 10.7499 12.8673C10.891 13.0941 11.1109 13.3487 11.3869 13.3487C11.4647 13.3487 11.5379 13.3285 11.6063 13.2944C11.7807 13.2074 11.9225 13.0302 12.024 12.8673C12.303 12.974 12.5484 13.1488 12.7402 13.371C12.5678 13.5784 12.3865 13.8783 12.474 14.1526C12.5651 14.438 12.908 14.5716 13.1723 14.6332C13.1558 14.944 13.0594 15.2338 12.9035 15.483C12.6541 15.3743 12.2981 15.276 12.0588 15.453C11.822 15.6281 11.8016 15.997 11.8249 16.2711C11.6846 16.3066 11.5379 16.3255 11.3869 16.3255H11.387Z" fill="#2D2525"/>
</g>
</g>
<g id="Group_46">
<path id="Vector_135" d="M34.5245 15.1813L34.4893 15.1657C34.4569 14.9897 34.4377 14.8093 34.4331 14.6251L34.4686 14.5993C34.4686 14.587 34.4682 14.5748 34.4682 14.5624C34.4682 14.5334 34.4686 14.5045 34.4693 14.4758L34.4331 14.4495C34.4377 14.2653 34.4569 14.0848 34.4893 13.9089L34.5351 13.8886C34.5428 13.8501 34.5512 13.812 34.5601 13.7741L34.5256 13.7359C34.568 13.5583 34.6239 13.3858 34.6924 13.2199L34.7486 13.2081C34.7633 13.1744 34.7783 13.1409 34.794 13.1078L34.7646 13.0569C34.8423 12.8932 34.9326 12.7364 35.034 12.5881H35.0994C35.1193 12.5603 35.1397 12.5328 35.1605 12.5055L35.1399 12.4418C35.2488 12.2988 35.3686 12.1646 35.498 12.0401L35.5705 12.0556C35.5943 12.0337 35.6183 12.012 35.6428 11.991L35.6348 11.9156C35.7692 11.7994 35.9128 11.6937 36.0639 11.5992L36.1397 11.6329C36.1664 11.6171 36.1932 11.6016 36.2204 11.5866L36.2292 11.5019C36.3824 11.4176 36.5424 11.3443 36.7084 11.2836L36.7829 11.3377C36.8116 11.328 36.8403 11.3188 36.8692 11.31L36.8982 11.2206C37.0627 11.171 37.2325 11.1335 37.4064 11.1088L37.4734 11.1833C37.5024 11.18 37.5316 11.177 37.5609 11.1743L37.6095 11.0903L37.6121 11.0858C37.7054 11.0782 37.7996 11.0742 37.8948 11.0742C37.9728 11.0742 38.05 11.0771 38.1266 11.0821L38.1799 11.1743C38.2091 11.177 38.2381 11.18 38.2672 11.1833L38.3398 11.1027C38.5098 11.1247 38.6759 11.1589 38.8373 11.2046L38.8716 11.31C38.9004 11.3188 38.9292 11.328 38.9577 11.3376L39.0483 11.2719C39.2073 11.3283 39.3611 11.3959 39.5087 11.4739L39.5205 11.5866C39.5477 11.6016 39.5745 11.6171 39.6011 11.6328L39.7055 11.5863C39.8474 11.6738 39.9827 11.7711 40.1101 11.8775L40.0981 11.9908C40.1225 12.0119 40.1465 12.0335 40.1702 12.0553L40.2828 12.0314C40.4021 12.1451 40.5134 12.2674 40.6155 12.3969L40.5802 12.5053C40.6009 12.5324 40.6213 12.56 40.6413 12.5877H40.7555C40.8474 12.7222 40.9299 12.8635 41.0025 13.0107L40.9465 13.1077C40.9622 13.1408 40.9773 13.1742 40.9918 13.2078L41.1017 13.2311C41.1626 13.3803 41.2135 13.5345 41.2534 13.693L41.1805 13.774C41.1893 13.8118 41.1979 13.8499 41.2055 13.8883L41.3047 13.9324C41.3324 14.0897 41.3495 14.2508 41.3552 14.4147L41.2714 14.4756C41.2722 14.5045 41.2725 14.5334 41.2725 14.5624C41.2725 14.5748 41.2722 14.587 41.272 14.5992L41.3552 14.6596C41.3495 14.8235 41.3324 14.9845 41.3047 15.1419L41.2163 15.1813C41.2083 15.2247 41.1994 15.2678 41.1898 15.3105L41.2534 15.3812C41.2135 15.5398 41.1626 15.6941 41.1017 15.8432L41.0155 15.8615C40.9977 15.9045 40.979 15.9471 40.9596 15.9892L41.0025 16.0634C40.9299 16.2106 40.8472 16.3518 40.7553 16.4864H40.6764C40.649 16.5263 40.6208 16.5658 40.5917 16.6044L40.6153 16.6771C40.5131 16.8068 40.402 16.9289 40.2826 17.0428L40.2142 17.0282C40.1778 17.0628 40.1406 17.0967 40.1027 17.1296L40.1098 17.1966C39.9823 17.303 39.8471 17.4004 39.7051 17.4879L39.6491 17.4628C39.6048 17.49 39.5601 17.5161 39.5145 17.5413L39.5084 17.6002C39.361 17.6783 39.2072 17.7459 39.048 17.8023L39.0046 17.7707C38.9546 17.7884 38.9042 17.8048 38.8532 17.8203L38.8372 17.8697C38.6758 17.9154 38.5096 17.9496 38.3395 17.9716L38.3081 17.9366C38.2555 17.9433 38.2023 17.9489 38.1489 17.9531L38.1264 17.992C38.0498 17.9971 37.9726 18 37.8947 18C37.7995 18 37.7052 17.996 37.612 17.9884L37.5917 17.9531C37.5384 17.9488 37.4852 17.9433 37.4324 17.9366L37.4065 17.9655C37.2326 17.9408 37.0629 17.9032 36.8982 17.8536L36.8874 17.8201C36.8365 17.8048 36.786 17.7882 36.736 17.7706L36.7084 17.7906C36.5423 17.7298 36.3823 17.6566 36.2291 17.5722L36.2258 17.5412C36.1804 17.516 36.1356 17.49 36.0915 17.4627L36.0639 17.475C35.9126 17.3804 35.7692 17.2746 35.6347 17.1586L35.6378 17.1294C35.5999 17.0964 35.5627 17.0627 35.5263 17.0281L35.498 17.034C35.3685 16.9097 35.2488 16.7754 35.1397 16.6324L35.149 16.6044C35.1198 16.5656 35.0917 16.5263 35.0643 16.4863H35.0343C34.9328 16.3379 34.8425 16.1811 34.7648 16.0173L34.7811 15.989C34.7615 15.9468 34.743 15.9043 34.7252 15.8613L34.6925 15.8543C34.6239 15.6883 34.5679 15.5159 34.5256 15.3382L34.5508 15.3103C34.5412 15.2674 34.5324 15.2244 34.5244 15.1809L34.5245 15.1813Z" fill="#3B2416"/>
<g id="Group_47">
<path id="Vector_136" d="M35.5029 14.6201C35.5029 15.9236 36.5482 16.9803 37.8375 16.9803C39.1269 16.9803 40.172 15.9236 40.172 14.6201C40.172 13.3167 39.1269 12.2603 37.8375 12.2603C36.5482 12.2603 35.5029 13.317 35.5029 14.6201Z" fill="#5E3A26"/>
<path id="Vector_137" d="M35.6177 14.5375C35.6177 15.7952 36.6373 16.8148 37.8949 16.8148C39.1525 16.8148 40.1721 15.795 40.1721 14.5375C40.1721 13.2799 39.1526 12.2603 37.8949 12.2603C36.6372 12.2603 35.6177 13.2799 35.6177 14.5375Z" fill="white"/>
<path id="Vector_138" d="M37.8945 16.8148C39.1523 16.8148 40.1717 15.795 40.1717 14.5375C40.1717 13.2799 39.1523 12.2603 37.8945 12.2603C40.5209 12.7157 40.7503 16.2075 37.8945 16.8148Z" fill="#777474"/>
<path id="Vector_139" d="M36.0332 14.5374C36.0332 15.5656 36.8667 16.3991 37.8948 16.3991C38.9229 16.3991 39.7565 15.5656 39.7565 14.5374C39.7565 13.5092 38.923 12.6758 37.8948 12.6758C36.8666 12.6758 36.0332 13.5094 36.0332 14.5374Z" fill="white"/>
<path id="Vector_140" d="M36.0332 14.5374C36.2265 13.3401 37.7812 12.0912 39.4285 13.4819C39.0928 12.995 38.5311 12.6758 37.8948 12.6758C36.8667 12.6758 36.0332 13.5094 36.0332 14.5374Z" fill="#777474"/>
<path id="Vector_141" d="M35.9595 14.5374C35.9595 13.4702 36.8276 12.6021 37.8947 12.6021C38.9617 12.6021 39.83 13.4702 39.83 14.5374C39.83 15.6046 38.9619 16.4727 37.8947 16.4727C36.8275 16.4727 35.9595 15.6044 35.9595 14.5374ZM36.1067 14.5374C36.1067 15.5234 36.9088 16.3255 37.8947 16.3255C38.8805 16.3255 39.6827 15.5234 39.6827 14.5374C39.6827 13.5514 38.8807 12.7494 37.8947 12.7494C36.9087 12.7494 36.1067 13.5514 36.1067 14.5374Z" fill="#3B2416"/>
<path id="Vector_142" d="M36.8101 14.5192C36.8101 13.9279 37.2912 13.4468 37.8823 13.4468C38.4735 13.4468 38.9546 13.9279 38.9546 14.5192C38.9546 15.1105 38.4736 15.5913 37.8823 15.5913C37.291 15.5913 36.8101 15.1104 36.8101 14.5192ZM36.9205 14.5192C36.9205 15.0495 37.3521 15.4809 37.8825 15.4809C38.4129 15.4809 38.8444 15.0495 38.8444 14.5192C38.8444 13.9889 38.4129 13.5572 37.8825 13.5572C37.3521 13.5572 36.9205 13.9888 36.9205 14.5192Z" fill="#3B2416"/>
<g id="Group_48">
<path id="Vector_143" d="M37.8297 13.7702C37.8296 13.8062 37.8587 13.8353 37.8947 13.8353C37.9307 13.8353 37.9599 13.8061 37.9599 13.7702C37.9599 13.7343 37.9307 13.7051 37.8946 13.7051C37.8585 13.7051 37.8295 13.7342 37.8296 13.7702H37.8297Z" fill="#2D2525"/>
<path id="Vector_144" d="M37.198 14.2105C37.2293 14.2284 37.269 14.2178 37.2869 14.1866C37.305 14.1555 37.2944 14.1157 37.2633 14.0977C37.232 14.0796 37.1922 14.0902 37.1742 14.1216C37.1563 14.1527 37.167 14.1926 37.198 14.2105Z" fill="#2D2525"/>
<path id="Vector_145" d="M37.2632 14.977C37.2945 14.959 37.3049 14.9192 37.287 14.888C37.2691 14.857 37.2294 14.8462 37.1981 14.8641C37.167 14.8822 37.1562 14.922 37.1743 14.9532C37.1924 14.9844 37.2321 14.995 37.2634 14.977H37.2632Z" fill="#2D2525"/>
<path id="Vector_146" d="M37.9599 15.3039C37.9599 15.2679 37.9307 15.2388 37.8947 15.2388C37.8587 15.2388 37.8296 15.2679 37.8296 15.3039C37.8296 15.3399 37.8587 15.3692 37.8947 15.3692C37.9307 15.3692 37.9599 15.34 37.9599 15.3039Z" fill="#2D2525"/>
<path id="Vector_147" d="M38.5909 14.8643C38.5598 14.8461 38.5201 14.857 38.502 14.888C38.4838 14.9192 38.4946 14.959 38.5258 14.9769C38.5568 14.9949 38.5968 14.9844 38.6149 14.9531C38.6329 14.922 38.6222 14.8821 38.5909 14.8643Z" fill="#2D2525"/>
<path id="Vector_148" d="M38.5262 14.0978C38.495 14.1157 38.4844 14.1554 38.5025 14.1866C38.5205 14.2178 38.5602 14.2284 38.5914 14.2106C38.6226 14.1925 38.6333 14.1526 38.6153 14.1215C38.5972 14.0902 38.5575 14.0796 38.5262 14.0978Z" fill="#2D2525"/>
<path id="Vector_149" d="M37.8296 13.7702C37.8296 13.8062 37.8586 13.8353 37.8946 13.8353C37.9306 13.8353 37.9597 13.8061 37.9597 13.7702C37.9597 13.7343 37.9306 13.7051 37.8946 13.7051C37.8586 13.7051 37.8296 13.7342 37.8296 13.7702Z" fill="#2D2525"/>
</g>
<g id="Group_49">
<path id="Vector_150" d="M38.3329 14.7683C38.3694 14.6993 38.39 14.6206 38.39 14.5372C38.39 14.2634 38.1681 14.0415 37.8944 14.0415C37.8154 14.0415 37.7407 14.0601 37.6743 14.0929C38.0009 14.118 38.3324 14.3053 38.3329 14.7683Z" fill="#777474"/>
<path id="Vector_151" d="M37.3438 14.5372C37.3438 14.2334 37.5908 13.9863 37.8945 13.9863C38.1981 13.9863 38.4453 14.2334 38.4453 14.5372C38.4453 14.8409 38.1982 15.0879 37.8945 15.0879C37.5907 15.0879 37.3438 14.8408 37.3438 14.5372ZM37.4542 14.5372C37.4542 14.7799 37.6517 14.9774 37.8946 14.9774C38.1374 14.9774 38.335 14.7799 38.335 14.5372C38.335 14.2944 38.1374 14.0967 37.8946 14.0967C37.6517 14.0967 37.4542 14.2942 37.4542 14.5372Z" fill="#3B2416"/>
<path id="Vector_152" d="M37.6245 14.5375C37.6245 14.6864 37.7453 14.8072 37.8943 14.8072C38.0432 14.8072 38.1641 14.6864 38.1641 14.5375C38.1641 14.3885 38.0433 14.2676 37.8943 14.2676C37.7452 14.2676 37.6245 14.3884 37.6245 14.5375Z" fill="#777474"/>
<g id="Group_50" opacity="0.4">
<path id="Vector_153" d="M38.2234 14.4049C38.2234 14.5105 38.138 14.596 38.0323 14.596C37.9267 14.596 37.8413 14.5104 37.8413 14.4049C37.8413 14.2994 37.9269 14.2139 38.0323 14.2139C38.1378 14.2139 38.2234 14.2994 38.2234 14.4049Z" fill="white"/>
</g>
</g>
<path id="Vector_154" d="M35.5439 14.5372C35.5439 13.241 36.5985 12.1865 37.8946 12.1865C39.1907 12.1865 40.2454 13.241 40.2454 14.5372C40.2454 15.8334 39.1908 16.8881 37.8946 16.8881C36.5984 16.8881 35.5439 15.8334 35.5439 14.5372ZM35.6911 14.5372C35.6911 15.7523 36.6797 16.7409 37.8946 16.7409C39.1095 16.7409 40.0982 15.7523 40.0982 14.5372C40.0982 13.3221 39.1097 12.3336 37.8946 12.3336C36.6795 12.3336 35.6911 13.3221 35.6911 14.5372Z" fill="#3B2416"/>
<path id="Vector_155" d="M37.8006 11.7352C36.7175 11.7352 36.2179 12.1661 35.7236 12.7265C36.1863 12.0342 36.9749 11.5781 37.8701 11.5781C38.7652 11.5781 39.554 12.0342 40.0166 12.7265C39.5223 12.1661 38.8839 11.7352 37.8006 11.7352Z" fill="#5E3A26"/>
<path id="Vector_156" d="M35.9595 14.5374C35.9595 15.6046 36.8276 16.4727 37.8947 16.4727C38.9617 16.4727 39.83 15.6044 39.83 14.5374C39.83 13.4703 38.9619 12.6021 37.8947 12.6021C36.8275 12.6021 35.9595 13.4702 35.9595 14.5374ZM37.8947 16.3255C37.7436 16.3255 37.5969 16.3065 37.4567 16.2711C37.48 15.9969 37.4597 15.6281 37.2228 15.453C36.9834 15.276 36.6275 15.3742 36.378 15.483C36.2223 15.2338 36.1257 14.944 36.1093 14.6332C36.3736 14.5716 36.7165 14.4379 36.8076 14.1526C36.8951 13.8782 36.7138 13.5784 36.5414 13.371C36.7334 13.1487 36.9787 12.974 37.2577 12.8673C37.3989 13.0941 37.6187 13.3487 37.8947 13.3487C37.9725 13.3487 38.0458 13.3285 38.1142 13.2944C38.2886 13.2074 38.4305 13.0302 38.532 12.8673C38.8109 12.974 39.0563 13.1488 39.2482 13.371C39.0757 13.5784 38.8944 13.8783 38.9819 14.1526C39.0731 14.438 39.4159 14.5716 39.6802 14.6332C39.6638 14.944 39.5672 15.2338 39.4114 15.483C39.162 15.3743 38.8061 15.276 38.5667 15.453C38.3298 15.6281 38.3095 15.997 38.3328 16.2711C38.1926 16.3066 38.0459 16.3255 37.8948 16.3255H37.8947Z" fill="#2D2525"/>
</g>
</g>
</g>
</g>
<defs>
<filter id="filter0_d_2895_2184" x="0" y="0" width="49.7261" height="26" filterUnits="userSpaceOnUse" color-interpolation-filters="sRGB">
<feFlood flood-opacity="0" result="BackgroundImageFix"/>
<feColorMatrix in="SourceAlpha" type="matrix" values="0 0 0 0 0 0 0 0 0 0 0 0 0 0 0 0 0 0 127 0" result="hardAlpha"/>
<feOffset dy="4"/>
<feGaussianBlur stdDeviation="2"/>
<feComposite in2="hardAlpha" operator="out"/>
<feColorMatrix type="matrix" values="0 0 0 0 0 0 0 0 0 0 0 0 0 0 0 0 0 0 0.25 0"/>
<feBlend mode="normal" in2="BackgroundImageFix" result="effect1_dropShadow_2895_2184"/>
<feBlend mode="normal" in="SourceGraphic" in2="effect1_dropShadow_2895_2184" result="shape"/>
</filter>
</defs>
</svg>
