<svg width="49" height="26" viewBox="0 0 49 26" fill="none" xmlns="http://www.w3.org/2000/svg">
<g id="Layer 1" filter="url(#filter0_d_2895_3444)">
<g id="Group">
<path id="Vector" d="M42.2036 10.437V12.8313L40.7112 13.4155H5.66162V7.81313C5.66162 7.31007 6.1473 7.31007 6.22511 7.31007H14.4353V2.50476C14.4353 1.7976 14.5375 1.56641 15.1125 1.56641H26.6699C27.8841 1.56641 28.4467 2.52203 28.7614 3.17149C29.0761 3.82106 30.4614 6.6793 30.4614 6.6793H39.487C41.3284 6.6793 42.2037 8.00364 42.2037 10.437H42.2036Z" fill="#3A3434"/>
<path id="Vector_2" d="M41.9089 8.53711H7.20068V10.4366H41.9089V8.53711Z" fill="#2D2525"/>
<path id="Vector_3" d="M42.207 10.437H41.5869C41.5869 10.437 41.3901 9.58814 40.2907 9.58814H36.9332C36.0354 9.58814 35.6903 9.62291 35.3113 10.1478C34.9324 10.6728 32.9527 13.4154 32.9527 13.4154H16.0909C16.0909 13.4154 14.3284 9.58802 12.6537 9.58802H9.47026C8.70077 9.58802 8.36327 10.0838 8.2002 10.5524C8.03712 11.0212 7.20449 13.4152 7.20449 13.4152H5.66504V7.81289C5.66504 7.30983 6.14693 7.30983 6.30315 7.30983H14.4388V2.50476C14.4388 1.7976 14.5372 1.56641 15.1121 1.56641H26.6733C27.8875 1.56641 28.4501 2.52203 28.7648 3.17149C29.0795 3.82106 30.4649 6.6793 30.4649 6.6793H39.4905C41.328 6.6793 42.2071 8.00364 42.2071 10.437H42.207Z" fill="#45695B"/>
<path id="Vector_4" d="M16.087 13.539H33.0122L35.4078 10.2201C35.7388 9.76165 36.0084 9.71175 36.9294 9.71175H40.2869C41.2766 9.71175 41.4609 10.4573 41.4626 10.4648L41.4848 10.5606H42.2032V10.3132H41.6726C41.6374 10.2213 41.5674 10.0755 41.4401 9.93075C41.253 9.71801 40.901 9.46436 40.2869 9.46436H36.9294C36.0411 9.46436 35.6305 9.48907 35.2072 10.0754L32.8856 13.2917H16.1656C15.9045 12.7438 14.2736 9.46436 12.6499 9.46436H9.46647C8.78804 9.46436 8.3214 9.81676 8.07957 10.5119L7.69678 11.6125L7.93045 11.6937L8.31324 10.5931C8.5196 10.0001 8.89671 9.71175 9.46647 9.71175H12.6499C13.2913 9.71175 14.0668 10.3539 14.8925 11.5687C15.5297 12.5062 15.9704 13.4576 15.9748 13.4672L16.0079 13.5391H16.0871L16.087 13.539Z" fill="#3B2416"/>
<path id="Vector_5" d="M15.9748 13.4671L16.1995 13.3636C16.1261 13.2044 14.3839 9.46436 12.6499 9.46436H9.46647C8.78804 9.46436 8.3214 9.81676 8.07957 10.5119L7.69678 11.6125L7.93045 11.6937L8.31324 10.5931C8.5196 10.0001 8.89671 9.71175 9.46647 9.71175H12.6499C13.2913 9.71175 14.0668 10.3539 14.8925 11.5687C15.5297 12.5062 15.9704 13.4576 15.9748 13.4672V13.4671Z" fill="#3B2416"/>
<path id="Vector_6" d="M31.4022 13.7018C31.4304 13.6623 34.2214 9.74021 34.6285 9.17637C34.9883 8.6778 35.2816 8.62352 36.2829 8.62352H40.8381C41.9105 8.62352 42.1729 9.61178 42.1836 9.65376L42.4446 9.58872C42.4415 9.57607 42.3649 9.27464 42.1306 8.97261C41.9118 8.69069 41.51 8.35449 40.8381 8.35449H36.2829C35.3171 8.35449 34.8705 8.38134 34.4104 9.01885C34.0029 9.58352 31.2114 13.5062 31.1831 13.5458L31.4022 13.7018Z" fill="#305646"/>
<path id="Vector_7" d="M12.3384 7.30242H12.8537V2.77702C12.8537 2.6195 12.9818 2.49143 13.1393 2.49143C13.2968 2.49143 13.4249 2.6195 13.4249 2.77702V7.30253H13.9403V2.77702C13.9403 2.33533 13.581 1.97607 13.1393 1.97607C12.6976 1.97607 12.3384 2.33533 12.3384 2.77702V7.30253V7.30242Z" fill="#3B2416"/>
<path id="Vector_8" d="M14.3706 3.33398H13.6826V3.84934H14.3706V3.33398Z" fill="#3B2416"/>
<path id="Vector_9" d="M6.30322 7.31774L12.4731 3.37451L12.7506 3.80875L7.26015 7.31774H6.30322Z" fill="#3B2416"/>
<path id="Vector_10" d="M22.2171 7.64268H22.7778C22.8514 7.55162 22.9846 7.49072 23.1367 7.49072C23.2888 7.49072 23.4219 7.55151 23.4956 7.64268H23.7684C23.8589 7.64268 23.9323 7.71612 23.9323 7.80658C23.9323 7.89705 23.8589 7.97048 23.7684 7.97048H23.4956C23.4219 8.06154 23.2888 8.12244 23.1367 8.12244C22.9846 8.12244 22.8514 8.06154 22.7778 7.97048H22.2171C22.1265 7.97048 22.0532 7.89717 22.0532 7.80658C22.0532 7.716 22.1267 7.64268 22.2171 7.64268Z" fill="#305646"/>
<path id="Vector_11" d="M15.4974 7.64268H16.058C16.1317 7.55162 16.2649 7.49072 16.417 7.49072C16.569 7.49072 16.7022 7.55151 16.7759 7.64268H17.0487C17.1391 7.64268 17.2126 7.71612 17.2126 7.80658C17.2126 7.89705 17.1391 7.97048 17.0487 7.97048H16.7759C16.7022 8.06154 16.569 8.12244 16.417 8.12244C16.2649 8.12244 16.1317 8.06154 16.058 7.97048H15.4974C15.4068 7.97048 15.3335 7.89717 15.3335 7.80658C15.3335 7.716 15.4069 7.64268 15.4974 7.64268Z" fill="#305646"/>
<g id="Group_2">
<path id="Vector_12" d="M6.43018 8.58768C6.43018 8.87126 6.66006 9.10115 6.94364 9.10115C7.22722 9.10115 7.45711 8.87126 7.45711 8.58768C7.45711 8.30411 7.22722 8.07422 6.94364 8.07422C6.66006 8.07422 6.43018 8.30411 6.43018 8.58768Z" fill="#305646"/>
<g id="Group_3" opacity="0.4">
<path id="Vector_13" d="M7.24902 8.46653C7.24902 8.53997 7.30862 8.59957 7.38206 8.59957C7.4555 8.59957 7.5151 8.53997 7.5151 8.46653C7.5151 8.3931 7.4555 8.3335 7.38206 8.3335C7.30862 8.3335 7.24902 8.3931 7.24902 8.46653Z" fill="white"/>
</g>
<path id="Vector_14" d="M6.50635 8.53358C6.50635 8.19359 6.78295 7.91699 7.12293 7.91699C7.46292 7.91699 7.73951 8.19359 7.73951 8.53358C7.73951 8.87356 7.46292 9.15016 7.12293 9.15016C6.78295 9.15016 6.50635 8.87356 6.50635 8.53358ZM6.71247 8.53358C6.71247 8.75992 6.89659 8.94404 7.12293 8.94404C7.34927 8.94404 7.5334 8.75992 7.5334 8.53358C7.5334 8.30723 7.34927 8.12311 7.12293 8.12311C6.89659 8.12311 6.71247 8.30723 6.71247 8.53358Z" fill="#3B2416"/>
<path id="Vector_15" d="M6.7437 8.83617C6.91068 8.83617 7.04655 8.7003 7.04655 8.53332C7.04655 8.36634 6.91068 8.23047 6.7437 8.23047C6.68658 8.23047 6.63077 8.24643 6.58252 8.27682L6.69226 8.45125C6.70752 8.44155 6.72537 8.43647 6.74358 8.43647C6.79692 8.43647 6.84032 8.47987 6.84032 8.53308C6.84032 8.5863 6.79692 8.6297 6.74358 8.6297C6.72525 8.6297 6.70763 8.62461 6.69238 8.61504L6.58264 8.78946C6.63077 8.81974 6.68647 8.83582 6.74358 8.83582L6.7437 8.83617Z" fill="#3B2416"/>
</g>
<path id="Vector_16" d="M32.043 7.31792C32.043 7.4007 32.1101 7.46786 32.1929 7.46786C32.2757 7.46786 32.3429 7.4007 32.3429 7.31792C32.3429 7.23514 32.2757 7.16797 32.1929 7.16797C32.1101 7.16797 32.043 7.23514 32.043 7.31792Z" fill="#3B2416"/>
<path id="Vector_17" d="M31.6832 7.46786C31.766 7.46786 31.8331 7.40073 31.8331 7.31792C31.8331 7.2351 31.766 7.16797 31.6832 7.16797C31.6003 7.16797 31.5332 7.2351 31.5332 7.31792C31.5332 7.40073 31.6003 7.46786 31.6832 7.46786Z" fill="#3B2416"/>
<path id="Vector_18" d="M31.0234 7.31792C31.0234 7.4007 31.0906 7.46786 31.1734 7.46786C31.2562 7.46786 31.3233 7.4007 31.3233 7.31792C31.3233 7.23514 31.2562 7.16797 31.1734 7.16797C31.0906 7.16797 31.0234 7.23514 31.0234 7.31792Z" fill="#3B2416"/>
<g id="Group_4">
<path id="Vector_19" d="M42.0928 8.77588C42.1206 8.92204 42.2038 10.4365 42.2038 10.4365H42.4662C42.6487 10.4365 42.7965 10.2885 42.7965 10.1061V9.10617C42.7965 8.92393 42.6487 8.77588 42.4662 8.77588H42.0928Z" fill="#E8503E"/>
<path id="Vector_20" d="M42.165 9.19873C42.1928 9.34489 42.2036 9.48337 42.2036 9.60647V10.4367H42.466C42.6485 10.4367 42.7963 10.2887 42.7963 10.1063V9.5289C42.7963 9.34667 42.6485 9.19873 42.466 9.19873H42.165Z" fill="#CC3429"/>
<path id="Vector_21" d="M42.1004 10.4366C42.1004 9.5321 41.9914 9.07658 41.9448 8.88205C41.9363 8.84657 41.9295 8.81854 41.9252 8.79525L41.9019 8.67285H42.4659C42.7048 8.67285 42.8992 8.86726 42.8992 9.10614V10.1061C42.8992 10.3451 42.7048 10.5396 42.4659 10.5396H42.1004V10.4365V10.4366ZM42.156 8.87897C42.2062 9.09301 42.2987 9.53328 42.3061 10.3335H42.4659C42.5912 10.3335 42.6931 10.2315 42.6931 10.1061V9.10614C42.6931 8.98091 42.5912 8.87897 42.4659 8.87897H42.156Z" fill="#3B2416"/>
<g id="Group_5" opacity="0.4">
<path id="Vector_22" d="M42.3438 9.2249C42.3438 9.31406 42.416 9.38643 42.5052 9.38643C42.5943 9.38643 42.6667 9.31418 42.6667 9.2249C42.6667 9.13561 42.5943 9.06348 42.5052 9.06348C42.416 9.06348 42.3438 9.13585 42.3438 9.2249Z" fill="white"/>
</g>
<g id="Group_6" opacity="0.4">
<path id="Vector_23" d="M42.3955 9.62318C42.3955 9.6836 42.4445 9.73268 42.505 9.73268C42.5656 9.73268 42.6146 9.6836 42.6146 9.62318C42.6146 9.56275 42.5656 9.51367 42.505 9.51367C42.4445 9.51367 42.3955 9.56275 42.3955 9.62318Z" fill="white"/>
</g>
</g>
<path id="Vector_24" d="M32.4713 10.6779C32.2278 11.0573 31.8692 11.044 31.6061 10.5659L31.1605 9.65188C31.0052 9.28541 31.1005 9.10732 31.3191 9.04653C31.3812 9.02915 31.3256 9.36606 31.9384 10.4032C32.1449 10.7525 32.4713 10.6779 32.4713 10.6779Z" fill="#305646"/>
<path id="Vector_25" d="M31.791 10.3592L31.343 9.4407L31.3408 9.43585C31.236 9.18894 31.2287 8.99441 31.3191 8.85782C31.4051 8.72798 31.5694 8.66211 31.8074 8.66211H33.0537C33.2464 8.66211 33.4046 8.74572 33.488 8.89164C33.5753 9.04455 33.5635 9.23754 33.4555 9.42084L32.8352 10.4739L32.8332 10.4772C32.703 10.6801 32.5332 10.7919 32.3548 10.7919C32.1448 10.7919 31.9446 10.6383 31.791 10.3593V10.3592ZM33.278 9.31606C33.3475 9.19828 33.3588 9.08073 33.3091 8.99382C33.2635 8.91399 33.1704 8.86823 33.0538 8.86823H31.8075C31.6945 8.86823 31.5479 8.8862 31.4912 8.9717C31.4422 9.04561 31.4556 9.17747 31.5296 9.35296L31.9729 10.2621C32.0883 10.4709 32.2239 10.5858 32.3549 10.5858C32.4602 10.5858 32.568 10.5083 32.6587 10.3675L33.278 9.31606Z" fill="#3B2416"/>
<g id="Group_7" opacity="0.4">
<path id="Vector_26" d="M32.5133 9.18044C32.5677 9.25069 32.523 9.37639 32.4134 9.4613C32.3037 9.54621 32.1708 9.55815 32.1164 9.48802C32.062 9.41778 32.1067 9.29219 32.2163 9.20717C32.326 9.12226 32.4588 9.11032 32.5133 9.18044Z" fill="white"/>
</g>
<g id="Group_8" opacity="0.4">
<path id="Vector_27" d="M32.0658 9.17728C32.0968 9.21713 32.0713 9.28867 32.009 9.33704C31.9467 9.38529 31.8711 9.39215 31.8403 9.35217C31.8094 9.31232 31.8348 9.24078 31.897 9.19253C31.9592 9.14428 32.0349 9.13742 32.0658 9.17739V9.17728Z" fill="white"/>
</g>
<path id="Vector_28" d="M17.5255 13.415H31.4396C31.6102 13.415 31.7488 13.5536 31.7488 13.7243V13.8845C31.7488 14.0552 31.6102 14.1938 31.4396 14.1938H17.5255C17.3549 14.1938 17.2163 14.0552 17.2163 13.8845V13.7243C17.2163 13.5536 17.3549 13.415 17.5255 13.415Z" fill="#3A3434"/>
<path id="Vector_29" d="M17.5527 13.8502C17.5527 13.9041 17.6826 13.9479 17.8428 13.9479H30.893C31.0532 13.9479 31.183 13.9041 31.183 13.8502V13.7995C31.183 13.7454 31.0531 13.7017 30.893 13.7017H17.8428C17.6826 13.7017 17.5527 13.7454 17.5527 13.7995V13.8502Z" fill="#EADAE1"/>
<path id="Vector_30" d="M17.0923 13.8847V13.7244C17.0923 13.4858 17.2865 13.2915 17.5251 13.2915H31.4391C31.6779 13.2915 31.8721 13.4857 31.8721 13.7244V13.8847C31.8721 14.1233 31.6779 14.3176 31.4391 14.3176H17.5251C17.2863 14.3176 17.0923 14.1234 17.0923 13.8847ZM17.5251 13.5389C17.4228 13.5389 17.3396 13.6221 17.3396 13.7244V13.8847C17.3396 13.987 17.4228 14.0702 17.5251 14.0702H31.4391C31.5414 14.0702 31.6247 13.987 31.6247 13.8847V13.7244C31.6247 13.6221 31.5414 13.5389 31.4391 13.5389H17.5251Z" fill="#3B2416"/>
<g id="Group_9" opacity="0.8">
<path id="Vector_31" d="M17.2505 0.593009C17.2505 0.76377 17.3236 0.902247 17.4137 0.902247H24.7565C24.8466 0.902247 24.9197 0.76377 24.9197 0.593009V0.432773C24.9197 0.262012 24.8466 0.123535 24.7565 0.123535H17.4137C17.3236 0.123535 17.2505 0.262012 17.2505 0.432773V0.593009Z" fill="#EADAE1"/>
</g>
<path id="Vector_32" d="M17.8823 0.70391C17.8823 0.813415 17.9494 0.902225 18.032 0.902225H24.77C24.8527 0.902225 24.9197 0.813415 24.9197 0.70391V0.601146C24.9197 0.491642 24.8527 0.402832 24.77 0.402832H18.032C17.9494 0.402832 17.8823 0.491642 17.8823 0.601146V0.70391Z" fill="#777474"/>
<path id="Vector_33" d="M23.0786 12.2554H29.589L29.0892 12.4491H23.5827L23.0786 12.2554Z" fill="#305646"/>
<path id="Vector_34" d="M17.252 12.2554H20.6525L20.3177 12.4491H17.7561L17.252 12.2554Z" fill="#305646"/>
<path id="Vector_35" d="M28.2054 12.5327H24.604V12.6673H28.2054V12.5327Z" fill="#6AC69C"/>
<path id="Vector_36" d="M19.6999 12.5327H17.9761V12.6673H19.6999V12.5327Z" fill="#6AC69C"/>
<path id="Vector_37" d="M22.221 7.56309H22.7817C22.8554 7.47203 22.9885 7.41113 23.1406 7.41113C23.2927 7.41113 23.4258 7.47192 23.4995 7.56309H23.7723C23.8628 7.56309 23.9362 7.63653 23.9362 7.72699C23.9362 7.81746 23.8628 7.8909 23.7723 7.8909H23.4995C23.4258 7.98195 23.2927 8.04285 23.1406 8.04285C22.9885 8.04285 22.8554 7.98207 22.7817 7.8909H22.221C22.1306 7.8909 22.0571 7.81758 22.0571 7.72699C22.0571 7.63641 22.1306 7.56309 22.221 7.56309Z" fill="#3B2416"/>
<path id="Vector_38" d="M15.5008 7.56309H16.0615C16.1351 7.47203 16.2683 7.41113 16.4204 7.41113C16.5724 7.41113 16.7056 7.47192 16.7793 7.56309H17.0521C17.1426 7.56309 17.216 7.63653 17.216 7.72699C17.216 7.81746 17.1426 7.8909 17.0521 7.8909H16.7793C16.7056 7.98195 16.5724 8.04285 16.4204 8.04285C16.2683 8.04285 16.1351 7.98207 16.0615 7.8909H15.5008C15.4102 7.8909 15.3369 7.81758 15.3369 7.72699C15.3369 7.63641 15.4104 7.56309 15.5008 7.56309Z" fill="#3B2416"/>
<g id="Group_10">
<path id="Vector_39" d="M15.616 2.75793H20.1488C20.3763 2.75793 20.5611 2.94265 20.5611 3.17017V5.76576C20.5611 5.99328 20.3763 6.178 20.1488 6.178H15.6159C15.3883 6.178 15.2036 5.99328 15.2036 5.76576V3.17005C15.2036 2.94253 15.3883 2.75781 15.6159 2.75781L15.616 2.75793Z" fill="#4D4B4C"/>
<path id="Vector_40" d="M15.5986 5.83389C15.5986 6.02405 15.7559 6.17813 15.9501 6.17813H19.8148C20.009 6.17813 20.1662 6.02405 20.1662 5.83389V3.66651C20.1662 3.47635 20.0088 3.32227 19.8148 3.32227H15.9501C15.7559 3.32227 15.5986 3.47635 15.5986 3.66651V5.83389Z" fill="#238259"/>
<g id="Group_11" opacity="0.4">
<path id="Vector_41" d="M15.4121 5.21227C15.4121 5.39639 15.5613 5.54563 15.7455 5.54563C15.9296 5.54563 16.0788 5.39639 16.0788 5.21227C16.0788 5.02814 15.9296 4.87891 15.7455 4.87891C15.5613 4.87891 15.4121 5.02814 15.4121 5.21227Z" fill="white"/>
</g>
<g id="Group_12" opacity="0.3">
<path id="Vector_42" d="M16.1479 2.7583H16.5654L17.7345 6.13331H17.317L16.1479 2.7583Z" fill="#9C9381"/>
</g>
<g id="Group_13" opacity="0.3">
<path id="Vector_43" d="M16.7734 2.7583H18.8504L20.0194 6.13331H17.9425L16.7734 2.7583Z" fill="#9C9381"/>
</g>
<g id="Group_14" opacity="0.3">
<path id="Vector_44" d="M15.7456 2.7583H15.9472L17.1164 6.13331H16.9147L15.7456 2.7583Z" fill="#9C9381"/>
</g>
<path id="Vector_45" d="M15.0801 5.7658V3.17021C15.0801 2.87469 15.3205 2.63428 15.616 2.63428H20.149C20.4445 2.63428 20.6849 2.87469 20.6849 3.17021V5.7658C20.6849 6.06132 20.4445 6.30173 20.149 6.30173H15.616C15.3205 6.30173 15.0801 6.06132 15.0801 5.7658ZM15.616 2.88155C15.4568 2.88155 15.3275 3.01104 15.3275 3.17009V5.76568C15.3275 5.92485 15.457 6.05422 15.616 6.05422H20.149C20.3081 6.05422 20.4375 5.92473 20.4375 5.76568V3.17009C20.4375 3.01092 20.308 2.88155 20.149 2.88155H15.616Z" fill="#3B2416"/>
</g>
<g id="Group_15" opacity="0.8">
<path id="Vector_46" d="M35.1483 9.45303C35.2023 9.53722 35.3772 9.52126 35.5391 9.41731C35.701 9.31348 35.7884 9.16105 35.7344 9.07697C35.6805 8.99278 35.5055 9.00874 35.3436 9.11269C35.1817 9.21652 35.0943 9.36895 35.1483 9.45303Z" fill="white"/>
</g>
<g id="Group_16" opacity="0.8">
<path id="Vector_47" d="M17.7863 0.572168C17.8166 0.619352 17.9146 0.610365 18.0054 0.552183C18.0961 0.494001 18.1452 0.408503 18.1149 0.361319C18.0847 0.314135 17.9865 0.323122 17.8958 0.381304C17.805 0.439486 17.756 0.524984 17.7863 0.572168Z" fill="white"/>
</g>
<g id="Group_17" opacity="0.8">
<path id="Vector_48" d="M8.18443 9.52236C8.23836 9.60644 8.41338 9.59048 8.57527 9.48665C8.73716 9.38282 8.82467 9.23039 8.77063 9.14631C8.7167 9.06211 8.54168 9.07808 8.37979 9.18202C8.2179 9.28585 8.13039 9.43828 8.18443 9.52236Z" fill="white"/>
</g>
<g id="Group_18" opacity="0.8">
<path id="Vector_49" d="M13.5493 9.2276C13.5404 9.26568 13.5925 9.31061 13.6658 9.32788C13.7391 9.34514 13.8058 9.32823 13.8148 9.29015C13.8238 9.25208 13.7717 9.20714 13.6983 9.18987C13.625 9.17261 13.5583 9.18952 13.5493 9.2276Z" fill="white"/>
</g>
<path id="Vector_50" d="M41.6884 8.00907H33.1462L32.9868 7.72656H41.6884V8.00907Z" fill="#305646"/>
<path id="Vector_51" d="M40.9682 7.04567H30.606L30.4648 6.6792H39.7169L40.9682 7.04567Z" fill="#6AC69C"/>
<path id="Vector_52" d="M33.0046 7.82993H41.5902V7.62381H33.132L32.6366 6.6333L32.4521 6.72542L33.0046 7.82993Z" fill="#3B2416"/>
<path id="Vector_53" d="M14.5215 1.8417H27.649C27.649 1.8417 27.1457 1.56641 26.35 1.56641H15.5986C14.9063 1.56641 14.6798 1.65273 14.5215 1.8417Z" fill="#6AC69C"/>
<path id="Vector_54" d="M21.8542 10.7136H29.27L29.3095 9.7517L29.9217 9.72687L29.9773 8.93669C29.9773 8.93669 29.2406 9.05683 29.2699 8.63525H21.6284C21.5068 10.1987 21.8541 10.7136 21.8541 10.7136H21.8542Z" fill="#6AC69C"/>
<path id="Vector_55" d="M16.0788 10.7136H20.5073L20.5744 9.76377L21.2147 9.7096V8.93669H20.6237L20.4764 8.63525H14.6113L16.0788 10.7136Z" fill="#6AC69C"/>
<g id="Group_19">
<path id="Vector_56" d="M29.4154 9.70947H29.3096V10.9196H29.4154V9.70947Z" fill="#305646"/>
<g id="Group_20">
<path id="Vector_57" d="M29.5215 10.0926C29.5215 10.1493 29.5674 10.1951 29.6239 10.1951C29.6804 10.1951 29.7263 10.1492 29.7263 10.0926C29.7263 10.0361 29.6804 9.99023 29.6239 9.99023C29.5674 9.99023 29.5215 10.0361 29.5215 10.0926Z" fill="#3B2416"/>
<path id="Vector_58" d="M29.5215 10.5106C29.5215 10.5671 29.5674 10.613 29.6239 10.613C29.6804 10.613 29.7263 10.5671 29.7263 10.5106C29.7263 10.4541 29.6804 10.4082 29.6239 10.4082C29.5674 10.4082 29.5215 10.4541 29.5215 10.5106Z" fill="#3B2416"/>
<path id="Vector_59" d="M29.4762 11.0228H29.9774V10.8167H29.4762C29.4195 10.8167 29.3732 10.7704 29.3732 10.7136V9.91568C29.3732 9.8588 29.4195 9.81256 29.4762 9.81256H29.9774V9.60645H29.4762C29.3057 9.60645 29.167 9.74516 29.167 9.91568V10.7136C29.167 10.8841 29.3057 11.0228 29.4762 11.0228Z" fill="#3B2416"/>
</g>
</g>
<g id="Group_21">
<path id="Vector_60" d="M20.6522 9.70947H20.5464V10.9196H20.6522V9.70947Z" fill="#305646"/>
<g id="Group_22">
<path id="Vector_61" d="M20.7583 10.0926C20.7583 10.1493 20.8042 10.1951 20.8607 10.1951C20.9172 10.1951 20.9631 10.1492 20.9631 10.0926C20.9631 10.0361 20.9172 9.99023 20.8607 9.99023C20.8042 9.99023 20.7583 10.0361 20.7583 10.0926Z" fill="#3B2416"/>
<path id="Vector_62" d="M20.7583 10.5106C20.7583 10.5671 20.8042 10.613 20.8607 10.613C20.9172 10.613 20.9631 10.5671 20.9631 10.5106C20.9631 10.4541 20.9172 10.4082 20.8607 10.4082C20.8042 10.4082 20.7583 10.4541 20.7583 10.5106Z" fill="#3B2416"/>
<path id="Vector_63" d="M20.713 11.0228H21.2142V10.8167H20.713C20.6562 10.8167 20.6099 10.7704 20.6099 10.7136V9.91568C20.6099 9.8588 20.6562 9.81256 20.713 9.81256H21.2142V9.60645H20.713C20.5425 9.60645 20.4038 9.74516 20.4038 9.91568V10.7136C20.4038 10.8841 20.5425 11.0228 20.713 11.0228Z" fill="#3B2416"/>
</g>
</g>
<path id="Vector_64" d="M22.2498 11.6429C21.7947 11.0358 21.5337 10.2868 21.5337 9.58798V2.05322H26.5804C27.5212 2.05322 28.0407 2.70481 28.2667 3.09316L28.2683 3.096L29.7148 5.989L29.7181 5.99621C29.7329 6.03252 30.0807 6.89649 30.0807 7.77808V11.3337C30.0807 11.7875 29.9434 12.1215 29.6727 12.3261C29.4446 12.4985 29.1214 12.5823 28.6847 12.5823H23.7157C23.2389 12.5823 22.6909 12.2311 22.25 11.6429H22.2498ZM28.0868 3.19403C27.8822 2.84364 27.4157 2.25934 26.5804 2.25934H21.7398V9.58798C21.7398 10.2431 21.9858 10.9471 22.4148 11.5192C22.8111 12.0478 23.3095 12.3762 23.7156 12.3762H28.6846C29.0748 12.3762 29.3573 12.3061 29.5483 12.1617C29.7678 11.9958 29.8745 11.725 29.8745 11.3338V7.7782C29.8745 6.96496 29.5524 6.13765 29.5285 6.07745L28.0868 3.19403Z" fill="#3B2416"/>
<g id="Group_23">
<path id="Vector_65" d="M29.4154 7.72656H29.3096V8.93679H29.4154V7.72656Z" fill="#305646"/>
<g id="Group_24">
<path id="Vector_66" d="M29.5215 8.11022C29.5215 8.16687 29.5674 8.21263 29.6239 8.21263C29.6804 8.21263 29.7263 8.16675 29.7263 8.11022C29.7263 8.0537 29.6804 8.00781 29.6239 8.00781C29.5674 8.00781 29.5215 8.0537 29.5215 8.11022Z" fill="#3B2416"/>
<path id="Vector_67" d="M29.5215 8.5277C29.5215 8.58423 29.5674 8.63011 29.6239 8.63011C29.6804 8.63011 29.7263 8.58423 29.7263 8.5277C29.7263 8.47118 29.6804 8.42529 29.6239 8.42529C29.5674 8.42529 29.5215 8.47118 29.5215 8.5277Z" fill="#3B2416"/>
<path id="Vector_68" d="M29.4762 9.03988H29.9774V8.83376H29.4762C29.4195 8.83376 29.3732 8.78752 29.3732 8.73064V7.93277C29.3732 7.87601 29.4195 7.82965 29.4762 7.82965H29.9774V7.62354H29.4762C29.3057 7.62354 29.167 7.76225 29.167 7.93277V8.73064C29.167 8.90117 29.3057 9.03988 29.4762 9.03988Z" fill="#3B2416"/>
</g>
</g>
<g id="Group_25">
<path id="Vector_69" d="M20.6522 7.72656H20.5464V8.93679H20.6522V7.72656Z" fill="#305646"/>
<g id="Group_26">
<path id="Vector_70" d="M20.7583 8.11022C20.7583 8.16687 20.8042 8.21263 20.8607 8.21263C20.9172 8.21263 20.9631 8.16675 20.9631 8.11022C20.9631 8.0537 20.9172 8.00781 20.8607 8.00781C20.8042 8.00781 20.7583 8.0537 20.7583 8.11022Z" fill="#3B2416"/>
<path id="Vector_71" d="M20.7583 8.5277C20.7583 8.58423 20.8042 8.63011 20.8607 8.63011C20.9172 8.63011 20.9631 8.58423 20.9631 8.5277C20.9631 8.47118 20.9172 8.42529 20.8607 8.42529C20.8042 8.42529 20.7583 8.47118 20.7583 8.5277Z" fill="#3B2416"/>
<path id="Vector_72" d="M20.713 9.03988H21.2142V8.83376H20.713C20.6562 8.83376 20.6099 8.78752 20.6099 8.73064V7.93277C20.6099 7.87601 20.6562 7.82965 20.713 7.82965H21.2142V7.62354H20.713C20.5425 7.62354 20.4038 7.76225 20.4038 7.93277V8.73064C20.4038 8.90117 20.5425 9.03988 20.713 9.03988Z" fill="#3B2416"/>
</g>
</g>
<path id="Vector_73" d="M17.1013 13.4152H31.9528V12.9321H16.9277L17.1013 13.4152Z" fill="#305646"/>
<path id="Vector_74" d="M17.5005 13.4118L15.25 9.98473C14.6194 9.01669 13.7035 8.50488 12.6015 8.50488H8.89693C8.20159 8.50488 7.72337 8.86615 7.4755 9.57864C7.41448 9.75401 6.7344 11.5284 6.72754 11.5463C6.72754 11.5463 6.96902 11.6075 6.9812 11.5756C7.10253 11.2591 7.65253 9.82237 7.70918 9.65976C7.92168 9.04898 8.31015 8.75215 8.89693 8.75215H12.6015C13.6158 8.75215 14.46 9.22518 15.0429 10.1201L17.1931 13.3945L17.5005 13.4118Z" fill="#305646"/>
<path id="Vector_75" d="M24.6578 12.4492H24.4517V13.4152H24.6578V12.4492Z" fill="#3B2416"/>
<path id="Vector_76" d="M28.3082 12.4492H28.1021V13.4152H28.3082V12.4492Z" fill="#3B2416"/>
<path id="Vector_77" d="M19.8028 12.4492H19.5967V13.4152H19.8028V12.4492Z" fill="#3B2416"/>
<path id="Vector_78" d="M31.8495 13.4869C31.8754 13.4504 34.4423 9.8434 34.8166 9.32474C35.1475 8.86626 35.4172 8.81624 36.3381 8.81624H40.8192C41.8056 8.81624 42.0469 9.72515 42.0567 9.76382L42.1801 9.73307C42.1801 9.73307 42.2453 9.50176 42.1056 9.27767C42.077 9.23179 42.0445 9.1846 42.0079 9.1373C41.8068 8.87797 41.4372 8.56885 40.8192 8.56885H36.3381C35.4497 8.56885 35.0392 8.59356 34.616 9.17987C34.2413 9.69913 31.6738 13.307 31.6479 13.3433L31.8495 13.4867V13.4869Z" fill="#3B2416"/>
<path id="Vector_79" d="M5.58496 7.80649H14.4352V7.3097C14.4352 7.3097 6.7959 7.31904 6.30336 7.3097C5.81095 7.30036 5.58496 7.80649 5.58496 7.80649Z" fill="#6AC69C"/>
<path id="Vector_80" d="M18.1525 12.5523H20.0076C20.6408 12.5523 21.3176 12.1738 21.3176 11.1113V2.05322H14.4351V2.25934H21.1115V11.1112C21.1115 11.8844 20.6989 12.3461 20.0077 12.3461H18.1526C17.4048 12.3461 17.0998 12.0341 16.5821 11.3222L14.9738 9.11094C14.9572 9.08611 14.5382 8.44351 14.5382 7.30979H14.332C14.332 8.52948 14.7853 9.2007 14.8046 9.22861L14.806 9.23073L16.4152 11.4434C16.6928 11.8251 16.9171 12.0982 17.1776 12.2799C17.4471 12.4681 17.7478 12.5521 18.1525 12.5521V12.5523Z" fill="#3B2416"/>
<path id="Vector_81" d="M17.127 0.593169V0.432933C17.127 0.186134 17.2503 0 17.4138 0H24.7567C24.9202 0 25.0436 0.186134 25.0436 0.432933V0.593169C25.0436 0.839968 24.9202 1.0261 24.7567 1.0261H17.4138C17.2503 1.0261 17.127 0.839968 17.127 0.593169ZM24.7961 0.593169V0.432933C24.7961 0.326858 24.7622 0.263946 24.746 0.24739H17.4244C17.4082 0.263946 17.3743 0.32674 17.3743 0.432933V0.593169C17.3743 0.699362 17.4082 0.762156 17.4244 0.778712H24.746C24.7622 0.762156 24.7961 0.699362 24.7961 0.593169Z" fill="#3B2416"/>
<path id="Vector_82" d="M23.9736 0.902344H23.624V1.56623H23.9736V0.902344Z" fill="#3B2416"/>
<path id="Vector_83" d="M18.5712 0.902344H18.2217V1.56623H18.5712V0.902344Z" fill="#3B2416"/>
<path id="Vector_84" d="M11.023 2.136C11.0909 2.10136 11.1637 2.10679 11.1917 2.15185C11.2149 2.18898 11.3737 2.4443 11.3969 2.48155C11.4201 2.5188 11.4054 2.57178 11.3651 2.61482L11.4684 2.78085C11.5249 2.7637 11.579 2.77399 11.6021 2.81124C11.6253 2.84849 11.7841 3.10381 11.8072 3.14094C11.8372 3.18895 11.8042 3.26345 11.7339 3.30862C11.731 3.49204 11.5946 3.70407 11.3692 3.84432L7.62751 6.1723C7.39999 6.31385 7.14668 6.34188 6.98101 6.26075C6.91987 6.28381 6.85909 6.27518 6.83413 6.23521C6.8164 6.20671 6.6467 5.93401 6.62896 5.90551C6.61122 5.87701 6.61607 5.83917 6.63724 5.80369L6.51887 5.61354C6.47771 5.61685 6.44164 5.60443 6.42379 5.57593C6.40605 5.54744 6.23635 5.27474 6.21861 5.24624C6.19579 5.20958 6.20939 5.15767 6.2483 5.11498C6.22997 4.92317 6.36915 4.68997 6.61122 4.53931L10.3529 2.21133C10.5918 2.06269 10.8585 2.03963 11.0231 2.13624L11.023 2.136Z" fill="#3B2416"/>
<path id="Vector_85" d="M9.71631 4.60391L9.18262 4.91553L9.4764 5.41868L10.0101 5.10707L9.71631 4.60391Z" fill="#3B2416"/>
<path id="Vector_86" d="M5.79699 10.3945L5.58496 10.4369L5.69104 11.6281L6.96453 11.7244L7.06753 11.3513C7.06753 11.3513 6.4228 11.4086 6.06732 11.3772C5.79687 11.3772 5.79687 10.3945 5.79687 10.3945H5.79699Z" fill="#305646"/>
<path id="Vector_87" d="M17.113 13.4833L17.3197 13.3476L15.1289 10.0115C14.5144 9.06814 13.6219 8.56934 12.548 8.56934H8.94166C8.26323 8.56934 7.79659 8.92174 7.55476 9.61684C7.49539 9.78748 6.8334 11.5148 6.82666 11.5322L7.05761 11.6208C7.08493 11.5495 7.72777 9.87227 7.78831 9.69808C7.99467 9.10503 8.37179 8.81673 8.94154 8.81673H12.5479C13.534 8.81673 14.3549 9.27674 14.9217 10.1469L17.1129 13.4834L17.113 13.4833Z" fill="#3B2416"/>
<path id="Vector_88" d="M5.5376 7.8128C5.5376 7.47944 5.72007 7.32795 5.87321 7.25972C6.03829 7.18605 6.21721 7.18605 6.30318 7.18605H14.3113V2.50443C14.3113 2.15215 14.3357 1.88076 14.4544 1.70172C14.6068 1.47183 14.8839 1.44238 15.1084 1.44238H26.6696C28.0609 1.44238 28.6504 2.65923 28.8723 3.11723C29.1578 3.7065 30.3245 6.11371 30.5386 6.55527H39.4866C40.4354 6.55527 41.1587 6.89798 41.6365 7.57393C42.0947 8.2222 42.327 9.18527 42.327 10.4367V12.9153L40.7342 13.5387H5.5376V7.81268V7.8128ZM42.0796 12.7465V10.4367C42.0796 9.23754 41.8626 8.32248 41.4345 7.71678C41.0058 7.11025 40.3504 6.80278 39.4866 6.80278H30.3835L30.3497 6.73301C30.3497 6.73301 28.9643 3.87478 28.6497 3.2252C28.3033 2.51035 27.7652 1.68989 26.6695 1.68989H15.1082C14.6692 1.68989 14.5586 1.7858 14.5586 2.50455V7.43356H6.30318C5.9399 7.43356 5.78499 7.54696 5.78499 7.81292V13.2916H40.6876L42.0797 12.7467L42.0796 12.7465Z" fill="#3B2416"/>
<g id="Group_27">
<path id="Vector_89" d="M7.20078 13.4155H4.58603C4.3306 13.4155 4.12354 13.2084 4.12354 12.9531V12.1167C4.12354 11.8612 4.3306 11.6543 4.58603 11.6543H7.81677L7.20078 13.4156V13.4155Z" fill="#4D4B4B"/>
<path id="Vector_90" d="M6.73864 12.8891C6.73864 13.042 6.513 13.166 6.23487 13.166H4.62742C4.34917 13.166 4.12354 13.0421 4.12354 12.8891V12.3883C4.12354 12.2354 4.34917 12.1113 4.62742 12.1113H6.23475C6.513 12.1113 6.73852 12.2353 6.73852 12.3883V12.8891H6.73864Z" fill="#777474"/>
<path id="Vector_91" d="M4 12.9528V12.1163C4 11.7932 4.26288 11.5303 4.58607 11.5303H7.99112L7.28856 13.5388H4.58607C4.26288 13.5388 4 13.276 4 12.9528ZM7.64262 11.7777H4.58607C4.39923 11.7777 4.24727 11.9296 4.24727 12.1163V12.9528C4.24727 13.1396 4.39923 13.2916 4.58607 13.2916H7.11307L7.64262 11.7777Z" fill="#3B2416"/>
<g id="Group_28" opacity="0.4">
<path id="Vector_92" d="M5.06005 12.1924C5.06005 12.351 4.91685 12.4795 4.74029 12.4795C4.56374 12.4795 4.42041 12.351 4.42041 12.1924C4.42041 12.0338 4.56362 11.9053 4.74029 11.9053C4.91696 11.9053 5.06005 12.0338 5.06005 12.1924Z" fill="white"/>
</g>
<g id="Group_29" opacity="0.4">
<path id="Vector_93" d="M5.58488 12.1924C5.58488 12.2794 5.50648 12.3497 5.40963 12.3497C5.31278 12.3497 5.23438 12.2794 5.23438 12.1924C5.23438 12.1055 5.3129 12.0352 5.40963 12.0352C5.50636 12.0352 5.58488 12.1056 5.58488 12.1924Z" fill="white"/>
</g>
</g>
<g id="Group_30">
<path id="Vector_94" d="M5.56106 8.23877H5.76908C6.01919 8.23877 6.22211 8.44181 6.22211 8.69181V10.2278C6.22211 10.4779 6.01907 10.6809 5.76908 10.6809H5.56106C5.31095 10.6809 5.10791 10.4778 5.10791 10.2277V8.69181C5.10791 8.4417 5.31095 8.23877 5.56095 8.23877H5.56106Z" fill="#E91A21"/>
<path id="Vector_95" d="M5.56095 9.96976H5.76896C6.01919 9.96976 6.22199 9.76695 6.22199 9.5166V10.2281C6.22199 10.4784 6.01919 10.6812 5.76896 10.6812H5.56095C5.31072 10.6812 5.10791 10.4784 5.10791 10.2281V9.5166C5.10791 9.76683 5.31072 9.96976 5.56095 9.96976Z" fill="#BC1925"/>
<g id="Group_31" opacity="0.8">
<path id="Vector_96" d="M5.10596 9.74972C5.10596 9.84409 5.17573 9.9206 5.2617 9.9206H5.33324C5.41922 9.9206 5.48887 9.84409 5.48887 9.74972V9.17039C5.48887 9.07602 5.4191 8.99951 5.33324 8.99951H5.2617C5.17573 8.99951 5.10596 9.07602 5.10596 9.17039V9.74972Z" fill="white"/>
</g>
<path id="Vector_97" d="M5.00488 10.2278V8.6919C5.00488 8.38526 5.2544 8.13574 5.56104 8.13574H5.76905C6.07569 8.13574 6.3252 8.38526 6.3252 8.6919V10.2278C6.3252 10.5344 6.07569 10.784 5.76905 10.784H5.56104C5.2544 10.784 5.00488 10.5344 5.00488 10.2278ZM5.56104 8.34186C5.36805 8.34186 5.211 8.4989 5.211 8.6919V10.2278C5.211 10.4208 5.36805 10.5778 5.56104 10.5778H5.76905C5.96204 10.5778 6.11909 10.4208 6.11909 10.2278V8.6919C6.11909 8.4989 5.96204 8.34186 5.76905 8.34186H5.56104Z" fill="#3B2416"/>
<g id="Group_32" opacity="0.6">
<path id="Vector_98" d="M5.29785 8.74854C5.29785 8.88631 5.4096 8.99806 5.54737 8.99806C5.68514 8.99806 5.79689 8.88631 5.79689 8.74854C5.79689 8.61078 5.68514 8.49902 5.54737 8.49902C5.4096 8.49902 5.29785 8.61078 5.29785 8.74854Z" fill="white"/>
</g>
</g>
<g id="Group_33">
<path id="Vector_99" d="M42.2036 11.0698H43.6789C43.9341 11.0698 44.1413 11.277 44.1413 11.5322V12.3686C44.1413 12.6238 43.9341 12.831 43.6789 12.831H42.2036C41.9484 12.831 41.7412 12.6238 41.7412 12.3686V11.5322C41.7412 11.277 41.9484 11.0698 42.2036 11.0698Z" fill="#4D4B4B"/>
<path id="Vector_100" d="M43.7337 12.3043C43.7337 12.4572 43.5617 12.5812 43.3497 12.5812H42.1247C41.9127 12.5812 41.7407 12.4573 41.7407 12.3043V11.8033C41.7407 11.6504 41.9127 11.5264 42.1247 11.5264H43.3497C43.5617 11.5264 43.7337 11.6504 43.7337 11.8033V12.3043Z" fill="#777474"/>
<path id="Vector_101" d="M41.6172 12.3683V11.5319C41.6172 11.2087 41.8801 10.9458 42.2033 10.9458H43.6786C44.0018 10.9458 44.2647 11.2087 44.2647 11.5319V12.3683C44.2647 12.6915 44.0018 12.9544 43.6786 12.9544H42.2033C41.8801 12.9544 41.6172 12.6914 41.6172 12.3683ZM42.2033 11.1932C42.0164 11.1932 41.8645 11.3451 41.8645 11.5319V12.3683C41.8645 12.5551 42.0164 12.707 42.2033 12.707H43.6786C43.8655 12.707 44.0173 12.555 44.0173 12.3683V11.5319C44.0173 11.3451 43.8653 11.1932 43.6786 11.1932H42.2033Z" fill="#3B2416"/>
<g id="Group_34" opacity="0.4">
<path id="Vector_102" d="M42.6774 11.608C42.6774 11.7666 42.5342 11.8952 42.3575 11.8952C42.1808 11.8952 42.0376 11.7666 42.0376 11.608C42.0376 11.4495 42.1808 11.3208 42.3575 11.3208C42.5342 11.3208 42.6774 11.4493 42.6774 11.608Z" fill="white"/>
</g>
<g id="Group_35" opacity="0.4">
<path id="Vector_103" d="M43.2021 11.6075C43.2021 11.6944 43.1237 11.7648 43.0268 11.7648C42.93 11.7648 42.8516 11.6944 42.8516 11.6075C42.8516 11.5206 42.9301 11.4502 43.0268 11.4502C43.1236 11.4502 43.2021 11.5207 43.2021 11.6075Z" fill="white"/>
</g>
</g>
<g id="Group_36">
<path id="Vector_104" d="M34.4452 14.9911L34.4077 14.9743C34.3731 14.7865 34.3526 14.5938 34.3477 14.3972L34.3856 14.3697C34.3855 14.3566 34.3851 14.3436 34.3851 14.3303C34.3851 14.2993 34.3855 14.2685 34.3863 14.2377L34.3477 14.2097C34.3526 14.0131 34.3731 13.8204 34.4076 13.6326L34.4566 13.6108C34.4648 13.5698 34.4738 13.5291 34.4834 13.4887L34.4466 13.4478C34.4917 13.2581 34.5515 13.0741 34.6247 12.8969L34.6847 12.8842C34.7003 12.8482 34.7165 12.8125 34.7332 12.7773L34.7018 12.7229C34.7848 12.5481 34.8811 12.3807 34.9894 12.2224H35.0592C35.0805 12.1927 35.1022 12.1634 35.1244 12.1343L35.1022 12.0663C35.2186 11.9138 35.3464 11.7703 35.4847 11.6376L35.562 11.6541C35.5874 11.6308 35.6131 11.6077 35.6392 11.585L35.6307 11.5046C35.7742 11.3807 35.9274 11.2677 36.0888 11.1667L36.1697 11.2028C36.1982 11.1859 36.227 11.1695 36.2559 11.1534L36.2654 11.0629C36.4288 10.9728 36.5997 10.8948 36.777 10.8299L36.8563 10.8878C36.8868 10.8775 36.9177 10.8677 36.9486 10.8581L36.9795 10.7627C37.1553 10.7098 37.3364 10.6696 37.522 10.6433L37.5935 10.7229C37.6245 10.7193 37.6557 10.7161 37.687 10.7132L37.7387 10.6236L37.7415 10.6189C37.841 10.6107 37.9417 10.6064 38.0434 10.6064C38.1265 10.6064 38.2089 10.6095 38.2908 10.615L38.3475 10.7133C38.3787 10.7161 38.4097 10.7194 38.4407 10.7229L38.5182 10.6368C38.6997 10.6603 38.8771 10.6968 39.0494 10.7456L39.0859 10.8581C39.1168 10.8676 39.1474 10.8774 39.1779 10.8877L39.2745 10.8174C39.4445 10.8776 39.6086 10.9499 39.766 11.0331L39.7787 11.1534C39.8076 11.1695 39.8362 11.1859 39.8646 11.2027L39.976 11.1531C40.1276 11.2464 40.2719 11.3504 40.4081 11.464L40.3954 11.585C40.4215 11.6076 40.447 11.6307 40.4725 11.6538L40.5926 11.6283C40.72 11.7497 40.8387 11.8802 40.9477 12.0185L40.9101 12.1342C40.9322 12.1633 40.954 12.1925 40.9753 12.2223H41.0972C41.1954 12.3658 41.2836 12.5167 41.361 12.6738L41.3012 12.7773C41.318 12.8125 41.3341 12.8482 41.3497 12.8842L41.4669 12.909C41.5319 13.0682 41.5863 13.2329 41.6288 13.4022L41.5509 13.4886C41.5605 13.529 41.5695 13.5697 41.5777 13.6106L41.6835 13.6577C41.7132 13.8257 41.7314 13.9975 41.7374 14.1726L41.6479 14.2376C41.6487 14.2683 41.6491 14.2993 41.6491 14.3302C41.6491 14.3433 41.6487 14.3563 41.6486 14.3694L41.7374 14.434C41.7313 14.609 41.7132 14.781 41.6835 14.949L41.589 14.991C41.5805 15.0372 41.5711 15.0832 41.5609 15.129L41.6288 15.2043C41.5862 15.3737 41.5318 15.5384 41.4667 15.6976L41.3747 15.7171C41.3557 15.763 41.3358 15.8084 41.315 15.8534L41.3609 15.9328C41.2835 16.0899 41.1951 16.2407 41.0971 16.3844H41.0128C40.9834 16.427 40.9535 16.4691 40.9224 16.5103L40.9477 16.588C40.8386 16.7264 40.72 16.8568 40.5926 16.9783L40.5196 16.9628C40.4807 16.9997 40.441 17.0359 40.4006 17.071L40.4081 17.1425C40.272 17.2562 40.1276 17.3601 39.976 17.4534L39.9162 17.4268C39.8691 17.4557 39.8211 17.4837 39.7726 17.5104L39.7661 17.5733C39.6086 17.6567 39.4445 17.7288 39.2746 17.789L39.2282 17.7552C39.175 17.774 39.121 17.7918 39.0666 17.8081L39.0495 17.8608C38.8772 17.9097 38.6998 17.9462 38.5183 17.9696L38.4848 17.9324C38.4285 17.9396 38.3719 17.9454 38.3148 17.95L38.2909 17.9915C38.209 17.9969 38.1266 18 38.0435 18C37.9418 18 37.8412 17.9958 37.7416 17.9876L37.7199 17.95C37.6629 17.9454 37.6063 17.9396 37.5499 17.9324L37.5222 17.9631C37.3366 17.9367 37.1554 17.8967 36.9797 17.8438L36.9681 17.8081C36.9137 17.7916 36.8598 17.774 36.8065 17.7552L36.7772 17.7766C36.5999 17.7118 36.429 17.6337 36.2655 17.5435L36.2621 17.5104C36.2136 17.4836 36.1657 17.4558 36.1185 17.4268L36.0892 17.4398C35.9278 17.3388 35.7744 17.2259 35.6308 17.102L35.6342 17.071C35.5937 17.0359 35.5541 16.9997 35.5152 16.9628L35.485 16.9692C35.3468 16.8365 35.219 16.693 35.1026 16.5404L35.1123 16.5105C35.0812 16.4691 35.0512 16.4271 35.0218 16.3845H34.9898C34.8815 16.2261 34.7851 16.0587 34.7021 15.8838L34.7195 15.8537C34.6986 15.8086 34.6788 15.7632 34.6597 15.7173L34.625 15.71C34.5518 15.5328 34.4919 15.3487 34.4469 15.159L34.4737 15.1292C34.4634 15.0835 34.454 15.0375 34.4455 14.9911H34.4452Z" fill="#3B2416"/>
<path id="Vector_105" d="M35.5469 14.4197C35.5469 15.7875 36.6436 16.8963 37.9965 16.8963C39.3495 16.8963 40.4461 15.7874 40.4461 14.4197C40.4461 13.0521 39.3494 11.9434 37.9965 11.9434C36.6437 11.9434 35.5469 13.0522 35.5469 14.4197Z" fill="#5E3A26"/>
<g id="Group_37">
<path id="Vector_106" d="M35.667 14.3328C35.667 15.6526 36.7368 16.7224 38.0565 16.7224C39.3761 16.7224 40.4458 15.6526 40.4458 14.3328C40.4458 13.0131 39.3761 11.9434 38.0565 11.9434C36.7368 11.9434 35.667 13.0133 35.667 14.3328Z" fill="#8E8E8E"/>
<path id="Vector_107" d="M38.0566 16.7224C39.3763 16.7224 40.446 15.6526 40.446 14.3328C40.446 13.0131 39.3763 11.9434 38.0566 11.9434C40.8125 12.4212 41.0531 16.0853 38.0566 16.7224Z" fill="#777474"/>
<path id="Vector_108" d="M36.103 14.3327C36.103 15.4116 36.9776 16.2863 38.0566 16.2863C39.1356 16.2863 40.01 15.4116 40.01 14.3327C40.01 13.2539 39.1353 12.3794 38.0566 12.3794C36.9779 12.3794 36.103 13.2541 36.103 14.3327Z" fill="#8E8E8E"/>
<path id="Vector_109" d="M36.1031 14.3327C36.306 13.0764 37.9374 11.766 39.6659 13.2253C39.3135 12.7143 38.7243 12.3794 38.0566 12.3794C36.9778 12.3794 36.103 13.2541 36.103 14.3327H36.1031Z" fill="#777474"/>
<path id="Vector_110" d="M36.0205 14.3328C36.0205 13.2102 36.9339 12.2969 38.0565 12.2969C39.1791 12.2969 40.0924 13.2102 40.0924 14.3328C40.0924 15.4554 39.1791 16.3688 38.0565 16.3688C36.9339 16.3688 36.0205 15.4554 36.0205 14.3328ZM36.1855 14.3328C36.1855 15.3645 37.0249 16.2039 38.0565 16.2039C39.0882 16.2039 39.9274 15.3645 39.9274 14.3328C39.9274 13.301 39.0882 12.4618 38.0565 12.4618C37.0249 12.4618 36.1855 13.3011 36.1855 14.3328Z" fill="#3B2416"/>
<path id="Vector_111" d="M36.9146 14.3138C36.9146 13.6912 37.421 13.1846 38.0437 13.1846C38.6663 13.1846 39.1726 13.6911 39.1726 14.3138C39.1726 14.9365 38.6661 15.4428 38.0437 15.4428C37.4212 15.4428 36.9146 14.9363 36.9146 14.3138ZM37.0382 14.3138C37.0382 14.8681 37.4893 15.3191 38.0437 15.3191C38.598 15.3191 39.0491 14.8682 39.0491 14.3138C39.0491 13.7594 38.598 13.3083 38.0437 13.3083C37.4893 13.3083 37.0382 13.7593 37.0382 14.3138Z" fill="#3B2416"/>
<g id="Group_38">
<path id="Vector_112" d="M37.9878 13.5275C37.9878 13.5652 38.0183 13.5958 38.0561 13.5958C38.094 13.5958 38.1246 13.5652 38.1246 13.5275C38.1246 13.4897 38.094 13.459 38.056 13.459C38.0181 13.459 37.9877 13.4896 37.9878 13.5275Z" fill="#2D2525"/>
<path id="Vector_113" d="M37.3247 13.9895C37.3575 14.0084 37.3992 13.9972 37.4181 13.9645C37.4372 13.9317 37.4261 13.89 37.3933 13.871C37.3605 13.8521 37.3187 13.8632 37.2996 13.8961C37.2808 13.9287 37.2921 13.9707 37.3248 13.9895H37.3247Z" fill="#2D2525"/>
<path id="Vector_114" d="M37.3932 14.7946C37.4261 14.7758 37.4372 14.734 37.4182 14.7012C37.3994 14.6687 37.3576 14.6572 37.3247 14.6761C37.292 14.6952 37.2809 14.737 37.2997 14.7697C37.3186 14.8024 37.3604 14.8137 37.3931 14.7946H37.3932Z" fill="#2D2525"/>
<path id="Vector_115" d="M38.1247 15.1383C38.1247 15.1005 38.094 15.0698 38.0563 15.0698C38.0185 15.0698 37.9878 15.1005 37.9878 15.1383C37.9878 15.1761 38.0184 15.2069 38.0563 15.2069C38.0941 15.2069 38.1247 15.1761 38.1247 15.1383Z" fill="#2D2525"/>
<path id="Vector_116" d="M38.7882 14.6762C38.7556 14.6572 38.7137 14.6686 38.6948 14.7011C38.6758 14.7338 38.687 14.7756 38.7199 14.7946C38.7526 14.8135 38.7945 14.8024 38.8134 14.7695C38.8323 14.7369 38.8211 14.6949 38.7884 14.6762H38.7882Z" fill="#2D2525"/>
<path id="Vector_117" d="M38.7193 13.8712C38.6865 13.89 38.6754 13.9317 38.6943 13.9644C38.7132 13.9971 38.7549 14.0084 38.7877 13.9896C38.8205 13.9707 38.8317 13.9287 38.8128 13.896C38.7938 13.8632 38.7521 13.852 38.7192 13.8712H38.7193Z" fill="#2D2525"/>
<path id="Vector_118" d="M37.9878 13.5275C37.9878 13.5652 38.0183 13.5958 38.0561 13.5958C38.094 13.5958 38.1246 13.5652 38.1246 13.5275C38.1246 13.4897 38.094 13.459 38.0561 13.459C38.0183 13.459 37.9878 13.4896 37.9878 13.5275Z" fill="#2D2525"/>
</g>
<g id="Group_39">
<path id="Vector_119" d="M38.5163 14.5756C38.5546 14.5032 38.5762 14.4207 38.5762 14.3331C38.5762 14.0458 38.3434 13.813 38.0561 13.813C37.9733 13.813 37.8947 13.8325 37.8252 13.8669C38.1678 13.8932 38.5158 14.0898 38.5162 14.5756H38.5163Z" fill="#777474"/>
<path id="Vector_120" d="M37.4746 14.3329C37.4746 14.012 37.7356 13.751 38.0564 13.751C38.3773 13.751 38.6382 14.0121 38.6382 14.3329C38.6382 14.6537 38.3773 14.9147 38.0564 14.9147C37.7356 14.9147 37.4746 14.6537 37.4746 14.3329ZM37.5983 14.3329C37.5983 14.5855 37.8038 14.7909 38.0564 14.7909C38.309 14.7909 38.5147 14.5854 38.5147 14.3329C38.5147 14.0804 38.3091 13.8746 38.0564 13.8746C37.8037 13.8746 37.5983 14.0802 37.5983 14.3329Z" fill="#3B2416"/>
<path id="Vector_121" d="M37.7734 14.3331C37.7734 14.4895 37.9002 14.6162 38.0565 14.6162C38.2129 14.6162 38.3398 14.4895 38.3398 14.3331C38.3398 14.1768 38.213 14.0498 38.0565 14.0498C37.9001 14.0498 37.7734 14.1767 37.7734 14.3331Z" fill="#777474"/>
<g id="Group_40" opacity="0.4">
<path id="Vector_122" d="M38.4016 14.1942C38.4016 14.3049 38.3119 14.3948 38.201 14.3948C38.0902 14.3948 38.0005 14.305 38.0005 14.1942C38.0005 14.0834 38.0902 13.9937 38.201 13.9937C38.3119 13.9937 38.4016 14.0834 38.4016 14.1942Z" fill="white"/>
</g>
</g>
<g id="Group_41">
<path id="Vector_123" d="M37.2382 13.2775L37.2573 13.1696L37.2023 13.0745L37.0993 13.0371L36.9963 13.0745L36.9414 13.1694L36.9604 13.2775L37.0444 13.348L37.1541 13.3481L37.2382 13.2775Z" fill="#2D2525"/>
<path id="Vector_124" d="M36.6518 14.2181L36.7359 14.1476L36.7549 14.0397L36.7 13.9447L36.5968 13.9072L36.4938 13.9447L36.439 14.0397L36.4581 14.1476L36.5421 14.2181H36.6518Z" fill="#2D2525"/>
<path id="Vector_125" d="M36.8265 15.2079L36.9105 15.1373L36.9295 15.0292L36.8748 14.9342L36.7716 14.897L36.6686 14.9345L36.6138 15.0294L36.6329 15.1373L36.7169 15.2079H36.8265Z" fill="#2D2525"/>
<path id="Vector_126" d="M37.596 15.8536L37.68 15.7831L37.699 15.675L37.6443 15.5801L37.5412 15.5425L37.4383 15.5802L37.3833 15.675L37.4023 15.7831L37.4863 15.8536H37.596Z" fill="#2D2525"/>
<path id="Vector_127" d="M38.6009 15.8536L38.6849 15.7831L38.704 15.675L38.6491 15.5802L38.5459 15.5425L38.4429 15.5801L38.3882 15.675L38.4072 15.7831L38.4913 15.8536H38.6009Z" fill="#2D2525"/>
<path id="Vector_128" d="M39.3705 15.2079L39.4545 15.1373L39.4735 15.0294L39.4187 14.9345L39.3156 14.897L39.2125 14.9343L39.1577 15.0294L39.1768 15.1373L39.2608 15.2079H39.3705Z" fill="#2D2525"/>
<path id="Vector_129" d="M39.5448 14.2181L39.6287 14.1476L39.6479 14.0398L39.593 13.9447L39.49 13.9072L39.387 13.9447L39.332 14.0398L39.3511 14.1478L39.4353 14.2181H39.5448Z" fill="#2D2525"/>
<path id="Vector_130" d="M39.0428 13.348L39.1269 13.2775L39.1458 13.1696L39.0911 13.0745L38.9879 13.0371L38.8849 13.0745L38.8301 13.1696L38.8491 13.2776L38.9331 13.3481L39.0428 13.348Z" fill="#2D2525"/>
<path id="Vector_131" d="M38.0985 13.0044L38.1826 12.9339L38.2015 12.8259L38.1467 12.731L38.0437 12.6934L37.9406 12.731L37.8857 12.8259L37.9049 12.9339L37.9889 13.0044H38.0985Z" fill="#2D2525"/>
</g>
<path id="Vector_132" d="M35.5845 14.3327C35.5845 12.9697 36.6934 11.8608 38.0564 11.8608C39.4194 11.8608 40.5281 12.9697 40.5281 14.3327C40.5281 15.6957 39.4193 16.8047 38.0564 16.8047C36.6935 16.8047 35.5845 15.6957 35.5845 14.3327ZM35.7494 14.3327C35.7494 15.6049 36.7844 16.6399 38.0565 16.6399C39.3286 16.6399 40.3634 15.6049 40.3634 14.3327C40.3634 13.0605 39.3286 12.0257 38.0565 12.0257C36.7844 12.0257 35.7494 13.0607 35.7494 14.3327Z" fill="#3B2416"/>
</g>
<path id="Vector_133" d="M37.9141 11.279C36.7576 11.279 36.2246 11.7391 35.6968 12.3374C36.1907 11.5983 37.0325 11.1113 37.9882 11.1113C38.944 11.1113 39.7857 11.5982 40.2796 12.3374C39.7519 11.739 39.0704 11.279 37.9139 11.279H37.9141Z" fill="#5E3A26"/>
</g>
<g id="Group_42">
<path id="Vector_134" d="M7.91153 14.9911L7.87392 14.9743C7.83939 14.7865 7.81881 14.5938 7.81396 14.3972L7.85192 14.3697C7.85181 14.3566 7.85145 14.3436 7.85145 14.3303C7.85145 14.2993 7.85181 14.2685 7.85263 14.2377L7.81396 14.2097C7.81881 14.0131 7.83927 13.8204 7.87392 13.6326L7.92288 13.6108C7.93116 13.5698 7.94003 13.5291 7.9496 13.4887L7.91283 13.4478C7.95788 13.2581 8.01772 13.0741 8.09092 12.8969L8.15099 12.8842C8.1666 12.8482 8.1828 12.8125 8.19948 12.7773L8.16802 12.7229C8.25104 12.5481 8.3473 12.3807 8.45562 12.2224H8.52539C8.54668 12.1927 8.56843 12.1634 8.59067 12.1343L8.56855 12.0663C8.68492 11.9138 8.81275 11.7703 8.95099 11.6376L9.02833 11.6541C9.05375 11.6308 9.07942 11.6077 9.10543 11.585L9.09692 11.5046C9.24048 11.3807 9.39362 11.2677 9.55504 11.1667L9.63593 11.2028C9.66443 11.1859 9.69316 11.1695 9.72202 11.1534L9.73159 11.0629C9.89502 10.9728 10.0659 10.8948 10.2432 10.8299L10.3226 10.8878C10.3531 10.8775 10.384 10.8677 10.4149 10.8581L10.4459 10.7627C10.6216 10.7098 10.8028 10.6696 10.9883 10.6433L11.0598 10.7229C11.0908 10.7193 11.122 10.7161 11.1533 10.7132L11.2051 10.6236L11.2078 10.6189C11.3073 10.6107 11.408 10.6064 11.5096 10.6064C11.5927 10.6064 11.6751 10.6095 11.757 10.615L11.8138 10.7133C11.8449 10.7161 11.876 10.7194 11.907 10.7229L11.9845 10.6368C12.166 10.6603 12.3434 10.6968 12.5157 10.7456L12.5522 10.8581C12.5831 10.8676 12.6137 10.8774 12.6442 10.8877L12.7408 10.8174C12.9108 10.8776 13.0749 10.9499 13.2323 11.0331L13.2448 11.1534C13.2737 11.1695 13.3024 11.1859 13.3308 11.2027L13.4422 11.1531C13.5938 11.2464 13.7381 11.3504 13.8742 11.464L13.8614 11.585C13.8874 11.6076 13.913 11.6307 13.9384 11.6538L14.0586 11.6283C14.1859 11.7497 14.3046 11.8802 14.4137 12.0185L14.3761 12.1342C14.3981 12.1633 14.4199 12.1925 14.4412 12.2223H14.5632C14.6613 12.3658 14.7495 12.5167 14.827 12.6738L14.7671 12.7773C14.7839 12.8125 14.8 12.8482 14.8156 12.8842L14.9329 12.909C14.998 13.0682 15.0523 13.2329 15.0948 13.4022L15.017 13.4886C15.0266 13.529 15.0356 13.5697 15.0437 13.6106L15.1496 13.6577C15.1793 13.8257 15.1975 13.9975 15.2035 14.1726L15.114 14.2376C15.1148 14.2683 15.1153 14.2993 15.1153 14.3302C15.1153 14.3433 15.1149 14.3563 15.1147 14.3694L15.2035 14.434C15.1975 14.609 15.1793 14.781 15.1495 14.949L15.0551 14.991C15.0466 15.0372 15.0371 15.0832 15.027 15.129L15.0948 15.2043C15.0523 15.3737 14.9979 15.5384 14.9328 15.6976L14.8408 15.7171C14.8219 15.763 14.8019 15.8084 14.7811 15.8534L14.827 15.9328C14.7495 16.0899 14.6613 16.2407 14.5632 16.3844H14.4788C14.4495 16.427 14.4196 16.4691 14.3885 16.5103L14.4138 16.588C14.3046 16.7264 14.1859 16.8568 14.0586 16.9783L13.9856 16.9628C13.9467 16.9997 13.907 17.0359 13.8665 17.071L13.8741 17.1425C13.738 17.2562 13.5936 17.3601 13.442 17.4534L13.3821 17.4268C13.335 17.4557 13.2871 17.4837 13.2385 17.5104L13.232 17.5733C13.0744 17.6567 12.9103 17.7288 12.7405 17.789L12.694 17.7552C12.6408 17.774 12.5869 17.7918 12.5325 17.8081L12.5153 17.8608C12.343 17.9097 12.1655 17.9462 11.9841 17.9696L11.9507 17.9324C11.8944 17.9396 11.8376 17.9454 11.7806 17.95L11.7566 17.9915C11.6748 17.9969 11.5923 18 11.5092 18C11.4075 18 11.307 17.9958 11.2073 17.9876L11.1855 17.95C11.1285 17.9454 11.0719 17.9396 11.0155 17.9324L10.9878 17.9631C10.8022 17.9367 10.621 17.8967 10.4453 17.8438L10.4337 17.8081C10.3793 17.7916 10.3254 17.774 10.2721 17.7552L10.2427 17.7766C10.0654 17.7118 9.89455 17.6337 9.731 17.5435L9.72746 17.5104C9.67897 17.4836 9.63108 17.4558 9.58389 17.4268L9.55457 17.4398C9.39315 17.3388 9.23977 17.2259 9.09621 17.102L9.09952 17.071C9.05908 17.0359 9.01934 16.9997 8.98055 16.9628L8.9504 16.9692C8.81216 16.8365 8.68432 16.693 8.56796 16.5404L8.57778 16.5105C8.54668 16.4691 8.51664 16.4271 8.48731 16.3845H8.45526C8.34694 16.2261 8.25056 16.0587 8.16755 15.8838L8.18493 15.8537C8.16412 15.8086 8.14425 15.7632 8.12521 15.7173L8.09045 15.71C8.01725 15.5328 7.95741 15.3487 7.91235 15.159L7.9392 15.1292C7.92891 15.0835 7.91957 15.0375 7.91105 14.9911H7.91153Z" fill="#3B2416"/>
<path id="Vector_135" d="M9.01318 14.4197C9.01318 15.7875 10.11 16.8963 11.4628 16.8963C12.8157 16.8963 13.9124 15.7874 13.9124 14.4197C13.9124 13.0521 12.8157 11.9434 11.4628 11.9434C10.11 11.9434 9.01318 13.0522 9.01318 14.4197Z" fill="#5E3A26"/>
<g id="Group_43">
<path id="Vector_136" d="M9.1333 14.3328C9.1333 15.6526 10.203 16.7224 11.5228 16.7224C12.8425 16.7224 13.9121 15.6526 13.9121 14.3328C13.9121 13.0131 12.8424 11.9434 11.5228 11.9434C10.2032 11.9434 9.1333 13.0133 9.1333 14.3328Z" fill="#8E8E8E"/>
<path id="Vector_137" d="M11.5225 16.7224C12.8421 16.7224 13.9118 15.6526 13.9118 14.3328C13.9118 13.0131 12.8421 11.9434 11.5225 11.9434C14.2783 12.4212 14.5189 16.0853 11.5225 16.7224Z" fill="#777474"/>
<path id="Vector_138" d="M9.56934 14.3327C9.56934 15.4116 10.444 16.2863 11.5229 16.2863C12.6019 16.2863 13.4763 15.4116 13.4763 14.3327C13.4763 13.2539 12.6016 12.3794 11.5229 12.3794C10.4442 12.3794 9.56934 13.2541 9.56934 14.3327Z" fill="#8E8E8E"/>
<path id="Vector_139" d="M9.56897 14.3327C9.77177 13.0764 11.4032 11.766 13.1318 13.2253C12.7794 12.7143 12.1901 12.3794 11.5224 12.3794C10.4436 12.3794 9.56885 13.2541 9.56885 14.3327H9.56897Z" fill="#777474"/>
<path id="Vector_140" d="M9.48682 14.3328C9.48682 13.2102 10.4001 12.2969 11.5228 12.2969C12.6455 12.2969 13.5586 13.2102 13.5586 14.3328C13.5586 15.4554 12.6453 16.3688 11.5228 16.3688C10.4003 16.3688 9.48682 15.4554 9.48682 14.3328ZM9.65178 14.3328C9.65178 15.3645 10.4912 16.2039 11.5228 16.2039C12.5545 16.2039 13.3937 15.3645 13.3937 14.3328C13.3937 13.301 12.5545 12.4618 11.5228 12.4618C10.4912 12.4618 9.65178 13.3011 9.65178 14.3328Z" fill="#3B2416"/>
<path id="Vector_141" d="M10.3809 14.3138C10.3809 13.6912 10.8875 13.1846 11.5101 13.1846C12.1327 13.1846 12.6391 13.6911 12.6391 14.3138C12.6391 14.9365 12.1326 15.4428 11.5101 15.4428C10.8876 15.4428 10.3809 14.9363 10.3809 14.3138ZM10.5046 14.3138C10.5046 14.8681 10.9556 15.3191 11.5101 15.3191C12.0646 15.3191 12.5154 14.8682 12.5154 14.3138C12.5154 13.7594 12.0643 13.3083 11.5101 13.3083C10.9558 13.3083 10.5046 13.7593 10.5046 14.3138Z" fill="#3B2416"/>
<g id="Group_44">
<path id="Vector_142" d="M11.4542 13.5275C11.4542 13.5652 11.4847 13.5958 11.5226 13.5958C11.5604 13.5958 11.591 13.5652 11.591 13.5275C11.591 13.4897 11.5604 13.459 11.5225 13.459C11.4845 13.459 11.4541 13.4896 11.4541 13.5275H11.4542Z" fill="#2D2525"/>
<path id="Vector_143" d="M10.791 13.9895C10.8239 14.0084 10.8655 13.9972 10.8845 13.9645C10.9035 13.9317 10.8924 13.89 10.8596 13.871C10.8269 13.8521 10.785 13.8632 10.766 13.8961C10.7472 13.9287 10.7583 13.9707 10.791 13.9895Z" fill="#2D2525"/>
<path id="Vector_144" d="M10.8595 14.7946C10.8924 14.7758 10.9034 14.734 10.8845 14.7012C10.8657 14.6687 10.8239 14.6572 10.791 14.6761C10.7583 14.6952 10.7472 14.737 10.766 14.7697C10.7849 14.8024 10.8268 14.8137 10.8594 14.7946H10.8595Z" fill="#2D2525"/>
<path id="Vector_145" d="M11.591 15.1383C11.591 15.1005 11.5603 15.0698 11.5226 15.0698C11.4848 15.0698 11.4541 15.1005 11.4541 15.1383C11.4541 15.1761 11.4847 15.2069 11.5226 15.2069C11.5604 15.2069 11.591 15.1761 11.591 15.1383Z" fill="#2D2525"/>
<path id="Vector_146" d="M12.2541 14.6762C12.2213 14.6572 12.1796 14.6686 12.1606 14.7011C12.1416 14.7338 12.1528 14.7756 12.1857 14.7946C12.2183 14.8135 12.2603 14.8024 12.2792 14.7695C12.2982 14.7369 12.2869 14.6949 12.2542 14.6762H12.2541Z" fill="#2D2525"/>
<path id="Vector_147" d="M12.1861 13.8712C12.1533 13.89 12.1422 13.9317 12.1611 13.9644C12.18 13.9971 12.2217 14.0084 12.2545 13.9896C12.2873 13.9707 12.2985 13.9287 12.2796 13.896C12.2606 13.8632 12.2189 13.852 12.186 13.8712H12.1861Z" fill="#2D2525"/>
<path id="Vector_148" d="M11.4541 13.5275C11.4541 13.5652 11.4846 13.5958 11.5225 13.5958C11.5603 13.5958 11.5909 13.5652 11.5909 13.5275C11.5909 13.4897 11.5603 13.459 11.5225 13.459C11.4846 13.459 11.4541 13.4896 11.4541 13.5275Z" fill="#2D2525"/>
</g>
<g id="Group_45">
<path id="Vector_149" d="M11.9826 14.5756C12.0209 14.5032 12.0425 14.4207 12.0425 14.3331C12.0425 14.0458 11.8097 13.813 11.5225 13.813C11.4396 13.813 11.361 13.8325 11.2915 13.8669C11.6341 13.8932 11.9821 14.0898 11.9825 14.5756H11.9826Z" fill="#777474"/>
<path id="Vector_150" d="M10.9409 14.3329C10.9409 14.012 11.2019 13.751 11.5227 13.751C11.8436 13.751 12.1047 14.0121 12.1047 14.3329C12.1047 14.6537 11.8437 14.9147 11.5227 14.9147C11.2018 14.9147 10.9409 14.6537 10.9409 14.3329ZM11.0646 14.3329C11.0646 14.5855 11.2701 14.7909 11.5227 14.7909C11.7753 14.7909 11.981 14.5854 11.981 14.3329C11.981 14.0804 11.7754 13.8746 11.5227 13.8746C11.27 13.8746 11.0646 14.0802 11.0646 14.3329Z" fill="#3B2416"/>
<path id="Vector_151" d="M11.2397 14.3331C11.2397 14.4895 11.3665 14.6162 11.5228 14.6162C11.6792 14.6162 11.8061 14.4895 11.8061 14.3331C11.8061 14.1768 11.6793 14.0498 11.5228 14.0498C11.3664 14.0498 11.2397 14.1767 11.2397 14.3331Z" fill="#777474"/>
<g id="Group_46" opacity="0.4">
<path id="Vector_152" d="M11.8679 14.1942C11.8679 14.3049 11.7782 14.3948 11.6674 14.3948C11.5566 14.3948 11.4668 14.305 11.4668 14.1942C11.4668 14.0834 11.5566 13.9937 11.6674 13.9937C11.7782 13.9937 11.8679 14.0834 11.8679 14.1942Z" fill="white"/>
</g>
</g>
<g id="Group_47">
<path id="Vector_153" d="M10.7045 13.2775L10.7235 13.1696L10.6686 13.0745L10.5655 13.0371L10.4625 13.0745L10.4077 13.1694L10.4268 13.2775L10.5107 13.348L10.6205 13.3481L10.7045 13.2775Z" fill="#2D2525"/>
<path id="Vector_154" d="M10.118 14.2181L10.2021 14.1476L10.2211 14.0397L10.1661 13.9447L10.0631 13.9072L9.96003 13.9447L9.90527 14.0397L9.92431 14.1476L10.0083 14.2181H10.118Z" fill="#2D2525"/>
<path id="Vector_155" d="M10.2927 15.2079L10.3767 15.1373L10.3958 15.0292L10.3409 14.9342L10.2379 14.897L10.1349 14.9345L10.0801 15.0294L10.0991 15.1373L10.1831 15.2079H10.2927Z" fill="#2D2525"/>
<path id="Vector_156" d="M11.0622 15.8536L11.1462 15.7831L11.1652 15.675L11.1105 15.5801L11.0074 15.5425L10.9045 15.5802L10.8496 15.675L10.8685 15.7831L10.9525 15.8536H11.0622Z" fill="#2D2525"/>
<path id="Vector_157" d="M12.0671 15.8536L12.1511 15.7831L12.1702 15.675L12.1152 15.5802L12.0122 15.5425L11.9092 15.5801L11.8545 15.675L11.8735 15.7831L11.9575 15.8536H12.0671Z" fill="#2D2525"/>
<path id="Vector_158" d="M12.8368 15.2079L12.9208 15.1373L12.9398 15.0294L12.885 14.9345L12.7819 14.897L12.6789 14.9343L12.624 15.0294L12.6431 15.1373L12.7271 15.2079H12.8368Z" fill="#2D2525"/>
<path id="Vector_159" d="M13.0115 14.2181L13.0955 14.1476L13.1146 14.0398L13.0597 13.9447L12.9568 13.9072L12.8537 13.9447L12.7988 14.0398L12.8177 14.1478L12.9019 14.2181H13.0115Z" fill="#2D2525"/>
<path id="Vector_160" d="M12.5091 13.348L12.5931 13.2775L12.612 13.1696L12.5573 13.0745L12.4543 13.0371L12.3511 13.0745L12.2964 13.1696L12.3153 13.2776L12.3993 13.3481L12.5091 13.348Z" fill="#2D2525"/>
<path id="Vector_161" d="M11.5648 13.0044L11.6489 12.9339L11.6678 12.8259L11.613 12.731L11.51 12.6934L11.4068 12.731L11.3521 12.8259L11.3711 12.9339L11.4551 13.0044H11.5648Z" fill="#2D2525"/>
</g>
<path id="Vector_162" d="M9.05078 14.3327C9.05078 12.9697 10.1597 11.8608 11.5227 11.8608C12.8857 11.8608 13.9944 12.9697 13.9944 14.3327C13.9944 15.6957 12.8856 16.8047 11.5227 16.8047C10.1598 16.8047 9.05078 15.6957 9.05078 14.3327ZM9.21575 14.3327C9.21575 15.6049 10.2507 16.6399 11.5228 16.6399C12.7949 16.6399 13.8297 15.6049 13.8297 14.3327C13.8297 13.0605 12.7949 12.0257 11.5228 12.0257C10.2507 12.0257 9.21575 13.0607 9.21575 14.3327Z" fill="#3B2416"/>
</g>
<path id="Vector_163" d="M11.3804 11.279C10.224 11.279 9.69086 11.7391 9.16309 12.3374C9.65704 11.5983 10.4988 11.1113 11.4545 11.1113C12.4103 11.1113 13.252 11.5982 13.746 12.3374C13.2182 11.739 12.5367 11.279 11.3803 11.279H11.3804Z" fill="#5E3A26"/>
</g>
<g id="Group_48">
<g id="Group_49">
<path id="Vector_164" d="M28.5712 5.31615C28.3385 4.84053 27.5063 3.14025 27.5063 3.14025C27.2427 2.78939 27.0789 2.75781 26.9421 2.75781H23.0581C22.6738 2.75781 22.3623 3.0693 22.3623 3.45363V5.48206C22.3623 5.86639 22.6739 6.17788 23.0581 6.17788H28.2402C28.702 6.17788 28.8039 5.79165 28.5712 5.31603V5.31615Z" fill="#4D4B4C"/>
<path id="Vector_165" d="M27.6802 5.49848C27.5156 5.12314 26.9271 3.78165 26.9271 3.78165C26.7406 3.50481 26.6247 3.47998 26.5279 3.47998H23.7808C23.509 3.47998 23.2886 3.72572 23.2886 4.02904V5.62951C23.2886 5.93272 23.5089 6.17857 23.7808 6.17857H27.4461C27.7727 6.17857 27.8448 5.87382 27.6802 5.4986V5.49848Z" fill="#238259"/>
<g id="Group_50" opacity="0.4">
<path id="Vector_166" d="M26.3501 3.47936C26.3501 3.66348 26.4993 3.81272 26.6835 3.81272C26.8676 3.81272 27.0168 3.66348 27.0168 3.47936C27.0168 3.29523 26.8676 3.146 26.6835 3.146C26.4993 3.146 26.3501 3.29523 26.3501 3.47936Z" fill="white"/>
</g>
<path id="Vector_167" d="M23.4611 4.70691C23.4814 4.90428 23.338 5.08083 23.1406 5.10129C22.9433 5.12163 22.7667 4.97819 22.7464 4.78082L22.6528 3.87617C22.6324 3.6788 22.7759 3.50224 22.9733 3.4819C23.1707 3.46156 23.3472 3.60501 23.3677 3.80237L23.4612 4.70703L23.4611 4.70691Z" fill="#3B2416"/>
<path id="Vector_168" d="M26.1412 6.13287C26.1432 6.12933 26.1454 6.1259 26.1476 6.12247L27.3672 4.35774C27.4158 4.2875 27.512 4.26988 27.5823 4.31848C27.6525 4.36709 27.6702 4.46335 27.6216 4.53359L26.5162 6.13287H26.1411H26.1412Z" fill="#3B2416"/>
<g id="Group_51" opacity="0.3">
<path id="Vector_169" d="M23.6909 2.75781H24.1084L25.2774 6.13282H24.86L23.6909 2.75781Z" fill="#9C9381"/>
</g>
<path id="Vector_170" d="M22.4362 5.79297H25.4766C25.6461 5.79297 25.7835 5.93038 25.7835 6.09996C25.7835 6.10658 25.7829 6.11309 25.7824 6.11971H22.8066L22.436 5.79309L22.4362 5.79297Z" fill="#3B2416"/>
<g id="Group_52" opacity="0.3">
<path id="Vector_171" d="M24.3169 2.75781H26.3937L27.5629 6.13282H25.486L24.3169 2.75781Z" fill="#9C9381"/>
</g>
<g id="Group_53" opacity="0.3">
<path id="Vector_172" d="M23.2886 2.75781H23.4903L24.6595 6.13282H24.4578L23.2886 2.75781Z" fill="#9C9381"/>
</g>
<path id="Vector_173" d="M22.2593 5.48215V3.45372C22.2593 3.01322 22.6176 2.65479 23.0582 2.65479H26.9422C27.1392 2.65479 27.3246 2.7268 27.5888 3.07838L27.5947 3.08618L28.6639 5.27095C28.818 5.58575 28.8372 5.86412 28.7183 6.05486C28.6538 6.1581 28.5187 6.2812 28.2403 6.2812H23.0582C22.6177 6.2812 22.2593 5.92277 22.2593 5.48227V5.48215ZM26.9422 2.8609H23.0582C22.7314 2.8609 22.4655 3.12686 22.4655 3.45372V5.48215C22.4655 5.80901 22.7314 6.07497 23.0582 6.07497H28.2403C28.3879 6.07497 28.4898 6.03145 28.5434 5.94571C28.6211 5.82131 28.5968 5.60289 28.4787 5.36153L27.4182 3.1945C27.1655 2.86102 27.0312 2.86102 26.9422 2.86102V2.8609Z" fill="#3B2416"/>
</g>
<path id="Vector_174" d="M22.7939 4.19141H22.3623V4.63936H22.7939V4.19141Z" fill="#3B2416"/>
</g>
</g>
</g>
<defs>
<filter id="filter0_d_2895_3444" x="0" y="0" width="48.2646" height="26" filterUnits="userSpaceOnUse" color-interpolation-filters="sRGB">
<feFlood flood-opacity="0" result="BackgroundImageFix"/>
<feColorMatrix in="SourceAlpha" type="matrix" values="0 0 0 0 0 0 0 0 0 0 0 0 0 0 0 0 0 0 127 0" result="hardAlpha"/>
<feOffset dy="4"/>
<feGaussianBlur stdDeviation="2"/>
<feComposite in2="hardAlpha" operator="out"/>
<feColorMatrix type="matrix" values="0 0 0 0 0 0 0 0 0 0 0 0 0 0 0 0 0 0 0.25 0"/>
<feBlend mode="normal" in2="BackgroundImageFix" result="effect1_dropShadow_2895_3444"/>
<feBlend mode="normal" in="SourceGraphic" in2="effect1_dropShadow_2895_3444" result="shape"/>
</filter>
</defs>
</svg>
