<svg width="58" height="26" viewBox="0 0 58 26" fill="none" xmlns="http://www.w3.org/2000/svg">
<g id="Layer 1" filter="url(#filter0_d_2895_2630)">
<g id="Group">
<path id="Vector" d="M25.1861 6.93108C25.3266 7.14336 25.6127 7.20164 25.825 7.06112C26.0373 6.9206 26.0956 6.63448 25.955 6.42219L22.7142 1.52451C22.5737 1.31223 22.2877 1.25395 22.0753 1.39447C21.863 1.53499 21.8047 1.82111 21.9453 2.0334L25.1861 6.93108Z" fill="#3B2416"/>
<path id="Vector_2" d="M23.3072 3.70752C23.3966 3.64845 23.4211 3.52794 23.362 3.43854C23.303 3.34915 23.1824 3.3247 23.0931 3.38377L21.0313 4.74799C20.9419 4.80706 20.9175 4.92757 20.9765 5.01696C21.0358 5.10635 21.1561 5.13081 21.2455 5.07174L23.3071 3.70752H23.3072Z" fill="#3B2416"/>
<path id="Vector_3" d="M46.9525 5.72348C46.9525 6.96957 46.9525 14.6367 46.9525 14.6367C46.9525 14.6367 41.797 14.6367 40.8164 14.6367C39.8357 14.6367 39.516 14.0006 39.516 12.4368C39.2759 12.4368 37.5422 12.4368 37.5422 12.4368C37.5422 12.4368 35.7666 13.4145 34.0205 13.4145C32.2744 13.4145 12.6678 13.4145 12.6678 13.4145L11.1576 14.6367C11.1576 14.6367 8.93253 14.6367 8.47286 14.6367C8.01304 14.6367 7.63388 14.1276 7.63388 13.4145C7.63388 12.9427 7.63388 12.4368 7.63388 12.4368C7.63388 12.4368 6.64802 12.4368 5.4945 12.4368C4.34097 12.4368 4.17822 11.3314 4.17822 10.9306C4.17822 10.5299 4.17822 8.19264 4.17822 7.1971C4.17822 6.2014 11.1811 3.7597 13.3812 3.7597C14.8265 3.7597 17.1987 3.75716 17.1987 3.75716C17.1987 3.75716 18.6074 4.67633 25.2111 4.67633C26.9736 4.67633 28.8672 4.67633 30.2033 4.67633C32.4957 4.67633 32.7761 2.58252 32.7761 2.58252L37.5446 3.67317C37.5446 3.67317 43.8708 3.74335 45.1761 3.74335C46.4816 3.74335 46.9528 4.47738 46.9528 5.72348H46.9525Z" fill="#3A3434"/>
<path id="Vector_4" d="M20.6443 6.26514H7.40381V11.0502H20.6443V6.26514Z" fill="#2D2525"/>
<path id="Vector_5" d="M46.953 6.93896H35.6479V12.4367H39.5163L39.5776 13.4144H46.953V6.93896Z" fill="#2D2525"/>
<path id="Vector_6" d="M37.5423 12.4368C37.5423 12.4368 35.7667 13.4145 34.0206 13.4145C32.956 13.4145 25.2521 13.4145 19.4006 13.4145C19.4006 10.5826 17.1049 8.28679 14.2729 8.28679C11.4409 8.28679 9.14513 10.5826 9.14513 13.4145C9.14513 13.8358 9.19626 14.245 9.29216 14.6367C8.92856 14.6367 8.6156 14.6367 8.47286 14.6367C8.01304 14.6367 7.63388 14.1276 7.63388 13.4145C7.63388 12.9427 7.63388 12.4368 7.63388 12.4368C7.63388 12.4368 6.64802 12.4368 5.4945 12.4368C4.34097 12.4368 4.17822 11.3314 4.17822 10.9306C4.17822 10.5299 4.17822 8.19264 4.17822 7.1971C4.17822 6.2014 11.1811 3.7597 13.3812 3.7597C14.8265 3.7597 17.1987 3.75716 17.1987 3.75716C17.1987 3.75716 18.6074 4.67633 25.2111 4.67633C26.9736 4.67633 28.8672 4.67633 30.2033 4.67633C32.4957 4.67633 32.7761 2.58252 32.7761 2.58252L37.5446 3.67317C37.5446 3.67317 43.8708 3.74335 45.1761 3.74335C46.4816 3.74335 46.9528 4.47738 46.9528 5.72348C46.9528 6.42162 46.9528 9.1361 46.9528 11.3879C39.542 11.3879 37.5423 12.4368 37.5423 12.4368Z" fill="#006CB1"/>
<g id="Group_2">
<path id="Vector_7" d="M46.3272 5.21237C45.0218 5.21237 38.6957 5.14219 38.6957 5.14219L32.7099 5.09106C32.7099 5.09106 31.877 6.14535 30.1372 6.14535C28.8013 6.14535 28.1249 6.14535 26.3624 6.14535C19.7587 6.14535 17.213 5.22618 17.213 5.22618C17.213 5.22618 14.8408 5.22888 13.3955 5.22888C11.4873 5.22888 5.9224 7.06579 4.17822 8.2028C4.17822 7.81443 4.17822 7.45924 4.17822 7.1971C4.17822 6.2014 11.1811 3.7597 13.3812 3.7597C14.8265 3.7597 17.1987 3.75716 17.1987 3.75716C17.1987 3.75716 18.6074 4.67633 25.2111 4.67633C26.9736 4.67633 28.8672 4.67633 30.2033 4.67633C32.4957 4.67633 32.7761 2.58252 32.7761 2.58252L37.5446 3.67317C37.5446 3.67317 43.8708 3.74335 45.1761 3.74335C46.3171 3.74335 46.8209 4.30415 46.9296 5.27747C46.7523 5.23491 46.5524 5.21253 46.3272 5.21253V5.21237Z" fill="#4F9BC6"/>
<path id="Vector_8" d="M8.78481 13.9062C8.78481 13.9062 8.78481 14.2511 8.78481 14.6369C8.65033 14.6369 8.54156 14.6369 8.47281 14.6369C8.12794 14.6369 7.82833 14.3505 7.7002 13.9062C8.34071 13.9062 8.78481 13.9062 8.78481 13.9062Z" fill="#4F9BC6"/>
</g>
<path id="Vector_9" d="M7.22062 11.3642C7.61789 10.0854 8.38717 8.92855 9.44765 8.03669C10.7892 6.90841 12.5024 6.28711 14.2718 6.28711C16.2256 6.28711 18.063 7.02749 19.4453 8.37203C20.4842 9.3825 21.1726 10.6432 21.4516 12.0147C21.501 12.2572 21.7925 12.9034 22.9911 12.9034C24.1898 12.9034 36.4327 12.9034 36.4327 12.9034L34.7033 13.4172H21.313V13.4145H21.0578C21.0578 9.77881 18.0136 6.82108 14.2718 6.82108C10.9033 6.82108 7.99959 9.24261 7.51722 12.4537L5.58203 12.3745C6.89592 12.3745 7.11821 11.6938 7.22062 11.3644V11.3642Z" fill="#065784"/>
<path id="Vector_10" d="M23.4722 14.1424C23.4722 14.5444 23.7981 14.8702 24.2002 14.8702H28.1322C28.5342 14.8702 28.86 14.5443 28.86 14.1424C28.86 13.7404 28.534 13.4146 28.1322 13.4146H24.2002C23.7981 13.4146 23.4722 13.7405 23.4722 14.1424Z" fill="#3A3434"/>
<path id="Vector_11" d="M39.8102 13.8457H28.8599V14.4391H39.8102V13.8457Z" fill="#3B2416"/>
<path id="Vector_12" d="M23.4939 13.8457H17.7939V14.4391H23.4939V13.8457Z" fill="#3B2416"/>
<path id="Vector_13" d="M13.3809 3.75986C14.8262 3.75986 17.1984 3.75732 17.1984 3.75732C17.1984 3.75732 17.3516 3.85735 17.7938 3.99136C17.136 3.992 15.3932 3.99375 14.2402 3.99375C12.0401 3.99375 5.0372 6.43544 5.0372 7.43114C5.0372 8.42684 5.0372 10.7637 5.0372 11.1647C5.0372 11.4497 5.11993 12.0905 5.58181 12.4373H5.49401C4.34048 12.4373 4.17773 11.3319 4.17773 10.9311C4.17773 10.5303 4.17773 8.19312 4.17773 7.19758C4.17773 6.20188 11.1807 3.76018 13.3807 3.76018L13.3809 3.75986Z" fill="#065784"/>
<path id="Vector_14" d="M8.4931 12.6709C8.4931 12.6709 8.4931 13.1768 8.4931 13.6487C8.4931 14.0707 8.626 14.4213 8.82987 14.6371C8.67442 14.6371 8.54915 14.6371 8.47277 14.6371C8.01295 14.6371 7.63379 14.128 7.63379 13.4149V12.6709C8.15093 12.6709 8.49326 12.6709 8.49326 12.6709H8.4931Z" fill="#006CB1"/>
<path id="Vector_15" d="M45.7382 11.4042H46.0348V5.84524C46.0348 4.24348 45.1707 3.64473 45.1339 3.62012L44.9678 3.86607C44.9992 3.88766 45.738 4.41131 45.738 5.8454V11.4044L45.7382 11.4042Z" fill="#3B2416"/>
<path id="Vector_16" d="M23.2939 14.1428C23.2939 13.6433 23.7003 13.2368 24.1998 13.2368H28.1318C28.6313 13.2368 29.0376 13.6431 29.0376 14.1428C29.0376 14.6423 28.6313 15.0486 28.1318 15.0486H24.1998C23.7003 15.0486 23.2939 14.6422 23.2939 14.1428ZM24.1998 13.593C23.8965 13.593 23.6499 13.8397 23.6499 14.1428C23.6499 14.4459 23.8967 14.6927 24.1998 14.6927H28.1318C28.4349 14.6927 28.6816 14.4459 28.6816 14.1428C28.6816 13.8397 28.4349 13.593 28.1318 13.593H24.1998Z" fill="#3B2416"/>
<path id="Vector_17" d="M30.7078 5.14743C29.3718 5.14743 27.8328 5.14743 26.0702 5.14743C21.2732 5.14743 19.2174 4.42498 18.4517 4.15951C19.5822 4.40673 21.6347 4.67633 25.2109 4.67633C26.9733 4.67633 28.8669 4.67633 30.203 4.67633C32.4955 4.67633 32.7759 2.58252 32.7759 2.58252L33.4113 2.7278C33.4113 2.7278 32.9035 5.14743 30.7079 5.14743H30.7078Z" fill="#065784"/>
<g id="Group_3" opacity="0.7">
<path id="Vector_18" d="M4.88762 7.33185C4.69566 7.58637 4.652 7.87726 4.79013 7.98141C4.92827 8.08557 5.19597 7.96379 5.38793 7.70927C5.5799 7.45475 5.62356 7.16386 5.48542 7.05971C5.34729 6.95555 5.07959 7.07733 4.88762 7.33185Z" fill="white"/>
</g>
<g id="Group_4">
<path id="Vector_19" d="M37.7509 3.74316H37.522V9.94886H37.7509V3.74316Z" fill="#3E99CC"/>
<path id="Vector_20" d="M37.293 10.7334L37.5219 9.94886V3.74316H37.293V10.7334Z" fill="#065784"/>
</g>
<g id="Group_5">
<path id="Vector_21" d="M32.8232 5.01855H32.5942V9.9491H32.8232V5.01855Z" fill="#3E99CC"/>
<path id="Vector_22" d="M32.3652 10.467L32.5942 9.94922V5.21826L32.3652 5.41658V10.467Z" fill="#065784"/>
</g>
<g id="Group_6">
<path id="Vector_23" d="M35.648 11.7051H20.9033V11.9342H35.648V11.7051Z" fill="#3E99CC"/>
<path id="Vector_24" d="M20.6445 11.4761L20.9035 11.705H35.5753L36.6461 11.4761H20.6445Z" fill="#065784"/>
</g>
<g id="Group_7">
<path id="Vector_25" d="M25.0674 9.9489L25.2963 10.3641V5.9707H25.0674V9.9489Z" fill="#3E99CC"/>
<path id="Vector_26" d="M25.0673 6.1416H24.8384V9.94895H25.0673V6.1416Z" fill="#065784"/>
</g>
<path id="Vector_27" d="M20.7231 11.8534H35.5148C36.2515 11.8534 36.7845 11.6953 37.1445 11.3698C37.4981 11.0502 37.67 10.5854 37.67 9.94905V3.62744H37.3734V9.94905C37.3734 11.061 36.8003 11.5568 35.5148 11.5568H20.7231V11.8536V11.8534Z" fill="#3B2416"/>
<path id="Vector_28" d="M20.7662 13.4145H21.1222C21.1222 11.5849 20.4097 9.86483 19.116 8.57111C17.8223 7.27738 16.1022 6.56494 14.2726 6.56494C12.6154 6.56494 11.0113 7.1629 9.75552 8.24879C8.50863 9.32689 7.69267 10.8069 7.45752 12.4159L7.80969 12.4674C8.27174 9.3053 11.0502 6.92092 14.2726 6.92092C17.8532 6.92092 20.7662 9.83387 20.7662 13.4145Z" fill="#3B2416"/>
<path id="Vector_29" d="M43.8185 8.39272C44.4077 7.72903 45.0895 7.21967 45.8273 6.88623V7.51341C44.4405 8.23362 43.3126 9.64453 42.8283 11.3198C42.7769 11.498 42.2073 11.5207 42.2359 11.4068C42.5157 10.2949 43.0701 9.23552 43.8185 8.39272Z" fill="#065784"/>
<path id="Vector_30" d="M9.15276 14.6612C9.07893 14.3062 9.04146 13.9428 9.04146 13.5787C9.04146 10.6613 11.4149 8.28788 14.3323 8.28788C17.2497 8.28788 19.4067 10.5313 19.5288 13.3367C19.5323 13.4169 20.1559 13.4423 20.1536 13.3747C20.0458 10.2569 17.4758 7.75391 14.3323 7.75391C11.1205 7.75391 8.50732 10.3669 8.50732 13.5789C8.50732 13.9342 8.53972 14.2888 8.6037 14.6371C8.62403 14.7478 9.16498 14.7211 9.1526 14.6614L9.15276 14.6612Z" fill="#065784"/>
<path id="Vector_31" d="M37.6249 12.5945C37.6294 12.5923 38.1408 12.3343 39.5426 12.0797C40.8341 11.8454 43.168 11.5659 46.9527 11.5659V11.21C39.5827 11.21 37.5428 12.2355 37.4595 12.2792L37.6249 12.5945Z" fill="#3B2416"/>
<g id="Group_8" opacity="0.6">
<path id="Vector_32" d="M41.0322 5.25994C41.0322 5.49986 41.5016 5.6942 42.0805 5.6942C42.6594 5.6942 43.1287 5.4997 43.1287 5.25994C43.1287 5.02019 42.6594 4.82568 42.0805 4.82568C41.5016 4.82568 41.0322 5.02019 41.0322 5.25994Z" fill="white"/>
</g>
<g id="Group_9" opacity="0.6">
<path id="Vector_33" d="M13.395 7.66681C13.395 7.81066 13.6765 7.92736 14.0239 7.92736C14.3713 7.92736 14.6529 7.81066 14.6529 7.66681C14.6529 7.52279 14.3713 7.40625 14.0239 7.40625C13.6765 7.40625 13.395 7.52295 13.395 7.66681Z" fill="white"/>
</g>
<path id="Vector_34" d="M45.8865 8.4917C45.8865 9.31211 45.8865 11.3883 45.8865 11.3883L43.5332 11.4604C43.882 10.4594 44.1961 9.4747 45.8865 8.4917Z" fill="#065784"/>
<g id="Group_10">
<path id="Vector_35" d="M45.0513 3.74328C45.0513 3.74328 46.9526 3.47129 46.9526 5.43395C46.9526 7.39661 46.9526 11.388 46.9526 11.388H45.8866C45.8866 11.388 45.8866 7.8034 45.8866 6.11606C45.8866 4.42872 45.0513 3.74328 45.0513 3.74328Z" fill="#4D4B4B"/>
<path id="Vector_36" d="M45.0514 3.74283C45.0514 3.74283 46.3904 3.86462 46.3904 5.43351C46.3904 6.68087 46.3904 8.74769 46.3904 10.0884C46.3904 10.8574 46.4431 10.9217 45.8866 10.9217C45.8866 9.89614 45.8866 7.42999 45.8866 6.11546C45.8866 4.42812 45.0513 3.74268 45.0513 3.74268L45.0514 3.74283Z" fill="#777474"/>
<path id="Vector_37" d="M45.7382 11.4042H46.0348V5.84524C46.0348 4.24348 45.1707 3.64473 45.1339 3.62012L44.9678 3.86607C44.9992 3.88766 45.738 4.41131 45.738 5.8454V11.4044L45.7382 11.4042Z" fill="#3B2416"/>
<g id="Group_11" opacity="0.6">
<path id="Vector_38" d="M46.1133 4.90094C46.1894 5.06798 46.3253 5.1696 46.4167 5.12784C46.5082 5.08608 46.5206 4.91698 46.4445 4.74994C46.3685 4.58291 46.2325 4.48129 46.1411 4.52305C46.0496 4.56481 46.0372 4.73391 46.1133 4.90094Z" fill="white"/>
</g>
</g>
<g id="Group_12">
<path id="Vector_39" d="M33.3484 12.1816H33.1704V12.9195H33.3484V12.1816Z" fill="#3B2416"/>
<path id="Vector_40" d="M33.3979 12.1816H33.3301V12.9195H33.3979V12.1816Z" fill="#3E99CC"/>
</g>
<g id="Group_13">
<path id="Vector_41" d="M42.5715 6.70557H42.3936V9.38527H42.5715V6.70557Z" fill="#3B2416"/>
<path id="Vector_42" d="M42.621 6.70557H42.5532V9.38527H42.621V6.70557Z" fill="#3E99CC"/>
</g>
<g id="Group_14">
<path id="Vector_43" d="M42.1453 6.70557H41.9673V9.38527H42.1453V6.70557Z" fill="#3B2416"/>
<path id="Vector_44" d="M42.1943 6.70557H42.1265V9.38527H42.1943V6.70557Z" fill="#3E99CC"/>
</g>
<g id="Group_15">
<path id="Vector_45" d="M41.7185 6.70557H41.5405V9.38527H41.7185V6.70557Z" fill="#3B2416"/>
<path id="Vector_46" d="M41.768 6.70557H41.7002V9.38527H41.768V6.70557Z" fill="#3E99CC"/>
</g>
<g id="Group_16">
<path id="Vector_47" d="M41.2918 6.70557H41.1138V9.38527H41.2918V6.70557Z" fill="#3B2416"/>
<path id="Vector_48" d="M41.3407 6.70557H41.2729V9.38527H41.3407V6.70557Z" fill="#3E99CC"/>
</g>
<g id="Group_17">
<path id="Vector_49" d="M40.865 6.70557H40.687V9.38527H40.865V6.70557Z" fill="#3B2416"/>
<path id="Vector_50" d="M40.9145 6.70557H40.8467V9.38527H40.9145V6.70557Z" fill="#3E99CC"/>
</g>
<g id="Group_18">
<path id="Vector_51" d="M40.4382 6.70557H40.2603V9.38527H40.4382V6.70557Z" fill="#3B2416"/>
<path id="Vector_52" d="M40.4877 6.70557H40.4199V9.38527H40.4877V6.70557Z" fill="#3E99CC"/>
</g>
<g id="Group_19">
<path id="Vector_53" d="M40.012 6.70557H39.834V9.38527H40.012V6.70557Z" fill="#3B2416"/>
<path id="Vector_54" d="M40.0615 6.70557H39.9937V9.38527H40.0615V6.70557Z" fill="#3E99CC"/>
</g>
<g id="Group_20">
<path id="Vector_55" d="M39.5852 6.70557H39.4072V9.38527H39.5852V6.70557Z" fill="#3B2416"/>
<path id="Vector_56" d="M39.6347 6.70557H39.5669V9.38527H39.6347V6.70557Z" fill="#3E99CC"/>
</g>
<g id="Group_21">
<path id="Vector_57" d="M32.8875 12.1816H32.7095V12.9195H32.8875V12.1816Z" fill="#3B2416"/>
<path id="Vector_58" d="M32.9365 12.1816H32.8687V12.9195H32.9365V12.1816Z" fill="#3E99CC"/>
</g>
<g id="Group_22">
<path id="Vector_59" d="M32.4265 12.1816H32.2485V12.9195H32.4265V12.1816Z" fill="#3B2416"/>
<path id="Vector_60" d="M32.476 12.1816H32.4082V12.9195H32.476V12.1816Z" fill="#3E99CC"/>
</g>
<g id="Group_23">
<path id="Vector_61" d="M31.9656 12.1816H31.7876V12.9195H31.9656V12.1816Z" fill="#3B2416"/>
<path id="Vector_62" d="M32.0151 12.1816H31.9473V12.9195H32.0151V12.1816Z" fill="#3E99CC"/>
</g>
<g id="Group_24">
<path id="Vector_63" d="M31.5047 12.1816H31.3267V12.9195H31.5047V12.1816Z" fill="#3B2416"/>
<path id="Vector_64" d="M31.5541 12.1816H31.4863V12.9195H31.5541V12.1816Z" fill="#3E99CC"/>
</g>
<g id="Group_25">
<path id="Vector_65" d="M31.0437 12.1816H30.8657V12.9195H31.0437V12.1816Z" fill="#3B2416"/>
<path id="Vector_66" d="M31.0932 12.1816H31.0254V12.9195H31.0932V12.1816Z" fill="#3E99CC"/>
</g>
<g id="Group_26">
<path id="Vector_67" d="M30.5823 12.1816H30.4043V12.9195H30.5823V12.1816Z" fill="#3B2416"/>
<path id="Vector_68" d="M30.6318 12.1816H30.564V12.9195H30.6318V12.1816Z" fill="#3E99CC"/>
</g>
<g id="Group_27">
<path id="Vector_69" d="M30.1214 12.1816H29.9434V12.9195H30.1214V12.1816Z" fill="#3B2416"/>
<path id="Vector_70" d="M30.1708 12.1816H30.103V12.9195H30.1708V12.1816Z" fill="#3E99CC"/>
</g>
<g id="Group_28">
<path id="Vector_71" d="M29.6604 12.1816H29.4824V12.9195H29.6604V12.1816Z" fill="#3B2416"/>
<path id="Vector_72" d="M29.7099 12.1816H29.6421V12.9195H29.7099V12.1816Z" fill="#3E99CC"/>
</g>
<g id="Group_29">
<path id="Vector_73" d="M29.1995 12.1816H29.0215V12.9195H29.1995V12.1816Z" fill="#3B2416"/>
<path id="Vector_74" d="M29.2489 12.1816H29.1812V12.9195H29.2489V12.1816Z" fill="#3E99CC"/>
</g>
<g id="Group_30">
<path id="Vector_75" d="M28.7385 12.1816H28.5605V12.9195H28.7385V12.1816Z" fill="#3B2416"/>
<path id="Vector_76" d="M28.788 12.1816H28.7202V12.9195H28.788V12.1816Z" fill="#3E99CC"/>
</g>
<g id="Group_31">
<path id="Vector_77" d="M28.2776 12.1816H28.0996V12.9195H28.2776V12.1816Z" fill="#3B2416"/>
<path id="Vector_78" d="M28.3271 12.1816H28.2593V12.9195H28.3271V12.1816Z" fill="#3E99CC"/>
</g>
<g id="Group_32">
<path id="Vector_79" d="M27.8167 12.1816H27.6387V12.9195H27.8167V12.1816Z" fill="#3B2416"/>
<path id="Vector_80" d="M27.8661 12.1816H27.7983V12.9195H27.8661V12.1816Z" fill="#3E99CC"/>
</g>
<g id="Group_33">
<path id="Vector_81" d="M27.3552 12.1816H27.1772V12.9195H27.3552V12.1816Z" fill="#3B2416"/>
<path id="Vector_82" d="M27.4047 12.1816H27.3369V12.9195H27.4047V12.1816Z" fill="#3E99CC"/>
</g>
<g id="Group_34">
<path id="Vector_83" d="M26.8943 12.1816H26.7163V12.9195H26.8943V12.1816Z" fill="#3B2416"/>
<path id="Vector_84" d="M26.9438 12.1816H26.876V12.9195H26.9438V12.1816Z" fill="#3E99CC"/>
</g>
<g id="Group_35">
<path id="Vector_85" d="M26.4334 12.1816H26.2554V12.9195H26.4334V12.1816Z" fill="#3B2416"/>
<path id="Vector_86" d="M26.4828 12.1816H26.415V12.9195H26.4828V12.1816Z" fill="#3E99CC"/>
</g>
<g id="Group_36">
<path id="Vector_87" d="M25.9724 12.1816H25.7944V12.9195H25.9724V12.1816Z" fill="#3B2416"/>
<path id="Vector_88" d="M26.0219 12.1816H25.9541V12.9195H26.0219V12.1816Z" fill="#3E99CC"/>
</g>
<g id="Group_37">
<path id="Vector_89" d="M25.5115 12.1816H25.3335V12.9195H25.5115V12.1816Z" fill="#3B2416"/>
<path id="Vector_90" d="M25.5605 12.1816H25.4927V12.9195H25.5605V12.1816Z" fill="#3E99CC"/>
</g>
<g id="Group_38">
<path id="Vector_91" d="M25.0505 12.1816H24.8726V12.9195H25.0505V12.1816Z" fill="#3B2416"/>
<path id="Vector_92" d="M25.1 12.1816H25.0322V12.9195H25.1V12.1816Z" fill="#3E99CC"/>
</g>
<g id="Group_39">
<path id="Vector_93" d="M24.5896 12.1816H24.4116V12.9195H24.5896V12.1816Z" fill="#3B2416"/>
<path id="Vector_94" d="M24.6391 12.1816H24.5713V12.9195H24.6391V12.1816Z" fill="#3E99CC"/>
</g>
<g id="Group_40">
<path id="Vector_95" d="M24.1287 12.1816H23.9507V12.9195H24.1287V12.1816Z" fill="#3B2416"/>
<path id="Vector_96" d="M24.1777 12.1816H24.1099V12.9195H24.1777V12.1816Z" fill="#3E99CC"/>
</g>
<g id="Group_41">
<path id="Vector_97" d="M23.6672 12.1816H23.4893V12.9195H23.6672V12.1816Z" fill="#3B2416"/>
<path id="Vector_98" d="M23.7167 12.1816H23.6489V12.9195H23.7167V12.1816Z" fill="#3E99CC"/>
</g>
<g id="Group_42">
<path id="Vector_99" d="M23.2063 12.1816H23.0283V12.9195H23.2063V12.1816Z" fill="#3B2416"/>
<path id="Vector_100" d="M23.2556 12.1816H23.188V12.9195H23.2556V12.1816Z" fill="#3E99CC"/>
</g>
<g id="Group_43">
<path id="Vector_101" d="M22.7454 12.1816H22.5674V12.9195H22.7454V12.1816Z" fill="#3B2416"/>
<path id="Vector_102" d="M22.7948 12.1816H22.7271V12.9195H22.7948V12.1816Z" fill="#3E99CC"/>
</g>
<g id="Group_44">
<path id="Vector_103" d="M22.2844 12.1816H22.1064V12.9195H22.2844V12.1816Z" fill="#3B2416"/>
<path id="Vector_104" d="M22.3339 12.1816H22.2661V12.9195H22.3339V12.1816Z" fill="#3E99CC"/>
</g>
<g id="Group_45">
<path id="Vector_105" d="M48.6009 5.2277C48.8623 5.2277 49.0741 5.43951 49.0741 5.70086V6.08161C49.0741 6.3428 48.8623 6.55461 48.6009 6.55461C48.6009 6.55461 48.4078 6.54127 48.1597 6.49872V5.28343C48.4078 5.24088 48.6009 5.22754 48.6009 5.22754V5.2277Z" fill="#CC3429"/>
<path id="Vector_106" d="M48.4112 5.31494C48.5865 5.31494 48.7286 5.45689 48.7286 5.63234V5.88766C48.7286 6.06295 48.5865 6.20489 48.4112 6.20489C48.4112 6.20489 48.2818 6.196 48.1152 6.16742V5.35241C48.2816 5.32383 48.4112 5.31494 48.4112 5.31494Z" fill="#E8503E"/>
<path id="Vector_107" d="M47.0874 5.89088C47.0874 5.55189 47.6428 5.38009 48.0806 5.29736V6.48423C47.6427 6.40151 47.0874 6.22971 47.0874 5.89088Z" fill="#777474"/>
<path id="Vector_108" d="M48.6007 5.2277C48.6464 5.2277 48.6904 5.23453 48.7323 5.24659C48.327 5.29566 47.407 5.45507 47.407 5.89123C47.407 6.3274 48.327 6.48665 48.7323 6.53572C48.6906 6.54778 48.6464 6.55461 48.6007 6.55461C48.6007 6.55461 47.0874 6.45045 47.0874 5.89107C47.0874 5.33154 48.6007 5.22754 48.6007 5.22754V5.2277Z" fill="#4D4B4B"/>
<g id="Group_46" opacity="0.4">
<path id="Vector_109" d="M48.3379 6.03907C48.3379 6.19308 48.4627 6.31788 48.6167 6.31788C48.7707 6.31788 48.8955 6.19308 48.8955 6.03907C48.8955 5.88505 48.7707 5.76025 48.6167 5.76025C48.4627 5.76025 48.3379 5.88505 48.3379 6.03907Z" fill="white"/>
</g>
<g id="Group_47" opacity="0.4">
<path id="Vector_110" d="M47.2622 5.92061C47.2622 6.00937 47.3343 6.08145 47.4231 6.08145C47.5118 6.08145 47.5839 6.00952 47.5839 5.92061C47.5839 5.83169 47.512 5.75977 47.4231 5.75977C47.3341 5.75977 47.2622 5.83169 47.2622 5.92061Z" fill="white"/>
</g>
<path id="Vector_111" d="M48.2805 5.28809H47.9839V6.49385H48.2805V5.28809Z" fill="#3B2416"/>
<path id="Vector_112" d="M48.5904 6.70261C48.5744 6.7015 48.1943 6.67451 47.8075 6.57638C47.2311 6.43015 46.939 6.1996 46.939 5.89109C46.939 5.58259 47.2311 5.35188 47.8075 5.20565C48.1943 5.10752 48.5744 5.08053 48.5904 5.07942L48.6006 5.0791C48.9432 5.0791 49.222 5.35792 49.222 5.70056V6.08131C49.222 6.42396 48.9432 6.70277 48.6006 6.70277H48.5955L48.5904 6.70245V6.70261ZM47.2357 5.89109C47.2357 6.17674 48.0509 6.3668 48.6053 6.40617C48.7822 6.40363 48.9254 6.25898 48.9254 6.08147V5.70072C48.9254 5.5232 48.7822 5.3784 48.6053 5.37586C48.0509 5.41492 47.2357 5.60482 47.2357 5.89109Z" fill="#3B2416"/>
</g>
<g id="Group_48">
<path id="Vector_113" d="M5.83253 10.1427C5.57119 10.1427 5.35938 10.3545 5.35938 10.6159V10.9966C5.35938 11.258 5.57119 11.4698 5.83253 11.4698C5.83253 11.4698 6.02561 11.4565 6.27378 11.4139V10.1985C6.02561 10.1559 5.83253 10.1426 5.83253 10.1426V10.1427Z" fill="#CC3429"/>
<path id="Vector_114" d="M6.02183 10.2305C5.84654 10.2305 5.70459 10.3726 5.70459 10.5479V10.8032C5.70459 10.9785 5.8467 11.1206 6.02183 11.1206C6.02183 11.1206 6.15139 11.1117 6.31779 11.0831V10.2679C6.15139 10.2394 6.02183 10.2305 6.02183 10.2305Z" fill="#E8503E"/>
<path id="Vector_115" d="M7.3457 10.8064C7.3457 10.4676 6.79029 10.2956 6.35254 10.2129V11.3999C6.79045 11.3172 7.3457 11.1452 7.3457 10.8064Z" fill="#777474"/>
<path id="Vector_116" d="M5.83231 10.1426C5.78658 10.1426 5.7426 10.1494 5.70068 10.1615C6.10604 10.2105 7.02601 10.3699 7.02601 10.8061C7.02601 11.2423 6.1062 11.4017 5.70084 11.4508C5.7426 11.4628 5.78674 11.4696 5.83247 11.4696C5.83247 11.4696 7.34579 11.3655 7.34579 10.8061C7.34579 10.2467 5.83247 10.1426 5.83247 10.1426H5.83231Z" fill="#4D4B4B"/>
<g id="Group_49" opacity="0.4">
<path id="Vector_117" d="M6.09523 10.9541C6.09523 11.1081 5.97043 11.2329 5.81641 11.2329C5.6624 11.2329 5.5376 11.1081 5.5376 10.9541C5.5376 10.8001 5.6624 10.6753 5.81641 10.6753C5.97043 10.6753 6.09523 10.8001 6.09523 10.9541Z" fill="white"/>
</g>
<g id="Group_50" opacity="0.4">
<path id="Vector_118" d="M7.17081 10.8361C7.17081 10.9249 7.09888 10.997 7.00996 10.997C6.92105 10.997 6.84912 10.9249 6.84912 10.8361C6.84912 10.7474 6.92105 10.6753 7.00996 10.6753C7.09888 10.6753 7.17081 10.7472 7.17081 10.8361Z" fill="white"/>
</g>
<path id="Vector_119" d="M6.4491 10.2036H6.15234V11.4095H6.4491V10.2036Z" fill="#3B2416"/>
<path id="Vector_120" d="M5.21094 10.9968V10.6161C5.21094 10.2734 5.48975 9.99463 5.8324 9.99463L5.84256 9.99495C5.85859 9.99606 6.23871 10.0231 6.62549 10.1212C7.2017 10.2674 7.49401 10.498 7.49401 10.8065C7.49401 11.115 7.20186 11.3457 6.62549 11.4918C6.23871 11.5899 5.85859 11.6169 5.84256 11.618L5.8324 11.6183C5.48959 11.6183 5.21094 11.3395 5.21094 10.9968ZM5.50754 10.6161V10.9968C5.50754 11.1744 5.65075 11.3192 5.82763 11.3217C6.38209 11.2826 7.19726 11.0927 7.19726 10.8065C7.19726 10.5202 6.38209 10.3306 5.82763 10.2912C5.6506 10.2938 5.50754 10.4384 5.50754 10.6161Z" fill="#3B2416"/>
</g>
<path id="Vector_121" d="M9.11924 14.6791L9.46506 14.5947C9.3709 14.2096 9.32327 13.8127 9.32327 13.4148C9.32327 10.6855 11.5436 8.46503 14.273 8.46503C17.0023 8.46503 19.2228 10.6854 19.2228 13.4146H19.5788C19.5788 10.4891 17.1987 8.10889 14.273 8.10889C11.3474 8.10889 8.96729 10.489 8.96729 13.4146C8.96729 13.8411 9.01841 14.2665 9.1194 14.679L9.11924 14.6791Z" fill="#3B2416"/>
<path id="Vector_122" d="M33.0801 2.74177C33.0801 2.74177 32.6453 4.46135 31.0107 4.69745C31.0107 4.69745 30.3829 4.71539 30.7016 4.64045C32.5037 4.24414 32.7758 2.58252 32.7758 2.58252L33.0802 2.74162L33.0801 2.74177Z" fill="#4F9BC6"/>
<path id="Vector_123" d="M7.45581 13.4145V12.6147H5.49426C4.93616 12.6147 4.50539 12.3751 4.24865 11.9216C4.01794 11.5142 4 11.0601 4 10.9306V7.19703C4 6.99904 4.12671 6.66814 5.22275 6.08289C5.89629 5.72325 6.81991 5.32726 7.89372 4.93762C9.75429 4.26265 12.1725 3.58165 13.3809 3.58165C14.8096 3.58165 17.1745 3.57911 17.1983 3.57911L17.2499 3.57816L17.2944 3.60721C17.298 3.60943 17.6661 3.83379 18.827 4.05465C19.8918 4.25709 21.8637 4.49859 25.2111 4.49859H30.2032C31.086 4.49859 31.7561 4.17627 32.1944 3.54068C32.5276 3.05768 32.599 2.56372 32.5996 2.55911L32.6255 2.36572L37.5656 3.49575C37.9516 3.50004 43.922 3.56577 45.176 3.56577C46.4913 3.56577 47.1307 4.2717 47.1307 5.72389V14.8151H40.8166C39.6413 14.8151 39.3611 13.9431 39.3395 12.6152H37.587C37.3025 12.7659 35.6657 13.5929 34.0206 13.5929H12.7308L11.2204 14.8151H8.47263C7.89277 14.8151 7.45565 14.2131 7.45565 13.415L7.45581 13.4145ZM12.6048 13.2365H34.0206C35.6988 13.2365 37.4391 12.2903 37.4565 12.2808L37.4965 12.2587H39.694V12.4367C39.694 14.1363 40.0886 14.4586 40.8164 14.4586H46.7746V5.72341C46.7746 5.11005 46.6576 4.67039 46.4167 4.37967C46.1612 4.07132 45.7554 3.92128 45.1759 3.92128C43.8844 3.92128 37.6056 3.85173 37.5423 3.8511H37.5232L32.9134 2.79649C32.8604 3.00846 32.7424 3.36825 32.4961 3.72963C32.1465 4.24264 31.4649 4.85426 30.2029 4.85426H25.2107C19.2057 4.85426 17.4566 4.09704 17.1515 3.93509C16.8104 3.93541 14.6979 3.93763 13.3808 3.93763C12.3876 3.93763 10.1811 4.48637 8.01503 5.27232C6.95677 5.65625 6.04919 6.0451 5.39026 6.39695C4.36757 6.94299 4.35582 7.18703 4.35582 7.19703V10.9306C4.35582 11.1524 4.41076 12.2587 5.49411 12.2587H7.81164V13.4145C7.81164 14.0001 8.10188 14.4586 8.47263 14.4586H11.0944L12.6045 13.2365H12.6048Z" fill="#3B2416"/>
<path id="Vector_124" d="M25.709 10.7103H31.8246C32.5977 10.7103 32.7132 10.2608 32.7132 9.9929V5.02219L32.1168 3.96631L31.9101 4.08301L32.4758 5.08459V9.9929C32.4758 10.199 32.4083 10.4731 31.8246 10.4731H25.709C25.4011 10.4731 25.1861 10.2757 25.1861 9.9929V4.67637H24.9487V9.9929C24.9487 10.4086 25.2685 10.7103 25.7088 10.7103H25.709Z" fill="#3B2416"/>
<g id="Group_51">
<g id="Group_52">
<path id="Vector_125" d="M34.8596 4.69945H34.3339C34.3339 4.69945 33.5505 4.47017 33.4031 4.41555C33.2556 4.36093 33.1667 4.33378 33.1894 4.13435C33.212 3.93493 33.2666 3.45288 33.2666 3.45288C33.2666 3.45288 31.2495 0.582638 30.993 0.211732C30.8659 0.0278661 31.0748 -0.0602559 31.1712 0.0454905L34.982 4.4924C35.0878 4.62403 35.0354 4.69945 34.8598 4.69945H34.8596Z" fill="#3B2416"/>
<path id="Vector_126" d="M34.4003 4.60582C34.4003 4.60582 33.647 4.38543 33.5054 4.33288C33.3637 4.28032 33.3326 4.30874 33.3544 4.1171C33.3761 3.92545 33.4287 3.46198 33.4287 3.46198C33.0303 2.90165 33.0359 2.91038 32.2847 1.8499C32.1667 1.67906 32.2809 1.68747 32.3752 1.80417C33.1761 2.80067 34.1014 3.95229 34.4666 4.40671C34.5684 4.53326 34.4003 4.60582 34.4003 4.60582Z" fill="#30190D"/>
</g>
<g id="Group_53">
<path id="Vector_127" d="M33.5151 4.14338C33.5151 4.19022 33.5642 4.22817 33.6245 4.22817C33.6849 4.22817 33.7339 4.19022 33.7339 4.14338C33.7339 4.09654 33.6849 4.05859 33.6245 4.05859C33.5642 4.05859 33.5151 4.09654 33.5151 4.14338Z" fill="#777474"/>
<path id="Vector_128" d="M33.5571 3.88166C33.5571 3.9285 33.6062 3.96645 33.6667 3.96645C33.7272 3.96645 33.7761 3.9285 33.7761 3.88166C33.7761 3.83482 33.727 3.79688 33.6667 3.79688C33.6064 3.79688 33.5571 3.83482 33.5571 3.88166Z" fill="#777474"/>
<path id="Vector_129" d="M33.8286 4.22834C33.8286 4.27518 33.8777 4.31313 33.9382 4.31313C33.9987 4.31313 34.0476 4.27518 34.0476 4.22834C34.0476 4.1815 33.9985 4.14355 33.9382 4.14355C33.8778 4.14355 33.8286 4.1815 33.8286 4.22834Z" fill="#777474"/>
</g>
</g>
<path id="Vector_130" d="M29.5947 4.54958C29.5453 4.63976 29.5785 4.75297 29.6687 4.80235C29.7588 4.85173 29.8721 4.81855 29.9213 4.72836L31.3966 2.03087C31.446 1.94069 31.4128 1.82748 31.3227 1.77826C31.2325 1.72888 31.1193 1.76206 31.0699 1.85225L29.5945 4.54989L29.5947 4.54958Z" fill="#3B2416"/>
<path id="Vector_131" d="M30.9139 4.58965L30.2239 4.13507C30.138 4.07854 30.1143 3.96311 30.1709 3.87721C30.2274 3.79131 30.343 3.76765 30.4287 3.82418L31.4031 4.46612C31.3123 4.49915 31.1618 4.54043 30.9139 4.58965Z" fill="#3B2416"/>
<g id="Group_54">
<path id="Vector_132" d="M9.92994 14.1856L9.88818 13.7882L10.1533 13.5957C10.1533 13.5805 10.1527 13.5654 10.1527 13.5502C10.1527 13.5143 10.1532 13.4784 10.1541 13.4428L9.88818 13.2496L9.92994 12.8522L10.2356 12.7163C10.2451 12.6688 10.2556 12.6216 10.2667 12.5748L10.0422 12.3253L10.1656 11.9452L10.5001 11.8743C10.5182 11.8327 10.537 11.7912 10.5563 11.7504L10.3847 11.4532L10.5844 11.107L10.9339 11.1074C10.9585 11.0729 10.9838 11.0388 11.0095 11.0051L10.901 10.6714L11.1684 10.3743L11.5166 10.4484C11.546 10.4214 11.5757 10.3946 11.606 10.3684L11.5685 10.0139L11.8918 9.77886L12.2208 9.92557C12.2538 9.90604 12.287 9.88683 12.3207 9.86825L12.3583 9.50973L12.7233 9.34698L13.0164 9.56038C13.0518 9.54847 13.0876 9.53704 13.1235 9.52593L13.2356 9.18058L13.6265 9.09738L13.8708 9.36921C13.9067 9.36508 13.9429 9.36127 13.9791 9.35794L14.0391 9.25394L14.162 9.04102H14.3618H14.5617L14.6085 9.12231L14.7446 9.35794C14.7806 9.36127 14.8167 9.36492 14.8526 9.36905L15.0972 9.09722L15.4881 9.18026L15.6002 9.52577C15.636 9.53672 15.6715 9.54815 15.7069 9.56006L16.0004 9.34682L16.3654 9.50925L16.403 9.86793C16.4365 9.88651 16.4697 9.90556 16.5027 9.92509L16.8319 9.77854L17.1552 10.0134L17.1178 10.3679C17.148 10.3941 17.1777 10.4208 17.2071 10.4478L17.5554 10.3736L17.8228 10.6707L17.7142 11.0045C17.7398 11.0381 17.765 11.0721 17.7896 11.1066H18.1394L18.3392 11.4525L18.1675 11.7498C18.1869 11.7907 18.2056 11.832 18.2237 11.8736L18.5584 11.9446L18.682 12.3247L18.4573 12.574C18.4684 12.6208 18.4789 12.668 18.4884 12.7155L18.7941 12.8515L18.8358 13.249L18.5699 13.442C18.5707 13.4778 18.5713 13.5135 18.5713 13.5494C18.5713 13.5646 18.5708 13.5797 18.5707 13.5948L18.8358 13.7874L18.7941 14.185L18.5016 14.315C18.4918 14.3687 18.4808 14.422 18.4689 14.475L18.6821 14.7118L18.5586 15.0919L18.2531 15.1567C18.2312 15.2099 18.208 15.2626 18.1839 15.3147L18.3393 15.584L18.1394 15.9301H17.8333C17.7993 15.9793 17.7645 16.0281 17.7285 16.0759L17.8228 16.3658L17.5553 16.6627L17.2617 16.6001C17.2166 16.6429 17.1706 16.6848 17.1237 16.7256L17.1552 17.0231L16.8319 17.258L16.5624 17.1379C16.5078 17.1714 16.4522 17.2038 16.396 17.2349L16.3654 17.5272L16.0002 17.6898L15.7649 17.5185C15.7031 17.5403 15.6407 17.5608 15.5777 17.5798L15.488 17.8561L15.0969 17.9393L14.9032 17.7238C14.8379 17.7322 14.7722 17.7389 14.7062 17.7443L14.5612 17.9955H14.1615L14.0167 17.7443C13.9505 17.7389 13.885 17.7322 13.8197 17.7238L13.6258 17.9391L13.2349 17.8561L13.1454 17.5798C13.0823 17.5608 13.0199 17.5404 12.9582 17.5185L12.7229 17.6897L12.3577 17.5271L12.3272 17.2348C12.271 17.2037 12.2154 17.1714 12.1608 17.1378L11.8913 17.2578L11.5679 17.0228L11.5993 16.7253C11.5525 16.6845 11.5065 16.6427 11.4614 16.5998L11.1676 16.6624L10.9001 16.3653L10.9944 16.0755C10.9584 16.0277 10.9236 15.979 10.8896 15.9296H10.5835L10.3836 15.5835L10.5392 15.3144C10.515 15.2621 10.492 15.2096 10.4699 15.1562L10.1646 15.0913L10.0411 14.7112L10.2543 14.4747C10.2424 14.4217 10.2315 14.3684 10.2216 14.3145L9.92915 14.1843L9.92994 14.1856Z" fill="#3B2416"/>
<path id="Vector_133" d="M11.6333 13.6146C11.6333 15.1168 12.8381 16.3349 14.3241 16.3349C15.8101 16.3349 17.0148 15.1169 17.0148 13.6146C17.0148 12.1125 15.8101 10.8945 14.3241 10.8945C12.8381 10.8945 11.6333 12.1125 11.6333 13.6146Z" fill="#5E3A26"/>
<path id="Vector_134" d="M11.7656 13.5187C11.7656 14.9681 12.9407 16.1434 14.3902 16.1434C15.8397 16.1434 17.0148 14.9681 17.0148 13.5187C17.0148 12.0693 15.8399 10.894 14.3902 10.894C12.9407 10.894 11.7656 12.0693 11.7656 13.5187Z" fill="#AAA7A7"/>
<path id="Vector_135" d="M11.6807 13.5186C11.6807 12.0247 12.8961 10.8091 14.3902 10.8091C15.8842 10.8091 17.0996 12.0245 17.0996 13.5186C17.0996 15.0127 15.884 16.2283 14.3902 16.2283C12.8961 16.2283 11.6807 15.0127 11.6807 13.5186ZM11.8504 13.5186C11.8504 14.9191 12.9898 16.0586 14.3902 16.0586C15.7906 16.0586 16.9299 14.9192 16.9299 13.5186C16.9299 12.1182 15.7906 10.9788 14.3902 10.9788C12.9898 10.9788 11.8504 12.1181 11.8504 13.5186Z" fill="#3B2416"/>
<path id="Vector_136" d="M14.2663 9.94267C12.7784 9.94267 12.0925 10.5346 11.4136 11.3045C12.049 10.3536 13.1322 9.72705 14.3618 9.72705C15.5914 9.72705 16.6747 10.3536 17.3101 11.3045C16.6312 10.5348 15.7543 9.94267 14.2663 9.94267Z" fill="#5E3A26"/>
<path id="Vector_137" d="M12.3662 13.5186C12.3662 14.6209 13.2598 15.5146 14.3621 15.5146C15.4643 15.5146 16.3577 14.621 16.3577 13.5186C16.3577 12.4166 15.4643 11.5229 14.3621 11.5229C13.2598 11.5229 12.3662 12.4166 12.3662 13.5186Z" fill="#C1BFBF"/>
<g id="Group_55" opacity="0.8">
<path id="Vector_138" d="M14.3618 15.5146C15.4641 15.5146 16.3575 14.621 16.3575 13.5186C16.3575 12.4166 15.4641 11.5229 14.3618 11.5229C16.6636 11.9221 16.8646 14.9824 14.3618 15.5146Z" fill="#777474"/>
</g>
<path id="Vector_139" d="M12.7305 13.5188C12.7305 14.4199 13.461 15.1506 14.3621 15.1506C15.2631 15.1506 15.9937 14.42 15.9937 13.5188C15.9937 12.6179 15.2631 11.8872 14.3621 11.8872C13.461 11.8872 12.7305 12.6179 12.7305 13.5188Z" fill="#AAA7A7"/>
<path id="Vector_140" d="M12.666 13.5188C12.666 12.5836 13.4269 11.8228 14.3622 11.8228C15.2976 11.8228 16.0583 12.5836 16.0583 13.5188C16.0583 14.4542 15.2975 15.2151 14.3622 15.2151C13.427 15.2151 12.666 14.4542 12.666 13.5188ZM12.7951 13.5188C12.7951 14.3831 13.498 15.086 14.3622 15.086C15.2263 15.086 15.9292 14.3829 15.9292 13.5188C15.9292 12.6548 15.2263 11.9518 14.3622 11.9518C13.4982 11.9518 12.7951 12.6548 12.7951 13.5188Z" fill="#3B2416"/>
<path id="Vector_141" d="M13.4116 13.5028C13.4116 12.9845 13.8333 12.563 14.3514 12.563C14.8695 12.563 15.2911 12.9847 15.2911 13.5028C15.2911 14.0209 14.8695 14.4424 14.3514 14.4424C13.8333 14.4424 13.4116 14.0209 13.4116 13.5028ZM13.5085 13.5028C13.5085 13.9675 13.8867 14.3458 14.3514 14.3458C14.8162 14.3458 15.1944 13.9677 15.1944 13.5028C15.1944 13.0379 14.8162 12.6597 14.3514 12.6597C13.8865 12.6597 13.5085 13.0379 13.5085 13.5028Z" fill="#3B2416"/>
<g id="Group_56">
<path id="Vector_142" d="M14.3048 12.8472C14.3048 12.8786 14.3303 12.9044 14.3618 12.9044C14.3934 12.9044 14.4188 12.8786 14.4188 12.8472C14.4188 12.8158 14.3933 12.79 14.3617 12.79C14.3301 12.79 14.3045 12.8156 14.3047 12.8472H14.3048Z" fill="#2D2525"/>
<path id="Vector_143" d="M13.7512 13.2326C13.7785 13.2483 13.8135 13.2389 13.8292 13.2116C13.8451 13.1843 13.8357 13.1495 13.8084 13.1336C13.7811 13.1179 13.7462 13.1271 13.7303 13.1546C13.7146 13.1819 13.7239 13.2168 13.7512 13.2326Z" fill="#2D2525"/>
<path id="Vector_144" d="M13.8083 13.9039C13.8356 13.8882 13.8448 13.8532 13.8291 13.8259C13.8134 13.7988 13.7785 13.7892 13.7512 13.805C13.724 13.8208 13.7145 13.8558 13.7304 13.8831C13.7461 13.9104 13.781 13.9197 13.8083 13.9039Z" fill="#2D2525"/>
<path id="Vector_145" d="M14.4188 14.1908C14.4188 14.1592 14.3933 14.1338 14.3618 14.1338C14.3304 14.1338 14.3047 14.1594 14.3047 14.1908C14.3047 14.2222 14.3303 14.248 14.3618 14.248C14.3934 14.248 14.4188 14.2222 14.4188 14.1908Z" fill="#2D2525"/>
<path id="Vector_146" d="M14.9724 13.8056C14.9451 13.7897 14.9102 13.7991 14.8945 13.8264C14.8786 13.8537 14.8879 13.8886 14.9153 13.9043C14.9426 13.9201 14.9775 13.9109 14.9934 13.8835C15.0091 13.8562 14.9997 13.8213 14.9724 13.8056Z" fill="#2D2525"/>
<path id="Vector_147" d="M14.9153 13.1337C14.8879 13.1495 14.8786 13.1842 14.8945 13.2115C14.9103 13.2389 14.9451 13.2482 14.9724 13.2327C14.9997 13.2168 15.0091 13.1819 14.9934 13.1545C14.9777 13.1271 14.9427 13.1179 14.9153 13.1337Z" fill="#2D2525"/>
<path id="Vector_148" d="M14.3047 12.8472C14.3047 12.8786 14.3301 12.9044 14.3617 12.9044C14.3933 12.9044 14.4187 12.8786 14.4187 12.8472C14.4187 12.8158 14.3931 12.79 14.3617 12.79C14.3303 12.79 14.3047 12.8156 14.3047 12.8472Z" fill="#2D2525"/>
</g>
<g id="Group_57">
<path id="Vector_149" d="M14.7466 13.7215C14.7785 13.661 14.7966 13.5921 14.7966 13.5189C14.7966 13.279 14.6023 13.0845 14.3623 13.0845C14.2931 13.0845 14.2275 13.1007 14.1694 13.1296C14.4556 13.1515 14.7461 13.3157 14.7466 13.7215Z" fill="#777474"/>
<path id="Vector_150" d="M13.8794 13.519C13.8794 13.2527 14.096 13.0361 14.3621 13.0361C14.6282 13.0361 14.8448 13.2527 14.8448 13.519C14.8448 13.7851 14.6282 14.0017 14.3621 14.0017C14.096 14.0017 13.8794 13.7851 13.8794 13.519ZM13.9762 13.519C13.9762 13.7317 14.1493 13.9048 14.3622 13.9048C14.575 13.9048 14.7482 13.7317 14.7482 13.519C14.7482 13.3062 14.5752 13.133 14.3622 13.133C14.1495 13.133 13.9762 13.3062 13.9762 13.519Z" fill="#3B2416"/>
<path id="Vector_151" d="M14.1255 13.5188C14.1255 13.6493 14.2314 13.7552 14.3621 13.7552C14.4927 13.7552 14.5985 13.6493 14.5985 13.5188C14.5985 13.3883 14.4926 13.2822 14.3621 13.2822C14.2314 13.2822 14.1255 13.3881 14.1255 13.5188Z" fill="#777474"/>
<g id="Group_58" opacity="0.4">
<path id="Vector_152" d="M14.6505 13.4029C14.6505 13.4953 14.5755 13.5704 14.4829 13.5704C14.3905 13.5704 14.3154 13.4954 14.3154 13.4029C14.3154 13.3103 14.3904 13.2354 14.4829 13.2354C14.5755 13.2354 14.6505 13.3103 14.6505 13.4029Z" fill="white"/>
</g>
</g>
<path id="Vector_153" d="M12.3018 13.5186C12.3018 12.3826 13.226 11.4585 14.3621 11.4585C15.4981 11.4585 16.4224 12.3827 16.4224 13.5186C16.4224 14.6547 15.4981 15.5791 14.3621 15.5791C13.226 15.5791 12.3018 14.6549 12.3018 13.5186ZM12.4308 13.5186C12.4308 14.5836 13.2971 15.45 14.3621 15.45C15.427 15.45 16.2933 14.5836 16.2933 13.5186C16.2933 12.4537 15.427 11.5874 14.3621 11.5874C13.2971 11.5874 12.4308 12.4537 12.4308 13.5186Z" fill="#3B2416"/>
<path id="Vector_154" d="M12.666 13.5188C12.666 14.4542 13.4269 15.2151 14.3622 15.2151C15.2976 15.2151 16.0583 14.4542 16.0583 13.5188C16.0583 12.5836 15.2975 11.8228 14.3622 11.8228C13.427 11.8228 12.666 12.5836 12.666 13.5188ZM14.3622 15.086C14.2298 15.086 14.1012 15.0693 13.9783 15.0383C13.9988 14.7981 13.981 14.4748 13.7733 14.3213C13.5636 14.1662 13.2516 14.2522 13.033 14.3475C12.8964 14.1292 12.8118 13.8751 12.7973 13.6027C13.029 13.5487 13.3294 13.4317 13.4094 13.1814C13.4861 12.941 13.3272 12.6783 13.1762 12.4965C13.3443 12.3016 13.5595 12.1486 13.804 12.055C13.9277 12.2538 14.1204 12.4769 14.3624 12.4769C14.4305 12.4769 14.4948 12.4591 14.5547 12.4293C14.7074 12.3531 14.8319 12.1978 14.9207 12.0549C15.1652 12.1484 15.3802 12.3015 15.5485 12.4965C15.3973 12.6783 15.2384 12.941 15.3151 13.1814C15.3949 13.4317 15.6955 13.5487 15.927 13.6027C15.9126 13.8751 15.8281 14.1292 15.6914 14.3475C15.4727 14.2522 15.1607 14.1662 14.951 14.3213C14.7435 14.4748 14.7255 14.7981 14.746 15.0383C14.6231 15.0695 14.4945 15.086 14.3621 15.086H14.3622Z" fill="#2D2525"/>
<g id="Group_59" opacity="0.4">
<path id="Vector_155" d="M12.7305 13.5188C12.8999 12.4694 14.2625 11.375 15.7061 12.5938C15.4119 12.167 14.9197 11.8872 14.3621 11.8872C13.461 11.8872 12.7305 12.6179 12.7305 13.5188Z" fill="#777474"/>
</g>
</g>
<g id="Group_60">
<path id="Vector_156" d="M44.0293 12.0337L44.1541 11.6269L44.4942 11.549C44.5004 11.534 44.5063 11.519 44.5126 11.504C44.5276 11.4689 44.543 11.434 44.5588 11.3996L44.3789 11.0993L44.5855 10.7273L44.9415 10.7216C44.9707 10.679 45.0006 10.6373 45.0309 10.596L44.915 10.2579L45.1944 9.93704L45.5517 10.0071C45.5868 9.97388 45.6223 9.94117 45.6584 9.9091L45.6142 9.54645L45.9543 9.29065L46.2967 9.43673C46.3353 9.41323 46.3742 9.39037 46.4134 9.36814L46.4464 8.99596L46.8322 8.81638L47.1425 9.03439C47.1827 9.0201 47.2228 9.00628 47.2633 8.99326L47.3746 8.63029L47.7893 8.53487L48.0504 8.81575C48.0909 8.81035 48.1315 8.80543 48.1722 8.80114L48.3586 8.46564L48.7841 8.4585L48.9823 8.78987C49.0219 8.79288 49.0618 8.79669 49.1013 8.80082L49.3551 8.50931L49.7728 8.59076L49.8989 8.95913C49.9359 8.96992 49.9727 8.98151 50.0097 8.99326L50.1118 8.91641L50.3209 8.75906L50.5165 8.84226L50.7125 8.92562L50.7245 9.02502L50.7596 9.31257C50.7936 9.33083 50.8274 9.3494 50.8608 9.36846L51.2137 9.20428L51.5621 9.44864L51.5279 9.83384C51.5584 9.85956 51.5884 9.8856 51.6181 9.91195L51.9946 9.82542L52.2845 10.1369L52.1718 10.504C52.1969 10.5363 52.2215 10.5688 52.2456 10.6017L52.6292 10.5953L52.848 10.9604L52.6635 11.2922C52.6821 11.3303 52.7001 11.3689 52.7177 11.4076L53.0899 11.4804L53.228 11.8829L52.9825 12.1645C52.9935 12.2082 53.0041 12.252 53.0138 12.296L53.3564 12.4419L53.4077 12.8643L53.1156 13.0839C53.1175 13.132 53.1186 13.1804 53.1189 13.2287L53.4171 13.4378L53.3795 13.8617L53.0552 14.0122C53.0467 14.0627 53.0371 14.1134 53.0267 14.1637L53.2693 14.4244L53.1445 14.8312L52.8034 14.9095C52.7894 14.9449 52.7748 14.9802 52.7599 15.0153C52.7536 15.0302 52.7469 15.0448 52.7404 15.0596L52.9198 15.3589L52.7131 15.7309L52.3722 15.7363C52.3401 15.7849 52.3072 15.8325 52.2734 15.8793L52.3836 16.2002L52.104 16.5211L51.7777 16.4571C51.734 16.5 51.6894 16.5421 51.644 16.583L51.684 16.9117L51.3439 17.1675L51.0442 17.0397C50.9903 17.074 50.9359 17.1072 50.8806 17.1391L50.8522 17.4625L50.4662 17.6418L50.2047 17.4581C50.1428 17.4812 50.0802 17.503 50.0173 17.5235L49.924 17.8282L49.5092 17.9234L49.2954 17.6935C49.2279 17.7035 49.1599 17.7121 49.0918 17.7192L48.9399 17.9928L48.5143 18L48.3552 17.734C48.2857 17.7297 48.216 17.7235 48.1463 17.7159L47.9432 17.9492L47.5255 17.8675L47.4256 17.5757C47.3583 17.5567 47.2909 17.536 47.2241 17.5136L46.9774 17.6992L46.5858 17.5327L46.5487 17.2262C46.4861 17.1934 46.4245 17.1594 46.3642 17.124L46.0845 17.2542L45.7362 17.0098L45.7637 16.7018C45.7098 16.6569 45.6571 16.6108 45.6057 16.5637L45.3037 16.6332L45.0137 16.3215L45.1057 16.0224C45.0636 15.9684 45.0226 15.9136 44.9831 15.8579L44.669 15.8631L44.4502 15.4981L44.605 15.2198C44.5762 15.1602 44.5485 15.1002 44.5222 15.0394L44.2083 14.9781L44.0701 14.5756L44.2834 14.3311C44.2681 14.2692 44.2543 14.2069 44.2416 14.1444L43.9417 14.0167L43.8902 13.5942L44.1549 13.3954C44.153 13.3343 44.1524 13.273 44.153 13.2117L43.8809 13.0208L43.9183 12.5969L44.2259 12.4542C44.2364 12.3972 44.248 12.3403 44.2607 12.2836L44.0284 12.0342L44.0293 12.0337Z" fill="#3B2416"/>
<path id="Vector_157" d="M45.9361 12.1843C45.3096 13.656 45.982 15.3517 47.4378 15.9714C48.8937 16.5911 50.582 15.9003 51.2084 14.4284C51.8347 12.9567 51.1626 11.2611 49.7066 10.6414C48.2508 10.0217 46.5625 10.7125 45.936 12.1841L45.9361 12.1843Z" fill="#5E3A26"/>
<path id="Vector_158" d="M46.1058 12.1459C45.5014 13.566 46.1624 15.2075 47.5825 15.8121C49.0026 16.4166 50.6439 15.7553 51.2485 14.3351C51.853 12.9152 51.1918 11.2737 49.7717 10.6693C48.3516 10.0648 46.7101 10.7261 46.1057 12.1461L46.1058 12.1459Z" fill="#AAA7A7"/>
<path id="Vector_159" d="M46.0226 12.1104C46.6456 10.6468 48.3433 9.96281 49.807 10.586C51.2707 11.2091 51.9547 12.9067 51.3315 14.3705C50.7083 15.8343 49.0106 16.5183 47.547 15.8953C46.0832 15.2722 45.3994 13.5744 46.0226 12.1106V12.1104ZM46.1888 12.1813C45.6048 13.5534 46.2458 15.1449 47.6178 15.7289C48.9898 16.3128 50.5812 15.6717 51.1652 14.2997C51.7492 12.9277 51.1082 11.3364 49.7362 10.7523C48.3641 10.1683 46.7728 10.8093 46.1888 12.1813Z" fill="#3B2416"/>
<path id="Vector_160" d="M50.0473 9.68525C48.5898 9.06474 47.6707 9.35864 46.6846 9.82974C47.7038 9.16303 49.0262 9.00092 50.2309 9.51377C51.4355 10.0266 52.2355 11.0922 52.4616 12.2889C52.1175 11.2514 51.5052 10.3059 50.0475 9.68525H50.0473Z" fill="#5E3A26"/>
<path id="Vector_161" d="M46.6943 12.3965C46.2346 13.4764 46.7373 14.7247 47.8171 15.1844C48.897 15.644 50.145 15.1412 50.6048 14.0613C51.0645 12.9816 50.5618 11.7335 49.4819 11.2738C48.4021 10.8142 47.1539 11.317 46.6943 12.3967V12.3965Z" fill="#C1BFBF"/>
<g id="Group_61" opacity="0.8">
<path id="Vector_162" d="M47.8169 15.1845C48.8967 15.6441 50.1447 15.1413 50.6046 14.0614C51.0642 12.9817 50.5615 11.7336 49.4817 11.2739C51.5703 12.625 50.4909 15.707 47.8169 15.1846V15.1845Z" fill="#777474"/>
</g>
<path id="Vector_163" d="M47.0509 12.5483C46.675 13.4312 47.0861 14.4516 47.9689 14.8275C48.8517 15.2033 49.8721 14.792 50.2479 13.9092C50.6236 13.0266 50.2126 12.0061 49.3298 11.6304C48.447 11.2546 47.4265 11.6659 47.0509 12.5483Z" fill="#AAA7A7"/>
<path id="Vector_164" d="M46.988 12.5214C47.378 11.6051 48.4408 11.1771 49.3571 11.5672C50.2734 11.9573 50.7015 13.02 50.3114 13.9362C49.9213 14.8525 48.8586 15.2807 47.9424 14.8906C47.0261 14.5005 46.598 13.4378 46.988 12.5214ZM47.1144 12.5753C46.754 13.4219 47.1495 14.4038 47.9961 14.7642C48.8425 15.1246 49.8246 14.7289 50.1848 13.8823C50.5453 13.0357 50.1496 12.054 49.3031 11.6936C48.4565 11.3331 47.4747 11.7287 47.1144 12.5753Z" fill="#3B2416"/>
<path id="Vector_165" d="M47.7249 12.8168C47.941 12.3091 48.5299 12.0718 49.0377 12.2879C49.5455 12.504 49.7825 13.0929 49.5664 13.6007C49.3503 14.1083 48.7616 14.3456 48.2538 14.1295C47.7462 13.9134 47.5088 13.3244 47.7249 12.8168ZM47.8197 12.8572C47.6259 13.3125 47.8388 13.8408 48.2941 14.0347C48.7495 14.2285 49.2778 14.0158 49.4715 13.5604C49.6654 13.105 49.4526 12.5768 48.9972 12.3829C48.5418 12.189 48.0136 12.4018 47.8197 12.8572Z" fill="#3B2416"/>
<g id="Group_62">
<path id="Vector_166" d="M48.8736 12.5465C48.8604 12.5773 48.8747 12.6131 48.9056 12.6263C48.9366 12.6394 48.9722 12.6248 48.9853 12.594C48.9985 12.5631 48.9842 12.5273 48.9533 12.5142C48.9223 12.501 48.8867 12.5154 48.8736 12.5464V12.5465Z" fill="#2D2525"/>
<path id="Vector_167" d="M48.171 12.6936C48.1913 12.7204 48.2293 12.7258 48.2561 12.7055C48.2831 12.6854 48.2885 12.6474 48.2682 12.6206C48.248 12.5936 48.2099 12.5882 48.1829 12.6085C48.1561 12.6287 48.1508 12.6668 48.1708 12.6936H48.171Z" fill="#2D2525"/>
<path id="Vector_168" d="M47.9467 13.3755C47.98 13.3715 48.0035 13.3412 47.9996 13.3079C47.9954 13.2747 47.9653 13.2509 47.9319 13.2548C47.8986 13.259 47.8748 13.2893 47.8789 13.3226C47.883 13.356 47.9132 13.3796 47.9467 13.3755Z" fill="#2D2525"/>
<path id="Vector_169" d="M48.4249 13.9108C48.4381 13.8798 48.4237 13.8443 48.3929 13.8311C48.3619 13.8179 48.3262 13.8322 48.313 13.8631C48.2998 13.8941 48.3141 13.9298 48.3452 13.943C48.376 13.9562 48.4118 13.9416 48.4249 13.9108Z" fill="#2D2525"/>
<path id="Vector_170" d="M49.1279 13.7641C49.1077 13.7371 49.0696 13.7319 49.0429 13.7519C49.0159 13.772 49.0105 13.8101 49.0309 13.837C49.051 13.8638 49.0891 13.8694 49.116 13.849C49.1428 13.8289 49.1482 13.7908 49.1279 13.7639V13.7641Z" fill="#2D2525"/>
<path id="Vector_171" d="M49.3522 13.082C49.3188 13.086 49.2952 13.1163 49.2993 13.1495C49.3034 13.1829 49.3336 13.2065 49.3669 13.2027C49.4004 13.1986 49.4241 13.1683 49.42 13.1349C49.416 13.1014 49.3857 13.0778 49.3522 13.082Z" fill="#2D2525"/>
<path id="Vector_172" d="M48.8736 12.5465C48.8604 12.5773 48.8747 12.6131 48.9056 12.6263C48.9366 12.6394 48.9722 12.6248 48.9853 12.594C48.9985 12.5631 48.9842 12.5273 48.9533 12.5142C48.9223 12.501 48.8867 12.5154 48.8736 12.5464V12.5465Z" fill="#2D2525"/>
</g>
<g id="Group_63">
<path id="Vector_173" d="M48.9412 13.5876C48.9977 13.5417 49.0443 13.4817 49.0748 13.4099C49.1748 13.1749 49.0654 12.9033 48.8304 12.8032C48.7624 12.7743 48.6916 12.7629 48.6226 12.7669C48.8938 12.9077 49.11 13.1897 48.9411 13.5876H48.9412Z" fill="#777474"/>
<path id="Vector_174" d="M48.1763 13.0276C48.2873 12.7667 48.5898 12.6449 48.8506 12.7559C49.1115 12.8669 49.2333 13.1694 49.1222 13.4302C49.0112 13.6909 48.7087 13.8129 48.448 13.7017C48.1871 13.5908 48.0653 13.2883 48.1763 13.0276ZM48.2711 13.0679C48.1823 13.2764 48.2798 13.5182 48.4883 13.6068C48.6968 13.6956 48.9386 13.5981 49.0274 13.3897C49.1161 13.1813 49.0188 12.9395 48.8103 12.8507C48.6018 12.7619 48.36 12.8594 48.2713 13.0679H48.2711Z" fill="#3B2416"/>
<path id="Vector_175" d="M48.4176 13.1303C48.3632 13.2583 48.4227 13.4061 48.5507 13.4605C48.6787 13.515 48.8265 13.4553 48.881 13.3275C48.9354 13.1995 48.8759 13.0517 48.7479 12.9972C48.6199 12.9428 48.4719 13.0023 48.4175 13.1303H48.4176Z" fill="#777474"/>
<g id="Group_64" opacity="0.4">
<path id="Vector_176" d="M48.98 13.2355C48.9415 13.3261 48.8368 13.3684 48.7462 13.3298C48.6555 13.2912 48.6134 13.1864 48.652 13.0959C48.6906 13.0052 48.7954 12.963 48.8859 13.0016C48.9766 13.0402 49.0186 13.145 48.98 13.2355Z" fill="white"/>
</g>
</g>
<path id="Vector_177" d="M46.6308 12.3695C47.1046 11.2565 48.3955 10.7367 49.5085 11.2105C50.6214 11.6843 51.1416 12.9751 50.6678 14.088C50.194 15.201 48.903 15.7212 47.7901 15.2474C46.677 14.7736 46.157 13.4826 46.6308 12.3695ZM46.7572 12.4234C46.3131 13.4667 46.8006 14.6769 47.8439 15.121C48.8871 15.5651 50.0973 15.0777 50.5414 14.0343C50.9855 12.991 50.4981 11.7811 49.4547 11.337C48.4114 10.8929 47.2013 11.3802 46.7572 12.4235V12.4234Z" fill="#3B2416"/>
<path id="Vector_178" d="M46.9876 12.5214C46.5975 13.4377 47.0257 14.5005 47.942 14.8905C48.8583 15.2805 49.921 14.8524 50.311 13.9361C50.7011 13.0198 50.2729 11.9571 49.3567 11.5671C48.4404 11.1771 47.3777 11.6052 46.9876 12.5214ZM47.9958 14.7641C47.8661 14.7088 47.747 14.639 47.6395 14.5572C47.7597 14.3303 47.8771 14.0063 47.7378 13.7694C47.597 13.5299 47.2554 13.484 47.0015 13.4863C46.9588 13.2154 46.9819 12.9313 47.0814 12.6584C47.3309 12.702 47.6741 12.7127 47.8567 12.5009C48.0322 12.2973 47.986 11.9737 47.9137 11.7324C48.1598 11.6117 48.4344 11.5515 48.7129 11.5617C48.7511 11.808 48.8469 12.1069 49.0839 12.2079C49.1506 12.2364 49.2211 12.2457 49.2922 12.2414C49.4737 12.2305 49.6603 12.1301 49.807 12.0274C50.0075 12.2211 50.1544 12.4607 50.2379 12.7217C50.0141 12.8369 49.7487 13.028 49.7236 13.2954C49.6974 13.5739 49.9431 13.814 50.1474 13.9634C50.0196 14.2243 49.831 14.4378 49.606 14.5948C49.4315 14.4102 49.1617 14.1958 48.8916 14.2605C48.6243 14.3243 48.472 14.6334 48.3918 14.8775C48.2584 14.8567 48.1255 14.8194 47.9958 14.7641Z" fill="#2D2525"/>
<g id="Group_65" opacity="0.4">
<path id="Vector_179" d="M47.0508 12.5485C47.6543 11.5911 49.4458 11.0871 50.3519 12.8832C50.2416 12.3424 49.8761 11.8631 49.3297 11.6304C48.4469 11.2546 47.4265 11.6659 47.0508 12.5483V12.5485Z" fill="#777474"/>
</g>
</g>
<path id="Vector_180" d="M48.3532 6.7028C50.4043 6.7028 51.7125 7.51558 52.8055 8.80645C52.8562 8.86631 52.863 8.97714 52.7227 8.95364C52.4548 8.90902 52.0085 8.82217 51.6763 8.69499C51.1701 8.50112 50.1439 7.68865 48.3532 7.68865C45.5724 7.68865 43.3179 10.0679 43.3179 13.0031C43.3179 13.3 43.3228 13.8121 42.4325 13.8121C42.4003 13.5473 42.3838 13.2772 42.3838 13.0031C42.3838 9.52349 45.0563 6.70264 48.3532 6.70264V6.7028Z" fill="#065784"/>
<path id="Vector_181" d="M48.3532 6.70264C50.4043 6.70264 51.7125 7.51542 52.8055 8.80629C52.8562 8.86615 52.863 8.97698 52.7227 8.95348C52.5288 8.92109 52.2412 8.86663 51.9713 8.79073C51.0575 7.88284 49.9483 7.33489 48.3624 7.33489C45.2894 7.33489 42.7982 10.0962 42.7982 13.5026C42.7982 13.5933 42.8006 13.6833 42.8041 13.7732C42.7018 13.7978 42.5796 13.8121 42.4325 13.8121C42.4003 13.5473 42.3838 13.2772 42.3838 13.0031C42.3838 9.5235 45.0563 6.70264 48.3532 6.70264Z" fill="#006CB1"/>
<path id="Vector_182" d="M42.2557 13.8336C42.2226 13.5601 42.2056 13.2806 42.2056 13.0032C42.2056 11.2746 42.8439 9.64887 44.0028 8.4258C45.1642 7.20003 46.7092 6.5249 48.353 6.5249C50.2574 6.5249 51.6724 7.19304 52.9412 8.69159C53.0171 8.78114 53.0378 8.90023 52.9938 8.99486C52.9531 9.08266 52.8648 9.13506 52.758 9.13506C52.7373 9.13506 52.7156 9.13316 52.6932 9.12934C52.3855 9.07806 51.9482 8.98978 51.6126 8.86133C51.4912 8.81496 51.3479 8.73875 51.1819 8.65047C50.5945 8.33831 49.7067 7.86674 48.3531 7.86674C45.6749 7.86674 43.4958 10.1709 43.4958 13.0032V13.0081C43.4958 13.1691 43.4958 13.4126 43.3546 13.6215C43.1894 13.8662 42.8791 13.9903 42.4325 13.9903H42.2748L42.2557 13.8338V13.8336ZM51.349 8.33593C51.5046 8.41865 51.6391 8.4901 51.7399 8.52869C51.9722 8.6176 52.2683 8.68667 52.5054 8.73319C51.3523 7.45392 50.0616 6.88057 48.3531 6.88057C45.1598 6.88057 42.5617 9.62712 42.5617 13.0031C42.5617 13.2114 42.5717 13.4207 42.5916 13.6274C42.8243 13.6067 42.9814 13.538 43.0598 13.4219C43.14 13.3033 43.14 13.1395 43.14 13.008V13.0031C43.14 9.97452 45.4786 7.5106 48.3533 7.5106C49.7955 7.5106 50.768 8.02726 51.3491 8.33593H51.349Z" fill="#3B2416"/>
</g>
</g>
<defs>
<filter id="filter0_d_2895_2630" x="0" y="0" width="57.417" height="26" filterUnits="userSpaceOnUse" color-interpolation-filters="sRGB">
<feFlood flood-opacity="0" result="BackgroundImageFix"/>
<feColorMatrix in="SourceAlpha" type="matrix" values="0 0 0 0 0 0 0 0 0 0 0 0 0 0 0 0 0 0 127 0" result="hardAlpha"/>
<feOffset dy="4"/>
<feGaussianBlur stdDeviation="2"/>
<feComposite in2="hardAlpha" operator="out"/>
<feColorMatrix type="matrix" values="0 0 0 0 0 0 0 0 0 0 0 0 0 0 0 0 0 0 0.25 0"/>
<feBlend mode="normal" in2="BackgroundImageFix" result="effect1_dropShadow_2895_2630"/>
<feBlend mode="normal" in="SourceGraphic" in2="effect1_dropShadow_2895_2630" result="shape"/>
</filter>
</defs>
</svg>
