<svg width="65" height="22" viewBox="0 0 65 22" fill="none" xmlns="http://www.w3.org/2000/svg">
<g id="Objects" filter="url(#filter0_d_2914_2913)">
<g id="Group">
<path id="Vector" d="M51.9561 7.7897H52.4531V6.13184C52.4531 5.99345 52.343 5.8833 52.2046 5.8833C52.0662 5.8833 51.9561 5.99345 51.9561 6.13184V7.7897Z" fill="#D1D1D1"/>
<path id="Vector_2" d="M32.1753 4.30131L39.3151 2.88352C40.4646 2.65475 41.6564 2.88352 42.6421 3.51616L45.5116 5.36325H43.0488L42.1394 4.66282C41.2639 3.99064 40.1426 3.72798 39.0609 3.94545L33.8614 4.98479L32.1781 4.29849L32.1753 4.30131Z" fill="#D1D1D1"/>
<path id="Vector_3" d="M11.3771 12.7686L43.9863 12.7686V11.8535L11.3771 11.8535V12.7686Z" fill="#1F1F1F"/>
<path id="Vector_4" d="M11.4731 7.0861L9.17692 3.04736H4.38693L4.77386 3.64894C5.16643 4.26181 4.72584 5.06673 4 5.06673L6.33004 9.94428H11.7386L11.4731 6.74436" fill="#881F20"/>
<path id="Vector_5" d="M4.75684 6.65137H11.2245L11.473 7.08631V6.74457L11.7385 9.94449H6.32996L4.75684 6.65137Z" fill="#292929"/>
<path id="Vector_6" d="M11.6309 11.8537H39.2355L43.1753 9.8852H50.7868L57.6216 10.9838C58.3672 11.1533 59.1439 11.1251 59.8754 10.9076C60.4769 10.7268 60.5363 9.8965 59.9657 9.63384L50.9647 6.40567C49.4848 5.7222 47.8721 5.36916 46.2425 5.36916H39.1649C37.6878 4.66874 36.0723 4.3044 34.437 4.3044H32.1747V3.83557L32.3329 3.65764C32.4685 3.5023 32.5419 3.3046 32.5419 3.10126V1.45752H21.6712L11.6986 8.00705L11.6309 11.8537Z" fill="#881F20"/>
<path id="Vector_7" d="M11.6309 11.8535L11.6986 8.00683L21.6684 1.45166H32.5391V3.0954C32.5391 3.30157 32.4656 3.49927 32.3301 3.65461L32.1747 3.83254V4.30137H25.2242C25.0208 4.30137 24.8175 4.33526 24.6254 4.40304C23.2923 4.87187 22.9817 6.62011 24.0747 7.51541L29.3617 11.8535H11.6309Z" fill="#D1D1D1"/>
<path id="Vector_8" opacity="0.1" d="M54.049 8.55759L58.1131 10.2465C58.3447 10.3425 58.6102 10.2324 58.7062 10.0008C58.8022 9.76921 58.6921 9.50373 58.4605 9.40771L54.3964 7.71878C54.1648 7.62275 53.8993 7.7329 53.8033 7.96449C53.7072 8.19609 53.8174 8.46157 54.049 8.55759Z" fill="white"/>
<path id="Vector_9" d="M35.8408 11.3257L36.0894 11.1421C38.6566 9.247 41.7605 8.22461 44.952 8.22461H50.2532L58.7402 11.0884C58.3645 11.0997 57.9889 11.0658 57.6217 10.9811L50.787 9.88247H43.1755L39.2356 11.851H35.8408V11.3229V11.3257Z" fill="#292929"/>
<path id="Vector_10" d="M14.4243 4.36633L21.6686 1.45166H23.9761L15.9692 6.21341L14.4243 4.36633Z" fill="#881F20"/>
<g id="Group_2">
<path id="Vector_11" d="M47.9119 14.0001C50.1908 14.0001 52.0382 12.1084 52.0382 9.77494C52.0382 7.44146 50.1908 5.5498 47.9119 5.5498C45.633 5.5498 43.7856 7.44146 43.7856 9.77494C43.7856 12.1084 45.633 14.0001 47.9119 14.0001Z" fill="#292929"/>
<path id="Vector_12" d="M47.912 12.7151C49.4967 12.7151 50.7814 11.3988 50.7814 9.77505C50.7814 8.15128 49.4967 6.83496 47.912 6.83496C46.3272 6.83496 45.0425 8.15128 45.0425 9.77505C45.0425 11.3988 46.3272 12.7151 47.912 12.7151Z" stroke="#F7E041" stroke-width="1.32" stroke-miterlimit="10"/>
<path id="Vector_13" d="M49.5701 9.77503C49.5701 10.7127 48.8273 11.4724 47.9123 11.4724C46.9972 11.4724 46.2544 10.7127 46.2544 9.77503C46.2544 8.83737 46.9972 8.07764 47.9123 8.07764C48.8273 8.07764 49.5701 8.83737 49.5701 9.77503Z" fill="#D1D1D1"/>
<path id="Vector_14" d="M49.2961 9.77522C49.2961 10.5575 48.6748 11.193 47.9122 11.193C47.1497 11.193 46.5283 10.5575 46.5283 9.77522C46.5283 8.99289 47.1497 8.35742 47.9122 8.35742C48.6748 8.35742 49.2961 8.99289 49.2961 9.77522Z" fill="#888888"/>
<path id="Vector_15" d="M48.087 8.22461H47.7368V9.74125H48.087V8.22461Z" fill="#D1D1D1"/>
<path id="Vector_16" d="M46.9376 8.55656L46.6899 8.8042L47.7624 9.87663L48.01 9.62899L46.9376 8.55656Z" fill="#D1D1D1"/>
<path id="Vector_17" d="M46.3613 9.59999V9.9502H47.878V9.59999H46.3613Z" fill="#D1D1D1"/>
<path id="Vector_18" d="M46.6908 10.7494L46.9385 10.9971L48.0109 9.92464L47.7633 9.677L46.6908 10.7494Z" fill="#D1D1D1"/>
<path id="Vector_19" d="M47.7338 11.3252H48.084V9.80855H47.7338V11.3252Z" fill="#D1D1D1"/>
<path id="Vector_20" d="M48.8818 10.9957L49.1294 10.748L48.057 9.67562L47.8093 9.92326L48.8818 10.9957Z" fill="#D1D1D1"/>
<path id="Vector_21" d="M49.4595 9.94982V9.59961H47.9428V9.94982H49.4595Z" fill="#D1D1D1"/>
<path id="Vector_22" d="M49.1295 8.80526L48.8818 8.55762L47.8094 9.63005L48.057 9.87768L49.1295 8.80526Z" fill="#D1D1D1"/>
<path id="Vector_23" d="M48.2822 9.77532C48.2822 9.98714 48.1156 10.1566 47.9094 10.1566C47.7033 10.1566 47.5366 9.98714 47.5366 9.77532C47.5366 9.5635 47.7033 9.39404 47.9094 9.39404C48.1156 9.39404 48.2822 9.5635 48.2822 9.77532Z" fill="#888888"/>
</g>
<path id="Vector_24" d="M54.1819 12.3589H60.7822V9.99496H54.1819V12.3589Z" fill="#B5292A"/>
<path id="Vector_25" d="M35.8129 10.4753L36.3665 9.67325C36.7788 9.0745 37.4595 8.71864 38.1853 8.71864C38.7247 8.71864 39.1597 8.28088 39.1597 7.74426V5.36621L34.0054 5.94237C32.4294 6.11747 30.9438 6.76141 29.735 7.79228C28.2975 9.01802 26.473 9.6902 24.5835 9.6902H15.8424L15.0854 11.8536L33.1468 11.8677C34.2087 11.8677 35.2029 11.3481 35.8044 10.4753H35.8129Z" fill="#B5292A"/>
<path id="Vector_26" opacity="0.2" d="M26.5436 11.2013C28.6138 11.1363 30.2971 10.7551 31.4946 10.289C32.9491 9.72419 34.5251 8.93621 35.5164 8.5041C36.5077 8.07198 37.5668 8.05221 37.9311 8.39677C38.0865 8.54364 38.2475 8.63684 38.383 8.69897C38.3181 8.71309 38.2531 8.71874 38.1825 8.71874C37.4567 8.71874 36.776 9.0746 36.3637 9.67335L35.8101 10.4754C35.2057 11.3482 34.2116 11.8678 33.1524 11.8678L26.329 11.8622C25.8319 11.512 25.75 11.2267 26.5408 11.2013H26.5436Z" fill="black"/>
<path id="Vector_27" d="M27.1703 10.9582H41.2833L39.2357 11.9834H15.0908V9.72119L27.1703 10.9582Z" fill="#292929"/>
<g id="Group_3">
<path id="Vector_28" d="M12.2667 13.9999C14.881 13.9999 17.0002 11.8288 17.0002 9.15057C17.0002 6.47238 14.881 4.30127 12.2667 4.30127C9.65247 4.30127 7.5332 6.47238 7.5332 9.15057C7.5332 11.8288 9.65247 13.9999 12.2667 13.9999Z" fill="#292929"/>
<path id="Vector_29" d="M12.2666 12.4323C14.037 12.4323 15.4722 10.963 15.4722 9.15048C15.4722 7.33798 14.037 5.86865 12.2666 5.86865C10.4962 5.86865 9.06104 7.33798 9.06104 9.15048C9.06104 10.963 10.4962 12.4323 12.2666 12.4323Z" stroke="#F7E041" stroke-width="1.47" stroke-miterlimit="10"/>
<path id="Vector_30" d="M14.2265 9.15054C14.2265 10.2605 13.3482 11.1614 12.2637 11.1614C11.1791 11.1614 10.3008 10.2605 10.3008 9.15054C10.3008 8.0406 11.1791 7.13965 12.2637 7.13965C13.3482 7.13965 14.2265 8.0406 14.2265 9.15054Z" fill="#D1D1D1"/>
<path id="Vector_31" d="M12.2665 10.8311C13.1712 10.8311 13.9046 10.0788 13.9046 9.15067C13.9046 8.22258 13.1712 7.47021 12.2665 7.47021C11.3618 7.47021 10.6284 8.22258 10.6284 9.15067C10.6284 10.0788 11.3618 10.8311 12.2665 10.8311Z" fill="#888888"/>
<path id="Vector_32" d="M12.4728 7.31738H12.0576V9.11081H12.4728V7.31738Z" fill="#D1D1D1"/>
<path id="Vector_33" d="M11.1163 7.70692L10.8228 8.00049L12.0909 9.26863L12.3845 8.97506L11.1163 7.70692Z" fill="#D1D1D1"/>
<path id="Vector_34" d="M10.4307 8.9442V9.35938H12.2241V8.9442H10.4307Z" fill="#D1D1D1"/>
<path id="Vector_35" d="M10.8192 10.2992L11.1128 10.5928L12.3809 9.32463L12.0874 9.03106L10.8192 10.2992Z" fill="#D1D1D1"/>
<path id="Vector_36" d="M12.058 10.9863H12.4731V9.19291H12.058V10.9863Z" fill="#D1D1D1"/>
<path id="Vector_37" d="M13.4139 10.5944L13.7075 10.3008L12.4394 9.03264L12.1458 9.32621L13.4139 10.5944Z" fill="#D1D1D1"/>
<path id="Vector_38" d="M14.0996 9.35951V8.94434H12.3062V9.35951H14.0996Z" fill="#D1D1D1"/>
<path id="Vector_39" d="M13.7096 8.00158L13.416 7.70801L12.1479 8.97615L12.4414 9.26972L13.7096 8.00158Z" fill="#D1D1D1"/>
<path id="Vector_40" d="M12.7044 9.15013C12.7044 9.39867 12.5067 9.60201 12.2638 9.60201C12.0209 9.60201 11.8232 9.39867 11.8232 9.15013C11.8232 8.90159 12.0209 8.69824 12.2638 8.69824C12.5067 8.69824 12.7044 8.89877 12.7044 9.15013Z" fill="#888888"/>
</g>
<path id="Vector_41" d="M36.7309 11.8536L38.3548 9.93309C38.7756 9.43602 39.3913 9.15077 40.0409 9.15077H40.7413C40.9023 8.24135 41.696 7.57764 42.6195 7.57764H43.0996V11.8677L36.728 11.8536H36.7309Z" fill="#B5292A"/>
<path id="Vector_42" d="M30.0938 0H32.2515C32.6921 0 33.0508 0.358685 33.0508 0.799274H30.893C30.4524 0.799274 30.0938 0.440589 30.0938 0Z" fill="#292929"/>
<path id="Vector_43" d="M31.0399 1.44873L32.5396 1.44873V0.79632L31.0399 0.79632V1.44873Z" fill="#292929"/>
<path id="Vector_44" opacity="0.1" d="M27.32 2.65768H31.7203C31.9717 2.65768 32.1722 2.45433 32.1722 2.20579C32.1722 1.95443 31.9688 1.75391 31.7203 1.75391H27.32C27.0687 1.75391 26.8682 1.95726 26.8682 2.20579C26.8682 2.45715 27.0715 2.65768 27.32 2.65768Z" fill="white"/>
<path id="Vector_45" opacity="0.1" d="M33.0025 7.27218L37.3914 6.93609C37.64 6.91632 37.8264 6.69885 37.8094 6.45031C37.7896 6.20178 37.5722 6.01537 37.3236 6.03232L32.9347 6.36841C32.6862 6.38818 32.4997 6.60565 32.5167 6.85419C32.5365 7.10273 32.7539 7.28913 33.0025 7.27218Z" fill="white"/>
<path id="Vector_46" d="M38.5273 8.26687C38.7589 8.26687 38.9481 8.07764 38.9481 7.84605V6.07805C38.9481 5.84645 38.7589 5.65723 38.5273 5.65723C38.2957 5.65723 38.1064 5.84645 38.1064 6.07805V7.84605C38.1064 8.07764 38.2957 8.26687 38.5273 8.26687Z" fill="#1F1F1F"/>
<path id="Vector_47" d="M18.1719 8.9502H23.1455V7.98429L18.1719 7.98429V8.9502Z" fill="#881F20"/>
<path id="Vector_48" d="M5.898 4.72803H8.66016V3.8299L5.898 3.8299V4.72803Z" fill="white"/>
<path id="Vector_49" d="M29.9409 5.36617C29.9409 5.67119 30.1866 5.9169 30.4917 5.9169C30.7967 5.9169 31.0424 5.67119 31.0424 5.36617C31.0424 5.06114 30.7967 4.81543 30.4917 4.81543C30.1866 4.81543 29.9409 5.06114 29.9409 5.36617Z" fill="white"/>
<path id="Vector_50" d="M39.4565 10.9946H42.5293V10.5653H39.4565V10.9946Z" fill="white"/>
<path id="Vector_51" d="M40.3259 6.65381H43.5625V6.03247H40.3259V6.65381Z" fill="white"/>
<path id="Vector_52" d="M26.5438 6.21338H28.1875V4.73063H26.5438V6.21338Z" fill="white"/>
<path id="Vector_53" d="M53.9419 12.9521H60.7852V12.359H53.9419V12.9521Z" fill="#1F1F1F"/>
<path id="Vector_54" d="M60.7849 11.8196H57.1924L54.1846 10.6504V12.3591H60.7849V11.8196Z" fill="#292929"/>
</g>
</g>
<defs>
<filter id="filter0_d_2914_2913" x="0" y="0" width="64.7852" height="22" filterUnits="userSpaceOnUse" color-interpolation-filters="sRGB">
<feFlood flood-opacity="0" result="BackgroundImageFix"/>
<feColorMatrix in="SourceAlpha" type="matrix" values="0 0 0 0 0 0 0 0 0 0 0 0 0 0 0 0 0 0 127 0" result="hardAlpha"/>
<feOffset dy="4"/>
<feGaussianBlur stdDeviation="2"/>
<feComposite in2="hardAlpha" operator="out"/>
<feColorMatrix type="matrix" values="0 0 0 0 0 0 0 0 0 0 0 0 0 0 0 0 0 0 0.25 0"/>
<feBlend mode="normal" in2="BackgroundImageFix" result="effect1_dropShadow_2914_2913"/>
<feBlend mode="normal" in="SourceGraphic" in2="effect1_dropShadow_2914_2913" result="shape"/>
</filter>
</defs>
</svg>
