<svg width="53" height="26" viewBox="0 0 53 26" fill="none" xmlns="http://www.w3.org/2000/svg">
<g id="Group" filter="url(#filter0_d_2895_2879)">
<g id="Layer 2">
<g id="Layer 1">
<g id="Group_2">
<path id="Vector" d="M5.01492 13.5898H18.9965C19.0559 13.5898 19.1042 13.6381 19.1042 13.6975V14.0752C19.1042 14.1346 19.0559 14.1829 18.9965 14.1829H5.01492C4.9555 14.1829 4.90723 14.1346 4.90723 14.0752V13.6975C4.90723 13.6381 4.9555 13.5898 5.01492 13.5898Z" fill="#33333B"/>
<path id="Vector_2" d="M45.5063 7.06761C45.4574 6.92449 45.296 6.85537 45.1595 6.91964L43.6504 7.6292L45.3909 9.03947C45.7405 8.08111 45.6228 7.40839 45.5063 7.06761Z" fill="#3E4D8A"/>
<path id="Vector_3" d="M45.5061 7.06761C45.4573 6.92449 45.2959 6.85537 45.1594 6.91964L45.1279 6.93449C45.1759 6.9642 45.2151 7.00933 45.2348 7.06761C45.3442 7.38754 45.4544 8.00027 45.1782 8.86722L45.3907 9.03947C45.7404 8.08111 45.6227 7.40839 45.5061 7.06761Z" fill="#D1D3D4"/>
<path id="Vector_4" d="M29.1304 6.57023L29.1038 6.60994C29.0578 6.67878 28.965 6.69706 28.8961 6.65107L26.1456 4.80946C26.0767 4.76347 26.0585 4.67035 26.1044 4.60179L26.131 4.56209C26.177 4.49325 26.2701 4.47496 26.3387 4.52095L29.0892 6.36256C29.1581 6.40855 29.1764 6.50168 29.1304 6.57023Z" fill="#BCBEC0"/>
<path id="Vector_5" d="M19.508 5.28995C19.508 5.28995 20.8569 5.12798 21.6561 7.2501L19.3504 7.19212C19.3504 7.19212 19.1561 5.78984 19.508 5.28995Z" fill="#33333B"/>
<path id="Vector_6" d="M41.17 10.8374H13.2388V14.1833H41.17V10.8374Z" fill="#1B1B1B"/>
<path id="Vector_7" d="M35.5141 12.917H42.4192C42.7491 12.917 43.0174 13.1849 43.0174 13.5152V14.0116C43.0174 14.3415 42.7494 14.6095 42.4195 14.6095H35.5144C35.1844 14.6095 34.9165 14.3415 34.9165 14.0116V13.5152C34.9165 13.1852 35.1844 12.9173 35.5144 12.9173L35.5141 12.917Z" fill="#2B2B2B"/>
<path id="Vector_8" d="M16.7255 11.9224H29.394C29.7239 11.9224 29.9921 12.1903 29.9921 12.5205V14.221C29.9921 14.5509 29.7242 14.8189 29.3942 14.8189H16.7258C16.3959 14.8189 16.1279 14.5509 16.1279 14.221V12.5205C16.1279 12.1906 16.3959 11.9226 16.7258 11.9226L16.7255 11.9224Z" fill="#1B1B1B"/>
<path id="Vector_9" d="M29.2447 12.3379L25.5615 13.5462L13.6191 12.6972L13.5889 13.1257L25.6152 13.9807L29.3786 12.7461L29.2447 12.3379Z" fill="#33333B"/>
<path id="Vector_10" d="M6.07715 12.8266L7.65224 14.3599H15.0989L16.9963 12.9314L14.7407 8.51318H8.40551L6.07715 12.8266Z" fill="#1B1B1B"/>
<path id="Vector_11" d="M47.0635 9.52469L43.2375 14.1931L38.0132 12.9717L40.7252 8.84255C40.7252 8.84255 45.6621 7.18861 47.0635 9.52469Z" fill="#1B1B1B"/>
<path id="Vector_12" d="M43.8291 5.296C43.7965 5.10833 43.638 4.96893 43.4477 4.95922L28.9951 4.25937C28.8243 4.25108 28.6617 4.33249 28.5663 4.47418L28.0173 5.28858C27.9719 5.35599 27.9207 5.41969 27.8653 5.47911C25.7715 7.71834 23.4031 7.57038 23.4031 7.57038C20.9442 7.57038 19.8516 5.95015 19.5083 5.29C19.4208 5.12175 19.244 5.01892 19.0544 5.02577C13.8563 5.21373 10.8581 6.12868 10.8581 6.12868C6.73926 7.16189 4.9405 9.39056 4.34405 10.7206C4.16295 11.1248 4.00441 11.5258 4.00013 11.9683C3.99784 12.2131 4.02669 12.2814 4.04269 12.3959C4.06154 12.529 4.17181 12.6299 4.30578 12.6364L5.85916 12.7133C7.22887 8.21909 11.2183 8.14711 11.2183 8.14711C16.0367 8.38906 16.7563 12.3105 16.8434 12.9715H38.0132C38.7907 8.00171 43.8782 7.89888 43.8782 7.89888C43.9956 6.58601 43.9034 5.72448 43.8285 5.296H43.8291Z" fill="#3D4D84"/>
<g id="Group_3" style="mix-blend-mode:multiply" opacity="0.15">
<path id="Vector_13" d="M4.30606 12.6317L5.85945 12.7085C6.23765 11.4676 6.81581 10.5644 7.45425 9.90625H4.80024C4.60314 10.1976 4.45317 10.4716 4.34405 10.7155C4.16295 11.1197 4.00441 11.5208 4.00013 11.9635C3.99784 12.2083 4.02669 12.2766 4.04269 12.3909C4.06154 12.524 4.17181 12.6248 4.30578 12.6314L4.30606 12.6317Z" fill="#414042"/>
<path id="Vector_14" d="M15.4019 9.90625C16.5336 11.124 16.7938 12.586 16.8441 12.9667H38.0139C38.2244 11.621 38.7512 10.633 39.407 9.90625H15.4019Z" fill="#414042"/>
</g>
<g id="Group_4">
<path id="Vector_15" d="M48.4106 13.5903C48.4106 16.0258 46.4367 17.9999 44.0009 17.9999C41.5652 17.9999 39.5913 16.0258 39.5913 13.5903C39.5913 11.1548 41.5655 9.18066 44.0009 9.18066C46.4364 9.18066 48.4106 11.1554 48.4106 13.5903Z" fill="#414042"/>
<g id="Vector_16" style="mix-blend-mode:multiply" opacity="0.21">
<path d="M47.1982 13.5906C47.1982 15.3562 45.7671 16.7873 44.0014 16.7873C42.2358 16.7873 40.8047 15.3562 40.8047 13.5906C40.8047 11.825 42.2361 10.3936 44.0014 10.3936C45.7668 10.3936 47.1982 11.825 47.1982 13.5906Z" fill="#414042"/>
</g>
<path id="Vector_17" d="M47.0639 13.5903C47.0639 15.282 45.6931 16.6528 44.0015 16.6528C42.3098 16.6528 40.939 15.2817 40.939 13.5903C40.939 11.899 42.3101 10.5278 44.0015 10.5278C45.6928 10.5278 47.0639 11.8993 47.0639 13.5903Z" fill="#F1F2F2"/>
<path id="Vector_18" d="M46.8664 13.5905C46.8664 15.173 45.5839 16.4556 44.0013 16.4556C42.4188 16.4556 41.1362 15.173 41.1362 13.5905C41.1362 12.008 42.4191 10.7251 44.0013 10.7251C45.5836 10.7251 46.8664 12.0083 46.8664 13.5905Z" fill="#A7A9AC"/>
<path id="Vector_19" d="M46.194 13.5904C46.194 14.8016 45.2125 15.7834 44.0011 15.7834C42.7896 15.7834 41.8081 14.8016 41.8081 13.5904C41.8081 12.3793 42.7899 11.3975 44.0011 11.3975C45.2122 11.3975 46.194 12.3795 46.194 13.5904Z" fill="#F1F2F2"/>
<path id="Vector_20" d="M45.9947 13.5903C45.9947 14.6912 45.1023 15.5838 44.0014 15.5838C42.9005 15.5838 42.0078 14.6914 42.0078 13.5903C42.0078 12.4891 42.9002 11.5967 44.0014 11.5967C45.1026 11.5967 45.9947 12.4893 45.9947 13.5903Z" fill="#D1D3D4"/>
<path id="Vector_21" d="M45.2789 13.5905C45.2789 14.2964 44.707 14.8682 44.0009 14.8682C43.2947 14.8682 42.7231 14.2961 42.7231 13.5905C42.7231 12.885 43.2953 12.3125 44.0009 12.3125C44.7064 12.3125 45.2789 12.8847 45.2789 13.5905Z" fill="#F1F2F2"/>
<g id="Group_5">
<path id="Vector_22" d="M43.7409 10.8955C43.4943 10.9192 43.251 10.9761 43.0176 11.0666L43.1698 11.3957C43.3541 11.326 43.5492 11.2786 43.752 11.2571L43.7411 10.8955H43.7409Z" fill="#414042"/>
<path id="Vector_23" d="M42.1792 12.1115L41.9153 11.8633C41.7527 12.0587 41.6228 12.2712 41.5239 12.494L41.8641 12.6191C41.9476 12.436 42.0538 12.2658 42.1789 12.1115H42.1792Z" fill="#414042"/>
<path id="Vector_24" d="M42.8606 11.539L42.7083 11.21C42.5092 11.3185 42.321 11.4531 42.1484 11.615L42.4124 11.8633C42.5481 11.7384 42.6983 11.6293 42.8606 11.539Z" fill="#414042"/>
<path id="Vector_25" d="M45.7201 11.4991C45.5233 11.3368 45.3093 11.2069 45.0848 11.1089L44.96 11.4485C45.1445 11.5314 45.3165 11.6373 45.4721 11.7627L45.7201 11.4991Z" fill="#414042"/>
<path id="Vector_26" d="M44.7649 10.9921C44.5418 10.9266 44.3119 10.8904 44.0811 10.8838L44.0922 11.2454C44.2813 11.2526 44.465 11.282 44.6401 11.3317L44.7649 10.9921Z" fill="#414042"/>
<path id="Vector_27" d="M46.3344 13.3413L46.6955 13.3302C46.6717 13.0819 46.6143 12.8369 46.5226 12.6021L46.1938 12.754C46.2647 12.9397 46.3127 13.1365 46.3344 13.3416V13.3413Z" fill="#414042"/>
<path id="Vector_28" d="M41.7467 12.9381L41.4068 12.813C41.34 13.0361 41.3028 13.2655 41.2954 13.496L41.6573 13.4848C41.6656 13.296 41.6962 13.1129 41.7467 12.9381Z" fill="#414042"/>
<path id="Vector_29" d="M46.3784 12.2937C46.2693 12.0932 46.133 11.9035 45.9696 11.731L45.7217 11.9946C45.8482 12.1309 45.9585 12.2823 46.0499 12.4457L46.3784 12.2937Z" fill="#414042"/>
<path id="Vector_30" d="M45.1338 15.6453L45.2858 15.9744C45.4877 15.8653 45.6785 15.7293 45.8528 15.5656L45.5888 15.3174C45.4514 15.4439 45.2986 15.5542 45.1338 15.6453Z" fill="#414042"/>
<path id="Vector_31" d="M44.2358 15.9252L44.247 16.2868C44.4958 16.2643 44.7417 16.208 44.9771 16.1174L44.8249 15.7881C44.6386 15.8578 44.4412 15.9049 44.2358 15.9252Z" fill="#414042"/>
<path id="Vector_32" d="M45.8228 15.0694L46.087 15.318C46.2504 15.1203 46.3823 14.9052 46.4806 14.6795L46.1413 14.5547C46.0573 14.7406 45.9499 14.9132 45.8228 15.0694Z" fill="#414042"/>
<path id="Vector_33" d="M46.3455 13.6816C46.3381 13.8729 46.3081 14.0583 46.2578 14.2351L46.5975 14.36C46.6643 14.1346 46.7009 13.9029 46.7071 13.6704L46.3458 13.6816H46.3455Z" fill="#414042"/>
<path id="Vector_34" d="M41.9436 14.7188L41.6143 14.871C41.7225 15.0721 41.8573 15.2618 42.0187 15.4352L42.267 15.1712C42.1421 15.0344 42.0333 14.8824 41.9433 14.7188H41.9436Z" fill="#414042"/>
<path id="Vector_35" d="M42.2651 15.6695C42.4614 15.8335 42.675 15.9652 42.899 16.0648L43.0241 15.7243C42.8399 15.6398 42.6685 15.5324 42.5137 15.4053L42.2651 15.6695Z" fill="#414042"/>
<path id="Vector_36" d="M41.6666 13.8247L41.3047 13.8358C41.3275 14.0827 41.3827 14.3272 41.4724 14.5611L41.802 14.4089C41.7332 14.2241 41.6869 14.0284 41.6666 13.825V13.8247Z" fill="#414042"/>
<path id="Vector_37" d="M43.3439 15.8433L43.2188 16.1835C43.4433 16.2509 43.6749 16.2886 43.9075 16.2966L43.8963 15.9344C43.7055 15.9261 43.5204 15.8947 43.3441 15.8433H43.3439Z" fill="#414042"/>
</g>
<path id="Vector_38" d="M45.1042 13.5902C45.1042 14.1992 44.6106 14.6928 44.0015 14.6928C43.3925 14.6928 42.8989 14.1992 42.8989 13.5902C42.8989 12.9812 43.3925 12.4873 44.0015 12.4873C44.6106 12.4873 45.1042 12.9812 45.1042 13.5902Z" fill="#D1D3D4"/>
<path id="Vector_39" d="M44.7649 13.5902C44.7649 14.0121 44.423 14.3538 44.0013 14.3538C43.5797 14.3538 43.2378 14.0118 43.2378 13.5902C43.2378 13.1686 43.5797 12.8267 44.0013 12.8267C44.423 12.8267 44.7649 13.1686 44.7649 13.5902Z" fill="#F1F2F2"/>
<path id="Vector_40" d="M44.6603 13.5902C44.6603 13.9541 44.3652 14.2492 44.0013 14.2492C43.6374 14.2492 43.3423 13.9541 43.3423 13.5902C43.3423 13.2262 43.6374 12.9312 44.0013 12.9312C44.3652 12.9312 44.6603 13.2262 44.6603 13.5902Z" fill="#A7A9AC"/>
<g id="Vector_41" style="mix-blend-mode:multiply" opacity="0.21">
<path d="M47.1 16.7275C47.9093 15.9283 48.4111 14.8182 48.4111 13.5908C48.4111 11.1556 46.4373 9.18115 44.0015 9.18115C42.8012 9.18115 41.7137 9.66134 40.9185 10.4395L47.1 16.7275Z" fill="#414042"/>
</g>
</g>
<g id="Group_6">
<path id="Vector_42" d="M15.6801 13.5903C15.6801 16.0258 13.7062 17.9999 11.2705 17.9999C8.83471 17.9999 6.86084 16.0258 6.86084 13.5903C6.86084 11.1548 8.83499 9.18066 11.2705 9.18066C13.706 9.18066 15.6801 11.1554 15.6801 13.5903Z" fill="#414042"/>
<g id="Vector_43" style="mix-blend-mode:multiply" opacity="0.21">
<path d="M14.4677 13.5906C14.4677 15.3562 13.0366 16.7873 11.271 16.7873C9.50534 16.7873 8.07422 15.3562 8.07422 13.5906C8.07422 11.825 9.50563 10.3936 11.271 10.3936C13.0363 10.3936 14.4677 11.825 14.4677 13.5906Z" fill="#414042"/>
</g>
<path id="Vector_44" d="M14.3335 13.5903C14.3335 15.282 12.9626 16.6528 11.271 16.6528C9.57935 16.6528 8.2085 15.2817 8.2085 13.5903C8.2085 11.899 9.57963 10.5278 11.271 10.5278C12.9623 10.5278 14.3335 11.8993 14.3335 13.5903Z" fill="#F1F2F2"/>
<path id="Vector_45" d="M14.136 13.5905C14.136 15.173 12.8534 16.4556 11.2709 16.4556C9.68835 16.4556 8.40576 15.173 8.40576 13.5905C8.40576 12.008 9.68863 10.7251 11.2709 10.7251C12.8531 10.7251 14.136 12.0083 14.136 13.5905Z" fill="#A7A9AC"/>
<path id="Vector_46" d="M13.4636 13.5904C13.4636 14.8016 12.4821 15.7834 11.2706 15.7834C10.0591 15.7834 9.07764 14.8016 9.07764 13.5904C9.07764 12.3793 10.0594 11.3975 11.2706 11.3975C12.4818 11.3975 13.4636 12.3795 13.4636 13.5904Z" fill="#F1F2F2"/>
<path id="Vector_47" d="M13.264 13.5903C13.264 14.6912 12.3716 15.5838 11.2704 15.5838C10.1692 15.5838 9.27686 14.6914 9.27686 13.5903C9.27686 12.4891 10.1695 11.5967 11.2704 11.5967C12.3713 11.5967 13.264 12.4893 13.264 13.5903Z" fill="#D1D3D4"/>
<path id="Vector_48" d="M12.5486 13.5905C12.5486 14.2964 11.9767 14.8682 11.2709 14.8682C10.565 14.8682 9.99316 14.2961 9.99316 13.5905C9.99316 12.885 10.5653 12.3125 11.2709 12.3125C11.9765 12.3125 12.5486 12.8847 12.5486 13.5905Z" fill="#F1F2F2"/>
<g id="Group_7">
<path id="Vector_49" d="M11.0104 10.8955C10.7642 10.9192 10.5205 10.9761 10.2871 11.0666L10.4391 11.3957C10.6233 11.326 10.8184 11.2786 11.0212 11.2571L11.0101 10.8955H11.0104Z" fill="#414042"/>
<path id="Vector_50" d="M9.44875 12.1115L9.1848 11.8633C9.02227 12.0587 8.89229 12.2712 8.79346 12.494L9.13367 12.6191C9.21708 12.436 9.32334 12.2658 9.44875 12.1115Z" fill="#414042"/>
<path id="Vector_51" d="M10.1301 11.539L9.97785 11.21C9.77875 11.3185 9.5905 11.4531 9.41797 11.615L9.68191 11.8633C9.8176 11.7384 9.96785 11.6293 10.1301 11.539Z" fill="#414042"/>
<path id="Vector_52" d="M12.9896 11.4991C12.7928 11.3368 12.5788 11.2069 12.3543 11.1089L12.2295 11.4485C12.414 11.5314 12.586 11.6373 12.7417 11.7627L12.9896 11.4991Z" fill="#414042"/>
<path id="Vector_53" d="M12.0344 10.9921C11.8113 10.9266 11.5814 10.8904 11.3506 10.8838L11.3617 11.2454C11.5508 11.2526 11.7345 11.282 11.9096 11.3317L12.0344 10.9921Z" fill="#414042"/>
<path id="Vector_54" d="M13.6042 13.3413L13.9653 13.3302C13.9416 13.0819 13.8844 12.8369 13.7922 12.6021L13.4634 12.754C13.5342 12.9397 13.5822 13.1365 13.6039 13.3416L13.6042 13.3413Z" fill="#414042"/>
<path id="Vector_55" d="M9.01627 12.9381L8.67635 12.813C8.6095 13.0361 8.57237 13.2655 8.56494 13.496L8.92686 13.4848C8.93515 13.296 8.96571 13.1129 9.01627 12.9381Z" fill="#414042"/>
<path id="Vector_56" d="M13.6479 12.2937C13.5388 12.0932 13.4026 11.9035 13.2392 11.731L12.9912 11.9946C13.1178 12.1309 13.228 12.2823 13.3197 12.4457L13.6482 12.2937H13.6479Z" fill="#414042"/>
<path id="Vector_57" d="M12.4033 15.6453L12.5553 15.9744C12.7572 15.8653 12.9481 15.7293 13.1223 15.5656L12.8584 15.3174C12.7207 15.4439 12.5681 15.5542 12.4033 15.6453Z" fill="#414042"/>
<path id="Vector_58" d="M11.5049 15.9252L11.516 16.2868C11.7648 16.2643 12.0108 16.208 12.2462 16.1174L12.0939 15.7881C11.9077 15.8578 11.7103 15.9049 11.5049 15.9252Z" fill="#414042"/>
<path id="Vector_59" d="M13.0918 15.0694L13.356 15.318C13.5194 15.1203 13.6514 14.9052 13.7497 14.6795L13.4103 14.5547C13.3263 14.7406 13.2189 14.9132 13.0918 15.0694Z" fill="#414042"/>
<path id="Vector_60" d="M13.615 13.6816C13.6076 13.8729 13.5776 14.0583 13.5273 14.2351L13.867 14.36C13.9338 14.1346 13.9704 13.9029 13.9767 13.6704L13.6153 13.6816H13.615Z" fill="#414042"/>
<path id="Vector_61" d="M9.21315 14.7188L8.88379 14.871C8.99205 15.0721 9.12688 15.2618 9.28827 15.4352L9.53651 15.1712C9.41168 15.0344 9.30284 14.8824 9.21286 14.7188H9.21315Z" fill="#414042"/>
<path id="Vector_62" d="M9.53516 15.6695C9.7314 15.8335 9.94507 15.9652 10.169 16.0648L10.2941 15.7243C10.1099 15.6398 9.9385 15.5324 9.78368 15.4053L9.53516 15.6695Z" fill="#414042"/>
<path id="Vector_63" d="M8.93594 13.8247L8.57373 13.8358C8.59658 14.0827 8.652 14.3272 8.74141 14.5611L9.07105 14.4089C9.00221 14.2241 8.95593 14.0284 8.93594 13.825V13.8247Z" fill="#414042"/>
<path id="Vector_64" d="M10.6134 15.8433L10.4883 16.1835C10.7128 16.2509 10.9442 16.2886 11.1767 16.2966L11.1656 15.9344C10.9747 15.9261 10.7896 15.8947 10.6134 15.8433Z" fill="#414042"/>
</g>
<path id="Vector_65" d="M12.3737 13.5902C12.3737 14.1992 11.8801 14.6928 11.2711 14.6928C10.6621 14.6928 10.1685 14.1992 10.1685 13.5902C10.1685 12.9812 10.6621 12.4873 11.2711 12.4873C11.8801 12.4873 12.3737 12.9812 12.3737 13.5902Z" fill="#D1D3D4"/>
<path id="Vector_66" d="M12.0344 13.5902C12.0344 14.0121 11.6925 14.3538 11.2709 14.3538C10.8493 14.3538 10.5073 14.0118 10.5073 13.5902C10.5073 13.1686 10.8493 12.8267 11.2709 12.8267C11.6925 12.8267 12.0344 13.1686 12.0344 13.5902Z" fill="#F1F2F2"/>
<path id="Vector_67" d="M11.9298 13.5902C11.9298 13.9541 11.6347 14.2492 11.2708 14.2492C10.9069 14.2492 10.6118 13.9541 10.6118 13.5902C10.6118 13.2262 10.9069 12.9312 11.2708 12.9312C11.6347 12.9312 11.9298 13.2262 11.9298 13.5902Z" fill="#A7A9AC"/>
<g id="Vector_68" style="mix-blend-mode:multiply" opacity="0.21">
<path d="M14.3695 16.7275C15.1788 15.9283 15.6807 14.8182 15.6807 13.5908C15.6807 11.1556 13.7068 9.18115 11.271 9.18115C10.0707 9.18115 8.98325 9.66134 8.18799 10.4395L14.3695 16.7275Z" fill="#414042"/>
</g>
</g>
<g id="Vector_69" style="mix-blend-mode:multiply" opacity="0.21">
<path d="M38.7271 11.3569H16.5664V11.5966H38.7271V11.3569Z" fill="#414042"/>
</g>
<g id="Group_8">
<g id="Vector_70" style="mix-blend-mode:multiply" opacity="0.21">
<path d="M17.8608 11.817V12.73H18.0422V11.817H17.8608Z" fill="#414042"/>
</g>
<path id="Vector_71" opacity="0.19" d="M18.0418 12.73V11.817H18.0943C18.1412 11.817 18.1792 11.855 18.1792 11.9019V12.6449C18.1792 12.6917 18.1412 12.7297 18.0943 12.7297H18.0415L18.0418 12.73Z" fill="white"/>
</g>
<g id="Group_9">
<g id="Vector_72" style="mix-blend-mode:multiply" opacity="0.21">
<path d="M18.3574 11.817V12.73H18.5388V11.817H18.3574Z" fill="#414042"/>
</g>
<path id="Vector_73" opacity="0.19" d="M18.5386 12.73V11.817H18.5911C18.638 11.817 18.676 11.855 18.676 11.9019V12.6449C18.676 12.6917 18.638 12.7297 18.5911 12.7297H18.5386V12.73Z" fill="white"/>
</g>
<g id="Group_10">
<g id="Vector_74" style="mix-blend-mode:multiply" opacity="0.21">
<path d="M18.854 11.817V12.73H19.0354V11.817H18.854Z" fill="#414042"/>
</g>
<path id="Vector_75" opacity="0.19" d="M19.0352 12.73V11.817H19.0877C19.1346 11.817 19.1726 11.855 19.1726 11.9019V12.6449C19.1726 12.6917 19.1346 12.7297 19.0877 12.7297H19.0352V12.73Z" fill="white"/>
</g>
<g id="Group_11">
<g id="Vector_76" style="mix-blend-mode:multiply" opacity="0.21">
<path d="M19.3511 11.817V12.73H19.5325V11.817H19.3511Z" fill="#414042"/>
</g>
<path id="Vector_77" opacity="0.19" d="M19.532 12.73V11.817H19.5846C19.6314 11.817 19.6694 11.855 19.6694 11.9019V12.6449C19.6694 12.6917 19.6314 12.7297 19.5846 12.7297H19.5317L19.532 12.73Z" fill="white"/>
</g>
<g id="Group_12">
<g id="Vector_78" style="mix-blend-mode:multiply" opacity="0.21">
<path d="M19.8477 11.817V12.73H20.029V11.817H19.8477Z" fill="#414042"/>
</g>
<path id="Vector_79" opacity="0.19" d="M20.0288 12.73V11.817H20.0814C20.1282 11.817 20.1662 11.855 20.1662 11.9019V12.6449C20.1662 12.6917 20.1282 12.7297 20.0814 12.7297H20.0288V12.73Z" fill="white"/>
</g>
<g id="Group_13">
<g id="Vector_80" style="mix-blend-mode:multiply" opacity="0.21">
<path d="M20.3442 11.8165V12.7295H20.5256V11.8165H20.3442Z" fill="#414042"/>
</g>
<path id="Vector_81" opacity="0.19" d="M20.5259 12.73V11.817H20.5784C20.6253 11.817 20.6633 11.855 20.6633 11.9019V12.6449C20.6633 12.6917 20.6253 12.7297 20.5784 12.7297H20.5259V12.73Z" fill="white"/>
</g>
<g id="Group_14">
<g id="Vector_82" style="mix-blend-mode:multiply" opacity="0.21">
<path d="M20.8408 11.817V12.73H21.0222V11.817H20.8408Z" fill="#414042"/>
</g>
<path id="Vector_83" opacity="0.19" d="M21.0223 12.73V11.817H21.0748C21.1217 11.817 21.1597 11.855 21.1597 11.9019V12.6449C21.1597 12.6917 21.1217 12.7297 21.0748 12.7297H21.022L21.0223 12.73Z" fill="white"/>
</g>
<g id="Group_15">
<g id="Vector_84" style="mix-blend-mode:multiply" opacity="0.21">
<path d="M21.3374 11.817V12.73H21.5188V11.817H21.3374Z" fill="#414042"/>
</g>
<path id="Vector_85" opacity="0.19" d="M21.5188 12.73V11.817H21.5714C21.6182 11.817 21.6562 11.855 21.6562 11.9019V12.6449C21.6562 12.6917 21.6182 12.7297 21.5714 12.7297H21.5186L21.5188 12.73Z" fill="white"/>
</g>
<g id="Group_16">
<g id="Vector_86" style="mix-blend-mode:multiply" opacity="0.21">
<path d="M21.8345 11.817V12.73H22.0159V11.817H21.8345Z" fill="#414042"/>
</g>
<path id="Vector_87" opacity="0.19" d="M22.0154 12.73V11.817H22.068C22.1148 11.817 22.1528 11.855 22.1528 11.9019V12.6449C22.1528 12.6917 22.1148 12.7297 22.068 12.7297H22.0151L22.0154 12.73Z" fill="white"/>
</g>
<g id="Group_17">
<g id="Vector_88" style="mix-blend-mode:multiply" opacity="0.21">
<path d="M22.3311 11.817V12.73H22.5124V11.817H22.3311Z" fill="#414042"/>
</g>
<path id="Vector_89" opacity="0.19" d="M22.5122 12.73V11.817H22.5648C22.6116 11.817 22.6496 11.855 22.6496 11.9019V12.6449C22.6496 12.6917 22.6116 12.7297 22.5648 12.7297H22.5122V12.73Z" fill="white"/>
</g>
<g id="Group_18">
<g id="Vector_90" style="mix-blend-mode:multiply" opacity="0.21">
<path d="M22.8276 11.817V12.73H23.009V11.817H22.8276Z" fill="#414042"/>
</g>
<path id="Vector_91" opacity="0.19" d="M23.0088 12.7295V11.8165H23.0613C23.1082 11.8165 23.1462 11.8545 23.1462 11.9014V12.6444C23.1462 12.6912 23.1082 12.7292 23.0613 12.7292H23.0088V12.7295Z" fill="white"/>
</g>
<g id="Group_19">
<g id="Vector_92" style="mix-blend-mode:multiply" opacity="0.21">
<path d="M23.3247 11.817V12.73H23.5061V11.817H23.3247Z" fill="#414042"/>
</g>
<path id="Vector_93" opacity="0.19" d="M23.5059 12.73V11.817H23.5584C23.6053 11.817 23.6433 11.855 23.6433 11.9019V12.6449C23.6433 12.6917 23.6053 12.7297 23.5584 12.7297H23.5059V12.73Z" fill="white"/>
</g>
<g id="Group_20">
<g id="Vector_94" style="mix-blend-mode:multiply" opacity="0.21">
<path d="M23.8213 11.817V12.73H24.0027V11.817H23.8213Z" fill="#414042"/>
</g>
<path id="Vector_95" opacity="0.19" d="M24.0024 12.73V11.817H24.055C24.1018 11.817 24.1398 11.855 24.1398 11.9019V12.6449C24.1398 12.6917 24.1018 12.7297 24.055 12.7297H24.0024V12.73Z" fill="white"/>
</g>
<g id="Group_21">
<g id="Vector_96" style="mix-blend-mode:multiply" opacity="0.21">
<path d="M24.3184 11.817V12.73H24.4997V11.817H24.3184Z" fill="#414042"/>
</g>
<path id="Vector_97" opacity="0.19" d="M24.4993 12.73V11.817H24.5519C24.5987 11.817 24.6367 11.855 24.6367 11.9019V12.6449C24.6367 12.6917 24.5987 12.7297 24.5519 12.7297H24.499L24.4993 12.73Z" fill="white"/>
</g>
<g id="Group_22">
<g id="Vector_98" style="mix-blend-mode:multiply" opacity="0.21">
<path d="M24.8149 11.817V12.73H24.9963V11.817H24.8149Z" fill="#414042"/>
</g>
<path id="Vector_99" opacity="0.19" d="M24.9959 12.73V11.817H25.0485C25.0953 11.817 25.1333 11.855 25.1333 11.9019V12.6449C25.1333 12.6917 25.0953 12.7297 25.0485 12.7297H24.9956L24.9959 12.73Z" fill="white"/>
</g>
<g id="Group_23">
<g id="Vector_100" style="mix-blend-mode:multiply" opacity="0.21">
<path d="M25.3115 11.817V12.73H25.4929V11.817H25.3115Z" fill="#414042"/>
</g>
<path id="Vector_101" opacity="0.19" d="M25.4927 12.73V11.817H25.5452C25.5921 11.817 25.6301 11.855 25.6301 11.9019V12.6449C25.6301 12.6917 25.5921 12.7297 25.5452 12.7297H25.4927V12.73Z" fill="white"/>
</g>
<g id="Group_24">
<g id="Vector_102" style="mix-blend-mode:multiply" opacity="0.21">
<path d="M25.8081 11.817V12.73H25.9895V11.817H25.8081Z" fill="#414042"/>
</g>
<path id="Vector_103" opacity="0.19" d="M25.9891 12.73V11.817H26.0416C26.0885 11.817 26.1265 11.855 26.1265 11.9019V12.6449C26.1265 12.6917 26.0885 12.7297 26.0416 12.7297H25.9888L25.9891 12.73Z" fill="white"/>
</g>
<g id="Group_25">
<g id="Vector_104" style="mix-blend-mode:multiply" opacity="0.21">
<path d="M26.3052 11.817V12.73H26.4866V11.817H26.3052Z" fill="#414042"/>
</g>
<path id="Vector_105" opacity="0.19" d="M26.4861 12.73V11.817H26.5387C26.5855 11.817 26.6235 11.855 26.6235 11.9019V12.6449C26.6235 12.6917 26.5855 12.7297 26.5387 12.7297H26.4858L26.4861 12.73Z" fill="white"/>
</g>
<g id="Group_26">
<g id="Vector_106" style="mix-blend-mode:multiply" opacity="0.21">
<path d="M26.8018 11.817V12.73H26.9831V11.817H26.8018Z" fill="#414042"/>
</g>
<path id="Vector_107" opacity="0.19" d="M26.9827 12.73V11.817H27.0353C27.0821 11.817 27.1201 11.855 27.1201 11.9019V12.6449C27.1201 12.6917 27.0821 12.7297 27.0353 12.7297H26.9824L26.9827 12.73Z" fill="white"/>
</g>
<g id="Group_27">
<g id="Vector_108" style="mix-blend-mode:multiply" opacity="0.21">
<path d="M27.2983 11.817V12.73H27.4797V11.817H27.2983Z" fill="#414042"/>
</g>
<path id="Vector_109" opacity="0.19" d="M27.4793 12.73V11.817H27.5318C27.5787 11.817 27.6167 11.855 27.6167 11.9019V12.6449C27.6167 12.6917 27.5787 12.7297 27.5318 12.7297H27.479L27.4793 12.73Z" fill="white"/>
</g>
<g id="Group_28">
<g id="Vector_110" style="mix-blend-mode:multiply" opacity="0.21">
<path d="M31.0474 7.21747V9.38672H31.2288V7.21747H31.0474Z" fill="#414042"/>
</g>
<path id="Vector_111" opacity="0.19" d="M31.2285 9.38672V7.21747H31.2811C31.3279 7.21747 31.3659 7.25546 31.3659 7.30231V9.30159C31.3659 9.34844 31.3279 9.38643 31.2811 9.38643H31.2285V9.38672Z" fill="white"/>
</g>
<g id="Group_29">
<g id="Vector_112" style="mix-blend-mode:multiply" opacity="0.21">
<path d="M31.5645 7.21747V9.38672H31.7458V7.21747H31.5645Z" fill="#414042"/>
</g>
<path id="Vector_113" opacity="0.19" d="M31.7461 9.38672V7.21747H31.7987C31.8455 7.21747 31.8835 7.25546 31.8835 7.3023V9.30159C31.8835 9.34844 31.8455 9.38643 31.7987 9.38643H31.7461V9.38672Z" fill="white"/>
</g>
<g id="Group_30">
<g id="Vector_114" style="mix-blend-mode:multiply" opacity="0.21">
<path d="M32.0815 7.21747V9.38672H32.2629V7.21747H32.0815Z" fill="#414042"/>
</g>
<path id="Vector_115" opacity="0.19" d="M32.2632 9.38672V7.21747H32.316C32.3629 7.21747 32.4009 7.25546 32.4009 7.3023V9.30159C32.4009 9.34844 32.3629 9.38643 32.316 9.38643H32.2635L32.2632 9.38672Z" fill="white"/>
</g>
<g id="Group_31">
<g id="Vector_116" style="mix-blend-mode:multiply" opacity="0.21">
<path d="M32.5981 7.21746V9.38672H32.7795V7.21746H32.5981Z" fill="#414042"/>
</g>
<path id="Vector_117" opacity="0.19" d="M32.7793 9.38672V7.21747H32.8319C32.8787 7.21747 32.9167 7.25546 32.9167 7.3023V9.30159C32.9167 9.34844 32.8787 9.38643 32.8319 9.38643H32.7793V9.38672Z" fill="white"/>
</g>
<g id="Group_32">
<g id="Vector_118" style="mix-blend-mode:multiply" opacity="0.21">
<path d="M33.1152 7.21747V9.38672H33.2966V7.21747H33.1152Z" fill="#414042"/>
</g>
<path id="Vector_119" opacity="0.19" d="M33.2969 9.38672V7.21747H33.3494C33.3963 7.21747 33.4343 7.25546 33.4343 7.30231V9.30159C33.4343 9.34844 33.3963 9.38643 33.3494 9.38643H33.2969V9.38672Z" fill="white"/>
</g>
<g id="Group_33">
<g id="Vector_120" style="mix-blend-mode:multiply" opacity="0.21">
<path d="M33.6318 7.21747V9.38672H33.8132V7.21747H33.6318Z" fill="#414042"/>
</g>
<path id="Vector_121" opacity="0.19" d="M33.813 9.38672V7.21746H33.8655C33.9124 7.21746 33.9504 7.25546 33.9504 7.30231V9.30159C33.9504 9.34844 33.9124 9.38643 33.8655 9.38643H33.813V9.38672Z" fill="white"/>
</g>
<g id="Group_34">
<g id="Vector_122" style="mix-blend-mode:multiply" opacity="0.21">
<path d="M34.1484 7.21796V9.38721H34.3298V7.21796H34.1484Z" fill="#414042"/>
</g>
<path id="Vector_123" opacity="0.19" d="M34.3301 9.38721V7.21795H34.3826C34.4295 7.21795 34.4675 7.25594 34.4675 7.30279V9.30208C34.4675 9.34893 34.4295 9.38692 34.3826 9.38692H34.3301V9.38721Z" fill="white"/>
</g>
<g id="Group_35">
<g id="Vector_124" style="mix-blend-mode:multiply" opacity="0.21">
<path d="M34.6655 7.21746V9.38672H34.8469V7.21746H34.6655Z" fill="#414042"/>
</g>
<path id="Vector_125" opacity="0.19" d="M34.8472 9.38672V7.21747H34.8997C34.9466 7.21747 34.9846 7.25546 34.9846 7.30231V9.30159C34.9846 9.34844 34.9466 9.38644 34.8997 9.38644H34.8472V9.38672Z" fill="white"/>
</g>
<g id="Group_36">
<g id="Vector_126" style="mix-blend-mode:multiply" opacity="0.21">
<path d="M35.1821 7.21746V9.38672H35.3635V7.21746H35.1821Z" fill="#414042"/>
</g>
<path id="Vector_127" opacity="0.19" d="M35.3638 9.38672V7.21747H35.4163C35.4632 7.21747 35.5012 7.25546 35.5012 7.30231V9.30159C35.5012 9.34844 35.4632 9.38643 35.4163 9.38643H35.3638V9.38672Z" fill="white"/>
</g>
<g id="Group_37">
<g id="Vector_128" style="mix-blend-mode:multiply" opacity="0.21">
<path d="M35.6992 7.21747V9.38672H35.8806V7.21747H35.6992Z" fill="#414042"/>
</g>
<path id="Vector_129" opacity="0.19" d="M35.8809 9.38672V7.21747H35.9334C35.9803 7.21747 36.0183 7.25546 36.0183 7.30231V9.30159C36.0183 9.34844 35.9803 9.38643 35.9334 9.38643H35.8809V9.38672Z" fill="white"/>
</g>
<g id="Group_38">
<g id="Vector_130" style="mix-blend-mode:multiply" opacity="0.21">
<path d="M36.2163 7.21747V9.38672H36.3977V7.21747H36.2163Z" fill="#414042"/>
</g>
<path id="Vector_131" opacity="0.19" d="M36.3979 9.38672V7.21746H36.4505C36.4974 7.21746 36.5353 7.25546 36.5353 7.3023V9.30159C36.5353 9.34844 36.4974 9.38643 36.4505 9.38643H36.3979V9.38672Z" fill="white"/>
</g>
<g id="Group_39">
<g id="Vector_132" style="mix-blend-mode:multiply" opacity="0.21">
<path d="M36.7334 7.21746V9.38672H36.9148V7.21746H36.7334Z" fill="#414042"/>
</g>
<path id="Vector_133" opacity="0.19" d="M36.9148 9.38672V7.21746H36.9674C37.0142 7.21746 37.0522 7.25546 37.0522 7.3023V9.30159C37.0522 9.34844 37.0142 9.38643 36.9674 9.38643H36.9146L36.9148 9.38672Z" fill="white"/>
</g>
<g id="Group_40">
<g id="Vector_134" style="mix-blend-mode:multiply" opacity="0.21">
<path d="M37.25 7.21746V9.38672H37.4314V7.21746H37.25Z" fill="#414042"/>
</g>
<path id="Vector_135" opacity="0.19" d="M37.4314 9.38672V7.21747H37.484C37.5308 7.21747 37.5688 7.25546 37.5688 7.30231V9.30159C37.5688 9.34844 37.5308 9.38643 37.484 9.38643H37.4312L37.4314 9.38672Z" fill="white"/>
</g>
<g id="Group_41">
<g id="Vector_136" style="mix-blend-mode:multiply" opacity="0.21">
<path d="M37.7671 7.21747V9.38672H37.9485V7.21747H37.7671Z" fill="#414042"/>
</g>
<path id="Vector_137" opacity="0.19" d="M37.9487 9.38672V7.21747H38.0013C38.0481 7.21747 38.0861 7.25546 38.0861 7.30231V9.30159C38.0861 9.34844 38.0481 9.38643 38.0013 9.38643H37.9487V9.38672Z" fill="white"/>
</g>
<g id="Group_42">
<g id="Vector_138" style="mix-blend-mode:multiply" opacity="0.21">
<path d="M27.7954 11.817V12.73H27.9768V11.817H27.7954Z" fill="#414042"/>
</g>
<path id="Vector_139" opacity="0.19" d="M27.9766 12.73V11.817H28.0291C28.076 11.817 28.114 11.855 28.114 11.9019V12.6449C28.114 12.6917 28.076 12.7297 28.0291 12.7297H27.9766V12.73Z" fill="white"/>
</g>
<g id="Group_43">
<g id="Vector_140" style="mix-blend-mode:multiply" opacity="0.21">
<path d="M28.292 11.8165V12.7295H28.4734V11.8165H28.292Z" fill="#414042"/>
</g>
<path id="Vector_141" opacity="0.19" d="M28.4734 12.73V11.817H28.526C28.5728 11.817 28.6108 11.855 28.6108 11.9019V12.6449C28.6108 12.6917 28.5728 12.7297 28.526 12.7297H28.4731L28.4734 12.73Z" fill="white"/>
</g>
<g id="Group_44">
<g id="Vector_142" style="mix-blend-mode:multiply" opacity="0.21">
<path d="M28.7886 11.817V12.73H28.97V11.817H28.7886Z" fill="#414042"/>
</g>
<path id="Vector_143" opacity="0.19" d="M28.97 12.73V11.817H29.0226C29.0694 11.817 29.1074 11.855 29.1074 11.9019V12.6449C29.1074 12.6917 29.0694 12.7297 29.0226 12.7297H28.9697L28.97 12.73Z" fill="white"/>
</g>
<g id="Group_45">
<g id="Vector_144" style="mix-blend-mode:multiply" opacity="0.21">
<path d="M29.2852 11.817V12.73H29.4665V11.817H29.2852Z" fill="#414042"/>
</g>
<path id="Vector_145" opacity="0.19" d="M29.4666 12.73V11.817H29.5192C29.566 11.817 29.604 11.855 29.604 11.9019V12.6449C29.604 12.6917 29.566 12.7297 29.5192 12.7297H29.4663L29.4666 12.73Z" fill="white"/>
</g>
<g id="Group_46">
<g id="Vector_146" style="mix-blend-mode:multiply" opacity="0.21">
<path d="M29.7822 11.817V12.73H29.9636V11.817H29.7822Z" fill="#414042"/>
</g>
<path id="Vector_147" opacity="0.19" d="M29.9639 12.73V11.817H30.0164C30.0633 11.817 30.1013 11.855 30.1013 11.9019V12.6449C30.1013 12.6917 30.0633 12.7297 30.0164 12.7297H29.9639V12.73Z" fill="white"/>
</g>
<g id="Group_47">
<g id="Vector_148" style="mix-blend-mode:multiply" opacity="0.21">
<path d="M30.2788 11.817V12.73H30.4602V11.817H30.2788Z" fill="#414042"/>
</g>
<path id="Vector_149" opacity="0.19" d="M30.4602 12.73V11.817H30.5128C30.5597 11.817 30.5976 11.855 30.5976 11.9019V12.6449C30.5976 12.6917 30.5597 12.7297 30.5128 12.7297H30.46L30.4602 12.73Z" fill="white"/>
</g>
<g id="Group_48">
<g id="Vector_150" style="mix-blend-mode:multiply" opacity="0.21">
<path d="M30.7754 11.817V12.73H30.9568V11.817H30.7754Z" fill="#414042"/>
</g>
<path id="Vector_151" opacity="0.19" d="M30.9563 12.7295V11.8165H31.0089C31.0557 11.8165 31.0937 11.8545 31.0937 11.9014V12.6444C31.0937 12.6912 31.0557 12.7292 31.0089 12.7292H30.9561L30.9563 12.7295Z" fill="white"/>
</g>
<g id="Group_49">
<g id="Vector_152" style="mix-blend-mode:multiply" opacity="0.21">
<path d="M31.2725 11.817V12.73H31.4539V11.817H31.2725Z" fill="#414042"/>
</g>
<path id="Vector_153" opacity="0.19" d="M31.4536 12.73V11.817H31.5062C31.553 11.817 31.591 11.855 31.591 11.9019V12.6449C31.591 12.6917 31.553 12.7297 31.5062 12.7297H31.4536V12.73Z" fill="white"/>
</g>
<g id="Group_50">
<g id="Vector_154" style="mix-blend-mode:multiply" opacity="0.21">
<path d="M31.769 11.817V12.73H31.9504V11.817H31.769Z" fill="#414042"/>
</g>
<path id="Vector_155" opacity="0.19" d="M31.9502 12.73V11.817H32.0028C32.0496 11.817 32.0876 11.855 32.0876 11.9019V12.6449C32.0876 12.6917 32.0496 12.7297 32.0028 12.7297H31.9502V12.73Z" fill="white"/>
</g>
<g id="Group_51">
<g id="Vector_156" style="mix-blend-mode:multiply" opacity="0.21">
<path d="M32.2656 11.817V12.73H32.447V11.817H32.2656Z" fill="#414042"/>
</g>
<path id="Vector_157" opacity="0.19" d="M32.4466 12.73V11.817H32.4991C32.546 11.817 32.584 11.855 32.584 11.9019V12.6449C32.584 12.6917 32.546 12.7297 32.4991 12.7297H32.4463L32.4466 12.73Z" fill="white"/>
</g>
<g id="Group_52">
<g id="Vector_158" style="mix-blend-mode:multiply" opacity="0.21">
<path d="M32.7627 11.817V12.73H32.9441V11.817H32.7627Z" fill="#414042"/>
</g>
<path id="Vector_159" opacity="0.19" d="M32.9438 12.73V11.817H32.9964C33.0433 11.817 33.0812 11.855 33.0812 11.9019V12.6449C33.0812 12.6917 33.0433 12.7297 32.9964 12.7297H32.9438V12.73Z" fill="white"/>
</g>
<g id="Group_53">
<g id="Vector_160" style="mix-blend-mode:multiply" opacity="0.21">
<path d="M33.2593 11.817V12.73H33.4407V11.817H33.2593Z" fill="#414042"/>
</g>
<path id="Vector_161" opacity="0.19" d="M33.4404 12.73V11.817H33.493C33.5398 11.817 33.5778 11.855 33.5778 11.9019V12.6449C33.5778 12.6917 33.5398 12.7297 33.493 12.7297H33.4404V12.73Z" fill="white"/>
</g>
<g id="Group_54">
<g id="Vector_162" style="mix-blend-mode:multiply" opacity="0.21">
<path d="M33.7559 11.817V12.73H33.9372V11.817H33.7559Z" fill="#414042"/>
</g>
<path id="Vector_163" opacity="0.19" d="M33.937 12.73V11.817H33.9896C34.0364 11.817 34.0744 11.855 34.0744 11.9019V12.6449C34.0744 12.6917 34.0364 12.7297 33.9896 12.7297H33.937V12.73Z" fill="white"/>
</g>
<g id="Group_55">
<g id="Vector_164" style="mix-blend-mode:multiply" opacity="0.21">
<path d="M34.2529 11.817V12.73H34.4343V11.817H34.2529Z" fill="#414042"/>
</g>
<path id="Vector_165" opacity="0.19" d="M34.4339 12.73V11.817H34.4864C34.5333 11.817 34.5713 11.855 34.5713 11.9019V12.6449C34.5713 12.6917 34.5333 12.7297 34.4864 12.7297H34.4336L34.4339 12.73Z" fill="white"/>
</g>
<g id="Group_56">
<g id="Vector_166" style="mix-blend-mode:multiply" opacity="0.21">
<path d="M34.7495 11.817V12.73H34.9309V11.817H34.7495Z" fill="#414042"/>
</g>
<path id="Vector_167" opacity="0.19" d="M34.9305 12.73V11.817H34.983C35.0299 11.817 35.0679 11.855 35.0679 11.9019V12.6449C35.0679 12.6917 35.0299 12.7297 34.983 12.7297H34.9302L34.9305 12.73Z" fill="white"/>
</g>
<g id="Group_57">
<g id="Vector_168" style="mix-blend-mode:multiply" opacity="0.21">
<path d="M35.2466 11.817V12.73H35.428V11.817H35.2466Z" fill="#414042"/>
</g>
<path id="Vector_169" opacity="0.19" d="M35.4277 12.73V11.817H35.4803C35.5271 11.817 35.5651 11.855 35.5651 11.9019V12.6449C35.5651 12.6917 35.5271 12.7297 35.4803 12.7297H35.4277V12.73Z" fill="white"/>
</g>
<g id="Group_58">
<g id="Vector_170" style="mix-blend-mode:multiply" opacity="0.21">
<path d="M35.7432 11.817V12.73H35.9246V11.817H35.7432Z" fill="#414042"/>
</g>
<path id="Vector_171" opacity="0.19" d="M35.9241 12.73V11.817H35.9767C36.0235 11.817 36.0615 11.855 36.0615 11.9019V12.6449C36.0615 12.6917 36.0235 12.7297 35.9767 12.7297H35.9238L35.9241 12.73Z" fill="white"/>
</g>
<g id="Group_59">
<g id="Vector_172" style="mix-blend-mode:multiply" opacity="0.21">
<path d="M35.7427 5.26528V6.17822H35.9241V5.26528H35.7427Z" fill="#414042"/>
</g>
<path id="Vector_173" opacity="0.19" d="M35.9238 6.17871V5.26576H35.9764C36.0232 5.26576 36.0612 5.30375 36.0612 5.3506V6.09359C36.0612 6.14043 36.0232 6.17843 35.9764 6.17843H35.9238V6.17871Z" fill="white"/>
</g>
<g id="Group_60">
<g id="Vector_174" style="mix-blend-mode:multiply" opacity="0.21">
<path d="M36.3066 5.26576V6.17871H36.488V5.26576H36.3066Z" fill="#414042"/>
</g>
<path id="Vector_175" opacity="0.19" d="M36.4883 6.17871V5.26576H36.5408C36.5877 5.26576 36.6257 5.30375 36.6257 5.3506V6.09359C36.6257 6.14043 36.5877 6.17843 36.5408 6.17843H36.4883V6.17871Z" fill="white"/>
</g>
<g id="Group_61">
<g id="Vector_176" style="mix-blend-mode:multiply" opacity="0.21">
<path d="M36.8706 5.26576V6.17871H37.052V5.26576H36.8706Z" fill="#414042"/>
</g>
<path id="Vector_177" opacity="0.19" d="M37.0522 6.17871V5.26576H37.1048C37.1517 5.26576 37.1896 5.30375 37.1896 5.3506V6.09359C37.1896 6.14043 37.1517 6.17843 37.1048 6.17843H37.0522V6.17871Z" fill="white"/>
</g>
<g id="Group_62">
<g id="Vector_178" style="mix-blend-mode:multiply" opacity="0.21">
<path d="M37.4351 5.26528V6.17822H37.6164V5.26528H37.4351Z" fill="#414042"/>
</g>
<path id="Vector_179" opacity="0.19" d="M37.6162 6.17871V5.26576H37.6688C37.7156 5.26576 37.7536 5.30375 37.7536 5.3506V6.09359C37.7536 6.14043 37.7156 6.17843 37.6688 6.17843H37.6162V6.17871Z" fill="white"/>
</g>
<g id="Group_63">
<g id="Vector_180" style="mix-blend-mode:multiply" opacity="0.21">
<path d="M37.999 5.26576V6.17871H38.1804V5.26576H37.999Z" fill="#414042"/>
</g>
<path id="Vector_181" opacity="0.19" d="M38.1807 6.17871V5.26576H38.2332C38.2801 5.26576 38.3181 5.30375 38.3181 5.3506V6.09359C38.3181 6.14043 38.2801 6.17843 38.2332 6.17843H38.1807V6.17871Z" fill="white"/>
</g>
<g id="Group_64">
<g id="Vector_182" style="mix-blend-mode:multiply" opacity="0.21">
<path d="M38.563 5.26576V6.17871H38.7444V5.26576H38.563Z" fill="#414042"/>
</g>
<path id="Vector_183" opacity="0.19" d="M38.7446 6.17871V5.26576H38.7972C38.844 5.26576 38.882 5.30375 38.882 5.3506V6.09359C38.882 6.14043 38.844 6.17843 38.7972 6.17843H38.7446V6.17871Z" fill="white"/>
</g>
<g id="Group_65">
<g id="Vector_184" style="mix-blend-mode:multiply" opacity="0.21">
<path d="M39.127 5.26576V6.17871H39.3083V5.26576H39.127Z" fill="#414042"/>
</g>
<path id="Vector_185" opacity="0.19" d="M39.3086 6.17822V5.26528H39.3612C39.408 5.26528 39.446 5.30327 39.446 5.35011V6.0931C39.446 6.13995 39.408 6.17794 39.3612 6.17794H39.3086V6.17822Z" fill="white"/>
</g>
<g id="Group_66">
<g id="Vector_186" style="mix-blend-mode:multiply" opacity="0.21">
<path d="M39.6909 5.26576V6.17871H39.8723V5.26576H39.6909Z" fill="#414042"/>
</g>
<path id="Vector_187" opacity="0.19" d="M39.8726 6.17871V5.26576H39.9251C39.972 5.26576 40.01 5.30375 40.01 5.3506V6.09359C40.01 6.14043 39.972 6.17843 39.9251 6.17843H39.8726V6.17871Z" fill="white"/>
</g>
<g id="Group_67">
<g id="Vector_188" style="mix-blend-mode:multiply" opacity="0.21">
<path d="M40.2554 5.26528V6.17822H40.4368V5.26528H40.2554Z" fill="#414042"/>
</g>
<path id="Vector_189" opacity="0.19" d="M40.437 6.17871V5.26576H40.4896C40.5364 5.26576 40.5744 5.30375 40.5744 5.3506V6.09359C40.5744 6.14043 40.5364 6.17843 40.4896 6.17843H40.437V6.17871Z" fill="white"/>
</g>
<g id="Group_68">
<g id="Vector_190" style="mix-blend-mode:multiply" opacity="0.21">
<path d="M40.8193 5.26576V6.17871H41.0007V5.26576H40.8193Z" fill="#414042"/>
</g>
<path id="Vector_191" opacity="0.19" d="M41.001 6.17822V5.26528H41.0535C41.1004 5.26528 41.1384 5.30327 41.1384 5.35011V6.0931C41.1384 6.13995 41.1004 6.17794 41.0535 6.17794H41.001V6.17822Z" fill="white"/>
</g>
<g id="Vector_192" style="mix-blend-mode:multiply" opacity="0.21">
<path d="M21.5785 11.3572V7.21747C21.4985 7.18348 21.4205 7.14777 21.3457 7.11035V11.3574H21.5785V11.3572Z" fill="#414042"/>
</g>
<g id="Vector_193" style="mix-blend-mode:multiply" opacity="0.21">
<path d="M27.7631 11.357V5.58594C27.6857 5.66535 27.6083 5.74133 27.5303 5.81475V11.357H27.7631Z" fill="#414042"/>
</g>
<g id="Vector_194" style="mix-blend-mode:multiply" opacity="0.21">
<path d="M43.9341 6.83423C43.9349 6.75425 43.9352 6.67626 43.9344 6.60142H30.4618V4.33048L30.229 4.31934V11.3576H30.4618V10.0575H39.2797C39.3471 9.97699 39.4159 9.89929 39.4862 9.82474H30.4618V6.83423H43.9338H43.9341Z" fill="#414042"/>
</g>
<g id="Group_69">
<path id="Vector_195" d="M37.2948 9.38717C37.2948 11.8227 35.321 13.7968 32.8852 13.7968C30.4495 13.7968 28.4756 11.8227 28.4756 9.38717C28.4756 6.95169 30.4497 4.97754 32.8852 4.97754C35.3207 4.97754 37.2948 6.95226 37.2948 9.38717Z" fill="#414042"/>
<g id="Vector_196" style="mix-blend-mode:multiply" opacity="0.21">
<path d="M36.082 9.38697C36.082 11.1526 34.6508 12.5837 32.8852 12.5837C31.1196 12.5837 29.6885 11.1526 29.6885 9.38697C29.6885 7.62135 31.1199 6.18994 32.8852 6.18994C34.6506 6.18994 36.082 7.62135 36.082 9.38697Z" fill="#414042"/>
</g>
<path id="Vector_197" d="M35.9477 9.387C35.9477 11.0786 34.5769 12.4495 32.8852 12.4495C31.1936 12.4495 29.8228 11.0783 29.8228 9.387C29.8228 7.69564 31.1939 6.32422 32.8852 6.32422C34.5766 6.32422 35.9477 7.69564 35.9477 9.387Z" fill="#F1F2F2"/>
<path id="Vector_198" d="M35.7507 9.38687C35.7507 10.9694 34.4681 12.252 32.8856 12.252C31.3031 12.252 30.0205 10.9694 30.0205 9.38687C30.0205 7.80435 31.3034 6.52148 32.8856 6.52148C34.4678 6.52148 35.7507 7.80464 35.7507 9.38687Z" fill="#A7A9AC"/>
<path id="Vector_199" d="M35.0783 9.38681C35.0783 10.598 34.0968 11.5798 32.8853 11.5798C31.6739 11.5798 30.6924 10.598 30.6924 9.38681C30.6924 8.17564 31.6742 7.19385 32.8853 7.19385C34.0965 7.19385 35.0783 8.17592 35.0783 9.38681Z" fill="#F1F2F2"/>
<path id="Vector_200" d="M34.8788 9.38713C34.8788 10.488 33.9864 11.3807 32.8852 11.3807C31.784 11.3807 30.8916 10.4883 30.8916 9.38713C30.8916 8.28594 31.784 7.39355 32.8852 7.39355C33.9864 7.39355 34.8788 8.28622 34.8788 9.38713Z" fill="#D1D3D4"/>
<path id="Vector_201" d="M34.1632 9.3869C34.1632 10.0927 33.591 10.6646 32.8854 10.6646C32.1799 10.6646 31.6074 10.0925 31.6074 9.3869C31.6074 8.68134 32.1796 8.10889 32.8854 8.10889C33.5913 8.10889 34.1632 8.68105 34.1632 9.3869Z" fill="#F1F2F2"/>
<g id="Group_70">
<path id="Vector_202" d="M32.6251 6.69189C32.3786 6.7156 32.1352 6.77245 31.9019 6.863L32.0541 7.19207C32.2384 7.12237 32.4335 7.07496 32.6363 7.05353L32.6254 6.69189H32.6251Z" fill="#414042"/>
<path id="Vector_203" d="M31.064 7.9079L30.8 7.65967C30.6375 7.85505 30.5075 8.06758 30.4087 8.29039L30.7489 8.41551C30.8323 8.2324 30.9383 8.06215 31.0637 7.9079H31.064Z" fill="#414042"/>
<path id="Vector_204" d="M31.7453 7.33591L31.5931 7.00684C31.394 7.1151 31.2057 7.24993 31.0332 7.41189L31.2971 7.66013C31.4328 7.53529 31.5831 7.42617 31.7453 7.33591Z" fill="#414042"/>
<path id="Vector_205" d="M34.6049 7.29548C34.408 7.13323 34.1941 7.00325 33.9696 6.90527L33.8447 7.24492C34.0293 7.32775 34.2012 7.43373 34.3569 7.55913L34.6049 7.29548Z" fill="#414042"/>
<path id="Vector_206" d="M33.6492 6.78893C33.4261 6.72351 33.1961 6.68723 32.9653 6.68066L32.9765 7.0423C33.1656 7.04944 33.3492 7.07887 33.5244 7.12857L33.6492 6.78921V6.78893Z" fill="#414042"/>
<path id="Vector_207" d="M35.2192 9.13771L35.5802 9.12657C35.5565 8.87834 35.4994 8.63324 35.4074 8.39844L35.0786 8.5504C35.1495 8.73608 35.1974 8.93289 35.2192 9.13799V9.13771Z" fill="#414042"/>
<path id="Vector_208" d="M30.631 8.73498L30.2911 8.60986C30.2243 8.83296 30.1871 9.06234 30.1797 9.29286L30.5416 9.28172C30.5499 9.0929 30.5807 8.9098 30.631 8.73498Z" fill="#414042"/>
<path id="Vector_209" d="M35.2627 8.09057C35.1536 7.89004 35.0173 7.70037 34.8539 7.52783L34.606 7.79149C34.7325 7.92775 34.8428 8.07914 34.9342 8.24254L35.2627 8.09057Z" fill="#414042"/>
<path id="Vector_210" d="M34.0186 11.4422L34.1705 11.7713C34.3725 11.6621 34.5633 11.5262 34.7375 11.3625L34.4736 11.1143C34.3359 11.2408 34.1834 11.3511 34.0186 11.4422Z" fill="#414042"/>
<path id="Vector_211" d="M33.1201 11.7216L33.1313 12.0832C33.3801 12.0607 33.626 12.0044 33.8614 11.9138L33.7091 11.5845C33.5229 11.6542 33.3255 11.7013 33.1201 11.7216Z" fill="#414042"/>
<path id="Vector_212" d="M34.707 10.8663L34.9713 11.1148C35.1347 10.9172 35.2666 10.7021 35.3649 10.4764L35.0255 10.3516C34.9418 10.5372 34.8341 10.7103 34.707 10.8663Z" fill="#414042"/>
<path id="Vector_213" d="M35.2303 9.47794C35.2228 9.66932 35.1929 9.85471 35.1426 10.0315L35.4822 10.1564C35.5491 9.93098 35.5856 9.69932 35.5919 9.4668L35.2306 9.47794H35.2303Z" fill="#414042"/>
<path id="Vector_214" d="M30.8279 10.5151L30.4985 10.6674C30.6068 10.8685 30.7416 11.0582 30.903 11.2316L31.1513 10.9676C31.0264 10.8308 30.9176 10.6788 30.8276 10.5151H30.8279Z" fill="#414042"/>
<path id="Vector_215" d="M31.1499 11.4659C31.3461 11.6299 31.5598 11.7615 31.7838 11.8612L31.9089 11.5207C31.7246 11.4362 31.5532 11.3288 31.3984 11.2017L31.1499 11.4659Z" fill="#414042"/>
<path id="Vector_216" d="M30.5509 9.62158L30.189 9.63272C30.2118 9.87981 30.2672 10.124 30.3566 10.358L30.6863 10.2057C30.6174 10.0209 30.5712 9.82525 30.5509 9.62187V9.62158Z" fill="#414042"/>
<path id="Vector_217" d="M32.2281 11.6396L32.103 11.9799C32.3276 12.0476 32.5592 12.085 32.7917 12.093L32.7806 11.7308C32.5898 11.7222 32.4047 11.6911 32.2284 11.6396H32.2281Z" fill="#414042"/>
</g>
<path id="Vector_218" d="M33.988 9.3868C33.988 9.99581 33.4944 10.4894 32.8853 10.4894C32.2763 10.4894 31.7827 9.99581 31.7827 9.3868C31.7827 8.77779 32.2763 8.28418 32.8853 8.28418C33.4944 8.28418 33.988 8.77807 33.988 9.3868Z" fill="#D1D3D4"/>
<path id="Vector_219" d="M33.6492 9.38709C33.6492 9.80871 33.3072 10.1506 32.8856 10.1506C32.464 10.1506 32.1221 9.80871 32.1221 9.38709C32.1221 8.96546 32.464 8.62354 32.8856 8.62354C33.3072 8.62354 33.6492 8.96546 33.6492 9.38709Z" fill="#F1F2F2"/>
<path id="Vector_220" d="M33.5446 9.38654C33.5446 9.75046 33.2495 10.0455 32.8856 10.0455C32.5216 10.0455 32.2266 9.75046 32.2266 9.38654C32.2266 9.02262 32.5216 8.72754 32.8856 8.72754C33.2495 8.72754 33.5446 9.02262 33.5446 9.38654Z" fill="#A7A9AC"/>
<g id="Vector_221" style="mix-blend-mode:multiply" opacity="0.21">
<path d="M35.9838 12.5239C36.793 11.7244 37.2949 10.6146 37.2949 9.38717C37.2949 6.95198 35.3211 4.97754 32.8853 4.97754C31.685 4.97754 30.5975 5.45772 29.8022 6.23584L35.9838 12.5239Z" fill="#414042"/>
</g>
</g>
<path id="Vector_222" d="M29.0991 5.18473L28.9072 5.23072C28.8269 5.24986 28.7461 5.20044 28.7266 5.11988L27.5549 0.230638C27.5358 0.150084 27.5852 0.0695299 27.6657 0.0501055L27.8577 0.00411525C27.938 -0.0150235 28.0188 0.0343945 28.0382 0.114949L29.21 5.00419C29.2291 5.08446 29.1797 5.1653 29.0991 5.18473Z" fill="#4A5EA4"/>
<path id="Vector_223" d="M25.4905 6.49024L25.4508 6.46367C25.3819 6.41768 25.3636 6.32456 25.4096 6.256L27.2512 3.50545C27.2972 3.4366 27.3903 3.41832 27.4589 3.46431L27.4986 3.49088C27.5672 3.53687 27.5857 3.62999 27.5397 3.69855L25.6981 6.44911C25.6521 6.51795 25.559 6.53623 25.4905 6.49024Z" fill="#33333B"/>
<path id="Vector_224" d="M28.8487 4.73633H29.0941C29.1575 4.73633 29.2089 4.78775 29.2089 4.85116V6.17802C29.2089 6.24144 29.1575 6.29285 29.0941 6.29285H28.8487C28.7853 6.29285 28.7339 6.24144 28.7339 6.17802V4.85116C28.7339 4.78775 28.7853 4.73633 28.8487 4.73633Z" fill="#E6E7E8"/>
<path id="Vector_225" d="M27.4971 1.4921V1.45554C27.4971 1.39212 27.5485 1.3407 27.6119 1.3407H28.1301C28.1935 1.3407 28.2449 1.39212 28.2449 1.45554V1.4921C28.2449 1.55552 28.1935 1.60693 28.1301 1.60693H27.6119C27.5485 1.60693 27.4971 1.55552 27.4971 1.4921Z" fill="#E6E7E8"/>
<path id="Vector_226" d="M28.0083 3.71232V3.67575C28.0083 3.61234 28.0597 3.56092 28.1231 3.56092H28.6413C28.7047 3.56092 28.7561 3.61234 28.7561 3.67575V3.71232C28.7561 3.77573 28.7047 3.82715 28.6413 3.82715H28.1231C28.0597 3.82715 28.0083 3.77573 28.0083 3.71232Z" fill="#E6E7E8"/>
<path id="Vector_227" d="M43.4479 4.95841L42.5938 4.91699V8.09317C43.3433 7.90893 43.8789 7.89807 43.8789 7.89807C43.9963 6.58521 43.904 5.72368 43.8292 5.2952C43.7966 5.10781 43.6381 4.96812 43.4479 4.95841Z" fill="#D1D3D4"/>
<path id="Vector_228" d="M6.42004 9.55127H5.67363C5.50081 9.55127 5.36084 9.69124 5.36084 9.86406V11.5366L6.42004 9.55127Z" fill="#B52232"/>
<g id="Vector_229" style="mix-blend-mode:multiply" opacity="0.21">
<path d="M5.47759 9.96033C5.47759 9.78751 5.61756 9.64753 5.79038 9.64753H6.36911L6.42053 9.55127H5.67412C5.5013 9.55127 5.36133 9.69124 5.36133 9.86406V11.5366L5.47759 11.3186V9.96033Z" fill="#414042"/>
</g>
<g id="Group_71">
<path id="Vector_230" d="M37.7737 13.6479C37.6583 13.6536 37.564 13.5565 37.5675 13.441C37.5938 12.4964 37.9614 8.49896 42.277 7.61029C42.277 7.61029 46.0742 6.71305 48.077 9.88523C48.077 9.88523 47.7644 9.91723 47.284 9.86924C47.284 9.86924 47.0275 9.81325 46.8192 9.661C46.8192 9.661 45.7777 8.60351 43.5788 8.72377C43.5788 8.72377 40.4986 8.82775 39.4411 11.9199C39.4411 11.9199 38.9543 13.5902 37.7737 13.6476V13.6479Z" fill="#4A5EA4"/>
<path id="Vector_231" d="M17.2497 13.6362C17.4502 13.6302 17.6068 13.4622 17.5913 13.2623C17.4885 11.9254 16.7604 7.1753 11.598 7.01904C11.598 7.01904 6.35973 7.01904 4.5624 12.8807C4.52869 12.9909 4.59068 13.1083 4.70151 13.1395C4.92861 13.2037 5.32795 13.2771 5.76557 13.1763C5.76557 13.1763 6.37602 13.0463 6.57083 12.5267C6.57083 12.5267 7.47578 8.77695 11.3035 8.75096C11.3035 8.75096 14.8368 8.44788 15.8589 12.4487C15.8589 12.4487 16.0925 13.6699 17.2497 13.6359V13.6362Z" fill="#4A5EA4"/>
</g>
</g>
</g>
</g>
</g>
<defs>
<filter id="filter0_d_2895_2879" x="0" y="0" width="52.4111" height="26" filterUnits="userSpaceOnUse" color-interpolation-filters="sRGB">
<feFlood flood-opacity="0" result="BackgroundImageFix"/>
<feColorMatrix in="SourceAlpha" type="matrix" values="0 0 0 0 0 0 0 0 0 0 0 0 0 0 0 0 0 0 127 0" result="hardAlpha"/>
<feOffset dy="4"/>
<feGaussianBlur stdDeviation="2"/>
<feComposite in2="hardAlpha" operator="out"/>
<feColorMatrix type="matrix" values="0 0 0 0 0 0 0 0 0 0 0 0 0 0 0 0 0 0 0.25 0"/>
<feBlend mode="normal" in2="BackgroundImageFix" result="effect1_dropShadow_2895_2879"/>
<feBlend mode="normal" in="SourceGraphic" in2="effect1_dropShadow_2895_2879" result="shape"/>
</filter>
</defs>
</svg>
